<svg id="Capa_1" data-name="Capa 1" xmlns="http://www.w3.org/2000/svg" viewBox="0 0 475.14 475.14"><defs><style>.cls-1{fill:#e55552;stroke-miterlimit:10;stroke-width:20px;}.cls-1,.cls-4{stroke:#20345b;}.cls-2{fill:#20345b;}.cls-3{fill:#e3d7cf;}.cls-4{fill:none;stroke-linecap:round;stroke-linejoin:round;stroke-width:6.9px;}</style></defs><title>Amy Winehouse</title><g id="Elipse_27-2" data-name="Elipse 27-2"><circle class="cls-1" cx="237.57" cy="237.57" r="227.57"/></g><path class="cls-2" d="M178.54,328.72V243.33c-14.34-6.3-11.87-32.15-11.87-32.15V134.66A83.6,83.6,0,0,1,250,51.31h0a83.6,83.6,0,0,1,83.35,83.35v74.56s2.71,25.12-10.82,31V328.7" transform="translate(-12.43 -12.43)"/><path class="cls-2" d="M322.56,332.17a3.45,3.45,0,0,1-3.44-3.45V240.24a3.45,3.45,0,0,1,2.06-3.16c9.16-4,9.44-21.2,8.77-27.49V134.66a79.91,79.91,0,0,0-159.81,0V211.5c-.61,6.51,0,24.34,9.83,28.67a3.45,3.45,0,0,1,2.06,3.16v85.39a3.45,3.45,0,1,1-6.9,0v-83.3c-13.71-8.24-12.08-31.91-11.87-34.4V134.66a86.81,86.81,0,0,1,173.61,0v74.39c.25,2.55,2.07,25.38-10.82,33.28v86.39a3.44,3.44,0,0,1-3.45,3.45Z" transform="translate(-12.43 -12.43)"/><path class="cls-3" d="M272.14,169.83c0,39.56-71.26,41.77-88.15,41.73V221c0,42.63,29.55,77.18,66,77.18s66-34.55,66-77.18C316,200,272.14,169.83,272.14,169.83Z" transform="translate(-12.43 -12.43)"/><path class="cls-2" d="M250,301.63c-38.29,0-69.45-36.16-69.45-80.62v-12.9h4c52.4,0,71.71-15.21,76.39-19.88a24.92,24.92,0,0,0,7.79-18.41v-6.56l5.4,3.72a220.65,220.65,0,0,1,22.34,18c15.3,14.18,23,26.29,23,36C319.48,265.47,288.33,301.63,250,301.63ZM187.46,215v6c0,40.66,28.06,73.73,62.55,73.73s62.55-33.07,62.55-73.73c0-13.87-23.88-34.62-37.58-44.86a32.15,32.15,0,0,1-9.24,17C246.78,212.08,204.6,214.73,187.46,215Z" transform="translate(-12.43 -12.43)"/><circle class="cls-2" cx="253.67" cy="255.94" r="2.36"/><path class="cls-3" d="M193.81,159.9s49.87-42.53,104.14,0c0,0-5.87-13.85-13.69-18.9,0,0,10.76.81,22-19.23,0,0-21.51-6.21-31.78,5.69,0,0,1.47-13.51-19.07-24.76,0,0-5.37,18.23-.48,24.76C254.93,127.46,204.57,123.24,193.81,159.9Z" transform="translate(-12.43 -12.43)"/><path class="cls-3" d="M299.69,162.18l-2.18-1.71c-53.17-41.67-102.73-.44-103.23,0L192.45,162l.68-2.31c9.78-33.36,52.23-33.35,60.47-33-3.73-7.45.91-23.45,1.13-24.17l.25-.85.78.42c16.47,9,19.07,19.44,19.42,23.61,10.79-10.36,30.42-4.85,31.28-4.6l.87.25-.44.79c-8.61,15.34-16.95,18.7-20.67,19.42,7.1,5.73,12.16,17.55,12.39,18.08Zm-49.14-34.13c-12,0-45.65,2.51-55.34,29.86,9.46-7,53.48-35.44,100.84-.35-2.1-4.22-6.68-12.4-12.18-16L281.5,140l2.81.21c.09,0,10.19.44,20.86-18-4.12-1-21.46-4.37-30.14,5.7l-1.5,1.73.24-2.27c0-.13,1.08-12.86-17.91-23.62-1,3.67-4.39,17.88-.36,23.26l1,1.28-1.6-.13c-.12,0-1.72-.14-4.35-.14Z" transform="translate(-12.43 -12.43)"/><g id="Elipse_27-2-2" data-name="Elipse 27-2-2"><path class="cls-2" d="M250,301.63a3.45,3.45,0,0,1-.37-6.89H250c34.49,0,62.55-33.07,62.55-73.73a3.45,3.45,0,0,1,6.89,0C319.48,265.47,288.33,301.63,250,301.63Z" transform="translate(-12.43 -12.43)"/></g><path class="cls-3" d="M287.12,284.85V321.4s84.43-1.61,84.43,93.49H128.45c0-95.1,84.43-93.49,84.43-93.49V284.8s13.8,13.39,37.16,13.39S287.12,284.85,287.12,284.85Z" transform="translate(-12.43 -12.43)"/><path class="cls-2" d="M371.55,418.33H128.45A3.44,3.44,0,0,1,125,414.9h0c0-31,8.75-55.25,26-72.18,21.22-20.82,48.73-24.16,58.42-24.67V284.79a3.45,3.45,0,0,1,5.85-2.47c.12.12,13.18,12.42,34.76,12.42s34.56-12.24,34.69-12.37a3.45,3.45,0,0,1,5.84,2.48V318c9.69.51,37.2,3.85,58.42,24.67,17.26,16.93,26,41.22,26,72.18a3.44,3.44,0,0,1-3.4,3.48Zm-239.61-6.89H368.07c-.62-27.36-8.64-48.79-23.85-63.76-23.52-23.13-56.73-22.84-57-22.84a3.38,3.38,0,0,1-2.48-1,3.43,3.43,0,0,1-1-2.46V291.82a62.56,62.56,0,0,1-67.36-.06V321.4a3.43,3.43,0,0,1-1,2.46,3.48,3.48,0,0,1-2.48,1c-.34,0-33.51-.29-57,22.84-15.33,14.95-23.35,36.38-24,63.74Z" transform="translate(-12.43 -12.43)"/><path class="cls-2" d="M216,249.59a9.35,9.35,0,1,1,9.35-9.35A9.35,9.35,0,0,1,216,249.59Zm0-11.8a2.46,2.46,0,1,0,2.46,2.46h0a2.45,2.45,0,0,0-2.45-2.45Z" transform="translate(-12.43 -12.43)"/><path class="cls-2" d="M216,237.79H201.81a3.45,3.45,0,0,1,0-6.9H216a3.45,3.45,0,0,1,0,6.9Z" transform="translate(-12.43 -12.43)"/><path class="cls-2" d="M281.31,249.59a9.35,9.35,0,1,1,9.35-9.35A9.35,9.35,0,0,1,281.31,249.59Zm0-11.8a2.46,2.46,0,1,0,2.45,2.47v0A2.47,2.47,0,0,0,281.31,237.79Z" transform="translate(-12.43 -12.43)"/><path class="cls-2" d="M295.49,237.79H281.31a3.45,3.45,0,0,1,0-6.9h14.19a3.45,3.45,0,0,1,0,6.9Z" transform="translate(-12.43 -12.43)"/><path class="cls-2" d="M263.74,283.64H236.26a3.45,3.45,0,0,1,0-6.9h27.49a3.45,3.45,0,0,1,0,6.9Z" transform="translate(-12.43 -12.43)"/><path class="cls-2" d="M224.72,226.18a3.48,3.48,0,0,1-2.44-1c-8.73-8.74-17.82-.85-18.83.08a3.45,3.45,0,0,1-4.7-5,25.18,25.18,0,0,1,8.83-5c5-1.6,12.45-2,19.58,5.13a3.45,3.45,0,0,1-2.44,5.89Z" transform="translate(-12.43 -12.43)"/><path class="cls-2" d="M299,226.18a3.48,3.48,0,0,1-2.44-1c-8.74-8.74-17.82-.84-18.83.08a3.45,3.45,0,0,1-4.7-5,25.18,25.18,0,0,1,8.83-5c5-1.6,12.45-2,19.58,5.13a3.45,3.45,0,0,1-2.44,5.89Z" transform="translate(-12.43 -12.43)"/><path class="cls-2" d="M196.7,418.33a3.45,3.45,0,0,1-3.45-3.44v-92a3.45,3.45,0,0,1,6.9,0v92a3.44,3.44,0,0,1-3.44,3.44Z" transform="translate(-12.43 -12.43)"/><path class="cls-2" d="M303.37,418.33a3.44,3.44,0,0,1-3.44-3.44h0v-92a3.45,3.45,0,0,1,6.89-.37,2.29,2.29,0,0,1,0,.37v92a3.44,3.44,0,0,1-3.44,3.44Z" transform="translate(-12.43 -12.43)"/><path class="cls-4" d="M196.7,396.58" transform="translate(-12.43 -12.43)"/><path class="cls-2" d="M279.88,373.09a23.49,23.49,0,0,1,23.49,23.49v18.31H196.7V396.58a23.49,23.49,0,0,1,23.49-23.49,25.92,25.92,0,0,1,17.1,7.4s11.91,13.58,25.49,0A23.62,23.62,0,0,1,279.88,373.09Z" transform="translate(-12.43 -12.43)"/><path class="cls-2" d="M303.37,418.33H196.7a3.45,3.45,0,0,1-3.45-3.44V396.58a27,27,0,0,1,26.94-26.93,29.4,29.4,0,0,1,19.54,8.4l.16.17s4.26,4.7,9.94,4.86c3.57.09,7-1.57,10.43-4.95a26.94,26.94,0,0,1,46.56,18.45v18.31a3.44,3.44,0,0,1-3.44,3.44Zm-103.22-6.89h99.78V396.58a20,20,0,0,0-34.53-13.85l-.18.2c-4.85,4.85-10.09,7.23-15.67,7-8.2-.27-13.92-6.19-14.75-7.1a22.22,22.22,0,0,0-14.57-6.33,20.07,20.07,0,0,0-20.08,20Zm62.63-30.95Z" transform="translate(-12.43 -12.43)"/></svg>