<svg id="Capa_1" data-name="Capa 1" xmlns="http://www.w3.org/2000/svg" viewBox="0 0 475.14 475.14"><defs><style>.cls-1,.cls-2,.cls-3{fill:#e3d7ce;}.cls-1,.cls-2,.cls-3,.cls-4{stroke:#20345b;}.cls-1,.cls-2{stroke-miterlimit:10;}.cls-1{stroke-width:20px;}.cls-2,.cls-3,.cls-4{stroke-width:7.09px;}.cls-3,.cls-4,.cls-6,.cls-7,.cls-8{stroke-linecap:round;stroke-linejoin:round;}.cls-4,.cls-6,.cls-8{fill:none;}.cls-5{fill:#20345b;}.cls-6,.cls-7,.cls-8{stroke:#1e335b;}.cls-6{stroke-width:8.08px;}.cls-7{fill:#1e335b;stroke-width:4.16px;}.cls-8{stroke-width:8.24px;}</style></defs><title>Back To The Future</title><g id="Elipse_27-2" data-name="Elipse 27-2"><circle class="cls-1" cx="237.57" cy="237.57" r="227.57"/></g><ellipse id="Elipse_27-2-2" data-name="Elipse 27-2" class="cls-2" cx="239" cy="196.52" rx="67.87" ry="79.36"/><path class="cls-3" d="M211.21,314.48" transform="translate(-12.43 -12.43)"/><path class="cls-3" d="M287.56,314.48" transform="translate(-12.43 -12.43)"/><path class="cls-3" d="M288.18,314.48v-37.6s-21.95,11.43-40.13,11.43S211.82,276,211.82,276v38.46S125,312.83,125,410.62H375C375,312.83,288.18,314.48,288.18,314.48Z" transform="translate(-12.43 -12.43)"/><path class="cls-4" d="M207.16,228.05s12.53-11.75,24.29,0" transform="translate(-12.43 -12.43)"/><path class="cls-4" d="M269,228.05s12.53-11.75,24.28,0" transform="translate(-12.43 -12.43)"/><path class="cls-3" d="M288.18,314.48V295.25c-42,19.87-76.36,0-76.36,0v19.23l23.43,29.86L251,306.25l15.94,38.09Z" transform="translate(-12.43 -12.43)"/><line class="cls-4" x1="238.55" y1="293.82" x2="238.55" y2="398.19"/><circle class="cls-5" cx="220.49" cy="311.24" r="3.88"/><circle class="cls-5" cx="256.54" cy="311.24" r="3.88"/><line class="cls-4" x1="157.7" y1="398.19" x2="157.7" y2="371.37"/><line class="cls-4" x1="323.34" y1="398.19" x2="323.34" y2="371.37"/><path class="cls-5" d="M182.13,222.69a82,82,0,0,1-14.51,10.75l.75-4.85-12.44,2.87,8.23-11.58L152,217.25l6.49-6.82a2.71,2.71,0,0,0,1-2.19c-.17-.89-1.14-1.35-2-1.66l-16.95-6.32a63.7,63.7,0,0,0,21.72-12.58L140,180.75a42.52,42.52,0,0,0,12.86-11.24,32.46,32.46,0,0,1-10.21-5,38.31,38.31,0,0,0,12.4-8.94l-9.46-7.59a185.07,185.07,0,0,0,18.67-10.28L154,128.1,176,125.48l-1.63-10.38a39.18,39.18,0,0,0,16.63-.27l-.64-12.74c2.75.09,5.29,1.41,7.87,2.39s5.57,1.6,8,.35,3.56-5.11,1.4-6.82c8.91,2.41,17.22,6.62,25.45,10.8q1.23-7.89,3-15.69a39.92,39.92,0,0,1,14.66,10.21l.26,0v20.11s-67.5,7.53-67.5,46.5v51.8" transform="translate(-12.43 -12.43)"/><path class="cls-5" d="M179.52,220.08a80.55,80.55,0,0,1-13.77,10.17l5.43,4.17.75-4.85c.43-2.78-1.59-5.22-4.54-4.54L155,227.9l4.17,5.43,8.23-11.59c1.34-1.89,0-4.94-2.21-5.42L153,213.69l1.63,6.17c2.27-2.38,4.72-4.69,6.83-7.2,2.4-2.85,2.43-6.67-1-8.77-2.65-1.63-6.16-2.44-9.06-3.52l-9.83-3.67v7.12a69.77,69.77,0,0,0,23.35-13.53c2.18-1.91.86-5.4-1.63-6.17L141,177.19l.88,6.75a48.5,48.5,0,0,0,14.19-12.57c1.51-2-.17-4.81-2.21-5.42a31.19,31.19,0,0,1-9.33-4.67v6.37a42,42,0,0,0,13.15-9.51c1.25-1.34,1.6-3.94,0-5.22l-9.46-7.59-.75,5.8a193.71,193.71,0,0,0,18.68-10.28,3.73,3.73,0,0,0,.74-5.8l-10.23-9.56-2.61,6.3L176,129.17a3.78,3.78,0,0,0,3.56-4.67l-1.63-10.38-4.54,4.54a45.14,45.14,0,0,0,18.59-.27,3.71,3.71,0,0,0,2.71-3.56L194,102.09l-3.69,3.69c2.81.19,5.37,1.82,8,2.65a13,13,0,0,0,8.76,0c5-2,7.45-9.09,3.13-13l-3.59,6.17C215.29,104,223.26,108,231.22,112c1.9,1,5,.29,5.42-2.21q1.25-7.89,3-15.68l-4.54,2.57a35.91,35.91,0,0,1,8.28,4.82c2.39,1.85,4.48,5.27,7.62,5.55l-3.69-3.69v20.11l3.69-3.69a127.82,127.82,0,0,0-44.31,13.11c-9.56,5-18.94,12.19-23.56,22.22-2.87,6.21-3.32,12.4-3.32,19.16v47.5c0,4.75,7.38,4.76,7.38,0V184.08c0-7.59-.82-15.48,1.16-22.1.16-.53.33-1.06.52-1.58.11-.31.23-.62.35-.93.4-1-.3.65.15-.34a33,33,0,0,1,1.83-3.48,32.05,32.05,0,0,1,2-3c-.44.57.52-.64.65-.8.47-.55.94-1.09,1.44-1.62A47.24,47.24,0,0,1,207,141.12a84.62,84.62,0,0,1,13.88-6.5,137.35,137.35,0,0,1,14-4.32c4-1,8-1.85,12-2.53,1.21-.21,2.43-.39,3.64-.57.63-.09-1.13.15.08,0l.33,0c2-.23,3.69-1.51,3.69-3.69V103.36A3.77,3.77,0,0,0,251,99.67l-.26,0,2.61,1.08A45.09,45.09,0,0,0,237,89.56c-1.78-.73-4.14.81-4.54,2.58q-1.73,7.8-3,15.69l5.42-2.21c-8.5-4.32-17.1-8.62-26.33-11.17-3.45-1-6.36,3.63-3.59,6.17.68.62-.11,0,.1-.15-.06,0-.09.71-.46,1s-2,.34-2.89.18c-4-.76-7.3-3-11.44-3.3a3.71,3.71,0,0,0-3.69,3.69l.64,12.74,2.71-3.56a35.9,35.9,0,0,1-14.67.27c-2.95-.56-5,1.68-4.54,4.55l1.63,10.37,3.56-4.67L154,124.41c-2.93.35-5.18,3.91-2.61,6.3l10.23,9.56.75-5.8a189.27,189.27,0,0,1-18.68,10.28c-2,1-2.52,4.37-.74,5.8l9.46,7.59v-5.22a36.88,36.88,0,0,1-11.65,8.36c-2.77,1.27-2,4.92,0,6.37a36.78,36.78,0,0,0,11.09,5.42l-2.21-5.43a39.15,39.15,0,0,1-11.54,9.93,3.73,3.73,0,0,0,.88,6.74l22.34,6.93-1.63-6.17a60.4,60.4,0,0,1-20.09,11.63,3.73,3.73,0,0,0,0,7.12L153.52,209c.42.16,2.8,1.32,3,1.14s-.75-2.34-.66-2.32c-.19,0-1.12,1.18-1.25,1.31l-5.24,5.51c-1.82,1.91-1.18,5.56,1.63,6.17l12.14,2.63L161,218l-8.23,11.58c-2,2.79,1.28,6.09,4.17,5.42l12.44-2.87-4.54-4.54-.75,4.85c-.47,3,2.41,5.93,5.42,4.17a89.84,89.84,0,0,0,15.26-11.33c3.5-3.23-1.73-8.44-5.22-5.22Z" transform="translate(-12.43 -12.43)"/><path class="cls-5" d="M323.78,222.69a81.9,81.9,0,0,0,14.5,10.75l-.75-4.85L350,231.46l-8.23-11.58,12.14-2.63-6.48-6.82a2.72,2.72,0,0,1-1-2.19c.17-.89,1.14-1.35,2-1.66l16.95-6.32a63.7,63.7,0,0,1-21.72-12.58l22.33-6.93A42.56,42.56,0,0,1,353,169.51a32.46,32.46,0,0,0,10.21-5,38.31,38.31,0,0,1-12.4-8.94l9.47-7.59a184.14,184.14,0,0,1-18.68-10.28l10.23-9.56-21.94-2.62,1.63-10.38a39.18,39.18,0,0,1-16.63-.27l.65-12.74c-2.76.09-5.3,1.41-7.88,2.39s-5.57,1.6-8,.35-3.57-5.11-1.41-6.82c-8.91,2.41-17.22,6.62-25.45,10.8q-1.23-7.89-3-15.69a40,40,0,0,0-14.66,10.21l-.26,0v20.11s67.5,7.53,67.5,46.5v51.8" transform="translate(-12.43 -12.43)"/><path class="cls-5" d="M321.17,225.3a89.77,89.77,0,0,0,15.25,11.33c3,1.77,5.89-1.15,5.42-4.17l-.75-4.85-4.54,4.54L349,235c2.87.67,6.15-2.63,4.17-5.42L344.93,218l-2.21,5.42,12.14-2.63c2.81-.61,3.45-4.26,1.63-6.17l-5-5.25a11.21,11.21,0,0,0-1.49-1.57,12.52,12.52,0,0,0-.66,2.32c.4.15,2.52-.95,3-1.14l13.9-5.18a3.73,3.73,0,0,0,0-7.12,60.21,60.21,0,0,1-20.09-11.63l-1.63,6.17,22.33-6.93a3.73,3.73,0,0,0,.88-6.74,39.27,39.27,0,0,1-11.54-9.93L354,173.07a36.83,36.83,0,0,0,11.1-5.42c2-1.45,2.76-5.1,0-6.37a36.81,36.81,0,0,1-11.66-8.36v5.22l9.47-7.59c1.78-1.43,1.24-4.84-.75-5.8a189.27,189.27,0,0,1-18.68-10.28l.75,5.8,10.23-9.56c2.58-2.41.33-6-2.61-6.3l-21.94-2.62,3.56,4.67,1.63-10.37c.45-2.87-1.59-5.11-4.54-4.55a35.9,35.9,0,0,1-14.67-.27l2.71,3.56.65-12.74a3.71,3.71,0,0,0-3.69-3.69c-4.15.27-7.46,2.54-11.45,3.3-.9.17-2.42.2-2.9-.22a2,2,0,0,1-.47-1.08c.1.36-.48.77.12.22,2.77-2.53-.14-7.12-3.59-6.17C288.06,97,279.46,101.3,271,105.62l5.42,2.21q-1.25-7.89-3-15.69c-.4-1.78-2.76-3.31-4.54-2.58a45.26,45.26,0,0,0-16.29,11.16l2.61-1.08-.26,0a3.77,3.77,0,0,0-3.69,3.69v20.11c0,2.16,1.71,3.46,3.69,3.69l.24,0,.33,0c.71.08,0-.22-.44-.06.66-.23,2.22.32,2.9.43,3.36.54,6.7,1.21,10,2,4.57,1.06,9.09,2.32,13.53,3.82q3.7,1.25,7.32,2.73c1,.42-.38-.17.23.09l.8.35,1.9.85c1.27.59,2.53,1.21,3.76,1.85a72,72,0,0,1,6.89,4.07,39.51,39.51,0,0,1,5.59,4.33c.87.79,1.71,1.61,2.51,2.46.46.49.9,1,1.33,1.48l.64.77s.7.9.24.29a34.69,34.69,0,0,1,3.86,6.47c.45,1-.26-.68.14.34.12.31.24.62.35.93.19.52.36,1,.52,1.58a32,32,0,0,1,.91,4c.18,1.13-.07-.74,0,.41,0,.35.07.7.1,1.06.05.59.08,1.2.09,1.8.06,2.59,0,5.19,0,7.78v44.75c0,4.75,7.38,4.76,7.38,0V182.22c0-7.56.75-15.52-1.62-22.84-6.88-21.28-31.47-31.08-51.27-36.13a137,137,0,0,0-18.3-3.47l3.7,3.69V103.36l-3.7,3.69c3.14-.28,5.24-3.7,7.62-5.55a35.91,35.91,0,0,1,8.28-4.82l-4.54-2.57q1.74,7.78,3,15.68c.4,2.5,3.53,3.17,5.43,2.21,7.95-4,15.93-8,24.56-10.43l-3.59-6.17c-4.32,3.95-1.83,11,3.13,13a13,13,0,0,0,8.76,0c2.66-.83,5.21-2.46,8-2.65l-3.7-3.69-.64,12.74a3.71,3.71,0,0,0,2.71,3.56,45.14,45.14,0,0,0,18.59.27L328,114.12l-1.63,10.38a3.78,3.78,0,0,0,3.56,4.67l21.94,2.62-2.61-6.3L339,135.05a3.73,3.73,0,0,0,.75,5.8,192.37,192.37,0,0,0,18.67,10.28l-.74-5.8-9.47,7.59c-1.59,1.27-1.24,3.89,0,5.22a42,42,0,0,0,13.15,9.51v-6.37a31.19,31.19,0,0,1-9.33,4.67c-2,.61-3.72,3.45-2.2,5.42A48.34,48.34,0,0,0,364,183.94l.89-6.75-22.34,6.93c-2.49.77-3.8,4.26-1.62,6.17a69.63,69.63,0,0,0,23.34,13.53V196.7l-9.49,3.54L350.08,202a26.16,26.16,0,0,0-4.65,1.88c-3.14,1.93-3.52,5.61-1.28,8.39s4.75,5.09,7.12,7.58l1.63-6.17-12.14,2.63c-2.19.48-3.55,3.53-2.2,5.42l8.22,11.59L351,227.9,338.51,225c-2.95-.68-5,1.76-4.54,4.54l.76,4.85,5.42-4.17a80.09,80.09,0,0,1-13.76-10.17c-3.49-3.22-8.73,2-5.22,5.22Z" transform="translate(-12.43 -12.43)"/><path class="cls-4" d="M216.21,253.53s31.3,31.85,67.58,0" transform="translate(-12.43 -12.43)"/><circle class="cls-6" cx="206.87" cy="163.61" r="21.6"/><circle class="cls-7" cx="206.87" cy="163.61" r="11.13"/><circle class="cls-6" cx="268.68" cy="163.61" r="21.6"/><ellipse class="cls-8" cx="206.87" cy="164.47" rx="21.6" ry="22.45"/><ellipse class="cls-8" cx="268.68" cy="164.47" rx="21.6" ry="22.45"/><circle class="cls-7" cx="268.68" cy="163.61" r="11.13"/><path class="cls-6" d="M240.9,176s9.23-9.38,18.61,0" transform="translate(-12.43 -12.43)"/><line class="cls-6" x1="185.27" y1="163.61" x2="168.71" y2="166.16"/><line class="cls-6" x1="292.01" y1="163.61" x2="308.57" y2="166.16"/></svg>