<?xml version="1.0" encoding="utf-8"?>
<!-- Generator: Adobe Illustrator 24.0.0, SVG Export Plug-In . SVG Version: 6.00 Build 0)  -->
<svg version="1.1" id="Capa_1" xmlns="http://www.w3.org/2000/svg" xmlns:xlink="http://www.w3.org/1999/xlink" x="0px" y="0px"
	 viewBox="0 0 175.05 168.23" style="enable-background:new 0 0 175.05 168.23;" xml:space="preserve">
<style type="text/css">
	.st0{fill:#F5B15A;}
	.st1{fill:#EAE3DA;}
	.st2{fill:#E4D7CE;}
	.st3{fill:#002E61;}
	.st4{fill:#E45451;}
	.st5{fill:#E4D8CE;}
	.st6{fill:#1E244D;}
	.st7{fill:#F99A3D;}
	.st8{fill:none;stroke:#002E61;stroke-width:10;stroke-miterlimit:10;}
	.st9{fill:none;stroke:#002E61;stroke-width:5;stroke-linecap:round;stroke-linejoin:round;}
	.st10{fill:#E45451;stroke:#002E61;stroke-width:10;stroke-miterlimit:10;}
	.st11{fill:#F5B15A;stroke:#002E61;stroke-width:10;stroke-miterlimit:10;}
	.st12{fill:#E4D7CE;stroke:#002E61;stroke-width:10;stroke-miterlimit:10;}
	.st13{fill:none;stroke:#E4D7CE;stroke-width:5;stroke-linecap:round;stroke-linejoin:round;}
	.st14{fill:none;stroke:#002E61;stroke-width:2.37;stroke-linecap:round;stroke-linejoin:round;}
	.st15{fill:#E4D8CE;stroke:#002E61;stroke-width:10;stroke-miterlimit:10;}
	.st16{fill:#E4D8CE;stroke:#002E61;stroke-width:5;stroke-linecap:round;stroke-linejoin:round;}
</style>
<rect id="Rectángulo_36_1_" x="-2847.6" y="-1817.3" class="st0" width="1919.83" height="1080"/>
<g id="Grupo_201_1_" transform="translate(0 -7.083)">
	<g id="Grupo_10_1_" transform="translate(150 84.083)">
		<path id="Trazado_8_1_" class="st1" d="M-2845.37-987.67c2.94-6.98,8.59-12.47,15.66-15.19c7.81-2.93,16.42-2.93,24.23,0
			c3.55,1.37,6.8,3.44,9.54,6.08c2.66,2.59,4.78,5.69,6.23,9.11c2.98,7.22,2.98,15.32,0,22.54c-1.45,3.42-3.56,6.52-6.23,9.11
			c-2.74,2.64-5.99,4.71-9.54,6.09c-7.81,2.93-16.42,2.93-24.23,0c-14.7-6-21.76-22.78-15.76-37.49
			C-2845.43-987.51-2845.4-987.59-2845.37-987.67L-2845.37-987.67z M-2831.61-970.42c1.58,3.6,4.52,6.43,8.18,7.88
			c5.68,2.29,12.17,1.07,16.63-3.13c1.42-1.35,2.56-2.96,3.35-4.75c1.63-3.82,1.63-8.14,0-11.95c-0.79-1.79-1.93-3.4-3.35-4.75
			c-1.42-1.35-3.08-2.41-4.9-3.13c-3.77-1.49-7.96-1.49-11.73,0c-1.81,0.72-3.46,1.78-4.86,3.13c-1.4,1.36-2.53,2.97-3.31,4.75
			C-2833.25-978.56-2833.25-974.24-2831.61-970.42L-2831.61-970.42z"/>
		<rect id="Rectángulo_4_1_" x="-2824.38" y="-931.63" class="st1" width="13.68" height="40.85"/>
		<g id="Grupo_6_1_" transform="translate(7.948 405.244)">
			
				<rect id="Rectángulo_5_1_" x="-2802.73" y="-1725.96" transform="matrix(0.7071 -0.7071 0.7071 0.7071 400.6836 -2470.9104)" class="st1" width="40.85" height="13.68"/>
			<g id="Grupo_5_1_">
				<rect id="Rectángulo_6_1_" x="-2801.59" y="-1775.05" class="st1" width="98.18" height="13.68"/>
				<g id="Grupo_4_1_">
					<path id="Trazado_9_1_" class="st1" d="M-2833.79-1768.21c0.04-12.02-4.97-23.51-13.81-31.66v-17.43
						c27.11,16.48,35.73,51.81,19.26,78.92c-4.78,7.87-11.39,14.48-19.26,19.26v-17.44
						C-2838.76-1744.71-2833.75-1756.19-2833.79-1768.21z"/>
				</g>
			</g>
		</g>
		<g id="Grupo_9_1_" transform="translate(4.411)">
			<path id="Trazado_10_1_" class="st1" d="M-2809.05-1727.38c1.58,3.6,4.52,6.43,8.17,7.88c5.68,2.29,12.17,1.06,16.63-3.13
				c1.42-1.35,2.56-2.96,3.35-4.75c1.63-3.82,1.63-8.14,0-11.95c-0.79-1.79-1.93-3.4-3.35-4.75c-4.47-4.17-10.95-5.39-16.63-3.13
				c-1.81,0.72-3.46,1.78-4.86,3.13c-1.4,1.36-2.53,2.97-3.31,4.75C-2810.68-1735.52-2810.68-1731.2-2809.05-1727.38z"/>
			<g id="Grupo_7_1_" transform="translate(3.537 126.423)">
				<path id="Trazado_11_1_" class="st1" d="M-2798.51-1803.5c-12.02-0.04-23.5,4.97-31.65,13.81h-17.44
					c16.48-27.11,51.81-35.73,78.92-19.26c7.87,4.78,14.48,11.39,19.26,19.26h-17.44C-2775-1798.53-2786.49-1803.54-2798.51-1803.5z
					"/>
			</g>
			<g id="Grupo_8_1_">
				<path id="Trazado_12_1_" class="st1" d="M-2823.58-1817.3l-24.01,25.21l9.91,9.44l14.11-14.81l19.07,20.01l19.07-20.01
					l19.07,20.01l24.02-25.21l-9.9-9.44l-14.13,14.82l-19.07-20.01l-19.07,20.01L-2823.58-1817.3z"/>
			</g>
		</g>
	</g>
	<g id="Grupo_26_1_" transform="translate(1324 684.328)">
		
			<rect id="Rectángulo_5-2_1_" x="-2802.73" y="-1725.96" transform="matrix(0.7071 -0.7071 0.7071 0.7071 400.6836 -2470.9104)" class="st1" width="40.85" height="13.68"/>
		<g id="Grupo_5-2_1_" transform="translate(0 0)">
			<rect id="Rectángulo_6-2_1_" x="-2801.59" y="-1775.05" class="st1" width="98.18" height="13.68"/>
			<g id="Grupo_4-2_1_">
				<path id="Trazado_9-2_1_" class="st1" d="M-2833.79-1768.21c0.04-12.02-4.97-23.5-13.81-31.65v-17.44
					c17.21,10.35,27.71,29,27.61,49.09c0.09,20.09-10.4,38.74-27.61,49.09v-17.44C-2838.76-1744.71-2833.75-1756.19-2833.79-1768.21
					z"/>
			</g>
		</g>
	</g>
	<g id="Grupo_35_1_" transform="translate(0 186)">
		<path id="Trazado_8-2_1_" class="st1" d="M-2295.69-1636.33c-2.94,6.98-8.59,12.47-15.66,15.19c-7.81,2.93-16.42,2.93-24.23,0
			c-3.55-1.37-6.8-3.44-9.54-6.08c-2.66-2.59-4.78-5.69-6.23-9.11c-2.98-7.22-2.98-15.32,0-22.54c1.45-3.42,3.57-6.52,6.23-9.11
			c2.74-2.64,5.99-4.71,9.54-6.09c7.81-2.93,16.42-2.93,24.23,0c14.7,6,21.76,22.78,15.76,37.49
			C-2295.62-1636.49-2295.66-1636.41-2295.69-1636.33L-2295.69-1636.33z M-2309.44-1653.58c-1.58-3.6-4.52-6.43-8.18-7.88
			c-5.68-2.29-12.17-1.07-16.63,3.13c-1.42,1.35-2.56,2.96-3.35,4.75c-1.63,3.82-1.63,8.14,0,11.95c0.79,1.79,1.93,3.4,3.35,4.75
			c1.42,1.35,3.08,2.41,4.9,3.13c3.77,1.49,7.97,1.49,11.74,0c1.81-0.72,3.46-1.78,4.86-3.13c1.4-1.36,2.53-2.97,3.31-4.75
			C-2307.81-1645.44-2307.81-1649.76-2309.44-1653.58L-2309.44-1653.58z"/>
		<rect id="Rectángulo_4-2_1_" x="-2330.36" y="-1733.22" class="st1" width="13.68" height="40.85"/>
	</g>
	<g id="Grupo_6-2_1_" transform="translate(592.19 791.365) rotate(180)">
		
			<rect id="Rectángulo_5-3_1_" x="2892.46" y="1908.65" transform="matrix(0.7071 -0.7071 0.7071 0.7071 -501.288 2620.7612)" class="st1" width="40.85" height="13.68"/>
		<g id="Grupo_5-3_1_">
			<rect id="Rectángulo_6-3_1_" x="2893.61" y="1859.55" class="st1" width="98.18" height="13.68"/>
			<g id="Grupo_4-3_1_">
				<path id="Trazado_9-3_1_" class="st1" d="M2861.4,1866.4c0.04-12.02-4.97-23.51-13.81-31.66v-17.43
					c27.11,16.48,35.73,51.81,19.26,78.92c-4.78,7.87-11.39,14.48-19.26,19.26v-17.44C2856.43,1889.9,2861.44,1878.42,2861.4,1866.4
					z"/>
			</g>
		</g>
	</g>
	<g id="Grupo_27_1_" transform="translate(1339.463 279.083)">
		<path id="Trazado_10-2_1_" class="st1" d="M-2809.05-1727.38c1.58,3.6,4.52,6.43,8.18,7.88c1.87,0.75,3.86,1.13,5.87,1.12
			c4,0.02,7.86-1.5,10.76-4.25c1.42-1.35,2.56-2.96,3.35-4.75c0.83-1.88,1.24-3.92,1.22-5.97c0.02-2.06-0.39-4.09-1.22-5.98
			c-0.79-1.79-1.93-3.4-3.35-4.75c-2.91-2.75-6.76-4.27-10.76-4.25c-2.01-0.01-4,0.37-5.87,1.11c-1.81,0.72-3.46,1.78-4.86,3.13
			c-1.4,1.36-2.53,2.97-3.31,4.75c-0.83,1.88-1.24,3.92-1.22,5.98C-2810.29-1731.31-2809.87-1729.27-2809.05-1727.38z"/>
		<g id="Grupo_7-2_1_" transform="translate(3.537 126.423)">
			<path id="Trazado_11-2_1_" class="st1" d="M-2798.51-1803.5c-12.02-0.04-23.5,4.97-31.65,13.81h-17.44
				c10.35-17.21,29-27.71,49.09-27.61c20.09-0.09,38.74,10.4,49.09,27.61h-17.44C-2775-1798.53-2786.49-1803.54-2798.51-1803.5z"/>
		</g>
		<g id="Grupo_8-2_1_">
			<path id="Trazado_12-2_1_" class="st1" d="M-2823.58-1817.3l-24.01,25.21l9.91,9.44l14.11-14.81l19.07,20.01l19.07-20.01
				l19.07,20.01l24.02-25.21l-9.9-9.44l-14.12,14.82l-19.07-20.02l-19.07,20.02L-2823.58-1817.3z"/>
		</g>
	</g>
	<g id="Grupo_25_1_" transform="translate(15.249)">
		<path id="Trazado_13_1_" class="st1" d="M-1095.08-1636.33c-2.94,6.98-8.59,12.47-15.66,15.19c-7.81,2.93-16.42,2.93-24.23,0
			c-3.55-1.37-6.8-3.44-9.54-6.08c-2.66-2.59-4.78-5.69-6.23-9.11c-2.98-7.22-2.98-15.32,0-22.54c1.45-3.42,3.57-6.52,6.23-9.11
			c2.74-2.64,5.99-4.71,9.54-6.08c7.81-2.93,16.42-2.93,24.23,0c14.7,6,21.76,22.78,15.76,37.48
			C-1095.01-1636.5-1095.04-1636.42-1095.08-1636.33L-1095.08-1636.33z M-1108.83-1653.58c-1.58-3.6-4.52-6.43-8.17-7.88
			c-3.77-1.49-7.97-1.49-11.74,0c-1.82,0.72-3.48,1.79-4.9,3.13c-1.42,1.35-2.56,2.96-3.35,4.75c-1.63,3.82-1.63,8.14,0,11.95
			c0.79,1.79,1.93,3.41,3.35,4.75c1.42,1.35,3.08,2.41,4.9,3.13c3.77,1.49,7.97,1.49,11.74,0c1.81-0.72,3.46-1.78,4.86-3.13
			c1.4-1.36,2.53-2.97,3.31-4.75C-1107.2-1645.44-1107.2-1649.76-1108.83-1653.58z"/>
		<rect id="Rectángulo_7_1_" x="-1129.75" y="-1733.22" class="st1" width="13.68" height="40.85"/>
		<g id="Grupo_13_1_" transform="translate(1602.612 487.904)">
			
				<rect id="Rectángulo_8_1_" x="-2789.12" y="-1804.87" transform="matrix(0.7071 -0.7071 0.7071 0.7071 460.4655 -2484.3911)" class="st1" width="40.85" height="13.68"/>
			<g id="Grupo_12_1_" transform="translate(0 19.278)">
				<rect id="Rectángulo_9_1_" x="-2847.6" y="-1775.05" class="st1" width="98.18" height="13.68"/>
				<g id="Grupo_11_1_" transform="translate(116.577)">
					<path id="Trazado_14_1_" class="st1" d="M-2833.79-1768.21c-0.04,12.02,4.97,23.5,13.81,31.65v17.44
						c-27.11-16.47-35.74-51.81-19.26-78.92c4.78-7.87,11.39-14.48,19.26-19.26v17.44
						C-2828.82-1791.72-2833.83-1780.23-2833.79-1768.21z"/>
				</g>
			</g>
		</g>
		<g id="Grupo_16_1_" transform="translate(1645.084 856.573)">
			<path id="Trazado_15_1_" class="st1" d="M-2780.89-1753.19c-1.58-3.6-4.52-6.43-8.17-7.88c-5.68-2.29-12.17-1.07-16.63,3.13
				c-1.42,1.35-2.56,2.96-3.35,4.75c-1.63,3.82-1.63,8.14,0,11.95c0.79,1.79,1.93,3.41,3.35,4.75c1.42,1.35,3.08,2.41,4.9,3.13
				c3.77,1.49,7.97,1.49,11.74,0c1.81-0.72,3.46-1.78,4.86-3.13c1.4-1.36,2.53-2.97,3.31-4.75
				C-2779.26-1745.05-2779.26-1749.37-2780.89-1753.19L-2780.89-1753.19z"/>
			<g id="Grupo_14_1_" transform="translate(3.537)">
				<path id="Trazado_16_1_" class="st1" d="M-2798.51-1803.5c12.02,0.04,23.5-4.97,31.65-13.81h17.44
					c-16.48,27.11-51.81,35.73-78.92,19.26c-7.87-4.78-14.48-11.39-19.26-19.26h17.44
					C-2822.01-1808.47-2810.53-1803.46-2798.51-1803.5z"/>
			</g>
			<g id="Grupo_15_1_" transform="translate(0 114.188)">
				<path id="Trazado_17_1_" class="st1" d="M-2766.36-1777.46l24.01-25.21l-9.91-9.44l-14.11,14.81l-19.07-20.01l-19.07,20.02
					l-19.07-20.01l-24.03,25.21l9.9,9.44l14.12-14.82l19.08,20.01l19.07-20.01L-2766.36-1777.46z"/>
			</g>
		</g>
	</g>
</g>
<rect id="Rectángulo_51" x="-2847.07" y="-433.73" class="st2" width="1919.83" height="1080"/>
<g id="Grupo_203" transform="translate(0 -7.083)">
	<g id="Grupo_10" transform="translate(150 84.083)">
		<path id="Trazado_8" class="st3" d="M-2844.84,395.91c2.94-6.98,8.59-12.47,15.66-15.19c7.81-2.93,16.42-2.93,24.23,0
			c3.55,1.37,6.8,3.44,9.54,6.08c2.66,2.59,4.78,5.69,6.23,9.11c2.98,7.22,2.98,15.32,0,22.54c-1.45,3.42-3.56,6.52-6.23,9.11
			c-2.74,2.64-5.99,4.71-9.54,6.09c-7.81,2.93-16.42,2.93-24.23,0c-14.7-6-21.76-22.78-15.76-37.49
			C-2844.91,396.07-2844.87,395.99-2844.84,395.91L-2844.84,395.91z M-2831.09,413.16c1.58,3.6,4.52,6.43,8.18,7.88
			c5.68,2.29,12.17,1.07,16.63-3.13c1.42-1.35,2.56-2.96,3.35-4.75c1.63-3.82,1.63-8.14,0-11.95c-0.79-1.79-1.93-3.4-3.35-4.75
			c-1.42-1.35-3.08-2.41-4.9-3.13c-3.77-1.49-7.96-1.49-11.73,0c-1.81,0.72-3.46,1.78-4.86,3.13c-1.4,1.36-2.53,2.97-3.31,4.75
			C-2832.72,405.02-2832.72,409.34-2831.09,413.16L-2831.09,413.16z"/>
		<rect id="Rectángulo_4" x="-2823.85" y="451.95" class="st3" width="13.68" height="40.85"/>
		<g id="Grupo_6" transform="translate(7.948 405.244)">
			
				<rect id="Rectángulo_5" x="-2802.21" y="-342.38" transform="matrix(0.7071 -0.7071 0.7071 0.7071 -577.5003 -2065.2974)" class="st3" width="40.85" height="13.68"/>
			<g id="Grupo_5">
				<rect id="Rectángulo_6" x="-2801.06" y="-391.48" class="st3" width="98.18" height="13.68"/>
				<g id="Grupo_4">
					<path id="Trazado_9" class="st3" d="M-2833.26-384.63c0.04-12.02-4.97-23.51-13.81-31.66v-17.43
						c27.11,16.48,35.73,51.81,19.26,78.92c-4.78,7.87-11.39,14.48-19.26,19.26v-17.44
						C-2838.24-361.13-2833.23-372.62-2833.26-384.63z"/>
				</g>
			</g>
		</g>
		<g id="Grupo_9" transform="translate(4.411)">
			<path id="Trazado_10" class="st3" d="M-2808.52-343.81c1.58,3.6,4.52,6.43,8.18,7.88c5.68,2.29,12.17,1.06,16.63-3.13
				c1.42-1.35,2.56-2.96,3.35-4.75c1.63-3.82,1.63-8.14,0-11.95c-0.79-1.79-1.93-3.4-3.35-4.75c-4.48-4.17-10.95-5.39-16.63-3.13
				c-1.81,0.72-3.46,1.78-4.86,3.13c-1.4,1.36-2.53,2.97-3.31,4.75C-2810.15-351.94-2810.15-347.62-2808.52-343.81z"/>
			<g id="Grupo_7" transform="translate(3.537 126.423)">
				<path id="Trazado_11" class="st3" d="M-2797.98-419.92c-12.02-0.04-23.5,4.97-31.65,13.81h-17.44
					c16.48-27.11,51.81-35.73,78.92-19.26c7.87,4.78,14.48,11.39,19.26,19.26h-17.44C-2774.48-414.95-2785.96-419.96-2797.98-419.92
					z"/>
			</g>
			<g id="Grupo_8">
				<path id="Trazado_12" class="st3" d="M-2823.06-433.73l-24.01,25.21l9.91,9.44l14.11-14.81l19.07,20.01l19.07-20.01l19.07,20.01
					l24.02-25.21l-9.9-9.44l-14.13,14.82l-19.07-20.01l-19.07,20.01L-2823.06-433.73z"/>
			</g>
		</g>
	</g>
	<g id="Grupo_26" transform="translate(1324 684.328)">
		
			<rect id="Rectángulo_5-2" x="-2802.21" y="-342.38" transform="matrix(0.7071 -0.7071 0.7071 0.7071 -577.5003 -2065.2974)" class="st3" width="40.85" height="13.68"/>
		<g id="Grupo_5-2" transform="translate(0 0)">
			<rect id="Rectángulo_6-2" x="-2801.06" y="-391.48" class="st3" width="98.18" height="13.68"/>
			<g id="Grupo_4-2">
				<path id="Trazado_9-2" class="st3" d="M-2833.26-384.63c0.04-12.02-4.97-23.5-13.81-31.65v-17.44
					c17.21,10.35,27.71,29,27.61,49.09c0.09,20.09-10.4,38.74-27.61,49.09v-17.44C-2838.24-361.13-2833.23-372.62-2833.26-384.63z"
					/>
			</g>
		</g>
	</g>
	<g id="Grupo_35" transform="translate(0 186)">
		<path id="Trazado_8-2" class="st3" d="M-2295.16-252.75c-2.94,6.98-8.59,12.47-15.66,15.19c-7.81,2.93-16.42,2.93-24.23,0
			c-3.55-1.37-6.8-3.44-9.54-6.08c-2.66-2.59-4.78-5.69-6.23-9.11c-2.98-7.22-2.98-15.32,0-22.54c1.45-3.42,3.57-6.52,6.23-9.11
			c2.74-2.64,5.99-4.71,9.54-6.09c7.81-2.93,16.42-2.93,24.23,0c14.7,6,21.76,22.78,15.76,37.49
			C-2295.1-252.92-2295.13-252.83-2295.16-252.75L-2295.16-252.75z M-2308.92-270c-1.58-3.6-4.52-6.43-8.17-7.88
			c-5.68-2.29-12.17-1.07-16.63,3.13c-1.42,1.35-2.56,2.96-3.35,4.75c-1.63,3.82-1.63,8.14,0,11.95c0.79,1.79,1.93,3.4,3.35,4.75
			c1.42,1.35,3.08,2.41,4.9,3.13c3.77,1.49,7.97,1.49,11.74,0c1.81-0.72,3.46-1.78,4.86-3.13c1.4-1.36,2.53-2.97,3.31-4.75
			C-2307.28-261.86-2307.28-266.18-2308.92-270L-2308.92-270z"/>
		<rect id="Rectángulo_4-2" x="-2329.83" y="-349.64" class="st3" width="13.68" height="40.85"/>
	</g>
	<g id="Grupo_6-2" transform="translate(592.19 791.365) rotate(180)">
		
			<rect id="Rectángulo_5-3" x="2891.93" y="525.07" transform="matrix(0.7071 -0.7071 0.7071 0.7071 476.8984 2215.1458)" class="st3" width="40.85" height="13.68"/>
		<g id="Grupo_5-3">
			<rect id="Rectángulo_6-3" x="2893.08" y="475.98" class="st3" width="98.18" height="13.68"/>
			<g id="Grupo_4-3">
				<path id="Trazado_9-3" class="st3" d="M2860.88,482.82c0.04-12.02-4.97-23.51-13.81-31.66v-17.43
					c27.11,16.48,35.73,51.81,19.26,78.92c-4.78,7.87-11.39,14.48-19.26,19.26v-17.44C2855.91,506.32,2860.92,494.84,2860.88,482.82
					z"/>
			</g>
		</g>
	</g>
	<g id="Grupo_27" transform="translate(1339.463 279.083)">
		<path id="Trazado_10-2" class="st3" d="M-2808.52-343.81c1.58,3.6,4.52,6.43,8.18,7.88c1.87,0.75,3.86,1.13,5.87,1.12
			c4,0.02,7.86-1.5,10.77-4.25c1.42-1.35,2.56-2.96,3.35-4.75c0.83-1.88,1.24-3.92,1.22-5.97c0.02-2.06-0.39-4.09-1.22-5.98
			c-0.79-1.79-1.93-3.4-3.35-4.75c-2.91-2.75-6.76-4.27-10.77-4.25c-2.01-0.01-4,0.37-5.87,1.11c-1.81,0.72-3.46,1.78-4.86,3.13
			c-1.4,1.36-2.53,2.97-3.31,4.75c-0.83,1.88-1.24,3.92-1.22,5.98C-2809.77-347.73-2809.35-345.69-2808.52-343.81z"/>
		<g id="Grupo_7-2" transform="translate(3.537 126.423)">
			<path id="Trazado_11-2" class="st3" d="M-2797.98-419.92c-12.02-0.04-23.5,4.97-31.65,13.81h-17.44
				c10.35-17.21,29-27.71,49.09-27.61c20.09-0.09,38.74,10.4,49.09,27.61h-17.44C-2774.48-414.95-2785.96-419.96-2797.98-419.92z"/>
		</g>
		<g id="Grupo_8-2">
			<path id="Trazado_12-2" class="st3" d="M-2823.06-433.73l-24.01,25.21l9.91,9.44l14.11-14.81l19.07,20.01l19.07-20.01
				l19.07,20.01l24.02-25.21l-9.9-9.44l-14.12,14.82l-19.07-20.02l-19.07,20.02L-2823.06-433.73z"/>
		</g>
	</g>
	<g id="Grupo_25" transform="translate(15.249)">
		<path id="Trazado_13" class="st3" d="M-1094.55-252.75c-2.94,6.98-8.59,12.47-15.66,15.19c-7.81,2.93-16.42,2.93-24.23,0
			c-3.55-1.37-6.8-3.44-9.54-6.08c-2.66-2.59-4.78-5.69-6.23-9.11c-2.98-7.22-2.98-15.32,0-22.54c1.45-3.42,3.57-6.52,6.23-9.11
			c2.74-2.64,5.99-4.71,9.54-6.08c7.81-2.93,16.42-2.93,24.23,0c14.7,6,21.76,22.78,15.76,37.48
			C-1094.48-252.92-1094.52-252.84-1094.55-252.75L-1094.55-252.75z M-1108.3-270c-1.58-3.6-4.52-6.43-8.17-7.88
			c-3.77-1.49-7.97-1.49-11.74,0c-1.82,0.72-3.48,1.79-4.9,3.13c-1.42,1.35-2.56,2.96-3.35,4.75c-1.63,3.82-1.63,8.14,0,11.95
			c0.79,1.79,1.93,3.41,3.35,4.75c1.42,1.35,3.08,2.41,4.9,3.13c3.77,1.49,7.97,1.49,11.74,0c1.81-0.72,3.46-1.78,4.86-3.13
			c1.4-1.36,2.53-2.97,3.31-4.75C-1106.67-261.87-1106.67-266.18-1108.3-270z"/>
		<rect id="Rectángulo_7" x="-1129.22" y="-349.64" class="st3" width="13.68" height="40.85"/>
		<g id="Grupo_13" transform="translate(1602.612 487.904)">
			
				<rect id="Rectángulo_8" x="-2788.59" y="-421.29" transform="matrix(0.7071 -0.7071 0.7071 0.7071 -517.7184 -2078.7778)" class="st3" width="40.85" height="13.68"/>
			<g id="Grupo_12" transform="translate(0 19.278)">
				<rect id="Rectángulo_9" x="-2847.07" y="-391.47" class="st3" width="98.18" height="13.68"/>
				<g id="Grupo_11" transform="translate(116.577)">
					<path id="Trazado_14" class="st3" d="M-2833.26-384.63c-0.04,12.02,4.97,23.5,13.81,31.65v17.44
						c-27.11-16.47-35.74-51.81-19.26-78.92c4.78-7.87,11.39-14.48,19.26-19.26v17.44C-2828.29-408.14-2833.3-396.66-2833.26-384.63
						z"/>
				</g>
			</g>
		</g>
		<g id="Grupo_16" transform="translate(1645.084 856.573)">
			<path id="Trazado_15" class="st3" d="M-2780.37-369.61c-1.58-3.6-4.52-6.43-8.17-7.88c-5.68-2.29-12.17-1.07-16.63,3.13
				c-1.42,1.35-2.56,2.96-3.35,4.75c-1.63,3.82-1.63,8.14,0,11.95c0.79,1.79,1.93,3.41,3.35,4.75c1.42,1.35,3.08,2.41,4.9,3.13
				c3.77,1.49,7.97,1.49,11.74,0c1.81-0.72,3.46-1.78,4.86-3.13c1.4-1.36,2.53-2.97,3.31-4.75
				C-2778.73-361.47-2778.73-365.79-2780.37-369.61L-2780.37-369.61z"/>
			<g id="Grupo_14" transform="translate(3.537)">
				<path id="Trazado_16" class="st3" d="M-2797.98-419.92c12.02,0.04,23.5-4.97,31.65-13.81h17.44
					c-16.48,27.11-51.81,35.73-78.92,19.26c-7.87-4.78-14.48-11.39-19.26-19.26h17.44C-2821.48-424.89-2810-419.88-2797.98-419.92z"
					/>
			</g>
			<g id="Grupo_15" transform="translate(0 114.188)">
				<path id="Trazado_17" class="st3" d="M-2765.83-393.88l24.01-25.21l-9.91-9.44l-14.11,14.81l-19.07-20.01l-19.07,20.02
					l-19.07-20.01l-24.03,25.21l9.9,9.44l14.12-14.82l19.08,20.01l19.07-20.01L-2765.83-393.88z"/>
			</g>
		</g>
	</g>
</g>
<rect id="Rectángulo_32_1_" x="-2848.07" y="959.27" class="st4" width="1919.83" height="1080"/>
<g id="Grupo_199_1_" transform="translate(0 -7.083)">
	<g id="Grupo_10_3_" transform="translate(150 84.083)">
		<path id="Trazado_8_3_" class="st5" d="M-2845.84,1788.91c2.94-6.98,8.59-12.47,15.66-15.19c7.81-2.93,16.42-2.93,24.23,0
			c3.55,1.37,6.8,3.44,9.54,6.08c2.66,2.59,4.78,5.69,6.23,9.11c2.98,7.22,2.98,15.32,0,22.54c-1.45,3.42-3.56,6.52-6.23,9.11
			c-2.74,2.64-5.99,4.71-9.54,6.09c-7.81,2.93-16.42,2.93-24.23,0c-14.7-6-21.76-22.78-15.76-37.49
			C-2845.91,1789.07-2845.87,1788.99-2845.84,1788.91L-2845.84,1788.91z M-2832.09,1806.16c1.58,3.6,4.52,6.43,8.18,7.88
			c5.68,2.29,12.17,1.07,16.63-3.13c1.42-1.35,2.56-2.96,3.35-4.75c1.63-3.82,1.63-8.14,0-11.95c-0.79-1.79-1.93-3.4-3.35-4.75
			c-1.42-1.35-3.08-2.41-4.9-3.13c-3.77-1.49-7.96-1.49-11.73,0c-1.81,0.72-3.46,1.78-4.86,3.13c-1.4,1.36-2.53,2.97-3.31,4.75
			C-2833.72,1798.02-2833.72,1802.34-2832.09,1806.16L-2832.09,1806.16z"/>
		<rect id="Rectángulo_4_3_" x="-2824.85" y="1844.95" class="st5" width="13.68" height="40.85"/>
		<g id="Grupo_6_3_" transform="translate(7.948 405.244)">
			
				<rect id="Rectángulo_5_3_" x="-2803.21" y="1050.62" transform="matrix(0.7071 -0.7071 0.7071 0.7071 -1562.793 -1658.0043)" class="st5" width="40.85" height="13.68"/>
			<g id="Grupo_5_3_">
				<rect id="Rectángulo_6_3_" x="-2802.06" y="1001.52" class="st5" width="98.18" height="13.68"/>
				<g id="Grupo_4_3_">
					<path id="Trazado_9_3_" class="st5" d="M-2834.26,1008.37c0.04-12.02-4.97-23.51-13.81-31.66v-17.43
						c27.11,16.48,35.73,51.81,19.26,78.92c-4.78,7.87-11.39,14.48-19.26,19.26v-17.44
						C-2839.24,1031.87-2834.23,1020.38-2834.26,1008.37z"/>
				</g>
			</g>
		</g>
		<g id="Grupo_9_3_" transform="translate(4.411)">
			<path id="Trazado_10_3_" class="st5" d="M-2809.52,1049.19c1.58,3.6,4.52,6.43,8.18,7.88c5.68,2.29,12.17,1.06,16.63-3.13
				c1.42-1.35,2.56-2.96,3.35-4.75c1.63-3.82,1.63-8.14,0-11.95c-0.79-1.79-1.93-3.4-3.35-4.75c-4.48-4.17-10.95-5.39-16.63-3.13
				c-1.81,0.72-3.46,1.78-4.86,3.13c-1.4,1.36-2.53,2.97-3.31,4.75C-2811.15,1041.06-2811.15,1045.38-2809.52,1049.19z"/>
			<g id="Grupo_7_3_" transform="translate(3.537 126.423)">
				<path id="Trazado_11_3_" class="st5" d="M-2798.98,973.08c-12.02-0.04-23.5,4.97-31.65,13.81h-17.44
					c16.48-27.11,51.81-35.73,78.92-19.26c7.87,4.78,14.48,11.39,19.26,19.26h-17.44C-2775.48,978.05-2786.96,973.04-2798.98,973.08
					z"/>
			</g>
			<g id="Grupo_8_3_">
				<path id="Trazado_12_3_" class="st5" d="M-2824.06,959.27l-24.01,25.21l9.91,9.44l14.11-14.81l19.07,20.01l19.07-20.01
					l19.07,20.01l24.02-25.21l-9.9-9.44l-14.13,14.82l-19.07-20.01l-19.07,20.01L-2824.06,959.27z"/>
			</g>
		</g>
	</g>
	<g id="Grupo_26_3_" transform="translate(1324 684.328)">
		
			<rect id="Rectángulo_5-2_3_" x="-2803.21" y="1050.62" transform="matrix(0.7071 -0.7071 0.7071 0.7071 -1562.793 -1658.0043)" class="st5" width="40.85" height="13.68"/>
		<g id="Grupo_5-2_3_" transform="translate(0 0)">
			<rect id="Rectángulo_6-2_3_" x="-2802.06" y="1001.52" class="st5" width="98.18" height="13.68"/>
			<g id="Grupo_4-2_3_">
				<path id="Trazado_9-2_3_" class="st5" d="M-2834.26,1008.37c0.04-12.02-4.97-23.5-13.81-31.65v-17.44
					c17.21,10.35,27.71,29,27.61,49.09c0.09,20.09-10.4,38.74-27.61,49.09v-17.44C-2839.24,1031.87-2834.23,1020.38-2834.26,1008.37
					z"/>
			</g>
		</g>
	</g>
	<g id="Grupo_35_3_" transform="translate(0 186)">
		<path id="Trazado_8-2_3_" class="st5" d="M-2296.16,1140.25c-2.94,6.98-8.59,12.47-15.66,15.19c-7.81,2.93-16.42,2.93-24.23,0
			c-3.55-1.37-6.8-3.44-9.54-6.08c-2.66-2.59-4.78-5.69-6.23-9.11c-2.98-7.22-2.98-15.32,0-22.54c1.45-3.42,3.57-6.52,6.23-9.11
			c2.74-2.64,5.99-4.71,9.54-6.08c7.81-2.93,16.42-2.93,24.23,0c14.7,6,21.76,22.78,15.76,37.49
			C-2296.1,1140.08-2296.13,1140.17-2296.16,1140.25L-2296.16,1140.25z M-2309.92,1123c-1.58-3.6-4.52-6.43-8.17-7.88
			c-5.68-2.29-12.17-1.07-16.63,3.13c-1.42,1.35-2.56,2.96-3.35,4.75c-1.63,3.82-1.63,8.14,0,11.95c0.79,1.79,1.93,3.4,3.35,4.75
			c1.42,1.35,3.08,2.41,4.9,3.13c3.77,1.49,7.97,1.49,11.74,0c1.81-0.72,3.46-1.78,4.86-3.13c1.4-1.36,2.53-2.97,3.31-4.75
			C-2308.28,1131.14-2308.28,1126.82-2309.92,1123L-2309.92,1123z"/>
		<rect id="Rectángulo_4-2_3_" x="-2330.83" y="1043.36" class="st5" width="13.68" height="40.85"/>
	</g>
	<g id="Grupo_6-2_3_" transform="translate(592.19 791.365) rotate(180)">
		
			<rect id="Rectángulo_5-3_3_" x="2892.93" y="-867.93" transform="matrix(0.7071 -0.7071 0.7071 0.7071 1462.1936 1807.8501)" class="st5" width="40.85" height="13.68"/>
		<g id="Grupo_5-3_3_">
			<rect id="Rectángulo_6-3_3_" x="2894.08" y="-917.02" class="st5" width="98.18" height="13.68"/>
			<g id="Grupo_4-3_3_">
				<path id="Trazado_9-3_3_" class="st5" d="M2861.88-910.18c0.04-12.02-4.97-23.51-13.81-31.66v-17.43
					c27.11,16.48,35.73,51.81,19.26,78.92c-4.78,7.87-11.39,14.48-19.26,19.26v-17.44C2856.91-886.68,2861.92-898.16,2861.88-910.18
					z"/>
			</g>
		</g>
	</g>
	<g id="Grupo_27_3_" transform="translate(1339.463 279.083)">
		<path id="Trazado_10-2_3_" class="st5" d="M-2809.52,1049.19c1.58,3.6,4.52,6.43,8.18,7.88c1.87,0.75,3.86,1.13,5.87,1.12
			c4,0.02,7.86-1.5,10.77-4.25c1.42-1.35,2.56-2.96,3.35-4.75c0.83-1.88,1.24-3.92,1.22-5.97c0.02-2.06-0.39-4.09-1.22-5.98
			c-0.79-1.79-1.93-3.4-3.35-4.75c-2.91-2.75-6.76-4.27-10.77-4.25c-2.01-0.01-4,0.37-5.87,1.11c-1.81,0.72-3.46,1.78-4.86,3.13
			c-1.4,1.36-2.53,2.97-3.31,4.75c-0.83,1.88-1.24,3.92-1.22,5.98C-2810.77,1045.27-2810.35,1047.31-2809.52,1049.19z"/>
		<g id="Grupo_7-2_3_" transform="translate(3.537 126.423)">
			<path id="Trazado_11-2_3_" class="st5" d="M-2798.98,973.08c-12.02-0.04-23.5,4.97-31.65,13.81h-17.44
				c10.35-17.21,29-27.71,49.09-27.61c20.09-0.09,38.74,10.4,49.09,27.61h-17.44C-2775.48,978.05-2786.96,973.04-2798.98,973.08z"/>
		</g>
		<g id="Grupo_8-2_3_">
			<path id="Trazado_12-2_3_" class="st5" d="M-2824.06,959.27l-24.01,25.21l9.91,9.44l14.11-14.81l19.07,20.01l19.07-20.01
				l19.07,20.01l24.02-25.21l-9.9-9.44l-14.12,14.82l-19.07-20.02l-19.07,20.02L-2824.06,959.27z"/>
		</g>
	</g>
	<g id="Grupo_25_3_" transform="translate(15.249)">
		<path id="Trazado_13_3_" class="st5" d="M-1095.55,1140.25c-2.94,6.98-8.59,12.47-15.66,15.19c-7.81,2.93-16.42,2.93-24.23,0
			c-3.55-1.37-6.8-3.44-9.54-6.08c-2.66-2.59-4.78-5.69-6.23-9.11c-2.98-7.22-2.98-15.32,0-22.54c1.45-3.42,3.57-6.52,6.23-9.11
			c2.74-2.64,5.99-4.71,9.54-6.09c7.81-2.93,16.42-2.93,24.23,0c14.7,6,21.76,22.78,15.76,37.48
			C-1095.48,1140.08-1095.52,1140.16-1095.55,1140.25L-1095.55,1140.25z M-1109.3,1123c-1.58-3.6-4.52-6.43-8.17-7.88
			c-3.77-1.49-7.97-1.49-11.74,0c-1.82,0.72-3.48,1.79-4.9,3.13c-1.42,1.35-2.56,2.96-3.35,4.75c-1.63,3.82-1.63,8.14,0,11.95
			c0.79,1.79,1.93,3.41,3.35,4.75c1.42,1.35,3.08,2.41,4.9,3.13c3.77,1.49,7.97,1.49,11.74,0c1.81-0.72,3.46-1.78,4.86-3.13
			c1.4-1.36,2.53-2.97,3.31-4.75C-1107.67,1131.13-1107.67,1126.82-1109.3,1123z"/>
		<rect id="Rectángulo_7_3_" x="-1130.22" y="1043.36" class="st5" width="13.68" height="40.85"/>
		<g id="Grupo_13_3_" transform="translate(1602.612 487.904)">
			
				<rect id="Rectángulo_8_3_" x="-2789.59" y="971.71" transform="matrix(0.7071 -0.7071 0.7071 0.7071 -1503.011 -1671.4847)" class="st5" width="40.85" height="13.68"/>
			<g id="Grupo_12_3_" transform="translate(0 19.278)">
				<rect id="Rectángulo_9_3_" x="-2848.07" y="1001.53" class="st5" width="98.18" height="13.68"/>
				<g id="Grupo_11_3_" transform="translate(116.577)">
					<path id="Trazado_14_3_" class="st5" d="M-2834.26,1008.37c-0.04,12.02,4.97,23.5,13.81,31.65v17.44
						c-27.11-16.47-35.74-51.81-19.26-78.92c4.78-7.87,11.39-14.48,19.26-19.26v17.44
						C-2829.29,984.86-2834.3,996.34-2834.26,1008.37z"/>
				</g>
			</g>
		</g>
		<g id="Grupo_16_3_" transform="translate(1645.084 856.573)">
			<path id="Trazado_15_3_" class="st5" d="M-2781.37,1023.39c-1.58-3.6-4.52-6.43-8.17-7.88c-5.68-2.29-12.17-1.07-16.63,3.13
				c-1.42,1.35-2.56,2.96-3.35,4.75c-1.63,3.82-1.63,8.14,0,11.95c0.79,1.79,1.93,3.41,3.35,4.75c1.42,1.35,3.08,2.41,4.9,3.13
				c3.77,1.49,7.97,1.49,11.74,0c1.81-0.72,3.46-1.78,4.86-3.13c1.4-1.36,2.53-2.97,3.31-4.75
				C-2779.73,1031.53-2779.73,1027.21-2781.37,1023.39L-2781.37,1023.39z"/>
			<g id="Grupo_14_3_" transform="translate(3.537)">
				<path id="Trazado_16_3_" class="st5" d="M-2798.98,973.08c12.02,0.04,23.5-4.97,31.65-13.81h17.44
					c-16.48,27.11-51.81,35.73-78.92,19.26c-7.87-4.78-14.48-11.39-19.26-19.26h17.44C-2822.48,968.11-2811,973.12-2798.98,973.08z"
					/>
			</g>
			<g id="Grupo_15_3_" transform="translate(0 114.188)">
				<path id="Trazado_17_3_" class="st5" d="M-2766.83,999.12l24.01-25.21l-9.91-9.44l-14.11,14.81l-19.07-20.01l-19.07,20.02
					l-19.07-20.01l-24.03,25.21l9.9,9.44l14.12-14.82l19.08,20.01l19.07-20.01L-2766.83,999.12z"/>
			</g>
		</g>
	</g>
</g>
<rect id="Rectángulo_3" x="-2847.36" y="2328.43" class="st6" width="1920.4" height="1080"/>
<g id="Grupo_196">
	<g id="Grupo_10_2_" transform="translate(150 84.083)">
		<path id="Trazado_8_2_" class="st7" d="M-2845.13,3158.07c2.94-6.98,8.59-12.47,15.66-15.19c7.81-2.93,16.42-2.93,24.23,0
			c3.55,1.37,6.8,3.44,9.54,6.08c2.66,2.59,4.78,5.69,6.23,9.11c2.98,7.22,2.98,15.32,0,22.54c-1.45,3.42-3.57,6.52-6.23,9.11
			c-2.74,2.64-5.99,4.71-9.54,6.09c-7.81,2.93-16.42,2.93-24.23,0c-14.7-6-21.76-22.78-15.76-37.49
			C-2845.19,3158.23-2845.16,3158.15-2845.13,3158.07L-2845.13,3158.07z M-2831.37,3175.31c1.58,3.6,4.52,6.43,8.17,7.88
			c5.68,2.29,12.17,1.07,16.63-3.13c1.42-1.35,2.56-2.96,3.35-4.75c1.63-3.82,1.63-8.14,0-11.95c-0.79-1.79-1.93-3.41-3.35-4.75
			c-1.42-1.35-3.08-2.41-4.9-3.13c-3.77-1.49-7.97-1.49-11.74,0c-1.81,0.72-3.46,1.78-4.86,3.13c-1.4,1.36-2.53,2.97-3.31,4.75
			C-2833.01,3167.18-2833.01,3171.5-2831.37,3175.31L-2831.37,3175.31z"/>
		<rect id="Rectángulo_4_2_" x="-2824.14" y="3214.11" class="st7" width="13.68" height="40.85"/>
		<g id="Grupo_6_2_" transform="translate(7.948 405.244)">
			
				<rect id="Rectángulo_5_2_" x="-2802.49" y="2419.77" transform="matrix(0.7071 -0.7071 0.7071 0.7071 -2530.7244 -1256.4817)" class="st7" width="40.85" height="13.68"/>
			<g id="Grupo_5_2_">
				<rect id="Rectángulo_6_2_" x="-2801.35" y="2370.68" class="st7" width="98.18" height="13.68"/>
				<g id="Grupo_4_2_">
					<path id="Trazado_9_2_" class="st7" d="M-2833.55,2377.52c0.04-12.02-4.97-23.51-13.81-31.66v-17.43
						c27.11,16.48,35.73,51.81,19.26,78.92c-4.78,7.87-11.39,14.48-19.26,19.26v-17.44
						C-2838.52,2401.03-2833.51,2389.54-2833.55,2377.52z"/>
				</g>
			</g>
		</g>
		<g id="Grupo_9_2_" transform="translate(4.411)">
			<path id="Trazado_10_2_" class="st7" d="M-2808.81,2418.35c1.58,3.6,4.52,6.43,8.18,7.88c5.68,2.29,12.17,1.06,16.63-3.13
				c1.42-1.35,2.56-2.96,3.35-4.75c1.63-3.82,1.63-8.14,0-11.96c-0.79-1.79-1.93-3.4-3.35-4.75c-4.48-4.17-10.95-5.39-16.63-3.13
				c-1.81,0.72-3.46,1.78-4.86,3.13c-1.4,1.36-2.53,2.97-3.31,4.75C-2810.44,2410.22-2810.44,2414.53-2808.81,2418.35z"/>
			<g id="Grupo_7_2_" transform="translate(3.537 126.423)">
				<path id="Trazado_11_2_" class="st7" d="M-2798.26,2342.24c-12.02-0.04-23.5,4.97-31.65,13.81h-17.44
					c16.48-27.11,51.81-35.73,78.92-19.26c7.87,4.78,14.48,11.39,19.26,19.26h-17.44
					C-2774.76,2347.21-2786.25,2342.2-2798.26,2342.24z"/>
			</g>
			<g id="Grupo_8_2_">
				<path id="Trazado_12_2_" class="st7" d="M-2823.34,2328.43l-24.02,25.21l9.91,9.44l14.11-14.81l19.07,20.01l19.07-20.01
					l19.07,20.01l24.03-25.21l-9.9-9.44l-14.13,14.82l-19.07-20.01l-19.07,20.01L-2823.34,2328.43z"/>
			</g>
		</g>
	</g>
	<g id="Grupo_26_2_" transform="translate(1324 684.328)">
		
			<rect id="Rectángulo_5-2_2_" x="-2802.49" y="2419.77" transform="matrix(0.7071 -0.7071 0.7071 0.7071 -2530.7244 -1256.4817)" class="st7" width="40.85" height="13.68"/>
		<g id="Grupo_5-2_2_" transform="translate(0 0)">
			<rect id="Rectángulo_6-2_2_" x="-2801.35" y="2370.68" class="st7" width="98.18" height="13.68"/>
			<g id="Grupo_4-2_2_">
				<path id="Trazado_9-2_2_" class="st7" d="M-2833.55,2377.52c0.04-12.02-4.97-23.5-13.81-31.65v-17.44
					c17.21,10.35,27.71,29,27.61,49.09c0.09,20.09-10.4,38.74-27.61,49.09v-17.44C-2838.52,2401.03-2833.51,2389.54-2833.55,2377.52
					z"/>
			</g>
		</g>
	</g>
	<g id="Grupo_35_2_" transform="translate(0 186)">
		<path id="Trazado_8-2_2_" class="st7" d="M-2295.45,2509.41c-2.94,6.98-8.59,12.47-15.66,15.19c-7.81,2.93-16.42,2.93-24.23,0
			c-3.55-1.37-6.8-3.44-9.54-6.08c-2.66-2.59-4.78-5.69-6.23-9.11c-2.98-7.22-2.98-15.32,0-22.54c1.45-3.42,3.56-6.52,6.23-9.11
			c2.74-2.64,5.99-4.71,9.54-6.08c7.81-2.93,16.42-2.93,24.23,0c14.7,6,21.76,22.78,15.76,37.49
			C-2295.38,2509.24-2295.41,2509.32-2295.45,2509.41L-2295.45,2509.41z M-2309.2,2492.16c-1.58-3.6-4.52-6.43-8.18-7.88
			c-5.68-2.29-12.17-1.07-16.63,3.13c-1.42,1.35-2.56,2.96-3.35,4.75c-1.63,3.82-1.63,8.14,0,11.95c0.79,1.79,1.93,3.4,3.35,4.75
			c1.42,1.35,3.08,2.41,4.9,3.13c3.77,1.49,7.96,1.49,11.74,0c1.81-0.72,3.46-1.78,4.86-3.13c1.4-1.36,2.53-2.97,3.31-4.75
			C-2307.57,2500.29-2307.57,2495.98-2309.2,2492.16L-2309.2,2492.16z"/>
		<rect id="Rectángulo_4-2_2_" x="-2330.12" y="2412.51" class="st7" width="13.68" height="40.85"/>
	</g>
	<g id="Grupo_6-2_2_" transform="translate(592.19 791.365) rotate(180)">
		
			<rect id="Rectángulo_5-3_2_" x="2892.22" y="-2237.09" transform="matrix(0.7071 -0.7071 0.7071 0.7071 2430.1274 1406.3251)" class="st7" width="40.85" height="13.68"/>
		<g id="Grupo_5-3_2_">
			<rect id="Rectángulo_6-3_2_" x="2893.36" y="-2286.18" class="st7" width="98.18" height="13.68"/>
			<g id="Grupo_4-3_2_">
				<path id="Trazado_9-3_2_" class="st7" d="M2861.16-2279.34c0.04-12.02-4.97-23.51-13.81-31.66v-17.43
					c27.11,16.48,35.73,51.81,19.26,78.92c-4.78,7.87-11.39,14.48-19.26,19.26v-17.44
					C2856.19-2255.84,2861.2-2267.32,2861.16-2279.34z"/>
			</g>
		</g>
	</g>
	<g id="Grupo_27_2_" transform="translate(1339.463 279.083)">
		<path id="Trazado_10-2_2_" class="st7" d="M-2808.81,2418.35c1.58,3.6,4.52,6.43,8.18,7.88c1.87,0.75,3.86,1.13,5.87,1.12
			c4,0.02,7.86-1.5,10.77-4.25c1.42-1.35,2.56-2.96,3.35-4.75c0.83-1.88,1.24-3.92,1.22-5.97c0.02-2.06-0.39-4.09-1.22-5.98
			c-0.79-1.79-1.93-3.4-3.35-4.75c-2.91-2.75-6.76-4.27-10.77-4.25c-2.01-0.01-4,0.37-5.87,1.11c-1.81,0.72-3.46,1.78-4.86,3.13
			c-1.4,1.36-2.53,2.97-3.31,4.75c-0.83,1.88-1.24,3.92-1.22,5.98C-2810.05,2414.43-2809.63,2416.47-2808.81,2418.35z"/>
		<g id="Grupo_7-2_2_" transform="translate(3.537 126.423)">
			<path id="Trazado_11-2_2_" class="st7" d="M-2798.26,2342.24c-12.02-0.04-23.5,4.97-31.65,13.81h-17.44
				c10.35-17.21,29-27.71,49.09-27.61c20.09-0.09,38.74,10.4,49.09,27.61h-17.44C-2774.76,2347.21-2786.25,2342.2-2798.26,2342.24z"
				/>
		</g>
		<g id="Grupo_8-2_2_">
			<path id="Trazado_12-2_2_" class="st7" d="M-2823.34,2328.43l-24.02,25.21l9.91,9.44l14.11-14.81l19.07,20.01l19.07-20.01
				l19.07,20.01l24.03-25.21l-9.9-9.44l-14.12,14.82l-19.07-20.02l-19.07,20.02L-2823.34,2328.43z"/>
		</g>
	</g>
	<g id="Grupo_25_2_" transform="translate(15.249)">
		<path id="Trazado_13_2_" class="st7" d="M-1094.84,2509.41c-2.94,6.98-8.59,12.47-15.66,15.19c-7.81,2.93-16.42,2.93-24.23,0
			c-3.55-1.37-6.8-3.44-9.54-6.08c-2.66-2.59-4.78-5.69-6.23-9.11c-2.98-7.22-2.98-15.32,0-22.54c1.45-3.42,3.57-6.52,6.23-9.11
			c2.74-2.64,5.99-4.71,9.54-6.09c7.81-2.93,16.42-2.93,24.23,0c14.7,6,21.76,22.78,15.76,37.48
			C-1094.77,2509.24-1094.8,2509.32-1094.84,2509.41L-1094.84,2509.41z M-1108.59,2492.16c-1.58-3.6-4.52-6.43-8.17-7.88
			c-3.77-1.49-7.97-1.49-11.74,0c-1.82,0.72-3.48,1.79-4.9,3.13c-1.42,1.35-2.56,2.96-3.35,4.75c-1.63,3.82-1.63,8.14,0,11.95
			c0.79,1.79,1.93,3.41,3.35,4.75c1.42,1.35,3.08,2.41,4.9,3.13c3.77,1.49,7.97,1.49,11.74,0c1.81-0.72,3.46-1.78,4.86-3.13
			c1.4-1.36,2.53-2.97,3.31-4.75C-1106.96,2500.29-1106.96,2495.97-1108.59,2492.16z"/>
		<rect id="Rectángulo_7_2_" x="-1129.51" y="2412.51" class="st7" width="13.68" height="40.85"/>
		<g id="Grupo_13_2_" transform="translate(1602.612 487.904)">
			
				<rect id="Rectángulo_8_2_" x="-2788.87" y="2340.87" transform="matrix(0.7071 -0.7071 0.7071 0.7071 -2470.9424 -1269.9622)" class="st7" width="40.85" height="13.68"/>
			<g id="Grupo_12_2_" transform="translate(0 19.278)">
				<rect id="Rectángulo_9_2_" x="-2847.36" y="2370.68" class="st7" width="98.18" height="13.68"/>
				<g id="Grupo_11_2_" transform="translate(116.577)">
					<path id="Trazado_14_2_" class="st7" d="M-2833.55,2377.52c-0.04,12.02,4.97,23.5,13.81,31.65v17.44
						c-27.11-16.47-35.74-51.81-19.26-78.92c4.78-7.87,11.39-14.48,19.26-19.26v17.44
						C-2828.58,2354.02-2833.59,2365.5-2833.55,2377.52z"/>
				</g>
			</g>
		</g>
		<g id="Grupo_16_2_" transform="translate(1645.084 856.573)">
			<path id="Trazado_15_2_" class="st7" d="M-2780.65,2392.55c-1.58-3.6-4.52-6.43-8.17-7.88c-5.68-2.29-12.17-1.07-16.63,3.13
				c-1.42,1.35-2.56,2.96-3.35,4.75c-1.63,3.82-1.63,8.14,0,11.95c0.79,1.79,1.93,3.41,3.35,4.75c1.42,1.35,3.08,2.41,4.9,3.13
				c3.77,1.49,7.97,1.49,11.74,0c1.81-0.72,3.46-1.78,4.86-3.13c1.4-1.36,2.53-2.97,3.31-4.75
				C-2779.02,2400.68-2779.02,2396.37-2780.65,2392.55L-2780.65,2392.55z"/>
			<g id="Grupo_14_2_" transform="translate(3.537)">
				<path id="Trazado_16_2_" class="st7" d="M-2798.27,2342.24c12.02,0.04,23.5-4.97,31.65-13.81h17.44
					c-16.48,27.11-51.81,35.73-78.92,19.26c-7.87-4.78-14.48-11.39-19.26-19.26h17.44
					C-2821.77,2337.27-2810.29,2342.28-2798.27,2342.24z"/>
			</g>
			<g id="Grupo_15_2_" transform="translate(0 114.188)">
				<path id="Trazado_17_2_" class="st7" d="M-2766.12,2368.28l24.02-25.21l-9.91-9.44l-14.11,14.81l-19.07-20.01l-19.07,20.02
					l-19.07-20.01l-24.03,25.21l9.9,9.44l14.12-14.82l19.08,20.01l19.07-20.01L-2766.12,2368.28z"/>
			</g>
		</g>
	</g>
</g>
<path id="Rectángulo_28_1_" class="st8" d="M-712.89-1064.83h251.78c37.5,0,67.9,30.4,67.9,67.9l0,0c0,37.5-30.4,67.9-67.9,67.9
	h-251.78c-37.5,0-67.9-30.4-67.9-67.9l0,0C-780.79-1034.43-750.39-1064.83-712.89-1064.83z"/>
<circle id="Elipse_18_1_" class="st3" cx="-608.22" cy="-999.51" r="6.06"/>
<circle id="Elipse_19_1_" class="st3" cx="-565.78" cy="-999.51" r="6.06"/>
<line id="Línea_10_1_" class="st9" x1="-614.28" y1="-1012.45" x2="-602.16" y2="-1012.45"/>
<line id="Línea_11_1_" class="st9" x1="-571.84" y1="-1012.45" x2="-559.72" y2="-1012.45"/>
<line id="Línea_12_1_" class="st9" x1="-600.96" y1="-981.43" x2="-571.98" y2="-981.43"/>
<circle id="Elipse_20_1_" class="st3" cx="-485.42" cy="-1002.08" r="6.06"/>
<circle id="Elipse_21_1_" class="st3" cx="-442.98" cy="-1002.08" r="6.06"/>
<path id="Trazado_49_1_" class="st9" d="M-478.16-976.78c0,0,13.2-16.05,28.98-0.27"/>
<line id="Línea_13_1_" class="st9" x1="-491.11" y1="-1012.94" x2="-479.72" y2="-1017.09"/>
<line id="Línea_14_1_" class="st9" x1="-448.68" y1="-1017.09" x2="-437.29" y2="-1012.94"/>
<circle id="Elipse_22_4_" class="st3" cx="-731.82" cy="-1000.08" r="6.06"/>
<path id="Trazado_50_4_" class="st9" d="M-737.87-1013.02c0-3.35,2.71-6.06,6.06-6.06s6.06,2.71,6.06,6.06"/>
<path id="Trazado_51_4_" class="st9" d="M-695.44-1013.02c0.04-3.35,2.79-6.03,6.14-5.99c3.29,0.04,5.94,2.7,5.99,5.99"/>
<circle id="Elipse_23_4_" class="st3" cx="-689.38" cy="-1000.08" r="6.06"/>
<path id="Trazado_52_4_" class="st9" d="M-695.58-982c0,0-13.2,16.05-28.98,0.27"/>
<circle id="Elipse_17_1_" class="st8" cx="-587.79" cy="-1566.46" r="51.74"/>
<circle id="Elipse_27_1_" class="st10" cx="66.05" cy="-1556.52" r="51.74"/>
<circle id="Elipse_34_1_" class="st11" cx="67.05" cy="-996.2" r="51.74"/>
<circle id="Elipse_17" class="st12" cx="711.26" cy="-1285.09" r="51.74"/>
<g id="Grupo_206_2_" transform="translate(-761.504 -930.93)">
	<circle id="Elipse_51_2_" class="st6" cx="345.66" cy="760.36" r="32.38"/>
	<g id="Grupo_106_2_" transform="translate(778.662 948.619)">
		<line id="Línea_31_2_" class="st13" x1="-417.78" y1="-188.26" x2="-448.22" y2="-188.26"/>
		<path id="Trazado_101_2_" class="st13" d="M-432.47-202.94l14.69,14.69l-14.69,14.69"/>
	</g>
</g>
<g id="Grupo_206_1_" transform="translate(-761.504 -930.93)">
	<circle id="Elipse_51_1_" class="st6" cx="109.66" cy="760.36" r="32.38"/>
	<g id="Grupo_106_1_" transform="translate(778.662 948.619)">
		<line id="Línea_31_1_" class="st13" x1="-653.78" y1="-188.26" x2="-684.22" y2="-188.26"/>
		<path id="Trazado_101_1_" class="st13" d="M-669.53-173.57l-14.69-14.69l14.69-14.69"/>
	</g>
</g>
<g id="Grupo_207_1_" transform="translate(-852.941 -931.283)">
	<path id="Rectángulo_65_1_" class="st6" d="M189.63,1300.38h150.94c17.67,0,32,14.33,32,32v0.05c0,17.67-14.33,32-32,32H189.63
		c-17.67,0-32-14.33-32-32v-0.05C157.63,1314.7,171.95,1300.38,189.63,1300.38z"/>
	<text transform="matrix(1 0 0 1 199.3064 1337.7372)" class="st2" style="font-family:'SegoeUI'; font-size:21px;">Ver en Netflix</text>
</g>
<g id="Grupo_208" transform="translate(-1091.976 -930.93)">
	<circle id="Elipse_52" class="st6" cx="432.13" cy="1007.05" r="32.38"/>
	<g id="Grupo_108" transform="translate(1109.666 948.088)">
		<path id="Trazado_102" class="st13" d="M-687.96,54.4v19.78h20.86V54.4"/>
		<path id="Trazado_103" class="st13" d="M-692.22,58.43l14.69-14.69l14.69,14.69"/>
	</g>
</g>
<g id="Grupo_209" transform="translate(-854.092 -931.284)">
	<path id="Rectángulo_109" class="st6" d="M601.78,1300.38h150.94c17.67,0,32,14.33,32,32v0.05c0,17.67-14.33,32-32,32H601.78
		c-17.67,0-32-14.33-32-32v-0.05C569.78,1314.7,584.11,1300.38,601.78,1300.38z"/>
	<text transform="matrix(1 0 0 1 601.6864 1337.7372)" class="st2" style="font-family:'SegoeUI'; font-size:21px;">Abrir en Spotify</text>
</g>
<g id="Grupo_187" transform="translate(-198 -430)">
	<circle id="Elipse_27" class="st10" cx="285.67" cy="517.62" r="51.74"/>
	<circle id="Elipse_28" class="st3" cx="263.93" cy="512.48" r="6.06"/>
	<circle id="Elipse_29" class="st3" cx="306.36" cy="512.48" r="6.06"/>
	<path id="Trazado_54" class="st9" d="M271.18,537.77c0,0,13.2-16.05,28.98-0.27"/>
	<line id="Línea_19" class="st9" x1="258.23" y1="501.61" x2="269.62" y2="497.46"/>
	<line id="Línea_20" class="st9" x1="300.66" y1="497.46" x2="312.06" y2="501.61"/>
</g>
<circle id="Elipse_34" class="st10" cx="342.64" cy="87.62" r="51.74"/>
<path id="Trazado_186" class="st9" d="M363.8,85.07c0,11.56-9.38,20.93-20.94,20.93c-11.56,0-20.92-9.37-20.93-20.93"/>
<line id="Línea_40" class="st9" x1="342.87" y1="106.12" x2="342.87" y2="124.78"/>
<line id="Línea_41" class="st9" x1="330.11" y1="124.78" x2="356.1" y2="124.78"/>
<path id="Rectángulo_112" class="st9" d="M342.87,49.62L342.87,49.62c7.05,0,12.76,5.71,12.76,12.76v22.07
	c0,7.05-5.71,12.76-12.76,12.76l0,0c-7.05,0-12.76-5.71-12.76-12.76V62.37C330.11,55.33,335.82,49.62,342.87,49.62z"/>
<line id="Línea_42" class="st9" x1="330.11" y1="64.22" x2="336.93" y2="64.22"/>
<line id="Línea_44" class="st9" x1="330.11" y1="73.2" x2="336.93" y2="73.2"/>
<line id="Línea_45" class="st9" x1="330.11" y1="82.18" x2="336.93" y2="82.18"/>
<line id="Línea_46" class="st9" x1="348.8" y1="64.22" x2="355.62" y2="64.22"/>
<line id="Línea_48" class="st9" x1="348.8" y1="73.2" x2="355.62" y2="73.2"/>
<line id="Línea_49" class="st9" x1="348.8" y1="82.18" x2="355.62" y2="82.18"/>
<circle id="Elipse_34_2_" class="st11" cx="590.64" cy="87.62" r="51.74"/>
<path id="Trazado_186_1_" class="st9" d="M611.8,85.07c0,11.56-9.38,20.93-20.94,20.93c-11.56,0-20.92-9.37-20.93-20.93"/>
<line id="Línea_40_1_" class="st9" x1="590.87" y1="106.12" x2="590.87" y2="124.78"/>
<line id="Línea_41_1_" class="st9" x1="578.11" y1="124.78" x2="604.1" y2="124.78"/>
<path id="Rectángulo_112_1_" class="st9" d="M590.87,49.62L590.87,49.62c7.05,0,12.76,5.71,12.76,12.76v22.07
	c0,7.05-5.71,12.76-12.76,12.76l0,0c-7.05,0-12.76-5.71-12.76-12.76V62.37C578.11,55.33,583.82,49.62,590.87,49.62z"/>
<line id="Línea_42_1_" class="st9" x1="578.11" y1="64.22" x2="584.93" y2="64.22"/>
<line id="Línea_44_1_" class="st9" x1="578.11" y1="73.2" x2="584.93" y2="73.2"/>
<line id="Línea_45_1_" class="st9" x1="578.11" y1="82.18" x2="584.93" y2="82.18"/>
<line id="Línea_46_1_" class="st9" x1="596.8" y1="64.22" x2="603.62" y2="64.22"/>
<line id="Línea_48_1_" class="st9" x1="596.8" y1="73.2" x2="603.62" y2="73.2"/>
<line id="Línea_49_1_" class="st9" x1="596.8" y1="82.18" x2="603.62" y2="82.18"/>
<circle id="Elipse_27-2" class="st8" cx="87.68" cy="88.62" r="51.74"/>
<circle id="Elipse_28-2" class="st3" cx="65.93" cy="83.48" r="6.06"/>
<circle id="Elipse_29-2" class="st3" cx="108.36" cy="83.48" r="6.06"/>
<path id="Trazado_54-2" class="st9" d="M73.18,108.77c0,0,13.2-16.05,28.98-0.27"/>
<line id="Línea_19-2" class="st9" x1="60.23" y1="72.61" x2="71.62" y2="68.46"/>
<line id="Línea_20-2" class="st9" x1="102.67" y1="68.46" x2="114.06" y2="72.61"/>
<circle id="Elipse_27-2_2_" class="st10" cx="342.68" cy="-170.38" r="51.74"/>
<circle id="Elipse_22_3_" class="st3" cx="321.73" cy="-173.78" r="6.06"/>
<path id="Trazado_50_3_" class="st9" d="M315.67-186.72c0-3.35,2.71-6.06,6.06-6.06s6.06,2.71,6.06,6.06"/>
<path id="Trazado_51_3_" class="st9" d="M358.1-186.72c0.04-3.35,2.79-6.03,6.14-5.99c3.29,0.04,5.94,2.7,5.99,5.99"/>
<circle id="Elipse_23_3_" class="st3" cx="364.16" cy="-173.78" r="6.06"/>
<path id="Trazado_52_3_" class="st9" d="M357.96-155.7c0,0-13.2,16.05-28.98,0.27"/>
<circle id="Elipse_33" class="st10" cx="593.47" cy="-167.46" r="51.74"/>
<g id="Grupo_173" transform="translate(-524.864 -221.357)">
	<path id="Trazado_187" class="st14" d="M1105.42,35.98"/>
	<path id="Trazado_188" class="st9" d="M1141.82,31.98c0-2.39-1.68-4.45-4.02-4.93c-0.21-2.61-2.39-4.63-5.01-4.63
		c-0.25,0-0.5,0.02-0.75,0.06c-4.39-1.12-8.55-3.02-12.29-5.59c-2.41,0-4.47,1.7-4.94,4.07c-2.53,2.46-6.42,2.86-9.39,0.96
		c-2.78,0-5.03,2.25-5.03,5.03v0c0,0.02,0,0.03,0,0.05c-0.23-0.03-0.45-0.05-0.68-0.05c-2.78,0-5.03,2.25-5.03,5.03v0"/>
	<g id="Grupo_172">
		<path id="Trazado_189" class="st9" d="M1137.11,90.43h-37.32l-4.06-43.44h45.34L1137.11,90.43z"/>
		<circle id="Elipse_68" class="st9" cx="1118.27" cy="68.71" r="10.36"/>
		<line id="Línea_50" class="st9" x1="1109.69" y1="46.99" x2="1110.18" y2="62.24"/>
		<line id="Línea_51" class="st9" x1="1126.81" y1="46.99" x2="1126.3" y2="62.17"/>
		<line id="Línea_52" class="st9" x1="1110.6" y1="75.68" x2="1111.07" y2="90.43"/>
		<line id="Línea_53" class="st9" x1="1125.85" y1="75.68" x2="1125.35" y2="90.43"/>
		<rect id="Rectángulo_113" x="1093.55" y="38.63" class="st9" width="49.65" height="8.36"/>
	</g>
	<path id="Trazado_190" class="st9" d="M1107.16,31.7c0.8-2.02,3.1-3.01,5.12-2.21"/>
	<path id="Trazado_191" class="st9" d="M1124.77,28.45c2.05-0.73,4.31,0.35,5.03,2.4"/>
</g>
<g id="Grupo_187_1_" transform="translate(-198 -430)">
	<circle id="Elipse_27_2_" class="st10" cx="-217.33" cy="517.62" r="51.74"/>
	<circle id="Elipse_28_1_" class="st3" cx="-239.07" cy="512.48" r="6.06"/>
	<circle id="Elipse_29_1_" class="st3" cx="-196.64" cy="512.48" r="6.06"/>
	<path id="Trazado_54_1_" class="st9" d="M-231.82,537.77c0,0,13.2-16.05,28.98-0.27"/>
	<line id="Línea_19_1_" class="st9" x1="-244.77" y1="501.61" x2="-233.38" y2="497.46"/>
	<line id="Línea_20_1_" class="st9" x1="-202.34" y1="497.46" x2="-190.94" y2="501.61"/>
</g>
<circle id="Elipse_27-2_3_" class="st15" cx="-415.32" cy="88.62" r="51.74"/>
<circle id="Elipse_28-2_1_" class="st3" cx="-437.07" cy="83.48" r="6.06"/>
<circle id="Elipse_29-2_1_" class="st3" cx="-394.64" cy="83.48" r="6.06"/>
<path id="Trazado_54-2_1_" class="st9" d="M-429.82,108.77c0,0,13.2-16.05,28.98-0.27"/>
<line id="Línea_19-2_1_" class="st9" x1="-442.77" y1="72.61" x2="-431.38" y2="68.46"/>
<line id="Línea_20-2_1_" class="st9" x1="-400.33" y1="68.46" x2="-388.94" y2="72.61"/>
<circle id="Elipse_27-2_1_" class="st15" cx="-160.32" cy="-170.38" r="51.74"/>
<circle id="Elipse_22_1_" class="st3" cx="-181.27" cy="-173.78" r="6.06"/>
<path id="Trazado_50_1_" class="st9" d="M-187.33-186.72c0-3.35,2.71-6.06,6.06-6.06s6.06,2.71,6.06,6.06"/>
<path id="Trazado_51_1_" class="st9" d="M-144.9-186.72c0.04-3.35,2.79-6.03,6.14-5.99c3.29,0.04,5.94,2.7,5.99,5.99"/>
<circle id="Elipse_23_1_" class="st3" cx="-138.84" cy="-173.78" r="6.06"/>
<path id="Trazado_52_1_" class="st9" d="M-145.04-155.7c0,0-13.2,16.05-28.98,0.27"/>
<circle id="Elipse_33_1_" class="st11" cx="837.47" cy="-167.46" r="51.74"/>
<g id="Grupo_173_1_" transform="translate(-524.864 -221.357)">
	<path id="Trazado_187_1_" class="st14" d="M1349.42,35.98"/>
	<path id="Trazado_188_1_" class="st9" d="M1385.82,31.98c0-2.39-1.68-4.45-4.02-4.93c-0.21-2.61-2.39-4.63-5.01-4.63
		c-0.25,0-0.5,0.02-0.75,0.06c-4.39-1.12-8.55-3.02-12.29-5.59c-2.41,0-4.47,1.7-4.94,4.07c-2.53,2.46-6.42,2.86-9.39,0.96
		c-2.78,0-5.03,2.25-5.03,5.03v0c0,0.02,0,0.03,0,0.05c-0.23-0.03-0.45-0.05-0.68-0.05c-2.78,0-5.03,2.25-5.03,5.03v0"/>
	<g id="Grupo_172_1_">
		<path id="Trazado_189_1_" class="st9" d="M1381.11,90.43h-37.32l-4.06-43.44h45.34L1381.11,90.43z"/>
		<circle id="Elipse_68_1_" class="st9" cx="1362.27" cy="68.71" r="10.36"/>
		<line id="Línea_50_1_" class="st9" x1="1353.69" y1="46.99" x2="1354.18" y2="62.24"/>
		<line id="Línea_51_1_" class="st9" x1="1370.81" y1="46.99" x2="1370.3" y2="62.17"/>
		<line id="Línea_52_1_" class="st9" x1="1354.6" y1="75.68" x2="1355.07" y2="90.43"/>
		<line id="Línea_53_1_" class="st9" x1="1369.85" y1="75.68" x2="1369.35" y2="90.43"/>
		<rect id="Rectángulo_113_1_" x="1337.55" y="38.63" class="st9" width="49.65" height="8.36"/>
	</g>
	<path id="Trazado_190_1_" class="st9" d="M1351.16,31.7c0.8-2.02,3.1-3.01,5.12-2.21"/>
	<path id="Trazado_191_1_" class="st9" d="M1368.77,28.45c2.05-0.73,4.31,0.35,5.03,2.4"/>
</g>
<g id="Grupo_188_2_" transform="translate(152 -432)">
	<circle id="Elipse_34_3_" class="st15" cx="-312.36" cy="519.62" r="51.74"/>
	<g id="Grupo_174_2_" transform="translate(2.001)">
		<path id="Trazado_186_3_" class="st16" d="M-293.2,517.07c0,11.56-9.38,20.93-20.94,20.93c-11.56,0-20.92-9.37-20.93-20.93"/>
		<line id="Línea_40_3_" class="st9" x1="-314.13" y1="538.12" x2="-314.13" y2="556.78"/>
		<line id="Línea_41_3_" class="st9" x1="-326.89" y1="556.78" x2="-300.9" y2="556.78"/>
		<path id="Rectángulo_112_3_" class="st16" d="M-314.13,481.62L-314.13,481.62c7.05,0,12.76,5.71,12.76,12.76v22.07
			c0,7.05-5.71,12.76-12.76,12.76l0,0c-7.05,0-12.76-5.71-12.76-12.76v-22.07C-326.89,487.33-321.18,481.62-314.13,481.62z"/>
		<line id="Línea_42_3_" class="st9" x1="-326.89" y1="496.22" x2="-320.07" y2="496.22"/>
		<line id="Línea_44_3_" class="st9" x1="-326.89" y1="505.2" x2="-320.07" y2="505.2"/>
		<line id="Línea_45_3_" class="st9" x1="-326.89" y1="514.18" x2="-320.07" y2="514.18"/>
		<line id="Línea_46_3_" class="st9" x1="-308.2" y1="496.22" x2="-301.38" y2="496.22"/>
		<line id="Línea_48_3_" class="st9" x1="-308.2" y1="505.2" x2="-301.38" y2="505.2"/>
		<line id="Línea_49_3_" class="st9" x1="-308.2" y1="514.18" x2="-301.38" y2="514.18"/>
	</g>
</g>
<circle id="Elipse_33_2_" class="st15" cx="90.47" cy="-167.46" r="51.74"/>
<g id="Grupo_173_3_" transform="translate(-524.864 -221.357)">
	<path id="Trazado_187_3_" class="st14" d="M602.42,35.98"/>
	<path id="Trazado_188_3_" class="st9" d="M638.82,31.98c0-2.39-1.68-4.45-4.02-4.93c-0.21-2.61-2.39-4.63-5.01-4.63
		c-0.25,0-0.5,0.02-0.75,0.06c-4.39-1.12-8.55-3.02-12.29-5.59c-2.41,0-4.47,1.7-4.94,4.07c-2.53,2.46-6.42,2.86-9.39,0.96
		c-2.78,0-5.03,2.25-5.03,5.03v0c0,0.02,0,0.03,0,0.05c-0.23-0.03-0.45-0.05-0.68-0.05c-2.78,0-5.03,2.25-5.03,5.03v0"/>
	<g id="Grupo_172_3_">
		<path id="Trazado_189_3_" class="st9" d="M634.11,90.43H596.8l-4.06-43.44h45.34L634.11,90.43z"/>
		<circle id="Elipse_68_3_" class="st9" cx="615.27" cy="68.71" r="10.36"/>
		<line id="Línea_50_3_" class="st9" x1="606.69" y1="46.99" x2="607.18" y2="62.24"/>
		<line id="Línea_51_3_" class="st9" x1="623.81" y1="46.99" x2="623.3" y2="62.17"/>
		<line id="Línea_52_3_" class="st9" x1="607.6" y1="75.68" x2="608.07" y2="90.43"/>
		<line id="Línea_53_3_" class="st9" x1="622.85" y1="75.68" x2="622.35" y2="90.43"/>
		<rect id="Rectángulo_113_3_" x="590.55" y="38.63" class="st9" width="49.65" height="8.36"/>
	</g>
	<path id="Trazado_190_3_" class="st9" d="M604.16,31.7c0.8-2.02,3.1-3.01,5.12-2.21"/>
	<path id="Trazado_191_3_" class="st9" d="M621.77,28.45c2.05-0.73,4.31,0.35,5.03,2.4"/>
</g>
<path id="Rectángulo_37_1_" class="st12" d="M-643.62,1154.8h129.03c37.5,0,67.9,30.4,67.9,67.9l0,0c0,37.5-30.4,67.9-67.9,67.9
	h-129.03c-37.5,0-67.9-30.4-67.9-67.9l0,0C-711.52,1185.2-681.12,1154.8-643.62,1154.8z"/>
<g id="Grupo_174_1_" transform="translate(-820.998 -467.103)">
	<path id="Trazado_186_4_" class="st9" d="M201.35,1687.26c0,11.56-9.38,20.93-20.94,20.93c-11.56,0-20.92-9.37-20.93-20.93"/>
	<line id="Línea_40_4_" class="st9" x1="180.42" y1="1708.3" x2="180.42" y2="1726.96"/>
	<line id="Línea_41_4_" class="st9" x1="167.66" y1="1726.96" x2="193.65" y2="1726.96"/>
	<path id="Rectángulo_112_4_" class="st9" d="M180.42,1651.8L180.42,1651.8c7.05,0,12.76,5.71,12.76,12.76v22.07
		c0,7.05-5.71,12.76-12.76,12.76l0,0c-7.05,0-12.76-5.71-12.76-12.76v-22.07C167.66,1657.51,173.37,1651.8,180.42,1651.8z"/>
	<line id="Línea_42_4_" class="st9" x1="167.66" y1="1666.41" x2="174.48" y2="1666.41"/>
	<line id="Línea_44_4_" class="st9" x1="167.66" y1="1675.38" x2="174.48" y2="1675.38"/>
	<line id="Línea_45_4_" class="st9" x1="167.66" y1="1684.36" x2="174.48" y2="1684.36"/>
	<line id="Línea_46_4_" class="st9" x1="186.35" y1="1666.41" x2="193.17" y2="1666.41"/>
	<line id="Línea_48_4_" class="st9" x1="186.35" y1="1675.38" x2="193.17" y2="1675.38"/>
	<line id="Línea_49_4_" class="st9" x1="186.35" y1="1684.36" x2="193.17" y2="1684.36"/>
</g>
<g id="Grupo_173_4_" transform="translate(-535.864 214.643)">
	<path id="Trazado_187_4_" class="st14" d="M5.22,990.14"/>
	<path id="Trazado_188_4_" class="st9" d="M41.62,986.14c0-2.39-1.68-4.45-4.02-4.93c-0.21-2.61-2.39-4.63-5.01-4.63
		c-0.25,0-0.5,0.02-0.75,0.06c-4.39-1.12-8.55-3.02-12.29-5.59c-2.41,0-4.47,1.7-4.94,4.07c-2.53,2.46-6.42,2.86-9.39,0.96
		c-2.78,0-5.03,2.25-5.03,5.03l0,0c0,0.02,0,0.03,0,0.05c-0.23-0.03-0.45-0.05-0.68-0.05c-2.78,0-5.03,2.25-5.03,5.03v0"/>
	<g id="Grupo_172_4_">
		<path id="Trazado_189_4_" class="st9" d="M36.91,1044.59H-0.41l-4.06-43.44h45.34L36.91,1044.59z"/>
		<circle id="Elipse_68_4_" class="st9" cx="18.06" cy="1022.87" r="10.36"/>
		<line id="Línea_50_4_" class="st9" x1="9.49" y1="1001.15" x2="9.97" y2="1016.4"/>
		<line id="Línea_51_4_" class="st9" x1="26.61" y1="1001.15" x2="26.1" y2="1016.33"/>
		<line id="Línea_52_4_" class="st9" x1="10.4" y1="1029.83" x2="10.87" y2="1044.59"/>
		<line id="Línea_53_4_" class="st9" x1="25.64" y1="1029.83" x2="25.15" y2="1044.59"/>
		<rect id="Rectángulo_113_4_" x="-6.65" y="992.79" class="st9" width="49.65" height="8.36"/>
	</g>
	<path id="Trazado_190_4_" class="st9" d="M6.96,985.86c0.8-2.02,3.1-3.01,5.12-2.21"/>
	<path id="Trazado_191_4_" class="st9" d="M24.57,982.61c2.05-0.73,4.31,0.35,5.03,2.4"/>
</g>
<circle id="Elipse_53_1_" class="st2" cx="-791.26" cy="1605.06" r="25.74"/>
<path id="Rectángulo_73_1_" class="st6" d="M-791.26,1594.34L-791.26,1594.34c0.97,0,1.76,0.79,1.76,1.76v17.92
	c0,0.97-0.79,1.76-1.76,1.76l0,0c-0.97,0-1.76-0.79-1.76-1.76v-17.92C-793.02,1595.13-792.24,1594.34-791.26,1594.34z"/>
<path id="Rectángulo_74_1_" class="st6" d="M-780.54,1605.06L-780.54,1605.06c0,0.97-0.79,1.76-1.76,1.76h-17.92
	c-0.97,0-1.76-0.79-1.76-1.76l0,0c0-0.97,0.79-1.76,1.76-1.76h17.92C-781.33,1603.3-780.54,1604.09-780.54,1605.06z"/>
<circle id="Elipse_60" class="st6" cx="-586.26" cy="1602.91" r="25.74"/>
<path id="Rectángulo_97" class="st2" d="M-586.26,1592.19L-586.26,1592.19c0.97,0,1.76,0.79,1.76,1.76v17.92
	c0,0.97-0.79,1.76-1.76,1.76l0,0c-0.97,0-1.76-0.79-1.76-1.76v-17.92C-588.02,1592.97-587.24,1592.19-586.26,1592.19z"/>
<path id="Rectángulo_98" class="st2" d="M-575.54,1602.91L-575.54,1602.91c0,0.97-0.79,1.76-1.76,1.76h-17.92
	c-0.97,0-1.76-0.79-1.76-1.76l0,0c0-0.97,0.79-1.76,1.76-1.76h17.92C-576.33,1601.15-575.54,1601.93-575.54,1602.91z"/>
<path id="Trazado_124_1_" class="st2" d="M-716.92,2668.97c19.59,0,35.47-15.88,35.47-35.47c0.06-56.26,45.66-101.86,101.92-101.92
	c56.26,0.06,101.86,45.66,101.92,101.92c0,19.59,15.88,35.47,35.47,35.47c19.59,0,35.47-15.88,35.47-35.47
	c0.13-45.87-18.11-89.88-50.63-122.23c-32.35-32.52-76.36-50.76-122.23-50.63c-45.87-0.13-89.88,18.11-122.23,50.63
	c-32.52,32.35-50.75,76.36-50.63,122.23C-752.39,2653.09-736.51,2668.97-716.92,2668.97
	C-716.92,2668.97-716.92,2668.97-716.92,2668.97z"/>
<g>
	<g id="Grupo_132_1_" transform="translate(47.033 54.45)">
		<path id="Trazado_125_1_" class="st6" d="M-630.15,3137.52c6.61-0.02,12.93,2.74,17.41,7.6h9.59c-5.69-9.47-15.95-15.24-27-15.19
			c-11.05-0.05-21.31,5.72-27,15.19h9.59C-643.07,3140.26-636.76,3137.5-630.15,3137.52z"/>
	</g>
	<path id="Trazado_126_1_" class="st6" d="M-657.16,3176.51l5.07-30.1h7.68l5.98,16.05l5.94-16.05h7.69l5.07,30.1h-7.72l-2.57-17.33
		l-7.05,17.33h-3.09l-6.69-17.33l-2.57,17.33H-657.16z"/>
	<path id="Trazado_127_1_" class="st6" d="M-618.05,3160.74c-0.02-2.13,0.4-4.24,1.23-6.2c0.79-1.88,1.95-3.58,3.41-5.01
		c1.49-1.45,3.27-2.59,5.21-3.35c2.13-0.82,4.39-1.24,6.67-1.21c2.28-0.02,4.53,0.39,6.66,1.21c1.95,0.75,3.74,1.89,5.25,3.35
		c1.46,1.43,2.63,3.13,3.43,5.01c0.83,1.96,1.25,4.07,1.23,6.2c0.02,2.13-0.4,4.24-1.23,6.2c-0.8,1.88-1.96,3.59-3.43,5.01
		c-1.51,1.45-3.29,2.59-5.25,3.35c-2.12,0.82-4.38,1.23-6.66,1.21c-2.28,0.03-4.55-0.38-6.67-1.21c-1.94-0.76-3.71-1.89-5.21-3.35
		c-1.46-1.43-2.61-3.13-3.41-5.01C-617.66,3164.98-618.07,3162.87-618.05,3160.74z M-609.93,3160.74c-0.01,1.13,0.22,2.25,0.68,3.29
		c0.43,0.98,1.05,1.87,1.82,2.62c0.77,0.74,1.68,1.33,2.67,1.72c1.03,0.41,2.12,0.62,3.23,0.61c1.11,0.01,2.2-0.2,3.23-0.61
		c1-0.4,1.91-0.98,2.69-1.72c0.78-0.74,1.41-1.63,1.84-2.62c0.46-1.04,0.68-2.16,0.67-3.29c0.01-1.13-0.22-2.25-0.67-3.29
		c-0.44-0.98-1.06-1.87-1.84-2.61c-0.78-0.74-1.7-1.32-2.69-1.72c-1.03-0.41-2.12-0.62-3.23-0.61c-1.11-0.01-2.2,0.2-3.23,0.61
		c-0.99,0.39-1.9,0.98-2.67,1.72c-0.77,0.75-1.39,1.63-1.82,2.61C-609.72,3158.49-609.95,3159.61-609.93,3160.74z"/>
	<path id="Trazado_128_1_" class="st6" d="M-581.06,3160.74c-0.02-2.13,0.4-4.24,1.23-6.2c0.79-1.88,1.95-3.58,3.41-5.01
		c1.49-1.45,3.27-2.59,5.21-3.35c2.13-0.83,4.39-1.24,6.68-1.21c2.27-0.02,4.53,0.39,6.65,1.21c1.96,0.75,3.74,1.89,5.25,3.35
		c1.46,1.42,2.63,3.13,3.43,5.01c0.83,1.96,1.24,4.07,1.23,6.2c0.02,2.13-0.4,4.24-1.23,6.2c-0.8,1.88-1.96,3.59-3.43,5.01
		c-1.51,1.46-3.29,2.59-5.25,3.35c-2.12,0.82-4.38,1.23-6.65,1.21c-2.28,0.03-4.55-0.38-6.68-1.21c-1.94-0.76-3.71-1.89-5.21-3.35
		c-1.46-1.43-2.61-3.13-3.41-5.01C-580.66,3164.98-581.08,3162.87-581.06,3160.74z M-572.94,3160.74c-0.01,1.13,0.22,2.25,0.67,3.29
		c0.43,0.98,1.05,1.87,1.82,2.62c0.77,0.74,1.68,1.33,2.67,1.72c1.03,0.41,2.12,0.62,3.23,0.61c1.11,0.01,2.2-0.2,3.23-0.61
		c1-0.4,1.91-0.98,2.69-1.72c0.78-0.74,1.41-1.63,1.84-2.62c0.46-1.03,0.69-2.16,0.68-3.29c0.01-1.13-0.22-2.25-0.68-3.29
		c-0.44-0.98-1.06-1.87-1.84-2.61c-0.78-0.74-1.69-1.32-2.69-1.72c-1.03-0.41-2.12-0.62-3.23-0.61c-1.11-0.01-2.2,0.2-3.23,0.61
		c-0.99,0.4-1.9,0.98-2.67,1.72c-0.77,0.75-1.39,1.63-1.82,2.61C-572.73,3158.49-572.96,3159.61-572.94,3160.74L-572.94,3160.74z"/>
	<path id="Trazado_129_1_" class="st6" d="M-544.08,3146.4h11.49c1.98-0.01,3.93,0.41,5.72,1.24c1.75,0.8,3.33,1.92,4.67,3.29
		c1.34,1.38,2.41,3.01,3.15,4.79c0.76,1.81,1.15,3.76,1.15,5.73c0,1.95-0.38,3.89-1.13,5.69c-0.73,1.79-1.79,3.42-3.13,4.81
		c-1.34,1.39-2.92,2.51-4.67,3.31c-1.81,0.83-3.77,1.25-5.76,1.24h-11.49L-544.08,3146.4z M-536.32,3169.88h1.78
		c1.23,0.02,2.45-0.2,3.6-0.64c1.01-0.39,1.92-0.99,2.68-1.76c0.73-0.76,1.3-1.66,1.66-2.65c0.39-1.08,0.59-2.22,0.57-3.37
		c0.01-1.15-0.19-2.28-0.59-3.35c-0.37-1-0.94-1.91-1.68-2.68c-0.76-0.77-1.67-1.36-2.67-1.76c-1.14-0.44-2.35-0.66-3.56-0.64h-1.78
		L-536.32,3169.88z"/>
	<rect id="Rectángulo_83_1_" x="-610.09" y="3129.93" class="st6" width="22.47" height="7.53"/>
	<rect id="Rectángulo_84_1_" x="-578.43" y="3129.93" class="st6" width="22.47" height="7.53"/>
</g>
<g>
	<g id="Grupo_98" transform="translate(47.035 54.451)">
		<path id="Trazado_90" class="st6" d="M-25.34,2841.29c-6.61,0.02-12.93-2.73-17.41-7.59h-9.59c9.06,14.91,28.5,19.66,43.42,10.59
			c4.33-2.63,7.96-6.26,10.59-10.59h-9.59C-12.41,2838.55-18.73,2841.31-25.34,2841.29z"/>
	</g>
	<path id="Trazado_91" class="st6" d="M-52.35,2880.27l5.07-30.1h7.69l5.98,16.05l5.94-16.05h7.69l5.07,30.1h-7.73l-2.58-17.33
		l-7.05,17.33h-3.09l-6.69-17.33l-2.58,17.33L-52.35,2880.27z"/>
	<path id="Trazado_92" class="st6" d="M-13.24,2864.51c-0.08-6.43,3.84-12.24,9.84-14.56c4.3-1.61,9.03-1.61,13.33,0
		c1.95,0.76,3.74,1.89,5.25,3.35c1.46,1.43,2.63,3.13,3.42,5.01c1.64,3.97,1.64,8.43,0,12.4c-0.8,1.88-1.96,3.58-3.42,5.01
		c-1.51,1.45-3.29,2.59-5.25,3.35c-4.3,1.61-9.03,1.61-13.33,0C-9.39,2876.74-13.31,2870.94-13.24,2864.51L-13.24,2864.51z
		 M-5.12,2864.51c-0.01,1.13,0.22,2.25,0.67,3.29c0.87,1.98,2.49,3.54,4.5,4.34c3.13,1.26,6.7,0.59,9.15-1.72
		c0.78-0.74,1.41-1.63,1.84-2.61c0.9-2.1,0.9-4.48,0-6.57c-0.44-0.98-1.06-1.87-1.84-2.62c-0.78-0.74-1.7-1.32-2.7-1.72
		c-2.07-0.82-4.38-0.82-6.45,0c-0.99,0.39-1.9,0.98-2.67,1.72c-0.77,0.75-1.39,1.63-1.82,2.62
		C-4.9,2862.26-5.13,2863.38-5.12,2864.51z"/>
	<path id="Trazado_93" class="st6" d="M23.74,2864.51c-0.08-6.43,3.84-12.24,9.84-14.56c4.3-1.61,9.03-1.61,13.33,0
		c1.95,0.76,3.74,1.89,5.25,3.35c1.46,1.42,2.63,3.13,3.43,5.01c1.64,3.97,1.64,8.43,0,12.4c-0.8,1.88-1.96,3.59-3.43,5.01
		c-1.51,1.45-3.29,2.59-5.25,3.35c-4.3,1.61-9.03,1.61-13.33,0C27.59,2876.74,23.67,2870.94,23.74,2864.51L23.74,2864.51z
		 M31.86,2864.51c-0.01,1.13,0.22,2.25,0.67,3.29c0.87,1.98,2.49,3.54,4.5,4.34c2.07,0.82,4.38,0.82,6.45,0
		c1-0.4,1.91-0.98,2.69-1.72c0.78-0.74,1.41-1.63,1.84-2.61c0.9-2.1,0.9-4.48,0-6.57c-0.44-0.98-1.06-1.87-1.84-2.62
		c-0.78-0.74-1.69-1.32-2.69-1.72c-2.07-0.82-4.38-0.82-6.45,0c-0.99,0.39-1.9,0.98-2.67,1.72c-0.77,0.75-1.39,1.63-1.82,2.62
		C32.08,2862.26,31.85,2863.38,31.86,2864.51z"/>
	<path id="Trazado_94" class="st6" d="M60.73,2850.17h11.49c1.98-0.01,3.93,0.41,5.72,1.24c1.75,0.8,3.33,1.92,4.67,3.29
		c1.34,1.38,2.41,3.01,3.15,4.79c1.53,3.65,1.53,7.76,0.02,11.42c-0.73,1.79-1.79,3.42-3.13,4.81c-1.34,1.39-2.92,2.51-4.67,3.31
		c-1.81,0.83-3.77,1.25-5.76,1.24H60.73V2850.17z M68.49,2873.64h1.78c1.23,0.02,2.45-0.2,3.6-0.64c1-0.39,1.91-0.99,2.67-1.76
		c0.73-0.76,1.3-1.66,1.66-2.66c0.39-1.08,0.59-2.22,0.58-3.37c0.01-1.14-0.19-2.28-0.59-3.35c-0.74-2.04-2.33-3.66-4.36-4.43
		c-1.14-0.44-2.35-0.66-3.56-0.64h-1.78L68.49,2873.64z"/>
	<rect id="Rectángulo_56" x="-5.28" y="2833.69" class="st6" width="22.47" height="7.53"/>
	<rect id="Rectángulo_57" x="26.38" y="2833.69" class="st6" width="22.47" height="7.53"/>
</g>
</svg>
