<?xml version="1.0" encoding="utf-8"?>
<!-- Generator: Adobe Illustrator 24.0.0, SVG Export Plug-In . SVG Version: 6.00 Build 0)  -->
<svg version="1.1" id="Capa_1" xmlns="http://www.w3.org/2000/svg" xmlns:xlink="http://www.w3.org/1999/xlink" x="0px" y="0px"
	 viewBox="0 0 122.9 118.2" style="enable-background:new 0 0 122.9 118.2;" xml:space="preserve">
<style type="text/css">
	.st0{fill:#F5B15A;}
	.st1{fill:#EAE3DA;}
	.st2{fill:#E4D7CE;}
	.st3{fill:#002E61;}
	.st4{fill:#E45451;}
	.st5{fill:#E4D8CE;}
	.st6{fill:#1E244D;}
	.st7{fill:#F99A3D;}
	.st8{fill:none;stroke:#002E61;stroke-width:10;stroke-miterlimit:10;}
	.st9{fill:none;stroke:#002E61;stroke-width:5;stroke-linecap:round;stroke-linejoin:round;}
	.st10{fill:#E45451;stroke:#002E61;stroke-width:10;stroke-miterlimit:10;}
	.st11{fill:#F5B15A;stroke:#002E61;stroke-width:10;stroke-miterlimit:10;}
	.st12{fill:#E4D7CE;stroke:#002E61;stroke-width:10;stroke-miterlimit:10;}
	.st13{fill:none;stroke:#E4D7CE;stroke-width:5;stroke-linecap:round;stroke-linejoin:round;}
	.st14{fill:none;stroke:#002E61;stroke-width:2.37;stroke-linecap:round;stroke-linejoin:round;}
	.st15{fill:#E4D8CE;stroke:#002E61;stroke-width:10;stroke-miterlimit:10;}
	.st16{fill:#E4D8CE;stroke:#002E61;stroke-width:5;stroke-linecap:round;stroke-linejoin:round;}
</style>
<rect id="Rectángulo_36_1_" x="-2370.7" y="-1842.3" class="st0" width="1919.8" height="1080"/>
<g id="Grupo_201_1_" transform="translate(0 -7.083)">
	<g id="Grupo_10_1_" transform="translate(150 84.083)">
		<path id="Trazado_8_1_" class="st1" d="M-2368.4-1012.7c2.9-7,8.6-12.5,15.7-15.2c7.8-2.9,16.4-2.9,24.2,0
			c3.6,1.4,6.8,3.4,9.5,6.1c2.7,2.6,4.8,5.7,6.2,9.1c3,7.2,3,15.3,0,22.5c-1.4,3.4-3.6,6.5-6.2,9.1c-2.7,2.6-6,4.7-9.5,6.1
			c-7.8,2.9-16.4,2.9-24.2,0c-14.7-6-21.8-22.8-15.8-37.5C-2368.5-1012.5-2368.4-1012.6-2368.4-1012.7L-2368.4-1012.7z
			 M-2354.7-995.5c1.6,3.6,4.5,6.4,8.2,7.9c5.7,2.3,12.2,1.1,16.6-3.1c1.4-1.3,2.6-3,3.4-4.8c1.6-3.8,1.6-8.1,0-12
			c-0.8-1.8-1.9-3.4-3.4-4.8c-1.4-1.3-3.1-2.4-4.9-3.1c-3.8-1.5-8-1.5-11.7,0c-1.8,0.7-3.5,1.8-4.9,3.1c-1.4,1.4-2.5,3-3.3,4.8
			C-2356.3-1003.6-2356.3-999.3-2354.7-995.5L-2354.7-995.5z"/>
		<rect id="Rectángulo_4_1_" x="-2347.4" y="-956.7" class="st1" width="13.7" height="40.8"/>
		<g id="Grupo_6_1_" transform="translate(7.948 405.244)">
			
				<rect id="Rectángulo_5_1_" x="-2325.8" y="-1751" transform="matrix(0.7071 -0.7071 0.7071 0.7071 558.0956 -2140.9663)" class="st1" width="40.8" height="13.7"/>
			<g id="Grupo_5_1_">
				<rect id="Rectángulo_6_1_" x="-2324.6" y="-1800.1" class="st1" width="98.2" height="13.7"/>
				<g id="Grupo_4_1_">
					<path id="Trazado_9_1_" class="st1" d="M-2356.8-1793.2c0-12-5-23.5-13.8-31.7v-17.4c27.1,16.5,35.7,51.8,19.3,78.9
						c-4.8,7.9-11.4,14.5-19.3,19.3v-17.4C-2361.8-1769.7-2356.8-1781.2-2356.8-1793.2z"/>
				</g>
			</g>
		</g>
		<g id="Grupo_9_1_" transform="translate(4.411)">
			<path id="Trazado_10_1_" class="st1" d="M-2332.1-1752.4c1.6,3.6,4.5,6.4,8.2,7.9c5.7,2.3,12.2,1.1,16.6-3.1
				c1.4-1.3,2.6-3,3.4-4.8c1.6-3.8,1.6-8.1,0-11.9c-0.8-1.8-1.9-3.4-3.4-4.8c-4.5-4.2-10.9-5.4-16.6-3.1c-1.8,0.7-3.5,1.8-4.9,3.1
				c-1.4,1.4-2.5,3-3.3,4.8C-2333.7-1760.6-2333.7-1756.2-2332.1-1752.4z"/>
			<g id="Grupo_7_1_" transform="translate(3.537 126.423)">
				<path id="Trazado_11_1_" class="st1" d="M-2321.6-1828.5c-12,0-23.5,5-31.6,13.8h-17.4c16.5-27.1,51.8-35.7,78.9-19.3
					c7.9,4.8,14.5,11.4,19.3,19.3h-17.4C-2298.1-1823.6-2309.5-1828.6-2321.6-1828.5z"/>
			</g>
			<g id="Grupo_8_1_">
				<path id="Trazado_12_1_" class="st1" d="M-2346.6-1842.3l-24,25.2l9.9,9.4l14.1-14.8l19.1,20l19.1-20l19.1,20l24-25.2l-9.9-9.4
					l-14.1,14.8l-19.1-20l-19.1,20L-2346.6-1842.3z"/>
			</g>
		</g>
	</g>
	<g id="Grupo_26_1_" transform="translate(1324 684.328)">
		
			<rect id="Rectángulo_5-2_1_" x="-2325.8" y="-1751" transform="matrix(0.7071 -0.7071 0.7071 0.7071 558.0956 -2140.9663)" class="st1" width="40.8" height="13.7"/>
		<g id="Grupo_5-2_1_" transform="translate(0 0)">
			<rect id="Rectángulo_6-2_1_" x="-2324.6" y="-1800.1" class="st1" width="98.2" height="13.7"/>
			<g id="Grupo_4-2_1_">
				<path id="Trazado_9-2_1_" class="st1" d="M-2356.8-1793.2c0-12-5-23.5-13.8-31.7v-17.4c17.2,10.3,27.7,29,27.6,49.1
					c0.1,20.1-10.4,38.7-27.6,49.1v-17.4C-2361.8-1769.7-2356.8-1781.2-2356.8-1793.2z"/>
			</g>
		</g>
	</g>
	<g id="Grupo_35_1_" transform="translate(0 186)">
		<path id="Trazado_8-2_1_" class="st1" d="M-1818.7-1661.4c-2.9,7-8.6,12.5-15.7,15.2c-7.8,2.9-16.4,2.9-24.2,0
			c-3.6-1.4-6.8-3.4-9.5-6.1c-2.7-2.6-4.8-5.7-6.2-9.1c-3-7.2-3-15.3,0-22.5c1.4-3.4,3.6-6.5,6.2-9.1c2.7-2.6,6-4.7,9.5-6.1
			c7.8-2.9,16.4-2.9,24.2,0c14.7,6,21.8,22.8,15.8,37.5C-1818.7-1661.5-1818.7-1661.4-1818.7-1661.4L-1818.7-1661.4z
			 M-1832.5-1678.6c-1.6-3.6-4.5-6.4-8.2-7.9c-5.7-2.3-12.2-1.1-16.6,3.1c-1.4,1.3-2.6,3-3.3,4.8c-1.6,3.8-1.6,8.1,0,11.9
			c0.8,1.8,1.9,3.4,3.3,4.8c1.4,1.3,3.1,2.4,4.9,3.1c3.8,1.5,8,1.5,11.7,0c1.8-0.7,3.5-1.8,4.9-3.1c1.4-1.4,2.5-3,3.3-4.8
			C-1830.9-1670.5-1830.9-1674.8-1832.5-1678.6L-1832.5-1678.6z"/>
		<rect id="Rectángulo_4-2_1_" x="-1853.4" y="-1758.3" class="st1" width="13.7" height="40.8"/>
	</g>
	<g id="Grupo_6-2_1_" transform="translate(592.19 791.365) rotate(180)">
		
			<rect id="Rectángulo_5-3_1_" x="2415.5" y="1933.7" transform="matrix(0.7071 -0.7071 0.7071 0.7071 -658.7028 2290.8245)" class="st1" width="40.8" height="13.7"/>
		<g id="Grupo_5-3_1_">
			<rect id="Rectángulo_6-3_1_" x="2416.7" y="1884.6" class="st1" width="98.2" height="13.7"/>
			<g id="Grupo_4-3_1_">
				<path id="Trazado_9-3_1_" class="st1" d="M2384.4,1891.4c0-12-5-23.5-13.8-31.7v-17.4c27.1,16.5,35.7,51.8,19.3,78.9
					c-4.8,7.9-11.4,14.5-19.3,19.3v-17.4C2379.5,1914.9,2384.5,1903.5,2384.4,1891.4z"/>
			</g>
		</g>
	</g>
	<g id="Grupo_27_1_" transform="translate(1339.463 279.083)">
		<path id="Trazado_10-2_1_" class="st1" d="M-2332.1-1752.4c1.6,3.6,4.5,6.4,8.2,7.9c1.9,0.8,3.9,1.1,5.9,1.1c4,0,7.9-1.5,10.8-4.2
			c1.4-1.3,2.6-3,3.4-4.8c0.8-1.9,1.2-3.9,1.2-6c0-2.1-0.4-4.1-1.2-6c-0.8-1.8-1.9-3.4-3.4-4.8c-2.9-2.8-6.8-4.3-10.8-4.2
			c-2,0-4,0.4-5.9,1.1c-1.8,0.7-3.5,1.8-4.9,3.1c-1.4,1.4-2.5,3-3.3,4.8c-0.8,1.9-1.2,3.9-1.2,6
			C-2333.3-1756.3-2332.9-1754.3-2332.1-1752.4z"/>
		<g id="Grupo_7-2_1_" transform="translate(3.537 126.423)">
			<path id="Trazado_11-2_1_" class="st1" d="M-2321.6-1828.5c-12,0-23.5,5-31.6,13.8h-17.4c10.4-17.2,29-27.7,49.1-27.6
				c20.1-0.1,38.7,10.4,49.1,27.6h-17.4C-2298.1-1823.6-2309.5-1828.6-2321.6-1828.5z"/>
		</g>
		<g id="Grupo_8-2_1_">
			<path id="Trazado_12-2_1_" class="st1" d="M-2346.6-1842.3l-24,25.2l9.9,9.4l14.1-14.8l19.1,20l19.1-20l19.1,20l24-25.2l-9.9-9.4
				l-14.1,14.8l-19.1-20l-19.1,20L-2346.6-1842.3z"/>
		</g>
	</g>
	<g id="Grupo_25_1_" transform="translate(15.249)">
		<path id="Trazado_13_1_" class="st1" d="M-618.1-1661.4c-2.9,7-8.6,12.5-15.7,15.2c-7.8,2.9-16.4,2.9-24.2,0
			c-3.5-1.4-6.8-3.4-9.5-6.1c-2.7-2.6-4.8-5.7-6.2-9.1c-3-7.2-3-15.3,0-22.5c1.5-3.4,3.6-6.5,6.2-9.1c2.7-2.6,6-4.7,9.5-6.1
			c7.8-2.9,16.4-2.9,24.2,0c14.7,6,21.8,22.8,15.8,37.5C-618.1-1661.5-618.1-1661.5-618.1-1661.4L-618.1-1661.4z M-631.9-1678.6
			c-1.6-3.6-4.5-6.4-8.2-7.9c-3.8-1.5-8-1.5-11.7,0c-1.8,0.7-3.5,1.8-4.9,3.1c-1.4,1.3-2.6,3-3.3,4.8c-1.6,3.8-1.6,8.1,0,11.9
			c0.8,1.8,1.9,3.4,3.3,4.8c1.4,1.3,3.1,2.4,4.9,3.1c3.8,1.5,8,1.5,11.7,0c1.8-0.7,3.5-1.8,4.9-3.1c1.4-1.4,2.5-3,3.3-4.8
			C-630.2-1670.5-630.2-1674.8-631.9-1678.6z"/>
		<rect id="Rectángulo_7_1_" x="-652.8" y="-1758.3" class="st1" width="13.7" height="40.8"/>
		<g id="Grupo_13_1_" transform="translate(1602.612 487.904)">
			
				<rect id="Rectángulo_8_1_" x="-2312.1" y="-1829.9" transform="matrix(0.7071 -0.7071 0.7071 0.7071 617.8729 -2154.4536)" class="st1" width="40.8" height="13.7"/>
			<g id="Grupo_12_1_" transform="translate(0 19.278)">
				<rect id="Rectángulo_9_1_" x="-2370.7" y="-1800.1" class="st1" width="98.2" height="13.7"/>
				<g id="Grupo_11_1_" transform="translate(116.577)">
					<path id="Trazado_14_1_" class="st1" d="M-2356.8-1793.2c0,12,5,23.5,13.8,31.7v17.4c-27.1-16.5-35.7-51.8-19.3-78.9
						c4.8-7.9,11.4-14.5,19.3-19.3v17.4C-2351.9-1816.8-2356.9-1805.3-2356.8-1793.2z"/>
				</g>
			</g>
		</g>
		<g id="Grupo_16_1_" transform="translate(1645.084 856.573)">
			<path id="Trazado_15_1_" class="st1" d="M-2303.9-1778.2c-1.6-3.6-4.5-6.4-8.2-7.9c-5.7-2.3-12.2-1.1-16.6,3.1
				c-1.4,1.3-2.6,3-3.4,4.8c-1.6,3.8-1.6,8.1,0,11.9c0.8,1.8,1.9,3.4,3.4,4.8c1.4,1.3,3.1,2.4,4.9,3.1c3.8,1.5,8,1.5,11.7,0
				c1.8-0.7,3.5-1.8,4.9-3.1c1.4-1.4,2.5-3,3.3-4.8C-2302.3-1770.1-2302.3-1774.4-2303.9-1778.2L-2303.9-1778.2z"/>
			<g id="Grupo_14_1_" transform="translate(3.537)">
				<path id="Trazado_16_1_" class="st1" d="M-2321.6-1828.5c12,0,23.5-5,31.6-13.8h17.4c-16.5,27.1-51.8,35.7-78.9,19.3
					c-7.9-4.8-14.5-11.4-19.3-19.3h17.4C-2345.1-1833.5-2333.6-1828.5-2321.6-1828.5z"/>
			</g>
			<g id="Grupo_15_1_" transform="translate(0 114.188)">
				<path id="Trazado_17_1_" class="st1" d="M-2289.4-1802.5l24-25.2l-9.9-9.4l-14.1,14.8l-19.1-20l-19.1,20l-19.1-20l-24,25.2
					l9.9,9.4l14.1-14.8l19.1,20l19.1-20L-2289.4-1802.5z"/>
			</g>
		</g>
	</g>
</g>
<rect id="Rectángulo_51" x="-2370.1" y="-458.8" class="st2" width="1919.8" height="1080"/>
<g id="Grupo_203" transform="translate(0 -7.083)">
	<g id="Grupo_10" transform="translate(150 84.083)">
		<path id="Trazado_8" class="st3" d="M-2367.9,370.9c2.9-7,8.6-12.5,15.7-15.2c7.8-2.9,16.4-2.9,24.2,0c3.6,1.4,6.8,3.4,9.5,6.1
			c2.7,2.6,4.8,5.7,6.2,9.1c3,7.2,3,15.3,0,22.5c-1.4,3.4-3.6,6.5-6.2,9.1c-2.7,2.6-6,4.7-9.5,6.1c-7.8,2.9-16.4,2.9-24.2,0
			c-14.7-6-21.8-22.8-15.8-37.5C-2368,371-2367.9,371-2367.9,370.9L-2367.9,370.9z M-2354.1,388.1c1.6,3.6,4.5,6.4,8.2,7.9
			c5.7,2.3,12.2,1.1,16.6-3.1c1.4-1.4,2.6-3,3.4-4.8c1.6-3.8,1.6-8.1,0-12c-0.8-1.8-1.9-3.4-3.4-4.8c-1.4-1.4-3.1-2.4-4.9-3.1
			c-3.8-1.5-8-1.5-11.7,0c-1.8,0.7-3.5,1.8-4.9,3.1c-1.4,1.4-2.5,3-3.3,4.8C-2355.8,380-2355.8,384.3-2354.1,388.1L-2354.1,388.1z"
			/>
		<rect id="Rectángulo_4" x="-2346.9" y="426.9" class="st3" width="13.7" height="40.9"/>
		<g id="Grupo_6" transform="translate(7.948 405.244)">
			
				<rect id="Rectángulo_5" x="-2325.2" y="-367.4" transform="matrix(0.7071 -0.7071 0.7071 0.7071 -420.0893 -1735.3639)" class="st3" width="40.8" height="13.7"/>
			<g id="Grupo_5">
				<rect id="Rectángulo_6" x="-2324.1" y="-416.5" class="st3" width="98.2" height="13.7"/>
				<g id="Grupo_4">
					<path id="Trazado_9" class="st3" d="M-2356.3-409.7c0-12-5-23.5-13.8-31.7v-17.4c27.1,16.5,35.7,51.8,19.3,78.9
						c-4.8,7.9-11.4,14.5-19.3,19.3V-378C-2361.3-386.2-2356.3-397.7-2356.3-409.7z"/>
				</g>
			</g>
		</g>
		<g id="Grupo_9" transform="translate(4.411)">
			<path id="Trazado_10" class="st3" d="M-2331.6-368.8c1.6,3.6,4.5,6.4,8.2,7.9c5.7,2.3,12.2,1.1,16.6-3.1c1.4-1.4,2.6-3,3.4-4.8
				c1.6-3.8,1.6-8.1,0-12c-0.8-1.8-1.9-3.4-3.4-4.8c-4.5-4.2-10.9-5.4-16.6-3.1c-1.8,0.7-3.5,1.8-4.9,3.1c-1.4,1.4-2.5,3-3.3,4.8
				C-2333.2-377-2333.2-372.7-2331.6-368.8z"/>
			<g id="Grupo_7" transform="translate(3.537 126.423)">
				<path id="Trazado_11" class="st3" d="M-2321-445c-12,0-23.5,5-31.6,13.8h-17.4c16.5-27.1,51.8-35.7,78.9-19.3
					c7.9,4.8,14.5,11.4,19.3,19.3h-17.4C-2297.5-440-2309-445-2321-445z"/>
			</g>
			<g id="Grupo_8">
				<path id="Trazado_12" class="st3" d="M-2346.1-458.8l-24,25.2l9.9,9.4l14.1-14.8l19.1,20l19.1-20l19.1,20l24-25.2l-9.9-9.4
					l-14.1,14.8l-19.1-20l-19.1,20L-2346.1-458.8z"/>
			</g>
		</g>
	</g>
	<g id="Grupo_26" transform="translate(1324 684.328)">
		
			<rect id="Rectángulo_5-2" x="-2325.2" y="-367.4" transform="matrix(0.7071 -0.7071 0.7071 0.7071 -420.0893 -1735.3639)" class="st3" width="40.8" height="13.7"/>
		<g id="Grupo_5-2" transform="translate(0 0)">
			<rect id="Rectángulo_6-2" x="-2324.1" y="-416.5" class="st3" width="98.2" height="13.7"/>
			<g id="Grupo_4-2">
				<path id="Trazado_9-2" class="st3" d="M-2356.3-409.7c0-12-5-23.5-13.8-31.6v-17.4c17.2,10.4,27.7,29,27.6,49.1
					c0.1,20.1-10.4,38.7-27.6,49.1V-378C-2361.3-386.2-2356.3-397.7-2356.3-409.7z"/>
			</g>
		</g>
	</g>
	<g id="Grupo_35" transform="translate(0 186)">
		<path id="Trazado_8-2" class="st3" d="M-1818.2-277.8c-2.9,7-8.6,12.5-15.7,15.2c-7.8,2.9-16.4,2.9-24.2,0
			c-3.6-1.4-6.8-3.4-9.5-6.1c-2.7-2.6-4.8-5.7-6.2-9.1c-3-7.2-3-15.3,0-22.5c1.4-3.4,3.6-6.5,6.2-9.1c2.7-2.6,6-4.7,9.5-6.1
			c7.8-2.9,16.4-2.9,24.2,0c14.7,6,21.8,22.8,15.8,37.5C-1818.2-278-1818.2-277.9-1818.2-277.8L-1818.2-277.8z M-1832-295
			c-1.6-3.6-4.5-6.4-8.2-7.9c-5.7-2.3-12.2-1.1-16.6,3.1c-1.4,1.4-2.6,3-3.3,4.8c-1.6,3.8-1.6,8.1,0,12c0.8,1.8,1.9,3.4,3.3,4.8
			c1.4,1.4,3.1,2.4,4.9,3.1c3.8,1.5,8,1.5,11.7,0c1.8-0.7,3.5-1.8,4.9-3.1c1.4-1.4,2.5-3,3.3-4.8
			C-1830.3-286.9-1830.3-291.2-1832-295L-1832-295z"/>
		<rect id="Rectángulo_4-2" x="-1852.9" y="-374.7" class="st3" width="13.7" height="40.9"/>
	</g>
	<g id="Grupo_6-2" transform="translate(592.19 791.365) rotate(180)">
		
			<rect id="Rectángulo_5-3" x="2415" y="550.1" transform="matrix(0.7071 -0.7071 0.7071 0.7071 319.4797 1885.2175)" class="st3" width="40.8" height="13.7"/>
		<g id="Grupo_5-3">
			<rect id="Rectángulo_6-3" x="2416.1" y="501" class="st3" width="98.2" height="13.7"/>
			<g id="Grupo_4-3">
				<path id="Trazado_9-3" class="st3" d="M2383.9,507.9c0-12-5-23.5-13.8-31.7v-17.4c27.1,16.5,35.7,51.8,19.3,78.9
					c-4.8,7.9-11.4,14.5-19.3,19.3v-17.4C2379,531.4,2384,519.9,2383.9,507.9z"/>
			</g>
		</g>
	</g>
	<g id="Grupo_27" transform="translate(1339.463 279.083)">
		<path id="Trazado_10-2" class="st3" d="M-2331.6-368.8c1.6,3.6,4.5,6.4,8.2,7.9c1.9,0.8,3.9,1.1,5.9,1.1c4,0,7.9-1.5,10.8-4.2
			c1.4-1.4,2.6-3,3.4-4.8c0.8-1.9,1.2-3.9,1.2-6c0-2.1-0.4-4.1-1.2-6c-0.8-1.8-1.9-3.4-3.4-4.8c-2.9-2.8-6.8-4.3-10.8-4.2
			c-2,0-4,0.4-5.9,1.1c-1.8,0.7-3.5,1.8-4.9,3.1c-1.4,1.4-2.5,3-3.3,4.8c-0.8,1.9-1.2,3.9-1.2,6
			C-2332.8-372.8-2332.4-370.7-2331.6-368.8z"/>
		<g id="Grupo_7-2" transform="translate(3.537 126.423)">
			<path id="Trazado_11-2" class="st3" d="M-2321-445c-12,0-23.5,5-31.6,13.8h-17.4c10.4-17.2,29-27.7,49.1-27.6
				c20.1-0.1,38.7,10.4,49.1,27.6h-17.4C-2297.5-440-2309-445-2321-445z"/>
		</g>
		<g id="Grupo_8-2">
			<path id="Trazado_12-2" class="st3" d="M-2346.1-458.8l-24,25.2l9.9,9.4l14.1-14.8l19.1,20l19.1-20l19.1,20l24-25.2l-9.9-9.4
				l-14.1,14.8l-19.1-20l-19.1,20L-2346.1-458.8z"/>
		</g>
	</g>
	<g id="Grupo_25" transform="translate(15.249)">
		<path id="Trazado_13" class="st3" d="M-617.6-277.8c-2.9,7-8.6,12.5-15.7,15.2c-7.8,2.9-16.4,2.9-24.2,0c-3.5-1.4-6.8-3.4-9.5-6.1
			c-2.7-2.6-4.8-5.7-6.2-9.1c-3-7.2-3-15.3,0-22.5c1.5-3.4,3.6-6.5,6.2-9.1c2.7-2.6,6-4.7,9.5-6.1c7.8-2.9,16.4-2.9,24.2,0
			c14.7,6,21.8,22.8,15.8,37.5C-617.5-278-617.6-277.9-617.6-277.8L-617.6-277.8z M-631.3-295c-1.6-3.6-4.5-6.4-8.2-7.9
			c-3.8-1.5-8-1.5-11.7,0c-1.8,0.7-3.5,1.8-4.9,3.1c-1.4,1.4-2.6,3-3.3,4.8c-1.6,3.8-1.6,8.1,0,12c0.8,1.8,1.9,3.4,3.3,4.8
			c1.4,1.4,3.1,2.4,4.9,3.1c3.8,1.5,8,1.5,11.7,0c1.8-0.7,3.5-1.8,4.9-3.1c1.4-1.4,2.5-3,3.3-4.8
			C-629.7-286.9-629.7-291.2-631.3-295z"/>
		<rect id="Rectángulo_7" x="-652.3" y="-374.7" class="st3" width="13.7" height="40.9"/>
		<g id="Grupo_13" transform="translate(1602.612 487.904)">
			
				<rect id="Rectángulo_8" x="-2311.6" y="-446.3" transform="matrix(0.7071 -0.7071 0.7071 0.7071 -360.3047 -1748.8481)" class="st3" width="40.8" height="13.7"/>
			<g id="Grupo_12" transform="translate(0 19.278)">
				<rect id="Rectángulo_9" x="-2370.1" y="-416.5" class="st3" width="98.2" height="13.7"/>
				<g id="Grupo_11" transform="translate(116.577)">
					<path id="Trazado_14" class="st3" d="M-2356.3-409.7c0,12,5,23.5,13.8,31.6v17.4c-27.1-16.5-35.7-51.8-19.3-78.9
						c4.8-7.9,11.4-14.5,19.3-19.3v17.4C-2351.3-433.2-2356.4-421.7-2356.3-409.7z"/>
				</g>
			</g>
		</g>
		<g id="Grupo_16" transform="translate(1645.084 856.573)">
			<path id="Trazado_15" class="st3" d="M-2303.4-394.6c-1.6-3.6-4.5-6.4-8.2-7.9c-5.7-2.3-12.2-1.1-16.6,3.1
				c-1.4,1.4-2.6,3-3.4,4.8c-1.6,3.8-1.6,8.1,0,12c0.8,1.8,1.9,3.4,3.4,4.8c1.4,1.4,3.1,2.4,4.9,3.1c3.8,1.5,8,1.5,11.7,0
				c1.8-0.7,3.5-1.8,4.9-3.1c1.4-1.4,2.5-3,3.3-4.8C-2301.8-386.5-2301.8-390.8-2303.4-394.6L-2303.4-394.6z"/>
			<g id="Grupo_14" transform="translate(3.537)">
				<path id="Trazado_16" class="st3" d="M-2321-445c12,0,23.5-5,31.6-13.8h17.4c-16.5,27.1-51.8,35.7-78.9,19.3
					c-7.9-4.8-14.5-11.4-19.3-19.3h17.4C-2344.5-449.9-2333.1-444.9-2321-445z"/>
			</g>
			<g id="Grupo_15" transform="translate(0 114.188)">
				<path id="Trazado_17" class="st3" d="M-2288.9-418.9l24-25.2l-9.9-9.4l-14.1,14.8l-19.1-20l-19.1,20l-19.1-20l-24,25.2l9.9,9.4
					l14.1-14.8l19.1,20l19.1-20L-2288.9-418.9z"/>
			</g>
		</g>
	</g>
</g>
<rect id="Rectángulo_32_1_" x="-2371.1" y="934.2" class="st4" width="1919.8" height="1080"/>
<g id="Grupo_199_1_" transform="translate(0 -7.083)">
	<g id="Grupo_10_3_" transform="translate(150 84.083)">
		<path id="Trazado_8_3_" class="st5" d="M-2368.9,1763.9c2.9-7,8.6-12.5,15.7-15.2c7.8-2.9,16.4-2.9,24.2,0
			c3.6,1.4,6.8,3.4,9.5,6.1c2.7,2.6,4.8,5.7,6.2,9.1c3,7.2,3,15.3,0,22.5c-1.4,3.4-3.6,6.5-6.2,9.1c-2.7,2.6-6,4.7-9.5,6.1
			c-7.8,2.9-16.4,2.9-24.2,0c-14.7-6-21.8-22.8-15.8-37.5C-2369,1764-2368.9,1764-2368.9,1763.9L-2368.9,1763.9z M-2355.1,1781.1
			c1.6,3.6,4.5,6.4,8.2,7.9c5.7,2.3,12.2,1.1,16.6-3.1c1.4-1.3,2.6-3,3.4-4.8c1.6-3.8,1.6-8.1,0-11.9c-0.8-1.8-1.9-3.4-3.4-4.8
			c-1.4-1.3-3.1-2.4-4.9-3.1c-3.8-1.5-8-1.5-11.7,0c-1.8,0.7-3.5,1.8-4.9,3.1c-1.4,1.4-2.5,3-3.3,4.8
			C-2356.8,1773-2356.8,1777.3-2355.1,1781.1L-2355.1,1781.1z"/>
		<rect id="Rectángulo_4_3_" x="-2347.9" y="1819.9" class="st5" width="13.7" height="40.8"/>
		<g id="Grupo_6_3_" transform="translate(7.948 405.244)">
			
				<rect id="Rectángulo_5_3_" x="-2326.2" y="1025.6" transform="matrix(0.7071 -0.7071 0.7071 0.7071 -1405.3779 -1328.0802)" class="st5" width="40.8" height="13.7"/>
			<g id="Grupo_5_3_">
				<rect id="Rectángulo_6_3_" x="-2325.1" y="976.5" class="st5" width="98.2" height="13.7"/>
				<g id="Grupo_4_3_">
					<path id="Trazado_9_3_" class="st5" d="M-2357.3,983.3c0-12-5-23.5-13.8-31.7v-17.4c27.1,16.5,35.7,51.8,19.3,78.9
						c-4.8,7.9-11.4,14.5-19.3,19.3V1015C-2362.3,1006.8-2357.3,995.3-2357.3,983.3z"/>
				</g>
			</g>
		</g>
		<g id="Grupo_9_3_" transform="translate(4.411)">
			<path id="Trazado_10_3_" class="st5" d="M-2332.6,1024.2c1.6,3.6,4.5,6.4,8.2,7.9c5.7,2.3,12.2,1.1,16.6-3.1
				c1.4-1.3,2.6-3,3.4-4.8c1.6-3.8,1.6-8.1,0-12c-0.8-1.8-1.9-3.4-3.4-4.8c-4.5-4.2-10.9-5.4-16.6-3.1c-1.8,0.7-3.5,1.8-4.9,3.1
				c-1.4,1.4-2.5,3-3.3,4.8C-2334.2,1016-2334.2,1020.3-2332.6,1024.2z"/>
			<g id="Grupo_7_3_" transform="translate(3.537 126.423)">
				<path id="Trazado_11_3_" class="st5" d="M-2322,948c-12,0-23.5,5-31.6,13.8h-17.4c16.5-27.1,51.8-35.7,78.9-19.3
					c7.9,4.8,14.5,11.4,19.3,19.3h-17.4C-2298.5,953-2310,948-2322,948z"/>
			</g>
			<g id="Grupo_8_3_">
				<path id="Trazado_12_3_" class="st5" d="M-2347.1,934.2l-24,25.2l9.9,9.4l14.1-14.8l19.1,20l19.1-20l19.1,20l24-25.2l-9.9-9.4
					l-14.1,14.8l-19.1-20l-19.1,20L-2347.1,934.2z"/>
			</g>
		</g>
	</g>
	<g id="Grupo_26_3_" transform="translate(1324 684.328)">
		
			<rect id="Rectángulo_5-2_3_" x="-2326.2" y="1025.6" transform="matrix(0.7071 -0.7071 0.7071 0.7071 -1405.3779 -1328.0802)" class="st5" width="40.8" height="13.7"/>
		<g id="Grupo_5-2_3_" transform="translate(0 0)">
			<rect id="Rectángulo_6-2_3_" x="-2325.1" y="976.5" class="st5" width="98.2" height="13.7"/>
			<g id="Grupo_4-2_3_">
				<path id="Trazado_9-2_3_" class="st5" d="M-2357.3,983.3c0-12-5-23.5-13.8-31.7v-17.4c17.2,10.3,27.7,29,27.6,49.1
					c0.1,20.1-10.4,38.7-27.6,49.1V1015C-2362.3,1006.8-2357.3,995.3-2357.3,983.3z"/>
			</g>
		</g>
	</g>
	<g id="Grupo_35_3_" transform="translate(0 186)">
		<path id="Trazado_8-2_3_" class="st5" d="M-1819.2,1115.2c-2.9,7-8.6,12.5-15.7,15.2c-7.8,2.9-16.4,2.9-24.2,0
			c-3.6-1.4-6.8-3.4-9.5-6.1c-2.7-2.6-4.8-5.7-6.2-9.1c-3-7.2-3-15.3,0-22.5c1.4-3.4,3.6-6.5,6.2-9.1c2.7-2.6,6-4.7,9.5-6.1
			c7.8-2.9,16.4-2.9,24.2,0c14.7,6,21.8,22.8,15.8,37.5C-1819.2,1115-1819.2,1115.1-1819.2,1115.2L-1819.2,1115.2z M-1833,1098
			c-1.6-3.6-4.5-6.4-8.2-7.9c-5.7-2.3-12.2-1.1-16.6,3.1c-1.4,1.3-2.6,3-3.3,4.8c-1.6,3.8-1.6,8.1,0,11.9c0.8,1.8,1.9,3.4,3.3,4.8
			c1.4,1.3,3.1,2.4,4.9,3.1c3.8,1.5,8,1.5,11.7,0c1.8-0.7,3.5-1.8,4.9-3.1c1.4-1.4,2.5-3,3.3-4.8
			C-1831.3,1106.1-1831.3,1101.8-1833,1098L-1833,1098z"/>
		<rect id="Rectángulo_4-2_3_" x="-1853.9" y="1018.3" class="st5" width="13.7" height="40.8"/>
	</g>
	<g id="Grupo_6-2_3_" transform="translate(592.19 791.365) rotate(180)">
		
			<rect id="Rectángulo_5-3_3_" x="2416" y="-842.9" transform="matrix(0.7071 -0.7071 0.7071 0.7071 1304.7734 1477.9325)" class="st5" width="40.8" height="13.7"/>
		<g id="Grupo_5-3_3_">
			<rect id="Rectángulo_6-3_3_" x="2417.1" y="-892" class="st5" width="98.2" height="13.7"/>
			<g id="Grupo_4-3_3_">
				<path id="Trazado_9-3_3_" class="st5" d="M2384.9-885.1c0-12-5-23.5-13.8-31.7v-17.4c27.1,16.5,35.7,51.8,19.3,78.9
					c-4.8,7.9-11.4,14.5-19.3,19.3v-17.4C2380-861.6,2385-873.1,2384.9-885.1z"/>
			</g>
		</g>
	</g>
	<g id="Grupo_27_3_" transform="translate(1339.463 279.083)">
		<path id="Trazado_10-2_3_" class="st5" d="M-2332.6,1024.2c1.6,3.6,4.5,6.4,8.2,7.9c1.9,0.8,3.9,1.1,5.9,1.1c4,0,7.9-1.5,10.8-4.2
			c1.4-1.3,2.6-3,3.4-4.8c0.8-1.9,1.2-3.9,1.2-6c0-2.1-0.4-4.1-1.2-6c-0.8-1.8-1.9-3.4-3.4-4.8c-2.9-2.8-6.8-4.3-10.8-4.2
			c-2,0-4,0.4-5.9,1.1c-1.8,0.7-3.5,1.8-4.9,3.1c-1.4,1.4-2.5,3-3.3,4.8c-0.8,1.9-1.2,3.9-1.2,6
			C-2333.8,1020.2-2333.4,1022.3-2332.6,1024.2z"/>
		<g id="Grupo_7-2_3_" transform="translate(3.537 126.423)">
			<path id="Trazado_11-2_3_" class="st5" d="M-2322,948c-12,0-23.5,5-31.6,13.8h-17.4c10.4-17.2,29-27.7,49.1-27.6
				c20.1-0.1,38.7,10.4,49.1,27.6h-17.4C-2298.5,953-2310,948-2322,948z"/>
		</g>
		<g id="Grupo_8-2_3_">
			<path id="Trazado_12-2_3_" class="st5" d="M-2347.1,934.2l-24,25.2l9.9,9.4l14.1-14.8l19.1,20l19.1-20l19.1,20l24-25.2l-9.9-9.4
				l-14.1,14.8l-19.1-20l-19.1,20L-2347.1,934.2z"/>
		</g>
	</g>
	<g id="Grupo_25_3_" transform="translate(15.249)">
		<path id="Trazado_13_3_" class="st5" d="M-618.6,1115.2c-2.9,7-8.6,12.5-15.7,15.2c-7.8,2.9-16.4,2.9-24.2,0
			c-3.5-1.4-6.8-3.4-9.5-6.1c-2.7-2.6-4.8-5.7-6.2-9.1c-3-7.2-3-15.3,0-22.5c1.5-3.4,3.6-6.5,6.2-9.1c2.7-2.6,6-4.7,9.5-6.1
			c7.8-2.9,16.4-2.9,24.2,0c14.7,6,21.8,22.8,15.8,37.5C-618.5,1115-618.6,1115.1-618.6,1115.2L-618.6,1115.2z M-632.3,1098
			c-1.6-3.6-4.5-6.4-8.2-7.9c-3.8-1.5-8-1.5-11.7,0c-1.8,0.7-3.5,1.8-4.9,3.1c-1.4,1.3-2.6,3-3.3,4.8c-1.6,3.8-1.6,8.1,0,11.9
			c0.8,1.8,1.9,3.4,3.3,4.8c1.4,1.3,3.1,2.4,4.9,3.1c3.8,1.5,8,1.5,11.7,0c1.8-0.7,3.5-1.8,4.9-3.1c1.4-1.4,2.5-3,3.3-4.8
			C-630.7,1106.1-630.7,1101.8-632.3,1098z"/>
		<rect id="Rectángulo_7_3_" x="-653.3" y="1018.3" class="st5" width="13.7" height="40.8"/>
		<g id="Grupo_13_3_" transform="translate(1602.612 487.904)">
			
				<rect id="Rectángulo_8_3_" x="-2312.6" y="946.7" transform="matrix(0.7071 -0.7071 0.7071 0.7071 -1345.5935 -1341.5645)" class="st5" width="40.8" height="13.7"/>
			<g id="Grupo_12_3_" transform="translate(0 19.278)">
				<rect id="Rectángulo_9_3_" x="-2371.1" y="976.5" class="st5" width="98.2" height="13.7"/>
				<g id="Grupo_11_3_" transform="translate(116.577)">
					<path id="Trazado_14_3_" class="st5" d="M-2357.3,983.3c0,12,5,23.5,13.8,31.7v17.4c-27.1-16.5-35.7-51.8-19.3-78.9
						c4.8-7.9,11.4-14.5,19.3-19.3v17.4C-2352.3,959.8-2357.4,971.3-2357.3,983.3z"/>
				</g>
			</g>
		</g>
		<g id="Grupo_16_3_" transform="translate(1645.084 856.573)">
			<path id="Trazado_15_3_" class="st5" d="M-2304.4,998.4c-1.6-3.6-4.5-6.4-8.2-7.9c-5.7-2.3-12.2-1.1-16.6,3.1
				c-1.4,1.3-2.6,3-3.4,4.8c-1.6,3.8-1.6,8.1,0,11.9c0.8,1.8,1.9,3.4,3.4,4.8c1.4,1.3,3.1,2.4,4.9,3.1c3.8,1.5,8,1.5,11.7,0
				c1.8-0.7,3.5-1.8,4.9-3.1c1.4-1.4,2.5-3,3.3-4.8C-2302.8,1006.5-2302.8,1002.2-2304.4,998.4L-2304.4,998.4z"/>
			<g id="Grupo_14_3_" transform="translate(3.537)">
				<path id="Trazado_16_3_" class="st5" d="M-2322,948c12,0,23.5-5,31.6-13.8h17.4c-16.5,27.1-51.8,35.7-78.9,19.3
					c-7.9-4.8-14.5-11.4-19.3-19.3h17.4C-2345.5,943.1-2334.1,948.1-2322,948z"/>
			</g>
			<g id="Grupo_15_3_" transform="translate(0 114.188)">
				<path id="Trazado_17_3_" class="st5" d="M-2289.9,974.1l24-25.2l-9.9-9.4l-14.1,14.8l-19.1-20l-19.1,20l-19.1-20l-24,25.2
					l9.9,9.4l14.1-14.8l19.1,20l19.1-20L-2289.9,974.1z"/>
			</g>
		</g>
	</g>
</g>
<rect id="Rectángulo_3" x="-2370.4" y="2303.4" class="st6" width="1920.4" height="1080"/>
<g id="Grupo_196">
	<g id="Grupo_10_2_" transform="translate(150 84.083)">
		<path id="Trazado_8_2_" class="st7" d="M-2368.2,3133c2.9-7,8.6-12.5,15.7-15.2c7.8-2.9,16.4-2.9,24.2,0c3.6,1.4,6.8,3.4,9.5,6.1
			c2.7,2.6,4.8,5.7,6.2,9.1c3,7.2,3,15.3,0,22.5c-1.4,3.4-3.6,6.5-6.2,9.1c-2.7,2.6-6,4.7-9.5,6.1c-7.8,2.9-16.4,2.9-24.2,0
			c-14.7-6-21.8-22.8-15.8-37.5C-2368.2,3133.2-2368.2,3133.1-2368.2,3133L-2368.2,3133z M-2354.4,3150.3c1.6,3.6,4.5,6.4,8.2,7.9
			c5.7,2.3,12.2,1.1,16.6-3.1c1.4-1.4,2.6-3,3.4-4.8c1.6-3.8,1.6-8.1,0-11.9c-0.8-1.8-1.9-3.4-3.4-4.8c-1.4-1.4-3.1-2.4-4.9-3.1
			c-3.8-1.5-8-1.5-11.7,0c-1.8,0.7-3.5,1.8-4.9,3.1c-1.4,1.4-2.5,3-3.3,4.8C-2356.1,3142.1-2356.1,3146.5-2354.4,3150.3
			L-2354.4,3150.3z"/>
		<rect id="Rectángulo_4_2_" x="-2347.2" y="3189.1" class="st7" width="13.7" height="40.9"/>
		<g id="Grupo_6_2_" transform="translate(7.948 405.244)">
			
				<rect id="Rectángulo_5_2_" x="-2325.5" y="2394.7" transform="matrix(0.7071 -0.7071 0.7071 0.7071 -2373.2998 -926.571)" class="st7" width="40.8" height="13.7"/>
			<g id="Grupo_5_2_">
				<rect id="Rectángulo_6_2_" x="-2324.4" y="2345.6" class="st7" width="98.2" height="13.7"/>
				<g id="Grupo_4_2_">
					<path id="Trazado_9_2_" class="st7" d="M-2356.6,2352.5c0-12-5-23.5-13.8-31.7v-17.4c27.1,16.5,35.7,51.8,19.3,78.9
						c-4.8,7.9-11.4,14.5-19.3,19.3v-17.4C-2361.6,2376-2356.6,2364.5-2356.6,2352.5z"/>
				</g>
			</g>
		</g>
		<g id="Grupo_9_2_" transform="translate(4.411)">
			<path id="Trazado_10_2_" class="st7" d="M-2331.9,2393.3c1.6,3.6,4.5,6.4,8.2,7.9c5.7,2.3,12.2,1.1,16.6-3.1
				c1.4-1.4,2.6-3,3.4-4.8c1.6-3.8,1.6-8.1,0-12c-0.8-1.8-1.9-3.4-3.4-4.8c-4.5-4.2-10.9-5.4-16.6-3.1c-1.8,0.7-3.5,1.8-4.9,3.1
				c-1.4,1.4-2.5,3-3.3,4.8C-2333.5,2385.2-2333.5,2389.5-2331.9,2393.3z"/>
			<g id="Grupo_7_2_" transform="translate(3.537 126.423)">
				<path id="Trazado_11_2_" class="st7" d="M-2321.3,2317.2c-12,0-23.5,5-31.6,13.8h-17.4c16.5-27.1,51.8-35.7,78.9-19.3
					c7.9,4.8,14.5,11.4,19.3,19.3h-17.4C-2297.8,2322.2-2309.3,2317.2-2321.3,2317.2z"/>
			</g>
			<g id="Grupo_8_2_">
				<path id="Trazado_12_2_" class="st7" d="M-2346.4,2303.4l-24,25.2l9.9,9.4l14.1-14.8l19.1,20l19.1-20l19.1,20l24-25.2l-9.9-9.4
					l-14.1,14.8l-19.1-20l-19.1,20L-2346.4,2303.4z"/>
			</g>
		</g>
	</g>
	<g id="Grupo_26_2_" transform="translate(1324 684.328)">
		
			<rect id="Rectángulo_5-2_2_" x="-2325.5" y="2394.7" transform="matrix(0.7071 -0.7071 0.7071 0.7071 -2373.2998 -926.571)" class="st7" width="40.8" height="13.7"/>
		<g id="Grupo_5-2_2_" transform="translate(0 0)">
			<rect id="Rectángulo_6-2_2_" x="-2324.4" y="2345.6" class="st7" width="98.2" height="13.7"/>
			<g id="Grupo_4-2_2_">
				<path id="Trazado_9-2_2_" class="st7" d="M-2356.6,2352.5c0-12-5-23.5-13.8-31.6v-17.4c17.2,10.4,27.7,29,27.6,49.1
					c0.1,20.1-10.4,38.7-27.6,49.1v-17.4C-2361.6,2376-2356.6,2364.5-2356.6,2352.5z"/>
			</g>
		</g>
	</g>
	<g id="Grupo_35_2_" transform="translate(0 186)">
		<path id="Trazado_8-2_2_" class="st7" d="M-1818.5,2484.4c-2.9,7-8.6,12.5-15.7,15.2c-7.8,2.9-16.4,2.9-24.2,0
			c-3.6-1.4-6.8-3.4-9.5-6.1c-2.7-2.6-4.8-5.7-6.2-9.1c-3-7.2-3-15.3,0-22.5c1.4-3.4,3.6-6.5,6.2-9.1c2.7-2.6,6-4.7,9.5-6.1
			c7.8-2.9,16.4-2.9,24.2,0c14.7,6,21.8,22.8,15.8,37.5C-1818.4,2484.2-1818.5,2484.3-1818.5,2484.4L-1818.5,2484.4z
			 M-1832.2,2467.1c-1.6-3.6-4.5-6.4-8.2-7.9c-5.7-2.3-12.2-1.1-16.6,3.1c-1.4,1.4-2.6,3-3.3,4.8c-1.6,3.8-1.6,8.1,0,11.9
			c0.8,1.8,1.9,3.4,3.3,4.8c1.4,1.4,3.1,2.4,4.9,3.1c3.8,1.5,8,1.5,11.7,0c1.8-0.7,3.5-1.8,4.9-3.1c1.4-1.4,2.5-3,3.3-4.8
			C-1830.6,2475.3-1830.6,2470.9-1832.2,2467.1L-1832.2,2467.1z"/>
		<rect id="Rectángulo_4-2_2_" x="-1853.2" y="2387.5" class="st7" width="13.7" height="40.9"/>
	</g>
	<g id="Grupo_6-2_2_" transform="translate(592.19 791.365) rotate(180)">
		
			<rect id="Rectángulo_5-3_2_" x="2415.3" y="-2212" transform="matrix(0.7071 -0.7071 0.7071 0.7071 2272.7102 1076.4176)" class="st7" width="40.8" height="13.7"/>
		<g id="Grupo_5-3_2_">
			<rect id="Rectángulo_6-3_2_" x="2416.4" y="-2261.1" class="st7" width="98.2" height="13.7"/>
			<g id="Grupo_4-3_2_">
				<path id="Trazado_9-3_2_" class="st7" d="M2384.2-2254.3c0-12-5-23.5-13.8-31.7v-17.4c27.1,16.5,35.7,51.8,19.3,78.9
					c-4.8,7.9-11.4,14.5-19.3,19.3v-17.4C2379.2-2230.8,2384.2-2242.3,2384.2-2254.3z"/>
			</g>
		</g>
	</g>
	<g id="Grupo_27_2_" transform="translate(1339.463 279.083)">
		<path id="Trazado_10-2_2_" class="st7" d="M-2331.9,2393.3c1.6,3.6,4.5,6.4,8.2,7.9c1.9,0.8,3.9,1.1,5.9,1.1c4,0,7.9-1.5,10.8-4.2
			c1.4-1.4,2.6-3,3.4-4.8c0.8-1.9,1.2-3.9,1.2-6c0-2.1-0.4-4.1-1.2-6c-0.8-1.8-1.9-3.4-3.4-4.8c-2.9-2.8-6.8-4.3-10.8-4.2
			c-2,0-4,0.4-5.9,1.1c-1.8,0.7-3.5,1.8-4.9,3.1c-1.4,1.4-2.5,3-3.3,4.8c-0.8,1.9-1.2,3.9-1.2,6
			C-2333.1,2389.4-2332.7,2391.4-2331.9,2393.3z"/>
		<g id="Grupo_7-2_2_" transform="translate(3.537 126.423)">
			<path id="Trazado_11-2_2_" class="st7" d="M-2321.3,2317.2c-12,0-23.5,5-31.6,13.8h-17.4c10.4-17.2,29-27.7,49.1-27.6
				c20.1-0.1,38.7,10.4,49.1,27.6h-17.4C-2297.8,2322.2-2309.3,2317.2-2321.3,2317.2z"/>
		</g>
		<g id="Grupo_8-2_2_">
			<path id="Trazado_12-2_2_" class="st7" d="M-2346.4,2303.4l-24,25.2l9.9,9.4l14.1-14.8l19.1,20l19.1-20l19.1,20l24-25.2l-9.9-9.4
				l-14.1,14.8l-19.1-20l-19.1,20L-2346.4,2303.4z"/>
		</g>
	</g>
	<g id="Grupo_25_2_" transform="translate(15.249)">
		<path id="Trazado_13_2_" class="st7" d="M-617.9,2484.4c-2.9,7-8.6,12.5-15.7,15.2c-7.8,2.9-16.4,2.9-24.2,0
			c-3.5-1.4-6.8-3.4-9.5-6.1c-2.7-2.6-4.8-5.7-6.2-9.1c-3-7.2-3-15.3,0-22.5c1.5-3.4,3.6-6.5,6.2-9.1c2.7-2.6,6-4.7,9.5-6.1
			c7.8-2.9,16.4-2.9,24.2,0c14.7,6,21.8,22.8,15.8,37.5C-617.8,2484.2-617.8,2484.3-617.9,2484.4L-617.9,2484.4z M-631.6,2467.1
			c-1.6-3.6-4.5-6.4-8.2-7.9c-3.8-1.5-8-1.5-11.7,0c-1.8,0.7-3.5,1.8-4.9,3.1c-1.4,1.4-2.6,3-3.3,4.8c-1.6,3.8-1.6,8.1,0,11.9
			c0.8,1.8,1.9,3.4,3.3,4.8c1.4,1.4,3.1,2.4,4.9,3.1c3.8,1.5,8,1.5,11.7,0c1.8-0.7,3.5-1.8,4.9-3.1c1.4-1.4,2.5-3,3.3-4.8
			C-630,2475.3-630,2470.9-631.6,2467.1z"/>
		<rect id="Rectángulo_7_2_" x="-652.6" y="2387.5" class="st7" width="13.7" height="40.9"/>
		<g id="Grupo_13_2_" transform="translate(1602.612 487.904)">
			
				<rect id="Rectángulo_8_2_" x="-2311.9" y="2315.8" transform="matrix(0.7071 -0.7071 0.7071 0.7071 -2313.5181 -940.0482)" class="st7" width="40.8" height="13.7"/>
			<g id="Grupo_12_2_" transform="translate(0 19.278)">
				<rect id="Rectángulo_9_2_" x="-2370.4" y="2345.6" class="st7" width="98.2" height="13.7"/>
				<g id="Grupo_11_2_" transform="translate(116.577)">
					<path id="Trazado_14_2_" class="st7" d="M-2356.6,2352.5c0,12,5,23.5,13.8,31.6v17.4c-27.1-16.5-35.7-51.8-19.3-78.9
						c4.8-7.9,11.4-14.5,19.3-19.3v17.4C-2351.6,2329-2356.6,2340.5-2356.6,2352.5z"/>
				</g>
			</g>
		</g>
		<g id="Grupo_16_2_" transform="translate(1645.084 856.573)">
			<path id="Trazado_15_2_" class="st7" d="M-2303.7,2367.5c-1.6-3.6-4.5-6.4-8.2-7.9c-5.7-2.3-12.2-1.1-16.6,3.1
				c-1.4,1.4-2.6,3-3.4,4.8c-1.6,3.8-1.6,8.1,0,11.9c0.8,1.8,1.9,3.4,3.4,4.8c1.4,1.4,3.1,2.4,4.9,3.1c3.8,1.5,8,1.5,11.7,0
				c1.8-0.7,3.5-1.8,4.9-3.1c1.4-1.4,2.5-3,3.3-4.8C-2302.1,2375.6-2302.1,2371.3-2303.7,2367.5L-2303.7,2367.5z"/>
			<g id="Grupo_14_2_" transform="translate(3.537)">
				<path id="Trazado_16_2_" class="st7" d="M-2321.3,2317.2c12,0,23.5-5,31.6-13.8h17.4c-16.5,27.1-51.8,35.7-78.9,19.3
					c-7.9-4.8-14.5-11.4-19.3-19.3h17.4C-2344.8,2312.2-2333.3,2317.2-2321.3,2317.2z"/>
			</g>
			<g id="Grupo_15_2_" transform="translate(0 114.188)">
				<path id="Trazado_17_2_" class="st7" d="M-2289.2,2343.2l24-25.2l-9.9-9.4l-14.1,14.8l-19.1-20l-19.1,20l-19.1-20l-24,25.2
					l9.9,9.4l14.1-14.8l19.1,20l19.1-20L-2289.2,2343.2z"/>
			</g>
		</g>
	</g>
</g>
<path id="Rectángulo_28_1_" class="st8" d="M-235.9-1089.9H15.8c37.5,0,67.9,30.4,67.9,67.9l0,0c0,37.5-30.4,67.9-67.9,67.9h-251.8
	c-37.5,0-67.9-30.4-67.9-67.9l0,0C-303.8-1059.5-273.4-1089.9-235.9-1089.9z"/>
<circle id="Elipse_18_1_" class="st3" cx="-131.3" cy="-1024.5" r="6.1"/>
<circle id="Elipse_19_1_" class="st3" cx="-88.8" cy="-1024.5" r="6.1"/>
<line id="Línea_10_1_" class="st9" x1="-137.3" y1="-1037.5" x2="-125.2" y2="-1037.5"/>
<line id="Línea_11_1_" class="st9" x1="-94.9" y1="-1037.5" x2="-82.8" y2="-1037.5"/>
<line id="Línea_12_1_" class="st9" x1="-124" y1="-1006.5" x2="-95" y2="-1006.5"/>
<circle id="Elipse_20_1_" class="st3" cx="-8.5" cy="-1027.1" r="6.1"/>
<circle id="Elipse_21_1_" class="st3" cx="34" cy="-1027.1" r="6.1"/>
<path id="Trazado_49_1_" class="st9" d="M-1.2-1001.8c0,0,13.2-16,29-0.3"/>
<line id="Línea_13_1_" class="st9" x1="-14.2" y1="-1038" x2="-2.8" y2="-1042.1"/>
<line id="Línea_14_1_" class="st9" x1="28.3" y1="-1042.1" x2="39.7" y2="-1038"/>
<circle id="Elipse_22_4_" class="st3" cx="-254.9" cy="-1025.1" r="6.1"/>
<path id="Trazado_50_4_" class="st9" d="M-260.9-1038.1c0-3.3,2.7-6.1,6.1-6.1s6.1,2.7,6.1,6.1"/>
<path id="Trazado_51_4_" class="st9" d="M-218.5-1038.1c0-3.3,2.8-6,6.1-6c3.3,0,5.9,2.7,6,6"/>
<circle id="Elipse_23_4_" class="st3" cx="-212.4" cy="-1025.1" r="6.1"/>
<path id="Trazado_52_4_" class="st9" d="M-218.6-1007c0,0-13.2,16-29,0.3"/>
<circle id="Elipse_17_1_" class="st8" cx="-110.8" cy="-1591.5" r="51.7"/>
<circle id="Elipse_27_1_" class="st10" cx="543" cy="-1581.6" r="51.7"/>
<circle id="Elipse_34_1_" class="st11" cx="544" cy="-1021.2" r="51.7"/>
<circle id="Elipse_17" class="st12" cx="1188.2" cy="-1310.1" r="51.7"/>
<g id="Grupo_206_2_" transform="translate(-761.504 -930.93)">
	<circle id="Elipse_51_2_" class="st6" cx="822.6" cy="735.3" r="32.4"/>
	<g id="Grupo_106_2_" transform="translate(778.662 948.619)">
		<line id="Línea_31_2_" class="st13" x1="59.2" y1="-213.3" x2="28.7" y2="-213.3"/>
		<path id="Trazado_101_2_" class="st13" d="M44.5-228l14.7,14.7l-14.7,14.7"/>
	</g>
</g>
<g id="Grupo_206_1_" transform="translate(-761.504 -930.93)">
	<circle id="Elipse_51_1_" class="st6" cx="586.6" cy="735.3" r="32.4"/>
	<g id="Grupo_106_1_" transform="translate(778.662 948.619)">
		<line id="Línea_31_1_" class="st13" x1="-176.8" y1="-213.3" x2="-207.3" y2="-213.3"/>
		<path id="Trazado_101_1_" class="st13" d="M-192.6-198.6l-14.7-14.7l14.7-14.7"/>
	</g>
</g>
<g id="Grupo_207_1_" transform="translate(-852.941 -931.283)">
	<path id="Rectángulo_65_1_" class="st6" d="M666.6,1275.3h150.9c17.7,0,32,14.3,32,32v0.1c0,17.7-14.3,32-32,32H666.6
		c-17.7,0-32-14.3-32-32v-0.1C634.6,1289.7,648.9,1275.3,666.6,1275.3z"/>
	<text transform="matrix(1 0 0 1 676.2564 1312.7021)" class="st2" style="font-family:'ArialMT'; font-size:21px;">Ver en Netflix</text>
</g>
<g id="Grupo_208" transform="translate(-1091.976 -930.93)">
	<circle id="Elipse_52" class="st6" cx="909.1" cy="982" r="32.4"/>
	<g id="Grupo_108" transform="translate(1109.666 948.088)">
		<path id="Trazado_102" class="st13" d="M-211,29.4v19.8h20.9V29.4"/>
		<path id="Trazado_103" class="st13" d="M-215.3,33.4l14.7-14.7l14.7,14.7"/>
	</g>
</g>
<g id="Grupo_209" transform="translate(-854.092 -931.284)">
	<path id="Rectángulo_109" class="st6" d="M1078.7,1275.3h150.9c17.7,0,32,14.3,32,32v0.1c0,17.7-14.3,32-32,32h-150.9
		c-17.7,0-32-14.3-32-32v-0.1C1046.7,1289.7,1061.1,1275.3,1078.7,1275.3z"/>
	<text transform="matrix(1 0 0 1 1078.6364 1312.7021)" class="st2" style="font-family:'ArialMT'; font-size:21px;">Abrir en Spotify</text>
</g>
<g id="Grupo_187" transform="translate(-198 -430)">
	<circle id="Elipse_27" class="st10" cx="762.6" cy="492.6" r="51.7"/>
	<circle id="Elipse_28" class="st3" cx="740.9" cy="487.4" r="6.1"/>
	<circle id="Elipse_29" class="st3" cx="783.3" cy="487.4" r="6.1"/>
	<path id="Trazado_54" class="st9" d="M748.1,512.7c0,0,13.2-16,29-0.3"/>
	<line id="Línea_19" class="st9" x1="735.2" y1="476.6" x2="746.6" y2="472.4"/>
	<line id="Línea_20" class="st9" x1="777.6" y1="472.4" x2="789" y2="476.6"/>
</g>
<circle id="Elipse_34" class="st10" cx="819.6" cy="62.6" r="51.7"/>
<path id="Trazado_186" class="st9" d="M840.8,60c0,11.6-9.4,20.9-20.9,20.9s-20.9-9.4-20.9-20.9"/>
<line id="Línea_40" class="st9" x1="819.8" y1="81.1" x2="819.8" y2="99.7"/>
<line id="Línea_41" class="st9" x1="807.1" y1="99.7" x2="833" y2="99.7"/>
<path id="Rectángulo_112" class="st9" d="M819.8,24.6L819.8,24.6c7,0,12.8,5.7,12.8,12.8v22.1c0,7-5.7,12.8-12.8,12.8l0,0
	c-7,0-12.8-5.7-12.8-12.8V37.3C807.1,30.3,812.8,24.6,819.8,24.6z"/>
<line id="Línea_42" class="st9" x1="807.1" y1="39.2" x2="813.9" y2="39.2"/>
<line id="Línea_44" class="st9" x1="807.1" y1="48.2" x2="813.9" y2="48.2"/>
<line id="Línea_45" class="st9" x1="807.1" y1="57.1" x2="813.9" y2="57.1"/>
<line id="Línea_46" class="st9" x1="825.8" y1="39.2" x2="832.6" y2="39.2"/>
<line id="Línea_48" class="st9" x1="825.8" y1="48.2" x2="832.6" y2="48.2"/>
<line id="Línea_49" class="st9" x1="825.8" y1="57.1" x2="832.6" y2="57.1"/>
<circle id="Elipse_34_2_" class="st11" cx="1067.6" cy="62.6" r="51.7"/>
<path id="Trazado_186_1_" class="st9" d="M1088.8,60c0,11.6-9.4,20.9-20.9,20.9c-11.6,0-20.9-9.4-20.9-20.9"/>
<line id="Línea_40_1_" class="st9" x1="1067.8" y1="81.1" x2="1067.8" y2="99.7"/>
<line id="Línea_41_1_" class="st9" x1="1055.1" y1="99.7" x2="1081" y2="99.7"/>
<path id="Rectángulo_112_1_" class="st9" d="M1067.8,24.6L1067.8,24.6c7.1,0,12.8,5.7,12.8,12.8v22.1c0,7-5.7,12.8-12.8,12.8l0,0
	c-7.1,0-12.8-5.7-12.8-12.8V37.3C1055.1,30.3,1060.8,24.6,1067.8,24.6z"/>
<line id="Línea_42_1_" class="st9" x1="1055.1" y1="39.2" x2="1061.9" y2="39.2"/>
<line id="Línea_44_1_" class="st9" x1="1055.1" y1="48.2" x2="1061.9" y2="48.2"/>
<line id="Línea_45_1_" class="st9" x1="1055.1" y1="57.1" x2="1061.9" y2="57.1"/>
<line id="Línea_46_1_" class="st9" x1="1073.8" y1="39.2" x2="1080.6" y2="39.2"/>
<line id="Línea_48_1_" class="st9" x1="1073.8" y1="48.2" x2="1080.6" y2="48.2"/>
<line id="Línea_49_1_" class="st9" x1="1073.8" y1="57.1" x2="1080.6" y2="57.1"/>
<circle id="Elipse_27-2" class="st8" cx="564.6" cy="63.6" r="51.7"/>
<circle id="Elipse_28-2" class="st3" cx="542.9" cy="58.4" r="6.1"/>
<circle id="Elipse_29-2" class="st3" cx="585.3" cy="58.4" r="6.1"/>
<path id="Trazado_54-2" class="st9" d="M550.1,83.7c0,0,13.2-16,29-0.3"/>
<line id="Línea_19-2" class="st9" x1="537.2" y1="47.6" x2="548.6" y2="43.4"/>
<line id="Línea_20-2" class="st9" x1="579.6" y1="43.4" x2="591" y2="47.6"/>
<circle id="Elipse_27-2_2_" class="st10" cx="819.6" cy="-195.4" r="51.7"/>
<circle id="Elipse_22_3_" class="st3" cx="798.7" cy="-198.8" r="6.1"/>
<path id="Trazado_50_3_" class="st9" d="M792.6-211.8c0-3.4,2.7-6.1,6.1-6.1s6.1,2.7,6.1,6.1"/>
<path id="Trazado_51_3_" class="st9" d="M835-211.8c0-3.4,2.8-6,6.1-6c3.3,0,5.9,2.7,6,6"/>
<circle id="Elipse_23_3_" class="st3" cx="841.1" cy="-198.8" r="6.1"/>
<path id="Trazado_52_3_" class="st9" d="M834.9-180.7c0,0-13.2,16.1-29,0.3"/>
<circle id="Elipse_33" class="st10" cx="1070.4" cy="-192.5" r="51.7"/>
<g id="Grupo_173" transform="translate(-524.864 -221.357)">
	<path id="Trazado_187" class="st14" d="M1582.4,10.9"/>
	<path id="Trazado_188" class="st9" d="M1618.8,6.9c0-2.4-1.7-4.5-4-4.9c-0.2-2.6-2.4-4.6-5-4.6c-0.2,0-0.5,0-0.8,0.1
		c-4.4-1.1-8.6-3-12.3-5.6c-2.4,0-4.5,1.7-4.9,4.1c-2.5,2.5-6.4,2.9-9.4,1c-2.8,0-5,2.2-5,5l0,0c0,0,0,0,0,0c-0.2,0-0.4,0-0.7,0
		c-2.8,0-5,2.2-5,5l0,0"/>
	<g id="Grupo_172">
		<path id="Trazado_189" class="st9" d="M1614.1,65.4h-37.3l-4.1-43.4h45.3L1614.1,65.4z"/>
		<circle id="Elipse_68" class="st9" cx="1595.2" cy="43.7" r="10.4"/>
		<line id="Línea_50" class="st9" x1="1586.6" y1="22" x2="1587.1" y2="37.2"/>
		<line id="Línea_51" class="st9" x1="1603.8" y1="22" x2="1603.2" y2="37.1"/>
		<line id="Línea_52" class="st9" x1="1587.5" y1="50.6" x2="1588" y2="65.4"/>
		<line id="Línea_53" class="st9" x1="1602.8" y1="50.6" x2="1602.3" y2="65.4"/>
		<rect id="Rectángulo_113" x="1570.5" y="13.6" class="st9" width="49.7" height="8.4"/>
	</g>
	<path id="Trazado_190" class="st9" d="M1584.1,6.7c0.8-2,3.1-3,5.1-2.2"/>
	<path id="Trazado_191" class="st9" d="M1601.7,3.4c2.1-0.7,4.3,0.4,5,2.4"/>
</g>
<circle id="Elipse_27-2_3_" class="st15" cx="61.6" cy="59.6" r="51.7"/>
<circle id="Elipse_28-2_1_" class="st3" cx="40.4" cy="54.4" r="6.1"/>
<circle id="Elipse_29-2_1_" class="st3" cx="82.9" cy="54.4" r="6.1"/>
<path id="Trazado_54-2_1_" class="st9" d="M47.7,79.7c0,0,13.2-16,29-0.3"/>
<line id="Línea_19-2_1_" class="st9" x1="34.7" y1="43.6" x2="46.1" y2="39.4"/>
<line id="Línea_20-2_1_" class="st9" x1="77.2" y1="39.4" x2="88.6" y2="43.6"/>
<circle id="Elipse_27-2_1_" class="st15" cx="316.6" cy="-195.4" r="51.7"/>
<circle id="Elipse_22_1_" class="st3" cx="295.7" cy="-198.8" r="6.1"/>
<path id="Trazado_50_1_" class="st9" d="M289.6-211.8c0-3.4,2.7-6.1,6.1-6.1s6.1,2.7,6.1,6.1"/>
<path id="Trazado_51_1_" class="st9" d="M332-211.8c0-3.4,2.8-6,6.1-6c3.3,0,5.9,2.7,6,6"/>
<circle id="Elipse_23_1_" class="st3" cx="338.1" cy="-198.8" r="6.1"/>
<path id="Trazado_52_1_" class="st9" d="M331.9-180.7c0,0-13.2,16.1-29,0.3"/>
<circle id="Elipse_33_1_" class="st11" cx="1314.4" cy="-192.5" r="51.7"/>
<g id="Grupo_173_1_" transform="translate(-524.864 -221.357)">
	<path id="Trazado_187_1_" class="st14" d="M1826.4,10.9"/>
	<path id="Trazado_188_1_" class="st9" d="M1862.8,6.9c0-2.4-1.7-4.5-4-4.9c-0.2-2.6-2.4-4.6-5-4.6c-0.2,0-0.5,0-0.8,0.1
		c-4.4-1.1-8.6-3-12.3-5.6c-2.4,0-4.5,1.7-4.9,4.1c-2.5,2.5-6.4,2.9-9.4,1c-2.8,0-5,2.2-5,5l0,0c0,0,0,0,0,0c-0.2,0-0.4,0-0.7,0
		c-2.8,0-5,2.2-5,5l0,0"/>
	<g id="Grupo_172_1_">
		<path id="Trazado_189_1_" class="st9" d="M1858.1,65.4h-37.3l-4.1-43.4h45.3L1858.1,65.4z"/>
		<circle id="Elipse_68_1_" class="st9" cx="1839.2" cy="43.7" r="10.4"/>
		<line id="Línea_50_1_" class="st9" x1="1830.6" y1="22" x2="1831.1" y2="37.2"/>
		<line id="Línea_51_1_" class="st9" x1="1847.8" y1="22" x2="1847.2" y2="37.1"/>
		<line id="Línea_52_1_" class="st9" x1="1831.5" y1="50.6" x2="1832" y2="65.4"/>
		<line id="Línea_53_1_" class="st9" x1="1846.8" y1="50.6" x2="1846.3" y2="65.4"/>
		<rect id="Rectángulo_113_1_" x="1814.5" y="13.6" class="st9" width="49.7" height="8.4"/>
	</g>
	<path id="Trazado_190_1_" class="st9" d="M1828.1,6.7c0.8-2,3.1-3,5.1-2.2"/>
	<path id="Trazado_191_1_" class="st9" d="M1845.7,3.4c2.1-0.7,4.3,0.4,5,2.4"/>
</g>
<g id="Grupo_188_2_" transform="translate(152 -432)">
	<circle id="Elipse_34_3_" class="st15" cx="164.6" cy="494.6" r="51.7"/>
	<g id="Grupo_174_2_" transform="translate(2.001)">
		<path id="Trazado_186_3_" class="st16" d="M183.8,492c0,11.6-9.4,20.9-20.9,20.9s-20.9-9.4-20.9-20.9"/>
		<line id="Línea_40_3_" class="st9" x1="162.8" y1="513.1" x2="162.8" y2="531.7"/>
		<line id="Línea_41_3_" class="st9" x1="150.1" y1="531.7" x2="176.1" y2="531.7"/>
		<path id="Rectángulo_112_3_" class="st16" d="M162.8,456.6L162.8,456.6c7.1,0,12.8,5.7,12.8,12.8v22.1c0,7-5.7,12.8-12.8,12.8
			l0,0c-7.1,0-12.8-5.7-12.8-12.8v-22.1C150.1,462.3,155.8,456.6,162.8,456.6z"/>
		<line id="Línea_42_3_" class="st9" x1="150.1" y1="471.2" x2="156.9" y2="471.2"/>
		<line id="Línea_44_3_" class="st9" x1="150.1" y1="480.2" x2="156.9" y2="480.2"/>
		<line id="Línea_45_3_" class="st9" x1="150.1" y1="489.1" x2="156.9" y2="489.1"/>
		<line id="Línea_46_3_" class="st9" x1="168.8" y1="471.2" x2="175.6" y2="471.2"/>
		<line id="Línea_48_3_" class="st9" x1="168.8" y1="480.2" x2="175.6" y2="480.2"/>
		<line id="Línea_49_3_" class="st9" x1="168.8" y1="489.1" x2="175.6" y2="489.1"/>
	</g>
</g>
<circle id="Elipse_33_2_" class="st15" cx="567.4" cy="-192.5" r="51.7"/>
<g id="Grupo_173_3_" transform="translate(-524.864 -221.357)">
	<path id="Trazado_187_3_" class="st14" d="M1079.4,10.9"/>
	<path id="Trazado_188_3_" class="st9" d="M1115.8,6.9c0-2.4-1.7-4.5-4-4.9c-0.2-2.6-2.4-4.6-5-4.6c-0.2,0-0.5,0-0.8,0.1
		c-4.4-1.1-8.6-3-12.3-5.6c-2.4,0-4.5,1.7-4.9,4.1c-2.5,2.5-6.4,2.9-9.4,1c-2.8,0-5,2.2-5,5l0,0c0,0,0,0,0,0c-0.2,0-0.4,0-0.7,0
		c-2.8,0-5,2.2-5,5l0,0"/>
	<g id="Grupo_172_3_">
		<path id="Trazado_189_3_" class="st9" d="M1111.1,65.4h-37.3l-4.1-43.4h45.3L1111.1,65.4z"/>
		<circle id="Elipse_68_3_" class="st9" cx="1092.2" cy="43.7" r="10.4"/>
		<line id="Línea_50_3_" class="st9" x1="1083.6" y1="22" x2="1084.1" y2="37.2"/>
		<line id="Línea_51_3_" class="st9" x1="1100.8" y1="22" x2="1100.2" y2="37.1"/>
		<line id="Línea_52_3_" class="st9" x1="1084.5" y1="50.6" x2="1085" y2="65.4"/>
		<line id="Línea_53_3_" class="st9" x1="1099.8" y1="50.6" x2="1099.3" y2="65.4"/>
		<rect id="Rectángulo_113_3_" x="1067.5" y="13.6" class="st9" width="49.7" height="8.4"/>
	</g>
	<path id="Trazado_190_3_" class="st9" d="M1081.1,6.7c0.8-2,3.1-3,5.1-2.2"/>
	<path id="Trazado_191_3_" class="st9" d="M1098.7,3.4c2.1-0.7,4.3,0.4,5,2.4"/>
</g>
<path id="Rectángulo_37_1_" class="st12" d="M-166.7,1129.8h129c37.5,0,67.9,30.4,67.9,67.9l0,0c0,37.5-30.4,67.9-67.9,67.9h-129
	c-37.5,0-67.9-30.4-67.9-67.9l0,0C-234.6,1160.2-204.2,1129.8-166.7,1129.8z"/>
<g id="Grupo_174_1_" transform="translate(-820.998 -467.103)">
	<path id="Trazado_186_4_" class="st9" d="M678.3,1662.2c0,11.6-9.4,20.9-20.9,20.9s-20.9-9.4-20.9-20.9"/>
	<line id="Línea_40_4_" class="st9" x1="657.4" y1="1683.3" x2="657.4" y2="1701.9"/>
	<line id="Línea_41_4_" class="st9" x1="644.6" y1="1701.9" x2="670.6" y2="1701.9"/>
	<path id="Rectángulo_112_4_" class="st9" d="M657.4,1626.8L657.4,1626.8c7,0,12.8,5.7,12.8,12.8v22.1c0,7.1-5.7,12.8-12.8,12.8
		l0,0c-7,0-12.8-5.7-12.8-12.8v-22.1C644.6,1632.5,650.3,1626.8,657.4,1626.8z"/>
	<line id="Línea_42_4_" class="st9" x1="644.6" y1="1641.4" x2="651.4" y2="1641.4"/>
	<line id="Línea_44_4_" class="st9" x1="644.6" y1="1650.3" x2="651.4" y2="1650.3"/>
	<line id="Línea_45_4_" class="st9" x1="644.6" y1="1659.3" x2="651.4" y2="1659.3"/>
	<line id="Línea_46_4_" class="st9" x1="663.3" y1="1641.4" x2="670.1" y2="1641.4"/>
	<line id="Línea_48_4_" class="st9" x1="663.3" y1="1650.3" x2="670.1" y2="1650.3"/>
	<line id="Línea_49_4_" class="st9" x1="663.3" y1="1659.3" x2="670.1" y2="1659.3"/>
</g>
<g id="Grupo_173_4_" transform="translate(-535.864 214.643)">
	<path id="Trazado_187_4_" class="st14" d="M482.2,965.1"/>
	<path id="Trazado_188_4_" class="st9" d="M518.6,961.1c0-2.4-1.7-4.5-4-4.9c-0.2-2.6-2.4-4.6-5-4.6c-0.2,0-0.5,0-0.8,0.1
		c-4.4-1.1-8.5-3-12.3-5.6c-2.4,0-4.5,1.7-4.9,4.1c-2.5,2.5-6.4,2.9-9.4,1c-2.8,0-5,2.2-5,5l0,0c0,0,0,0,0,0c-0.2,0-0.5,0-0.7,0
		c-2.8,0-5,2.2-5,5l0,0"/>
	<g id="Grupo_172_4_">
		<path id="Trazado_189_4_" class="st9" d="M513.9,1019.6h-37.3l-4.1-43.4h45.3L513.9,1019.6z"/>
		<circle id="Elipse_68_4_" class="st9" cx="495" cy="997.8" r="10.4"/>
		<line id="Línea_50_4_" class="st9" x1="486.4" y1="976.1" x2="486.9" y2="991.4"/>
		<line id="Línea_51_4_" class="st9" x1="503.6" y1="976.1" x2="503" y2="991.3"/>
		<line id="Línea_52_4_" class="st9" x1="487.4" y1="1004.8" x2="487.8" y2="1019.6"/>
		<line id="Línea_53_4_" class="st9" x1="502.6" y1="1004.8" x2="502.1" y2="1019.6"/>
		<rect id="Rectángulo_113_4_" x="470.3" y="967.8" class="st9" width="49.6" height="8.4"/>
	</g>
	<path id="Trazado_190_4_" class="st9" d="M483.9,960.8c0.8-2,3.1-3,5.1-2.2"/>
	<path id="Trazado_191_4_" class="st9" d="M501.5,957.6c2-0.7,4.3,0.3,5,2.4"/>
</g>
<circle id="Elipse_53_1_" class="st2" cx="-314.3" cy="1580" r="25.7"/>
<path id="Rectángulo_73_1_" class="st6" d="M-314.3,1569.3L-314.3,1569.3c1,0,1.8,0.8,1.8,1.8v17.9c0,1-0.8,1.8-1.8,1.8l0,0
	c-1,0-1.8-0.8-1.8-1.8v-17.9C-316.1,1570.1-315.3,1569.3-314.3,1569.3z"/>
<path id="Rectángulo_74_1_" class="st6" d="M-303.6,1580L-303.6,1580c0,1-0.8,1.8-1.8,1.8h-17.9c-1,0-1.8-0.8-1.8-1.8l0,0
	c0-1,0.8-1.8,1.8-1.8h17.9C-304.4,1578.3-303.6,1579.1-303.6,1580z"/>
<circle id="Elipse_60" class="st6" cx="-109.3" cy="1577.9" r="25.7"/>
<path id="Rectángulo_97" class="st2" d="M-109.3,1567.2L-109.3,1567.2c1,0,1.8,0.8,1.8,1.8v17.9c0,1-0.8,1.8-1.8,1.8l0,0
	c-1,0-1.8-0.8-1.8-1.8v-17.9C-111.1,1567.9-110.3,1567.2-109.3,1567.2z"/>
<path id="Rectángulo_98" class="st2" d="M-98.6,1577.9L-98.6,1577.9c0,1-0.8,1.8-1.8,1.8h-17.9c-1,0-1.8-0.8-1.8-1.8l0,0
	c0-1,0.8-1.8,1.8-1.8h17.9C-99.4,1576.1-98.6,1576.9-98.6,1577.9z"/>
<path id="Trazado_124_1_" class="st2" d="M-240,2643.9c19.6,0,35.5-15.9,35.5-35.5c0.1-56.3,45.7-101.9,101.9-101.9
	c56.3,0.1,101.9,45.7,101.9,101.9c0,19.6,15.9,35.5,35.5,35.5s35.5-15.9,35.5-35.5c0.1-45.9-18.1-89.9-50.6-122.2
	c-32.3-32.5-76.4-50.8-122.2-50.6c-45.9-0.1-89.9,18.1-122.2,50.6c-32.5,32.4-50.8,76.4-50.6,122.2
	C-275.4,2628.1-259.6,2643.9-240,2643.9L-240,2643.9z"/>
<g>
	<g id="Grupo_132_1_" transform="translate(47.033 54.45)">
		<path id="Trazado_125_1_" class="st6" d="M-153.2,3112.5c6.6,0,12.9,2.7,17.4,7.6h9.6c-5.7-9.5-15.9-15.2-27-15.2
			c-11.1-0.1-21.3,5.7-27,15.2h9.6C-166.1,3115.2-159.8,3112.5-153.2,3112.5z"/>
	</g>
	<path id="Trazado_126_1_" class="st6" d="M-180.2,3151.5l5.1-30.1h7.7l6,16.1l5.9-16.1h7.7l5.1,30.1h-7.7l-2.6-17.3l-7.1,17.3h-3.1
		l-6.7-17.3l-2.6,17.3H-180.2z"/>
	<path id="Trazado_127_1_" class="st6" d="M-141.1,3135.7c0-2.1,0.4-4.2,1.2-6.2c0.8-1.9,1.9-3.6,3.4-5c1.5-1.4,3.3-2.6,5.2-3.4
		c2.1-0.8,4.4-1.2,6.7-1.2c2.3,0,4.5,0.4,6.7,1.2c1.9,0.8,3.7,1.9,5.2,3.4c1.5,1.4,2.6,3.1,3.4,5c0.8,2,1.2,4.1,1.2,6.2
		c0,2.1-0.4,4.2-1.2,6.2c-0.8,1.9-2,3.6-3.4,5c-1.5,1.4-3.3,2.6-5.2,3.4c-2.1,0.8-4.4,1.2-6.7,1.2c-2.3,0-4.6-0.4-6.7-1.2
		c-1.9-0.8-3.7-1.9-5.2-3.4c-1.5-1.4-2.6-3.1-3.4-5C-140.7,3139.9-141.1,3137.8-141.1,3135.7z M-133,3135.7c0,1.1,0.2,2.2,0.7,3.3
		c0.4,1,1.1,1.9,1.8,2.6c0.8,0.7,1.7,1.3,2.7,1.7c1,0.4,2.1,0.6,3.2,0.6c1.1,0,2.2-0.2,3.2-0.6c1-0.4,1.9-1,2.7-1.7s1.4-1.6,1.8-2.6
		c0.5-1,0.7-2.2,0.7-3.3c0-1.1-0.2-2.2-0.7-3.3c-0.4-1-1.1-1.9-1.8-2.6s-1.7-1.3-2.7-1.7c-1-0.4-2.1-0.6-3.2-0.6
		c-1.1,0-2.2,0.2-3.2,0.6c-1,0.4-1.9,1-2.7,1.7c-0.8,0.8-1.4,1.6-1.8,2.6C-132.8,3133.5-133,3134.6-133,3135.7z"/>
	<path id="Trazado_128_1_" class="st6" d="M-104.1,3135.7c0-2.1,0.4-4.2,1.2-6.2c0.8-1.9,1.9-3.6,3.4-5c1.5-1.4,3.3-2.6,5.2-3.4
		c2.1-0.8,4.4-1.2,6.7-1.2c2.3,0,4.5,0.4,6.7,1.2c2,0.8,3.7,1.9,5.2,3.4c1.5,1.4,2.6,3.1,3.4,5c0.8,2,1.2,4.1,1.2,6.2
		c0,2.1-0.4,4.2-1.2,6.2c-0.8,1.9-2,3.6-3.4,5c-1.5,1.5-3.3,2.6-5.2,3.4c-2.1,0.8-4.4,1.2-6.7,1.2c-2.3,0-4.6-0.4-6.7-1.2
		c-1.9-0.8-3.7-1.9-5.2-3.4c-1.5-1.4-2.6-3.1-3.4-5C-103.7,3139.9-104.1,3137.8-104.1,3135.7z M-96,3135.7c0,1.1,0.2,2.2,0.7,3.3
		c0.4,1,1.1,1.9,1.8,2.6c0.8,0.7,1.7,1.3,2.7,1.7c1,0.4,2.1,0.6,3.2,0.6c1.1,0,2.2-0.2,3.2-0.6c1-0.4,1.9-1,2.7-1.7s1.4-1.6,1.8-2.6
		c0.5-1,0.7-2.2,0.7-3.3c0-1.1-0.2-2.2-0.7-3.3c-0.4-1-1.1-1.9-1.8-2.6s-1.7-1.3-2.7-1.7c-1-0.4-2.1-0.6-3.2-0.6
		c-1.1,0-2.2,0.2-3.2,0.6c-1,0.4-1.9,1-2.7,1.7c-0.8,0.8-1.4,1.6-1.8,2.6C-95.8,3133.5-96,3134.6-96,3135.7L-96,3135.7z"/>
	<path id="Trazado_129_1_" class="st6" d="M-67.1,3121.4h11.5c2,0,3.9,0.4,5.7,1.2c1.8,0.8,3.3,1.9,4.7,3.3c1.3,1.4,2.4,3,3.2,4.8
		c0.8,1.8,1.1,3.8,1.1,5.7c0,1.9-0.4,3.9-1.1,5.7c-0.7,1.8-1.8,3.4-3.1,4.8c-1.3,1.4-2.9,2.5-4.7,3.3c-1.8,0.8-3.8,1.2-5.8,1.2
		h-11.5V3121.4z M-59.4,3144.8h1.8c1.2,0,2.5-0.2,3.6-0.6c1-0.4,1.9-1,2.7-1.8c0.7-0.8,1.3-1.7,1.7-2.6c0.4-1.1,0.6-2.2,0.6-3.4
		c0-1.1-0.2-2.3-0.6-3.4c-0.4-1-0.9-1.9-1.7-2.7c-0.8-0.8-1.7-1.4-2.7-1.8c-1.1-0.4-2.3-0.7-3.6-0.6h-1.8L-59.4,3144.8z"/>
	<rect id="Rectángulo_83_1_" x="-133.1" y="3104.9" class="st6" width="22.5" height="7.5"/>
	<rect id="Rectángulo_84_1_" x="-101.5" y="3104.9" class="st6" width="22.5" height="7.5"/>
</g>
<g>
	<g id="Grupo_98" transform="translate(47.035 54.451)">
		<path id="Trazado_90" class="st6" d="M451.6,2816.3c-6.6,0-12.9-2.7-17.4-7.6h-9.6c9.1,14.9,28.5,19.7,43.4,10.6
			c4.3-2.6,8-6.3,10.6-10.6H469C464.5,2813.5,458.2,2816.3,451.6,2816.3z"/>
	</g>
	<path id="Trazado_91" class="st6" d="M424.6,2855.2l5.1-30.1h7.7l6,16.1l5.9-16.1h7.7l5.1,30.1h-7.7l-2.6-17.3l-7,17.3h-3.1
		l-6.7-17.3l-2.6,17.3H424.6z"/>
	<path id="Trazado_92" class="st6" d="M463.7,2839.5c-0.1-6.4,3.8-12.2,9.8-14.6c4.3-1.6,9-1.6,13.3,0c2,0.8,3.7,1.9,5.2,3.4
		c1.5,1.4,2.6,3.1,3.4,5c1.6,4,1.6,8.4,0,12.4c-0.8,1.9-2,3.6-3.4,5c-1.5,1.4-3.3,2.6-5.2,3.4c-4.3,1.6-9,1.6-13.3,0
		C467.6,2851.7,463.6,2845.9,463.7,2839.5L463.7,2839.5z M471.8,2839.5c0,1.1,0.2,2.2,0.7,3.3c0.9,2,2.5,3.5,4.5,4.3
		c3.1,1.3,6.7,0.6,9.1-1.7c0.8-0.7,1.4-1.6,1.8-2.6c0.9-2.1,0.9-4.5,0-6.6c-0.4-1-1.1-1.9-1.8-2.6c-0.8-0.7-1.7-1.3-2.7-1.7
		c-2.1-0.8-4.4-0.8-6.5,0c-1,0.4-1.9,1-2.7,1.7c-0.8,0.8-1.4,1.6-1.8,2.6C472,2837.2,471.8,2838.3,471.8,2839.5z"/>
	<path id="Trazado_93" class="st6" d="M500.7,2839.5c-0.1-6.4,3.8-12.2,9.8-14.6c4.3-1.6,9-1.6,13.3,0c2,0.8,3.7,1.9,5.2,3.4
		c1.5,1.4,2.6,3.1,3.4,5c1.6,4,1.6,8.4,0,12.4c-0.8,1.9-2,3.6-3.4,5c-1.5,1.4-3.3,2.6-5.2,3.4c-4.3,1.6-9,1.6-13.3,0
		C504.5,2851.7,500.6,2845.9,500.7,2839.5L500.7,2839.5z M508.8,2839.5c0,1.1,0.2,2.2,0.7,3.3c0.9,2,2.5,3.5,4.5,4.3
		c2.1,0.8,4.4,0.8,6.5,0c1-0.4,1.9-1,2.7-1.7s1.4-1.6,1.8-2.6c0.9-2.1,0.9-4.5,0-6.6c-0.4-1-1.1-1.9-1.8-2.6
		c-0.8-0.7-1.7-1.3-2.7-1.7c-2.1-0.8-4.4-0.8-6.5,0c-1,0.4-1.9,1-2.7,1.7c-0.8,0.8-1.4,1.6-1.8,2.6
		C509,2837.2,508.8,2838.3,508.8,2839.5z"/>
	<path id="Trazado_94" class="st6" d="M537.7,2825.1h11.5c2,0,3.9,0.4,5.7,1.2c1.8,0.8,3.3,1.9,4.7,3.3c1.3,1.4,2.4,3,3.2,4.8
		c1.5,3.6,1.5,7.8,0,11.4c-0.7,1.8-1.8,3.4-3.1,4.8c-1.3,1.4-2.9,2.5-4.7,3.3c-1.8,0.8-3.8,1.2-5.8,1.2h-11.5V2825.1z M545.4,2848.6
		h1.8c1.2,0,2.5-0.2,3.6-0.6c1-0.4,1.9-1,2.7-1.8c0.7-0.8,1.3-1.7,1.7-2.7c0.4-1.1,0.6-2.2,0.6-3.4c0-1.1-0.2-2.3-0.6-3.4
		c-0.7-2-2.3-3.7-4.4-4.4c-1.1-0.4-2.3-0.7-3.6-0.6h-1.8L545.4,2848.6z"/>
	<rect id="Rectángulo_56" x="471.7" y="2808.7" class="st6" width="22.5" height="7.5"/>
	<rect id="Rectángulo_57" x="503.3" y="2808.7" class="st6" width="22.5" height="7.5"/>
</g>
</svg>
