<?xml version="1.0" encoding="utf-8"?>
<!-- Generator: Adobe Illustrator 24.0.3, SVG Export Plug-In . SVG Version: 6.00 Build 0)  -->
<svg version="1.1" id="Capa_1" xmlns="http://www.w3.org/2000/svg" xmlns:xlink="http://www.w3.org/1999/xlink" x="0px" y="0px"
	 viewBox="0 0 175.1 168.2" style="enable-background:new 0 0 175.1 168.2;" xml:space="preserve">
<style type="text/css">
	.st0{fill:#20345A;stroke:#20345A;stroke-width:7;stroke-miterlimit:10;}
	.st1{fill:none;stroke:#E4D7CE;stroke-width:5;stroke-linecap:round;stroke-linejoin:round;}
	.st2{fill:#F5B15A;}
	.st3{fill:#EAE3DA;}
	.st4{fill:#E4D7CE;}
	.st5{fill:#002E61;}
	.st6{fill:#E45451;}
	.st7{fill:#E4D8CE;}
	.st8{fill:#1E244D;}
	.st9{fill:#F99A3D;}
	.st10{fill:none;stroke:#002E61;stroke-width:10;stroke-miterlimit:10;}
	.st11{fill:none;stroke:#002E61;stroke-width:5;stroke-linecap:round;stroke-linejoin:round;}
	.st12{fill:none;stroke:#002E61;stroke-width:10.0004;stroke-miterlimit:10.0004;}
	.st13{fill:#E45451;stroke:#002E61;stroke-width:10;stroke-miterlimit:10;}
	.st14{fill:#F5B15A;stroke:#002E61;stroke-width:10;stroke-miterlimit:10;}
	.st15{fill:#E4D7CE;stroke:#002E61;stroke-width:10;stroke-miterlimit:10;}
	.st16{fill:none;stroke:#002E61;stroke-width:2.37;stroke-linecap:round;stroke-linejoin:round;}
	.st17{fill:#E4D8CE;stroke:#002E61;stroke-width:10;stroke-miterlimit:10;}
	.st18{fill:#E4D8CE;stroke:#002E61;stroke-width:5;stroke-linecap:round;stroke-linejoin:round;}
	.st19{fill:none;stroke:#002E61;stroke-width:5.0001;stroke-linecap:round;stroke-linejoin:round;stroke-miterlimit:4.0001;}
</style>
<circle id="Elipse_52_1_" class="st0" cx="87.5" cy="84.1" r="32.4"/>
<g id="Grupo_108_1_" transform="translate(1109.666 948.088)">
	<path id="Trazado_102_1_" class="st1" d="M-1032.6-868.5v19.8h20.9v-19.8"/>
	<path id="Trazado_103_1_" class="st1" d="M-1036.8-864.5l14.7-14.7l14.7,14.7"/>
</g>
<rect id="Rectángulo_36_1_" x="-2344.6" y="-1562.3" class="st2" width="1919.8" height="1080"/>
<g id="Grupo_201_1_" transform="translate(0 -7.083)">
	<g id="Grupo_10_1_" transform="translate(150 84.083)">
		<path id="Trazado_8_1_" class="st3" d="M-2342.4-732.7c2.9-7,8.6-12.5,15.7-15.2c7.8-2.9,16.4-2.9,24.2,0c3.6,1.4,6.8,3.4,9.5,6.1
			c2.7,2.6,4.8,5.7,6.2,9.1c3,7.2,3,15.3,0,22.5c-1.4,3.4-3.6,6.5-6.2,9.1c-2.7,2.6-6,4.7-9.5,6.1c-7.8,2.9-16.4,2.9-24.2,0
			c-14.7-6-21.8-22.8-15.8-37.5C-2342.4-732.5-2342.4-732.6-2342.4-732.7L-2342.4-732.7z M-2328.6-715.4c1.6,3.6,4.5,6.4,8.2,7.9
			c5.7,2.3,12.2,1.1,16.6-3.1c1.4-1.3,2.6-3,3.4-4.8c1.6-3.8,1.6-8.1,0-12c-0.8-1.8-1.9-3.4-3.4-4.8c-1.4-1.3-3.1-2.4-4.9-3.1
			c-3.8-1.5-8-1.5-11.7,0c-1.8,0.7-3.5,1.8-4.9,3.1c-1.4,1.4-2.5,3-3.3,4.8C-2330.2-723.6-2330.2-719.2-2328.6-715.4L-2328.6-715.4z
			"/>
		<rect id="Rectángulo_4_1_" x="-2321.4" y="-676.6" class="st3" width="13.7" height="40.8"/>
		<g id="Grupo_6_1_" transform="translate(7.948 405.244)">
			
				<rect id="Rectángulo_5_1_" x="-2299.7" y="-1471" transform="matrix(0.7071 -0.7071 0.7071 0.7071 367.7172 -2040.5281)" class="st3" width="40.8" height="13.7"/>
			<g id="Grupo_5_1_">
				<rect id="Rectángulo_6_1_" x="-2298.6" y="-1520.1" class="st3" width="98.2" height="13.7"/>
				<g id="Grupo_4_1_">
					<path id="Trazado_9_1_" class="st3" d="M-2330.8-1513.2c0-12-5-23.5-13.8-31.7v-17.4c27.1,16.5,35.7,51.8,19.3,78.9
						c-4.8,7.9-11.4,14.5-19.3,19.3v-17.4C-2335.8-1489.7-2330.8-1501.2-2330.8-1513.2z"/>
				</g>
			</g>
		</g>
		<g id="Grupo_9_1_" transform="translate(4.411)">
			<path id="Trazado_10_1_" class="st3" d="M-2306.1-1472.4c1.6,3.6,4.5,6.4,8.2,7.9c5.7,2.3,12.2,1.1,16.6-3.1
				c1.4-1.3,2.6-3,3.4-4.8c1.6-3.8,1.6-8.1,0-11.9c-0.8-1.8-1.9-3.4-3.4-4.8c-4.5-4.2-10.9-5.4-16.6-3.1c-1.8,0.7-3.5,1.8-4.9,3.1
				c-1.4,1.4-2.5,3-3.3,4.8C-2307.7-1480.5-2307.7-1476.2-2306.1-1472.4z"/>
			<g id="Grupo_7_1_" transform="translate(3.537 126.423)">
				<path id="Trazado_11_1_" class="st3" d="M-2295.5-1548.5c-12,0-23.5,5-31.6,13.8h-17.4c16.5-27.1,51.8-35.7,78.9-19.3
					c7.9,4.8,14.5,11.4,19.3,19.3h-17.4C-2272-1543.5-2283.5-1548.5-2295.5-1548.5z"/>
			</g>
			<g id="Grupo_8_1_">
				<path id="Trazado_12_1_" class="st3" d="M-2320.6-1562.3l-24,25.2l9.9,9.4l14.1-14.8l19.1,20l19.1-20l19.1,20l24-25.2l-9.9-9.4
					l-14.1,14.8l-19.1-20l-19.1,20L-2320.6-1562.3z"/>
			</g>
		</g>
	</g>
	<g id="Grupo_26_1_" transform="translate(1324 684.328)">
		
			<rect id="Rectángulo_5-2_1_" x="-2299.7" y="-1471" transform="matrix(0.7071 -0.7071 0.7071 0.7071 367.7172 -2040.5281)" class="st3" width="40.8" height="13.7"/>
		<g id="Grupo_5-2_1_" transform="translate(0 0)">
			<rect id="Rectángulo_6-2_1_" x="-2298.6" y="-1520.1" class="st3" width="98.2" height="13.7"/>
			<g id="Grupo_4-2_1_">
				<path id="Trazado_9-2_1_" class="st3" d="M-2330.8-1513.2c0-12-5-23.5-13.8-31.7v-17.4c17.2,10.3,27.7,29,27.6,49.1
					c0.1,20.1-10.4,38.7-27.6,49.1v-17.4C-2335.8-1489.7-2330.8-1501.2-2330.8-1513.2z"/>
			</g>
		</g>
	</g>
	<g id="Grupo_35_1_" transform="translate(0 186)">
		<path id="Trazado_8-2_1_" class="st3" d="M-1792.7-1381.3c-2.9,7-8.6,12.5-15.7,15.2c-7.8,2.9-16.4,2.9-24.2,0
			c-3.6-1.4-6.8-3.4-9.5-6.1c-2.7-2.6-4.8-5.7-6.2-9.1c-3-7.2-3-15.3,0-22.5c1.4-3.4,3.6-6.5,6.2-9.1c2.7-2.6,6-4.7,9.5-6.1
			c7.8-2.9,16.4-2.9,24.2,0c14.7,6,21.8,22.8,15.8,37.5C-1792.6-1381.5-1792.7-1381.4-1792.7-1381.3L-1792.7-1381.3z
			 M-1806.4-1398.6c-1.6-3.6-4.5-6.4-8.2-7.9c-5.7-2.3-12.2-1.1-16.6,3.1c-1.4,1.3-2.6,3-3.3,4.8c-1.6,3.8-1.6,8.1,0,11.9
			c0.8,1.8,1.9,3.4,3.3,4.8c1.4,1.3,3.1,2.4,4.9,3.1c3.8,1.5,8,1.5,11.7,0c1.8-0.7,3.5-1.8,4.9-3.1c1.4-1.4,2.5-3,3.3-4.8
			C-1804.8-1390.4-1804.8-1394.8-1806.4-1398.6L-1806.4-1398.6z"/>
		<rect id="Rectángulo_4-2_1_" x="-1827.4" y="-1478.2" class="st3" width="13.7" height="40.8"/>
	</g>
	<g id="Grupo_6-2_1_" transform="translate(592.19 791.365) rotate(180)">
		
			<rect id="Rectángulo_5-3_1_" x="2389.3" y="1653.7" transform="matrix(0.7071 -0.7071 0.7071 0.7071 -468.3855 2190.3044)" class="st3" width="40.8" height="13.7"/>
		<g id="Grupo_5-3_1_">
			<rect id="Rectángulo_6-3_1_" x="2390.6" y="1604.6" class="st3" width="98.2" height="13.7"/>
			<g id="Grupo_4-3_1_">
				<path id="Trazado_9-3_1_" class="st3" d="M2358.4,1611.4c0-12-5-23.5-13.8-31.7v-17.4c27.1,16.5,35.7,51.8,19.3,78.9
					c-4.8,7.9-11.4,14.5-19.3,19.3v-17.4C2353.4,1634.9,2358.4,1623.4,2358.4,1611.4z"/>
			</g>
		</g>
	</g>
	<g id="Grupo_27_1_" transform="translate(1339.463 279.083)">
		<path id="Trazado_10-2_1_" class="st3" d="M-2306.1-1472.4c1.6,3.6,4.5,6.4,8.2,7.9c1.9,0.8,3.9,1.1,5.9,1.1c4,0,7.9-1.5,10.8-4.2
			c1.4-1.3,2.6-3,3.4-4.8c0.8-1.9,1.2-3.9,1.2-6s-0.4-4.1-1.2-6c-0.8-1.8-1.9-3.4-3.4-4.8c-2.9-2.8-6.8-4.3-10.8-4.2
			c-2,0-4,0.4-5.9,1.1c-1.8,0.7-3.5,1.8-4.9,3.1c-1.4,1.4-2.5,3-3.3,4.8c-0.8,1.9-1.2,3.9-1.2,6S-2306.9-1474.3-2306.1-1472.4z"/>
		<g id="Grupo_7-2_1_" transform="translate(3.537 126.423)">
			<path id="Trazado_11-2_1_" class="st3" d="M-2295.5-1548.5c-12,0-23.5,5-31.6,13.8h-17.4c10.4-17.2,29-27.7,49.1-27.6
				c20.1-0.1,38.7,10.4,49.1,27.6h-17.4C-2272-1543.5-2283.5-1548.5-2295.5-1548.5z"/>
		</g>
		<g id="Grupo_8-2_1_">
			<path id="Trazado_12-2_1_" class="st3" d="M-2320.6-1562.3l-24,25.2l9.9,9.4l14.1-14.8l19.1,20l19.1-20l19.1,20l24-25.2l-9.9-9.4
				l-14.1,14.8l-19.1-20l-19.1,20L-2320.6-1562.3z"/>
		</g>
	</g>
	<g id="Grupo_25_1_" transform="translate(15.249)">
		<path id="Trazado_13_1_" class="st3" d="M-592.1-1381.3c-2.9,7-8.6,12.5-15.7,15.2c-7.8,2.9-16.4,2.9-24.2,0
			c-3.5-1.4-6.8-3.4-9.5-6.1c-2.7-2.6-4.8-5.7-6.2-9.1c-3-7.2-3-15.3,0-22.5c1.5-3.4,3.6-6.5,6.2-9.1c2.7-2.6,6-4.7,9.5-6.1
			c7.8-2.9,16.4-2.9,24.2,0c14.7,6,21.8,22.8,15.8,37.5C-592-1381.5-592-1381.4-592.1-1381.3L-592.1-1381.3z M-605.8-1398.6
			c-1.6-3.6-4.5-6.4-8.2-7.9c-3.8-1.5-8-1.5-11.7,0c-1.8,0.7-3.5,1.8-4.9,3.1c-1.4,1.3-2.6,3-3.3,4.8c-1.6,3.8-1.6,8.1,0,11.9
			c0.8,1.8,1.9,3.4,3.3,4.8c1.4,1.3,3.1,2.4,4.9,3.1c3.8,1.5,8,1.5,11.7,0c1.8-0.7,3.5-1.8,4.9-3.1c1.4-1.4,2.5-3,3.3-4.8
			C-604.2-1390.4-604.2-1394.8-605.8-1398.6z"/>
		<rect id="Rectángulo_7_1_" x="-626.8" y="-1478.2" class="st3" width="13.7" height="40.8"/>
		<g id="Grupo_13_1_" transform="translate(1602.612 487.904)">
			
				<rect id="Rectángulo_8_1_" x="-2286.1" y="-1549.9" transform="matrix(0.7071 -0.7071 0.7071 0.7071 427.49 -2054.0234)" class="st3" width="40.8" height="13.7"/>
			<g id="Grupo_12_1_" transform="translate(0 19.278)">
				<rect id="Rectángulo_9_1_" x="-2344.6" y="-1520.1" class="st3" width="98.2" height="13.7"/>
				<g id="Grupo_11_1_" transform="translate(116.577)">
					<path id="Trazado_14_1_" class="st3" d="M-2330.8-1513.2c0,12,5,23.5,13.8,31.7v17.4c-27.1-16.5-35.7-51.8-19.3-78.9
						c4.8-7.9,11.4-14.5,19.3-19.3v17.4C-2325.8-1536.7-2330.8-1525.2-2330.8-1513.2z"/>
				</g>
			</g>
		</g>
		<g id="Grupo_16_1_" transform="translate(1645.084 856.573)">
			<path id="Trazado_15_1_" class="st3" d="M-2277.9-1498.2c-1.6-3.6-4.5-6.4-8.2-7.9c-5.7-2.3-12.2-1.1-16.6,3.1
				c-1.4,1.3-2.6,3-3.4,4.8c-1.6,3.8-1.6,8.1,0,11.9c0.8,1.8,1.9,3.4,3.4,4.8c1.4,1.3,3.1,2.4,4.9,3.1c3.8,1.5,8,1.5,11.7,0
				c1.8-0.7,3.5-1.8,4.9-3.1c1.4-1.4,2.5-3,3.3-4.8C-2276.3-1490.1-2276.3-1494.4-2277.9-1498.2L-2277.9-1498.2z"/>
			<g id="Grupo_14_1_" transform="translate(3.537)">
				<path id="Trazado_16_1_" class="st3" d="M-2295.5-1548.5c12,0,23.5-5,31.6-13.8h17.4c-16.5,27.1-51.8,35.7-78.9,19.3
					c-7.9-4.8-14.5-11.4-19.3-19.3h17.4C-2319-1553.5-2307.5-1548.5-2295.5-1548.5z"/>
			</g>
			<g id="Grupo_15_1_" transform="translate(0 114.188)">
				<path id="Trazado_17_1_" class="st3" d="M-2263.4-1522.5l24-25.2l-9.9-9.4l-14.1,14.8l-19.1-20l-19.1,20l-19.1-20l-24,25.2
					l9.9,9.4l14.1-14.8l19.1,20l19.1-20L-2263.4-1522.5z"/>
			</g>
		</g>
	</g>
</g>
<rect id="Rectángulo_51" x="-2344.1" y="-178.7" class="st4" width="1919.8" height="1080"/>
<g id="Grupo_203" transform="translate(0 -7.083)">
	<g id="Grupo_10" transform="translate(150 84.083)">
		<path id="Trazado_8" class="st5" d="M-2341.8,650.9c2.9-7,8.6-12.5,15.7-15.2c7.8-2.9,16.4-2.9,24.2,0c3.6,1.4,6.8,3.4,9.5,6.1
			c2.7,2.6,4.8,5.7,6.2,9.1c3,7.2,3,15.3,0,22.5c-1.4,3.4-3.6,6.5-6.2,9.1c-2.7,2.6-6,4.7-9.5,6.1c-7.8,2.9-16.4,2.9-24.2,0
			c-14.7-6-21.8-22.8-15.8-37.5C-2341.9,651.1-2341.9,651-2341.8,650.9L-2341.8,650.9z M-2328.1,668.2c1.6,3.6,4.5,6.4,8.2,7.9
			c5.7,2.3,12.2,1.1,16.6-3.1c1.4-1.3,2.6-3,3.4-4.8c1.6-3.8,1.6-8.1,0-12c-0.8-1.8-1.9-3.4-3.4-4.8c-1.4-1.3-3.1-2.4-4.9-3.1
			c-3.8-1.5-8-1.5-11.7,0c-1.8,0.7-3.5,1.8-4.9,3.1c-1.4,1.4-2.5,3-3.3,4.8C-2329.7,660-2329.7,664.3-2328.1,668.2L-2328.1,668.2z"
			/>
		<rect id="Rectángulo_4" x="-2320.9" y="707" class="st5" width="13.7" height="40.8"/>
		<g id="Grupo_6" transform="translate(7.948 405.244)">
			
				<rect id="Rectángulo_5" x="-2299.2" y="-87.4" transform="matrix(0.7071 -0.7071 0.7071 0.7071 -610.4841 -1634.9358)" class="st5" width="40.8" height="13.7"/>
			<g id="Grupo_5">
				<rect id="Rectángulo_6" x="-2298.1" y="-136.5" class="st5" width="98.2" height="13.7"/>
				<g id="Grupo_4">
					<path id="Trazado_9" class="st5" d="M-2330.3-129.6c0-12-5-23.5-13.8-31.7v-17.4c27.1,16.5,35.7,51.8,19.3,78.9
						c-4.8,7.9-11.4,14.5-19.3,19.3V-98C-2335.2-106.1-2330.2-117.6-2330.3-129.6z"/>
				</g>
			</g>
		</g>
		<g id="Grupo_9" transform="translate(4.411)">
			<path id="Trazado_10" class="st5" d="M-2305.5-88.8c1.6,3.6,4.5,6.4,8.2,7.9c5.7,2.3,12.2,1.1,16.6-3.1c1.4-1.3,2.6-3,3.4-4.8
				c1.6-3.8,1.6-8.1,0-12c-0.8-1.8-1.9-3.4-3.4-4.8c-4.5-4.2-10.9-5.4-16.6-3.1c-1.8,0.7-3.5,1.8-4.9,3.1c-1.4,1.4-2.5,3-3.3,4.8
				C-2307.1-96.9-2307.1-92.6-2305.5-88.8z"/>
			<g id="Grupo_7" transform="translate(3.537 126.423)">
				<path id="Trazado_11" class="st5" d="M-2295-164.9c-12,0-23.5,5-31.6,13.8h-17.4c16.5-27.1,51.8-35.7,78.9-19.3
					c7.9,4.8,14.5,11.4,19.3,19.3h-17.4C-2271.5-159.9-2283-165-2295-164.9z"/>
			</g>
			<g id="Grupo_8">
				<path id="Trazado_12" class="st5" d="M-2320.1-178.7l-24,25.2l9.9,9.4l14.1-14.8l19.1,20l19.1-20l19.1,20l24-25.2l-9.9-9.4
					l-14.1,14.8l-19.1-20l-19.1,20L-2320.1-178.7z"/>
			</g>
		</g>
	</g>
	<g id="Grupo_26" transform="translate(1324 684.328)">
		
			<rect id="Rectángulo_5-2" x="-2299.2" y="-87.4" transform="matrix(0.7071 -0.7071 0.7071 0.7071 -610.4841 -1634.9358)" class="st5" width="40.8" height="13.7"/>
		<g id="Grupo_5-2" transform="translate(0 0)">
			<rect id="Rectángulo_6-2" x="-2298.1" y="-136.5" class="st5" width="98.2" height="13.7"/>
			<g id="Grupo_4-2">
				<path id="Trazado_9-2" class="st5" d="M-2330.3-129.6c0-12-5-23.5-13.8-31.6v-17.4c17.2,10.4,27.7,29,27.6,49.1
					c0.1,20.1-10.4,38.7-27.6,49.1V-98C-2335.2-106.1-2330.2-117.6-2330.3-129.6z"/>
			</g>
		</g>
	</g>
	<g id="Grupo_35" transform="translate(0 186)">
		<path id="Trazado_8-2" class="st5" d="M-1792.2,2.2c-2.9,7-8.6,12.5-15.7,15.2c-7.8,2.9-16.4,2.9-24.2,0c-3.6-1.4-6.8-3.4-9.5-6.1
			c-2.7-2.6-4.8-5.7-6.2-9.1c-3-7.2-3-15.3,0-22.5c1.4-3.4,3.6-6.5,6.2-9.1c2.7-2.6,6-4.7,9.5-6.1c7.8-2.9,16.4-2.9,24.2,0
			c14.7,6,21.8,22.8,15.8,37.5C-1792.1,2.1-1792.1,2.2-1792.2,2.2L-1792.2,2.2z M-1805.9-15c-1.6-3.6-4.5-6.4-8.2-7.9
			c-5.7-2.3-12.2-1.1-16.6,3.1c-1.4,1.4-2.6,3-3.3,4.8c-1.6,3.8-1.6,8.1,0,11.9c0.8,1.8,1.9,3.4,3.3,4.8c1.4,1.3,3.1,2.4,4.9,3.1
			c3.8,1.5,8,1.5,11.7,0c1.8-0.7,3.5-1.8,4.9-3.1c1.4-1.4,2.5-3,3.3-4.8C-1804.3-6.9-1804.3-11.2-1805.9-15L-1805.9-15z"/>
		<rect id="Rectángulo_4-2" x="-1826.8" y="-94.6" class="st5" width="13.7" height="40.8"/>
	</g>
	<g id="Grupo_6-2" transform="translate(592.19 791.365) rotate(180)">
		
			<rect id="Rectángulo_5-3" x="2388.8" y="270.1" transform="matrix(0.7071 -0.7071 0.7071 0.7071 509.8208 1784.7151)" class="st5" width="40.8" height="13.7"/>
		<g id="Grupo_5-3">
			<rect id="Rectángulo_6-3" x="2390.1" y="221" class="st5" width="98.2" height="13.7"/>
			<g id="Grupo_4-3">
				<path id="Trazado_9-3" class="st5" d="M2357.9,227.8c0-12-5-23.5-13.8-31.7v-17.4c27.1,16.5,35.7,51.8,19.3,78.9
					c-4.8,7.9-11.4,14.5-19.3,19.3v-17.4C2352.9,251.3,2357.9,239.8,2357.9,227.8z"/>
			</g>
		</g>
	</g>
	<g id="Grupo_27" transform="translate(1339.463 279.083)">
		<path id="Trazado_10-2" class="st5" d="M-2305.5-88.8c1.6,3.6,4.5,6.4,8.2,7.9c1.9,0.8,3.9,1.1,5.9,1.1c4,0,7.9-1.5,10.8-4.2
			c1.4-1.3,2.6-3,3.4-4.8c0.8-1.9,1.2-3.9,1.2-6s-0.4-4.1-1.2-6c-0.8-1.8-1.9-3.4-3.4-4.8c-2.9-2.8-6.8-4.3-10.8-4.2
			c-2,0-4,0.4-5.9,1.1c-1.8,0.7-3.5,1.8-4.9,3.1c-1.4,1.4-2.5,3-3.3,4.8c-0.8,1.9-1.2,3.9-1.2,6
			C-2306.8-92.7-2306.4-90.7-2305.5-88.8z"/>
		<g id="Grupo_7-2" transform="translate(3.537 126.423)">
			<path id="Trazado_11-2" class="st5" d="M-2295-164.9c-12,0-23.5,5-31.6,13.8h-17.4c10.4-17.2,29-27.7,49.1-27.6
				c20.1-0.1,38.7,10.4,49.1,27.6h-17.4C-2271.5-159.9-2283-165-2295-164.9z"/>
		</g>
		<g id="Grupo_8-2">
			<path id="Trazado_12-2" class="st5" d="M-2320.1-178.7l-24,25.2l9.9,9.4l14.1-14.8l19.1,20l19.1-20l19.1,20l24-25.2l-9.9-9.4
				l-14.1,14.8l-19.1-20l-19.1,20L-2320.1-178.7z"/>
		</g>
	</g>
	<g id="Grupo_25" transform="translate(15.249)">
		<path id="Trazado_13" class="st5" d="M-591.5,2.2c-2.9,7-8.6,12.5-15.7,15.2c-7.8,2.9-16.4,2.9-24.2,0c-3.5-1.4-6.8-3.4-9.5-6.1
			c-2.7-2.6-4.8-5.7-6.2-9.1c-3-7.2-3-15.3,0-22.5c1.5-3.4,3.6-6.5,6.2-9.1c2.7-2.6,6-4.7,9.5-6.1c7.8-2.9,16.4-2.9,24.2,0
			c14.7,6,21.8,22.8,15.8,37.5C-591.5,2.1-591.5,2.2-591.5,2.2L-591.5,2.2z M-605.3-15c-1.6-3.6-4.5-6.4-8.2-7.9
			c-3.8-1.5-8-1.5-11.7,0c-1.8,0.7-3.5,1.8-4.9,3.1c-1.4,1.4-2.6,3-3.3,4.8c-1.6,3.8-1.6,8.1,0,11.9c0.8,1.8,1.9,3.4,3.3,4.8
			c1.4,1.3,3.1,2.4,4.9,3.1c3.8,1.5,8,1.5,11.7,0c1.8-0.7,3.5-1.8,4.9-3.1c1.4-1.4,2.5-3,3.3-4.8C-603.7-6.9-603.7-11.2-605.3-15z"
			/>
		<rect id="Rectángulo_7" x="-626.2" y="-94.6" class="st5" width="13.7" height="40.8"/>
		<g id="Grupo_13" transform="translate(1602.612 487.904)">
			
				<rect id="Rectángulo_8" x="-2285.6" y="-166.3" transform="matrix(0.7071 -0.7071 0.7071 0.7071 -550.7137 -1648.4338)" class="st5" width="40.8" height="13.7"/>
			<g id="Grupo_12" transform="translate(0 19.278)">
				<rect id="Rectángulo_9" x="-2344.1" y="-136.5" class="st5" width="98.2" height="13.7"/>
				<g id="Grupo_11" transform="translate(116.577)">
					<path id="Trazado_14" class="st5" d="M-2330.3-129.6c0,12,5,23.5,13.8,31.7v17.4c-27.1-16.5-35.7-51.8-19.3-78.9
						c4.8-7.9,11.4-14.5,19.3-19.3v17.4C-2325.3-153.1-2330.3-141.7-2330.3-129.6z"/>
				</g>
			</g>
		</g>
		<g id="Grupo_16" transform="translate(1645.084 856.573)">
			<path id="Trazado_15" class="st5" d="M-2277.4-114.6c-1.6-3.6-4.5-6.4-8.2-7.9c-5.7-2.3-12.2-1.1-16.6,3.1
				c-1.4,1.3-2.6,3-3.4,4.8c-1.6,3.8-1.6,8.1,0,11.9c0.8,1.8,1.9,3.4,3.4,4.8c1.4,1.3,3.1,2.4,4.9,3.1c3.8,1.5,8,1.5,11.7,0
				c1.8-0.7,3.5-1.8,4.9-3.1c1.4-1.4,2.5-3,3.3-4.8C-2275.7-106.5-2275.7-110.8-2277.4-114.6L-2277.4-114.6z"/>
			<g id="Grupo_14" transform="translate(3.537)">
				<path id="Trazado_16" class="st5" d="M-2295-164.9c12,0,23.5-5,31.6-13.8h17.4c-16.5,27.1-51.8,35.7-78.9,19.3
					c-7.9-4.8-14.5-11.4-19.3-19.3h17.4C-2318.5-169.9-2307-164.9-2295-164.9z"/>
			</g>
			<g id="Grupo_15" transform="translate(0 114.188)">
				<path id="Trazado_17" class="st5" d="M-2262.8-138.9l24-25.2l-9.9-9.4l-14.1,14.8l-19.1-20l-19.1,20l-19.1-20l-24,25.2l9.9,9.4
					l14.1-14.8l19.1,20l19.1-20L-2262.8-138.9z"/>
			</g>
		</g>
	</g>
</g>
<rect id="Rectángulo_32_1_" x="-2345.1" y="1214.3" class="st6" width="1919.8" height="1080"/>
<g id="Grupo_199_1_" transform="translate(0 -7.083)">
	<g id="Grupo_10_3_" transform="translate(150 84.083)">
		<path id="Trazado_8_3_" class="st7" d="M-2342.8,2043.9c2.9-7,8.6-12.5,15.7-15.2c7.8-2.9,16.4-2.9,24.2,0
			c3.6,1.4,6.8,3.4,9.5,6.1c2.7,2.6,4.8,5.7,6.2,9.1c3,7.2,3,15.3,0,22.5c-1.4,3.4-3.6,6.5-6.2,9.1c-2.7,2.6-6,4.7-9.5,6.1
			c-7.8,2.9-16.4,2.9-24.2,0c-14.7-6-21.8-22.8-15.8-37.5C-2342.9,2044.1-2342.9,2044-2342.8,2043.9L-2342.8,2043.9z
			 M-2329.1,2061.2c1.6,3.6,4.5,6.4,8.2,7.9c5.7,2.3,12.2,1.1,16.6-3.1c1.4-1.4,2.6-3,3.4-4.8c1.6-3.8,1.6-8.1,0-11.9
			c-0.8-1.8-1.9-3.4-3.4-4.8c-1.4-1.3-3.1-2.4-4.9-3.1c-3.8-1.5-8-1.5-11.7,0c-1.8,0.7-3.5,1.8-4.9,3.1c-1.4,1.4-2.5,3-3.3,4.8
			C-2330.7,2053-2330.7,2057.3-2329.1,2061.2L-2329.1,2061.2z"/>
		<rect id="Rectángulo_4_3_" x="-2321.9" y="2099.9" class="st7" width="13.7" height="40.9"/>
		<g id="Grupo_6_3_" transform="translate(7.948 405.244)">
			
				<rect id="Rectángulo_5_3_" x="-2300.2" y="1305.6" transform="matrix(0.7071 -0.7071 0.7071 0.7071 -1595.7659 -1227.6433)" class="st7" width="40.8" height="13.7"/>
			<g id="Grupo_5_3_">
				<rect id="Rectángulo_6_3_" x="-2299.1" y="1256.5" class="st7" width="98.2" height="13.7"/>
				<g id="Grupo_4_3_">
					<path id="Trazado_9_3_" class="st7" d="M-2331.3,1263.4c0-12-5-23.5-13.8-31.7v-17.4c27.1,16.5,35.7,51.8,19.3,78.9
						c-4.8,7.9-11.4,14.5-19.3,19.3V1295C-2336.2,1286.9-2331.2,1275.4-2331.3,1263.4z"/>
				</g>
			</g>
		</g>
		<g id="Grupo_9_3_" transform="translate(4.411)">
			<path id="Trazado_10_3_" class="st7" d="M-2306.5,1304.2c1.6,3.6,4.5,6.4,8.2,7.9c5.7,2.3,12.2,1.1,16.6-3.1
				c1.4-1.3,2.6-3,3.4-4.8c1.6-3.8,1.6-8.1,0-11.9c-0.8-1.8-1.9-3.4-3.4-4.8c-4.5-4.2-10.9-5.4-16.6-3.1c-1.8,0.7-3.5,1.8-4.9,3.1
				c-1.4,1.4-2.5,3-3.3,4.8C-2308.1,1296.1-2308.1,1300.4-2306.5,1304.2z"/>
			<g id="Grupo_7_3_" transform="translate(3.537 126.423)">
				<path id="Trazado_11_3_" class="st7" d="M-2296,1228.1c-12,0-23.5,5-31.6,13.8h-17.4c16.5-27.1,51.8-35.7,78.9-19.3
					c7.9,4.8,14.5,11.4,19.3,19.3h-17.4C-2272.5,1233.1-2284,1228-2296,1228.1z"/>
			</g>
			<g id="Grupo_8_3_">
				<path id="Trazado_12_3_" class="st7" d="M-2321.1,1214.3l-24,25.2l9.9,9.4l14.1-14.8l19.1,20l19.1-20l19.1,20l24-25.2l-9.9-9.4
					l-14.1,14.8l-19.1-20l-19.1,20L-2321.1,1214.3z"/>
			</g>
		</g>
	</g>
	<g id="Grupo_26_3_" transform="translate(1324 684.328)">
		
			<rect id="Rectángulo_5-2_3_" x="-2300.2" y="1305.6" transform="matrix(0.7071 -0.7071 0.7071 0.7071 -1595.7659 -1227.6433)" class="st7" width="40.8" height="13.7"/>
		<g id="Grupo_5-2_3_" transform="translate(0 0)">
			<rect id="Rectángulo_6-2_3_" x="-2299.1" y="1256.5" class="st7" width="98.2" height="13.7"/>
			<g id="Grupo_4-2_3_">
				<path id="Trazado_9-2_3_" class="st7" d="M-2331.3,1263.4c0-12-5-23.5-13.8-31.7v-17.4c17.2,10.3,27.7,29,27.6,49.1
					c0.1,20.1-10.4,38.7-27.6,49.1V1295C-2336.2,1286.9-2331.2,1275.4-2331.3,1263.4z"/>
			</g>
		</g>
	</g>
	<g id="Grupo_35_3_" transform="translate(0 186)">
		<path id="Trazado_8-2_3_" class="st7" d="M-1793.2,1395.2c-2.9,7-8.6,12.5-15.7,15.2c-7.8,2.9-16.4,2.9-24.2,0
			c-3.6-1.4-6.8-3.4-9.5-6.1c-2.7-2.6-4.8-5.7-6.2-9.1c-3-7.2-3-15.3,0-22.5c1.4-3.4,3.6-6.5,6.2-9.1c2.7-2.6,6-4.7,9.5-6.1
			c7.8-2.9,16.4-2.9,24.2,0c14.7,6,21.8,22.8,15.8,37.5C-1793.1,1395.1-1793.1,1395.2-1793.2,1395.2L-1793.2,1395.2z M-1806.9,1378
			c-1.6-3.6-4.5-6.4-8.2-7.9c-5.7-2.3-12.2-1.1-16.6,3.1c-1.4,1.3-2.6,3-3.3,4.8c-1.6,3.8-1.6,8.1,0,11.9c0.8,1.8,1.9,3.4,3.3,4.8
			c1.4,1.3,3.1,2.4,4.9,3.1c3.8,1.5,8,1.5,11.7,0c1.8-0.7,3.5-1.8,4.9-3.1c1.4-1.4,2.5-3,3.3-4.8
			C-1805.3,1386.1-1805.3,1381.8-1806.9,1378L-1806.9,1378z"/>
		<rect id="Rectángulo_4-2_3_" x="-1827.8" y="1298.4" class="st7" width="13.7" height="40.8"/>
	</g>
	<g id="Grupo_6-2_3_" transform="translate(592.19 791.365) rotate(180)">
		
			<rect id="Rectángulo_5-3_3_" x="2389.9" y="-1122.7" transform="matrix(0.7071 -0.7071 0.7071 0.7071 1495.0175 1377.4937)" class="st7" width="40.8" height="13.7"/>
		<g id="Grupo_5-3_3_">
			<rect id="Rectángulo_6-3_3_" x="2391.1" y="-1172" class="st7" width="98.2" height="13.7"/>
			<g id="Grupo_4-3_3_">
				<path id="Trazado_9-3_3_" class="st7" d="M2358.9-1165.2c0-12-5-23.5-13.8-31.7v-17.4c27.1,16.5,35.7,51.8,19.3,78.9
					c-4.8,7.9-11.4,14.5-19.3,19.3v-17.4C2353.9-1141.7,2358.9-1153.2,2358.9-1165.2z"/>
			</g>
		</g>
	</g>
	<g id="Grupo_27_3_" transform="translate(1339.463 279.083)">
		<path id="Trazado_10-2_3_" class="st7" d="M-2306.5,1304.2c1.6,3.6,4.5,6.4,8.2,7.9c1.9,0.8,3.9,1.1,5.9,1.1c4,0,7.9-1.5,10.8-4.2
			c1.4-1.3,2.6-3,3.4-4.8c0.8-1.9,1.2-3.9,1.2-6s-0.4-4.1-1.2-6c-0.8-1.8-1.9-3.4-3.4-4.8c-2.9-2.8-6.8-4.3-10.8-4.2
			c-2,0-4,0.4-5.9,1.1c-1.8,0.7-3.5,1.8-4.9,3.1c-1.4,1.4-2.5,3-3.3,4.8c-0.8,1.9-1.2,3.9-1.2,6
			C-2307.8,1300.3-2307.4,1302.3-2306.5,1304.2z"/>
		<g id="Grupo_7-2_3_" transform="translate(3.537 126.423)">
			<path id="Trazado_11-2_3_" class="st7" d="M-2296,1228.1c-12,0-23.5,5-31.6,13.8h-17.4c10.4-17.2,29-27.7,49.1-27.6
				c20.1-0.1,38.7,10.4,49.1,27.6h-17.4C-2272.5,1233.1-2284,1228-2296,1228.1z"/>
		</g>
		<g id="Grupo_8-2_3_">
			<path id="Trazado_12-2_3_" class="st7" d="M-2321.1,1214.3l-24,25.2l9.9,9.4l14.1-14.8l19.1,20l19.1-20l19.1,20l24-25.2l-9.9-9.4
				l-14.1,14.8l-19.1-20l-19.1,20L-2321.1,1214.3z"/>
		</g>
	</g>
	<g id="Grupo_25_3_" transform="translate(15.249)">
		<path id="Trazado_13_3_" class="st7" d="M-592.5,1395.2c-2.9,7-8.6,12.5-15.7,15.2c-7.8,2.9-16.4,2.9-24.2,0
			c-3.5-1.4-6.8-3.4-9.5-6.1c-2.7-2.6-4.8-5.7-6.2-9.1c-3-7.2-3-15.3,0-22.5c1.5-3.4,3.6-6.5,6.2-9.1c2.7-2.6,6-4.7,9.5-6.1
			c7.8-2.9,16.4-2.9,24.2,0c14.7,6,21.8,22.8,15.8,37.5C-592.5,1395.1-592.5,1395.2-592.5,1395.2L-592.5,1395.2z M-606.3,1378
			c-1.6-3.6-4.5-6.4-8.2-7.9c-3.8-1.5-8-1.5-11.7,0c-1.8,0.7-3.5,1.8-4.9,3.1c-1.4,1.3-2.6,3-3.3,4.8c-1.6,3.8-1.6,8.1,0,11.9
			c0.8,1.8,1.9,3.4,3.3,4.8c1.4,1.3,3.1,2.4,4.9,3.1c3.8,1.5,8,1.5,11.7,0c1.8-0.7,3.5-1.8,4.9-3.1c1.4-1.4,2.5-3,3.3-4.8
			C-604.7,1386.1-604.7,1381.8-606.3,1378z"/>
		<rect id="Rectángulo_7_3_" x="-627.2" y="1298.4" class="st7" width="13.7" height="40.8"/>
		<g id="Grupo_13_3_" transform="translate(1602.612 487.904)">
			
				<rect id="Rectángulo_8_3_" x="-2286.6" y="1226.7" transform="matrix(0.7071 -0.7071 0.7071 0.7071 -1535.9955 -1241.1414)" class="st7" width="40.8" height="13.7"/>
			<g id="Grupo_12_3_" transform="translate(0 19.278)">
				<rect id="Rectángulo_9_3_" x="-2345.1" y="1256.5" class="st7" width="98.2" height="13.7"/>
				<g id="Grupo_11_3_" transform="translate(116.577)">
					<path id="Trazado_14_3_" class="st7" d="M-2331.3,1263.4c0,12,5,23.5,13.8,31.7v17.4c-27.1-16.5-35.7-51.8-19.3-78.9
						c4.8-7.9,11.4-14.5,19.3-19.3v17.4C-2326.3,1239.9-2331.3,1251.3-2331.3,1263.4z"/>
				</g>
			</g>
		</g>
		<g id="Grupo_16_3_" transform="translate(1645.084 856.573)">
			<path id="Trazado_15_3_" class="st7" d="M-2278.4,1278.4c-1.6-3.6-4.5-6.4-8.2-7.9c-5.7-2.3-12.2-1.1-16.6,3.1
				c-1.4,1.3-2.6,3-3.4,4.8c-1.6,3.8-1.6,8.1,0,11.9c0.8,1.8,1.9,3.4,3.4,4.8c1.4,1.3,3.1,2.4,4.9,3.1c3.8,1.5,8,1.5,11.7,0
				c1.8-0.7,3.5-1.8,4.9-3.1c1.4-1.4,2.5-3,3.3-4.8C-2276.7,1286.5-2276.7,1282.2-2278.4,1278.4L-2278.4,1278.4z"/>
			<g id="Grupo_14_3_" transform="translate(3.537)">
				<path id="Trazado_16_3_" class="st7" d="M-2296,1228.1c12,0,23.5-5,31.6-13.8h17.4c-16.5,27.1-51.8,35.7-78.9,19.3
					c-7.9-4.8-14.5-11.4-19.3-19.3h17.4C-2319.5,1223.1-2308,1228.1-2296,1228.1z"/>
			</g>
			<g id="Grupo_15_3_" transform="translate(0 114.188)">
				<path id="Trazado_17_3_" class="st7" d="M-2263.8,1254.1l24-25.2l-9.9-9.4l-14.1,14.8l-19.1-20l-19.1,20l-19.1-20l-24,25.2
					l9.9,9.4l14.1-14.8l19.1,20l19.1-20L-2263.8,1254.1z"/>
			</g>
		</g>
	</g>
</g>
<rect id="Rectángulo_3" x="-2344.4" y="2583.4" class="st8" width="1920.4" height="1080"/>
<g id="Grupo_196">
	<g id="Grupo_10_2_" transform="translate(150 84.083)">
		<path id="Trazado_8_2_" class="st9" d="M-2342.1,3413.1c2.9-7,8.6-12.5,15.7-15.2c7.8-2.9,16.4-2.9,24.2,0
			c3.6,1.4,6.8,3.4,9.5,6.1c2.7,2.6,4.8,5.7,6.2,9.1c3,7.2,3,15.3,0,22.5c-1.4,3.4-3.6,6.5-6.2,9.1c-2.7,2.6-6,4.7-9.5,6.1
			c-7.8,2.9-16.4,2.9-24.2,0c-14.7-6-21.8-22.8-15.8-37.5C-2342.2,3413.2-2342.2,3413.1-2342.1,3413.1L-2342.1,3413.1z
			 M-2328.4,3430.3c1.6,3.6,4.5,6.4,8.2,7.9c5.7,2.3,12.2,1.1,16.6-3.1c1.4-1.4,2.6-3,3.4-4.8c1.6-3.8,1.6-8.1,0-11.9
			c-0.8-1.8-1.9-3.4-3.4-4.8c-1.4-1.4-3.1-2.4-4.9-3.1c-3.8-1.5-8-1.5-11.7,0c-1.8,0.7-3.5,1.8-4.9,3.1c-1.4,1.4-2.5,3-3.3,4.8
			C-2330,3422.2-2330,3426.5-2328.4,3430.3L-2328.4,3430.3z"/>
		<rect id="Rectángulo_4_2_" x="-2321.1" y="3469.1" class="st9" width="13.7" height="40.9"/>
		<g id="Grupo_6_2_" transform="translate(7.948 405.244)">
			
				<rect id="Rectángulo_5_2_" x="-2299.5" y="2674.7" transform="matrix(0.7071 -0.7071 0.7071 0.7071 -2563.6331 -826.1536)" class="st9" width="40.8" height="13.7"/>
			<g id="Grupo_5_2_">
				<rect id="Rectángulo_6_2_" x="-2298.4" y="2625.7" class="st9" width="98.2" height="13.7"/>
				<g id="Grupo_4_2_">
					<path id="Trazado_9_2_" class="st9" d="M-2330.6,2632.5c0-12-5-23.5-13.8-31.7v-17.4c27.1,16.5,35.7,51.8,19.3,78.9
						c-4.8,7.9-11.4,14.5-19.3,19.3v-17.4C-2335.5,2656-2330.5,2644.5-2330.6,2632.5z"/>
				</g>
			</g>
		</g>
		<g id="Grupo_9_2_" transform="translate(4.411)">
			<path id="Trazado_10_2_" class="st9" d="M-2305.8,2673.4c1.6,3.6,4.5,6.4,8.2,7.9c5.7,2.3,12.2,1.1,16.6-3.1
				c1.4-1.4,2.6-3,3.4-4.8c1.6-3.8,1.6-8.1,0-12c-0.8-1.8-1.9-3.4-3.4-4.8c-4.5-4.2-10.9-5.4-16.6-3.1c-1.8,0.7-3.5,1.8-4.9,3.1
				c-1.4,1.4-2.5,3-3.3,4.8C-2307.4,2665.2-2307.4,2669.5-2305.8,2673.4z"/>
			<g id="Grupo_7_2_" transform="translate(3.537 126.423)">
				<path id="Trazado_11_2_" class="st9" d="M-2295.3,2597.2c-12,0-23.5,5-31.6,13.8h-17.4c16.5-27.1,51.8-35.7,78.9-19.3
					c7.9,4.8,14.5,11.4,19.3,19.3h-17.4C-2271.8,2602.2-2283.2,2597.2-2295.3,2597.2z"/>
			</g>
			<g id="Grupo_8_2_">
				<path id="Trazado_12_2_" class="st9" d="M-2320.3,2583.4l-24,25.2l9.9,9.4l14.1-14.8l19.1,20l19.1-20l19.1,20l24-25.2l-9.9-9.4
					l-14.1,14.8l-19.1-20l-19.1,20L-2320.3,2583.4z"/>
			</g>
		</g>
	</g>
	<g id="Grupo_26_2_" transform="translate(1324 684.328)">
		
			<rect id="Rectángulo_5-2_2_" x="-2299.5" y="2674.7" transform="matrix(0.7071 -0.7071 0.7071 0.7071 -2563.6331 -826.1536)" class="st9" width="40.8" height="13.7"/>
		<g id="Grupo_5-2_2_" transform="translate(0 0)">
			<rect id="Rectángulo_6-2_2_" x="-2298.4" y="2625.7" class="st9" width="98.2" height="13.7"/>
			<g id="Grupo_4-2_2_">
				<path id="Trazado_9-2_2_" class="st9" d="M-2330.6,2632.5c0-12-5-23.5-13.8-31.6v-17.4c17.2,10.4,27.7,29,27.6,49.1
					c0.1,20.1-10.4,38.7-27.6,49.1v-17.4C-2335.5,2656-2330.5,2644.5-2330.6,2632.5z"/>
			</g>
		</g>
	</g>
	<g id="Grupo_35_2_" transform="translate(0 186)">
		<path id="Trazado_8-2_2_" class="st9" d="M-1792.4,2764.4c-2.9,7-8.6,12.5-15.7,15.2c-7.8,2.9-16.4,2.9-24.2,0
			c-3.6-1.4-6.8-3.4-9.5-6.1c-2.7-2.6-4.8-5.7-6.2-9.1c-3-7.2-3-15.3,0-22.5c1.4-3.4,3.6-6.5,6.2-9.1c2.7-2.6,6-4.7,9.5-6.1
			c7.8-2.9,16.4-2.9,24.2,0c14.7,6,21.8,22.8,15.8,37.5C-1792.4,2764.2-1792.4,2764.3-1792.4,2764.4L-1792.4,2764.4z
			 M-1806.2,2747.2c-1.6-3.6-4.5-6.4-8.2-7.9c-5.7-2.3-12.2-1.1-16.6,3.1c-1.4,1.4-2.6,3-3.3,4.8c-1.6,3.8-1.6,8.1,0,11.9
			c0.8,1.8,1.9,3.4,3.3,4.8c1.4,1.4,3.1,2.4,4.9,3.1c3.8,1.5,8,1.5,11.7,0c1.8-0.7,3.5-1.8,4.9-3.1c1.4-1.4,2.5-3,3.3-4.8
			C-1804.6,2755.3-1804.6,2751-1806.2,2747.2L-1806.2,2747.2z"/>
		<rect id="Rectángulo_4-2_2_" x="-1827.1" y="2667.5" class="st9" width="13.7" height="40.9"/>
	</g>
	<g id="Grupo_6-2_2_" transform="translate(592.19 791.365) rotate(180)">
		
			<rect id="Rectángulo_5-3_2_" x="2389.2" y="-2491.9" transform="matrix(0.7071 -0.7071 0.7071 0.7071 2462.9875 975.9748)" class="st9" width="40.8" height="13.7"/>
		<g id="Grupo_5-3_2_">
			<rect id="Rectángulo_6-3_2_" x="2390.4" y="-2541.2" class="st9" width="98.2" height="13.7"/>
			<g id="Grupo_4-3_2_">
				<path id="Trazado_9-3_2_" class="st9" d="M2358.2-2534.3c0-12-5-23.5-13.8-31.7v-17.4c27.1,16.5,35.7,51.8,19.3,78.9
					c-4.8,7.9-11.4,14.5-19.3,19.3v-17.4C2353.2-2510.8,2358.2-2522.3,2358.2-2534.3z"/>
			</g>
		</g>
	</g>
	<g id="Grupo_27_2_" transform="translate(1339.463 279.083)">
		<path id="Trazado_10-2_2_" class="st9" d="M-2305.8,2673.4c1.6,3.6,4.5,6.4,8.2,7.9c1.9,0.8,3.9,1.1,5.9,1.1c4,0,7.9-1.5,10.8-4.2
			c1.4-1.4,2.6-3,3.4-4.8c0.8-1.9,1.2-3.9,1.2-6s-0.4-4.1-1.2-6c-0.8-1.8-1.9-3.4-3.4-4.8c-2.9-2.8-6.8-4.3-10.8-4.2
			c-2,0-4,0.4-5.9,1.1c-1.8,0.7-3.5,1.8-4.9,3.1c-1.4,1.4-2.5,3-3.3,4.8c-0.8,1.9-1.2,3.9-1.2,6
			C-2307.1,2669.4-2306.6,2671.5-2305.8,2673.4z"/>
		<g id="Grupo_7-2_2_" transform="translate(3.537 126.423)">
			<path id="Trazado_11-2_2_" class="st9" d="M-2295.3,2597.2c-12,0-23.5,5-31.6,13.8h-17.4c10.4-17.2,29-27.7,49.1-27.6
				c20.1-0.1,38.7,10.4,49.1,27.6h-17.4C-2271.8,2602.2-2283.2,2597.2-2295.3,2597.2z"/>
		</g>
		<g id="Grupo_8-2_2_">
			<path id="Trazado_12-2_2_" class="st9" d="M-2320.3,2583.4l-24,25.2l9.9,9.4l14.1-14.8l19.1,20l19.1-20l19.1,20l24-25.2l-9.9-9.4
				l-14.1,14.8l-19.1-20l-19.1,20L-2320.3,2583.4z"/>
		</g>
	</g>
	<g id="Grupo_25_2_" transform="translate(15.249)">
		<path id="Trazado_13_2_" class="st9" d="M-591.8,2764.4c-2.9,7-8.6,12.5-15.7,15.2c-7.8,2.9-16.4,2.9-24.2,0
			c-3.5-1.4-6.8-3.4-9.5-6.1c-2.7-2.6-4.8-5.7-6.2-9.1c-3-7.2-3-15.3,0-22.5c1.5-3.4,3.6-6.5,6.2-9.1c2.7-2.6,6-4.7,9.5-6.1
			c7.8-2.9,16.4-2.9,24.2,0c14.7,6,21.8,22.8,15.8,37.5C-591.8,2764.2-591.8,2764.3-591.8,2764.4L-591.8,2764.4z M-605.6,2747.2
			c-1.6-3.6-4.5-6.4-8.2-7.9c-3.8-1.5-8-1.5-11.7,0c-1.8,0.7-3.5,1.8-4.9,3.1c-1.4,1.4-2.6,3-3.3,4.8c-1.6,3.8-1.6,8.1,0,11.9
			c0.8,1.8,1.9,3.4,3.3,4.8c1.4,1.4,3.1,2.4,4.9,3.1c3.8,1.5,8,1.5,11.7,0c1.8-0.7,3.5-1.8,4.9-3.1c1.4-1.4,2.5-3,3.3-4.8
			C-604,2755.3-604,2751-605.6,2747.2z"/>
		<rect id="Rectángulo_7_2_" x="-626.5" y="2667.5" class="st9" width="13.7" height="40.9"/>
		<g id="Grupo_13_2_" transform="translate(1602.612 487.904)">
			
				<rect id="Rectángulo_8_2_" x="-2285.9" y="2595.8" transform="matrix(0.7071 -0.7071 0.7071 0.7071 -2503.8604 -839.6536)" class="st9" width="40.8" height="13.7"/>
			<g id="Grupo_12_2_" transform="translate(0 19.278)">
				<rect id="Rectángulo_9_2_" x="-2344.4" y="2625.7" class="st9" width="98.2" height="13.7"/>
				<g id="Grupo_11_2_" transform="translate(116.577)">
					<path id="Trazado_14_2_" class="st9" d="M-2330.6,2632.5c0,12,5,23.5,13.8,31.6v17.4c-27.1-16.5-35.7-51.8-19.3-78.9
						c4.8-7.9,11.4-14.5,19.3-19.3v17.4C-2325.6,2609-2330.6,2620.5-2330.6,2632.5z"/>
				</g>
			</g>
		</g>
		<g id="Grupo_16_2_" transform="translate(1645.084 856.573)">
			<path id="Trazado_15_2_" class="st9" d="M-2277.6,2647.6c-1.6-3.6-4.5-6.4-8.2-7.9c-5.7-2.3-12.2-1.1-16.6,3.1
				c-1.4,1.4-2.6,3-3.4,4.8c-1.6,3.8-1.6,8.1,0,11.9c0.8,1.8,1.9,3.4,3.4,4.8c1.4,1.4,3.1,2.4,4.9,3.1c3.8,1.5,8,1.5,11.7,0
				c1.8-0.7,3.5-1.8,4.9-3.1c1.4-1.4,2.5-3,3.3-4.8C-2276,2655.7-2276,2651.4-2277.6,2647.6L-2277.6,2647.6z"/>
			<g id="Grupo_14_2_" transform="translate(3.537)">
				<path id="Trazado_16_2_" class="st9" d="M-2295.3,2597.2c12,0,23.5-5,31.6-13.8h17.4c-16.5,27.1-51.8,35.7-78.9,19.3
					c-7.9-4.8-14.5-11.4-19.3-19.3h17.4C-2318.8,2592.3-2307.3,2597.3-2295.3,2597.2z"/>
			</g>
			<g id="Grupo_15_2_" transform="translate(0 114.188)">
				<path id="Trazado_17_2_" class="st9" d="M-2263.1,2623.3l24-25.2l-9.9-9.4l-14.1,14.8l-19.1-20l-19.1,20l-19.1-20l-24,25.2
					l9.9,9.4l14.1-14.8l19.1,20l19.1-20L-2263.1,2623.3z"/>
			</g>
		</g>
	</g>
</g>
<path id="Rectángulo_28_1_" class="st10" d="M-209.9-809.8H41.9c37.5,0,67.9,30.4,67.9,67.9l0,0c0,37.5-30.4,67.9-67.9,67.9h-251.8
	c-37.5,0-67.9-30.4-67.9-67.9l0,0C-277.8-779.4-247.4-809.8-209.9-809.8z"/>
<circle id="Elipse_18_1_" class="st5" cx="-105.2" cy="-744.5" r="6.1"/>
<ellipse id="Elipse_19_1_" transform="matrix(0.9982 -5.993202e-02 5.993202e-02 0.9982 44.5065 -5.102)" class="st5" cx="-62.8" cy="-744.5" rx="6.1" ry="6.1"/>
<line id="Línea_10_1_" class="st11" x1="-111.3" y1="-757.5" x2="-99.2" y2="-757.5"/>
<line id="Línea_11_1_" class="st11" x1="-68.8" y1="-757.5" x2="-56.7" y2="-757.5"/>
<line id="Línea_12_1_" class="st11" x1="-98" y1="-726.4" x2="-69" y2="-726.4"/>
<circle id="Elipse_20_1_" class="st5" cx="17.6" cy="-747.1" r="6.1"/>
<circle id="Elipse_21_1_" class="st5" cx="60" cy="-747.1" r="6.1"/>
<path id="Trazado_49_1_" class="st11" d="M24.8-721.8c0,0,13.2-16,29-0.3"/>
<line id="Línea_13_1_" class="st11" x1="11.9" y1="-757.9" x2="23.3" y2="-762.1"/>
<line id="Línea_14_1_" class="st11" x1="54.3" y1="-762.1" x2="65.7" y2="-757.9"/>
<circle id="Elipse_22_4_" class="st5" cx="-228.8" cy="-745.1" r="6.1"/>
<path id="Trazado_50_4_" class="st11" d="M-234.9-758c0-3.3,2.7-6.1,6.1-6.1s6.1,2.7,6.1,6.1"/>
<path id="Trazado_51_4_" class="st11" d="M-192.4-758c0-3.3,2.8-6,6.1-6s5.9,2.7,6,6"/>
<circle id="Elipse_23_4_" class="st5" cx="-186.4" cy="-745.1" r="6.1"/>
<path id="Trazado_52_4_" class="st11" d="M-192.6-727c0,0-13.2,16-29,0.3"/>
<ellipse id="Elipse_17_1_" transform="matrix(1.017198e-02 -0.9999 0.9999 1.017198e-02 1227.3975 -1382.9727)" class="st12" cx="-84.9" cy="-1311.5" rx="51.7" ry="51.7"/>
<circle id="Elipse_27_1_" class="st13" cx="569" cy="-1301.5" r="51.7"/>
<circle id="Elipse_34_1_" class="st14" cx="570" cy="-741.2" r="51.7"/>
<circle id="Elipse_17" class="st15" cx="1214.3" cy="-1030.1" r="51.7"/>
<g id="Grupo_206_1_" transform="translate(-761.504 -930.93)">
	<circle id="Elipse_51_1_" class="st8" cx="612.7" cy="1015.4" r="32.4"/>
	<g id="Grupo_106_1_" transform="translate(778.662 948.619)">
		<line id="Línea_31_1_" class="st1" x1="-150.8" y1="66.7" x2="-181.2" y2="66.7"/>
		<path id="Trazado_101_1_" class="st1" d="M-166.5,81.4l-14.7-14.7l14.7-14.7"/>
	</g>
</g>
<g id="Grupo_207_1_" transform="translate(-852.941 -931.283)">
	<path id="Rectángulo_65_1_" class="st8" d="M692.6,1555.4h150.9c17.7,0,32,14.3,32,32v0.1c0,17.7-14.3,32-32,32H692.6
		c-17.7,0-32-14.3-32-32v-0.1C660.6,1569.7,675,1555.4,692.6,1555.4z"/>
	<text transform="matrix(1 0 0 1 702.3064 1592.7372)" class="st4" style="font-family:'ArialMT'; font-size:21px;">Ver en Netflix</text>
</g>
<g id="Grupo_208" transform="translate(-1091.976 -930.93)">
	<circle id="Elipse_52" class="st8" cx="935.1" cy="1262.1" r="32.4"/>
	<g id="Grupo_108" transform="translate(1109.666 948.088)">
		<path id="Trazado_102" class="st1" d="M-185,309.4v19.8h20.9v-19.8"/>
		<path id="Trazado_103" class="st1" d="M-189.2,313.4l14.7-14.7l14.7,14.7"/>
	</g>
</g>
<g id="Grupo_209" transform="translate(-854.092 -931.284)">
	<path id="Rectángulo_109" class="st8" d="M1104.8,1555.4h150.9c17.7,0,32,14.3,32,32v0.1c0,17.7-14.3,32-32,32h-150.9
		c-17.7,0-32-14.3-32-32v-0.1C1072.8,1569.7,1087.1,1555.4,1104.8,1555.4z"/>
	<text transform="matrix(1 0 0 1 1104.6864 1592.7372)" class="st4" style="font-family:'ArialMT'; font-size:21px;">Abrir en Spotify</text>
</g>
<g id="Grupo_187" transform="translate(-198 -430)">
	<circle id="Elipse_27" class="st13" cx="788.7" cy="772.6" r="51.7"/>
	<circle id="Elipse_28" class="st5" cx="766.9" cy="767.5" r="6.1"/>
	<circle id="Elipse_29" class="st5" cx="809.4" cy="767.5" r="6.1"/>
	<path id="Trazado_54" class="st11" d="M774.2,792.8c0,0,13.2-16,29-0.3"/>
	<line id="Línea_19" class="st11" x1="761.2" y1="756.6" x2="772.6" y2="752.5"/>
	<line id="Línea_20" class="st11" x1="803.7" y1="752.5" x2="815.1" y2="756.6"/>
</g>
<circle id="Elipse_34" class="st13" cx="845.6" cy="342.6" r="51.7"/>
<path id="Trazado_186" class="st11" d="M866.8,340.1c0,11.6-9.4,20.9-20.9,20.9s-20.9-9.4-20.9-20.9"/>
<line id="Línea_40" class="st11" x1="845.9" y1="361.1" x2="845.9" y2="379.8"/>
<line id="Línea_41" class="st11" x1="833.1" y1="379.8" x2="859.1" y2="379.8"/>
<path id="Rectángulo_112" class="st11" d="M845.9,304.6L845.9,304.6c7,0,12.8,5.7,12.8,12.8v22.1c0,7-5.7,12.8-12.8,12.8l0,0
	c-7,0-12.8-5.7-12.8-12.8v-22.1C833.1,310.3,838.8,304.6,845.9,304.6z"/>
<line id="Línea_42" class="st11" x1="833.1" y1="319.2" x2="839.9" y2="319.2"/>
<line id="Línea_44" class="st11" x1="833.1" y1="328.2" x2="839.9" y2="328.2"/>
<line id="Línea_45" class="st11" x1="833.1" y1="337.2" x2="839.9" y2="337.2"/>
<line id="Línea_46" class="st11" x1="851.8" y1="319.2" x2="858.6" y2="319.2"/>
<line id="Línea_48" class="st11" x1="851.8" y1="328.2" x2="858.6" y2="328.2"/>
<line id="Línea_49" class="st11" x1="851.8" y1="337.2" x2="858.6" y2="337.2"/>
<circle id="Elipse_34_2_" class="st14" cx="1093.6" cy="342.6" r="51.7"/>
<path id="Trazado_186_1_" class="st11" d="M1114.8,340.1c0,11.6-9.4,20.9-20.9,20.9c-11.6,0-20.9-9.4-20.9-20.9"/>
<line id="Línea_40_1_" class="st11" x1="1093.9" y1="361.1" x2="1093.9" y2="379.8"/>
<line id="Línea_41_1_" class="st11" x1="1081.1" y1="379.8" x2="1107.1" y2="379.8"/>
<path id="Rectángulo_112_1_" class="st11" d="M1093.9,304.6L1093.9,304.6c7.1,0,12.8,5.7,12.8,12.8v22.1c0,7-5.7,12.8-12.8,12.8
	l0,0c-7.1,0-12.8-5.7-12.8-12.8v-22.1C1081.1,310.3,1086.8,304.6,1093.9,304.6z"/>
<line id="Línea_42_1_" class="st11" x1="1081.1" y1="319.2" x2="1087.9" y2="319.2"/>
<line id="Línea_44_1_" class="st11" x1="1081.1" y1="328.2" x2="1087.9" y2="328.2"/>
<line id="Línea_45_1_" class="st11" x1="1081.1" y1="337.2" x2="1087.9" y2="337.2"/>
<line id="Línea_46_1_" class="st11" x1="1099.8" y1="319.2" x2="1106.6" y2="319.2"/>
<line id="Línea_48_1_" class="st11" x1="1099.8" y1="328.2" x2="1106.6" y2="328.2"/>
<line id="Línea_49_1_" class="st11" x1="1099.8" y1="337.2" x2="1106.6" y2="337.2"/>
<circle id="Elipse_27-2" class="st10" cx="590.7" cy="343.6" r="51.7"/>
<circle id="Elipse_28-2" class="st5" cx="568.9" cy="338.5" r="6.1"/>
<circle id="Elipse_29-2" class="st5" cx="611.4" cy="338.5" r="6.1"/>
<path id="Trazado_54-2" class="st11" d="M576.2,363.8c0,0,13.2-16,29-0.3"/>
<line id="Línea_19-2" class="st11" x1="563.2" y1="327.6" x2="574.6" y2="323.5"/>
<line id="Línea_20-2" class="st11" x1="605.7" y1="323.5" x2="617.1" y2="327.6"/>
<circle id="Elipse_27-2_2_" class="st13" cx="845.7" cy="84.6" r="51.7"/>
<circle id="Elipse_22_3_" class="st5" cx="824.7" cy="81.2" r="6.1"/>
<path id="Trazado_50_3_" class="st11" d="M818.7,68.3c0-3.3,2.7-6.1,6.1-6.1s6.1,2.7,6.1,6.1"/>
<path id="Trazado_51_3_" class="st11" d="M861.1,68.3c0-3.3,2.8-6,6.1-6s5.9,2.7,6,6"/>
<circle id="Elipse_23_3_" class="st5" cx="867.2" cy="81.2" r="6.1"/>
<path id="Trazado_52_3_" class="st11" d="M861,99.3c0,0-13.2,16.1-29,0.3"/>
<circle id="Elipse_33" class="st13" cx="1096.5" cy="87.5" r="51.7"/>
<g id="Grupo_173" transform="translate(-524.864 -221.357)">
	<path id="Trazado_187" class="st16" d="M1608.4,291"/>
	<path id="Trazado_188" class="st11" d="M1644.8,287c0-2.4-1.7-4.5-4-4.9c-0.2-2.6-2.4-4.6-5-4.6c-0.2,0-0.5,0-0.8,0.1
		c-4.4-1.1-8.6-3-12.3-5.6c-2.4,0-4.5,1.7-4.9,4.1c-2.5,2.5-6.4,2.9-9.4,1c-2.8,0-5,2.2-5,5l0,0l0,0c-0.2,0-0.4,0-0.7,0
		c-2.8,0-5,2.2-5,5l0,0"/>
	<g id="Grupo_172">
		<path id="Trazado_189" class="st11" d="M1640.1,345.4h-37.3l-4.1-43.4h45.3L1640.1,345.4z"/>
		<circle id="Elipse_68" class="st11" cx="1621.3" cy="323.7" r="10.4"/>
		<line id="Línea_50" class="st11" x1="1612.7" y1="302" x2="1613.2" y2="317.2"/>
		<line id="Línea_51" class="st11" x1="1629.8" y1="302" x2="1629.3" y2="317.2"/>
		<line id="Línea_52" class="st11" x1="1613.6" y1="330.7" x2="1614.1" y2="345.4"/>
		<line id="Línea_53" class="st11" x1="1628.8" y1="330.7" x2="1628.3" y2="345.4"/>
		<rect id="Rectángulo_113" x="1596.6" y="293.6" class="st11" width="49.7" height="8.4"/>
	</g>
	<path id="Trazado_190" class="st11" d="M1610.2,286.7c0.8-2,3.1-3,5.1-2.2"/>
	<path id="Trazado_191" class="st11" d="M1627.8,283.5c2.1-0.7,4.3,0.4,5,2.4"/>
</g>
<g id="Grupo_187_1_" transform="translate(-198 -430)">
	<circle id="Elipse_27_2_" class="st13" cx="285.7" cy="772.6" r="51.7"/>
	<circle id="Elipse_28_1_" class="st5" cx="263.9" cy="767.5" r="6.1"/>
	<circle id="Elipse_29_1_" class="st5" cx="306.4" cy="767.5" r="6.1"/>
	<path id="Trazado_54_1_" class="st11" d="M271.2,792.8c0,0,13.2-16,29-0.3"/>
	<line id="Línea_19_1_" class="st11" x1="258.2" y1="756.6" x2="269.6" y2="752.5"/>
	<line id="Línea_20_1_" class="st11" x1="300.7" y1="752.5" x2="312.1" y2="756.6"/>
</g>
<circle id="Elipse_27-2_3_" class="st17" cx="87.7" cy="343.6" r="51.7"/>
<circle id="Elipse_28-2_1_" class="st5" cx="65.9" cy="338.5" r="6.1"/>
<circle id="Elipse_29-2_1_" class="st5" cx="108.4" cy="338.5" r="6.1"/>
<path id="Trazado_54-2_1_" class="st11" d="M73.2,363.8c0,0,13.2-16,29-0.3"/>
<line id="Línea_19-2_1_" class="st11" x1="60.2" y1="327.6" x2="71.6" y2="323.5"/>
<line id="Línea_20-2_1_" class="st11" x1="102.7" y1="323.5" x2="114.1" y2="327.6"/>
<circle id="Elipse_27-2_1_" class="st17" cx="342.7" cy="84.6" r="51.7"/>
<circle id="Elipse_22_1_" class="st5" cx="321.7" cy="81.2" r="6.1"/>
<path id="Trazado_50_1_" class="st11" d="M315.7,68.3c0-3.3,2.7-6.1,6.1-6.1s6.1,2.7,6.1,6.1"/>
<path id="Trazado_51_1_" class="st11" d="M358.1,68.3c0-3.3,2.8-6,6.1-6c3.3,0,5.9,2.7,6,6"/>
<circle id="Elipse_23_1_" class="st5" cx="364.2" cy="81.2" r="6.1"/>
<path id="Trazado_52_1_" class="st11" d="M358,99.3c0,0-13.2,16.1-29,0.3"/>
<circle id="Elipse_33_1_" class="st14" cx="1340.5" cy="87.5" r="51.7"/>
<g id="Grupo_173_1_" transform="translate(-524.864 -221.357)">
	<path id="Trazado_187_1_" class="st16" d="M1852.4,291"/>
	<path id="Trazado_188_1_" class="st11" d="M1888.8,287c0-2.4-1.7-4.5-4-4.9c-0.2-2.6-2.4-4.6-5-4.6c-0.2,0-0.5,0-0.8,0.1
		c-4.4-1.1-8.6-3-12.3-5.6c-2.4,0-4.5,1.7-4.9,4.1c-2.5,2.5-6.4,2.9-9.4,1c-2.8,0-5,2.2-5,5l0,0l0,0c-0.2,0-0.4,0-0.7,0
		c-2.8,0-5,2.2-5,5l0,0"/>
	<g id="Grupo_172_1_">
		<path id="Trazado_189_1_" class="st11" d="M1884.1,345.4h-37.3l-4.1-43.4h45.3L1884.1,345.4z"/>
		<circle id="Elipse_68_1_" class="st11" cx="1865.3" cy="323.7" r="10.4"/>
		<line id="Línea_50_1_" class="st11" x1="1856.7" y1="302" x2="1857.2" y2="317.2"/>
		<line id="Línea_51_1_" class="st11" x1="1873.8" y1="302" x2="1873.3" y2="317.2"/>
		<line id="Línea_52_1_" class="st11" x1="1857.6" y1="330.7" x2="1858.1" y2="345.4"/>
		<line id="Línea_53_1_" class="st11" x1="1872.8" y1="330.7" x2="1872.3" y2="345.4"/>
		<rect id="Rectángulo_113_1_" x="1840.6" y="293.6" class="st11" width="49.7" height="8.4"/>
	</g>
	<path id="Trazado_190_1_" class="st11" d="M1854.2,286.7c0.8-2,3.1-3,5.1-2.2"/>
	<path id="Trazado_191_1_" class="st11" d="M1871.8,283.5c2.1-0.7,4.3,0.4,5,2.4"/>
</g>
<g id="Grupo_188_2_" transform="translate(152 -432)">
	<circle id="Elipse_34_3_" class="st17" cx="190.6" cy="774.6" r="51.7"/>
	<g id="Grupo_174_2_" transform="translate(2.001)">
		<path id="Trazado_186_3_" class="st18" d="M209.8,772.1c0,11.6-9.4,20.9-20.9,20.9s-20.9-9.4-20.9-20.9"/>
		<line id="Línea_40_3_" class="st11" x1="188.9" y1="793.1" x2="188.9" y2="811.8"/>
		<line id="Línea_41_3_" class="st11" x1="176.1" y1="811.8" x2="202.1" y2="811.8"/>
		<path id="Rectángulo_112_3_" class="st18" d="M188.9,736.6L188.9,736.6c7.1,0,12.8,5.7,12.8,12.8v22.1c0,7-5.7,12.8-12.8,12.8
			l0,0c-7.1,0-12.8-5.7-12.8-12.8v-22.1C176.1,742.3,181.8,736.6,188.9,736.6z"/>
		<line id="Línea_42_3_" class="st11" x1="176.1" y1="751.2" x2="182.9" y2="751.2"/>
		<line id="Línea_44_3_" class="st11" x1="176.1" y1="760.2" x2="182.9" y2="760.2"/>
		<line id="Línea_45_3_" class="st11" x1="176.1" y1="769.2" x2="182.9" y2="769.2"/>
		<line id="Línea_46_3_" class="st11" x1="194.8" y1="751.2" x2="201.6" y2="751.2"/>
		<line id="Línea_48_3_" class="st11" x1="194.8" y1="760.2" x2="201.6" y2="760.2"/>
		<line id="Línea_49_3_" class="st11" x1="194.8" y1="769.2" x2="201.6" y2="769.2"/>
	</g>
</g>
<circle id="Elipse_33_2_" class="st17" cx="593.5" cy="87.5" r="51.7"/>
<g id="Grupo_173_3_" transform="translate(-524.864 -221.357)">
	<path id="Trazado_187_3_" class="st16" d="M1105.4,291"/>
	<path id="Trazado_188_3_" class="st11" d="M1141.8,287c0-2.4-1.7-4.5-4-4.9c-0.2-2.6-2.4-4.6-5-4.6c-0.2,0-0.5,0-0.8,0.1
		c-4.4-1.1-8.6-3-12.3-5.6c-2.4,0-4.5,1.7-4.9,4.1c-2.5,2.5-6.4,2.9-9.4,1c-2.8,0-5,2.2-5,5l0,0l0,0c-0.2,0-0.4,0-0.7,0
		c-2.8,0-5,2.2-5,5l0,0"/>
	<g id="Grupo_172_3_">
		<path id="Trazado_189_3_" class="st11" d="M1137.1,345.4h-37.3l-4.1-43.4h45.3L1137.1,345.4z"/>
		<circle id="Elipse_68_3_" class="st11" cx="1118.3" cy="323.7" r="10.4"/>
		<line id="Línea_50_3_" class="st11" x1="1109.7" y1="302" x2="1110.2" y2="317.2"/>
		<line id="Línea_51_3_" class="st11" x1="1126.8" y1="302" x2="1126.3" y2="317.2"/>
		<line id="Línea_52_3_" class="st11" x1="1110.6" y1="330.7" x2="1111.1" y2="345.4"/>
		<line id="Línea_53_3_" class="st11" x1="1125.8" y1="330.7" x2="1125.3" y2="345.4"/>
		<rect id="Rectángulo_113_3_" x="1093.6" y="293.6" class="st11" width="49.7" height="8.4"/>
	</g>
	<path id="Trazado_190_3_" class="st11" d="M1107.2,286.7c0.8-2,3.1-3,5.1-2.2"/>
	<path id="Trazado_191_3_" class="st11" d="M1124.8,283.5c2.1-0.7,4.3,0.4,5,2.4"/>
</g>
<path id="Rectángulo_37_1_" class="st15" d="M-140.6,1409.8h129c37.5,0,67.9,30.4,67.9,67.9l0,0c0,37.5-30.4,67.9-67.9,67.9h-129
	c-37.5,0-67.9-30.4-67.9-67.9l0,0C-208.5,1440.2-178.1,1409.8-140.6,1409.8z"/>
<g id="Grupo_174_1_" transform="translate(-820.998 -467.103)">
	<path id="Trazado_186_4_" class="st11" d="M704.3,1942.3c0,11.6-9.4,20.9-20.9,20.9s-20.9-9.4-20.9-20.9"/>
	<line id="Línea_40_4_" class="st11" x1="683.4" y1="1963.3" x2="683.4" y2="1982"/>
	<line id="Línea_41_4_" class="st11" x1="670.7" y1="1982" x2="696.7" y2="1982"/>
	<path id="Rectángulo_112_4_" class="st11" d="M683.4,1906.8L683.4,1906.8c7,0,12.8,5.7,12.8,12.8v22.1c0,7.1-5.7,12.8-12.8,12.8
		l0,0c-7,0-12.8-5.7-12.8-12.8v-22.1C670.7,1912.5,676.4,1906.8,683.4,1906.8z"/>
	<line id="Línea_42_4_" class="st11" x1="670.7" y1="1921.4" x2="677.5" y2="1921.4"/>
	<line id="Línea_44_4_" class="st11" x1="670.7" y1="1930.4" x2="677.5" y2="1930.4"/>
	<line id="Línea_45_4_" class="st11" x1="670.7" y1="1939.4" x2="677.5" y2="1939.4"/>
	<line id="Línea_46_4_" class="st11" x1="689.3" y1="1921.4" x2="696.2" y2="1921.4"/>
	<line id="Línea_48_4_" class="st11" x1="689.3" y1="1930.4" x2="696.2" y2="1930.4"/>
	<line id="Línea_49_4_" class="st11" x1="689.3" y1="1939.4" x2="696.2" y2="1939.4"/>
</g>
<g id="Grupo_173_4_" transform="translate(-535.864 214.643)">
	<path id="Trazado_187_4_" class="st16" d="M508.2,1245.1"/>
	<path id="Trazado_188_4_" class="st11" d="M544.6,1241.1c0-2.4-1.7-4.4-4-4.9c-0.2-2.6-2.4-4.6-5-4.6c-0.2,0-0.5,0-0.8,0.1
		c-4.4-1.1-8.5-3-12.3-5.6c-2.4,0-4.5,1.7-4.9,4.1c-2.5,2.5-6.4,2.9-9.4,1c-2.8,0-5,2.2-5,5l0,0c0,0,0,0,0,0.1
		c-0.2,0-0.5-0.1-0.7-0.1c-2.8,0-5,2.2-5,5l0,0"/>
	<g id="Grupo_172_4_">
		<path id="Trazado_189_4_" class="st11" d="M539.9,1299.6h-37.3l-4.1-43.4h45.3L539.9,1299.6z"/>
		
			<ellipse id="Elipse_68_4_" transform="matrix(0.3827 -0.9239 0.9239 0.3827 -858.9722 1270.3022)" class="st19" cx="521.1" cy="1277.9" rx="10.4" ry="10.4"/>
		<line id="Línea_50_4_" class="st11" x1="512.5" y1="1256.2" x2="513" y2="1271.4"/>
		<line id="Línea_51_4_" class="st11" x1="529.6" y1="1256.2" x2="529.1" y2="1271.3"/>
		<line id="Línea_52_4_" class="st11" x1="513.4" y1="1284.8" x2="513.9" y2="1299.6"/>
		<line id="Línea_53_4_" class="st11" x1="528.6" y1="1284.8" x2="528.2" y2="1299.6"/>
		<rect id="Rectángulo_113_4_" x="496.4" y="1247.8" class="st11" width="49.6" height="8.4"/>
	</g>
	<path id="Trazado_190_4_" class="st11" d="M510,1240.9c0.8-2,3.1-3,5.1-2.2"/>
	<path id="Trazado_191_4_" class="st11" d="M527.6,1237.6c2-0.7,4.3,0.3,5,2.4"/>
</g>
<circle id="Elipse_53_1_" class="st4" cx="-288.3" cy="1860.1" r="25.7"/>
<path id="Rectángulo_73_1_" class="st8" d="M-288.3,1849.3L-288.3,1849.3c1,0,1.8,0.8,1.8,1.8v17.9c0,1-0.8,1.8-1.8,1.8l0,0
	c-1,0-1.8-0.8-1.8-1.8v-17.9C-290,1850.1-289.2,1849.3-288.3,1849.3z"/>
<path id="Rectángulo_74_1_" class="st8" d="M-277.5,1860.1L-277.5,1860.1c0,1-0.8,1.8-1.8,1.8h-17.9c-1,0-1.8-0.8-1.8-1.8l0,0
	c0-1,0.8-1.8,1.8-1.8h17.9C-278.3,1858.3-277.5,1859.1-277.5,1860.1z"/>
<ellipse id="Elipse_60" transform="matrix(2.940342e-02 -0.9996 0.9996 2.940342e-02 -1937.8711 1720.0712)" class="st8" cx="-83.2" cy="1857.9" rx="25.7" ry="25.7"/>
<path id="Rectángulo_97" class="st4" d="M-83.3,1847.2L-83.3,1847.2c1,0,1.8,0.8,1.8,1.8v17.9c0,1-0.8,1.8-1.8,1.8l0,0
	c-1,0-1.8-0.8-1.8-1.8V1849C-85,1848-84.2,1847.2-83.3,1847.2z"/>
<path id="Rectángulo_98" class="st4" d="M-72.5,1857.9L-72.5,1857.9c0,1-0.8,1.8-1.8,1.8h-17.9c-1,0-1.8-0.8-1.8-1.8l0,0
	c0-1,0.8-1.8,1.8-1.8h17.9C-73.3,1856.2-72.5,1856.9-72.5,1857.9z"/>
<path id="Trazado_124_1_" class="st4" d="M-213.9,2924c19.6,0,35.5-15.9,35.5-35.5c0.1-56.3,45.7-101.9,101.9-101.9
	c56.3,0.1,101.9,45.7,101.9,101.9c0,19.6,15.9,35.5,35.5,35.5s35.5-15.9,35.5-35.5c0.1-45.9-18.1-89.9-50.6-122.2
	c-32.3-32.5-76.4-50.8-122.2-50.6c-45.9-0.1-89.9,18.1-122.2,50.6c-32.5,32.4-50.8,76.4-50.6,122.2
	C-249.4,2908.1-233.5,2924-213.9,2924L-213.9,2924z"/>
<g>
	<g id="Grupo_132_1_" transform="translate(47.033 54.45)">
		<path id="Trazado_125_1_" class="st8" d="M-127.2,3392.5c6.6,0,12.9,2.7,17.4,7.6h9.6c-5.7-9.5-15.9-15.2-27-15.2
			c-11.1-0.1-21.3,5.7-27,15.2h9.6C-140.1,3395.3-133.8,3392.5-127.2,3392.5z"/>
	</g>
	<path id="Trazado_126_1_" class="st8" d="M-154.2,3431.5l5.1-30.1h7.7l6,16.1l5.9-16.1h7.7l5.1,30.1h-7.7l-2.6-17.3l-7.1,17.3h-3.1
		l-6.7-17.3l-2.6,17.3H-154.2z"/>
	<path id="Trazado_127_1_" class="st8" d="M-115.1,3415.7c0-2.1,0.4-4.2,1.2-6.2c0.8-1.9,1.9-3.6,3.4-5s3.3-2.6,5.2-3.4
		c2.1-0.8,4.4-1.2,6.7-1.2c2.3,0,4.5,0.4,6.7,1.2c1.9,0.8,3.7,1.9,5.2,3.4c1.5,1.4,2.6,3.1,3.4,5c0.8,2,1.2,4.1,1.2,6.2
		c0,2.1-0.4,4.2-1.2,6.2c-0.8,1.9-2,3.6-3.4,5c-1.5,1.4-3.3,2.6-5.2,3.4c-2.1,0.8-4.4,1.2-6.7,1.2c-2.3,0-4.6-0.4-6.7-1.2
		c-1.9-0.8-3.7-1.9-5.2-3.4c-1.5-1.4-2.6-3.1-3.4-5C-114.7,3420-115.1,3417.9-115.1,3415.7z M-106.9,3415.7c0,1.1,0.2,2.2,0.7,3.3
		c0.4,1,1.1,1.9,1.8,2.6c0.8,0.7,1.7,1.3,2.7,1.7s2.1,0.6,3.2,0.6s2.2-0.2,3.2-0.6c1-0.4,1.9-1,2.7-1.7s1.4-1.6,1.8-2.6
		c0.5-1,0.7-2.2,0.7-3.3s-0.2-2.2-0.7-3.3c-0.4-1-1.1-1.9-1.8-2.6s-1.7-1.3-2.7-1.7s-2.1-0.6-3.2-0.6s-2.2,0.2-3.2,0.6
		c-1,0.4-1.9,1-2.7,1.7c-0.8,0.8-1.4,1.6-1.8,2.6C-106.7,3413.5-106.9,3414.6-106.9,3415.7z"/>
	<path id="Trazado_128_1_" class="st8" d="M-78.1,3415.7c0-2.1,0.4-4.2,1.2-6.2c0.8-1.9,1.9-3.6,3.4-5s3.3-2.6,5.2-3.4
		c2.1-0.8,4.4-1.2,6.7-1.2s4.5,0.4,6.7,1.2c2,0.8,3.7,1.9,5.2,3.4c1.5,1.4,2.6,3.1,3.4,5c0.8,2,1.2,4.1,1.2,6.2
		c0,2.1-0.4,4.2-1.2,6.2c-0.8,1.9-2,3.6-3.4,5c-1.5,1.5-3.3,2.6-5.2,3.4c-2.1,0.8-4.4,1.2-6.7,1.2s-4.6-0.4-6.7-1.2
		c-1.9-0.8-3.7-1.9-5.2-3.4c-1.5-1.4-2.6-3.1-3.4-5C-77.7,3420-78.1,3417.9-78.1,3415.7z M-69.9,3415.7c0,1.1,0.2,2.2,0.7,3.3
		c0.4,1,1.1,1.9,1.8,2.6c0.8,0.7,1.7,1.3,2.7,1.7s2.1,0.6,3.2,0.6c1.1,0,2.2-0.2,3.2-0.6c1-0.4,1.9-1,2.7-1.7s1.4-1.6,1.8-2.6
		c0.5-1,0.7-2.2,0.7-3.3s-0.2-2.2-0.7-3.3c-0.4-1-1.1-1.9-1.8-2.6s-1.7-1.3-2.7-1.7s-2.1-0.6-3.2-0.6c-1.1,0-2.2,0.2-3.2,0.6
		c-1,0.4-1.9,1-2.7,1.7c-0.8,0.8-1.4,1.6-1.8,2.6C-69.7,3413.5-70,3414.6-69.9,3415.7L-69.9,3415.7z"/>
	<path id="Trazado_129_1_" class="st8" d="M-41.1,3401.4h11.5c2,0,3.9,0.4,5.7,1.2c1.8,0.8,3.3,1.9,4.7,3.3c1.3,1.4,2.4,3,3.1,4.8
		c0.8,1.8,1.1,3.8,1.1,5.7s-0.4,3.9-1.1,5.7s-1.8,3.4-3.1,4.8c-1.3,1.4-2.9,2.5-4.7,3.3c-1.8,0.8-3.8,1.2-5.8,1.2h-11.5
		L-41.1,3401.4L-41.1,3401.4z M-33.3,3424.9h1.8c1.2,0,2.5-0.2,3.6-0.6c1-0.4,1.9-1,2.7-1.8c0.7-0.8,1.3-1.7,1.7-2.6
		c0.4-1.1,0.6-2.2,0.6-3.4c0-1.1-0.2-2.3-0.6-3.4c-0.4-1-0.9-1.9-1.7-2.7c-0.8-0.8-1.7-1.4-2.7-1.8c-1.1-0.4-2.4-0.7-3.6-0.6h-1.8
		V3424.9z"/>
	<rect id="Rectángulo_83_1_" x="-107.1" y="3384.9" class="st8" width="22.5" height="7.5"/>
	<rect id="Rectángulo_84_1_" x="-75.4" y="3384.9" class="st8" width="22.5" height="7.5"/>
</g>
<g>
	<g id="Grupo_98" transform="translate(47.035 54.451)">
		<path id="Trazado_90" class="st8" d="M477.7,3096.3c-6.6,0-12.9-2.7-17.4-7.6h-9.6c9.1,14.9,28.5,19.7,43.4,10.6
			c4.3-2.6,8-6.3,10.6-10.6h-9.6C490.6,3093.6,484.3,3096.3,477.7,3096.3z"/>
	</g>
	<path id="Trazado_91" class="st8" d="M450.6,3135.3l5.1-30.1h7.7l6,16.1l5.9-16.1h7.7l5.1,30.1h-7.7l-2.6-17.3l-7,17.3h-3.1
		L461,3118l-2.6,17.3H450.6z"/>
	<path id="Trazado_92" class="st8" d="M489.8,3119.5c-0.1-6.4,3.8-12.2,9.8-14.6c4.3-1.6,9-1.6,13.3,0c2,0.8,3.7,1.9,5.2,3.4
		c1.5,1.4,2.6,3.1,3.4,5c1.6,4,1.6,8.4,0,12.4c-0.8,1.9-2,3.6-3.4,5c-1.5,1.4-3.3,2.6-5.2,3.4c-4.3,1.6-9,1.6-13.3,0
		C493.6,3131.7,489.7,3125.9,489.8,3119.5L489.8,3119.5z M497.9,3119.5c0,1.1,0.2,2.2,0.7,3.3c0.9,2,2.5,3.5,4.5,4.3
		c3.1,1.3,6.7,0.6,9.1-1.7c0.8-0.7,1.4-1.6,1.8-2.6c0.9-2.1,0.9-4.5,0-6.6c-0.4-1-1.1-1.9-1.8-2.6c-0.8-0.7-1.7-1.3-2.7-1.7
		c-2.1-0.8-4.4-0.8-6.5,0c-1,0.4-1.9,1-2.7,1.7c-0.8,0.8-1.4,1.6-1.8,2.6C498.1,3117.3,497.9,3118.4,497.9,3119.5z"/>
	<path id="Trazado_93" class="st8" d="M526.7,3119.5c-0.1-6.4,3.8-12.2,9.8-14.6c4.3-1.6,9-1.6,13.3,0c2,0.8,3.7,1.9,5.2,3.4
		c1.5,1.4,2.6,3.1,3.4,5c1.6,4,1.6,8.4,0,12.4c-0.8,1.9-2,3.6-3.4,5c-1.5,1.4-3.3,2.6-5.2,3.4c-4.3,1.6-9,1.6-13.3,0
		C530.6,3131.7,526.7,3125.9,526.7,3119.5L526.7,3119.5z M534.9,3119.5c0,1.1,0.2,2.2,0.7,3.3c0.9,2,2.5,3.5,4.5,4.3
		c2.1,0.8,4.4,0.8,6.5,0c1-0.4,1.9-1,2.7-1.7s1.4-1.6,1.8-2.6c0.9-2.1,0.9-4.5,0-6.6c-0.4-1-1.1-1.9-1.8-2.6
		c-0.8-0.7-1.7-1.3-2.7-1.7c-2.1-0.8-4.4-0.8-6.5,0c-1,0.4-1.9,1-2.7,1.7c-0.8,0.8-1.4,1.6-1.8,2.6
		C535.1,3117.3,534.8,3118.4,534.9,3119.5z"/>
	<path id="Trazado_94" class="st8" d="M563.7,3105.2h11.5c2,0,3.9,0.4,5.7,1.2s3.3,1.9,4.7,3.3c1.3,1.4,2.4,3,3.2,4.8
		c1.5,3.6,1.5,7.8,0,11.4c-0.7,1.8-1.8,3.4-3.1,4.8c-1.3,1.4-2.9,2.5-4.7,3.3s-3.8,1.2-5.8,1.2h-11.5L563.7,3105.2L563.7,3105.2z
		 M571.5,3128.6h1.8c1.2,0,2.5-0.2,3.6-0.6c1-0.4,1.9-1,2.7-1.8c0.7-0.8,1.3-1.7,1.7-2.7c0.4-1.1,0.6-2.2,0.6-3.4
		c0-1.1-0.2-2.3-0.6-3.4c-0.7-2-2.3-3.7-4.4-4.4c-1.1-0.4-2.3-0.7-3.6-0.6h-1.8V3128.6z"/>
	<rect id="Rectángulo_56" x="497.7" y="3088.7" class="st8" width="22.5" height="7.5"/>
	<rect id="Rectángulo_57" x="529.4" y="3088.7" class="st8" width="22.5" height="7.5"/>
</g>
</svg>
