<svg id="Capa_1" data-name="Capa 1" xmlns="http://www.w3.org/2000/svg" viewBox="0 0 120 149"><defs><style>.cls-1{fill:#f4b05a;stroke:#1e335b;stroke-miterlimit:10;stroke-width:10px;}.cls-2{fill:none;stroke:#002e61;stroke-linecap:round;stroke-linejoin:round;stroke-width:5px;}</style></defs><title>CC</title><circle id="Elipse_34" data-name="Elipse 34" class="cls-1" cx="60" cy="74.5" r="51.74"/><path id="Trazado_186" data-name="Trazado 186" class="cls-2" d="M81.16,72a20.94,20.94,0,0,1-41.87,0"/><line id="Línea_40" data-name="Línea 40" class="cls-2" x1="60.23" y1="93" x2="60.23" y2="111.66"/><line id="Línea_41" data-name="Línea 41" class="cls-2" x1="47.47" y1="111.66" x2="73.46" y2="111.66"/><path id="Rectángulo_112" data-name="Rectángulo 112" class="cls-2" d="M60.23,36.5h0A12.76,12.76,0,0,1,73,49.26V71.33A12.76,12.76,0,0,1,60.23,84.09h0A12.76,12.76,0,0,1,47.47,71.33V49.26A12.76,12.76,0,0,1,60.23,36.5Z"/><line id="Línea_42" data-name="Línea 42" class="cls-2" x1="47.47" y1="51.1" x2="54.29" y2="51.1"/><line id="Línea_44" data-name="Línea 44" class="cls-2" x1="47.47" y1="60.08" x2="54.29" y2="60.08"/><line id="Línea_45" data-name="Línea 45" class="cls-2" x1="47.47" y1="69.06" x2="54.29" y2="69.06"/><line id="Línea_46" data-name="Línea 46" class="cls-2" x1="66.16" y1="51.1" x2="72.98" y2="51.1"/><line id="Línea_48" data-name="Línea 48" class="cls-2" x1="66.16" y1="60.08" x2="72.98" y2="60.08"/><line id="Línea_49" data-name="Línea 49" class="cls-2" x1="66.16" y1="69.06" x2="72.98" y2="69.06"/></svg>