<svg id="Capa_1" data-name="Capa 1" xmlns="http://www.w3.org/2000/svg" viewBox="0 0 120 149"><defs><style>.cls-1{fill:#f5b15a;stroke-miterlimit:10;stroke-width:10px;}.cls-1,.cls-2{stroke:#002e61;}.cls-2{fill:none;stroke-linecap:round;stroke-linejoin:round;stroke-width:5px;}</style></defs><title>CP</title><circle id="Elipse_33" data-name="Elipse 33" class="cls-1" cx="60" cy="74.5" r="51.74"/><g id="Grupo_173" data-name="Grupo 173"><path id="Trazado_188" data-name="Trazado 188" class="cls-2" d="M83.49,52.58a5,5,0,0,0-4-4.93,5,5,0,0,0-5-4.63,4.74,4.74,0,0,0-.75.06,38.54,38.54,0,0,1-12.29-5.59,5,5,0,0,0-4.94,4.07,7.6,7.6,0,0,1-9.39,1,5,5,0,0,0-5,5h0v.05a5.19,5.19,0,0,0-.68-.05,5,5,0,0,0-5,5h0"/><g id="Grupo_172" data-name="Grupo 172"><path id="Trazado_189" data-name="Trazado 189" class="cls-2" d="M78.78,111H41.46L37.4,67.59H82.74Z"/><circle id="Elipse_68" data-name="Elipse 68" class="cls-2" cx="59.94" cy="89.31" r="10.36"/><line id="Línea_50" data-name="Línea 50" class="cls-2" x1="51.36" y1="67.59" x2="51.85" y2="82.84"/><line id="Línea_51" data-name="Línea 51" class="cls-2" x1="68.48" y1="67.59" x2="67.97" y2="82.77"/><line id="Línea_52" data-name="Línea 52" class="cls-2" x1="52.27" y1="96.28" x2="52.74" y2="111.03"/><line id="Línea_53" data-name="Línea 53" class="cls-2" x1="67.52" y1="96.28" x2="67.02" y2="111.03"/><rect id="Rectángulo_113" data-name="Rectángulo 113" class="cls-2" x="35.22" y="59.23" width="49.65" height="8.36"/></g><path id="Trazado_190" data-name="Trazado 190" class="cls-2" d="M48.83,52.3A4,4,0,0,1,54,50.09"/><path id="Trazado_191" data-name="Trazado 191" class="cls-2" d="M66.44,49.05a3.94,3.94,0,0,1,5,2.4"/></g></svg>