<svg id="Capa_1" data-name="Capa 1" xmlns="http://www.w3.org/2000/svg" viewBox="0 0 475.14 475.14"><defs><style>.cls-1,.cls-2,.cls-4{fill:#e3d7ce;}.cls-1,.cls-4{stroke:#20345b;}.cls-1{stroke-miterlimit:10;stroke-width:20px;}.cls-3{fill:#20345b;}.cls-4{stroke-linecap:round;stroke-linejoin:round;stroke-width:6.9px;}</style></defs><title>David Bowie</title><g id="Elipse_27-2" data-name="Elipse 27-2"><circle class="cls-1" cx="237.57" cy="237.57" r="227.57"/></g><g id="Elipse_27-2-2" data-name="Elipse 27-2"><ellipse class="cls-2" cx="238.96" cy="196.97" rx="66" ry="77.17"/><path class="cls-3" d="M251.39,290c-38.29,0-69.45-36.17-69.45-80.62,0-2.63,0-5.23,0-7.8-.17-23.25-.32-43.34,13.19-56.95,10.75-10.83,28.64-15.87,56.29-15.87,31.63,0,50.92,7.72,60.71,24.3,8.73,14.77,8.73,34.95,8.73,56.32C320.83,253.85,289.68,290,251.39,290Zm0-154.35c-25.34,0-42.15,4.53-51.39,13.84-11.49,11.57-11.36,30.33-11.2,52,0,2.58,0,5.2,0,7.85,0,40.65,28.06,73.72,62.55,73.72s62.55-33.07,62.55-73.72C313.94,166.6,313.94,135.67,251.39,135.67Z" transform="translate(-12.43 -12.43)"/></g><path class="cls-3" d="M249.91,275.55c-15.62,0-28.55-8-35.23-14.75A3.45,3.45,0,0,1,219.6,256c1.2,1.22,28.67,28.19,61-.17a3.45,3.45,0,0,1,4.55,5.18C272.9,271.71,260.76,275.55,249.91,275.55Z" transform="translate(-12.43 -12.43)"/><path class="cls-3" d="M224.68,229.79a3.39,3.39,0,0,1-2.43-1c-8.74-8.73-17.83-.84-18.83.09a3.45,3.45,0,0,1-4.71-5,25.29,25.29,0,0,1,8.83-5.05c5-1.6,12.45-2,19.58,5.13a3.43,3.43,0,0,1,0,4.87A3.4,3.4,0,0,1,224.68,229.79Z" transform="translate(-12.43 -12.43)"/><path class="cls-3" d="M298.93,229.79a3.43,3.43,0,0,1-2.44-1c-8.73-8.73-17.82-.84-18.83.09a3.45,3.45,0,0,1-4.7-5,25.29,25.29,0,0,1,8.83-5.05c5-1.6,12.45-2,19.58,5.13a3.45,3.45,0,0,1-2.44,5.88Z" transform="translate(-12.43 -12.43)"/><path class="cls-4" d="M212.28,312" transform="translate(-12.43 -12.43)"/><path class="cls-4" d="M286.52,312" transform="translate(-12.43 -12.43)"/><path class="cls-2" d="M287.12,312V275.46s-21.34,11.11-39,11.11-35.22-11.95-35.22-11.95V312s-84.43-1.6-84.43,93.49h243.1C371.55,310.42,287.12,312,287.12,312Z" transform="translate(-12.43 -12.43)"/><path class="cls-3" d="M371.55,409H128.45a3.44,3.44,0,0,1-3.45-3.45c0-31,8.75-55.24,26-72.18,21.21-20.81,48.73-24.15,58.42-24.67v-34a3.45,3.45,0,0,1,5.38-2.85c.17.11,16.92,11.35,33.29,11.35,16.61,0,37.23-10.61,37.43-10.72a3.45,3.45,0,0,1,5,3.06v33.2c9.69.52,37.2,3.85,58.42,24.67,17.26,16.94,26,41.22,26,72.18A3.44,3.44,0,0,1,371.55,409Zm-239.61-6.9H368.07c-.62-27.39-8.66-48.84-23.91-63.8-23.58-23.15-56.66-22.79-57-22.79a3.6,3.6,0,0,1-2.48-1,3.44,3.44,0,0,1-1-2.46V280.91C276.1,284.29,261.3,290,248.1,290c-12.63,0-25-5.6-31.78-9.32V312a3.44,3.44,0,0,1-1,2.46,3.57,3.57,0,0,1-2.48,1c-.33,0-33.51-.29-57,22.84C140.57,353.27,132.55,374.71,131.94,402.06Z" transform="translate(-12.43 -12.43)"/><path class="cls-3" d="M250,175.41h38.27s22.87-1.06,23.27,65.7c0,0,10-24.73,10-47.23v-62.5s-1.19-24.84-26.44-31.25c-24.58-6.24-43.28-5.84-43.28-5.84s-19-.4-44.13,5.84-26.45,31.25-26.45,31.25v62.5c0,22.5,10,47.23,10,47.23.4-66.76,23.28-65.7,23.28-65.7Z" transform="translate(-12.43 -12.43)"/><path class="cls-3" d="M191.2,244.35a3.24,3.24,0,0,1-3-2c-.42-1-10.21-25.58-10.21-48.44V131.23c0-.28,1.58-27.48,28.91-34.25,25.3-6.27,44.2-6,45-5.93s19.28-.34,44,5.93c27.26,6.92,28.87,34,28.88,34.24a.86.86,0,0,1,0,.16v62.5c0,22.86-9.8,47.41-10.22,48.44a3.24,3.24,0,0,1-6.25-1.19c-.37-61.52-19.78-62.47-20-62.47h-74c-.11,0-19.51,1-19.88,62.48a3.24,3.24,0,0,1-2.64,3.16A3.15,3.15,0,0,1,191.2,244.35Zm97.11-72.19c1.08,0,5.55.31,10.5,5,6,5.66,12.92,18.12,15.21,45.57,2.21-8.45,4.26-18.93,4.26-28.86V131.47c-.1-1.57-1.85-22.57-24-28.19-23.81-6-42.23-5.74-42.41-5.74s-19-.31-43.42,5.74c-22.16,5.49-23.88,26.57-24,28.19v62.41c0,9.93,2,20.41,4.26,28.86,2.29-27.45,9.24-39.91,15.21-45.57,5.09-4.83,9.72-5,10.57-5h73.8Z" transform="translate(-12.43 -12.43)"/><path class="cls-3" d="M306.71,314.55c24.94,5.91,64.84,25.59,64.84,91H128.45c0-64,38.28-84.22,63.29-90.58,0,0-8.72,45.1,57,45.1S306.71,314.55,306.71,314.55Z" transform="translate(-12.43 -12.43)"/><path class="cls-3" d="M371.55,409H128.45a3.44,3.44,0,0,1-3.45-3.45c0-67.15,41.28-87.67,65.89-93.92a3.45,3.45,0,0,1,4.24,4c0,.13-2.49,14,6.92,25.34,8.63,10.39,24.33,15.65,46.68,15.65s38.13-5.3,47-15.75c9.76-11.48,7.59-25.57,7.56-25.71a3.45,3.45,0,0,1,4.2-3.92c25.21,6,67.5,26.17,67.5,94.31A3.44,3.44,0,0,1,371.55,409Zm-239.62-6.9H368.06c-.68-26.78-9.69-69.23-57.62-83a40.74,40.74,0,0,1-9.36,26.11c-10.24,12.13-27.86,18.28-52.35,18.28s-42.08-6.14-52.07-18.24a39.44,39.44,0,0,1-8.75-25.65C161.87,327.59,133.12,348.58,131.93,402.06Z" transform="translate(-12.43 -12.43)"/><polygon class="cls-3" points="234.65 162.98 219.43 209.65 239.64 199.45 222.64 236.66 277.61 173.19 249.84 188.25 262.93 162.98 234.65 162.98"/><path class="cls-3" d="M235.07,250.53a1.47,1.47,0,0,1-.77-.23,1.44,1.44,0,0,1-.53-1.81L249.07,215l-16.56,8.36a1.43,1.43,0,0,1-2-1.73L245.72,175a1.42,1.42,0,0,1,1.36-1h28.28a1.43,1.43,0,0,1,1.28,2.09L265.7,197.19l23.66-12.83a1.43,1.43,0,0,1,1.8.36,1.45,1.45,0,0,1,0,1.84l-55,63.47A1.42,1.42,0,0,1,235.07,250.53Zm17-40.09a1.44,1.44,0,0,1,1.31,2l-12.85,28.11,43.26-49.94L263,201.94a1.43,1.43,0,0,1-2-1.92l12-23.17H248.13L234.3,219.24l17.13-8.64A1.32,1.32,0,0,1,252.07,210.44Z" transform="translate(-12.43 -12.43)"/></svg>