<?xml version="1.0" encoding="utf-8"?>
<!-- Generator: Adobe Illustrator 24.0.3, SVG Export Plug-In . SVG Version: 6.00 Build 0)  -->
<svg version="1.1" id="Capa_1" xmlns="http://www.w3.org/2000/svg" xmlns:xlink="http://www.w3.org/1999/xlink" x="0px" y="0px"
	 viewBox="0 0 423.6 680.7" style="enable-background:new 0 0 423.6 680.7;" xml:space="preserve">
<style type="text/css">
	.st0{fill:#F5B15A;}
	.st1{fill:#EAE3DA;}
	.st2{fill:#E4D7CE;}
	.st3{fill:#002E61;}
	.st4{fill:#E45451;}
	.st5{fill:#E4D8CE;}
	.st6{fill:#1E244D;}
	.st7{fill:#F99A3D;}
	.st8{fill:none;stroke:#002E61;stroke-width:10;stroke-miterlimit:10;}
	.st9{fill:none;stroke:#002E61;stroke-width:5;stroke-linecap:round;stroke-linejoin:round;}
	.st10{fill:#E45451;stroke:#002E61;stroke-width:10;stroke-miterlimit:10;}
	.st11{fill:#F5B15A;stroke:#002E61;stroke-width:10;stroke-miterlimit:10;}
	.st12{fill:#E4D7CE;stroke:#002E61;stroke-width:10;stroke-miterlimit:10;}
	.st13{fill:none;stroke:#E4D7CE;stroke-width:5;stroke-linecap:round;stroke-linejoin:round;}
	.st14{fill:none;stroke:#002E61;stroke-width:2.37;stroke-linecap:round;stroke-linejoin:round;}
	.st15{fill:#E4D8CE;stroke:#002E61;stroke-width:10;stroke-miterlimit:10;}
	.st16{fill:#E4D8CE;stroke:#002E61;stroke-width:5;stroke-linecap:round;stroke-linejoin:round;}
</style>
<rect id="Rectángulo_36_1_" x="-2056.9" y="-3893.9" class="st0" width="1919.8" height="1080"/>
<g id="Grupo_201_1_" transform="translate(0 -7.083)">
	<g id="Grupo_10_1_" transform="translate(150 84.083)">
		<path id="Trazado_8_1_" class="st1" d="M-2054.6-3064.3c2.9-7,8.6-12.5,15.7-15.2c7.8-2.9,16.4-2.9,24.2,0
			c3.6,1.4,6.8,3.4,9.5,6.1c2.7,2.6,4.8,5.7,6.2,9.1c3,7.2,3,15.3,0,22.5c-1.4,3.4-3.6,6.5-6.2,9.1c-2.7,2.6-6,4.7-9.5,6.1
			c-7.8,2.9-16.4,2.9-24.2,0c-14.7-6-21.8-22.8-15.8-37.5C-2054.7-3064.1-2054.7-3064.2-2054.6-3064.3L-2054.6-3064.3z
			 M-2040.9-3047.1c1.6,3.6,4.5,6.4,8.2,7.9c5.7,2.3,12.2,1.1,16.6-3.1c1.4-1.4,2.6-3,3.3-4.8c1.6-3.8,1.6-8.1,0-11.9
			c-0.8-1.8-1.9-3.4-3.3-4.8c-1.4-1.4-3.1-2.4-4.9-3.1c-3.8-1.5-8-1.5-11.7,0c-1.8,0.7-3.5,1.8-4.9,3.1c-1.4,1.4-2.5,3-3.3,4.8
			C-2042.5-3055.2-2042.5-3050.9-2040.9-3047.1L-2040.9-3047.1z"/>
		<rect id="Rectángulo_4_1_" x="-2033.6" y="-3008.3" class="st1" width="13.7" height="40.9"/>
		<g id="Grupo_6_1_" transform="translate(7.948 405.244)">
			
				<rect id="Rectángulo_5_1_" x="-2011.9" y="-3802.5" transform="matrix(0.7071 -0.7071 0.7071 0.7071 2100.6465 -2519.9675)" class="st1" width="40.8" height="13.7"/>
			<g id="Grupo_5_1_">
				<rect id="Rectángulo_6_1_" x="-2010.8" y="-3851.7" class="st1" width="98.2" height="13.7"/>
				<g id="Grupo_4_1_">
					<path id="Trazado_9_1_" class="st1" d="M-2043.1-3844.8c0-12-5-23.5-13.8-31.7v-17.4c27.1,16.5,35.7,51.8,19.3,78.9
						c-4.8,7.9-11.4,14.5-19.3,19.3v-17.4C-2048-3821.3-2043-3832.8-2043.1-3844.8z"/>
				</g>
			</g>
		</g>
		<g id="Grupo_9_1_" transform="translate(4.411)">
			<path id="Trazado_10_1_" class="st1" d="M-2018.3-3804c1.6,3.6,4.5,6.4,8.2,7.9c5.7,2.3,12.2,1.1,16.6-3.1c1.4-1.4,2.6-3,3.3-4.8
				c1.6-3.8,1.6-8.1,0-11.9c-0.8-1.8-1.9-3.4-3.3-4.8c-4.5-4.2-10.9-5.4-16.6-3.1c-1.8,0.7-3.5,1.8-4.9,3.1c-1.4,1.4-2.5,3-3.3,4.8
				C-2019.9-3812.2-2019.9-3807.8-2018.3-3804z"/>
			<g id="Grupo_7_1_" transform="translate(3.537 126.423)">
				<path id="Trazado_11_1_" class="st1" d="M-2007.8-3880.1c-12,0-23.5,5-31.7,13.8h-17.4c16.5-27.1,51.8-35.7,78.9-19.3
					c7.9,4.8,14.5,11.4,19.3,19.3h-17.4C-1984.3-3875.2-1995.8-3880.2-2007.8-3880.1z"/>
			</g>
			<g id="Grupo_8_1_">
				<path id="Trazado_12_1_" class="st1" d="M-2032.9-3893.9l-24,25.2l9.9,9.4l14.1-14.8l19.1,20l19.1-20l19.1,20l24-25.2l-9.9-9.4
					l-14.1,14.8l-19.1-20l-19.1,20L-2032.9-3893.9z"/>
			</g>
		</g>
	</g>
	<g id="Grupo_26_1_" transform="translate(1324 684.328)">
		
			<rect id="Rectángulo_5-2_1_" x="-2011.9" y="-3802.5" transform="matrix(0.7071 -0.7071 0.7071 0.7071 2100.6465 -2519.9675)" class="st1" width="40.8" height="13.7"/>
		<g id="Grupo_5-2_1_" transform="translate(0 0)">
			<rect id="Rectángulo_6-2_1_" x="-2010.8" y="-3851.7" class="st1" width="98.2" height="13.7"/>
			<g id="Grupo_4-2_1_">
				<path id="Trazado_9-2_1_" class="st1" d="M-2043.1-3844.8c0-12-5-23.5-13.8-31.6v-17.4c17.2,10.4,27.7,29,27.6,49.1
					c0.1,20.1-10.4,38.7-27.6,49.1v-17.4C-2048-3821.3-2043-3832.8-2043.1-3844.8z"/>
			</g>
		</g>
	</g>
	<g id="Grupo_35_1_" transform="translate(0 186)">
		<path id="Trazado_8-2_1_" class="st1" d="M-1504.9-3713c-2.9,7-8.6,12.5-15.7,15.2c-7.8,2.9-16.4,2.9-24.2,0
			c-3.6-1.4-6.8-3.4-9.5-6.1c-2.7-2.6-4.8-5.7-6.2-9.1c-3-7.2-3-15.3,0-22.5c1.4-3.4,3.6-6.5,6.2-9.1c2.7-2.6,6-4.7,9.5-6.1
			c7.8-2.9,16.4-2.9,24.2,0c14.7,6,21.8,22.8,15.8,37.5C-1504.9-3713.1-1504.9-3713-1504.9-3713L-1504.9-3713z M-1518.7-3730.2
			c-1.6-3.6-4.5-6.4-8.2-7.9c-5.7-2.3-12.2-1.1-16.6,3.1c-1.4,1.4-2.6,3-3.3,4.8c-1.6,3.8-1.6,8.1,0,11.9c0.8,1.8,1.9,3.4,3.3,4.8
			c1.4,1.4,3.1,2.4,4.9,3.1c3.8,1.5,8,1.5,11.7,0c1.8-0.7,3.5-1.8,4.9-3.1c1.4-1.4,2.5-3,3.3-4.8
			C-1517.1-3722.1-1517.1-3726.4-1518.7-3730.2L-1518.7-3730.2z"/>
		<rect id="Rectángulo_4-2_1_" x="-1539.6" y="-3809.9" class="st1" width="13.7" height="40.9"/>
	</g>
	<g id="Grupo_6-2_1_" transform="translate(592.19 791.365) rotate(180)">
		
			<rect id="Rectángulo_5-3_1_" x="2101.7" y="3985.3" transform="matrix(0.7071 -0.7071 0.7071 0.7071 -2201.333 2669.8159)" class="st1" width="40.8" height="13.7"/>
		<g id="Grupo_5-3_1_">
			<rect id="Rectángulo_6-3_1_" x="2102.9" y="3936.2" class="st1" width="98.2" height="13.7"/>
			<g id="Grupo_4-3_1_">
				<path id="Trazado_9-3_1_" class="st1" d="M2070.7,3943c0-12-5-23.5-13.8-31.7v-17.4c27.1,16.5,35.7,51.8,19.3,78.9
					c-4.8,7.9-11.4,14.5-19.3,19.3v-17.4C2065.7,3966.5,2070.7,3955,2070.7,3943z"/>
			</g>
		</g>
	</g>
	<g id="Grupo_27_1_" transform="translate(1339.463 279.083)">
		<path id="Trazado_10-2_1_" class="st1" d="M-2018.3-3804c1.6,3.6,4.5,6.4,8.2,7.9c1.9,0.8,3.9,1.1,5.9,1.1c4,0,7.9-1.5,10.8-4.2
			c1.4-1.4,2.6-3,3.3-4.8c0.8-1.9,1.2-3.9,1.2-6s-0.4-4.1-1.2-6c-0.8-1.8-1.9-3.4-3.3-4.8c-2.9-2.8-6.8-4.3-10.8-4.2
			c-2,0-4,0.4-5.9,1.1c-1.8,0.7-3.5,1.8-4.9,3.1c-1.4,1.4-2.5,3-3.3,4.8c-0.8,1.9-1.2,3.9-1.2,6
			C-2019.6-3807.9-2019.1-3805.9-2018.3-3804z"/>
		<g id="Grupo_7-2_1_" transform="translate(3.537 126.423)">
			<path id="Trazado_11-2_1_" class="st1" d="M-2007.8-3880.1c-12,0-23.5,5-31.7,13.8h-17.4c10.4-17.2,29-27.7,49.1-27.6
				c20.1-0.1,38.7,10.4,49.1,27.6h-17.4C-1984.3-3875.2-1995.8-3880.2-2007.8-3880.1z"/>
		</g>
		<g id="Grupo_8-2_1_">
			<path id="Trazado_12-2_1_" class="st1" d="M-2032.9-3893.9l-24,25.2l9.9,9.4l14.1-14.8l19.1,20l19.1-20l19.1,20l24-25.2l-9.9-9.4
				l-14.1,14.8l-19.1-20l-19.1,20L-2032.9-3893.9z"/>
		</g>
	</g>
	<g id="Grupo_25_1_" transform="translate(15.249)">
		<path id="Trazado_13_1_" class="st1" d="M-304.3-3713c-2.9,7-8.6,12.5-15.7,15.2c-7.8,2.9-16.4,2.9-24.2,0
			c-3.5-1.4-6.8-3.4-9.5-6.1c-2.7-2.6-4.8-5.7-6.2-9.1c-3-7.2-3-15.3,0-22.5c1.5-3.4,3.6-6.5,6.2-9.1c2.7-2.6,6-4.7,9.5-6.1
			c7.8-2.9,16.4-2.9,24.2,0c14.7,6,21.8,22.8,15.8,37.5C-304.3-3713.1-304.3-3713.1-304.3-3713L-304.3-3713z M-318.1-3730.2
			c-1.6-3.6-4.5-6.4-8.2-7.9c-3.8-1.5-8-1.5-11.7,0c-1.8,0.7-3.5,1.8-4.9,3.1c-1.4,1.4-2.6,3-3.4,4.8c-1.6,3.8-1.6,8.1,0,11.9
			c0.8,1.8,1.9,3.4,3.4,4.8c1.4,1.4,3.1,2.4,4.9,3.1c3.8,1.5,8,1.5,11.7,0c1.8-0.7,3.5-1.8,4.9-3.1c1.4-1.4,2.5-3,3.3-4.8
			C-316.5-3722.1-316.5-3726.4-318.1-3730.2z"/>
		<rect id="Rectángulo_7_1_" x="-339" y="-3809.9" class="st1" width="13.7" height="40.9"/>
		<g id="Grupo_13_1_" transform="translate(1602.612 487.904)">
			
				<rect id="Rectángulo_8_1_" x="-1998.3" y="-3881.5" transform="matrix(0.7071 -0.7071 0.7071 0.7071 2160.4878 -2533.4204)" class="st1" width="40.8" height="13.7"/>
			<g id="Grupo_12_1_" transform="translate(0 19.278)">
				<rect id="Rectángulo_9_1_" x="-2056.9" y="-3851.7" class="st1" width="98.2" height="13.7"/>
				<g id="Grupo_11_1_" transform="translate(116.577)">
					<path id="Trazado_14_1_" class="st1" d="M-2043.1-3844.8c0,12,5,23.5,13.8,31.6v17.4c-27.1-16.5-35.7-51.8-19.3-78.9
						c4.8-7.9,11.4-14.5,19.3-19.3v17.4C-2038.1-3868.4-2043.1-3856.9-2043.1-3844.8z"/>
				</g>
			</g>
		</g>
		<g id="Grupo_16_1_" transform="translate(1645.084 856.573)">
			<path id="Trazado_15_1_" class="st1" d="M-1990.2-3829.8c-1.6-3.6-4.5-6.4-8.2-7.9c-5.7-2.3-12.2-1.1-16.6,3.1
				c-1.4,1.4-2.6,3-3.3,4.8c-1.6,3.8-1.6,8.1,0,11.9c0.8,1.8,1.9,3.4,3.3,4.8c1.4,1.4,3.1,2.4,4.9,3.1c3.8,1.5,8,1.5,11.7,0
				c1.8-0.7,3.5-1.8,4.9-3.1c1.4-1.4,2.5-3,3.3-4.8C-1988.5-3821.7-1988.5-3826-1990.2-3829.8L-1990.2-3829.8z"/>
			<g id="Grupo_14_1_" transform="translate(3.537)">
				<path id="Trazado_16_1_" class="st1" d="M-2007.8-3880.1c12,0,23.5-5,31.7-13.8h17.4c-16.5,27.1-51.8,35.7-78.9,19.3
					c-7.9-4.8-14.5-11.4-19.3-19.3h17.4C-2031.3-3885.1-2019.8-3880.1-2007.8-3880.1z"/>
			</g>
			<g id="Grupo_15_1_" transform="translate(0 114.188)">
				<path id="Trazado_17_1_" class="st1" d="M-1975.6-3854.1l24-25.2l-9.9-9.4l-14.1,14.8l-19.1-20l-19.1,20l-19.1-20l-24,25.2
					l9.9,9.4l14.1-14.8l19.1,20l19.1-20L-1975.6-3854.1z"/>
			</g>
		</g>
	</g>
</g>
<rect id="Rectángulo_51" x="-2056.3" y="-2510.4" class="st2" width="1919.8" height="1080"/>
<g id="Grupo_203" transform="translate(0 -7.083)">
	<g id="Grupo_10" transform="translate(150 84.083)">
		<path id="Trazado_8" class="st3" d="M-2054.1-1680.7c2.9-7,8.6-12.5,15.7-15.2c7.8-2.9,16.4-2.9,24.2,0c3.6,1.4,6.8,3.4,9.5,6.1
			c2.7,2.6,4.8,5.7,6.2,9.1c3,7.2,3,15.3,0,22.5c-1.4,3.4-3.6,6.5-6.2,9.1c-2.7,2.6-6,4.7-9.5,6.1c-7.8,2.9-16.4,2.9-24.2,0
			c-14.7-6-21.8-22.8-15.8-37.5C-2054.2-1680.6-2054.1-1680.6-2054.1-1680.7L-2054.1-1680.7z M-2040.4-1663.5
			c1.6,3.6,4.5,6.4,8.2,7.9c5.7,2.3,12.2,1.1,16.6-3.1c1.4-1.4,2.6-3,3.3-4.8c1.6-3.8,1.6-8.1,0-11.9c-0.8-1.8-1.9-3.4-3.3-4.8
			s-3.1-2.4-4.9-3.1c-3.8-1.5-8-1.5-11.7,0c-1.8,0.7-3.5,1.8-4.9,3.1c-1.4,1.4-2.5,3-3.3,4.8
			C-2042-1671.6-2042-1667.3-2040.4-1663.5L-2040.4-1663.5z"/>
		<rect id="Rectángulo_4" x="-2033.1" y="-1624.7" class="st3" width="13.7" height="40.8"/>
		<g id="Grupo_6" transform="translate(7.948 405.244)">
			
				<rect id="Rectángulo_5" x="-2011.4" y="-2419" transform="matrix(0.7071 -0.7071 0.7071 0.7071 1122.5195 -2114.3252)" class="st3" width="40.8" height="13.7"/>
			<g id="Grupo_5">
				<rect id="Rectángulo_6" x="-2010.3" y="-2468.1" class="st3" width="98.2" height="13.7"/>
				<g id="Grupo_4">
					<path id="Trazado_9" class="st3" d="M-2042.5-2461.3c0-12-5-23.5-13.8-31.7v-17.4c27.1,16.5,35.7,51.8,19.3,78.9
						c-4.8,7.9-11.4,14.5-19.3,19.3v-17.4C-2047.5-2437.8-2042.5-2449.2-2042.5-2461.3z"/>
				</g>
			</g>
		</g>
		<g id="Grupo_9" transform="translate(4.411)">
			<path id="Trazado_10" class="st3" d="M-2017.8-2420.4c1.6,3.6,4.5,6.4,8.2,7.9c5.7,2.3,12.2,1.1,16.6-3.1c1.4-1.4,2.6-3,3.3-4.8
				c1.6-3.8,1.6-8.1,0-12c-0.8-1.8-1.9-3.4-3.3-4.8c-4.5-4.2-10.9-5.4-16.6-3.1c-1.8,0.7-3.5,1.8-4.9,3.1c-1.4,1.4-2.5,3-3.3,4.8
				C-2019.4-2428.6-2019.4-2424.3-2017.8-2420.4z"/>
			<g id="Grupo_7" transform="translate(3.537 126.423)">
				<path id="Trazado_11" class="st3" d="M-2007.2-2496.6c-12,0-23.5,5-31.7,13.8h-17.4c16.5-27.1,51.8-35.7,78.9-19.3
					c7.9,4.8,14.5,11.4,19.3,19.3h-17.4C-1983.7-2491.6-1995.2-2496.6-2007.2-2496.6z"/>
			</g>
			<g id="Grupo_8">
				<path id="Trazado_12" class="st3" d="M-2032.3-2510.4l-24,25.2l9.9,9.4l14.1-14.8l19.1,20l19.1-20l19.1,20l24-25.2l-9.9-9.4
					l-14.1,14.8l-19.1-20l-19.1,20L-2032.3-2510.4z"/>
			</g>
		</g>
	</g>
	<g id="Grupo_26" transform="translate(1324 684.328)">
		
			<rect id="Rectángulo_5-2" x="-2011.4" y="-2419" transform="matrix(0.7071 -0.7071 0.7071 0.7071 1122.5195 -2114.3252)" class="st3" width="40.8" height="13.7"/>
		<g id="Grupo_5-2" transform="translate(0 0)">
			<rect id="Rectángulo_6-2" x="-2010.3" y="-2468.1" class="st3" width="98.2" height="13.7"/>
			<g id="Grupo_4-2">
				<path id="Trazado_9-2" class="st3" d="M-2042.5-2461.3c0-12-5-23.5-13.8-31.6v-17.4c17.2,10.4,27.7,29,27.6,49.1
					c0.1,20.1-10.4,38.7-27.6,49.1v-17.4C-2047.5-2437.8-2042.5-2449.2-2042.5-2461.3z"/>
			</g>
		</g>
	</g>
	<g id="Grupo_35" transform="translate(0 186)">
		<path id="Trazado_8-2" class="st3" d="M-1504.4-2329.4c-2.9,7-8.6,12.5-15.7,15.2c-7.8,2.9-16.4,2.9-24.2,0
			c-3.6-1.4-6.8-3.4-9.5-6.1c-2.7-2.6-4.8-5.7-6.2-9.1c-3-7.2-3-15.3,0-22.5c1.4-3.4,3.6-6.5,6.2-9.1c2.7-2.6,6-4.7,9.5-6.1
			c7.8-2.9,16.4-2.9,24.2,0c14.7,6,21.8,22.8,15.8,37.5C-1504.4-2329.5-1504.4-2329.5-1504.4-2329.4L-1504.4-2329.4z
			 M-1518.2-2346.6c-1.6-3.6-4.5-6.4-8.2-7.9c-5.7-2.3-12.2-1.1-16.6,3.1c-1.4,1.4-2.6,3-3.3,4.8c-1.6,3.8-1.6,8.1,0,11.9
			c0.8,1.8,1.9,3.4,3.3,4.8c1.4,1.4,3.1,2.4,4.9,3.1c3.8,1.5,8,1.5,11.7,0c1.8-0.7,3.5-1.8,4.9-3.1c1.4-1.4,2.5-3,3.3-4.8
			C-1516.6-2338.5-1516.6-2342.8-1518.2-2346.6L-1518.2-2346.6z"/>
		<rect id="Rectángulo_4-2" x="-1539.1" y="-2426.3" class="st3" width="13.7" height="40.9"/>
	</g>
	<g id="Grupo_6-2" transform="translate(592.19 791.365) rotate(180)">
		
			<rect id="Rectángulo_5-3" x="2101.2" y="2601.7" transform="matrix(0.7071 -0.7071 0.7071 0.7071 -1223.1302 2264.2095)" class="st3" width="40.8" height="13.7"/>
		<g id="Grupo_5-3">
			<rect id="Rectángulo_6-3" x="2102.3" y="2552.6" class="st3" width="98.2" height="13.7"/>
			<g id="Grupo_4-3">
				<path id="Trazado_9-3" class="st3" d="M2070.1,2559.5c0-12-5-23.5-13.8-31.7v-17.4c27.1,16.5,35.7,51.8,19.3,78.9
					c-4.8,7.9-11.4,14.5-19.3,19.3v-17.4C2065.2,2583,2070.2,2571.5,2070.1,2559.5z"/>
			</g>
		</g>
	</g>
	<g id="Grupo_27" transform="translate(1339.463 279.083)">
		<path id="Trazado_10-2" class="st3" d="M-2017.8-2420.4c1.6,3.6,4.5,6.4,8.2,7.9c1.9,0.8,3.9,1.1,5.9,1.1c4,0,7.9-1.5,10.8-4.2
			c1.4-1.4,2.6-3,3.3-4.8c0.8-1.9,1.2-3.9,1.2-6s-0.4-4.1-1.2-6c-0.8-1.8-1.9-3.4-3.3-4.8c-2.9-2.8-6.8-4.3-10.8-4.2
			c-2,0-4,0.4-5.9,1.1c-1.8,0.7-3.5,1.8-4.9,3.1c-1.4,1.4-2.5,3-3.3,4.8c-0.8,1.9-1.2,3.9-1.2,6
			C-2019-2424.4-2018.6-2422.3-2017.8-2420.4z"/>
		<g id="Grupo_7-2" transform="translate(3.537 126.423)">
			<path id="Trazado_11-2" class="st3" d="M-2007.2-2496.6c-12,0-23.5,5-31.7,13.8h-17.4c10.4-17.2,29-27.7,49.1-27.6
				c20.1-0.1,38.7,10.4,49.1,27.6h-17.4C-1983.7-2491.6-1995.2-2496.6-2007.2-2496.6z"/>
		</g>
		<g id="Grupo_8-2">
			<path id="Trazado_12-2" class="st3" d="M-2032.3-2510.4l-24,25.2l9.9,9.4l14.1-14.8l19.1,20l19.1-20l19.1,20l24-25.2l-9.9-9.4
				l-14.1,14.8l-19.1-20l-19.1,20L-2032.3-2510.4z"/>
		</g>
	</g>
	<g id="Grupo_25" transform="translate(15.249)">
		<path id="Trazado_13" class="st3" d="M-303.8-2329.4c-2.9,7-8.6,12.5-15.7,15.2c-7.8,2.9-16.4,2.9-24.2,0
			c-3.5-1.4-6.8-3.4-9.5-6.1c-2.7-2.6-4.8-5.7-6.2-9.1c-3-7.2-3-15.3,0-22.5c1.5-3.4,3.6-6.5,6.2-9.1c2.7-2.6,6-4.7,9.5-6.1
			c7.8-2.9,16.4-2.9,24.2,0c14.7,6,21.8,22.8,15.8,37.5C-303.8-2329.6-303.8-2329.5-303.8-2329.4L-303.8-2329.4z M-317.6-2346.6
			c-1.6-3.6-4.5-6.4-8.2-7.9c-3.8-1.5-8-1.5-11.7,0c-1.8,0.7-3.5,1.8-4.9,3.1c-1.4,1.4-2.6,3-3.4,4.8c-1.6,3.8-1.6,8.1,0,11.9
			c0.8,1.8,1.9,3.4,3.4,4.8c1.4,1.4,3.1,2.4,4.9,3.1c3.8,1.5,8,1.5,11.7,0c1.8-0.7,3.5-1.8,4.9-3.1c1.4-1.4,2.5-3,3.3-4.8
			C-315.9-2338.5-315.9-2342.8-317.6-2346.6z"/>
		<rect id="Rectángulo_7" x="-338.5" y="-2426.3" class="st3" width="13.7" height="40.9"/>
		<g id="Grupo_13" transform="translate(1602.612 487.904)">
			
				<rect id="Rectángulo_8" x="-1997.7" y="-2497.9" transform="matrix(0.7071 -0.7071 0.7071 0.7071 1182.2905 -2127.8076)" class="st3" width="40.8" height="13.7"/>
			<g id="Grupo_12" transform="translate(0 19.278)">
				<rect id="Rectángulo_9" x="-2056.3" y="-2468.1" class="st3" width="98.2" height="13.7"/>
				<g id="Grupo_11" transform="translate(116.577)">
					<path id="Trazado_14" class="st3" d="M-2042.5-2461.3c0,12,5,23.5,13.8,31.6v17.4c-27.1-16.5-35.7-51.8-19.3-78.9
						c4.8-7.9,11.4-14.5,19.3-19.3v17.4C-2037.6-2484.8-2042.6-2473.3-2042.5-2461.3z"/>
				</g>
			</g>
		</g>
		<g id="Grupo_16" transform="translate(1645.084 856.573)">
			<path id="Trazado_15" class="st3" d="M-1989.6-2446.2c-1.6-3.6-4.5-6.4-8.2-7.9c-5.7-2.3-12.2-1.1-16.6,3.1
				c-1.4,1.4-2.6,3-3.3,4.8c-1.6,3.8-1.6,8.1,0,11.9c0.8,1.8,1.9,3.4,3.3,4.8c1.4,1.4,3.1,2.4,4.9,3.1c3.8,1.5,8,1.5,11.7,0
				c1.8-0.7,3.5-1.8,4.9-3.1c1.4-1.4,2.5-3,3.3-4.8C-1988-2438.1-1988-2442.4-1989.6-2446.2L-1989.6-2446.2z"/>
			<g id="Grupo_14" transform="translate(3.537)">
				<path id="Trazado_16" class="st3" d="M-2007.2-2496.6c12,0,23.5-5,31.7-13.8h17.4c-16.5,27.1-51.8,35.7-78.9,19.3
					c-7.9-4.8-14.5-11.4-19.3-19.3h17.4C-2030.8-2501.5-2019.3-2496.5-2007.2-2496.6z"/>
			</g>
			<g id="Grupo_15" transform="translate(0 114.188)">
				<path id="Trazado_17" class="st3" d="M-1975.1-2470.5l24-25.2l-9.9-9.4l-14.1,14.8l-19.1-20l-19.1,20l-19.1-20l-24,25.2l9.9,9.4
					l14.1-14.8l19.1,20l19.1-20L-1975.1-2470.5z"/>
			</g>
		</g>
	</g>
</g>
<rect id="Rectángulo_32_1_" x="-2057.3" y="-1117.4" class="st4" width="1919.8" height="1080"/>
<g id="Grupo_199_1_" transform="translate(0 -7.083)">
	<g id="Grupo_10_3_" transform="translate(150 84.083)">
		<path id="Trazado_8_3_" class="st5" d="M-2055.1-287.7c2.9-7,8.6-12.5,15.7-15.2c7.8-2.9,16.4-2.9,24.2,0c3.6,1.4,6.8,3.4,9.5,6.1
			c2.7,2.6,4.8,5.7,6.2,9.1c3,7.2,3,15.3,0,22.5c-1.4,3.4-3.6,6.5-6.2,9.1c-2.7,2.6-6,4.7-9.5,6.1c-7.8,2.9-16.4,2.9-24.2,0
			c-14.7-6-21.8-22.8-15.8-37.5C-2055.2-287.6-2055.1-287.6-2055.1-287.7L-2055.1-287.7z M-2041.4-270.5c1.6,3.6,4.5,6.4,8.2,7.9
			c5.7,2.3,12.2,1.1,16.6-3.1c1.4-1.3,2.6-3,3.3-4.8c1.6-3.8,1.6-8.1,0-12c-0.8-1.8-1.9-3.4-3.3-4.8c-1.4-1.3-3.1-2.4-4.9-3.1
			c-3.8-1.5-8-1.5-11.7,0c-1.8,0.7-3.5,1.8-4.9,3.1c-1.4,1.4-2.5,3-3.3,4.8C-2043-278.6-2043-274.3-2041.4-270.5L-2041.4-270.5z"/>
		<rect id="Rectángulo_4_3_" x="-2034.1" y="-231.7" class="st5" width="13.7" height="40.9"/>
		<g id="Grupo_6_3_" transform="translate(7.948 405.244)">
			
				<rect id="Rectángulo_5_3_" x="-2012.4" y="-1026" transform="matrix(0.7071 -0.7071 0.7071 0.7071 137.2388 -1707.0416)" class="st5" width="40.8" height="13.7"/>
			<g id="Grupo_5_3_">
				<rect id="Rectángulo_6_3_" x="-2011.3" y="-1075.1" class="st5" width="98.2" height="13.7"/>
				<g id="Grupo_4_3_">
					<path id="Trazado_9_3_" class="st5" d="M-2043.5-1068.3c0-12-5-23.5-13.8-31.7v-17.4c27.1,16.5,35.7,51.8,19.3,78.9
						c-4.8,7.9-11.4,14.5-19.3,19.3v-17.4C-2048.5-1044.8-2043.5-1056.2-2043.5-1068.3z"/>
				</g>
			</g>
		</g>
		<g id="Grupo_9_3_" transform="translate(4.411)">
			<path id="Trazado_10_3_" class="st5" d="M-2018.8-1027.4c1.6,3.6,4.5,6.4,8.2,7.9c5.7,2.3,12.2,1.1,16.6-3.1
				c1.4-1.4,2.6-3,3.3-4.8c1.6-3.8,1.6-8.1,0-11.9c-0.8-1.8-1.9-3.4-3.3-4.8c-4.5-4.2-10.9-5.4-16.6-3.1c-1.8,0.7-3.5,1.8-4.9,3.1
				c-1.4,1.4-2.5,3-3.3,4.8C-2020.4-1035.6-2020.4-1031.3-2018.8-1027.4z"/>
			<g id="Grupo_7_3_" transform="translate(3.537 126.423)">
				<path id="Trazado_11_3_" class="st5" d="M-2008.2-1103.6c-12,0-23.5,5-31.7,13.8h-17.4c16.5-27.1,51.8-35.7,78.9-19.3
					c7.9,4.8,14.5,11.4,19.3,19.3h-17.4C-1984.7-1098.6-1996.2-1103.6-2008.2-1103.6z"/>
			</g>
			<g id="Grupo_8_3_">
				<path id="Trazado_12_3_" class="st5" d="M-2033.3-1117.4l-24,25.2l9.9,9.4l14.1-14.8l19.1,20l19.1-20l19.1,20l24-25.2l-9.9-9.4
					l-14.1,14.8l-19.1-20l-19.1,20L-2033.3-1117.4z"/>
			</g>
		</g>
	</g>
	<g id="Grupo_26_3_" transform="translate(1324 684.328)">
		
			<rect id="Rectángulo_5-2_3_" x="-2012.4" y="-1026" transform="matrix(0.7071 -0.7071 0.7071 0.7071 137.2388 -1707.0416)" class="st5" width="40.8" height="13.7"/>
		<g id="Grupo_5-2_3_" transform="translate(0 0)">
			<rect id="Rectángulo_6-2_3_" x="-2011.3" y="-1075.1" class="st5" width="98.2" height="13.7"/>
			<g id="Grupo_4-2_3_">
				<path id="Trazado_9-2_3_" class="st5" d="M-2043.5-1068.3c0-12-5-23.5-13.8-31.7v-17.4c17.2,10.3,27.7,29,27.6,49.1
					c0.1,20.1-10.4,38.7-27.6,49.1v-17.4C-2048.5-1044.8-2043.5-1056.2-2043.5-1068.3z"/>
			</g>
		</g>
	</g>
	<g id="Grupo_35_3_" transform="translate(0 186)">
		<path id="Trazado_8-2_3_" class="st5" d="M-1505.4-936.4c-2.9,7-8.6,12.5-15.7,15.2c-7.8,2.9-16.4,2.9-24.2,0
			c-3.6-1.4-6.8-3.4-9.5-6.1c-2.7-2.6-4.8-5.7-6.2-9.1c-3-7.2-3-15.3,0-22.5c1.4-3.4,3.6-6.5,6.2-9.1c2.7-2.6,6-4.7,9.5-6.1
			c7.8-2.9,16.4-2.9,24.2,0c14.7,6,21.8,22.8,15.8,37.5C-1505.4-936.5-1505.4-936.5-1505.4-936.4L-1505.4-936.4z M-1519.2-953.6
			c-1.6-3.6-4.5-6.4-8.2-7.9c-5.7-2.3-12.2-1.1-16.6,3.1c-1.4,1.3-2.6,3-3.3,4.8c-1.6,3.8-1.6,8.1,0,11.9c0.8,1.8,1.9,3.4,3.3,4.8
			c1.4,1.3,3.1,2.4,4.9,3.1c3.8,1.5,8,1.5,11.7,0c1.8-0.7,3.5-1.8,4.9-3.1c1.4-1.4,2.5-3,3.3-4.8
			C-1517.6-945.5-1517.6-949.8-1519.2-953.6L-1519.2-953.6z"/>
		<rect id="Rectángulo_4-2_3_" x="-1540.1" y="-1033.3" class="st5" width="13.7" height="40.8"/>
	</g>
	<g id="Grupo_6-2_3_" transform="translate(592.19 791.365) rotate(180)">
		
			<rect id="Rectángulo_5-3_3_" x="2102.2" y="1208.7" transform="matrix(0.7071 -0.7071 0.7071 0.7071 -237.8444 1856.9264)" class="st5" width="40.8" height="13.7"/>
		<g id="Grupo_5-3_3_">
			<rect id="Rectángulo_6-3_3_" x="2103.3" y="1159.6" class="st5" width="98.2" height="13.7"/>
			<g id="Grupo_4-3_3_">
				<path id="Trazado_9-3_3_" class="st5" d="M2071.1,1166.5c0-12-5-23.5-13.8-31.7v-17.4c27.1,16.5,35.7,51.8,19.3,78.9
					c-4.8,7.9-11.4,14.5-19.3,19.3v-17.4C2066.2,1190,2071.2,1178.5,2071.1,1166.5z"/>
			</g>
		</g>
	</g>
	<g id="Grupo_27_3_" transform="translate(1339.463 279.083)">
		<path id="Trazado_10-2_3_" class="st5" d="M-2018.8-1027.4c1.6,3.6,4.5,6.4,8.2,7.9c1.9,0.8,3.9,1.1,5.9,1.1c4,0,7.9-1.5,10.8-4.2
			c1.4-1.3,2.6-3,3.3-4.8c0.8-1.9,1.2-3.9,1.2-6s-0.4-4.1-1.2-6c-0.8-1.8-1.9-3.4-3.3-4.8c-2.9-2.8-6.8-4.3-10.8-4.2
			c-2,0-4,0.4-5.9,1.1c-1.8,0.7-3.5,1.8-4.9,3.1c-1.4,1.4-2.5,3-3.3,4.8c-0.8,1.9-1.2,3.9-1.2,6
			C-2020-1031.4-2019.6-1029.3-2018.8-1027.4z"/>
		<g id="Grupo_7-2_3_" transform="translate(3.537 126.423)">
			<path id="Trazado_11-2_3_" class="st5" d="M-2008.2-1103.6c-12,0-23.5,5-31.7,13.8h-17.4c10.4-17.2,29-27.7,49.1-27.6
				c20.1-0.1,38.7,10.4,49.1,27.6h-17.4C-1984.7-1098.6-1996.2-1103.6-2008.2-1103.6z"/>
		</g>
		<g id="Grupo_8-2_3_">
			<path id="Trazado_12-2_3_" class="st5" d="M-2033.3-1117.4l-24,25.2l9.9,9.4l14.1-14.8l19.1,20l19.1-20l19.1,20l24-25.2l-9.9-9.4
				l-14.1,14.8l-19.1-20l-19.1,20L-2033.3-1117.4z"/>
		</g>
	</g>
	<g id="Grupo_25_3_" transform="translate(15.249)">
		<path id="Trazado_13_3_" class="st5" d="M-304.8-936.4c-2.9,7-8.6,12.5-15.7,15.2c-7.8,2.9-16.4,2.9-24.2,0
			c-3.5-1.4-6.8-3.4-9.5-6.1c-2.7-2.6-4.8-5.7-6.2-9.1c-3-7.2-3-15.3,0-22.5c1.5-3.4,3.6-6.5,6.2-9.1c2.7-2.6,6-4.7,9.5-6.1
			c7.8-2.9,16.4-2.9,24.2,0c14.7,6,21.8,22.8,15.8,37.5C-304.8-936.6-304.8-936.5-304.8-936.4L-304.8-936.4z M-318.6-953.6
			c-1.6-3.6-4.5-6.4-8.2-7.9c-3.8-1.5-8-1.5-11.7,0c-1.8,0.7-3.5,1.8-4.9,3.1s-2.6,3-3.4,4.8c-1.6,3.8-1.6,8.1,0,11.9
			c0.8,1.8,1.9,3.4,3.4,4.8c1.4,1.3,3.1,2.4,4.9,3.1c3.8,1.5,8,1.5,11.7,0c1.8-0.7,3.5-1.8,4.9-3.1c1.4-1.4,2.5-3,3.3-4.8
			C-316.9-945.5-316.9-949.8-318.6-953.6z"/>
		<rect id="Rectángulo_7_3_" x="-339.5" y="-1033.3" class="st5" width="13.7" height="40.8"/>
		<g id="Grupo_13_3_" transform="translate(1602.612 487.904)">
			
				<rect id="Rectángulo_8_3_" x="-1998.8" y="-1104.9" transform="matrix(0.7071 -0.7071 0.7071 0.7071 197.0096 -1720.5239)" class="st5" width="40.8" height="13.7"/>
			<g id="Grupo_12_3_" transform="translate(0 19.278)">
				<rect id="Rectángulo_9_3_" x="-2057.3" y="-1075.1" class="st5" width="98.2" height="13.7"/>
				<g id="Grupo_11_3_" transform="translate(116.577)">
					<path id="Trazado_14_3_" class="st5" d="M-2043.5-1068.3c0,12,5,23.5,13.8,31.7v17.4c-27.1-16.5-35.7-51.8-19.3-78.9
						c4.8-7.9,11.4-14.5,19.3-19.3v17.4C-2038.6-1091.8-2043.6-1080.3-2043.5-1068.3z"/>
				</g>
			</g>
		</g>
		<g id="Grupo_16_3_" transform="translate(1645.084 856.573)">
			<path id="Trazado_15_3_" class="st5" d="M-1990.6-1053.2c-1.6-3.6-4.5-6.4-8.2-7.9c-5.7-2.3-12.2-1.1-16.6,3.1
				c-1.4,1.3-2.6,3-3.3,4.8c-1.6,3.8-1.6,8.1,0,11.9c0.8,1.8,1.9,3.4,3.3,4.8c1.4,1.3,3.1,2.4,4.9,3.1c3.8,1.5,8,1.5,11.7,0
				c1.8-0.7,3.5-1.8,4.9-3.1c1.4-1.4,2.5-3,3.3-4.8C-1989-1045.1-1989-1049.4-1990.6-1053.2L-1990.6-1053.2z"/>
			<g id="Grupo_14_3_" transform="translate(3.537)">
				<path id="Trazado_16_3_" class="st5" d="M-2008.2-1103.6c12,0,23.5-5,31.7-13.8h17.4c-16.5,27.1-51.8,35.7-78.9,19.3
					c-7.9-4.8-14.5-11.4-19.3-19.3h17.4C-2031.8-1108.5-2020.3-1103.5-2008.2-1103.6z"/>
			</g>
			<g id="Grupo_15_3_" transform="translate(0 114.188)">
				<path id="Trazado_17_3_" class="st5" d="M-1976.1-1077.5l24-25.2l-9.9-9.4l-14.1,14.8l-19.1-20l-19.1,20l-19.1-20l-24,25.2
					l9.9,9.4l14.1-14.8l19.1,20l19.1-20L-1976.1-1077.5z"/>
			</g>
		</g>
	</g>
</g>
<rect id="Rectángulo_3" x="-2056.6" y="251.8" class="st6" width="1920.4" height="1080"/>
<g id="Grupo_196">
	<g id="Grupo_10_2_" transform="translate(150 84.083)">
		<path id="Trazado_8_2_" class="st7" d="M-2054.4,1081.4c2.9-7,8.6-12.5,15.7-15.2c7.8-2.9,16.4-2.9,24.2,0
			c3.6,1.4,6.8,3.4,9.5,6.1c2.7,2.6,4.8,5.7,6.2,9.1c3,7.2,3,15.3,0,22.5c-1.4,3.4-3.6,6.5-6.2,9.1c-2.7,2.6-6,4.7-9.5,6.1
			c-7.8,2.9-16.4,2.9-24.2,0c-14.7-6-21.8-22.8-15.8-37.5C-2054.5,1081.6-2054.4,1081.5-2054.4,1081.4L-2054.4,1081.4z
			 M-2040.6,1098.7c1.6,3.6,4.5,6.4,8.2,7.9c5.7,2.3,12.2,1.1,16.6-3.1c1.4-1.3,2.6-3,3.3-4.8c1.6-3.8,1.6-8.1,0-11.9
			c-0.8-1.8-1.9-3.4-3.3-4.8c-1.4-1.3-3.1-2.4-4.9-3.1c-3.8-1.5-8-1.5-11.7,0c-1.8,0.7-3.5,1.8-4.9,3.1c-1.4,1.4-2.5,3-3.3,4.8
			C-2042.3,1090.5-2042.3,1094.9-2040.6,1098.7L-2040.6,1098.7z"/>
		<rect id="Rectángulo_4_2_" x="-2033.4" y="1137.5" class="st7" width="13.7" height="40.8"/>
		<g id="Grupo_6_2_" transform="translate(7.948 405.244)">
			
				<rect id="Rectángulo_5_2_" x="-2011.7" y="343.1" transform="matrix(0.7071 -0.7071 0.7071 0.7071 -830.6701 -1305.5765)" class="st7" width="40.8" height="13.7"/>
			<g id="Grupo_5_2_">
				<rect id="Rectángulo_6_2_" x="-2010.6" y="294" class="st7" width="98.2" height="13.7"/>
				<g id="Grupo_4_2_">
					<path id="Trazado_9_2_" class="st7" d="M-2042.8,300.9c0-12-5-23.5-13.8-31.7v-17.4c27.1,16.5,35.7,51.8,19.3,78.9
						c-4.8,7.9-11.4,14.5-19.3,19.3v-17.4C-2047.8,324.4-2042.8,312.9-2042.8,300.9z"/>
				</g>
			</g>
		</g>
		<g id="Grupo_9_2_" transform="translate(4.411)">
			<path id="Trazado_10_2_" class="st7" d="M-2018.1,341.7c1.6,3.6,4.5,6.4,8.2,7.9c5.7,2.3,12.2,1.1,16.6-3.1
				c1.4-1.4,2.6-3,3.3-4.8c1.6-3.8,1.6-8.1,0-12c-0.8-1.8-1.9-3.4-3.3-4.8c-4.5-4.2-10.9-5.4-16.6-3.1c-1.8,0.7-3.5,1.8-4.9,3.1
				c-1.4,1.4-2.5,3-3.3,4.8C-2019.7,333.6-2019.7,337.9-2018.1,341.7z"/>
			<g id="Grupo_7_2_" transform="translate(3.537 126.423)">
				<path id="Trazado_11_2_" class="st7" d="M-2007.5,265.6c-12,0-23.5,5-31.7,13.8h-17.4c16.5-27.1,51.8-35.7,78.9-19.3
					c7.9,4.8,14.5,11.4,19.3,19.3h-17.4C-1984,270.6-1995.5,265.6-2007.5,265.6z"/>
			</g>
			<g id="Grupo_8_2_">
				<path id="Trazado_12_2_" class="st7" d="M-2032.6,251.8l-24,25.2l9.9,9.4l14.1-14.8l19.1,20l19.1-20l19.1,20l24-25.2l-9.9-9.4
					l-14.1,14.8l-19.1-20l-19.1,20L-2032.6,251.8z"/>
			</g>
		</g>
	</g>
	<g id="Grupo_26_2_" transform="translate(1324 684.328)">
		
			<rect id="Rectángulo_5-2_2_" x="-2011.7" y="343.1" transform="matrix(0.7071 -0.7071 0.7071 0.7071 -830.6701 -1305.5765)" class="st7" width="40.8" height="13.7"/>
		<g id="Grupo_5-2_2_" transform="translate(0 0)">
			<rect id="Rectángulo_6-2_2_" x="-2010.6" y="294" class="st7" width="98.2" height="13.7"/>
			<g id="Grupo_4-2_2_">
				<path id="Trazado_9-2_2_" class="st7" d="M-2042.8,300.9c0-12-5-23.5-13.8-31.7v-17.4c17.2,10.4,27.7,29,27.6,49.1
					c0.1,20.1-10.4,38.7-27.6,49.1v-17.4C-2047.8,324.4-2042.8,312.9-2042.8,300.9z"/>
			</g>
		</g>
	</g>
	<g id="Grupo_35_2_" transform="translate(0 186)">
		<path id="Trazado_8-2_2_" class="st7" d="M-1504.7,432.8c-2.9,7-8.6,12.5-15.7,15.2c-7.8,2.9-16.4,2.9-24.2,0
			c-3.6-1.4-6.8-3.4-9.5-6.1c-2.7-2.6-4.8-5.7-6.2-9.1c-3-7.2-3-15.3,0-22.5c1.4-3.4,3.6-6.5,6.2-9.1c2.7-2.6,6-4.7,9.5-6.1
			c7.8-2.9,16.4-2.9,24.2,0c14.7,6,21.8,22.8,15.8,37.5C-1504.6,432.6-1504.7,432.7-1504.7,432.8L-1504.7,432.8z M-1518.5,415.5
			c-1.6-3.6-4.5-6.4-8.2-7.9c-5.7-2.3-12.2-1.1-16.6,3.1c-1.4,1.4-2.6,3-3.3,4.8c-1.6,3.8-1.6,8.1,0,11.9c0.8,1.8,1.9,3.4,3.3,4.8
			s3.1,2.4,4.9,3.1c3.8,1.5,8,1.5,11.7,0c1.8-0.7,3.5-1.8,4.9-3.1c1.4-1.4,2.5-3,3.3-4.8C-1516.8,423.7-1516.8,419.3-1518.5,415.5
			L-1518.5,415.5z"/>
		<rect id="Rectángulo_4-2_2_" x="-1539.4" y="335.9" class="st7" width="13.7" height="40.8"/>
	</g>
	<g id="Grupo_6-2_2_" transform="translate(592.19 791.365) rotate(180)">
		
			<rect id="Rectángulo_5-3_2_" x="2101.5" y="-160.4" transform="matrix(0.7071 -0.7071 0.7071 0.7071 730.0753 1455.4561)" class="st7" width="40.8" height="13.7"/>
		<g id="Grupo_5-3_2_">
			<rect id="Rectángulo_6-3_2_" x="2102.6" y="-209.5" class="st7" width="98.2" height="13.7"/>
			<g id="Grupo_4-3_2_">
				<path id="Trazado_9-3_2_" class="st7" d="M2070.4-202.7c0-12-5-23.5-13.8-31.7v-17.4c27.1,16.5,35.7,51.8,19.3,78.9
					c-4.8,7.9-11.4,14.5-19.3,19.3V-171C2065.4-179.2,2070.5-190.7,2070.4-202.7z"/>
			</g>
		</g>
	</g>
	<g id="Grupo_27_2_" transform="translate(1339.463 279.083)">
		<path id="Trazado_10-2_2_" class="st7" d="M-2018.1,341.7c1.6,3.6,4.5,6.4,8.2,7.9c1.9,0.8,3.9,1.1,5.9,1.1c4,0,7.9-1.5,10.8-4.2
			c1.4-1.4,2.6-3,3.3-4.8c0.8-1.9,1.2-3.9,1.2-6s-0.4-4.1-1.2-6c-0.8-1.8-1.9-3.4-3.3-4.8c-2.9-2.8-6.8-4.3-10.8-4.2
			c-2,0-4,0.4-5.9,1.1c-1.8,0.7-3.5,1.8-4.9,3.1c-1.4,1.4-2.5,3-3.3,4.8c-0.8,1.9-1.2,3.9-1.2,6S-2018.9,339.8-2018.1,341.7z"/>
		<g id="Grupo_7-2_2_" transform="translate(3.537 126.423)">
			<path id="Trazado_11-2_2_" class="st7" d="M-2007.5,265.6c-12,0-23.5,5-31.7,13.8h-17.4c10.4-17.2,29-27.7,49.1-27.6
				c20.1-0.1,38.7,10.4,49.1,27.6h-17.4C-1984,270.6-1995.5,265.6-2007.5,265.6z"/>
		</g>
		<g id="Grupo_8-2_2_">
			<path id="Trazado_12-2_2_" class="st7" d="M-2032.6,251.8l-24,25.2l9.9,9.4l14.1-14.8l19.1,20l19.1-20l19.1,20l24-25.2l-9.9-9.4
				l-14.1,14.8l-19.1-20l-19.1,20L-2032.6,251.8z"/>
		</g>
	</g>
	<g id="Grupo_25_2_" transform="translate(15.249)">
		<path id="Trazado_13_2_" class="st7" d="M-304.1,432.8c-2.9,7-8.6,12.5-15.7,15.2c-7.8,2.9-16.4,2.9-24.2,0
			c-3.5-1.4-6.8-3.4-9.5-6.1c-2.7-2.6-4.8-5.7-6.2-9.1c-3-7.2-3-15.3,0-22.5c1.5-3.4,3.6-6.5,6.2-9.1c2.7-2.6,6-4.7,9.5-6.1
			c7.8-2.9,16.4-2.9,24.2,0c14.7,6,21.8,22.8,15.8,37.5C-304,432.6-304.1,432.7-304.1,432.8L-304.1,432.8z M-317.9,415.5
			c-1.6-3.6-4.5-6.4-8.2-7.9c-3.8-1.5-8-1.5-11.7,0c-1.8,0.7-3.5,1.8-4.9,3.1c-1.4,1.4-2.6,3-3.4,4.8c-1.6,3.8-1.6,8.1,0,11.9
			c0.8,1.8,1.9,3.4,3.4,4.8c1.4,1.4,3.1,2.4,4.9,3.1c3.8,1.5,8,1.5,11.7,0c1.8-0.7,3.5-1.8,4.9-3.1c1.4-1.4,2.5-3,3.3-4.8
			C-316.2,423.7-316.2,419.3-317.9,415.5z"/>
		<rect id="Rectángulo_7_2_" x="-338.8" y="335.9" class="st7" width="13.7" height="40.8"/>
		<g id="Grupo_13_2_" transform="translate(1602.612 487.904)">
			
				<rect id="Rectángulo_8_2_" x="-1998.1" y="264.2" transform="matrix(0.7071 -0.7071 0.7071 0.7071 -770.9051 -1319.0587)" class="st7" width="40.8" height="13.7"/>
			<g id="Grupo_12_2_" transform="translate(0 19.278)">
				<rect id="Rectángulo_9_2_" x="-2056.6" y="294" class="st7" width="98.2" height="13.7"/>
				<g id="Grupo_11_2_" transform="translate(116.577)">
					<path id="Trazado_14_2_" class="st7" d="M-2042.8,300.9c0,12,5,23.5,13.8,31.6v17.4c-27.1-16.5-35.7-51.8-19.3-78.9
						c4.8-7.9,11.4-14.5,19.3-19.3v17.4C-2037.8,277.4-2042.9,288.9-2042.8,300.9z"/>
				</g>
			</g>
		</g>
		<g id="Grupo_16_2_" transform="translate(1645.084 856.573)">
			<path id="Trazado_15_2_" class="st7" d="M-1989.9,315.9c-1.6-3.6-4.5-6.4-8.2-7.9c-5.7-2.3-12.2-1.1-16.6,3.1
				c-1.4,1.4-2.6,3-3.3,4.8c-1.6,3.8-1.6,8.1,0,11.9c0.8,1.8,1.9,3.4,3.3,4.8s3.1,2.4,4.9,3.1c3.8,1.5,8,1.5,11.7,0
				c1.8-0.7,3.5-1.8,4.9-3.1c1.4-1.4,2.5-3,3.3-4.8C-1988.3,324-1988.3,319.7-1989.9,315.9L-1989.9,315.9z"/>
			<g id="Grupo_14_2_" transform="translate(3.537)">
				<path id="Trazado_16_2_" class="st7" d="M-2007.5,265.6c12,0,23.5-5,31.7-13.8h17.4c-16.5,27.1-51.8,35.7-78.9,19.3
					c-7.9-4.8-14.5-11.4-19.3-19.3h17.4C-2031,260.6-2019.6,265.6-2007.5,265.6z"/>
			</g>
			<g id="Grupo_15_2_" transform="translate(0 114.188)">
				<path id="Trazado_17_2_" class="st7" d="M-1975.4,291.6l24-25.2l-9.9-9.4l-14.1,14.8l-19.1-20l-19.1,20l-19.1-20l-24,25.2
					l9.9,9.4l14.1-14.8l19.1,20l19.1-20L-1975.4,291.6z"/>
			</g>
		</g>
	</g>
</g>
<path id="Rectángulo_28_1_" class="st8" d="M77.9-3141.5h251.8c37.5,0,67.9,30.4,67.9,67.9l0,0c0,37.5-30.4,67.9-67.9,67.9H77.9
	c-37.5,0-67.9-30.4-67.9-67.9l0,0C10-3111.1,40.3-3141.5,77.9-3141.5z"/>
<circle id="Elipse_18_1_" class="st3" cx="182.5" cy="-3076.1" r="6.1"/>
<circle id="Elipse_19_1_" class="st3" cx="225" cy="-3076.1" r="6.1"/>
<line id="Línea_10_1_" class="st9" x1="176.5" y1="-3089.1" x2="188.6" y2="-3089.1"/>
<line id="Línea_11_1_" class="st9" x1="218.9" y1="-3089.1" x2="231" y2="-3089.1"/>
<line id="Línea_12_1_" class="st9" x1="189.8" y1="-3058.1" x2="218.8" y2="-3058.1"/>
<circle id="Elipse_20_1_" class="st3" cx="305.3" cy="-3078.7" r="6.1"/>
<circle id="Elipse_21_1_" class="st3" cx="347.8" cy="-3078.7" r="6.1"/>
<path id="Trazado_49_1_" class="st9" d="M312.6-3053.4c0,0,13.2-16.1,29-0.3"/>
<line id="Línea_13_1_" class="st9" x1="299.6" y1="-3089.6" x2="311" y2="-3093.7"/>
<line id="Línea_14_1_" class="st9" x1="342.1" y1="-3093.7" x2="353.5" y2="-3089.6"/>
<circle id="Elipse_22_4_" class="st3" cx="58.9" cy="-3076.7" r="6.1"/>
<path id="Trazado_50_4_" class="st9" d="M52.9-3089.7c0-3.4,2.7-6.1,6.1-6.1s6.1,2.7,6.1,6.1"/>
<path id="Trazado_51_4_" class="st9" d="M95.3-3089.7c0-3.4,2.8-6,6.1-6c3.3,0,5.9,2.7,6,6"/>
<circle id="Elipse_23_4_" class="st3" cx="101.4" cy="-3076.7" r="6.1"/>
<path id="Trazado_52_4_" class="st9" d="M95.2-3058.6c0,0-13.2,16.1-29,0.3"/>
<circle id="Elipse_17_1_" class="st8" cx="202.9" cy="-3643.1" r="51.7"/>
<circle id="Elipse_27_1_" class="st10" cx="856.8" cy="-3633.1" r="51.7"/>
<circle id="Elipse_34_1_" class="st11" cx="857.8" cy="-3072.8" r="51.7"/>
<circle id="Elipse_17" class="st12" cx="1502" cy="-3361.7" r="51.7"/>
<g id="Grupo_206_2_" transform="translate(-761.504 -930.93)">
	<circle id="Elipse_51_2_" class="st6" cx="1136.4" cy="-1316.3" r="32.4"/>
	<g id="Grupo_106_2_" transform="translate(778.662 948.619)">
		<line id="Línea_31_2_" class="st13" x1="373" y1="-2264.9" x2="342.5" y2="-2264.9"/>
		<path id="Trazado_101_2_" class="st13" d="M358.3-2279.6l14.7,14.7l-14.7,14.7"/>
	</g>
</g>
<g id="Grupo_206_1_" transform="translate(-761.504 -930.93)">
	<circle id="Elipse_51_1_" class="st6" cx="900.4" cy="-1316.3" r="32.4"/>
	<g id="Grupo_106_1_" transform="translate(778.662 948.619)">
		<line id="Línea_31_1_" class="st13" x1="137" y1="-2264.9" x2="106.5" y2="-2264.9"/>
		<path id="Trazado_101_1_" class="st13" d="M121.2-2250.2l-14.7-14.7l14.7-14.7"/>
	</g>
</g>
<g id="Grupo_207_1_" transform="translate(-852.941 -931.283)">
	<path id="Rectángulo_65_1_" class="st6" d="M980.4-776.3h150.9c17.7,0,32,14.3,32,32l0,0c0,17.7-14.3,32-32,32H980.4
		c-17.7,0-32-14.3-32-32l0,0C948.4-761.9,962.7-776.3,980.4-776.3z"/>
	<text transform="matrix(1 0 0 1 990.0432 -738.8989)" class="st2" style="font-family:'ArialMT'; font-size:21px;">Ver en Netflix</text>
</g>
<g id="Grupo_208" transform="translate(-1091.976 -930.93)">
	<circle id="Elipse_52" class="st6" cx="1222.9" cy="-1069.6" r="32.4"/>
	<g id="Grupo_108" transform="translate(1109.666 948.088)">
		<path id="Trazado_102" class="st13" d="M102.8-2022.2v19.8h20.9v-19.8"/>
		<path id="Trazado_103" class="st13" d="M98.5-2018.2l14.7-14.7l14.7,14.7"/>
	</g>
</g>
<g id="Grupo_209" transform="translate(-854.092 -931.284)">
	<path id="Rectángulo_109" class="st6" d="M1392.5-776.3h150.9c17.7,0,32,14.3,32,32l0,0c0,17.7-14.3,32-32,32h-150.9
		c-17.7,0-32-14.3-32-32l0,0C1360.5-761.9,1374.8-776.3,1392.5-776.3z"/>
	<text transform="matrix(1 0 0 1 1392.4232 -738.8989)" class="st2" style="font-family:'ArialMT'; font-size:21px;">Abrir en Spotify</text>
</g>
<g id="Grupo_187" transform="translate(-198 -430)">
	
		<ellipse id="Elipse_27" transform="matrix(0.7071 -0.7071 0.7071 0.7071 1417.6505 304.5089)" class="st10" cx="1076.4" cy="-1559" rx="51.7" ry="51.7"/>
	<circle id="Elipse_28" class="st3" cx="1054.7" cy="-1564.2" r="6.1"/>
	<circle id="Elipse_29" class="st3" cx="1097.1" cy="-1564.2" r="6.1"/>
	<path id="Trazado_54" class="st9" d="M1061.9-1538.9c0,0,13.2-16.1,29-0.3"/>
	<line id="Línea_19" class="st9" x1="1049" y1="-1575" x2="1060.4" y2="-1579.2"/>
	<line id="Línea_20" class="st9" x1="1091.4" y1="-1579.2" x2="1102.8" y2="-1575"/>
</g>
<circle id="Elipse_34" class="st10" cx="1133.4" cy="-1989" r="51.7"/>
<path id="Trazado_186" class="st9" d="M1154.5-1991.6c0,11.6-9.4,20.9-20.9,20.9c-11.6,0-20.9-9.4-20.9-20.9"/>
<line id="Línea_40" class="st9" x1="1133.6" y1="-1970.5" x2="1133.6" y2="-1951.9"/>
<line id="Línea_41" class="st9" x1="1120.8" y1="-1951.9" x2="1146.8" y2="-1951.9"/>
<path id="Rectángulo_112" class="st9" d="M1133.6-2027L1133.6-2027c7.1,0,12.8,5.7,12.8,12.8v22.1c0,7.1-5.7,12.8-12.8,12.8l0,0
	c-7.1,0-12.8-5.7-12.8-12.8v-22.1C1120.8-2021.3,1126.6-2027,1133.6-2027z"/>
<line id="Línea_42" class="st9" x1="1120.8" y1="-2012.4" x2="1127.7" y2="-2012.4"/>
<line id="Línea_44" class="st9" x1="1120.8" y1="-2003.4" x2="1127.7" y2="-2003.4"/>
<line id="Línea_45" class="st9" x1="1120.8" y1="-1994.5" x2="1127.7" y2="-1994.5"/>
<line id="Línea_46" class="st9" x1="1139.5" y1="-2012.4" x2="1146.4" y2="-2012.4"/>
<line id="Línea_48" class="st9" x1="1139.5" y1="-2003.4" x2="1146.4" y2="-2003.4"/>
<line id="Línea_49" class="st9" x1="1139.5" y1="-1994.5" x2="1146.4" y2="-1994.5"/>
<circle id="Elipse_34_2_" class="st11" cx="1381.4" cy="-1989" r="51.7"/>
<path id="Trazado_186_1_" class="st9" d="M1402.5-1991.6c0,11.6-9.4,20.9-20.9,20.9c-11.6,0-20.9-9.4-20.9-20.9"/>
<line id="Línea_40_1_" class="st9" x1="1381.6" y1="-1970.5" x2="1381.6" y2="-1951.9"/>
<line id="Línea_41_1_" class="st9" x1="1368.8" y1="-1951.9" x2="1394.8" y2="-1951.9"/>
<path id="Rectángulo_112_1_" class="st9" d="M1381.6-2027L1381.6-2027c7.1,0,12.8,5.7,12.8,12.8v22.1c0,7.1-5.7,12.8-12.8,12.8l0,0
	c-7.1,0-12.8-5.7-12.8-12.8v-22.1C1368.8-2021.3,1374.6-2027,1381.6-2027z"/>
<line id="Línea_42_1_" class="st9" x1="1368.8" y1="-2012.4" x2="1375.7" y2="-2012.4"/>
<line id="Línea_44_1_" class="st9" x1="1368.8" y1="-2003.4" x2="1375.7" y2="-2003.4"/>
<line id="Línea_45_1_" class="st9" x1="1368.8" y1="-1994.5" x2="1375.7" y2="-1994.5"/>
<line id="Línea_46_1_" class="st9" x1="1387.5" y1="-2012.4" x2="1394.4" y2="-2012.4"/>
<line id="Línea_48_1_" class="st9" x1="1387.5" y1="-2003.4" x2="1394.4" y2="-2003.4"/>
<line id="Línea_49_1_" class="st9" x1="1387.5" y1="-1994.5" x2="1394.4" y2="-1994.5"/>
<circle id="Elipse_27-2" class="st8" cx="878.4" cy="-1988" r="51.7"/>
<circle id="Elipse_28-2" class="st3" cx="856.7" cy="-1993.2" r="6.1"/>
<circle id="Elipse_29-2" class="st3" cx="899.1" cy="-1993.2" r="6.1"/>
<path id="Trazado_54-2" class="st9" d="M863.9-1967.9c0,0,13.2-16.1,29-0.3"/>
<line id="Línea_19-2" class="st9" x1="851" y1="-2004" x2="862.4" y2="-2008.2"/>
<line id="Línea_20-2" class="st9" x1="893.4" y1="-2008.2" x2="904.8" y2="-2004"/>
<circle id="Elipse_27-2_2_" class="st10" cx="1133.4" cy="-2247" r="51.7"/>
<circle id="Elipse_22_3_" class="st3" cx="1112.5" cy="-2250.4" r="6.1"/>
<path id="Trazado_50_3_" class="st9" d="M1106.4-2263.4c0-3.4,2.7-6.1,6.1-6.1s6.1,2.7,6.1,6.1"/>
<path id="Trazado_51_3_" class="st9" d="M1148.8-2263.4c0-3.4,2.8-6,6.1-6c3.3,0,5.9,2.7,6,6"/>
<circle id="Elipse_23_3_" class="st3" cx="1154.9" cy="-2250.4" r="6.1"/>
<path id="Trazado_52_3_" class="st9" d="M1148.7-2232.3c0,0-13.2,16.1-29,0.3"/>
<circle id="Elipse_33" class="st10" cx="1384.2" cy="-2244.1" r="51.7"/>
<g id="Grupo_173" transform="translate(-524.864 -221.357)">
	<path id="Trazado_187" class="st14" d="M1896.2-2040.7"/>
	<path id="Trazado_188" class="st9" d="M1932.6-2044.7c0-2.4-1.7-4.4-4-4.9c-0.2-2.6-2.4-4.6-5-4.6c-0.2,0-0.5,0-0.8,0.1
		c-4.4-1.1-8.6-3-12.3-5.6c-2.4,0-4.5,1.7-4.9,4.1c-2.5,2.5-6.4,2.9-9.4,1c-2.8,0-5,2.2-5,5l0,0c0,0,0,0,0,0.1
		c-0.2,0-0.4-0.1-0.7-0.1c-2.8,0-5,2.2-5,5l0,0"/>
	<g id="Grupo_172">
		<path id="Trazado_189" class="st9" d="M1927.8-1986.2h-37.3l-4.1-43.4h45.3L1927.8-1986.2z"/>
		<circle id="Elipse_68" class="st9" cx="1909" cy="-2007.9" r="10.4"/>
		<line id="Línea_50" class="st9" x1="1900.4" y1="-2029.6" x2="1900.9" y2="-2014.4"/>
		<line id="Línea_51" class="st9" x1="1917.6" y1="-2029.6" x2="1917" y2="-2014.5"/>
		<line id="Línea_52" class="st9" x1="1901.3" y1="-2001" x2="1901.8" y2="-1986.2"/>
		<line id="Línea_53" class="st9" x1="1916.6" y1="-2001" x2="1916.1" y2="-1986.2"/>
		<rect id="Rectángulo_113" x="1884.3" y="-2038" class="st9" width="49.7" height="8.4"/>
	</g>
	<path id="Trazado_190" class="st9" d="M1897.9-2044.9c0.8-2,3.1-3,5.1-2.2"/>
	<path id="Trazado_191" class="st9" d="M1915.5-2048.2c2.1-0.7,4.3,0.4,5,2.4"/>
</g>
<g id="Grupo_187_1_" transform="translate(-198 -430)">
	<circle id="Elipse_27_2_" class="st10" cx="573.4" cy="-1559" r="51.7"/>
	<circle id="Elipse_28_1_" class="st3" cx="551.7" cy="-1564.2" r="6.1"/>
	<circle id="Elipse_29_1_" class="st3" cx="594.1" cy="-1564.2" r="6.1"/>
	<path id="Trazado_54_1_" class="st9" d="M558.9-1538.9c0,0,13.2-16.1,29-0.3"/>
	<line id="Línea_19_1_" class="st9" x1="546" y1="-1575" x2="557.4" y2="-1579.2"/>
	<line id="Línea_20_1_" class="st9" x1="588.4" y1="-1579.2" x2="599.8" y2="-1575"/>
</g>
<circle id="Elipse_27-2_3_" class="st15" cx="375.4" cy="-1988" r="51.7"/>
<circle id="Elipse_28-2_1_" class="st3" cx="353.7" cy="-1993.2" r="6.1"/>
<circle id="Elipse_29-2_1_" class="st3" cx="396.1" cy="-1993.2" r="6.1"/>
<path id="Trazado_54-2_1_" class="st9" d="M360.9-1967.9c0,0,13.2-16.1,29-0.3"/>
<line id="Línea_19-2_1_" class="st9" x1="348" y1="-2004" x2="359.4" y2="-2008.2"/>
<line id="Línea_20-2_1_" class="st9" x1="390.4" y1="-2008.2" x2="401.8" y2="-2004"/>
<circle id="Elipse_27-2_1_" class="st15" cx="630.4" cy="-2247" r="51.7"/>
<circle id="Elipse_22_1_" class="st3" cx="609.5" cy="-2250.4" r="6.1"/>
<path id="Trazado_50_1_" class="st9" d="M603.4-2263.4c0-3.4,2.7-6.1,6.1-6.1s6.1,2.7,6.1,6.1"/>
<path id="Trazado_51_1_" class="st9" d="M645.8-2263.4c0-3.4,2.8-6,6.1-6s5.9,2.7,6,6"/>
<circle id="Elipse_23_1_" class="st3" cx="651.9" cy="-2250.4" r="6.1"/>
<path id="Trazado_52_1_" class="st9" d="M645.7-2232.3c0,0-13.2,16.1-29,0.3"/>
<circle id="Elipse_33_1_" class="st11" cx="1628.2" cy="-2244.1" r="51.7"/>
<g id="Grupo_173_1_" transform="translate(-524.864 -221.357)">
	<path id="Trazado_187_1_" class="st14" d="M2140.2-2040.7"/>
	<path id="Trazado_188_1_" class="st9" d="M2176.6-2044.7c0-2.4-1.7-4.4-4-4.9c-0.2-2.6-2.4-4.6-5-4.6c-0.2,0-0.5,0-0.8,0.1
		c-4.4-1.1-8.6-3-12.3-5.6c-2.4,0-4.5,1.7-4.9,4.1c-2.5,2.5-6.4,2.9-9.4,1c-2.8,0-5,2.2-5,5l0,0c0,0,0,0,0,0.1
		c-0.2,0-0.4-0.1-0.7-0.1c-2.8,0-5,2.2-5,5l0,0"/>
	<g id="Grupo_172_1_">
		<path id="Trazado_189_1_" class="st9" d="M2171.9-1986.2h-37.3l-4.1-43.4h45.3L2171.9-1986.2z"/>
		<circle id="Elipse_68_1_" class="st9" cx="2153" cy="-2007.9" r="10.4"/>
		<line id="Línea_50_1_" class="st9" x1="2144.4" y1="-2029.6" x2="2144.9" y2="-2014.4"/>
		<line id="Línea_51_1_" class="st9" x1="2161.6" y1="-2029.6" x2="2161" y2="-2014.5"/>
		<line id="Línea_52_1_" class="st9" x1="2145.3" y1="-2001" x2="2145.8" y2="-1986.2"/>
		<line id="Línea_53_1_" class="st9" x1="2160.6" y1="-2001" x2="2160.1" y2="-1986.2"/>
		<rect id="Rectángulo_113_1_" x="2128.3" y="-2038" class="st9" width="49.6" height="8.4"/>
	</g>
	<path id="Trazado_190_1_" class="st9" d="M2141.9-2044.9c0.8-2,3.1-3,5.1-2.2"/>
	<path id="Trazado_191_1_" class="st9" d="M2159.5-2048.2c2.1-0.7,4.3,0.4,5,2.4"/>
</g>
<g id="Grupo_188_2_" transform="translate(152 -432)">
	<circle id="Elipse_34_3_" class="st15" cx="478.4" cy="-1557" r="51.7"/>
	<g id="Grupo_174_2_" transform="translate(2.001)">
		<path id="Trazado_186_3_" class="st16" d="M497.5-1559.6c0,11.6-9.4,20.9-20.9,20.9s-20.9-9.4-20.9-20.9"/>
		<line id="Línea_40_3_" class="st9" x1="476.6" y1="-1538.5" x2="476.6" y2="-1519.9"/>
		<line id="Línea_41_3_" class="st9" x1="463.8" y1="-1519.9" x2="489.8" y2="-1519.9"/>
		<path id="Rectángulo_112_3_" class="st16" d="M476.6-1595L476.6-1595c7,0,12.8,5.7,12.8,12.8v22.1c0,7.1-5.7,12.8-12.8,12.8l0,0
			c-7,0-12.8-5.7-12.8-12.8v-22.1C463.8-1589.3,469.6-1595,476.6-1595z"/>
		<line id="Línea_42_3_" class="st9" x1="463.8" y1="-1580.4" x2="470.7" y2="-1580.4"/>
		<line id="Línea_44_3_" class="st9" x1="463.8" y1="-1571.4" x2="470.7" y2="-1571.4"/>
		<line id="Línea_45_3_" class="st9" x1="463.8" y1="-1562.5" x2="470.7" y2="-1562.5"/>
		<line id="Línea_46_3_" class="st9" x1="482.5" y1="-1580.4" x2="489.4" y2="-1580.4"/>
		<line id="Línea_48_3_" class="st9" x1="482.5" y1="-1571.4" x2="489.4" y2="-1571.4"/>
		<line id="Línea_49_3_" class="st9" x1="482.5" y1="-1562.5" x2="489.4" y2="-1562.5"/>
	</g>
</g>
<circle id="Elipse_33_2_" class="st15" cx="881.2" cy="-2244.1" r="51.7"/>
<g id="Grupo_173_3_" transform="translate(-524.864 -221.357)">
	<path id="Trazado_187_3_" class="st14" d="M1393.2-2040.7"/>
	<path id="Trazado_188_3_" class="st9" d="M1429.6-2044.7c0-2.4-1.7-4.4-4-4.9c-0.2-2.6-2.4-4.6-5-4.6c-0.2,0-0.5,0-0.8,0.1
		c-4.4-1.1-8.6-3-12.3-5.6c-2.4,0-4.5,1.7-4.9,4.1c-2.5,2.5-6.4,2.9-9.4,1c-2.8,0-5,2.2-5,5l0,0c0,0,0,0,0,0.1
		c-0.2,0-0.4-0.1-0.7-0.1c-2.8,0-5,2.2-5,5l0,0"/>
	<g id="Grupo_172_3_">
		<path id="Trazado_189_3_" class="st9" d="M1424.8-1986.2h-37.3l-4.1-43.4h45.3L1424.8-1986.2z"/>
		<circle id="Elipse_68_3_" class="st9" cx="1406" cy="-2007.9" r="10.4"/>
		<line id="Línea_50_3_" class="st9" x1="1397.4" y1="-2029.6" x2="1397.9" y2="-2014.4"/>
		<line id="Línea_51_3_" class="st9" x1="1414.6" y1="-2029.6" x2="1414" y2="-2014.5"/>
		<line id="Línea_52_3_" class="st9" x1="1398.3" y1="-2001" x2="1398.8" y2="-1986.2"/>
		<line id="Línea_53_3_" class="st9" x1="1413.6" y1="-2001" x2="1413.1" y2="-1986.2"/>
		<rect id="Rectángulo_113_3_" x="1381.3" y="-2038" class="st9" width="49.7" height="8.4"/>
	</g>
	<path id="Trazado_190_3_" class="st9" d="M1394.9-2044.9c0.8-2,3.1-3,5.1-2.2"/>
	<path id="Trazado_191_3_" class="st9" d="M1412.5-2048.2c2.1-0.7,4.3,0.4,5,2.4"/>
</g>
<path id="Rectángulo_37_1_" class="st12" d="M147.1-921.8h129c37.5,0,67.9,30.4,67.9,67.9l0,0c0,37.5-30.4,67.9-67.9,67.9h-129
	c-37.5,0-67.9-30.4-67.9-67.9l0,0C79.2-891.4,109.6-921.8,147.1-921.8z"/>
<g id="Grupo_174_1_" transform="translate(-820.998 -467.103)">
	<path id="Trazado_186_4_" class="st9" d="M992.1-389.4c0,11.6-9.4,20.9-20.9,20.9s-20.9-9.4-20.9-20.9"/>
	<line id="Línea_40_4_" class="st9" x1="971.2" y1="-368.3" x2="971.2" y2="-349.7"/>
	<line id="Línea_41_4_" class="st9" x1="958.4" y1="-349.7" x2="984.4" y2="-349.7"/>
	<path id="Rectángulo_112_4_" class="st9" d="M971.2-424.8L971.2-424.8c7.1,0,12.8,5.7,12.8,12.8v22.1c0,7-5.7,12.8-12.8,12.8l0,0
		c-7,0-12.8-5.7-12.8-12.8V-412C958.4-419.1,964.1-424.8,971.2-424.8z"/>
	<line id="Línea_42_4_" class="st9" x1="958.4" y1="-410.2" x2="965.2" y2="-410.2"/>
	<line id="Línea_44_4_" class="st9" x1="958.4" y1="-401.3" x2="965.2" y2="-401.3"/>
	<line id="Línea_45_4_" class="st9" x1="958.4" y1="-392.3" x2="965.2" y2="-392.3"/>
	<line id="Línea_46_4_" class="st9" x1="977.1" y1="-410.2" x2="983.9" y2="-410.2"/>
	<line id="Línea_48_4_" class="st9" x1="977.1" y1="-401.3" x2="983.9" y2="-401.3"/>
	<line id="Línea_49_4_" class="st9" x1="977.1" y1="-392.3" x2="983.9" y2="-392.3"/>
</g>
<g id="Grupo_173_4_" transform="translate(-535.864 214.643)">
	<path id="Trazado_187_4_" class="st14" d="M796-1086.5"/>
	<path id="Trazado_188_4_" class="st9" d="M832.3-1090.5c0-2.4-1.7-4.4-4-4.9c-0.2-2.6-2.4-4.6-5-4.6c-0.2,0-0.5,0-0.8,0.1
		c-4.4-1.1-8.5-3-12.3-5.6c-2.4,0-4.5,1.7-4.9,4.1c-2.5,2.5-6.4,2.9-9.4,1c-2.8,0-5,2.2-5,5l0,0c0,0,0,0,0,0.1
		c-0.2,0-0.5-0.1-0.7-0.1c-2.8,0-5,2.2-5,5l0,0"/>
	<g id="Grupo_172_4_">
		<path id="Trazado_189_4_" class="st9" d="M827.7-1032h-37.3l-4.1-43.4h45.3L827.7-1032z"/>
		<circle id="Elipse_68_4_" class="st9" cx="808.8" cy="-1053.8" r="10.4"/>
		<line id="Línea_50_4_" class="st9" x1="800.2" y1="-1075.5" x2="800.7" y2="-1060.2"/>
		<line id="Línea_51_4_" class="st9" x1="817.3" y1="-1075.5" x2="816.8" y2="-1060.3"/>
		<line id="Línea_52_4_" class="st9" x1="801.1" y1="-1046.8" x2="801.6" y2="-1032"/>
		<line id="Línea_53_4_" class="st9" x1="816.4" y1="-1046.8" x2="815.9" y2="-1032"/>
		<rect id="Rectángulo_113_4_" x="784.1" y="-1083.8" class="st9" width="49.7" height="8.4"/>
	</g>
	<path id="Trazado_190_4_" class="st9" d="M797.7-1090.8c0.8-2,3.1-3,5.1-2.2"/>
	<path id="Trazado_191_4_" class="st9" d="M815.3-1094c2-0.7,4.3,0.3,5,2.4"/>
</g>
<ellipse id="Elipse_53_1_" transform="matrix(0.9996 -2.937274e-02 2.937274e-02 0.9996 13.8525 -0.2182)" class="st2" cx="-0.5" cy="-471.6" rx="25.7" ry="25.7"/>
<path id="Rectángulo_73_1_" class="st6" d="M-0.5-482.3L-0.5-482.3c1,0,1.8,0.8,1.8,1.8v17.9c0,1-0.8,1.8-1.8,1.8l0,0
	c-1,0-1.8-0.8-1.8-1.8v-17.9C-2.3-481.5-1.5-482.3-0.5-482.3z"/>
<path id="Rectángulo_74_1_" class="st6" d="M10.2-471.6L10.2-471.6c0,1-0.8,1.8-1.8,1.8H-9.5c-1,0-1.8-0.8-1.8-1.8l0,0
	c0-1,0.8-1.8,1.8-1.8H8.4C9.4-473.3,10.2-472.5,10.2-471.6z"/>
<circle id="Elipse_60" class="st6" cx="204.5" cy="-473.7" r="25.7"/>
<path id="Rectángulo_97" class="st2" d="M204.5-484.4L204.5-484.4c1,0,1.8,0.8,1.8,1.8v17.9c0,1-0.8,1.8-1.8,1.8l0,0
	c-1,0-1.8-0.8-1.8-1.8v-17.9C202.7-483.7,203.5-484.4,204.5-484.4z"/>
<path id="Rectángulo_98" class="st2" d="M215.2-473.7L215.2-473.7c0,1-0.8,1.8-1.8,1.8h-17.9c-1,0-1.8-0.8-1.8-1.8l0,0
	c0-1,0.8-1.8,1.8-1.8h17.9C214.4-475.5,215.2-474.7,215.2-473.7z"/>
<path id="Trazado_124_1_" class="st2" d="M74.3,384c-19.6,0-35.5,15.8-35.3,35.5c-0.2,45.8,18.1,89.8,50.6,122.2
	c32.3,32.5,76.3,50.7,122.2,50.6c45.8,0.2,89.8-18.1,122.2-50.6c32.5-32.3,50.7-76.3,50.6-122.2c0-19.6-15.9-35.5-35.5-35.5
	s-35.5,15.9-35.5,35.5c0,56.2-45.6,101.8-101.9,101.9c-56.2,0-101.8-45.6-101.9-101.9C109.8,399.9,93.9,384,74.3,384L74.3,384z"/>
<g>
	<g id="Grupo_132_1_" transform="translate(47.033 54.45)">
		<path id="Trazado_125_1_" class="st6" d="M160.6,1060.9c6.6,0,12.9,2.7,17.4,7.6h9.6c-5.7-9.5-15.9-15.2-27-15.2
			c-11.1-0.1-21.3,5.7-27,15.2h9.6C147.7,1063.6,154,1060.9,160.6,1060.9z"/>
	</g>
	<path id="Trazado_126_1_" class="st6" d="M133.6,1099.9l5.1-30.1h7.7l6,16.1l5.9-16.1h7.7l5.1,30.1h-7.7l-2.6-17.3l-7.1,17.3h-3.1
		l-6.7-17.3l-2.6,17.3H133.6z"/>
	<path id="Trazado_127_1_" class="st6" d="M172.7,1084.1c0-2.1,0.4-4.2,1.2-6.2c0.8-1.9,1.9-3.6,3.4-5c1.5-1.5,3.3-2.6,5.2-3.3
		c2.1-0.8,4.4-1.2,6.7-1.2s4.5,0.4,6.7,1.2c1.9,0.8,3.7,1.9,5.2,3.3s2.6,3.1,3.4,5c0.8,2,1.2,4.1,1.2,6.2s-0.4,4.2-1.2,6.2
		c-0.8,1.9-2,3.6-3.4,5c-1.5,1.4-3.3,2.6-5.2,3.3c-2.1,0.8-4.4,1.2-6.7,1.2s-4.6-0.4-6.7-1.2c-1.9-0.8-3.7-1.9-5.2-3.3
		s-2.6-3.1-3.4-5C173.1,1088.3,172.7,1086.2,172.7,1084.1z M180.8,1084.1c0,1.1,0.2,2.2,0.7,3.3c0.4,1,1.1,1.9,1.8,2.6
		c0.8,0.7,1.7,1.3,2.7,1.7c1,0.4,2.1,0.6,3.2,0.6c1.1,0,2.2-0.2,3.2-0.6s1.9-1,2.7-1.7s1.4-1.6,1.8-2.6c0.5-1,0.7-2.2,0.7-3.3
		c0-1.1-0.2-2.2-0.7-3.3c-0.4-1-1.1-1.9-1.8-2.6s-1.7-1.3-2.7-1.7c-1-0.4-2.1-0.6-3.2-0.6c-1.1,0-2.2,0.2-3.2,0.6s-1.9,1-2.7,1.7
		c-0.8,0.8-1.4,1.6-1.8,2.6C181,1081.9,180.8,1083,180.8,1084.1z"/>
	<path id="Trazado_128_1_" class="st6" d="M209.7,1084.1c0-2.1,0.4-4.2,1.2-6.2c0.8-1.9,2-3.6,3.4-5c1.5-1.5,3.3-2.6,5.2-3.3
		c2.1-0.8,4.4-1.2,6.7-1.2s4.5,0.4,6.6,1.2c2,0.8,3.7,1.9,5.2,3.3s2.6,3.1,3.4,5c0.8,2,1.2,4.1,1.2,6.2s-0.4,4.2-1.2,6.2
		c-0.8,1.9-2,3.6-3.4,5c-1.5,1.5-3.3,2.6-5.2,3.3c-2.1,0.8-4.4,1.2-6.6,1.2c-2.3,0-4.5-0.4-6.7-1.2c-1.9-0.8-3.7-1.9-5.2-3.3
		s-2.6-3.1-3.4-5C210.1,1088.3,209.6,1086.2,209.7,1084.1z M217.8,1084.1c0,1.1,0.2,2.2,0.7,3.3c0.4,1,1,1.9,1.8,2.6
		s1.7,1.3,2.7,1.7c1,0.4,2.1,0.6,3.2,0.6c1.1,0,2.2-0.2,3.2-0.6s1.9-1,2.7-1.7s1.4-1.6,1.8-2.6c0.5-1,0.7-2.2,0.7-3.3
		c0-1.1-0.2-2.2-0.7-3.3c-0.4-1-1.1-1.9-1.8-2.6s-1.7-1.3-2.7-1.7c-1-0.4-2.1-0.6-3.2-0.6c-1.1,0-2.2,0.2-3.2,0.6s-1.9,1-2.7,1.7
		c-0.8,0.8-1.4,1.6-1.8,2.6C218,1081.9,217.8,1083,217.8,1084.1L217.8,1084.1z"/>
	<path id="Trazado_129_1_" class="st6" d="M246.6,1069.8h11.5c2,0,3.9,0.4,5.7,1.2c1.8,0.8,3.3,1.9,4.7,3.3c1.3,1.4,2.4,3,3.1,4.8
		c0.8,1.8,1.1,3.8,1.1,5.7c0,2-0.4,3.9-1.1,5.7c-0.7,1.8-1.8,3.4-3.1,4.8s-2.9,2.5-4.7,3.3c-1.8,0.8-3.8,1.2-5.8,1.2h-11.5
		L246.6,1069.8z M254.4,1093.2h1.8c1.2,0,2.5-0.2,3.6-0.6c1-0.4,1.9-1,2.7-1.8c0.7-0.8,1.3-1.7,1.7-2.7c0.4-1.1,0.6-2.2,0.6-3.4
		c0-1.1-0.2-2.3-0.6-3.3c-0.4-1-0.9-1.9-1.7-2.7c-0.8-0.8-1.7-1.4-2.7-1.8c-1.1-0.4-2.4-0.7-3.6-0.6h-1.8V1093.2z"/>
	<rect id="Rectángulo_83_1_" x="180.6" y="1053.3" class="st6" width="22.5" height="7.5"/>
	<rect id="Rectángulo_84_1_" x="212.3" y="1053.3" class="st6" width="22.5" height="7.5"/>
</g>
<g>
	<g id="Grupo_98" transform="translate(47.035 54.451)">
		<path id="Trazado_90" class="st6" d="M765.4,764.7c-6.6,0-12.9-2.7-17.4-7.6h-9.6c9.1,14.9,28.5,19.7,43.4,10.6
			c4.3-2.6,8-6.3,10.6-10.6h-9.6C778.3,761.9,772,764.7,765.4,764.7z"/>
	</g>
	<path id="Trazado_91" class="st6" d="M738.4,803.6l5.1-30.1h7.7l6,16l5.9-16h7.7l5.1,30.1h-7.7l-2.6-17.3l-7,17.3h-3.1l-6.7-17.3
		l-2.6,17.3H738.4z"/>
	<path id="Trazado_92" class="st6" d="M777.5,787.9c-0.1-6.4,3.8-12.2,9.8-14.6c4.3-1.6,9-1.6,13.3,0c2,0.8,3.7,1.9,5.2,3.3
		c1.5,1.4,2.6,3.1,3.4,5c1.6,4,1.6,8.4,0,12.4c-0.8,1.9-2,3.6-3.4,5c-1.5,1.5-3.3,2.6-5.2,3.3c-4.3,1.6-9,1.6-13.3,0
		C781.3,800.1,777.4,794.3,777.5,787.9L777.5,787.9z M785.6,787.9c0,1.1,0.2,2.2,0.7,3.3c0.9,2,2.5,3.5,4.5,4.3
		c3.1,1.3,6.7,0.6,9.2-1.7c0.8-0.7,1.4-1.6,1.8-2.6c0.9-2.1,0.9-4.5,0-6.6c-0.4-1-1.1-1.9-1.8-2.6c-0.8-0.7-1.7-1.3-2.7-1.7
		c-2.1-0.8-4.4-0.8-6.5,0c-1,0.4-1.9,1-2.7,1.7c-0.8,0.8-1.4,1.6-1.8,2.6C785.8,785.6,785.6,786.7,785.6,787.9z"/>
	<path id="Trazado_93" class="st6" d="M814.5,787.9c-0.1-6.4,3.8-12.2,9.8-14.6c4.3-1.6,9-1.6,13.3,0c2,0.8,3.7,1.9,5.2,3.3
		c1.5,1.4,2.6,3.1,3.4,5c1.6,4,1.6,8.4,0,12.4c-0.8,1.9-2,3.6-3.4,5c-1.5,1.5-3.3,2.6-5.2,3.3c-4.3,1.6-9,1.6-13.3,0
		C818.3,800.1,814.4,794.3,814.5,787.9L814.5,787.9z M822.6,787.9c0,1.1,0.2,2.2,0.7,3.3c0.9,2,2.5,3.5,4.5,4.3
		c2.1,0.8,4.4,0.8,6.5,0c1-0.4,1.9-1,2.7-1.7s1.4-1.6,1.8-2.6c0.9-2.1,0.9-4.5,0-6.6c-0.4-1-1.1-1.9-1.8-2.6
		c-0.8-0.7-1.7-1.3-2.7-1.7c-2.1-0.8-4.4-0.8-6.5,0c-1,0.4-1.9,1-2.7,1.7c-0.8,0.8-1.4,1.6-1.8,2.6
		C822.8,785.6,822.6,786.7,822.6,787.9z"/>
	<path id="Trazado_94" class="st6" d="M851.5,773.5H863c2,0,3.9,0.4,5.7,1.2s3.3,1.9,4.7,3.3c1.3,1.4,2.4,3,3.2,4.8
		c1.5,3.7,1.5,7.8,0,11.4c-0.7,1.8-1.8,3.4-3.1,4.8s-2.9,2.5-4.7,3.3s-3.8,1.2-5.8,1.2h-11.5L851.5,773.5L851.5,773.5z M859.2,797
		h1.8c1.2,0,2.5-0.2,3.6-0.6c1-0.4,1.9-1,2.7-1.8c0.7-0.8,1.3-1.7,1.7-2.7c0.4-1.1,0.6-2.2,0.6-3.4c0-1.1-0.2-2.3-0.6-3.3
		c-0.7-2-2.3-3.7-4.4-4.4c-1.1-0.4-2.3-0.7-3.6-0.6h-1.8V797z"/>
	<rect id="Rectángulo_56" x="785.5" y="757.1" class="st6" width="22.5" height="7.5"/>
	<rect id="Rectángulo_57" x="817.1" y="757.1" class="st6" width="22.5" height="7.5"/>
</g>
</svg>
