<svg id="Capa_1" data-name="Capa 1" xmlns="http://www.w3.org/2000/svg" viewBox="0 0 475.14 475.14"><defs><style>.cls-1{fill:#e55552;stroke-miterlimit:10;stroke-width:20px;}.cls-1,.cls-2,.cls-4{stroke:#20345b;}.cls-2,.cls-6{fill:none;}.cls-2,.cls-4{stroke-linecap:round;stroke-linejoin:round;}.cls-2{stroke-width:3.72px;}.cls-3{fill:#20345b;}.cls-4,.cls-5{fill:#e3d7cf;}.cls-4{stroke-width:6.9px;}</style></defs><title>Elvis Presley</title><g id="Elipse_27-2" data-name="Elipse 27-2"><circle class="cls-1" cx="237.57" cy="237.57" r="227.57"/></g><path class="cls-2" d="M245.25,167.49h10.4" transform="translate(-12.43 -12.43)"/><path class="cls-3" d="M176.69,169.16s-13.21,56.55,19,75.81H317.38s8.43-71.53,8.43-83.57c0-12.54-42.95-33.22-42.95-33.22s-37.6-7.33-39.93-7.33-48,9.34-48,9.34l-7,24.34Z" transform="translate(-12.43 -12.43)"/><path class="cls-3" d="M317.38,248.51H195.7a3.5,3.5,0,0,1-1.81-.5c-14.25-8.51-22.31-25.12-23.32-48a128.8,128.8,0,0,1,2.67-31.64,3.41,3.41,0,0,1,.64-1.36l10.81-14.1,6.82-23.69a3.55,3.55,0,0,1,2.69-2.5c17.19-3.51,46.39-9.4,48.73-9.4s29.2,5.17,40.61,7.4a3.61,3.61,0,0,1,.86.28c.44.22,11,5.34,21.82,12.1,20.73,13,23.13,20.11,23.13,24.31,0,12.11-8.1,81.06-8.45,84A3.54,3.54,0,0,1,317.38,248.51Zm-120.67-7.08H314.23c1.62-13.9,8-69.75,8-80,0-6.32-21-20.34-40.53-29.82-13.83-2.7-36-6.91-38.78-7.18-3,.32-28.34,5.39-45.22,8.83l-6.41,22.28a3.71,3.71,0,0,1-.6,1.17l-10.73,14C178.66,177.1,170,224.4,196.71,241.43Z" transform="translate(-12.43 -12.43)"/><path class="cls-3" d="M308.25,309.09l35.66-24.81S322.27,250.53,250,250.53s-93.91,33.75-93.91,33.75l35.66,24.81Z" transform="translate(-12.43 -12.43)"/><path class="cls-3" d="M308.25,312.54H191.75a3.38,3.38,0,0,1-2-.62l-35.66-24.81a3.45,3.45,0,0,1-.93-4.69c.92-1.45,23.49-35.34,96.81-35.34s95.89,33.89,96.81,35.34a3.45,3.45,0,0,1-.93,4.69l-35.66,24.81A3.37,3.37,0,0,1,308.25,312.54Zm-115.42-6.89H307.17l31.74-22.1C332.07,275.91,307.43,254,250,254s-82.06,21.92-88.91,29.57Z" transform="translate(-12.43 -12.43)"/><path class="cls-4" d="M212.28,306.18" transform="translate(-12.43 -12.43)"/><path class="cls-4" d="M286.53,306.18" transform="translate(-12.43 -12.43)"/><path class="cls-3" d="M308.25,309.09,250,349.64l-58.25-40.55c-25,6.36-63.3,26.54-63.3,90.58h243.1C371.55,335.63,333.26,315.45,308.25,309.09Z" transform="translate(-12.43 -12.43)"/><path class="cls-3" d="M371.55,403.12H128.45a3.44,3.44,0,0,1-3.45-3.43v0c0-67.15,41.29-87.66,65.9-93.92a3.48,3.48,0,0,1,2.82.51L250,345.44l56.28-39.18a3.48,3.48,0,0,1,2.82-.51C333.71,312,375,332.52,375,399.67a3.44,3.44,0,0,1-3.43,3.45Zm-239.62-6.89H368.07c-1.23-55.68-32.33-76.14-59.15-83.4l-57,39.64a3.46,3.46,0,0,1-3.94,0L191,312.83c-26.77,7.26-57.87,27.72-59.1,83.4Z" transform="translate(-12.43 -12.43)"/><path class="cls-3" d="M308.25,312.54a3.47,3.47,0,0,1-.85-.1,86.76,86.76,0,0,0-20.21-2.81,3.6,3.6,0,0,1-2.48-1,3.43,3.43,0,0,1-1-2.46v-31.1c-7.58,3.38-22.38,9.11-35.58,9.11-12.63,0-25-5.6-31.78-9.32v31.32a3.43,3.43,0,0,1-1,2.46,3.38,3.38,0,0,1-2.48,1h0a85.19,85.19,0,0,0-20.21,2.81,3.41,3.41,0,0,1-2.82-.52l-35.66-24.81a3.45,3.45,0,0,1-.93-4.69c.92-1.45,23.49-35.34,96.81-35.34S346,281,346.87,282.43a3.45,3.45,0,0,1-.93,4.69l-35.66,24.81A3.42,3.42,0,0,1,308.25,312.54Zm-147.16-29,31.35,21.82a98.54,98.54,0,0,1,17-2.54v-34a3.45,3.45,0,0,1,5.38-2.85c.17.11,16.92,11.35,33.29,11.35,16.61,0,37.23-10.61,37.43-10.72a3.45,3.45,0,0,1,5,3.06v33.21a98.54,98.54,0,0,1,17,2.54l31.35-21.82C332.07,275.91,307.43,254,250,254s-82.06,21.9-88.91,29.55Z" transform="translate(-12.43 -12.43)"/><path class="cls-5" d="M308.25,309.09a88.15,88.15,0,0,0-21.13-2.91V269.62s-21.34,11.11-39,11.11-35.22-12-35.22-12v37.4A88.15,88.15,0,0,0,191.77,309L250,349.64Z" transform="translate(-12.43 -12.43)"/><path class="cls-3" d="M250,353.09a3.43,3.43,0,0,1-2-.62l-58.25-40.55a3.44,3.44,0,0,1,1.12-6.17,100.14,100.14,0,0,1,18.53-2.92V268.78a3.45,3.45,0,0,1,5.38-2.85c.17.11,16.92,11.35,33.29,11.35,16.64,0,37.23-10.61,37.43-10.72a3.45,3.45,0,0,1,5,3.06v33.21A100.14,100.14,0,0,1,309,305.75a3.45,3.45,0,0,1,2.51,4.17,3.5,3.5,0,0,1-1.39,2L252,352.47A3.43,3.43,0,0,1,250,353.09Zm-49.74-42.27L250,345.44l49.74-34.62a77.62,77.62,0,0,0-12.55-1.19,3.6,3.6,0,0,1-2.48-1,3.43,3.43,0,0,1-1-2.46v-31.1c-7.58,3.38-22.38,9.11-35.58,9.11-12.63,0-25-5.6-31.78-9.32v31.32a3.44,3.44,0,0,1-3.45,3.45h-.06A78,78,0,0,0,200.26,310.82Z" transform="translate(-12.43 -12.43)"/><g id="Elipse_27-2-2" data-name="Elipse 27-2-2"><ellipse class="cls-5" cx="238.96" cy="191.13" rx="66" ry="77.17"/><path class="cls-3" d="M251.39,284.18c-38.29,0-69.45-36.17-69.45-80.62v-7.79c-.16-23.26-.31-43.35,13.2-57,10.75-10.83,28.64-15.87,56.29-15.87,31.63,0,50.92,7.72,60.71,24.29,8.73,14.78,8.73,35,8.73,56.33C320.83,248,289.68,284.18,251.39,284.18Zm0-154.35c-25.34,0-42.15,4.53-51.39,13.84-11.49,11.57-11.36,30.33-11.2,52.05v7.84c0,40.65,28.06,73.72,62.55,73.72s62.55-33.07,62.55-73.72c0-42.8,0-73.73-62.51-73.73Z" transform="translate(-12.43 -12.43)"/></g><path class="cls-3" d="M235.65,224H212a3.45,3.45,0,0,1-.37-6.89,2.29,2.29,0,0,1,.37,0h23.61A3.45,3.45,0,1,1,236,224h-.33Z" transform="translate(-12.43 -12.43)"/><path class="cls-3" d="M263.16,263.1H239.54a3.45,3.45,0,0,1,0-6.89h23.62a3.45,3.45,0,1,1,.37,6.89Z" transform="translate(-12.43 -12.43)"/><path class="cls-3" d="M287.35,224H263.73a3.45,3.45,0,0,1,0-6.89h23.62a3.45,3.45,0,1,1,.37,6.89Z" transform="translate(-12.43 -12.43)"/><line class="cls-6" x1="237.57" y1="326.67" x2="237.57" y2="390.69"/><rect class="cls-5" x="234.03" y="326.67" width="7.09" height="64.03"/><path class="cls-3" d="M201.64,224.45c-2-31.52-6.92-34.68-6.92-34.68,0-41.1,19.23-35.43,19.23-35.43,0-25.65,8.42-23.14,8.42-23.14,4.71,39.58,26.91,46.34,40.88,44.64L258,100.93c-26.48-3.59-55.24,10.13-55.24,10.13-31.65,14-26,58.1-26,58.1l25,55.29Z" transform="translate(-12.43 -12.43)"/><path class="cls-3" d="M201.64,227.9a3.43,3.43,0,0,1-3.14-2l-24.95-55.29a3.46,3.46,0,0,1-.28-1,85.32,85.32,0,0,1,1.19-24.91c3.57-17.85,12.87-30.57,26.88-36.78,1.12-.54,29.91-14.07,57.09-10.4a3.44,3.44,0,0,1,3,3.17l5.27,74.91a3.43,3.43,0,0,1-3,3.67,35.07,35.07,0,0,1-26-7.17c-9.15-7.18-15.17-18.9-17.93-34.89-1.14,2.55-2.35,7.52-2.35,17.14a3.44,3.44,0,0,1-3.44,3.44,3.63,3.63,0,0,1-1-.14,8.07,8.07,0,0,0-6.53,1.73c-3.7,2.86-8.09,10.24-8.28,29.14,2.39,3.44,5.45,12.46,6.91,35.73a3.44,3.44,0,0,1-2.61,3.56A3,3,0,0,1,201.64,227.9Zm-21.58-59.66,15.71,34.82c-1.5-8-3-10.32-3.31-10.69a3.45,3.45,0,0,1-1.19-2.6c0-18.36,3.76-30.48,11.18-36a15.55,15.55,0,0,1,8.11-3.08c.38-11.32,2.58-18.34,6.71-21.41a7,7,0,0,1,6.08-1.35,3.44,3.44,0,0,1,2.44,2.89c2,17,7.45,29.05,16.14,35.87a27.88,27.88,0,0,0,17.63,6L254.73,104c-24.4-2.14-50.24,10-50.51,10.15-27.35,12.14-24.62,49.41-24.16,54.09Zm12.79,24.43Zm0,0Zm0,0Z" transform="translate(-12.43 -12.43)"/><path class="cls-3" d="M302.78,229.54l23-68.14c0-31.39-30.45-32.31-30.45-32.31-.81-14-13.63-22-13.63-22-5.72-3.38-17.31-5.26-23.76-6.13l5.28,74.91c10.95-1.34,20.08-7.88,20.08-7.88l-9.21-14.83c41.27-3.6,31.25,36.75,31.25,36.75-12,9.91-2.59,39.66-2.59,39.66h0" transform="translate(-12.43 -12.43)"/><path class="cls-3" d="M302.78,233h0a3.43,3.43,0,0,1-3.25-2.41,90.85,90.85,0,0,1-3.36-16.81c-1.19-12,.86-20.66,6.09-25.7.69-3.68,2.55-16.79-4.34-24.83-3.76-4.39-9.7-6.69-17.7-6.87l6.07,9.77a3.44,3.44,0,0,1-.92,4.62c-.4.29-10,7.07-21.68,8.5a3.43,3.43,0,0,1-3.83-3,1.23,1.23,0,0,1,0-.2l-5.28-74.91a3.45,3.45,0,0,1,3.9-3.66c12,1.62,20.39,3.83,25.05,6.58.62.38,12.71,8.09,15,21.88,8.29,1.26,30.78,7.27,30.78,35.43a3.49,3.49,0,0,1-.18,1.11l-23,68.13A3.44,3.44,0,0,1,302.78,233Zm-23.64-83.53c10.65,0,18.71,3.12,24,9.32,10.34,12.09,5.77,31.13,5.57,31.93a3.49,3.49,0,0,1-1.16,1.84c-5.47,4.51-5.46,15.23-4.11,24.26l18.9-56c-.34-27.06-26-28.27-27.11-28.31a3.45,3.45,0,0,1-3.33-3.25c-.68-12-11.9-19.24-12-19.31-3.18-1.87-9.57-3.63-18.19-5l4.71,66.81a46.93,46.93,0,0,0,12.17-4.91L271.19,155a3.43,3.43,0,0,1,1.1-4.74,3.47,3.47,0,0,1,1.53-.51,46.72,46.72,0,0,1,5.32-.29Z" transform="translate(-12.43 -12.43)"/><path class="cls-5" d="M193.62,364.2a17.43,17.43,0,0,1-17.41-17.41,3.59,3.59,0,1,1,7.18,0h0a10.23,10.23,0,1,0,20.46,0v0a3.59,3.59,0,0,1,7.18,0A17.43,17.43,0,0,1,193.62,364.2Z" transform="translate(-12.43 -12.43)"/><path class="cls-5" d="M222.22,385.7A11.74,11.74,0,0,1,210.5,374a3.59,3.59,0,0,1,7.18,0,4.55,4.55,0,0,0,9.09.43,3.08,3.08,0,0,0,0-.43,3.59,3.59,0,1,1,7.18,0h0A11.75,11.75,0,0,1,222.22,385.7Z" transform="translate(-12.43 -12.43)"/><path class="cls-5" d="M185.32,393.83a11.74,11.74,0,0,1-11.73-11.72,3.59,3.59,0,0,1,7.18,0,4.55,4.55,0,0,0,9.09,0,3.59,3.59,0,1,1,7.18,0h0A11.74,11.74,0,0,1,185.32,393.83Z" transform="translate(-12.43 -12.43)"/><path class="cls-5" d="M161.36,376.13a11.74,11.74,0,0,1-11.73-11.73,3.59,3.59,0,0,1,7.18,0,4.55,4.55,0,1,0,9.09.43,3.08,3.08,0,0,0,0-.43,3.59,3.59,0,0,1,7.18,0A11.74,11.74,0,0,1,161.36,376.13Z" transform="translate(-12.43 -12.43)"/><path class="cls-5" d="M306.53,364.2a17.43,17.43,0,0,1-17.41-17.41,3.59,3.59,0,0,1,7.18,0,10.24,10.24,0,0,0,20.47,0,3.59,3.59,0,1,1,7.18,0h0A17.44,17.44,0,0,1,306.53,364.2Z" transform="translate(-12.43 -12.43)"/><path class="cls-5" d="M277.93,385.7A11.74,11.74,0,0,1,266.21,374a3.59,3.59,0,1,1,7.18,0h0a4.55,4.55,0,0,0,9.09.43,3.08,3.08,0,0,0,0-.43,3.59,3.59,0,0,1,7.18,0A11.75,11.75,0,0,1,277.93,385.7Z" transform="translate(-12.43 -12.43)"/><path class="cls-5" d="M314.84,393.83a11.74,11.74,0,0,1-11.73-11.72,3.59,3.59,0,0,1,7.18,0,4.55,4.55,0,0,0,9.09,0,3.59,3.59,0,1,1,7.18,0h0A11.74,11.74,0,0,1,314.84,393.83Z" transform="translate(-12.43 -12.43)"/><path class="cls-5" d="M338.8,376.13a11.74,11.74,0,0,1-11.72-11.73,3.59,3.59,0,0,1,7.17-.38,2.41,2.41,0,0,1,0,.38,4.55,4.55,0,0,0,9.1,0,3.59,3.59,0,0,1,7.17-.38,2.41,2.41,0,0,1,0,.38A11.74,11.74,0,0,1,338.8,376.13Z" transform="translate(-12.43 -12.43)"/></svg>