<?xml version="1.0" encoding="utf-8"?>
<!-- Generator: Adobe Illustrator 24.0.0, SVG Export Plug-In . SVG Version: 6.00 Build 0)  -->
<svg version="1.1" id="Capa_1" xmlns="http://www.w3.org/2000/svg" xmlns:xlink="http://www.w3.org/1999/xlink" x="0px" y="0px"
	 viewBox="0 0 175.05 168.23" style="enable-background:new 0 0 175.05 168.23;" xml:space="preserve">
<style type="text/css">
	.st0{fill:#F5B15A;}
	.st1{fill:#EAE3DA;}
	.st2{fill:#E4D7CE;}
	.st3{fill:#002E61;}
	.st4{fill:#E45451;}
	.st5{fill:#E4D8CE;}
	.st6{fill:#1E244D;}
	.st7{fill:#F99A3D;}
	.st8{fill:none;stroke:#002E61;stroke-width:10;stroke-miterlimit:10;}
	.st9{fill:none;stroke:#002E61;stroke-width:5;stroke-linecap:round;stroke-linejoin:round;}
	.st10{fill:#E45451;stroke:#002E61;stroke-width:10;stroke-miterlimit:10;}
	.st11{fill:#F5B15A;stroke:#002E61;stroke-width:10;stroke-miterlimit:10;}
	.st12{fill:#E4D7CE;stroke:#002E61;stroke-width:10;stroke-miterlimit:10;}
	.st13{fill:none;stroke:#E4D7CE;stroke-width:5;stroke-linecap:round;stroke-linejoin:round;}
	.st14{fill:none;stroke:#002E61;stroke-width:2.37;stroke-linecap:round;stroke-linejoin:round;}
	.st15{fill:#E4D8CE;stroke:#002E61;stroke-width:10;stroke-miterlimit:10;}
	.st16{fill:#E4D8CE;stroke:#002E61;stroke-width:5;stroke-linecap:round;stroke-linejoin:round;}
</style>
<rect id="Rectángulo_36_1_" x="-2108.6" y="-1562.3" class="st0" width="1919.83" height="1080"/>
<g id="Grupo_201_1_" transform="translate(0 -7.083)">
	<g id="Grupo_10_1_" transform="translate(150 84.083)">
		<path id="Trazado_8_1_" class="st1" d="M-2106.37-732.67c2.94-6.98,8.59-12.47,15.66-15.19c7.81-2.93,16.42-2.93,24.23,0
			c3.55,1.37,6.8,3.44,9.54,6.08c2.66,2.59,4.78,5.69,6.23,9.11c2.98,7.22,2.98,15.32,0,22.54c-1.45,3.42-3.56,6.52-6.23,9.11
			c-2.74,2.64-5.99,4.71-9.54,6.09c-7.81,2.93-16.42,2.93-24.23,0c-14.7-6-21.76-22.78-15.76-37.49
			C-2106.43-732.51-2106.4-732.59-2106.37-732.67L-2106.37-732.67z M-2092.61-715.42c1.58,3.6,4.52,6.43,8.18,7.88
			c5.68,2.29,12.17,1.07,16.63-3.13c1.42-1.35,2.56-2.96,3.35-4.75c1.63-3.82,1.63-8.14,0-11.95c-0.79-1.79-1.93-3.4-3.35-4.75
			c-1.42-1.35-3.08-2.41-4.9-3.13c-3.77-1.49-7.96-1.49-11.73,0c-1.81,0.72-3.46,1.78-4.86,3.13c-1.4,1.36-2.53,2.97-3.31,4.75
			C-2094.25-723.56-2094.25-719.24-2092.61-715.42L-2092.61-715.42z"/>
		<rect id="Rectángulo_4_1_" x="-2085.38" y="-676.63" class="st1" width="13.68" height="40.85"/>
		<g id="Grupo_6_1_" transform="translate(7.948 405.244)">
			
				<rect id="Rectángulo_5_1_" x="-2063.73" y="-1470.96" transform="matrix(0.7071 -0.7071 0.7071 0.7071 436.8195 -1873.6708)" class="st1" width="40.85" height="13.68"/>
			<g id="Grupo_5_1_">
				<rect id="Rectángulo_6_1_" x="-2062.59" y="-1520.05" class="st1" width="98.18" height="13.68"/>
				<g id="Grupo_4_1_">
					<path id="Trazado_9_1_" class="st1" d="M-2094.79-1513.21c0.04-12.02-4.97-23.51-13.81-31.66v-17.43
						c27.11,16.48,35.73,51.81,19.26,78.92c-4.78,7.87-11.39,14.48-19.26,19.26v-17.44
						C-2099.76-1489.71-2094.75-1501.19-2094.79-1513.21z"/>
				</g>
			</g>
		</g>
		<g id="Grupo_9_1_" transform="translate(4.411)">
			<path id="Trazado_10_1_" class="st1" d="M-2070.05-1472.38c1.58,3.6,4.52,6.43,8.17,7.88c5.68,2.29,12.17,1.06,16.63-3.13
				c1.42-1.35,2.56-2.96,3.35-4.75c1.63-3.82,1.63-8.14,0-11.95c-0.79-1.79-1.93-3.4-3.35-4.75c-4.47-4.17-10.95-5.39-16.63-3.13
				c-1.81,0.72-3.46,1.78-4.86,3.13c-1.4,1.36-2.53,2.97-3.31,4.75C-2071.68-1480.52-2071.68-1476.2-2070.05-1472.38z"/>
			<g id="Grupo_7_1_" transform="translate(3.537 126.423)">
				<path id="Trazado_11_1_" class="st1" d="M-2059.51-1548.5c-12.02-0.04-23.5,4.97-31.65,13.81h-17.44
					c16.48-27.11,51.81-35.73,78.92-19.26c7.87,4.78,14.48,11.39,19.26,19.26h-17.44C-2036-1543.53-2047.49-1548.54-2059.51-1548.5z
					"/>
			</g>
			<g id="Grupo_8_1_">
				<path id="Trazado_12_1_" class="st1" d="M-2084.58-1562.3l-24.01,25.21l9.91,9.44l14.11-14.81l19.07,20.01l19.07-20.01
					l19.07,20.01l24.02-25.21l-9.9-9.44l-14.13,14.82l-19.07-20.01l-19.07,20.01L-2084.58-1562.3z"/>
			</g>
		</g>
	</g>
	<g id="Grupo_26_1_" transform="translate(1324 684.328)">
		
			<rect id="Rectángulo_5-2_1_" x="-2063.73" y="-1470.96" transform="matrix(0.7071 -0.7071 0.7071 0.7071 436.8195 -1873.6708)" class="st1" width="40.85" height="13.68"/>
		<g id="Grupo_5-2_1_" transform="translate(0 0)">
			<rect id="Rectángulo_6-2_1_" x="-2062.59" y="-1520.05" class="st1" width="98.18" height="13.68"/>
			<g id="Grupo_4-2_1_">
				<path id="Trazado_9-2_1_" class="st1" d="M-2094.79-1513.21c0.04-12.02-4.97-23.5-13.81-31.65v-17.44
					c17.21,10.35,27.71,29,27.61,49.09c0.09,20.09-10.4,38.74-27.61,49.09v-17.44C-2099.76-1489.71-2094.75-1501.19-2094.79-1513.21
					z"/>
			</g>
		</g>
	</g>
	<g id="Grupo_35_1_" transform="translate(0 186)">
		<path id="Trazado_8-2_1_" class="st1" d="M-1556.69-1381.33c-2.94,6.98-8.59,12.47-15.66,15.19c-7.81,2.93-16.42,2.93-24.23,0
			c-3.55-1.37-6.8-3.44-9.54-6.08c-2.66-2.59-4.78-5.69-6.23-9.11c-2.98-7.22-2.98-15.32,0-22.54c1.45-3.42,3.57-6.52,6.23-9.11
			c2.74-2.64,5.99-4.71,9.54-6.09c7.81-2.93,16.42-2.93,24.23,0c14.7,6,21.76,22.78,15.76,37.49
			C-1556.62-1381.49-1556.66-1381.41-1556.69-1381.33L-1556.69-1381.33z M-1570.44-1398.58c-1.58-3.6-4.52-6.43-8.17-7.88
			c-5.68-2.29-12.17-1.07-16.63,3.13c-1.42,1.35-2.56,2.96-3.35,4.75c-1.63,3.82-1.63,8.14,0,11.95c0.79,1.79,1.93,3.4,3.35,4.75
			c1.42,1.35,3.08,2.41,4.9,3.13c3.77,1.49,7.96,1.49,11.73,0c1.81-0.72,3.46-1.78,4.86-3.13c1.4-1.36,2.53-2.97,3.31-4.75
			C-1568.81-1390.44-1568.81-1394.76-1570.44-1398.58L-1570.44-1398.58z"/>
		<rect id="Rectángulo_4-2_1_" x="-1591.36" y="-1478.22" class="st1" width="13.68" height="40.85"/>
	</g>
	<g id="Grupo_6-2_1_" transform="translate(592.19 791.365) rotate(180)">
		
			<rect id="Rectángulo_5-3_1_" x="2153.46" y="1653.65" transform="matrix(0.7071 -0.7071 0.7071 0.7071 -537.4247 2023.5199)" class="st1" width="40.85" height="13.68"/>
		<g id="Grupo_5-3_1_">
			<rect id="Rectángulo_6-3_1_" x="2154.61" y="1604.55" class="st1" width="98.18" height="13.68"/>
			<g id="Grupo_4-3_1_">
				<path id="Trazado_9-3_1_" class="st1" d="M2122.4,1611.4c0.04-12.02-4.97-23.51-13.81-31.66v-17.43
					c27.11,16.48,35.73,51.81,19.26,78.92c-4.78,7.87-11.39,14.48-19.26,19.26v-17.44C2117.43,1634.9,2122.44,1623.42,2122.4,1611.4
					z"/>
			</g>
		</g>
	</g>
	<g id="Grupo_27_1_" transform="translate(1339.463 279.083)">
		<path id="Trazado_10-2_1_" class="st1" d="M-2070.05-1472.38c1.58,3.6,4.52,6.43,8.18,7.88c1.87,0.75,3.86,1.13,5.87,1.12
			c4,0.02,7.86-1.5,10.76-4.25c1.42-1.35,2.56-2.96,3.35-4.75c0.83-1.88,1.24-3.92,1.22-5.97c0.02-2.06-0.39-4.09-1.22-5.98
			c-0.79-1.79-1.93-3.4-3.35-4.75c-2.91-2.75-6.76-4.27-10.76-4.25c-2.01-0.01-4,0.37-5.87,1.11c-1.81,0.72-3.46,1.78-4.86,3.13
			c-1.4,1.36-2.53,2.97-3.31,4.75c-0.83,1.88-1.24,3.92-1.22,5.98C-2071.29-1476.31-2070.87-1474.27-2070.05-1472.38z"/>
		<g id="Grupo_7-2_1_" transform="translate(3.537 126.423)">
			<path id="Trazado_11-2_1_" class="st1" d="M-2059.51-1548.5c-12.02-0.04-23.5,4.97-31.65,13.81h-17.44
				c10.35-17.21,29-27.71,49.09-27.61c20.09-0.09,38.74,10.4,49.09,27.61h-17.44C-2036-1543.53-2047.49-1548.54-2059.51-1548.5z"/>
		</g>
		<g id="Grupo_8-2_1_">
			<path id="Trazado_12-2_1_" class="st1" d="M-2084.58-1562.3l-24.01,25.21l9.91,9.44l14.11-14.81l19.07,20.01l19.07-20.01
				l19.07,20.01l24.02-25.21l-9.9-9.44l-14.12,14.82l-19.07-20.02l-19.07,20.02L-2084.58-1562.3z"/>
		</g>
	</g>
	<g id="Grupo_25_1_" transform="translate(15.249)">
		<path id="Trazado_13_1_" class="st1" d="M-356.08-1381.33c-2.94,6.98-8.59,12.47-15.66,15.19c-7.81,2.93-16.42,2.93-24.23,0
			c-3.55-1.37-6.8-3.44-9.54-6.08c-2.66-2.59-4.78-5.69-6.23-9.11c-2.98-7.22-2.98-15.32,0-22.54c1.45-3.42,3.57-6.52,6.23-9.11
			c2.74-2.64,5.99-4.71,9.54-6.08c7.81-2.93,16.42-2.93,24.23,0c14.7,6,21.76,22.78,15.76,37.48
			C-356.01-1381.5-356.04-1381.42-356.08-1381.33L-356.08-1381.33z M-369.83-1398.58c-1.58-3.6-4.52-6.43-8.17-7.88
			c-3.77-1.49-7.97-1.49-11.74,0c-1.82,0.72-3.48,1.79-4.9,3.13c-1.42,1.35-2.56,2.96-3.35,4.75c-1.63,3.82-1.63,8.14,0,11.95
			c0.79,1.79,1.93,3.41,3.35,4.75c1.42,1.35,3.08,2.41,4.9,3.13c3.77,1.49,7.97,1.49,11.74,0c1.81-0.72,3.46-1.78,4.86-3.13
			c1.4-1.36,2.53-2.97,3.31-4.75C-368.2-1390.44-368.2-1394.76-369.83-1398.58z"/>
		<rect id="Rectángulo_7_1_" x="-390.75" y="-1478.22" class="st1" width="13.68" height="40.85"/>
		<g id="Grupo_13_1_" transform="translate(1602.612 487.904)">
			
				<rect id="Rectángulo_8_1_" x="-2050.12" y="-1549.87" transform="matrix(0.7071 -0.7071 0.7071 0.7071 496.6014 -1887.1514)" class="st1" width="40.85" height="13.68"/>
			<g id="Grupo_12_1_" transform="translate(0 19.278)">
				<rect id="Rectángulo_9_1_" x="-2108.6" y="-1520.05" class="st1" width="98.18" height="13.68"/>
				<g id="Grupo_11_1_" transform="translate(116.577)">
					<path id="Trazado_14_1_" class="st1" d="M-2094.79-1513.21c-0.04,12.02,4.97,23.5,13.81,31.65v17.44
						c-27.11-16.47-35.74-51.81-19.26-78.92c4.78-7.87,11.39-14.48,19.26-19.26v17.44
						C-2089.82-1536.72-2094.83-1525.23-2094.79-1513.21z"/>
				</g>
			</g>
		</g>
		<g id="Grupo_16_1_" transform="translate(1645.084 856.573)">
			<path id="Trazado_15_1_" class="st1" d="M-2041.89-1498.19c-1.58-3.6-4.52-6.43-8.17-7.88c-5.68-2.29-12.17-1.07-16.63,3.13
				c-1.42,1.35-2.56,2.96-3.35,4.75c-1.63,3.82-1.63,8.14,0,11.95c0.79,1.79,1.93,3.41,3.35,4.75c1.42,1.35,3.08,2.41,4.9,3.13
				c3.77,1.49,7.97,1.49,11.74,0c1.81-0.72,3.46-1.78,4.86-3.13c1.4-1.36,2.53-2.97,3.31-4.75
				C-2040.26-1490.05-2040.26-1494.37-2041.89-1498.19L-2041.89-1498.19z"/>
			<g id="Grupo_14_1_" transform="translate(3.537)">
				<path id="Trazado_16_1_" class="st1" d="M-2059.51-1548.5c12.02,0.04,23.5-4.97,31.65-13.81h17.44
					c-16.48,27.11-51.81,35.73-78.92,19.26c-7.87-4.78-14.48-11.39-19.26-19.26h17.44
					C-2083.01-1553.47-2071.53-1548.46-2059.51-1548.5z"/>
			</g>
			<g id="Grupo_15_1_" transform="translate(0 114.188)">
				<path id="Trazado_17_1_" class="st1" d="M-2027.36-1522.46l24.02-25.21l-9.91-9.44l-14.11,14.81l-19.07-20.01l-19.07,20.02
					l-19.07-20.01l-24.03,25.21l9.9,9.44l14.12-14.82l19.08,20.01l19.07-20.01L-2027.36-1522.46z"/>
			</g>
		</g>
	</g>
</g>
<rect id="Rectángulo_51" x="-2108.07" y="-178.73" class="st2" width="1919.83" height="1080"/>
<g id="Grupo_203" transform="translate(0 -7.083)">
	<g id="Grupo_10" transform="translate(150 84.083)">
		<path id="Trazado_8" class="st3" d="M-2105.84,650.91c2.94-6.98,8.59-12.47,15.66-15.19c7.81-2.93,16.42-2.93,24.23,0
			c3.55,1.37,6.8,3.44,9.54,6.08c2.66,2.59,4.78,5.69,6.23,9.11c2.98,7.22,2.98,15.32,0,22.54c-1.45,3.42-3.56,6.52-6.23,9.11
			c-2.74,2.64-5.99,4.71-9.54,6.09c-7.81,2.93-16.42,2.93-24.23,0c-14.7-6-21.76-22.78-15.76-37.49
			C-2105.91,651.07-2105.87,650.99-2105.84,650.91L-2105.84,650.91z M-2092.09,668.16c1.58,3.6,4.52,6.43,8.18,7.88
			c5.68,2.29,12.17,1.07,16.63-3.13c1.42-1.35,2.56-2.96,3.35-4.75c1.63-3.82,1.63-8.14,0-11.95c-0.79-1.79-1.93-3.4-3.35-4.75
			c-1.42-1.35-3.08-2.41-4.9-3.13c-3.77-1.49-7.96-1.49-11.73,0c-1.81,0.72-3.46,1.78-4.86,3.13c-1.4,1.36-2.53,2.97-3.31,4.75
			C-2093.72,660.02-2093.72,664.34-2092.09,668.16L-2092.09,668.16z"/>
		<rect id="Rectángulo_4" x="-2084.85" y="706.95" class="st3" width="13.68" height="40.85"/>
		<g id="Grupo_6" transform="translate(7.948 405.244)">
			
				<rect id="Rectángulo_5" x="-2063.21" y="-87.38" transform="matrix(0.7071 -0.7071 0.7071 0.7071 -541.3644 -1468.0577)" class="st3" width="40.85" height="13.68"/>
			<g id="Grupo_5">
				<rect id="Rectángulo_6" x="-2062.06" y="-136.48" class="st3" width="98.18" height="13.68"/>
				<g id="Grupo_4">
					<path id="Trazado_9" class="st3" d="M-2094.26-129.63c0.04-12.02-4.97-23.51-13.81-31.66v-17.43
						c27.11,16.48,35.73,51.81,19.26,78.92c-4.78,7.87-11.39,14.48-19.26,19.26v-17.44
						C-2099.24-106.13-2094.23-117.62-2094.26-129.63z"/>
				</g>
			</g>
		</g>
		<g id="Grupo_9" transform="translate(4.411)">
			<path id="Trazado_10" class="st3" d="M-2069.52-88.81c1.58,3.6,4.52,6.43,8.18,7.88c5.68,2.29,12.17,1.06,16.63-3.13
				c1.42-1.35,2.56-2.96,3.35-4.75c1.63-3.82,1.63-8.14,0-11.96c-0.79-1.79-1.93-3.4-3.35-4.75c-4.48-4.17-10.95-5.39-16.63-3.13
				c-1.81,0.72-3.46,1.78-4.86,3.13c-1.4,1.36-2.53,2.97-3.31,4.75C-2071.15-96.94-2071.15-92.62-2069.52-88.81z"/>
			<g id="Grupo_7" transform="translate(3.537 126.423)">
				<path id="Trazado_11" class="st3" d="M-2058.98-164.92c-12.02-0.04-23.5,4.97-31.65,13.81h-17.44
					c16.48-27.11,51.81-35.73,78.92-19.26c7.87,4.78,14.48,11.39,19.26,19.26h-17.44C-2035.48-159.95-2046.96-164.96-2058.98-164.92
					z"/>
			</g>
			<g id="Grupo_8">
				<path id="Trazado_12" class="st3" d="M-2084.06-178.73l-24.01,25.21l9.91,9.44l14.11-14.81l19.07,20.01l19.07-20.01l19.07,20.01
					l24.03-25.21l-9.9-9.44l-14.13,14.82l-19.07-20.01l-19.07,20.01L-2084.06-178.73z"/>
			</g>
		</g>
	</g>
	<g id="Grupo_26" transform="translate(1324 684.328)">
		
			<rect id="Rectángulo_5-2" x="-2063.21" y="-87.38" transform="matrix(0.7071 -0.7071 0.7071 0.7071 -541.3644 -1468.0577)" class="st3" width="40.85" height="13.68"/>
		<g id="Grupo_5-2" transform="translate(0 0)">
			<rect id="Rectángulo_6-2" x="-2062.06" y="-136.48" class="st3" width="98.18" height="13.68"/>
			<g id="Grupo_4-2">
				<path id="Trazado_9-2" class="st3" d="M-2094.26-129.63c0.04-12.02-4.97-23.5-13.81-31.65v-17.44
					c17.21,10.35,27.71,29,27.61,49.09c0.09,20.09-10.4,38.74-27.61,49.09v-17.44C-2099.24-106.13-2094.23-117.62-2094.26-129.63z"
					/>
			</g>
		</g>
	</g>
	<g id="Grupo_35" transform="translate(0 186)">
		<path id="Trazado_8-2" class="st3" d="M-1556.16,2.25c-2.94,6.98-8.59,12.47-15.66,15.19c-7.81,2.93-16.42,2.93-24.23,0
			c-3.55-1.37-6.8-3.44-9.54-6.08c-2.66-2.59-4.78-5.69-6.23-9.11c-2.98-7.22-2.98-15.32,0-22.54c1.45-3.42,3.57-6.52,6.23-9.11
			c2.74-2.64,5.99-4.71,9.54-6.09c7.81-2.93,16.42-2.93,24.23,0c14.7,6,21.76,22.78,15.76,37.49
			C-1556.1,2.08-1556.13,2.17-1556.16,2.25L-1556.16,2.25z M-1569.92-15c-1.58-3.6-4.52-6.43-8.18-7.88
			c-5.68-2.29-12.17-1.07-16.63,3.13c-1.42,1.35-2.56,2.96-3.35,4.75c-1.63,3.82-1.63,8.14,0,11.95c0.79,1.79,1.93,3.4,3.35,4.75
			c1.42,1.35,3.08,2.41,4.9,3.13c3.77,1.49,7.96,1.49,11.74,0c1.81-0.72,3.46-1.78,4.86-3.13c1.4-1.36,2.53-2.97,3.31-4.75
			C-1568.28-6.86-1568.28-11.18-1569.92-15L-1569.92-15z"/>
		<rect id="Rectángulo_4-2" x="-1590.83" y="-94.64" class="st3" width="13.68" height="40.85"/>
	</g>
	<g id="Grupo_6-2" transform="translate(592.19 791.365) rotate(180)">
		
			<rect id="Rectángulo_5-3" x="2152.93" y="270.07" transform="matrix(0.7071 -0.7071 0.7071 0.7071 440.7617 1617.9043)" class="st3" width="40.85" height="13.68"/>
		<g id="Grupo_5-3">
			<rect id="Rectángulo_6-3" x="2154.08" y="220.98" class="st3" width="98.18" height="13.68"/>
			<g id="Grupo_4-3">
				<path id="Trazado_9-3" class="st3" d="M2121.88,227.82c0.04-12.02-4.97-23.51-13.81-31.66v-17.43
					c27.11,16.48,35.73,51.81,19.26,78.92c-4.78,7.87-11.39,14.48-19.26,19.26v-17.44C2116.91,251.32,2121.92,239.84,2121.88,227.82
					z"/>
			</g>
		</g>
	</g>
	<g id="Grupo_27" transform="translate(1339.463 279.083)">
		<path id="Trazado_10-2" class="st3" d="M-2069.52-88.81c1.58,3.6,4.52,6.43,8.18,7.88c1.87,0.75,3.86,1.13,5.87,1.12
			c4,0.02,7.86-1.5,10.77-4.25c1.42-1.35,2.56-2.96,3.35-4.75c0.83-1.88,1.24-3.92,1.22-5.97c0.02-2.06-0.39-4.09-1.22-5.98
			c-0.79-1.79-1.93-3.4-3.35-4.75c-2.91-2.75-6.76-4.27-10.77-4.25c-2.01-0.01-4,0.37-5.87,1.11c-1.81,0.72-3.46,1.78-4.86,3.13
			c-1.4,1.36-2.53,2.97-3.31,4.75c-0.83,1.88-1.24,3.92-1.22,5.98C-2070.77-92.73-2070.35-90.69-2069.52-88.81z"/>
		<g id="Grupo_7-2" transform="translate(3.537 126.423)">
			<path id="Trazado_11-2" class="st3" d="M-2058.98-164.92c-12.02-0.04-23.5,4.97-31.65,13.81h-17.44
				c10.35-17.21,29-27.71,49.09-27.61c20.09-0.09,38.74,10.4,49.09,27.61h-17.44C-2035.48-159.95-2046.96-164.96-2058.98-164.92z"/>
		</g>
		<g id="Grupo_8-2">
			<path id="Trazado_12-2" class="st3" d="M-2084.06-178.73l-24.01,25.21l9.91,9.44l14.11-14.81l19.07,20.01l19.07-20.01
				l19.07,20.01l24.03-25.21l-9.9-9.44l-14.12,14.82l-19.07-20.02l-19.07,20.02L-2084.06-178.73z"/>
		</g>
	</g>
	<g id="Grupo_25" transform="translate(15.249)">
		<path id="Trazado_13" class="st3" d="M-355.55,2.25c-2.94,6.98-8.59,12.47-15.66,15.19c-7.81,2.93-16.42,2.93-24.23,0
			c-3.55-1.37-6.8-3.44-9.54-6.08c-2.66-2.59-4.78-5.69-6.23-9.11c-2.98-7.22-2.98-15.32,0-22.54c1.45-3.42,3.57-6.52,6.23-9.11
			c2.74-2.64,5.99-4.71,9.54-6.08c7.81-2.93,16.42-2.93,24.23,0c14.7,6,21.76,22.78,15.76,37.48
			C-355.48,2.08-355.52,2.16-355.55,2.25L-355.55,2.25z M-369.3-15c-1.58-3.6-4.52-6.43-8.17-7.88c-3.77-1.49-7.97-1.49-11.74,0
			c-1.82,0.72-3.48,1.79-4.9,3.13c-1.42,1.35-2.56,2.96-3.35,4.75c-1.63,3.82-1.63,8.14,0,11.95c0.79,1.79,1.93,3.41,3.35,4.75
			c1.42,1.35,3.08,2.41,4.9,3.13c3.77,1.49,7.97,1.49,11.74,0c1.81-0.72,3.46-1.78,4.86-3.13c1.4-1.36,2.53-2.97,3.31-4.75
			C-367.67-6.87-367.67-11.18-369.3-15z"/>
		<rect id="Rectángulo_7" x="-390.22" y="-94.64" class="st3" width="13.68" height="40.85"/>
		<g id="Grupo_13" transform="translate(1602.612 487.904)">
			
				<rect id="Rectángulo_8" x="-2049.59" y="-166.29" transform="matrix(0.7071 -0.7071 0.7071 0.7071 -481.5825 -1481.5382)" class="st3" width="40.85" height="13.68"/>
			<g id="Grupo_12" transform="translate(0 19.278)">
				<rect id="Rectángulo_9" x="-2108.07" y="-136.47" class="st3" width="98.18" height="13.68"/>
				<g id="Grupo_11" transform="translate(116.577)">
					<path id="Trazado_14" class="st3" d="M-2094.26-129.63c-0.04,12.02,4.97,23.5,13.81,31.65v17.44
						c-27.11-16.47-35.74-51.81-19.26-78.92c4.78-7.87,11.39-14.48,19.26-19.26v17.44C-2089.29-153.14-2094.3-141.66-2094.26-129.63
						z"/>
				</g>
			</g>
		</g>
		<g id="Grupo_16" transform="translate(1645.084 856.573)">
			<path id="Trazado_15" class="st3" d="M-2041.37-114.61c-1.58-3.6-4.52-6.43-8.17-7.88c-5.68-2.29-12.17-1.07-16.63,3.13
				c-1.42,1.35-2.56,2.96-3.35,4.75c-1.63,3.82-1.63,8.14,0,11.95c0.79,1.79,1.93,3.41,3.35,4.75c1.42,1.35,3.08,2.41,4.9,3.13
				c3.77,1.49,7.97,1.49,11.74,0c1.81-0.72,3.46-1.78,4.86-3.13c1.4-1.36,2.53-2.97,3.31-4.75
				C-2039.73-106.47-2039.73-110.79-2041.37-114.61L-2041.37-114.61z"/>
			<g id="Grupo_14" transform="translate(3.537)">
				<path id="Trazado_16" class="st3" d="M-2058.98-164.92c12.02,0.04,23.5-4.97,31.65-13.81h17.44
					c-16.48,27.11-51.81,35.73-78.92,19.26c-7.87-4.78-14.48-11.39-19.26-19.26h17.44C-2082.48-169.89-2071-164.88-2058.98-164.92z"
					/>
			</g>
			<g id="Grupo_15" transform="translate(0 114.188)">
				<path id="Trazado_17" class="st3" d="M-2026.83-138.88l24.02-25.21l-9.91-9.44l-14.11,14.81l-19.07-20.01l-19.07,20.02
					l-19.07-20.01l-24.03,25.21l9.9,9.44l14.12-14.82l19.08,20.01l19.07-20.01L-2026.83-138.88z"/>
			</g>
		</g>
	</g>
</g>
<rect id="Rectángulo_32_1_" x="-2109.07" y="1214.27" class="st4" width="1919.83" height="1080"/>
<g id="Grupo_199_1_" transform="translate(0 -7.083)">
	<g id="Grupo_10_3_" transform="translate(150 84.083)">
		<path id="Trazado_8_3_" class="st5" d="M-2106.84,2043.91c2.94-6.98,8.59-12.47,15.66-15.19c7.81-2.93,16.42-2.93,24.23,0
			c3.55,1.37,6.8,3.44,9.54,6.08c2.66,2.59,4.78,5.69,6.23,9.11c2.98,7.22,2.98,15.32,0,22.54c-1.45,3.42-3.56,6.52-6.23,9.11
			c-2.74,2.64-5.99,4.71-9.54,6.08c-7.81,2.93-16.42,2.93-24.23,0c-14.7-6-21.76-22.78-15.76-37.49
			C-2106.91,2044.07-2106.87,2043.99-2106.84,2043.91L-2106.84,2043.91z M-2093.09,2061.16c1.58,3.6,4.52,6.43,8.18,7.88
			c5.68,2.29,12.17,1.07,16.63-3.13c1.42-1.35,2.56-2.96,3.35-4.75c1.63-3.82,1.63-8.14,0-11.95c-0.79-1.79-1.93-3.4-3.35-4.75
			c-1.42-1.35-3.08-2.41-4.9-3.13c-3.77-1.49-7.96-1.49-11.73,0c-1.81,0.72-3.46,1.78-4.86,3.13c-1.4,1.36-2.53,2.97-3.31,4.75
			C-2094.72,2053.02-2094.72,2057.34-2093.09,2061.16L-2093.09,2061.16z"/>
		<rect id="Rectángulo_4_3_" x="-2085.85" y="2099.95" class="st5" width="13.68" height="40.85"/>
		<g id="Grupo_6_3_" transform="translate(7.948 405.244)">
			
				<rect id="Rectángulo_5_3_" x="-2064.21" y="1305.62" transform="matrix(0.7071 -0.7071 0.7071 0.7071 -1526.6571 -1060.7646)" class="st5" width="40.85" height="13.68"/>
			<g id="Grupo_5_3_">
				<rect id="Rectángulo_6_3_" x="-2063.06" y="1256.52" class="st5" width="98.18" height="13.68"/>
				<g id="Grupo_4_3_">
					<path id="Trazado_9_3_" class="st5" d="M-2095.26,1263.37c0.04-12.02-4.97-23.51-13.81-31.66v-17.43
						c27.11,16.48,35.73,51.81,19.26,78.92c-4.78,7.87-11.39,14.48-19.26,19.26v-17.44
						C-2100.24,1286.87-2095.23,1275.38-2095.26,1263.37z"/>
				</g>
			</g>
		</g>
		<g id="Grupo_9_3_" transform="translate(4.411)">
			<path id="Trazado_10_3_" class="st5" d="M-2070.52,1304.19c1.58,3.6,4.52,6.43,8.18,7.88c5.68,2.29,12.17,1.06,16.63-3.13
				c1.42-1.35,2.56-2.96,3.35-4.75c1.63-3.82,1.63-8.14,0-11.95c-0.79-1.79-1.93-3.4-3.35-4.75c-4.48-4.17-10.95-5.39-16.63-3.13
				c-1.81,0.72-3.46,1.78-4.86,3.13c-1.4,1.36-2.53,2.97-3.31,4.75C-2072.15,1296.06-2072.15,1300.38-2070.52,1304.19z"/>
			<g id="Grupo_7_3_" transform="translate(3.537 126.423)">
				<path id="Trazado_11_3_" class="st5" d="M-2059.98,1228.08c-12.02-0.04-23.5,4.97-31.65,13.81h-17.44
					c16.48-27.11,51.81-35.73,78.92-19.26c7.87,4.78,14.48,11.39,19.26,19.26h-17.44
					C-2036.48,1233.05-2047.96,1228.04-2059.98,1228.08z"/>
			</g>
			<g id="Grupo_8_3_">
				<path id="Trazado_12_3_" class="st5" d="M-2085.06,1214.27l-24.01,25.21l9.91,9.44l14.11-14.81l19.07,20.01l19.07-20.01
					l19.07,20.01l24.03-25.21l-9.9-9.44l-14.13,14.82l-19.07-20.01l-19.07,20.01L-2085.06,1214.27z"/>
			</g>
		</g>
	</g>
	<g id="Grupo_26_3_" transform="translate(1324 684.328)">
		
			<rect id="Rectángulo_5-2_3_" x="-2064.21" y="1305.62" transform="matrix(0.7071 -0.7071 0.7071 0.7071 -1526.6571 -1060.7646)" class="st5" width="40.85" height="13.68"/>
		<g id="Grupo_5-2_3_" transform="translate(0 0)">
			<rect id="Rectángulo_6-2_3_" x="-2063.06" y="1256.52" class="st5" width="98.18" height="13.68"/>
			<g id="Grupo_4-2_3_">
				<path id="Trazado_9-2_3_" class="st5" d="M-2095.26,1263.37c0.04-12.02-4.97-23.5-13.81-31.65v-17.44
					c17.21,10.35,27.71,29,27.61,49.09c0.09,20.09-10.4,38.74-27.61,49.09v-17.44C-2100.24,1286.87-2095.23,1275.38-2095.26,1263.37
					z"/>
			</g>
		</g>
	</g>
	<g id="Grupo_35_3_" transform="translate(0 186)">
		<path id="Trazado_8-2_3_" class="st5" d="M-1557.16,1395.25c-2.94,6.98-8.59,12.47-15.66,15.19c-7.81,2.93-16.42,2.93-24.23,0
			c-3.55-1.37-6.8-3.44-9.54-6.08c-2.66-2.59-4.78-5.69-6.23-9.11c-2.98-7.22-2.98-15.32,0-22.54c1.45-3.42,3.57-6.52,6.23-9.11
			c2.74-2.64,5.99-4.71,9.54-6.08c7.81-2.93,16.42-2.93,24.23,0c14.7,6,21.76,22.78,15.76,37.49
			C-1557.1,1395.08-1557.13,1395.17-1557.16,1395.25L-1557.16,1395.25z M-1570.92,1378c-1.58-3.6-4.52-6.43-8.18-7.88
			c-5.68-2.29-12.17-1.07-16.63,3.13c-1.42,1.35-2.56,2.96-3.35,4.75c-1.63,3.82-1.63,8.14,0,11.95c0.79,1.79,1.93,3.4,3.35,4.75
			c1.42,1.35,3.08,2.41,4.9,3.13c3.77,1.49,7.96,1.49,11.74,0c1.81-0.72,3.46-1.78,4.86-3.13c1.4-1.36,2.53-2.97,3.31-4.75
			C-1569.28,1386.14-1569.28,1381.82-1570.92,1378L-1570.92,1378z"/>
		<rect id="Rectángulo_4-2_3_" x="-1591.83" y="1298.36" class="st5" width="13.68" height="40.85"/>
	</g>
	<g id="Grupo_6-2_3_" transform="translate(592.19 791.365) rotate(180)">
		
			<rect id="Rectángulo_5-3_3_" x="2153.93" y="-1122.93" transform="matrix(0.7071 -0.7071 0.7071 0.7071 1426.0569 1210.6086)" class="st5" width="40.85" height="13.68"/>
		<g id="Grupo_5-3_3_">
			<rect id="Rectángulo_6-3_3_" x="2155.08" y="-1172.02" class="st5" width="98.18" height="13.68"/>
			<g id="Grupo_4-3_3_">
				<path id="Trazado_9-3_3_" class="st5" d="M2122.88-1165.18c0.04-12.02-4.97-23.51-13.81-31.66v-17.43
					c27.11,16.48,35.73,51.81,19.26,78.92c-4.78,7.87-11.39,14.48-19.26,19.26v-17.44
					C2117.91-1141.68,2122.92-1153.16,2122.88-1165.18z"/>
			</g>
		</g>
	</g>
	<g id="Grupo_27_3_" transform="translate(1339.463 279.083)">
		<path id="Trazado_10-2_3_" class="st5" d="M-2070.52,1304.19c1.58,3.6,4.52,6.43,8.18,7.88c1.87,0.75,3.86,1.13,5.87,1.12
			c4,0.02,7.86-1.5,10.77-4.25c1.42-1.35,2.56-2.96,3.35-4.75c0.83-1.88,1.24-3.92,1.22-5.97c0.02-2.06-0.39-4.09-1.22-5.98
			c-0.79-1.79-1.93-3.4-3.35-4.75c-2.91-2.75-6.76-4.27-10.77-4.25c-2.01-0.01-4,0.37-5.87,1.11c-1.81,0.72-3.46,1.78-4.86,3.13
			c-1.4,1.36-2.53,2.97-3.31,4.75c-0.83,1.88-1.24,3.92-1.22,5.98C-2071.77,1300.27-2071.35,1302.31-2070.52,1304.19z"/>
		<g id="Grupo_7-2_3_" transform="translate(3.537 126.423)">
			<path id="Trazado_11-2_3_" class="st5" d="M-2059.98,1228.08c-12.02-0.04-23.5,4.97-31.65,13.81h-17.44
				c10.35-17.21,29-27.71,49.09-27.61c20.09-0.09,38.74,10.4,49.09,27.61h-17.44C-2036.48,1233.05-2047.96,1228.04-2059.98,1228.08z
				"/>
		</g>
		<g id="Grupo_8-2_3_">
			<path id="Trazado_12-2_3_" class="st5" d="M-2085.06,1214.27l-24.01,25.21l9.91,9.44l14.11-14.81l19.07,20.01l19.07-20.01
				l19.07,20.01l24.03-25.21l-9.9-9.44l-14.12,14.82l-19.07-20.02l-19.07,20.02L-2085.06,1214.27z"/>
		</g>
	</g>
	<g id="Grupo_25_3_" transform="translate(15.249)">
		<path id="Trazado_13_3_" class="st5" d="M-356.55,1395.25c-2.94,6.98-8.59,12.47-15.66,15.19c-7.81,2.93-16.42,2.93-24.23,0
			c-3.55-1.37-6.8-3.44-9.54-6.08c-2.66-2.59-4.78-5.69-6.23-9.11c-2.98-7.22-2.98-15.32,0-22.54c1.45-3.42,3.57-6.52,6.23-9.11
			c2.74-2.64,5.99-4.71,9.54-6.09c7.81-2.93,16.42-2.93,24.23,0c14.7,6,21.76,22.78,15.76,37.48
			C-356.48,1395.08-356.52,1395.16-356.55,1395.25L-356.55,1395.25z M-370.3,1378c-1.58-3.6-4.52-6.43-8.17-7.88
			c-3.77-1.49-7.97-1.49-11.74,0c-1.82,0.72-3.48,1.79-4.9,3.13c-1.42,1.35-2.56,2.96-3.35,4.75c-1.63,3.82-1.63,8.14,0,11.95
			c0.79,1.79,1.93,3.41,3.35,4.75c1.42,1.35,3.08,2.41,4.9,3.13c3.77,1.49,7.97,1.49,11.74,0c1.81-0.72,3.46-1.78,4.86-3.13
			c1.4-1.36,2.53-2.97,3.31-4.75C-368.67,1386.13-368.67,1381.82-370.3,1378z"/>
		<rect id="Rectángulo_7_3_" x="-391.22" y="1298.36" class="st5" width="13.68" height="40.85"/>
		<g id="Grupo_13_3_" transform="translate(1602.612 487.904)">
			
				<rect id="Rectángulo_8_3_" x="-2050.59" y="1226.71" transform="matrix(0.7071 -0.7071 0.7071 0.7071 -1466.8751 -1074.2451)" class="st5" width="40.85" height="13.68"/>
			<g id="Grupo_12_3_" transform="translate(0 19.278)">
				<rect id="Rectángulo_9_3_" x="-2109.07" y="1256.53" class="st5" width="98.18" height="13.68"/>
				<g id="Grupo_11_3_" transform="translate(116.577)">
					<path id="Trazado_14_3_" class="st5" d="M-2095.26,1263.37c-0.04,12.02,4.97,23.5,13.81,31.65v17.44
						c-27.11-16.47-35.74-51.81-19.26-78.92c4.78-7.87,11.39-14.48,19.26-19.26v17.44
						C-2090.29,1239.86-2095.3,1251.34-2095.26,1263.37z"/>
				</g>
			</g>
		</g>
		<g id="Grupo_16_3_" transform="translate(1645.084 856.573)">
			<path id="Trazado_15_3_" class="st5" d="M-2042.37,1278.39c-1.58-3.6-4.52-6.43-8.17-7.88c-5.68-2.29-12.17-1.07-16.63,3.13
				c-1.42,1.35-2.56,2.96-3.35,4.75c-1.63,3.82-1.63,8.14,0,11.95c0.79,1.79,1.93,3.41,3.35,4.75c1.42,1.35,3.08,2.41,4.9,3.13
				c3.77,1.49,7.97,1.49,11.74,0c1.81-0.72,3.46-1.78,4.86-3.13c1.4-1.36,2.53-2.97,3.31-4.75
				C-2040.73,1286.53-2040.73,1282.21-2042.37,1278.39L-2042.37,1278.39z"/>
			<g id="Grupo_14_3_" transform="translate(3.537)">
				<path id="Trazado_16_3_" class="st5" d="M-2059.98,1228.08c12.02,0.04,23.5-4.97,31.65-13.81h17.44
					c-16.48,27.11-51.81,35.73-78.92,19.26c-7.87-4.78-14.48-11.39-19.26-19.26h17.44
					C-2083.48,1223.11-2072,1228.12-2059.98,1228.08z"/>
			</g>
			<g id="Grupo_15_3_" transform="translate(0 114.188)">
				<path id="Trazado_17_3_" class="st5" d="M-2027.83,1254.12l24.02-25.21l-9.91-9.44l-14.11,14.81l-19.07-20.01l-19.07,20.02
					l-19.07-20.01l-24.03,25.21l9.9,9.44l14.12-14.82l19.08,20.01l19.07-20.01L-2027.83,1254.12z"/>
			</g>
		</g>
	</g>
</g>
<rect id="Rectángulo_3" x="-2108.36" y="2583.43" class="st6" width="1920.4" height="1080"/>
<g id="Grupo_196">
	<g id="Grupo_10_2_" transform="translate(150 84.083)">
		<path id="Trazado_8_2_" class="st7" d="M-2106.13,3413.07c2.94-6.98,8.59-12.47,15.66-15.19c7.81-2.93,16.42-2.93,24.23,0
			c3.55,1.37,6.8,3.44,9.54,6.08c2.66,2.59,4.78,5.69,6.23,9.11c2.98,7.22,2.98,15.32,0,22.54c-1.45,3.42-3.57,6.52-6.23,9.11
			c-2.74,2.64-5.99,4.71-9.54,6.09c-7.81,2.93-16.42,2.93-24.23,0c-14.7-6-21.76-22.78-15.76-37.49
			C-2106.19,3413.23-2106.16,3413.15-2106.13,3413.07L-2106.13,3413.07z M-2092.37,3430.31c1.58,3.6,4.52,6.43,8.17,7.88
			c5.68,2.29,12.17,1.07,16.63-3.13c1.42-1.35,2.56-2.96,3.35-4.75c1.63-3.82,1.63-8.14,0-11.95c-0.79-1.79-1.93-3.41-3.35-4.75
			c-1.42-1.35-3.08-2.41-4.9-3.13c-3.77-1.49-7.97-1.49-11.74,0c-1.81,0.72-3.46,1.78-4.86,3.13c-1.4,1.36-2.53,2.97-3.31,4.75
			C-2094.01,3422.18-2094.01,3426.5-2092.37,3430.31L-2092.37,3430.31z"/>
		<rect id="Rectángulo_4_2_" x="-2085.14" y="3469.11" class="st7" width="13.68" height="40.85"/>
		<g id="Grupo_6_2_" transform="translate(7.948 405.244)">
			
				<rect id="Rectángulo_5_2_" x="-2063.49" y="2674.77" transform="matrix(0.7071 -0.7071 0.7071 0.7071 -2494.5884 -659.2419)" class="st7" width="40.85" height="13.68"/>
			<g id="Grupo_5_2_">
				<rect id="Rectángulo_6_2_" x="-2062.35" y="2625.68" class="st7" width="98.18" height="13.68"/>
				<g id="Grupo_4_2_">
					<path id="Trazado_9_2_" class="st7" d="M-2094.55,2632.52c0.04-12.02-4.97-23.51-13.81-31.66v-17.43
						c27.11,16.48,35.73,51.81,19.26,78.92c-4.78,7.87-11.39,14.48-19.26,19.26v-17.44
						C-2099.52,2656.03-2094.51,2644.54-2094.55,2632.52z"/>
				</g>
			</g>
		</g>
		<g id="Grupo_9_2_" transform="translate(4.411)">
			<path id="Trazado_10_2_" class="st7" d="M-2069.81,2673.35c1.58,3.6,4.52,6.43,8.18,7.88c5.68,2.29,12.17,1.06,16.63-3.13
				c1.42-1.35,2.56-2.96,3.35-4.75c1.63-3.82,1.63-8.14,0-11.96c-0.79-1.79-1.93-3.4-3.35-4.75c-4.47-4.17-10.95-5.39-16.63-3.13
				c-1.81,0.72-3.46,1.78-4.86,3.13c-1.4,1.36-2.53,2.97-3.31,4.75C-2071.44,2665.22-2071.44,2669.53-2069.81,2673.35z"/>
			<g id="Grupo_7_2_" transform="translate(3.537 126.423)">
				<path id="Trazado_11_2_" class="st7" d="M-2059.26,2597.24c-12.02-0.04-23.5,4.97-31.65,13.81h-17.44
					c16.48-27.11,51.81-35.73,78.92-19.26c7.87,4.78,14.48,11.39,19.26,19.26h-17.44
					C-2035.76,2602.21-2047.25,2597.2-2059.26,2597.24z"/>
			</g>
			<g id="Grupo_8_2_">
				<path id="Trazado_12_2_" class="st7" d="M-2084.34,2583.43l-24.02,25.21l9.91,9.44l14.11-14.81l19.07,20.01l19.07-20.01
					l19.07,20.01l24.02-25.21l-9.9-9.44l-14.13,14.82l-19.07-20.01l-19.07,20.01L-2084.34,2583.43z"/>
			</g>
		</g>
	</g>
	<g id="Grupo_26_2_" transform="translate(1324 684.328)">
		
			<rect id="Rectángulo_5-2_2_" x="-2063.49" y="2674.77" transform="matrix(0.7071 -0.7071 0.7071 0.7071 -2494.5884 -659.2419)" class="st7" width="40.85" height="13.68"/>
		<g id="Grupo_5-2_2_" transform="translate(0 0)">
			<rect id="Rectángulo_6-2_2_" x="-2062.35" y="2625.68" class="st7" width="98.18" height="13.68"/>
			<g id="Grupo_4-2_2_">
				<path id="Trazado_9-2_2_" class="st7" d="M-2094.55,2632.52c0.04-12.02-4.97-23.5-13.81-31.65v-17.44
					c17.21,10.35,27.71,29,27.61,49.09c0.09,20.09-10.4,38.74-27.61,49.09v-17.44C-2099.52,2656.03-2094.51,2644.54-2094.55,2632.52
					z"/>
			</g>
		</g>
	</g>
	<g id="Grupo_35_2_" transform="translate(0 186)">
		<path id="Trazado_8-2_2_" class="st7" d="M-1556.45,2764.41c-2.94,6.98-8.59,12.47-15.66,15.19c-7.81,2.93-16.42,2.93-24.23,0
			c-3.55-1.37-6.8-3.44-9.54-6.08c-2.66-2.59-4.78-5.69-6.23-9.11c-2.98-7.22-2.98-15.32,0-22.54c1.45-3.42,3.57-6.52,6.23-9.11
			c2.74-2.64,5.99-4.71,9.54-6.08c7.81-2.93,16.42-2.93,24.23,0c14.7,6,21.76,22.78,15.76,37.49
			C-1556.38,2764.24-1556.41,2764.32-1556.45,2764.41L-1556.45,2764.41z M-1570.2,2747.16c-1.58-3.6-4.52-6.43-8.17-7.88
			c-5.68-2.29-12.17-1.07-16.63,3.13c-1.42,1.35-2.56,2.96-3.35,4.75c-1.63,3.82-1.63,8.14,0,11.95c0.79,1.79,1.93,3.4,3.35,4.75
			c1.42,1.35,3.08,2.41,4.9,3.13c3.77,1.49,7.96,1.49,11.73,0c1.81-0.72,3.46-1.78,4.86-3.13c1.4-1.36,2.53-2.97,3.31-4.75
			C-1568.57,2755.29-1568.57,2750.98-1570.2,2747.16L-1570.2,2747.16z"/>
		<rect id="Rectángulo_4-2_2_" x="-1591.12" y="2667.51" class="st7" width="13.68" height="40.85"/>
	</g>
	<g id="Grupo_6-2_2_" transform="translate(592.19 791.365) rotate(180)">
		
			<rect id="Rectángulo_5-3_2_" x="2153.22" y="-2492.09" transform="matrix(0.7071 -0.7071 0.7071 0.7071 2393.9907 809.0836)" class="st7" width="40.85" height="13.68"/>
		<g id="Grupo_5-3_2_">
			<rect id="Rectángulo_6-3_2_" x="2154.36" y="-2541.18" class="st7" width="98.18" height="13.68"/>
			<g id="Grupo_4-3_2_">
				<path id="Trazado_9-3_2_" class="st7" d="M2122.16-2534.34c0.04-12.02-4.97-23.51-13.81-31.66v-17.43
					c27.11,16.48,35.73,51.81,19.26,78.92c-4.78,7.87-11.39,14.48-19.26,19.26v-17.44
					C2117.19-2510.84,2122.2-2522.32,2122.16-2534.34z"/>
			</g>
		</g>
	</g>
	<g id="Grupo_27_2_" transform="translate(1339.463 279.083)">
		<path id="Trazado_10-2_2_" class="st7" d="M-2069.81,2673.35c1.58,3.6,4.52,6.43,8.18,7.88c1.87,0.75,3.86,1.13,5.87,1.12
			c4,0.02,7.86-1.5,10.77-4.25c1.42-1.35,2.56-2.96,3.35-4.75c0.83-1.88,1.24-3.92,1.22-5.97c0.02-2.06-0.39-4.09-1.22-5.98
			c-0.79-1.79-1.93-3.4-3.35-4.75c-2.91-2.75-6.76-4.27-10.77-4.25c-2.01-0.01-4,0.37-5.87,1.11c-1.81,0.72-3.46,1.78-4.86,3.13
			c-1.4,1.36-2.53,2.97-3.31,4.75c-0.83,1.88-1.24,3.92-1.22,5.98C-2071.05,2669.43-2070.63,2671.47-2069.81,2673.35z"/>
		<g id="Grupo_7-2_2_" transform="translate(3.537 126.423)">
			<path id="Trazado_11-2_2_" class="st7" d="M-2059.26,2597.24c-12.02-0.04-23.5,4.97-31.65,13.81h-17.44
				c10.35-17.21,29-27.71,49.09-27.61c20.09-0.09,38.74,10.4,49.09,27.61h-17.44C-2035.76,2602.21-2047.25,2597.2-2059.26,2597.24z"
				/>
		</g>
		<g id="Grupo_8-2_2_">
			<path id="Trazado_12-2_2_" class="st7" d="M-2084.34,2583.43l-24.02,25.21l9.91,9.44l14.11-14.81l19.07,20.01l19.07-20.01
				l19.07,20.01l24.03-25.21l-9.9-9.44l-14.12,14.82l-19.07-20.02l-19.07,20.02L-2084.34,2583.43z"/>
		</g>
	</g>
	<g id="Grupo_25_2_" transform="translate(15.249)">
		<path id="Trazado_13_2_" class="st7" d="M-355.84,2764.41c-2.94,6.98-8.59,12.47-15.66,15.19c-7.81,2.93-16.42,2.93-24.23,0
			c-3.55-1.37-6.8-3.44-9.54-6.08c-2.66-2.59-4.78-5.69-6.23-9.11c-2.98-7.22-2.98-15.32,0-22.54c1.45-3.42,3.57-6.52,6.23-9.11
			c2.74-2.64,5.99-4.71,9.54-6.09c7.81-2.93,16.42-2.93,24.23,0c14.7,6,21.76,22.78,15.76,37.48
			C-355.77,2764.24-355.8,2764.32-355.84,2764.41L-355.84,2764.41z M-369.59,2747.16c-1.58-3.6-4.52-6.43-8.17-7.88
			c-3.77-1.49-7.97-1.49-11.74,0c-1.82,0.72-3.48,1.79-4.9,3.13c-1.42,1.35-2.56,2.96-3.35,4.75c-1.63,3.82-1.63,8.14,0,11.95
			c0.79,1.79,1.93,3.41,3.35,4.75c1.42,1.35,3.08,2.41,4.9,3.13c3.77,1.49,7.97,1.49,11.74,0c1.81-0.72,3.46-1.78,4.86-3.13
			c1.4-1.36,2.53-2.97,3.31-4.75C-367.96,2755.29-367.96,2750.97-369.59,2747.16z"/>
		<rect id="Rectángulo_7_2_" x="-390.51" y="2667.51" class="st7" width="13.68" height="40.85"/>
		<g id="Grupo_13_2_" transform="translate(1602.612 487.904)">
			
				<rect id="Rectángulo_8_2_" x="-2049.87" y="2595.87" transform="matrix(0.7071 -0.7071 0.7071 0.7071 -2434.8066 -672.7225)" class="st7" width="40.85" height="13.68"/>
			<g id="Grupo_12_2_" transform="translate(0 19.278)">
				<rect id="Rectángulo_9_2_" x="-2108.36" y="2625.68" class="st7" width="98.18" height="13.68"/>
				<g id="Grupo_11_2_" transform="translate(116.577)">
					<path id="Trazado_14_2_" class="st7" d="M-2094.55,2632.52c-0.04,12.02,4.97,23.5,13.81,31.65v17.44
						c-27.11-16.47-35.74-51.81-19.26-78.92c4.78-7.87,11.39-14.48,19.26-19.26v17.44
						C-2089.58,2609.02-2094.59,2620.5-2094.55,2632.52z"/>
				</g>
			</g>
		</g>
		<g id="Grupo_16_2_" transform="translate(1645.084 856.573)">
			<path id="Trazado_15_2_" class="st7" d="M-2041.65,2647.55c-1.58-3.6-4.52-6.43-8.17-7.88c-5.68-2.29-12.17-1.07-16.63,3.13
				c-1.42,1.35-2.56,2.96-3.35,4.75c-1.63,3.82-1.63,8.14,0,11.95c0.79,1.79,1.93,3.41,3.35,4.75c1.42,1.35,3.08,2.41,4.9,3.13
				c3.77,1.49,7.97,1.49,11.74,0c1.81-0.72,3.46-1.78,4.86-3.13c1.4-1.36,2.53-2.97,3.31-4.75
				C-2040.02,2655.68-2040.02,2651.37-2041.65,2647.55L-2041.65,2647.55z"/>
			<g id="Grupo_14_2_" transform="translate(3.537)">
				<path id="Trazado_16_2_" class="st7" d="M-2059.27,2597.24c12.02,0.04,23.5-4.97,31.65-13.81h17.44
					c-16.48,27.11-51.81,35.73-78.92,19.26c-7.87-4.78-14.48-11.39-19.26-19.26h17.44
					C-2082.77,2592.27-2071.29,2597.28-2059.27,2597.24z"/>
			</g>
			<g id="Grupo_15_2_" transform="translate(0 114.188)">
				<path id="Trazado_17_2_" class="st7" d="M-2027.12,2623.28l24.02-25.21l-9.91-9.44l-14.11,14.81l-19.07-20.01l-19.07,20.02
					l-19.07-20.01l-24.03,25.21l9.9,9.44l14.12-14.82l19.08,20.01l19.07-20.01L-2027.12,2623.28z"/>
			</g>
		</g>
	</g>
</g>
<path id="Rectángulo_28_1_" class="st8" d="M26.11-809.83h251.78c37.5,0,67.9,30.4,67.9,67.9l0,0c0,37.5-30.4,67.9-67.9,67.9H26.11
	c-37.5,0-67.9-30.4-67.9-67.9l0,0C-41.79-779.43-11.39-809.83,26.11-809.83z"/>
<circle id="Elipse_18_1_" class="st3" cx="130.78" cy="-744.51" r="6.06"/>
<circle id="Elipse_19_1_" class="st3" cx="173.22" cy="-744.51" r="6.06"/>
<line id="Línea_10_1_" class="st9" x1="124.72" y1="-757.45" x2="136.84" y2="-757.45"/>
<line id="Línea_11_1_" class="st9" x1="167.16" y1="-757.45" x2="179.28" y2="-757.45"/>
<line id="Línea_12_1_" class="st9" x1="138.04" y1="-726.43" x2="167.02" y2="-726.43"/>
<circle id="Elipse_20_1_" class="st3" cx="253.58" cy="-747.08" r="6.06"/>
<circle id="Elipse_21_1_" class="st3" cx="296.02" cy="-747.08" r="6.06"/>
<path id="Trazado_49_1_" class="st9" d="M260.84-721.78c0,0,13.2-16.05,28.98-0.27"/>
<line id="Línea_13_1_" class="st9" x1="247.89" y1="-757.94" x2="259.28" y2="-762.09"/>
<line id="Línea_14_1_" class="st9" x1="290.32" y1="-762.09" x2="301.71" y2="-757.94"/>
<circle id="Elipse_22_4_" class="st3" cx="7.18" cy="-745.08" r="6.06"/>
<path id="Trazado_50_4_" class="st9" d="M1.13-758.02c0-3.35,2.71-6.06,6.06-6.06s6.06,2.71,6.06,6.06"/>
<path id="Trazado_51_4_" class="st9" d="M43.56-758.02c0.04-3.35,2.79-6.03,6.14-5.99c3.29,0.04,5.94,2.7,5.99,5.99"/>
<circle id="Elipse_23_4_" class="st3" cx="49.62" cy="-745.08" r="6.06"/>
<path id="Trazado_52_4_" class="st9" d="M43.42-727c0,0-13.2,16.05-28.98,0.27"/>
<circle id="Elipse_17_1_" class="st8" cx="151.21" cy="-1311.46" r="51.74"/>
<circle id="Elipse_27_1_" class="st10" cx="805.05" cy="-1301.52" r="51.74"/>
<circle id="Elipse_34_1_" class="st11" cx="806.05" cy="-741.2" r="51.74"/>
<circle id="Elipse_17" class="st12" cx="1450.26" cy="-1030.09" r="51.74"/>
<g id="Grupo_206_2_" transform="translate(-761.504 -930.93)">
	<circle id="Elipse_51_2_" class="st6" cx="1084.66" cy="1015.36" r="32.38"/>
	<g id="Grupo_106_2_" transform="translate(778.662 948.619)">
		<line id="Línea_31_2_" class="st13" x1="321.22" y1="66.74" x2="290.78" y2="66.74"/>
		<path id="Trazado_101_2_" class="st13" d="M306.53,52.06l14.69,14.69l-14.69,14.69"/>
	</g>
</g>
<g id="Grupo_206_1_" transform="translate(-761.504 -930.93)">
	<circle id="Elipse_51_1_" class="st6" cx="848.66" cy="1015.36" r="32.38"/>
	<g id="Grupo_106_1_" transform="translate(778.662 948.619)">
		<line id="Línea_31_1_" class="st13" x1="85.22" y1="66.74" x2="54.78" y2="66.74"/>
		<path id="Trazado_101_1_" class="st13" d="M69.47,81.43L54.78,66.74l14.69-14.69"/>
	</g>
</g>
<g id="Grupo_207_1_" transform="translate(-852.941 -931.283)">
	<path id="Rectángulo_65_1_" class="st6" d="M928.63,1555.38h150.94c17.67,0,32,14.33,32,32v0.05c0,17.67-14.33,32-32,32H928.63
		c-17.67,0-32-14.33-32-32v-0.05C896.63,1569.7,910.95,1555.38,928.63,1555.38z"/>
	<text transform="matrix(1 0 0 1 938.3064 1592.7372)" class="st2" style="font-family:'SegoeUI'; font-size:21px;">Ver en Netflix</text>
</g>
<g id="Grupo_208" transform="translate(-1091.976 -930.93)">
	<circle id="Elipse_52" class="st6" cx="1171.13" cy="1262.05" r="32.38"/>
	<g id="Grupo_108" transform="translate(1109.666 948.088)">
		<path id="Trazado_102" class="st13" d="M51.04,309.4v19.78H71.9V309.4"/>
		<path id="Trazado_103" class="st13" d="M46.78,313.43l14.69-14.69l14.69,14.69"/>
	</g>
</g>
<g id="Grupo_209" transform="translate(-854.092 -931.284)">
	<path id="Rectángulo_109" class="st6" d="M1340.78,1555.38h150.94c17.67,0,32,14.33,32,32v0.05c0,17.67-14.33,32-32,32h-150.94
		c-17.67,0-32-14.33-32-32v-0.05C1308.78,1569.7,1323.11,1555.38,1340.78,1555.38z"/>
	<text transform="matrix(1 0 0 1 1340.6864 1592.7372)" class="st2" style="font-family:'SegoeUI'; font-size:21px;">Abrir en Spotify</text>
</g>
<g id="Grupo_187" transform="translate(-198 -430)">
	<circle id="Elipse_27" class="st10" cx="1024.67" cy="772.62" r="51.74"/>
	<circle id="Elipse_28" class="st3" cx="1002.93" cy="767.48" r="6.06"/>
	<circle id="Elipse_29" class="st3" cx="1045.36" cy="767.48" r="6.06"/>
	<path id="Trazado_54" class="st9" d="M1010.18,792.77c0,0,13.2-16.05,28.98-0.27"/>
	<line id="Línea_19" class="st9" x1="997.23" y1="756.61" x2="1008.62" y2="752.46"/>
	<line id="Línea_20" class="st9" x1="1039.66" y1="752.46" x2="1051.06" y2="756.61"/>
</g>
<circle id="Elipse_34" class="st10" cx="1081.64" cy="342.62" r="51.74"/>
<path id="Trazado_186" class="st9" d="M1102.8,340.07c0,11.56-9.38,20.93-20.94,20.93c-11.56,0-20.92-9.37-20.93-20.93"/>
<line id="Línea_40" class="st9" x1="1081.87" y1="361.12" x2="1081.87" y2="379.78"/>
<line id="Línea_41" class="st9" x1="1069.11" y1="379.78" x2="1095.1" y2="379.78"/>
<path id="Rectángulo_112" class="st9" d="M1081.87,304.62L1081.87,304.62c7.05,0,12.76,5.71,12.76,12.76v22.07
	c0,7.05-5.71,12.76-12.76,12.76l0,0c-7.05,0-12.76-5.71-12.76-12.76v-22.07C1069.11,310.33,1074.82,304.62,1081.87,304.62z"/>
<line id="Línea_42" class="st9" x1="1069.11" y1="319.22" x2="1075.93" y2="319.22"/>
<line id="Línea_44" class="st9" x1="1069.11" y1="328.2" x2="1075.93" y2="328.2"/>
<line id="Línea_45" class="st9" x1="1069.11" y1="337.18" x2="1075.93" y2="337.18"/>
<line id="Línea_46" class="st9" x1="1087.8" y1="319.22" x2="1094.62" y2="319.22"/>
<line id="Línea_48" class="st9" x1="1087.8" y1="328.2" x2="1094.62" y2="328.2"/>
<line id="Línea_49" class="st9" x1="1087.8" y1="337.18" x2="1094.62" y2="337.18"/>
<circle id="Elipse_34_2_" class="st11" cx="1329.64" cy="342.62" r="51.74"/>
<path id="Trazado_186_1_" class="st9" d="M1350.8,340.07c0,11.56-9.38,20.93-20.94,20.93c-11.56,0-20.92-9.37-20.93-20.93"/>
<line id="Línea_40_1_" class="st9" x1="1329.87" y1="361.12" x2="1329.87" y2="379.78"/>
<line id="Línea_41_1_" class="st9" x1="1317.11" y1="379.78" x2="1343.1" y2="379.78"/>
<path id="Rectángulo_112_1_" class="st9" d="M1329.87,304.62L1329.87,304.62c7.05,0,12.76,5.71,12.76,12.76v22.07
	c0,7.05-5.71,12.76-12.76,12.76l0,0c-7.05,0-12.76-5.71-12.76-12.76v-22.07C1317.11,310.33,1322.82,304.62,1329.87,304.62z"/>
<line id="Línea_42_1_" class="st9" x1="1317.11" y1="319.22" x2="1323.93" y2="319.22"/>
<line id="Línea_44_1_" class="st9" x1="1317.11" y1="328.2" x2="1323.93" y2="328.2"/>
<line id="Línea_45_1_" class="st9" x1="1317.11" y1="337.18" x2="1323.93" y2="337.18"/>
<line id="Línea_46_1_" class="st9" x1="1335.8" y1="319.22" x2="1342.62" y2="319.22"/>
<line id="Línea_48_1_" class="st9" x1="1335.8" y1="328.2" x2="1342.62" y2="328.2"/>
<line id="Línea_49_1_" class="st9" x1="1335.8" y1="337.18" x2="1342.62" y2="337.18"/>
<circle id="Elipse_27-2" class="st8" cx="826.68" cy="343.62" r="51.74"/>
<circle id="Elipse_28-2" class="st3" cx="804.93" cy="338.48" r="6.06"/>
<circle id="Elipse_29-2" class="st3" cx="847.36" cy="338.48" r="6.06"/>
<path id="Trazado_54-2" class="st9" d="M812.18,363.77c0,0,13.2-16.05,28.98-0.27"/>
<line id="Línea_19-2" class="st9" x1="799.23" y1="327.61" x2="810.62" y2="323.46"/>
<line id="Línea_20-2" class="st9" x1="841.67" y1="323.46" x2="853.06" y2="327.61"/>
<circle id="Elipse_27-2_2_" class="st10" cx="1081.68" cy="84.62" r="51.74"/>
<circle id="Elipse_22_3_" class="st3" cx="1060.73" cy="81.22" r="6.06"/>
<path id="Trazado_50_3_" class="st9" d="M1054.67,68.28c0-3.35,2.71-6.06,6.06-6.06s6.06,2.71,6.06,6.06"/>
<path id="Trazado_51_3_" class="st9" d="M1097.1,68.28c0.04-3.35,2.79-6.03,6.14-5.99c3.29,0.04,5.94,2.7,5.99,5.99"/>
<circle id="Elipse_23_3_" class="st3" cx="1103.16" cy="81.22" r="6.06"/>
<path id="Trazado_52_3_" class="st9" d="M1096.96,99.3c0,0-13.2,16.05-28.98,0.27"/>
<circle id="Elipse_33" class="st10" cx="1332.47" cy="87.54" r="51.74"/>
<g id="Grupo_173" transform="translate(-524.864 -221.357)">
	<path id="Trazado_187" class="st14" d="M1844.42,290.98"/>
	<path id="Trazado_188" class="st9" d="M1880.82,286.98c0-2.39-1.68-4.45-4.02-4.93c-0.21-2.61-2.39-4.63-5.01-4.63
		c-0.25,0-0.5,0.02-0.75,0.06c-4.39-1.12-8.55-3.02-12.29-5.59c-2.41,0-4.47,1.7-4.94,4.07c-2.53,2.46-6.42,2.86-9.39,0.96
		c-2.78,0-5.03,2.25-5.03,5.03v0c0,0.02,0,0.03,0,0.05c-0.23-0.03-0.45-0.05-0.68-0.05c-2.78,0-5.03,2.25-5.03,5.03v0"/>
	<g id="Grupo_172">
		<path id="Trazado_189" class="st9" d="M1876.11,345.43h-37.32l-4.06-43.44h45.34L1876.11,345.43z"/>
		<circle id="Elipse_68" class="st9" cx="1857.27" cy="323.71" r="10.36"/>
		<line id="Línea_50" class="st9" x1="1848.69" y1="301.99" x2="1849.18" y2="317.24"/>
		<line id="Línea_51" class="st9" x1="1865.81" y1="301.99" x2="1865.3" y2="317.17"/>
		<line id="Línea_52" class="st9" x1="1849.6" y1="330.68" x2="1850.07" y2="345.43"/>
		<line id="Línea_53" class="st9" x1="1864.85" y1="330.68" x2="1864.35" y2="345.43"/>
		<rect id="Rectángulo_113" x="1832.55" y="293.63" class="st9" width="49.65" height="8.36"/>
	</g>
	<path id="Trazado_190" class="st9" d="M1846.16,286.7c0.8-2.02,3.1-3.01,5.12-2.21"/>
	<path id="Trazado_191" class="st9" d="M1863.77,283.45c2.05-0.73,4.31,0.35,5.03,2.4"/>
</g>
<g id="Grupo_187_1_" transform="translate(-198 -430)">
	<circle id="Elipse_27_2_" class="st10" cx="521.67" cy="772.62" r="51.74"/>
	<circle id="Elipse_28_1_" class="st3" cx="499.93" cy="767.48" r="6.06"/>
	<circle id="Elipse_29_1_" class="st3" cx="542.36" cy="767.48" r="6.06"/>
	<path id="Trazado_54_1_" class="st9" d="M507.18,792.77c0,0,13.2-16.05,28.98-0.27"/>
	<line id="Línea_19_1_" class="st9" x1="494.23" y1="756.61" x2="505.62" y2="752.46"/>
	<line id="Línea_20_1_" class="st9" x1="536.66" y1="752.46" x2="548.06" y2="756.61"/>
</g>
<circle id="Elipse_27-2_3_" class="st15" cx="323.68" cy="343.62" r="51.74"/>
<circle id="Elipse_28-2_1_" class="st3" cx="301.93" cy="338.48" r="6.06"/>
<circle id="Elipse_29-2_1_" class="st3" cx="344.36" cy="338.48" r="6.06"/>
<path id="Trazado_54-2_1_" class="st9" d="M309.18,363.77c0,0,13.2-16.05,28.98-0.27"/>
<line id="Línea_19-2_1_" class="st9" x1="296.23" y1="327.61" x2="307.62" y2="323.46"/>
<line id="Línea_20-2_1_" class="st9" x1="338.67" y1="323.46" x2="350.06" y2="327.61"/>
<circle id="Elipse_27-2_1_" class="st15" cx="578.68" cy="84.62" r="51.74"/>
<circle id="Elipse_22_1_" class="st3" cx="557.73" cy="81.22" r="6.06"/>
<path id="Trazado_50_1_" class="st9" d="M551.67,68.28c0-3.35,2.71-6.06,6.06-6.06s6.06,2.71,6.06,6.06"/>
<path id="Trazado_51_1_" class="st9" d="M594.1,68.28c0.04-3.35,2.79-6.03,6.14-5.99c3.29,0.04,5.94,2.7,5.99,5.99"/>
<circle id="Elipse_23_1_" class="st3" cx="600.16" cy="81.22" r="6.06"/>
<path id="Trazado_52_1_" class="st9" d="M593.96,99.3c0,0-13.2,16.05-28.98,0.27"/>
<circle id="Elipse_33_1_" class="st11" cx="1576.47" cy="87.54" r="51.74"/>
<g id="Grupo_173_1_" transform="translate(-524.864 -221.357)">
	<path id="Trazado_187_1_" class="st14" d="M2088.42,290.98"/>
	<path id="Trazado_188_1_" class="st9" d="M2124.82,286.98c0-2.39-1.68-4.45-4.02-4.93c-0.21-2.61-2.39-4.63-5.01-4.63
		c-0.25,0-0.5,0.02-0.75,0.06c-4.39-1.12-8.55-3.02-12.29-5.59c-2.41,0-4.47,1.7-4.94,4.07c-2.53,2.46-6.42,2.86-9.39,0.96
		c-2.78,0-5.03,2.25-5.03,5.03v0c0,0.02,0,0.03,0,0.05c-0.23-0.03-0.45-0.05-0.68-0.05c-2.78,0-5.03,2.25-5.03,5.03v0"/>
	<g id="Grupo_172_1_">
		<path id="Trazado_189_1_" class="st9" d="M2120.11,345.43h-37.32l-4.06-43.44h45.34L2120.11,345.43z"/>
		<circle id="Elipse_68_1_" class="st9" cx="2101.27" cy="323.71" r="10.36"/>
		<line id="Línea_50_1_" class="st9" x1="2092.69" y1="301.99" x2="2093.18" y2="317.24"/>
		<line id="Línea_51_1_" class="st9" x1="2109.81" y1="301.99" x2="2109.3" y2="317.17"/>
		<line id="Línea_52_1_" class="st9" x1="2093.6" y1="330.68" x2="2094.07" y2="345.43"/>
		<line id="Línea_53_1_" class="st9" x1="2108.85" y1="330.68" x2="2108.35" y2="345.43"/>
		<rect id="Rectángulo_113_1_" x="2076.55" y="293.63" class="st9" width="49.65" height="8.36"/>
	</g>
	<path id="Trazado_190_1_" class="st9" d="M2090.16,286.7c0.8-2.02,3.1-3.01,5.12-2.21"/>
	<path id="Trazado_191_1_" class="st9" d="M2107.77,283.45c2.05-0.73,4.31,0.35,5.03,2.4"/>
</g>
<g id="Grupo_188_2_" transform="translate(152 -432)">
	<circle id="Elipse_34_3_" class="st15" cx="426.64" cy="774.62" r="51.74"/>
	<g id="Grupo_174_2_" transform="translate(2.001)">
		<path id="Trazado_186_3_" class="st16" d="M445.8,772.07c0,11.56-9.38,20.93-20.94,20.93c-11.56,0-20.92-9.37-20.93-20.93"/>
		<line id="Línea_40_3_" class="st9" x1="424.87" y1="793.12" x2="424.87" y2="811.78"/>
		<line id="Línea_41_3_" class="st9" x1="412.11" y1="811.78" x2="438.1" y2="811.78"/>
		<path id="Rectángulo_112_3_" class="st16" d="M424.87,736.62L424.87,736.62c7.05,0,12.76,5.71,12.76,12.76v22.07
			c0,7.05-5.71,12.76-12.76,12.76l0,0c-7.05,0-12.76-5.71-12.76-12.76v-22.07C412.11,742.33,417.82,736.62,424.87,736.62z"/>
		<line id="Línea_42_3_" class="st9" x1="412.11" y1="751.22" x2="418.93" y2="751.22"/>
		<line id="Línea_44_3_" class="st9" x1="412.11" y1="760.2" x2="418.93" y2="760.2"/>
		<line id="Línea_45_3_" class="st9" x1="412.11" y1="769.18" x2="418.93" y2="769.18"/>
		<line id="Línea_46_3_" class="st9" x1="430.8" y1="751.22" x2="437.62" y2="751.22"/>
		<line id="Línea_48_3_" class="st9" x1="430.8" y1="760.2" x2="437.62" y2="760.2"/>
		<line id="Línea_49_3_" class="st9" x1="430.8" y1="769.18" x2="437.62" y2="769.18"/>
	</g>
</g>
<circle id="Elipse_33_2_" class="st15" cx="829.47" cy="87.54" r="51.74"/>
<g id="Grupo_173_3_" transform="translate(-524.864 -221.357)">
	<path id="Trazado_187_3_" class="st14" d="M1341.42,290.98"/>
	<path id="Trazado_188_3_" class="st9" d="M1377.82,286.98c0-2.39-1.68-4.45-4.02-4.93c-0.21-2.61-2.39-4.63-5.01-4.63
		c-0.25,0-0.5,0.02-0.75,0.06c-4.39-1.12-8.55-3.02-12.29-5.59c-2.41,0-4.47,1.7-4.94,4.07c-2.53,2.46-6.42,2.86-9.39,0.96
		c-2.78,0-5.03,2.25-5.03,5.03v0c0,0.02,0,0.03,0,0.05c-0.23-0.03-0.45-0.05-0.68-0.05c-2.78,0-5.03,2.25-5.03,5.03v0"/>
	<g id="Grupo_172_3_">
		<path id="Trazado_189_3_" class="st9" d="M1373.11,345.43h-37.32l-4.06-43.44h45.34L1373.11,345.43z"/>
		<circle id="Elipse_68_3_" class="st9" cx="1354.27" cy="323.71" r="10.36"/>
		<line id="Línea_50_3_" class="st9" x1="1345.69" y1="301.99" x2="1346.18" y2="317.24"/>
		<line id="Línea_51_3_" class="st9" x1="1362.81" y1="301.99" x2="1362.3" y2="317.17"/>
		<line id="Línea_52_3_" class="st9" x1="1346.6" y1="330.68" x2="1347.07" y2="345.43"/>
		<line id="Línea_53_3_" class="st9" x1="1361.85" y1="330.68" x2="1361.35" y2="345.43"/>
		<rect id="Rectángulo_113_3_" x="1329.55" y="293.63" class="st9" width="49.65" height="8.36"/>
	</g>
	<path id="Trazado_190_3_" class="st9" d="M1343.16,286.7c0.8-2.02,3.1-3.01,5.12-2.21"/>
	<path id="Trazado_191_3_" class="st9" d="M1360.77,283.45c2.05-0.73,4.31,0.35,5.03,2.4"/>
</g>
<path id="Rectángulo_37_1_" class="st12" d="M95.38,1409.8h129.04c37.5,0,67.9,30.4,67.9,67.9l0,0c0,37.5-30.4,67.9-67.9,67.9
	H95.38c-37.5,0-67.9-30.4-67.9-67.9l0,0C27.48,1440.2,57.88,1409.8,95.38,1409.8z"/>
<g id="Grupo_174_1_" transform="translate(-820.998 -467.103)">
	<path id="Trazado_186_4_" class="st9" d="M940.35,1942.26c0,11.56-9.38,20.93-20.94,20.93c-11.56,0-20.92-9.37-20.93-20.93"/>
	<line id="Línea_40_4_" class="st9" x1="919.42" y1="1963.3" x2="919.42" y2="1981.96"/>
	<line id="Línea_41_4_" class="st9" x1="906.66" y1="1981.96" x2="932.65" y2="1981.96"/>
	<path id="Rectángulo_112_4_" class="st9" d="M919.42,1906.8L919.42,1906.8c7.05,0,12.76,5.71,12.76,12.76v22.07
		c0,7.05-5.71,12.76-12.76,12.76l0,0c-7.05,0-12.76-5.71-12.76-12.76v-22.07C906.66,1912.51,912.37,1906.8,919.42,1906.8z"/>
	<line id="Línea_42_4_" class="st9" x1="906.66" y1="1921.41" x2="913.48" y2="1921.41"/>
	<line id="Línea_44_4_" class="st9" x1="906.66" y1="1930.38" x2="913.48" y2="1930.38"/>
	<line id="Línea_45_4_" class="st9" x1="906.66" y1="1939.36" x2="913.48" y2="1939.36"/>
	<line id="Línea_46_4_" class="st9" x1="925.35" y1="1921.41" x2="932.17" y2="1921.41"/>
	<line id="Línea_48_4_" class="st9" x1="925.35" y1="1930.38" x2="932.17" y2="1930.38"/>
	<line id="Línea_49_4_" class="st9" x1="925.35" y1="1939.36" x2="932.17" y2="1939.36"/>
</g>
<g id="Grupo_173_4_" transform="translate(-535.864 214.643)">
	<path id="Trazado_187_4_" class="st14" d="M744.22,1245.14"/>
	<path id="Trazado_188_4_" class="st9" d="M780.62,1241.14c0-2.39-1.68-4.45-4.02-4.93c-0.21-2.61-2.39-4.63-5.01-4.63
		c-0.25,0-0.5,0.02-0.75,0.06c-4.39-1.12-8.55-3.02-12.29-5.59c-2.41,0-4.47,1.7-4.94,4.07c-2.53,2.46-6.42,2.86-9.39,0.96
		c-2.78,0-5.03,2.25-5.03,5.03v0c0,0.02,0,0.03,0,0.05c-0.23-0.03-0.45-0.05-0.68-0.05c-2.78,0-5.03,2.25-5.03,5.03l0,0"/>
	<g id="Grupo_172_4_">
		<path id="Trazado_189_4_" class="st9" d="M775.91,1299.59h-37.32l-4.06-43.44h45.34L775.91,1299.59z"/>
		<circle id="Elipse_68_4_" class="st9" cx="757.06" cy="1277.87" r="10.36"/>
		<line id="Línea_50_4_" class="st9" x1="748.49" y1="1256.15" x2="748.97" y2="1271.4"/>
		<line id="Línea_51_4_" class="st9" x1="765.61" y1="1256.15" x2="765.1" y2="1271.33"/>
		<line id="Línea_52_4_" class="st9" x1="749.4" y1="1284.83" x2="749.87" y2="1299.59"/>
		<line id="Línea_53_4_" class="st9" x1="764.64" y1="1284.83" x2="764.15" y2="1299.59"/>
		<rect id="Rectángulo_113_4_" x="732.35" y="1247.79" class="st9" width="49.65" height="8.36"/>
	</g>
	<path id="Trazado_190_4_" class="st9" d="M745.96,1240.86c0.8-2.02,3.1-3.01,5.12-2.21"/>
	<path id="Trazado_191_4_" class="st9" d="M763.57,1237.61c2.05-0.73,4.31,0.35,5.03,2.4"/>
</g>
<circle id="Elipse_53_1_" class="st2" cx="-52.26" cy="1860.06" r="25.74"/>
<path id="Rectángulo_73_1_" class="st6" d="M-52.26,1849.34L-52.26,1849.34c0.97,0,1.76,0.79,1.76,1.76v17.92
	c0,0.97-0.79,1.76-1.76,1.76l0,0c-0.97,0-1.76-0.79-1.76-1.76v-17.92C-54.02,1850.13-53.24,1849.34-52.26,1849.34z"/>
<path id="Rectángulo_74_1_" class="st6" d="M-41.54,1860.06L-41.54,1860.06c0,0.97-0.79,1.76-1.76,1.76h-17.92
	c-0.97,0-1.76-0.79-1.76-1.76l0,0c0-0.97,0.79-1.76,1.76-1.76h17.92C-42.33,1858.3-41.54,1859.09-41.54,1860.06z"/>
<circle id="Elipse_60" class="st6" cx="152.74" cy="1857.91" r="25.74"/>
<path id="Rectángulo_97" class="st2" d="M152.74,1847.19L152.74,1847.19c0.97,0,1.76,0.79,1.76,1.76v17.92
	c0,0.97-0.79,1.76-1.76,1.76l0,0c-0.97,0-1.76-0.79-1.76-1.76v-17.92C150.98,1847.97,151.76,1847.19,152.74,1847.19z"/>
<path id="Rectángulo_98" class="st2" d="M163.46,1857.91L163.46,1857.91c0,0.97-0.79,1.76-1.76,1.76h-17.92
	c-0.97,0-1.76-0.79-1.76-1.76l0,0c0-0.97,0.79-1.76,1.76-1.76h17.92C162.67,1856.15,163.46,1856.93,163.46,1857.91z"/>
<path id="Trazado_124_1_" class="st2" d="M22.08,2923.97c19.59,0,35.47-15.88,35.47-35.47c0.06-56.26,45.66-101.86,101.92-101.92
	c56.26,0.06,101.86,45.66,101.92,101.92c0,19.59,15.88,35.47,35.47,35.47c19.59,0,35.47-15.88,35.47-35.47
	c0.13-45.87-18.11-89.88-50.63-122.23c-32.35-32.52-76.36-50.76-122.23-50.63c-45.87-0.13-89.88,18.11-122.23,50.63
	c-32.52,32.35-50.75,76.36-50.63,122.23C-13.39,2908.09,2.49,2923.97,22.08,2923.97C22.08,2923.97,22.08,2923.97,22.08,2923.97z"/>
<g>
	<g id="Grupo_132_1_" transform="translate(47.033 54.45)">
		<path id="Trazado_125_1_" class="st6" d="M108.85,3392.52c6.61-0.02,12.93,2.74,17.41,7.6h9.59c-5.69-9.47-15.95-15.24-27-15.19
			c-11.05-0.05-21.31,5.72-27,15.19h9.59C95.93,3395.26,102.24,3392.5,108.85,3392.52z"/>
	</g>
	<path id="Trazado_126_1_" class="st6" d="M81.84,3431.51l5.07-30.1h7.68l5.98,16.05l5.94-16.05h7.69l5.07,30.1h-7.72l-2.57-17.33
		l-7.05,17.33h-3.09l-6.69-17.33l-2.57,17.33H81.84z"/>
	<path id="Trazado_127_1_" class="st6" d="M120.95,3415.74c-0.02-2.13,0.4-4.24,1.23-6.2c0.79-1.88,1.95-3.58,3.41-5.01
		c1.49-1.45,3.27-2.59,5.21-3.35c2.13-0.82,4.39-1.24,6.67-1.21c2.28-0.02,4.53,0.39,6.66,1.21c1.95,0.75,3.74,1.89,5.25,3.35
		c1.46,1.43,2.63,3.13,3.43,5.01c0.83,1.96,1.25,4.07,1.23,6.2c0.02,2.13-0.4,4.24-1.23,6.2c-0.8,1.88-1.96,3.59-3.43,5.01
		c-1.51,1.45-3.29,2.59-5.25,3.35c-2.12,0.82-4.38,1.23-6.66,1.21c-2.28,0.03-4.55-0.38-6.67-1.21c-1.94-0.76-3.71-1.89-5.21-3.35
		c-1.46-1.43-2.61-3.13-3.41-5.01C121.34,3419.98,120.93,3417.87,120.95,3415.74z M129.07,3415.74c-0.01,1.13,0.22,2.25,0.68,3.29
		c0.43,0.98,1.05,1.87,1.82,2.62c0.77,0.74,1.68,1.33,2.67,1.72c1.03,0.41,2.12,0.62,3.23,0.61c1.11,0.01,2.2-0.2,3.23-0.61
		c1-0.4,1.91-0.98,2.69-1.72c0.78-0.74,1.41-1.63,1.84-2.62c0.46-1.04,0.68-2.16,0.67-3.29c0.01-1.13-0.22-2.25-0.67-3.29
		c-0.44-0.98-1.06-1.87-1.84-2.61c-0.78-0.74-1.7-1.32-2.69-1.72c-1.03-0.41-2.12-0.62-3.23-0.61c-1.11-0.01-2.2,0.2-3.23,0.61
		c-0.99,0.39-1.9,0.98-2.67,1.72c-0.77,0.75-1.39,1.63-1.82,2.61C129.28,3413.49,129.05,3414.61,129.07,3415.74z"/>
	<path id="Trazado_128_1_" class="st6" d="M157.94,3415.74c-0.02-2.13,0.4-4.24,1.23-6.2c0.79-1.88,1.95-3.58,3.41-5.01
		c1.49-1.45,3.27-2.59,5.21-3.35c2.13-0.83,4.39-1.24,6.68-1.21c2.27-0.02,4.53,0.39,6.65,1.21c1.96,0.75,3.74,1.89,5.25,3.35
		c1.46,1.42,2.63,3.13,3.43,5.01c0.83,1.96,1.24,4.07,1.23,6.2c0.02,2.13-0.4,4.24-1.23,6.2c-0.8,1.88-1.96,3.59-3.43,5.01
		c-1.51,1.46-3.29,2.59-5.25,3.35c-2.12,0.82-4.38,1.23-6.65,1.21c-2.28,0.03-4.55-0.38-6.68-1.21c-1.94-0.76-3.71-1.89-5.21-3.35
		c-1.46-1.43-2.61-3.13-3.41-5.01C158.34,3419.98,157.92,3417.87,157.94,3415.74z M166.06,3415.74c-0.01,1.13,0.22,2.25,0.67,3.29
		c0.43,0.98,1.05,1.87,1.82,2.62c0.77,0.74,1.68,1.33,2.67,1.72c1.03,0.41,2.12,0.62,3.23,0.61c1.11,0.01,2.2-0.2,3.23-0.61
		c1-0.4,1.91-0.98,2.69-1.72c0.78-0.74,1.41-1.63,1.84-2.62c0.46-1.03,0.69-2.16,0.68-3.29c0.01-1.13-0.22-2.25-0.68-3.29
		c-0.44-0.98-1.06-1.87-1.84-2.61c-0.78-0.74-1.69-1.32-2.69-1.72c-1.03-0.41-2.12-0.62-3.23-0.61c-1.11-0.01-2.2,0.2-3.23,0.61
		c-0.99,0.4-1.9,0.98-2.67,1.72c-0.77,0.75-1.39,1.63-1.82,2.61C166.27,3413.49,166.04,3414.61,166.06,3415.74L166.06,3415.74z"/>
	<path id="Trazado_129_1_" class="st6" d="M194.92,3401.4h11.49c1.98-0.01,3.93,0.41,5.72,1.24c1.75,0.8,3.33,1.92,4.67,3.29
		c1.34,1.38,2.41,3.01,3.15,4.79c0.76,1.81,1.15,3.76,1.15,5.73c0,1.95-0.38,3.89-1.13,5.69c-0.73,1.79-1.79,3.42-3.13,4.81
		c-1.34,1.39-2.92,2.51-4.67,3.31c-1.81,0.83-3.77,1.25-5.76,1.24h-11.49L194.92,3401.4z M202.68,3424.88h1.78
		c1.23,0.02,2.45-0.2,3.6-0.64c1.01-0.39,1.92-0.99,2.68-1.76c0.73-0.76,1.3-1.66,1.66-2.65c0.39-1.08,0.59-2.22,0.57-3.37
		c0.01-1.15-0.19-2.28-0.59-3.35c-0.37-1-0.94-1.91-1.68-2.68c-0.76-0.77-1.67-1.36-2.67-1.76c-1.14-0.44-2.35-0.66-3.56-0.64h-1.78
		L202.68,3424.88z"/>
	<rect id="Rectángulo_83_1_" x="128.91" y="3384.93" class="st6" width="22.47" height="7.53"/>
	<rect id="Rectángulo_84_1_" x="160.57" y="3384.93" class="st6" width="22.47" height="7.53"/>
</g>
<g>
	<g id="Grupo_98" transform="translate(47.035 54.451)">
		<path id="Trazado_90" class="st6" d="M713.66,3096.29c-6.61,0.02-12.93-2.73-17.41-7.59h-9.59c9.06,14.91,28.5,19.66,43.42,10.59
			c4.33-2.63,7.96-6.26,10.59-10.59h-9.59C726.59,3093.55,720.27,3096.31,713.66,3096.29z"/>
	</g>
	<path id="Trazado_91" class="st6" d="M686.65,3135.27l5.07-30.1h7.69l5.98,16.05l5.94-16.05h7.69l5.07,30.1h-7.73l-2.58-17.33
		l-7.05,17.33h-3.09l-6.69-17.33l-2.58,17.33L686.65,3135.27z"/>
	<path id="Trazado_92" class="st6" d="M725.76,3119.51c-0.08-6.43,3.84-12.24,9.84-14.56c4.3-1.61,9.03-1.61,13.33,0
		c1.95,0.76,3.74,1.89,5.25,3.35c1.46,1.43,2.63,3.13,3.42,5.01c1.64,3.97,1.64,8.43,0,12.4c-0.8,1.88-1.96,3.58-3.42,5.01
		c-1.51,1.45-3.29,2.59-5.25,3.35c-4.3,1.61-9.03,1.61-13.33,0C729.61,3131.74,725.69,3125.94,725.76,3119.51L725.76,3119.51z
		 M733.88,3119.51c-0.01,1.13,0.22,2.25,0.67,3.29c0.87,1.98,2.49,3.54,4.5,4.34c3.13,1.26,6.7,0.59,9.15-1.72
		c0.78-0.74,1.41-1.63,1.84-2.61c0.9-2.1,0.9-4.48,0-6.57c-0.44-0.98-1.06-1.87-1.84-2.62c-0.78-0.74-1.7-1.32-2.7-1.72
		c-2.07-0.82-4.38-0.82-6.46,0c-0.99,0.39-1.9,0.98-2.67,1.72c-0.77,0.75-1.39,1.63-1.82,2.62
		C734.1,3117.26,733.87,3118.38,733.88,3119.51z"/>
	<path id="Trazado_93" class="st6" d="M762.74,3119.51c-0.08-6.43,3.84-12.24,9.84-14.56c4.3-1.61,9.03-1.61,13.33,0
		c1.95,0.76,3.74,1.89,5.25,3.35c1.46,1.42,2.63,3.13,3.43,5.01c1.64,3.97,1.64,8.43,0,12.4c-0.8,1.88-1.96,3.59-3.43,5.01
		c-1.51,1.45-3.29,2.59-5.25,3.35c-4.3,1.61-9.03,1.61-13.33,0C766.59,3131.74,762.67,3125.94,762.74,3119.51L762.74,3119.51z
		 M770.86,3119.51c-0.01,1.13,0.22,2.25,0.67,3.29c0.87,1.98,2.49,3.54,4.5,4.34c2.07,0.82,4.38,0.82,6.45,0
		c1-0.4,1.91-0.98,2.69-1.72c0.78-0.74,1.41-1.63,1.84-2.61c0.9-2.1,0.9-4.48,0-6.57c-0.44-0.98-1.06-1.87-1.84-2.62
		c-0.78-0.74-1.69-1.32-2.69-1.72c-2.07-0.82-4.38-0.82-6.45,0c-0.99,0.39-1.9,0.98-2.67,1.72c-0.77,0.75-1.39,1.63-1.82,2.62
		C771.08,3117.26,770.85,3118.38,770.86,3119.51z"/>
	<path id="Trazado_94" class="st6" d="M799.73,3105.17h11.49c1.98-0.01,3.93,0.41,5.72,1.24c1.75,0.8,3.33,1.92,4.67,3.29
		c1.34,1.38,2.41,3.01,3.15,4.79c1.53,3.65,1.53,7.76,0.02,11.42c-0.73,1.79-1.79,3.42-3.13,4.81c-1.34,1.39-2.92,2.51-4.67,3.31
		c-1.81,0.83-3.77,1.25-5.76,1.24h-11.49V3105.17z M807.49,3128.64h1.78c1.23,0.02,2.45-0.2,3.6-0.64c1-0.39,1.91-0.99,2.67-1.76
		c0.73-0.76,1.3-1.66,1.66-2.66c0.39-1.08,0.59-2.22,0.58-3.37c0.01-1.14-0.19-2.28-0.59-3.35c-0.74-2.04-2.33-3.66-4.36-4.43
		c-1.14-0.44-2.35-0.66-3.56-0.64h-1.78L807.49,3128.64z"/>
	<rect id="Rectángulo_56" x="733.72" y="3088.69" class="st6" width="22.47" height="7.53"/>
	<rect id="Rectángulo_57" x="765.38" y="3088.69" class="st6" width="22.47" height="7.53"/>
</g>
</svg>
