<svg id="Capa_1" data-name="Capa 1" xmlns="http://www.w3.org/2000/svg" viewBox="0 0 475.14 475.14"><defs><style>.cls-1{fill:#e55552;stroke-miterlimit:10;stroke-width:20px;}.cls-1,.cls-2,.cls-5{stroke:#20345b;}.cls-2{fill:none;stroke-width:3.72px;}.cls-2,.cls-5{stroke-linecap:round;stroke-linejoin:round;}.cls-3,.cls-5{fill:#e3d7cf;}.cls-4{fill:#20345b;}.cls-5{stroke-width:6.9px;}</style></defs><title>Hachiko</title><g id="Elipse_27-2" data-name="Elipse 27-2"><circle class="cls-1" cx="237.57" cy="237.57" r="227.57"/></g><path class="cls-2" d="M245.25,167.49h10.4" transform="translate(-12.43 -12.43)"/><path class="cls-3" d="M287.12,300.31V263.74s-21.34,11.11-39,11.11-35.22-11.94-35.22-11.94v37.4s-84.43-1.61-84.43,93.49h243.1C371.55,298.7,287.12,300.31,287.12,300.31Z" transform="translate(-12.43 -12.43)"/><path class="cls-4" d="M371.55,397.24H128.45a3.44,3.44,0,0,1-3.45-3.43h0c0-31,8.75-55.25,26-72.18,21.22-20.82,48.73-24.16,58.42-24.67V263a3.44,3.44,0,0,1,3.45-3.45,3.48,3.48,0,0,1,1.93.59c.17.12,16.92,11.35,33.29,11.35,16.61,0,37.23-10.61,37.43-10.72a3.46,3.46,0,0,1,4.64,1.56,3.56,3.56,0,0,1,.36,1.5V297c9.69.51,37.2,3.85,58.42,24.67,17.26,16.93,26,41.21,26,72.18A3.45,3.45,0,0,1,371.55,397.24Zm-239.62-6.89H368.07c-.62-27.36-8.64-48.79-23.85-63.76-23.53-23.13-56.71-22.83-57-22.84a3.44,3.44,0,0,1-3.51-3.39V269.2c-7.58,3.37-22.38,9.1-35.58,9.1-12.63,0-25-5.59-31.78-9.32v31.33a3.43,3.43,0,0,1-3.42,3.44h-.09c-.33,0-33.51-.28-57,22.84-15.27,15-23.29,36.41-23.91,63.76Z" transform="translate(-12.43 -12.43)"/><path class="cls-4" d="M313.84,304.81a91.55,91.55,0,0,0-26.72-4.5V263.74s-21.34,11.11-39,11.11-35.22-11.94-35.22-11.94v37.4a91.14,91.14,0,0,0-25.65,4.17,239.47,239.47,0,0,0,64.12,9.36A227.32,227.32,0,0,0,313.84,304.81Z" transform="translate(-12.43 -12.43)"/><path class="cls-4" d="M251.35,317.29a240.26,240.26,0,0,1-65.15-9.52,3.45,3.45,0,0,1,0-6.59A100.21,100.21,0,0,1,209.43,297V263a3.44,3.44,0,0,1,3.45-3.45,3.48,3.48,0,0,1,1.93.59c.17.12,16.92,11.35,33.29,11.35,16.61,0,37.23-10.61,37.43-10.72a3.46,3.46,0,0,1,4.64,1.56,3.56,3.56,0,0,1,.36,1.5V297a100.58,100.58,0,0,1,24.31,4.58,3.45,3.45,0,0,1,0,6.57A229.26,229.26,0,0,1,251.35,317.29Zm-49.42-12.61a235.51,235.51,0,0,0,49.42,5.71,229.08,229.08,0,0,0,48.26-5.47,76,76,0,0,0-12.42-1.17,3.39,3.39,0,0,1-2.48-1,3.43,3.43,0,0,1-1-2.46V269.2c-7.58,3.37-22.38,9.1-35.58,9.1-12.63,0-25-5.59-31.78-9.32v31.33a3.43,3.43,0,0,1-1,2.46,3.56,3.56,0,0,1-2.48,1,77.12,77.12,0,0,0-10.94.91Z" transform="translate(-12.43 -12.43)"/><path class="cls-3" d="M351.57,228c.33,4.35.52,9,.52,14.05,0,40.12-26.79,60.9-101.14,60.9-60.37,0-105.26-19.84-98.91-74.09" transform="translate(-12.43 -12.43)"/><path class="cls-4" d="M251,306.41c-42.48,0-72.37-9.39-88.84-27.91-11.35-12.75-15.89-29.58-13.5-50a3.45,3.45,0,1,1,6.88.58l0,.22c-2.15,18.41,1.82,33.43,11.8,44.65,14.9,16.74,43.84,25.59,83.69,25.59,86.09,0,97.69-29,97.69-57.45,0-4.69-.17-9.32-.51-13.79a3.45,3.45,0,0,1,6.88-.52c.35,4.64.53,9.45.53,14.31C355.54,286.56,323.28,306.41,251,306.41Z" transform="translate(-12.43 -12.43)"/><path class="cls-3" d="M215.29,137.45s39.41-15,73.08,0c0,0,22.21-28.66,59.47-30.81,0,0,13.61,20.78-7.88,76.66,0,0,12.13,18.63,12.13,58.76S325.3,303,251,303s-125.22-30.1-85.81-117.51c0,0-18.63-35.82-13.7-78.81C151.44,106.64,178,100.19,215.29,137.45Z" transform="translate(-12.43 -12.43)"/><path class="cls-4" d="M251,306.41c-46.83,0-79.3-12-93.9-34.54-13.36-20.69-11.92-49.73,4.28-86.34-3.54-7.41-17.8-40.22-13.31-79.28a3.43,3.43,0,0,1,2.61-3c1.14-.28,28.16-6.3,65.55,30.19,8.61-2.88,41.34-12.28,71.19-.2,6-6.85,27.39-28.19,60.27-30.08a3.47,3.47,0,0,1,3.09,1.55c.59.9,14.07,22.51-7,78.24,2.93,5.37,11.77,24.41,11.77,59.07C355.54,286.56,323.28,306.41,251,306.41Zm-96.36-196.7c-3.71,40.2,13.43,73.81,13.61,74.15a3.47,3.47,0,0,1,.08,3c-15.8,35-17.63,62.38-5.44,81.25,13.27,20.54,43.74,31.39,88.11,31.39,86.09,0,97.69-29,97.69-57.45,0-38.41-11.46-56.7-11.58-56.88a3.49,3.49,0,0,1-.32-3.11c17.07-44.38,11.39-65.88,9-71.82-33.83,3-54.46,29.05-54.66,29.31a3.46,3.46,0,0,1-4.13,1c-32-14.3-70.07-.07-70.45.07a3.46,3.46,0,0,1-3.67-.78c-29.27-29.2-51.31-30.58-58.29-30.13Z" transform="translate(-12.43 -12.43)"/><path class="cls-3" d="M171.92,173.48s9.75-19.11,30.62-28.82" transform="translate(-12.43 -12.43)"/><path class="cls-4" d="M171.92,176.92a3.44,3.44,0,0,1-3.44-3.44,3.38,3.38,0,0,1,.37-1.56c.42-.83,10.54-20.28,32.24-30.38a3.45,3.45,0,0,1,2.91,6.25c-19.57,9.11-28.91,27.08-29,27.26A3.44,3.44,0,0,1,171.92,176.92Z" transform="translate(-12.43 -12.43)"/><path class="cls-3" d="M331.33,173.48s-9.75-19.11-30.62-28.82" transform="translate(-12.43 -12.43)"/><path class="cls-4" d="M331.33,176.92a3.45,3.45,0,0,1-3.07-1.87h0c-.09-.18-9.52-18.2-29-27.27a3.45,3.45,0,0,1,2.91-6.25c21.7,10.1,31.82,29.55,32.24,30.38a3.43,3.43,0,0,1-3.08,5Z" transform="translate(-12.43 -12.43)"/><path class="cls-5" d="M212.28,300.31" transform="translate(-12.43 -12.43)"/><path class="cls-5" d="M286.53,300.31" transform="translate(-12.43 -12.43)"/><path class="cls-4" d="M242.16,261.67s-2.93,19.05,9.19,19.05,9.19-19.05,9.19-19.05l-9.6-10.25Z" transform="translate(-12.43 -12.43)"/><path class="cls-4" d="M251.35,284.17a11.39,11.39,0,0,1-9-4c-5.41-6.29-3.82-17.78-3.63-19.07a3.54,3.54,0,0,1,.79-1.71l8.78-10.26a3.45,3.45,0,0,1,4.87-.36,3.07,3.07,0,0,1,.26.25L263,259.27a3.54,3.54,0,0,1,.89,1.83c.2,1.29,1.78,12.78-3.62,19.07A11.43,11.43,0,0,1,251.35,284.17Zm-5.89-21.05c-.31,3.11-.39,9.66,2.15,12.61a5.32,5.32,0,0,0,7.48,0c2.52-2.93,2.47-9.39,2.16-12.53l-6.2-6.61Z" transform="translate(-12.43 -12.43)"/><path class="cls-3" d="M280.88,248a14.77,14.77,0,0,1-29.53.77c0-.26,0-.51,0-.77a14.76,14.76,0,0,1-29.52,0" transform="translate(-12.43 -12.43)"/><path class="cls-4" d="M266.11,266.21a18.2,18.2,0,0,1-14.76-7.55,18.21,18.21,0,0,1-33-10.66,3.45,3.45,0,0,1,6.89,0,11.32,11.32,0,1,0,22.63.67c0-.22,0-.45,0-.67a3.45,3.45,0,0,1,6.9,0,11.32,11.32,0,1,0,22.63.67c0-.22,0-.45,0-.67a3.45,3.45,0,0,1,6.89,0A18.23,18.23,0,0,1,266.11,266.21Z" transform="translate(-12.43 -12.43)"/><circle class="cls-4" cx="238.92" cy="229.37" r="6.2"/><path class="cls-4" d="M251.35,251.45A9.65,9.65,0,1,1,261,241.8h0A9.66,9.66,0,0,1,251.35,251.45Zm0-12.41a2.76,2.76,0,1,0,2.76,2.76h0a2.77,2.77,0,0,0-2.74-2.8h0Z" transform="translate(-12.43 -12.43)"/><path class="cls-4" d="M214.35,197.23a3.48,3.48,0,0,1-2.44-1c-8.73-8.74-17.82-.84-18.83.08a3.45,3.45,0,0,1-4.7-5,25.39,25.39,0,0,1,8.83-5c5-1.6,12.45-2,19.58,5.13a3.45,3.45,0,0,1-2.44,5.89Z" transform="translate(-12.43 -12.43)"/><path class="cls-4" d="M288.9,197.23a3.45,3.45,0,0,1-2.36-6,25.59,25.59,0,0,1,8.84-5c5-1.6,12.44-2,19.58,5.13a3.45,3.45,0,0,1-4.88,4.88c-3.81-3.81-7.93-4.93-12.61-3.44a18.55,18.55,0,0,0-6.21,3.51A3.39,3.39,0,0,1,288.9,197.23Z" transform="translate(-12.43 -12.43)"/><path class="cls-4" d="M297.68,249.8a3.46,3.46,0,0,1-3.36-2.69h0a65.94,65.94,0,0,0-8.95-19.89C276.76,214.49,265.18,208,251,208s-25.31,6.42-33.11,19.06a61.62,61.62,0,0,0-7.74,19.83,3.45,3.45,0,0,1-6.81-1.12c.07-.45,7.77-44.66,47.66-44.66,39.73,0,50,44,50.1,44.46a3.45,3.45,0,0,1-2.59,4.12h0A3.16,3.16,0,0,1,297.68,249.8Z" transform="translate(-12.43 -12.43)"/><circle class="cls-4" cx="237.57" cy="312.7" r="16.55"/><circle class="cls-3" cx="237.57" cy="312.7" r="4.8"/><rect class="cls-3" x="236.56" y="315.92" width="2.03" height="13.33"/><path class="cls-4" d="M187.23,397.24a3.45,3.45,0,0,1-3.45-3.44V356a3.45,3.45,0,0,1,6.9,0v37.8a3.44,3.44,0,0,1-3.44,3.44Z" transform="translate(-12.43 -12.43)"/><path class="cls-4" d="M316,397.24a3.45,3.45,0,0,1-3.45-3.44V356a3.45,3.45,0,0,1,6.9,0v37.8A3.45,3.45,0,0,1,316,397.24Z" transform="translate(-12.43 -12.43)"/></svg>