<svg id="Capa_1" data-name="Capa 1" xmlns="http://www.w3.org/2000/svg" viewBox="0 0 475.14 475.14"><defs><style>.cls-1{fill:#e55552;stroke-miterlimit:10;stroke-width:20px;}.cls-1,.cls-4{stroke:#20345b;}.cls-2,.cls-4{fill:#e3d7cf;}.cls-3{fill:#20345b;}.cls-4{stroke-linecap:round;stroke-linejoin:round;stroke-width:6.9px;}</style></defs><title>Her</title><g id="Elipse_27-2" data-name="Elipse 27-2"><circle class="cls-1" cx="237.57" cy="237.57" r="227.57"/></g><g id="Elipse_27-2-2" data-name="Elipse 27-2-2"><ellipse class="cls-2" cx="238.96" cy="184.88" rx="66" ry="77.17"/><path class="cls-3" d="M251.39,277.93c-38.29,0-69.45-36.16-69.45-80.62v-7.79c-.17-23.26-.32-43.34,13.19-57,10.75-10.83,28.64-15.88,56.29-15.88,31.63,0,50.92,7.72,60.71,24.3,8.73,14.78,8.73,35,8.73,56.32C320.83,241.77,289.68,277.93,251.39,277.93Zm0-154.34c-25.34,0-42.15,4.52-51.39,13.83-11.49,11.58-11.36,30.33-11.2,52.05v7.84c0,40.69,28.1,73.69,62.59,73.69s62.55-33.08,62.55-73.73C313.94,154.51,313.94,123.59,251.39,123.59Z" transform="translate(-12.43 -12.43)"/></g><path class="cls-3" d="M229,190.06H205.33a3.45,3.45,0,0,1,0-6.9H229a3.45,3.45,0,0,1,0,6.9Z" transform="translate(-12.43 -12.43)"/><path class="cls-3" d="M294.67,190.06H271.05a3.45,3.45,0,0,1,0-6.9h23.62a3.45,3.45,0,0,1,0,6.9Z" transform="translate(-12.43 -12.43)"/><path class="cls-4" d="M212.28,299.94" transform="translate(-12.43 -12.43)"/><path class="cls-4" d="M286.52,299.94" transform="translate(-12.43 -12.43)"/><path class="cls-2" d="M287.12,299.94V263.37s-21.34,11.11-39,11.11-35.22-11.94-35.22-11.94v37.4s-84.43-1.61-84.43,93.49h243.1C371.55,298.33,287.12,299.94,287.12,299.94Z" transform="translate(-12.43 -12.43)"/><path class="cls-3" d="M371.55,396.87H128.45a3.44,3.44,0,0,1-3.45-3.43h0c0-31,8.75-55.25,26-72.18,21.22-20.82,48.73-24.16,58.42-24.67v-34a3.44,3.44,0,0,1,3.45-3.45,3.48,3.48,0,0,1,1.93.59c.2.08,16.93,11.28,33.3,11.28,16.61,0,37.23-10.62,37.43-10.72a3.44,3.44,0,0,1,4.63,1.53,3.34,3.34,0,0,1,.37,1.52v33.21c9.69.51,37.2,3.85,58.42,24.67,17.26,16.93,26,41.21,26,72.18a3.44,3.44,0,0,1-3.4,3.48ZM131.94,390H368.07c-.62-27.36-8.64-48.79-23.85-63.75-23.52-23.14-56.73-22.86-57-22.85a3.44,3.44,0,0,1-3.51-3.35V268.83c-7.58,3.37-22.38,9.1-35.58,9.1-12.63,0-25-5.59-31.78-9.31v31.32a3.43,3.43,0,0,1-1,2.46,3.34,3.34,0,0,1-2.48,1c-.34,0-33.51-.28-57,22.85C140.57,341.19,132.55,362.62,131.94,390Z" transform="translate(-12.43 -12.43)"/><path class="cls-3" d="M258.81,263.25H241.19a3.45,3.45,0,0,1,0-6.9h17.62a3.45,3.45,0,0,1,0,6.9Z" transform="translate(-12.43 -12.43)"/><path class="cls-3" d="M250,109s-36.09-8.69-52,7.2-28,21.23-28,21.23-15.38,9.09,3,24.26c12.27,10.1-2.65,22.57-2.65,22.57s-21,24.05,19.61,41.49l-6.45-34.26,8.81-49.68L207,136.56h96l8.81,9.22L317.38,187v14.87l-4.52,23.8c40.61-17.44,19.61-41.49,19.61-41.49s-6.34-7.11-2.65-22.57c3.35-14.06-10-18.68-10-18.68s1-10.91-14.93-26.81S250,109,250,109" transform="translate(-12.43 -12.43)"/><path class="cls-3" d="M312.86,229.16a3.44,3.44,0,0,1-3.45-3.45,3.49,3.49,0,0,1,.06-.65l4.47-23.48v-14.3l-5.43-39.93-7-7.34H207.6l-12.18,4.33-8.36,47.09,6.34,33.64a3.43,3.43,0,0,1-1.23,3.33,3.48,3.48,0,0,1-3.52.48c-15.35-6.6-24.28-15-26.56-25-2.74-12,5.37-21.51,5.71-21.9a2.79,2.79,0,0,1,.39-.38c1.74-1.48,6.28-6.32,6.25-10.91,0-2.31-1.18-4.39-3.58-6.36-7.28-6-10.73-12.06-10.26-18,.59-7.59,7.38-11.69,7.67-11.86.11-.07.24-.13.36-.19s11.79-5.35,27-20.51c15.91-15.91,48.81-9.53,54.45-8.29,5.87-1.2,41.32-7.64,57.26,8.29,12.62,12.62,15.32,22.42,15.84,26.94,5.64,2.86,12.87,9.91,10,21.79-3.16,13.26,1.7,19.27,1.91,19.52s8.44,9.84,5.7,21.88c-2.27,10-11.21,18.43-26.56,25A3.59,3.59,0,0,1,312.86,229.16Zm-140-42.52c-.85,1.07-5.89,7.84-4,15.75,1.49,6.45,7,12.25,16.54,17.29l-5.2-27.59a3.69,3.69,0,0,1,0-1.24l8.8-49.68a3.46,3.46,0,0,1,2.24-2.65l14.63-5.21a3.48,3.48,0,0,1,1.15-.2h96a3.45,3.45,0,0,1,2.49,1.07l8.81,9.21a3.44,3.44,0,0,1,.93,1.92l5.61,41.27a3.53,3.53,0,0,1,0,.46v14.87a3.47,3.47,0,0,1-.06.64l-3.26,17.12c9.52-5,15.08-10.87,16.55-17.35,2-8.65-4.12-15.76-4.19-15.83-.28-.32-7.46-8.63-3.41-25.64,2.53-10.59-6.75-14.24-7.82-14.63a3.46,3.46,0,0,1-2.29-3.55s.35-9.78-13.94-24.07-51.29-6.36-51.66-6.27a3.43,3.43,0,0,1-1.56,0c-.34-.08-34.4-8-48.73,6.29-15.09,15.09-26.87,20.93-28.79,21.83-.64.43-3.95,2.81-4.2,6.43s2.44,7.73,7.78,12.13c4,3.31,6.07,7.24,6.09,11.67,0,8-7,14.64-8.49,16Z" transform="translate(-12.43 -12.43)"/><path class="cls-3" d="M254.51,132.16s-23.38,27.64,0,35.26C254.51,167.42,237.94,157.4,254.51,132.16Z" transform="translate(-12.43 -12.43)"/><path class="cls-3" d="M254.51,168.85a1.31,1.31,0,0,1-.44-.07c-5.88-1.91-9.53-5.23-10.85-9.85-3.29-11.57,9.64-27.05,10.2-27.7a1.43,1.43,0,1,1,2.29,1.72h0c-5.92,9-8.18,17-6.69,23.67a15.78,15.78,0,0,0,6.24,9.57,1.44,1.44,0,0,1,.46,2,1.47,1.47,0,0,1-1.21.68Zm-8.8-16.18a13.33,13.33,0,0,0,.28,5.48,9.49,9.49,0,0,0,1.67,3.29,19.5,19.5,0,0,1-1.42-4.12,22.1,22.1,0,0,1-.53-4.65Z" transform="translate(-12.43 -12.43)"/><path class="cls-3" d="M255.87,136.3s-36,4.06-24.2,25.64C231.67,161.94,226.5,143.29,255.87,136.3Z" transform="translate(-12.43 -12.43)"/><path class="cls-3" d="M231.67,163.38a1.44,1.44,0,0,1-1.26-.75c-3-5.43-3.34-10.34-1.13-14.6,5.56-10.69,25.58-13.06,26.43-13.16a1.44,1.44,0,0,1,.49,2.83c-10.54,2.5-17.66,6.77-21.15,12.68a15.59,15.59,0,0,0-2,11.18,1.43,1.43,0,0,1-.85,1.71A1.4,1.4,0,0,1,231.67,163.38Zm3.72-18.2a13.34,13.34,0,0,0-3.56,4.17,9.53,9.53,0,0,0-1,3.54,20,20,0,0,1,1.79-4,21.85,21.85,0,0,1,2.77-3.71Z" transform="translate(-12.43 -12.43)"/><path class="cls-3" d="M220.15,236.15c-8.41,0-15-2.77-19.43-8.23C191.2,216.3,195,196.79,195.13,196a3.46,3.46,0,0,1,3.38-2.77h43.28a3.45,3.45,0,0,1,3.38,2.77c.16.82,3.93,20.33-5.59,31.95C235.1,233.38,228.56,236.15,220.15,236.15ZM201.5,200.09c-.59,5.23-1.07,16.61,4.57,23.47,3.15,3.83,7.75,5.7,14.08,5.7s10.95-1.87,14.1-5.72c5.64-6.88,5.15-18.24,4.56-23.45Z" transform="translate(-12.43 -12.43)"/><path class="cls-3" d="M279.85,236.15c-8.41,0-15-2.77-19.43-8.23-9.52-11.62-5.75-31.13-5.59-31.95a3.46,3.46,0,0,1,3.38-2.77h43.28a3.45,3.45,0,0,1,3.38,2.77c.16.82,3.93,20.33-5.59,31.95C294.8,233.38,288.26,236.15,279.85,236.15ZM261.2,200.09c-.59,5.23-1.07,16.61,4.56,23.47,3.16,3.83,7.76,5.7,14.09,5.7s10.95-1.87,14.1-5.72c5.64-6.88,5.15-18.24,4.56-23.45Z" transform="translate(-12.43 -12.43)"/><path class="cls-3" d="M185.32,183s6.59-40.42,66-43.44c0,0-2.07,10.2,24,13.6s34,2.65,41.14,16.62l-5.66-27.57-23.68-16.62-46.59,3-47.59,10.57-7.62,8.56V183Z" transform="translate(-12.43 -12.43)"/><path class="cls-3" d="M185.32,186.42H185a3.44,3.44,0,0,1-3.16-3.43V147.72a3.46,3.46,0,0,1,.87-2.29l7.62-8.56a3.46,3.46,0,0,1,1.83-1.07l47.6-10.58a3,3,0,0,1,.52-.07l46.59-3a3.49,3.49,0,0,1,2.21.61l23.67,16.62a3.43,3.43,0,0,1,1.39,2.13l5.67,27.58a3.45,3.45,0,0,1-6.45,2.27c-5.5-10.73-10.72-11.36-30.12-13.73-2.57-.31-5.36-.65-8.4-1-12.75-1.67-21.14-5.2-24.93-10.5a11.51,11.51,0,0,1-1.52-2.88c-52.88,4-59.44,38.86-59.7,40.37A3.45,3.45,0,0,1,185.32,186.42ZM188.77,149v17.56C197,153.92,214.5,138,251.18,136.1a3.36,3.36,0,0,1,3,1.15,3.1,3.1,0,0,1,.61,2.89c0,2,3.69,7.32,21,9.58,3,.4,5.79.73,8.34,1,12.43,1.52,20.32,2.48,26.24,6.35l-2.65-12.89-21.55-15.13L241,132l-46.25,10.28Z" transform="translate(-12.43 -12.43)"/><path class="cls-3" d="M279.6,219.35c-4.15,0-8.94-1.44-13.59-6.1a3.44,3.44,0,0,1,4.87-4.87c8.73,8.73,17.82.84,18.83-.09a3.45,3.45,0,0,1,4.71,5,25.61,25.61,0,0,1-8.83,5.06A19.64,19.64,0,0,1,279.6,219.35Z" transform="translate(-12.43 -12.43)"/><path class="cls-3" d="M219.5,219.35c-4.16,0-8.94-1.44-13.6-6.1a3.45,3.45,0,0,1,4.88-4.87c8.73,8.73,17.82.84,18.83-.09a3.45,3.45,0,0,1,4.71,5,25.65,25.65,0,0,1-8.84,5.06A19.63,19.63,0,0,1,219.5,219.35Z" transform="translate(-12.43 -12.43)"/><path class="cls-3" d="M257.41,216a2.94,2.94,0,0,1-1.88-.69c-6.27-5.28-10.47-.84-10.93-.31a2.93,2.93,0,1,1-4.58-3.65,1.63,1.63,0,0,1,.17-.2c2.86-3.27,10.52-7.55,19.11-.32a2.93,2.93,0,0,1-1.89,5.17Z" transform="translate(-12.43 -12.43)"/><path class="cls-3" d="M250,248.92c11.88.16,26.36,3.09,26.36,3.09-4.88-17.9-26.36-9.77-26.36-9.77s-21.48-8.13-26.36,9.77C223.64,252,238.12,249.08,250,248.92Z" transform="translate(-12.43 -12.43)"/><path class="cls-3" d="M223.64,255.46a3.46,3.46,0,0,1-3.45-3.47,3.35,3.35,0,0,1,.12-.89c1.53-5.61,4.62-9.64,9.19-12,7.68-3.91,17.15-1.57,20.5-.53,3.34-1,12.82-3.38,20.5.53,4.57,2.32,7.66,6.35,9.19,12a3.44,3.44,0,0,1-2.42,4.23,3.52,3.52,0,0,1-1.58.06c-.14,0-14.28-2.86-25.68-3-11.4.17-25.54,3-25.68,3A4,4,0,0,1,223.64,255.46Zm15.84-11.62a15.25,15.25,0,0,0-6.87,1.45,10,10,0,0,0-2.8,2.13,155.2,155.2,0,0,1,19-1.93h-.06a30.19,30.19,0,0,0-9.27-1.65Zm11.68,1.65a155.2,155.2,0,0,1,19,1.93,10,10,0,0,0-2.8-2.13c-6.55-3.35-16.08.15-16.18.18Z" transform="translate(-12.43 -12.43)"/><path class="cls-3" d="M195.13,154.27a52.89,52.89,0,0,0,0,23.22s-6.33.2-9.81,5.49,8,7.44,8,7.44l-7.94,6.89-8.22-16.94,11.62-18.43Z" transform="translate(-12.43 -12.43)"/><path class="cls-3" d="M185.39,200.76a3.23,3.23,0,0,1-.69-.07,3.48,3.48,0,0,1-2.41-1.87l-8.22-16.95a3.45,3.45,0,0,1,.18-3.34l11.63-18.43a2.8,2.8,0,0,1,.25-.35l6.34-7.67a3.45,3.45,0,0,1,6,3.09,50.2,50.2,0,0,0,0,21.55,3.44,3.44,0,0,1-2.59,4.13,3.74,3.74,0,0,1-.66.09,9.62,9.62,0,0,0-7,3.86A14.86,14.86,0,0,0,194,187a3.45,3.45,0,0,1,1.62,6l-7.94,6.89A3.46,3.46,0,0,1,185.39,200.76Zm-4.3-20.18.75,1.54a7.65,7.65,0,0,1,.58-1,15.6,15.6,0,0,1,8.65-6.31,57.87,57.87,0,0,1-.69-8.92Z" transform="translate(-12.43 -12.43)"/><path class="cls-3" d="M308,154.27a52.89,52.89,0,0,1,0,23.22s6.33.2,9.81,5.49-8,7.44-8,7.44l7.94,6.89L326,180.37l-11.62-18.43Z" transform="translate(-12.43 -12.43)"/><path class="cls-3" d="M317.72,200.76a3.47,3.47,0,0,1-2.26-.84L307.52,193a3.45,3.45,0,0,1,1.63-6,15,15,0,0,0,5.72-2.23,9.62,9.62,0,0,0-7-3.86,3.47,3.47,0,0,1-3.31-3.62,4.11,4.11,0,0,1,.08-.6,49.93,49.93,0,0,0,0-21.56,3.45,3.45,0,0,1,6-3.08l6.34,7.67a2.88,2.88,0,0,1,.26.35l11.62,18.43a3.43,3.43,0,0,1,.19,3.34l-8.22,16.95a3.48,3.48,0,0,1-2.41,1.87A3.28,3.28,0,0,1,317.72,200.76ZM315,185.07Zm-3-10.29a15.62,15.62,0,0,1,8.66,6.31,7.65,7.65,0,0,1,.58,1l.75-1.54-9.3-14.72a55.86,55.86,0,0,1-.69,8.95Z" transform="translate(-12.43 -12.43)"/><path class="cls-2" d="M287.12,299.94v-18.7c-40.82,19.32-74.24,0-74.24,0v18.7l22.78,29,15.29-37,15.5,37Z" transform="translate(-12.43 -12.43)"/><path class="cls-3" d="M235.66,332.42A3.42,3.42,0,0,1,233,331.1l-22.79-29a3.5,3.5,0,0,1-.73-2.13v-18.7a3.45,3.45,0,0,1,3.44-3.46,3.5,3.5,0,0,1,1.73.46c.32.18,32.45,18.14,71-.13a3.44,3.44,0,0,1,4.92,3.12V300a3.4,3.4,0,0,1-.64,2l-20.67,29a3.45,3.45,0,0,1-6-.67L251,300.92l-12.12,29.37a3.47,3.47,0,0,1-2.72,2.1A4.19,4.19,0,0,1,235.66,332.42Zm-19.34-33.68,18.41,23.46,11.93-28.92a86.21,86.21,0,0,1-30.34-6.56Zm38.88-5.58,12,28.76,16.44-23.09V286.52a90.2,90.2,0,0,1-28.44,6.64Zm31.92,6.78Z" transform="translate(-12.43 -12.43)"/><path class="cls-3" d="M251,396.87a3.45,3.45,0,0,1-3.45-3.44V291.93a3.45,3.45,0,0,1,6.9,0v101.5A3.45,3.45,0,0,1,251,396.87Z" transform="translate(-12.43 -12.43)"/><circle class="cls-3" cx="220.96" cy="296.45" r="3.77"/><circle class="cls-3" cx="256.02" cy="296.45" r="3.77"/><circle class="cls-3" cx="248.47" cy="326.48" r="3.77"/><circle class="cls-3" cx="248.47" cy="346.97" r="3.77"/><circle class="cls-3" cx="248.47" cy="367.46" r="3.77"/><path class="cls-3" d="M172.34,396.87a3.44,3.44,0,0,1-3.45-3.43h0V367.35a3.45,3.45,0,0,1,6.9,0h0v26.08A3.45,3.45,0,0,1,172.34,396.87Z" transform="translate(-12.43 -12.43)"/><path class="cls-3" d="M333.41,396.87a3.44,3.44,0,0,1-3.45-3.43h0V367.35a3.45,3.45,0,0,1,6.89-.37,2.29,2.29,0,0,1,0,.37v26.08a3.44,3.44,0,0,1-3.44,3.44Z" transform="translate(-12.43 -12.43)"/><path class="cls-3" d="M316.46,396.87H280.25a3.45,3.45,0,0,1-3.45-3.44V367.35a3.44,3.44,0,0,1,3.45-3.45h36.21a3.44,3.44,0,0,1,3.45,3.43v26.1a3.44,3.44,0,0,1-3.44,3.44ZM283.7,390H313V370.79H283.7Z" transform="translate(-12.43 -12.43)"/></svg>