<svg id="Capa_1" data-name="Capa 1" xmlns="http://www.w3.org/2000/svg" viewBox="0 0 475.14 475.14"><defs><style>.cls-1,.cls-3{fill:#e3d7ce;}.cls-1,.cls-4{stroke:#20345b;}.cls-1{stroke-miterlimit:10;stroke-width:20px;}.cls-2{fill:#20345b;}.cls-4{fill:none;stroke-linecap:round;stroke-linejoin:round;stroke-width:6.9px;}</style></defs><title>Kiss</title><g id="Elipse_27-2" data-name="Elipse 27-2"><circle class="cls-1" cx="237.57" cy="237.57" r="227.57"/></g><path class="cls-2" d="M184.76,169.13,166,332.45H334l-18.66-169S206.85,143.48,184.76,169.13Z" transform="translate(-12.43 -12.43)"/><path class="cls-2" d="M334,335.9H166a3.46,3.46,0,0,1-3.43-3.84l18.77-163.33a3.45,3.45,0,0,1,.81-1.85C205.26,140,311.47,159.18,316,160a3.46,3.46,0,0,1,2.81,3l18.66,169A3.45,3.45,0,0,1,334,335.9ZM169.87,329H330.16l-18-162.65a536.22,536.22,0,0,0-54.14-6.27c-46.19-2.73-63.62,4-70,10.55Z" transform="translate(-12.43 -12.43)"/><g id="Elipse_27-2-2" data-name="Elipse 27-2"><ellipse class="cls-3" cx="238.96" cy="203.56" rx="66" ry="77.17"/><path class="cls-2" d="M251.39,296.61c-38.29,0-69.45-36.17-69.45-80.62,0-2.63,0-5.23,0-7.79-.17-23.26-.32-43.35,13.19-57,10.75-10.83,28.64-15.87,56.29-15.87,31.63,0,50.92,7.72,60.71,24.3,8.73,14.77,8.73,35,8.73,56.32C320.83,260.44,289.68,296.61,251.39,296.61Zm0-154.34c-25.34,0-42.15,4.52-51.39,13.83-11.49,11.58-11.36,30.33-11.2,52.05,0,2.58,0,5.19,0,7.84,0,40.65,28.06,73.72,62.55,73.72s62.55-33.07,62.55-73.72C313.94,173.19,313.94,142.27,251.39,142.27Z" transform="translate(-12.43 -12.43)"/></g><path class="cls-2" d="M249.91,282.15c-15.62,0-28.55-8-35.23-14.76a3.45,3.45,0,0,1,4.92-4.84c1.17,1.19,28.65,28.21,61-.17a3.45,3.45,0,0,1,4.55,5.18C272.9,278.31,260.76,282.15,249.91,282.15Z" transform="translate(-12.43 -12.43)"/><path class="cls-4" d="M286.52,318.62" transform="translate(-12.43 -12.43)"/><path class="cls-3" d="M287.12,282.05v36.57s84.43-1.61,84.43,93.49H128.45c0-95.1,84.43-93.49,84.43-93.49v-37.4a71.07,71.07,0,0,0,38.51,11.94C273.63,293.16,287.12,282.05,287.12,282.05Z" transform="translate(-12.43 -12.43)"/><path class="cls-2" d="M371.55,415.55H128.45A3.44,3.44,0,0,1,125,412.1c0-31,8.75-55.24,26-72.17,21.22-20.82,48.73-24.16,58.42-24.67v-34a3.45,3.45,0,0,1,5.49-2.78c.15.11,15.69,11.27,36.47,11.27s33.42-10.22,33.55-10.33a3.45,3.45,0,0,1,5.63,2.67v33.21c9.69.51,37.2,3.85,58.42,24.67,17.26,16.93,26,41.21,26,72.17A3.44,3.44,0,0,1,371.55,415.55Zm-239.61-6.89H368.07c-.62-27.39-8.66-48.85-23.91-63.81-23.58-23.14-56.66-22.78-57-22.79a3.59,3.59,0,0,1-2.48-1,3.46,3.46,0,0,1-1-2.46v-30.2a66.27,66.27,0,0,1-32.29,8.19,74.47,74.47,0,0,1-35.07-9.22v31.23a3.46,3.46,0,0,1-1,2.46,3.56,3.56,0,0,1-2.48,1c-.33,0-33.51-.29-57,22.84C140.57,359.87,132.55,381.3,131.94,408.66Z" transform="translate(-12.43 -12.43)"/><path class="cls-2" d="M250.22,377.19a3.47,3.47,0,0,1-2.44-1l-53.36-53.37a3.45,3.45,0,0,1,4.87-4.88l50.93,50.93,50.71-50.7A3.44,3.44,0,0,1,305.8,323l-53.14,53.15A3.45,3.45,0,0,1,250.22,377.19Z" transform="translate(-12.43 -12.43)"/><path class="cls-2" d="M317.15,327.7a3.44,3.44,0,0,1-1.17-.21,90.07,90.07,0,0,0-28.79-5.43,3.45,3.45,0,1,1-.13-6.89A95.87,95.87,0,0,1,318.32,321a3.45,3.45,0,0,1-1.17,6.7Z" transform="translate(-12.43 -12.43)"/><path class="cls-2" d="M276.61,130.67v-25A17.28,17.28,0,0,0,259.39,88.4H240.62a17.28,17.28,0,0,0-17.23,17.23v25.23c-31.64,5.47-38.06,21.55-38.59,43.53-.3,12.29,1.24,26.44,1.24,41.6,0,0,4.49-57.69,26.84-57.69s32.5,27.19,32.5,27.19,6.21,11.39,12.42,0c0,0,10.16-27.19,32.51-27.19S316.68,216,316.68,216C316.68,173.39,324.6,138.87,276.61,130.67Z" transform="translate(-12.43 -12.43)"/><path class="cls-2" d="M186.05,220h-.16a4,4,0,0,1-3.8-4c0-7.13-.35-14-.68-20.71-.37-7.41-.73-14.41-.57-21,.5-20.25,5.6-39.85,38.59-46.71v-22a21.2,21.2,0,0,1,21.19-21.18h18.77a21.2,21.2,0,0,1,21.18,21.18v21.76c41.89,8.63,41.16,38.41,40.33,72.77-.13,5.12-.26,10.42-.26,15.83a4,4,0,0,1-7.9.28c-1-14-7.22-54-22.43-54-19.29,0-28.71,24.39-28.8,24.64a4.52,4.52,0,0,1-.23.5c-2.58,4.73-5.76,7.12-9.46,7.12-5.86,0-9.52-6.39-9.91-7.12a4.74,4.74,0,0,1-.24-.51c-.09-.24-9.5-24.63-28.79-24.63-15.24,0-21.79,40-22.89,54.05A4,4,0,0,1,186.05,220ZM249,183.79c.88,1.47,2.32,2.81,2.86,2.81h0s1-.22,2.39-2.78c1.28-3.27,12.33-29.48,36.1-29.48,11.11,0,18.22,10.62,22.75,23.06-1-22.77-7.53-37.77-37.11-42.83a4,4,0,0,1-3.29-3.9v-25a13.29,13.29,0,0,0-13.27-13.27H240.62a13.3,13.3,0,0,0-13.28,13.27v25.23a4,4,0,0,1-3.28,3.9c-28.84,5-34.78,18.34-35.3,39.73,0,2.07,0,4.21,0,6.4,4.54-13.88,12-26.55,24.13-26.55C236.58,154.34,247.63,180.4,249,183.79Z" transform="translate(-12.43 -12.43)"/><path class="cls-2" d="M192.7,184.64l-7.13,37,11.31,34.87,13.55-17.66L226,251.74s16.25-25.17-1.13-53.26l-13.1,22.09Z" transform="translate(-12.43 -12.43)"/><path class="cls-2" d="M196.88,260a3.81,3.81,0,0,1-.59-.05,3.49,3.49,0,0,1-2.73-2.37L182.25,222.7a3.54,3.54,0,0,1-.11-1.74l7.13-37a3.49,3.49,0,0,1,6.5-1L212,213.45l9.93-16.75a3.49,3.49,0,0,1,6-.06,54.68,54.68,0,0,1,1.09,57,3.5,3.5,0,0,1-5.16.79L211,243.83l-11.35,14.78A3.51,3.51,0,0,1,196.88,260Zm-7.72-38.58,9,27.71,9.52-12.4a3.49,3.49,0,0,1,5-.56L225,246.33a47.61,47.61,0,0,0-.19-40.81l-10,16.82a3.42,3.42,0,0,1-3.08,1.71,3.49,3.49,0,0,1-3-1.85L194.25,195Z" transform="translate(-12.43 -12.43)"/><path class="cls-2" d="M310.38,184.64l6.79,37.53-11,34.32-13.56-17.66-15.58,12.91s-16.25-25.17,1.13-53.26l13.1,22.09Z" transform="translate(-12.43 -12.43)"/><path class="cls-2" d="M306.2,260a3.51,3.51,0,0,1-2.77-1.37l-11.35-14.78-12.79,10.59a3.5,3.5,0,0,1-5.16-.79,54.68,54.68,0,0,1,1.09-57,3.53,3.53,0,0,1,3-1.65,3.49,3.49,0,0,1,3,1.71l9.93,16.75L307.31,183a3.49,3.49,0,0,1,6.51,1l6.78,37.53a3.3,3.3,0,0,1-.11,1.68l-11,34.32a3.46,3.46,0,0,1-2.72,2.37A3.05,3.05,0,0,1,306.2,260Zm-13.56-24.63a2.55,2.55,0,0,1,.39,0,3.46,3.46,0,0,1,2.38,1.34l9.5,12.37,8.68-27.15-4.85-26.77-14.38,27a3.46,3.46,0,0,1-3,1.85,3.42,3.42,0,0,1-3.08-1.71l-10-16.82a47.61,47.61,0,0,0-.19,40.81l12.3-10.18A3.5,3.5,0,0,1,292.64,235.35Z" transform="translate(-12.43 -12.43)"/><path class="cls-3" d="M286.47,236.4c-4.15,0-8.94-1.45-13.59-6.1a3.45,3.45,0,0,1,4.88-4.88c8.73,8.74,17.82.84,18.82-.08a3.45,3.45,0,0,1,4.71,5,25.59,25.59,0,0,1-8.83,5.05A19.57,19.57,0,0,1,286.47,236.4Z" transform="translate(-12.43 -12.43)"/><path class="cls-3" d="M212.22,236.4c-4.15,0-8.94-1.45-13.59-6.1a3.45,3.45,0,0,1,4.88-4.88c8.73,8.74,17.82.84,18.83-.08a3.45,3.45,0,0,1,4.7,5,25.47,25.47,0,0,1-8.83,5.05A19.57,19.57,0,0,1,212.22,236.4Z" transform="translate(-12.43 -12.43)"/><path class="cls-2" d="M266.46,275.44a42.5,42.5,0,0,1-31.58.5s2.73,44.43,16.47,44.43S266.46,275.44,266.46,275.44Z" transform="translate(-12.43 -12.43)"/><path class="cls-2" d="M251.35,323.82c-16.16,0-19.42-39.71-19.91-47.67a3.46,3.46,0,0,1,4.64-3.45,38.91,38.91,0,0,0,29.07-.45,3.44,3.44,0,0,1,4.76,3.29C269.66,283.61,267.61,323.82,251.35,323.82Zm-12.62-43.07c1.64,16.53,6.43,36.17,12.62,36.17,4.08,0,10-12.66,11.44-36.54A45,45,0,0,1,238.73,280.75Z" transform="translate(-12.43 -12.43)"/><path class="cls-2" d="M317.15,324.25c24.26,8.74,54.4,31,54.4,87.86H128.45c0-56.83,30.15-79.12,54.41-87.87l66.5,66.5Z" transform="translate(-12.43 -12.43)"/><path class="cls-2" d="M371.55,415.55H128.45A3.44,3.44,0,0,1,125,412.1c0-58.41,30.83-81.78,56.69-91.1a3.45,3.45,0,0,1,3.61.81l64.08,64.08,65.36-64.11a3.45,3.45,0,0,1,3.58-.78c25.86,9.32,56.68,32.69,56.68,91.1A3.44,3.44,0,0,1,371.55,415.55Zm-239.61-6.89H368.07c-1.14-50.39-27.25-71.56-50.07-80.41L251.77,393.2a3.44,3.44,0,0,1-4.85,0L182,328.25C159.17,337.11,133.08,358.28,131.94,408.66Z" transform="translate(-12.43 -12.43)"/></svg>