<svg id="Capa_1" data-name="Capa 1" xmlns="http://www.w3.org/2000/svg" viewBox="0 0 475.14 475.14"><defs><style>.cls-1{fill:#e55552;stroke-miterlimit:10;stroke-width:20px;}.cls-1,.cls-4,.cls-5{stroke:#20345b;}.cls-2,.cls-4{fill:#e3d7cf;}.cls-3,.cls-5{fill:#20345b;}.cls-4,.cls-5{stroke-linecap:round;stroke-linejoin:round;stroke-width:6.9px;}.cls-6{fill:none;}</style></defs><title>Little Miss Sunshine</title><g id="Elipse_27-2" data-name="Elipse 27-2"><circle class="cls-1" cx="237.57" cy="237.57" r="227.57"/></g><g id="Elipse_27-2-2" data-name="Elipse 27-2-2"><ellipse class="cls-2" cx="238.96" cy="186.88" rx="66" ry="77.17"/><path class="cls-3" d="M251.39,279.92c-38.29,0-69.45-36.16-69.45-80.62v-7.79c-.17-23.26-.32-43.34,13.19-56.95,10.75-10.83,28.64-15.88,56.29-15.88,31.63,0,50.92,7.73,60.71,24.3,8.73,14.78,8.73,35,8.73,56.32C320.83,243.76,289.68,279.92,251.39,279.92Zm0-154.34c-25.34,0-42.15,4.53-51.39,13.84-11.49,11.57-11.36,30.32-11.2,52v7.84c0,40.74,28.1,73.74,62.59,73.74s62.55-33,62.55-73.7c0-42.79,0-73.72-62.55-73.72Z" transform="translate(-12.43 -12.43)"/></g><path class="cls-3" d="M249.91,265.46c-15.62,0-28.55-8-35.23-14.76a3.45,3.45,0,0,1,4.92-4.83c1.17,1.18,28.65,28.21,61-.18a3.45,3.45,0,1,1,4.55,5.19C272.9,261.62,260.76,265.46,249.91,265.46Z" transform="translate(-12.43 -12.43)"/><path class="cls-3" d="M229,219.7a3.48,3.48,0,0,1-2.44-1c-8.74-8.73-17.82-.84-18.83.09a3.45,3.45,0,0,1-4.71-5,25.65,25.65,0,0,1,8.84-5.06c5-1.59,12.44-2,19.57,5.13A3.45,3.45,0,0,1,229,219.7Z" transform="translate(-12.43 -12.43)"/><path class="cls-3" d="M296.1,219.7a3.46,3.46,0,0,1-2.43-1c-8.74-8.73-17.83-.84-18.83.09a3.45,3.45,0,0,1-4.71-5,25.61,25.61,0,0,1,8.83-5.06c5-1.59,12.45-2,19.58,5.13a3.45,3.45,0,0,1-2.44,5.89Z" transform="translate(-12.43 -12.43)"/><path class="cls-4" d="M212.28,301.93" transform="translate(-12.43 -12.43)"/><path class="cls-4" d="M286.52,301.93" transform="translate(-12.43 -12.43)"/><path class="cls-2" d="M287.12,301.93V265.37s-21.34,11.11-39,11.11-35.22-12-35.22-12v37.4s-84.43-1.6-84.43,93.49h243.1C371.55,300.33,287.12,301.93,287.12,301.93Z" transform="translate(-12.43 -12.43)"/><path class="cls-3" d="M371.55,398.87H128.45a3.44,3.44,0,0,1-3.45-3.45h0c0-31,8.75-55.25,26-72.18,21.22-20.82,48.73-24.16,58.42-24.67v-34a3.44,3.44,0,0,1,5.38-2.85c.17.11,16.92,11.35,33.29,11.35,16.61,0,37.23-10.62,37.43-10.72a3.45,3.45,0,0,1,5,3.06v33.2c9.69.51,37.2,3.85,58.42,24.67,17.26,16.93,26,41.22,26,72.18A3.44,3.44,0,0,1,371.55,398.87ZM131.94,392H368.07c-.62-27.35-8.64-48.79-23.85-63.75-23.52-23.13-56.73-22.86-57-22.84a3.38,3.38,0,0,1-2.48-1,3.43,3.43,0,0,1-1-2.46V270.82c-7.58,3.38-22.38,9.1-35.58,9.1-12.63,0-25-5.59-31.78-9.31v31.32a3.43,3.43,0,0,1-1,2.46,3.39,3.39,0,0,1-2.48,1c-.34,0-33.51-.29-57,22.84C140.57,343.18,132.55,364.62,131.94,392Z" transform="translate(-12.43 -12.43)"/><path class="cls-3" d="M262.15,218.91a2.62,2.62,0,0,1-1.86-.76c-3.34-3.28-6.64-4.82-9.79-4.6-4.56.32-7.63,4.27-7.66,4.31a2.66,2.66,0,0,1-4.24-3.2c.17-.24,4.48-5.88,11.46-6.41,4.75-.36,9.45,1.69,13.95,6.11a2.64,2.64,0,0,1,0,3.75h0A2.62,2.62,0,0,1,262.15,218.91Z" transform="translate(-12.43 -12.43)"/><path class="cls-3" d="M227.08,239H204.42a15.67,15.67,0,0,1-15.66-15.66V209.17a15.68,15.68,0,0,1,15.66-15.66h22.66a15.68,15.68,0,0,1,15.65,15.66v14.16A15.66,15.66,0,0,1,227.08,239Zm-22.66-38.58a8.77,8.77,0,0,0-8.76,8.76v14.16a8.77,8.77,0,0,0,8.76,8.77h22.66a8.77,8.77,0,0,0,8.76-8.77V209.17a8.77,8.77,0,0,0-8.76-8.76Z" transform="translate(-12.43 -12.43)"/><path class="cls-3" d="M298.45,239H275.79a15.68,15.68,0,0,1-15.65-15.66V209.17a15.68,15.68,0,0,1,15.65-15.66h22.66a15.68,15.68,0,0,1,15.66,15.66v14.16A15.67,15.67,0,0,1,298.45,239Zm-22.66-38.58a8.77,8.77,0,0,0-8.76,8.76v14.16a8.77,8.77,0,0,0,8.76,8.77h22.66a8.79,8.79,0,0,0,8.77-8.77V209.17a8.78,8.78,0,0,0-8.77-8.76Z" transform="translate(-12.43 -12.43)"/><path class="cls-2" d="M310.66,305.48a90.23,90.23,0,0,0-23.54-3.55V265.37s-21.34,11.11-39,11.11-35.22-12-35.22-12v37.4a87.36,87.36,0,0,0-20.67,2.79" transform="translate(-12.43 -12.43)"/><path class="cls-3" d="M310.67,308.93a3.33,3.33,0,0,1-.94-.13,88.18,88.18,0,0,0-22.54-3.42,3.38,3.38,0,0,1-2.48-1,3.43,3.43,0,0,1-1-2.46v-31.1c-7.58,3.38-22.38,9.1-35.58,9.1-12.63,0-25-5.59-31.78-9.31v31.32a3.43,3.43,0,0,1-1,2.46,3.39,3.39,0,0,1-2.48,1A85.42,85.42,0,0,0,193,308.07a3.45,3.45,0,0,1-1.67-6.69,98.49,98.49,0,0,1,18.06-2.8V264.53a3.44,3.44,0,0,1,5.38-2.85c.17.11,16.92,11.35,33.29,11.35,16.61,0,37.23-10.62,37.43-10.72a3.45,3.45,0,0,1,5,3.06v33.21a99.65,99.65,0,0,1,21,3.58,3.45,3.45,0,0,1-.93,6.77Z" transform="translate(-12.43 -12.43)"/><path class="cls-2" d="M328.29,395.42h43.26c0-48.34-21.81-71.69-43.26-83" transform="translate(-12.43 -12.43)"/><path class="cls-3" d="M371.55,398.87H328.29a3.45,3.45,0,0,1,0-6.9h39.78c-.82-36.73-14.73-62.45-41.39-76.47a3.45,3.45,0,0,1,2.94-6.24l.27.14C367.17,329,375,367,375,395.42A3.44,3.44,0,0,1,371.55,398.87Z" transform="translate(-12.43 -12.43)"/><path class="cls-5" d="M171.7,312.46" transform="translate(-12.43 -12.43)"/><path class="cls-3" d="M171.7,395.42H328.29v-83a91.09,91.09,0,0,0-17.63-7s-1.82,38.22-61.92,38.22-56.53-39-56.53-39a91.69,91.69,0,0,0-20.51,7.74v83" transform="translate(-12.43 -12.43)"/><path class="cls-3" d="M328.29,398.87H171.7a3.47,3.47,0,0,1-3.45-3.45v-83a3.44,3.44,0,0,1,1.85-3,94.44,94.44,0,0,1,21.27-8,3.45,3.45,0,0,1,4.27,3.66,29.3,29.3,0,0,0,8,20.76c8.82,9.59,24,14.45,45.14,14.45,55.83,0,58.4-33.52,58.48-35a3.48,3.48,0,0,1,3.67-3.26,4.21,4.21,0,0,1,.71.12,94.76,94.76,0,0,1,18.29,7.24,3.45,3.45,0,0,1,1.84,3.05v83A3.45,3.45,0,0,1,328.29,398.87ZM175.15,392H324.84V314.6a85,85,0,0,0-11.47-4.66c-2.6,10.59-14.16,37.23-64.63,37.23-23.23,0-40.16-5.65-50.33-16.79a37,37,0,0,1-9.52-21.15,87.94,87.94,0,0,0-13.74,5.37Z" transform="translate(-12.43 -12.43)"/><path class="cls-6" d="M266.54,379.14a5.29,5.29,0,0,0,5.23-5.23v-5.23a4.94,4.94,0,0,0-1.55-3.65,5.2,5.2,0,0,0-7.35,0l0,0a4.93,4.93,0,0,0-1.54,3.65v5.23a5.28,5.28,0,0,0,5.23,5.23Z" transform="translate(-12.43 -12.43)"/><path class="cls-6" d="M266.54,384.32c-3.49,0-5.23,1.75-5.23,5.23v2.27h10.46v-2.27C271.77,386.07,270,384.32,266.54,384.32Z" transform="translate(-12.43 -12.43)"/><path class="cls-6" d="M221.14,398.42a5.22,5.22,0,0,0,8.88-3H219.68A4.91,4.91,0,0,0,221.14,398.42Z" transform="translate(-12.43 -12.43)"/><path class="cls-6" d="M228.52,380.67a5.19,5.19,0,0,0-7.34,0l0,0a5,5,0,0,0-1.54,3.65v7.5h10.46v-7.5A5,5,0,0,0,228.52,380.67Z" transform="translate(-12.43 -12.43)"/><path class="cls-6" d="M262.85,398.44a5.24,5.24,0,0,0,7.37,0,5,5,0,0,0,1.49-3H261.37A4.94,4.94,0,0,0,262.85,398.44Z" transform="translate(-12.43 -12.43)"/><path class="cls-2" d="M219.62,384.32a5,5,0,0,1,1.54-3.65,5.19,5.19,0,0,1,7.34,0l0,0a5,5,0,0,1,1.56,3.65v7.5h10.41v-7.5a10.49,10.49,0,0,0-10.41-10.41h-5.23a4.86,4.86,0,0,0-3.61,1.3,6.43,6.43,0,0,0-1.62,3.93v-5.23a10.48,10.48,0,0,1,10.46-10.41h5.18v-5.23h-7.82A18.39,18.39,0,0,0,209.2,376.5v15.32h10.42Z" transform="translate(-12.43 -12.43)"/><path class="cls-2" d="M261.31,389.55c0-3.48,1.74-5.23,5.23-5.23s5.23,1.75,5.23,5.23v2.27h10.38a11.39,11.39,0,0,0-2.57-6.72c-1.74-2.24-4.34-3.37-7.81-3.37,3.47-.4,6.07-1.48,7.81-3.22a9.74,9.74,0,0,0,2.6-7.19v-2.64a10.5,10.5,0,0,0-10.41-10.41H261.31a10.5,10.5,0,0,0-10.41,10.41v2.64a9.75,9.75,0,0,0,2.61,7.19c1.75,1.74,4.34,2.82,7.8,3.22-3.49,0-6.09,1.13-7.82,3.37a11.47,11.47,0,0,0-2.56,6.72h10.38Zm0-20.87a4.93,4.93,0,0,1,1.54-3.65,5.2,5.2,0,0,1,7.35,0l0,0a4.94,4.94,0,0,1,1.55,3.65v5.23a5.23,5.23,0,0,1-10.46,0Z" transform="translate(-12.43 -12.43)"/><path class="cls-3" d="M219.62,394.78a3.47,3.47,0,0,0,.06.64H230c0-.21.06-.42.06-.64v-3H219.62Z" transform="translate(-12.43 -12.43)"/><path class="cls-3" d="M261.31,394.78a3.47,3.47,0,0,0,.06.64h10.34c0-.21.06-.42.06-.64v-3H261.31Z" transform="translate(-12.43 -12.43)"/><path class="cls-3" d="M209.2,391.82H171.7v3.6h37.53v-.64Z" transform="translate(-12.43 -12.43)"/><path class="cls-3" d="M250.9,392.14v-.32H240.49v3.64H251v-.64Z" transform="translate(-12.43 -12.43)"/><path class="cls-3" d="M328.29,391.82H282.15v3.6h46.14Z" transform="translate(-12.43 -12.43)"/><path class="cls-3" d="M240.49,391.82H230.08v3a2.28,2.28,0,0,1-.06.64h10.44v-.64Z" transform="translate(-12.43 -12.43)"/><path class="cls-3" d="M219.62,394.78v-3H209.2v3.64h10.45A3.43,3.43,0,0,1,219.62,394.78Z" transform="translate(-12.43 -12.43)"/><path class="cls-3" d="M261.31,394.78v-3H250.93v3.6h10.44Q261.32,395.08,261.31,394.78Z" transform="translate(-12.43 -12.43)"/><path class="cls-3" d="M282.18,392.14v-.32H271.77v3a2.28,2.28,0,0,1-.06.64h10.44v-.64Z" transform="translate(-12.43 -12.43)"/><path class="cls-2" d="M251.39,104.36c-65.83,0-76.06,53.12-64.76,102.21l-2.83-22h15c48,0,52.81-29.1,52.81-29.1v-51.1Z" transform="translate(-12.43 -12.43)"/><path class="cls-3" d="M186.62,210.9a4.32,4.32,0,0,1-4.21-3.36c-4.67-20.3-9.46-58.19,11-83.84,12.5-15.7,32-23.66,58-23.66h.29a4.45,4.45,0,0,1,4.29,4.33v51.1a5.49,5.49,0,0,1-.05.7c-.23,1.34-6,32.72-57.08,32.72H188.74l2.2,17.11a4.33,4.33,0,0,1-3.53,4.81A3.48,3.48,0,0,1,186.62,210.9Zm60.7-102.14c-21.19.77-37,7.6-47.18,20.33-6.13,7.69-14.58,23.51-13,51.17h11.73c41.34,0,47.8-22.19,48.49-25.21Z" transform="translate(-12.43 -12.43)"/><path class="cls-2" d="M250.85,104.36c65.83,0,76.06,53.12,64.76,102.21l2.83-22h-15c-48,0-52.8-29.1-52.8-29.1v-51.1Z" transform="translate(-12.43 -12.43)"/><path class="cls-3" d="M315.62,210.9a3.94,3.94,0,0,1-.77-.07,4.33,4.33,0,0,1-3.53-4.81l2.2-17.11H303.4c-51.1,0-56.85-31.38-57.07-32.72a4.14,4.14,0,0,1-.06-.7v-51.1a4.32,4.32,0,0,1,4.29-4.33h.29c26,0,45.53,8,58,23.66,20.41,25.65,15.62,63.54,10.95,83.84A4.31,4.31,0,0,1,315.62,210.9ZM254.92,155c.66,2.9,7.05,25.2,48.48,25.2h11.74c1.54-27.66-6.91-43.48-13-51.17C292,116.3,276.14,109.47,255,108.7Z" transform="translate(-12.43 -12.43)"/><polygon class="cls-3" points="170.23 161.9 307.83 161.9 307.17 140.66 170.9 140.66 170.23 161.9"/></svg>