<?xml version="1.0" encoding="utf-8"?>
<!-- Generator: Adobe Illustrator 24.0.0, SVG Export Plug-In . SVG Version: 6.00 Build 0)  -->
<svg version="1.1" id="Capa_1" xmlns="http://www.w3.org/2000/svg" xmlns:xlink="http://www.w3.org/1999/xlink" x="0px" y="0px"
	 viewBox="0 0 508.53 488.71" style="enable-background:new 0 0 508.53 488.71;" xml:space="preserve">
<style type="text/css">
	.st0{fill:#F5B15A;}
	.st1{fill:#EAE3DA;}
	.st2{fill:#E4D7CE;}
	.st3{fill:#002E61;}
	.st4{fill:#E45451;}
	.st5{fill:#E4D8CE;}
	.st6{fill:#1E244D;}
	.st7{fill:#F99A3D;}
	.st8{fill:none;stroke:#002E61;stroke-width:10;stroke-miterlimit:10;}
	.st9{fill:none;stroke:#002E61;stroke-width:5;stroke-linecap:round;stroke-linejoin:round;}
	.st10{fill:#E45451;stroke:#002E61;stroke-width:10;stroke-miterlimit:10;}
	.st11{fill:#F5B15A;stroke:#002E61;stroke-width:10;stroke-miterlimit:10;}
	.st12{fill:#E4D7CE;stroke:#002E61;stroke-width:10;stroke-miterlimit:10;}
	.st13{fill:none;stroke:#E4D7CE;stroke-width:5;stroke-linecap:round;stroke-linejoin:round;}
	.st14{fill:none;stroke:#002E61;stroke-width:2.37;stroke-linecap:round;stroke-linejoin:round;}
	.st15{fill:#E4D8CE;stroke:#002E61;stroke-width:10;stroke-miterlimit:10;}
	.st16{fill:#E4D8CE;stroke:#002E61;stroke-width:5;stroke-linecap:round;stroke-linejoin:round;}
</style>
<rect id="Rectángulo_36_1_" x="-2616.86" y="-4443.06" class="st0" width="1919.83" height="1080"/>
<g id="Grupo_201_1_" transform="translate(0 -7.083)">
	<g id="Grupo_10_1_" transform="translate(150 84.083)">
		<path id="Trazado_8_1_" class="st1" d="M-2614.63-3613.43c2.94-6.98,8.59-12.47,15.66-15.19c7.81-2.93,16.42-2.93,24.23,0
			c3.55,1.37,6.8,3.44,9.54,6.08c2.66,2.59,4.78,5.69,6.23,9.11c2.98,7.22,2.98,15.32,0,22.54c-1.45,3.42-3.56,6.52-6.23,9.11
			c-2.74,2.64-5.99,4.71-9.54,6.08c-7.81,2.93-16.42,2.93-24.23,0c-14.7-6-21.76-22.78-15.76-37.49
			C-2614.7-3613.27-2614.66-3613.35-2614.63-3613.43L-2614.63-3613.43z M-2600.88-3596.18c1.58,3.6,4.52,6.43,8.18,7.88
			c5.68,2.29,12.17,1.07,16.63-3.13c1.42-1.35,2.56-2.96,3.35-4.75c1.63-3.82,1.63-8.14,0-11.95c-0.79-1.79-1.93-3.4-3.35-4.75
			c-1.42-1.35-3.08-2.41-4.9-3.13c-3.77-1.49-7.96-1.49-11.73,0c-1.81,0.72-3.46,1.78-4.86,3.13c-1.4,1.36-2.53,2.97-3.31,4.75
			C-2602.51-3604.32-2602.51-3600-2600.88-3596.18L-2600.88-3596.18z"/>
		<rect id="Rectángulo_4_1_" x="-2593.64" y="-3557.39" class="st1" width="13.68" height="40.85"/>
		<g id="Grupo_6_1_" transform="translate(7.948 405.244)">
			
				<rect id="Rectángulo_5_1_" x="-2572" y="-4351.72" transform="matrix(0.7071 -0.7071 0.7071 0.7071 2324.957 -3076.822)" class="st1" width="40.85" height="13.68"/>
			<g id="Grupo_5_1_">
				<rect id="Rectángulo_6_1_" x="-2570.85" y="-4400.81" class="st1" width="98.18" height="13.68"/>
				<g id="Grupo_4_1_">
					<path id="Trazado_9_1_" class="st1" d="M-2603.05-4393.97c0.04-12.02-4.97-23.51-13.81-31.66v-17.43
						c27.11,16.48,35.73,51.81,19.26,78.92c-4.78,7.87-11.39,14.48-19.26,19.26v-17.44
						C-2608.02-4370.47-2603.02-4381.95-2603.05-4393.97z"/>
				</g>
			</g>
		</g>
		<g id="Grupo_9_1_" transform="translate(4.411)">
			<path id="Trazado_10_1_" class="st1" d="M-2578.31-4353.14c1.58,3.6,4.52,6.43,8.17,7.88c5.68,2.29,12.17,1.06,16.63-3.13
				c1.42-1.35,2.56-2.96,3.35-4.75c1.63-3.82,1.63-8.14,0-11.96c-0.79-1.79-1.93-3.4-3.35-4.75c-4.47-4.17-10.95-5.39-16.63-3.13
				c-1.81,0.72-3.46,1.78-4.86,3.13c-1.4,1.35-2.53,2.97-3.31,4.75C-2579.94-4361.28-2579.94-4356.96-2578.31-4353.14z"/>
			<g id="Grupo_7_1_" transform="translate(3.537 126.423)">
				<path id="Trazado_11_1_" class="st1" d="M-2567.77-4429.26c-12.02-0.04-23.5,4.97-31.65,13.81h-17.44
					c16.48-27.11,51.81-35.73,78.92-19.26c7.87,4.78,14.48,11.39,19.26,19.26h-17.44
					C-2544.27-4424.29-2555.75-4429.3-2567.77-4429.26z"/>
			</g>
			<g id="Grupo_8_1_">
				<path id="Trazado_12_1_" class="st1" d="M-2592.85-4443.06l-24.01,25.21l9.91,9.44l14.11-14.81l19.07,20.01l19.07-20.01
					l19.07,20.01l24.02-25.21l-9.9-9.44l-14.13,14.82l-19.07-20.01l-19.07,20.01L-2592.85-4443.06z"/>
			</g>
		</g>
	</g>
	<g id="Grupo_26_1_" transform="translate(1324 684.328)">
		
			<rect id="Rectángulo_5-2_1_" x="-2572" y="-4351.72" transform="matrix(0.7071 -0.7071 0.7071 0.7071 2324.957 -3076.822)" class="st1" width="40.85" height="13.68"/>
		<g id="Grupo_5-2_1_" transform="translate(0 0)">
			<rect id="Rectángulo_6-2_1_" x="-2570.85" y="-4400.81" class="st1" width="98.18" height="13.68"/>
			<g id="Grupo_4-2_1_">
				<path id="Trazado_9-2_1_" class="st1" d="M-2603.05-4393.97c0.04-12.02-4.97-23.5-13.81-31.65v-17.44
					c17.21,10.35,27.71,29,27.61,49.09c0.09,20.09-10.4,38.74-27.61,49.09v-17.44C-2608.02-4370.47-2603.02-4381.95-2603.05-4393.97
					z"/>
			</g>
		</g>
	</g>
	<g id="Grupo_35_1_" transform="translate(0 186)">
		<path id="Trazado_8-2_1_" class="st1" d="M-2064.95-4262.09c-2.94,6.98-8.59,12.47-15.66,15.19c-7.81,2.93-16.42,2.93-24.23,0
			c-3.55-1.37-6.8-3.44-9.54-6.08c-2.66-2.59-4.78-5.69-6.23-9.11c-2.98-7.22-2.98-15.32,0-22.54c1.45-3.42,3.56-6.52,6.23-9.11
			c2.74-2.64,5.99-4.71,9.54-6.08c7.81-2.93,16.42-2.93,24.23,0c14.7,6,21.76,22.78,15.76,37.49
			C-2064.89-4262.25-2064.92-4262.17-2064.95-4262.09L-2064.95-4262.09z M-2078.71-4279.34c-1.58-3.6-4.52-6.43-8.18-7.88
			c-5.68-2.29-12.17-1.07-16.63,3.13c-1.42,1.35-2.56,2.96-3.35,4.75c-1.63,3.82-1.63,8.14,0,11.95c0.79,1.79,1.93,3.4,3.35,4.75
			c1.42,1.35,3.08,2.41,4.9,3.13c3.77,1.49,7.96,1.49,11.73,0c1.81-0.72,3.46-1.78,4.86-3.13c1.4-1.36,2.53-2.97,3.31-4.75
			C-2077.07-4271.2-2077.07-4275.52-2078.71-4279.34L-2078.71-4279.34z"/>
		<rect id="Rectángulo_4-2_1_" x="-2099.62" y="-4358.98" class="st1" width="13.68" height="40.85"/>
	</g>
	<g id="Grupo_6-2_1_" transform="translate(592.19 791.365) rotate(180)">
		
			<rect id="Rectángulo_5-3_1_" x="2661.72" y="4534.41" transform="matrix(0.7071 -0.7071 0.7071 0.7071 -2425.5667 3226.6772)" class="st1" width="40.85" height="13.68"/>
		<g id="Grupo_5-3_1_">
			<rect id="Rectángulo_6-3_1_" x="2662.87" y="4485.31" class="st1" width="98.18" height="13.68"/>
			<g id="Grupo_4-3_1_">
				<path id="Trazado_9-3_1_" class="st1" d="M2630.67,4492.16c0.04-12.02-4.97-23.51-13.81-31.66v-17.43
					c27.11,16.48,35.73,51.81,19.26,78.92c-4.78,7.87-11.39,14.48-19.26,19.26v-17.44
					C2625.7,4515.66,2630.71,4504.17,2630.67,4492.16z"/>
			</g>
		</g>
	</g>
	<g id="Grupo_27_1_" transform="translate(1339.463 279.083)">
		<path id="Trazado_10-2_1_" class="st1" d="M-2578.31-4353.14c1.58,3.6,4.52,6.43,8.18,7.88c1.86,0.75,3.86,1.13,5.87,1.12
			c4,0.02,7.86-1.5,10.76-4.25c1.42-1.35,2.56-2.96,3.35-4.75c0.83-1.88,1.24-3.92,1.22-5.97c0.02-2.06-0.39-4.09-1.22-5.98
			c-0.79-1.79-1.93-3.4-3.35-4.75c-2.91-2.75-6.76-4.27-10.76-4.25c-2.01-0.01-4,0.37-5.87,1.11c-1.81,0.72-3.46,1.78-4.86,3.13
			c-1.4,1.36-2.53,2.97-3.31,4.75c-0.83,1.88-1.24,3.92-1.22,5.98C-2579.55-4357.07-2579.14-4355.03-2578.31-4353.14z"/>
		<g id="Grupo_7-2_1_" transform="translate(3.537 126.423)">
			<path id="Trazado_11-2_1_" class="st1" d="M-2567.77-4429.26c-12.02-0.04-23.5,4.97-31.65,13.81h-17.44
				c10.35-17.21,29-27.71,49.09-27.61c20.09-0.09,38.74,10.4,49.09,27.61h-17.44C-2544.27-4424.29-2555.75-4429.3-2567.77-4429.26z"
				/>
		</g>
		<g id="Grupo_8-2_1_">
			<path id="Trazado_12-2_1_" class="st1" d="M-2592.85-4443.06l-24.01,25.21l9.91,9.44l14.11-14.81l19.07,20.01l19.07-20.01
				l19.07,20.01l24.02-25.21l-9.9-9.44l-14.12,14.82l-19.07-20.02l-19.07,20.02L-2592.85-4443.06z"/>
		</g>
	</g>
	<g id="Grupo_25_1_" transform="translate(15.249)">
		<path id="Trazado_13_1_" class="st1" d="M-864.34-4262.09c-2.94,6.98-8.59,12.47-15.66,15.19c-7.81,2.93-16.42,2.93-24.23,0
			c-3.55-1.37-6.8-3.44-9.54-6.08c-2.66-2.59-4.78-5.69-6.23-9.11c-2.98-7.22-2.98-15.32,0-22.54c1.45-3.42,3.57-6.52,6.23-9.11
			c2.74-2.64,5.99-4.71,9.54-6.08c7.81-2.93,16.42-2.93,24.23,0c14.7,6,21.76,22.78,15.76,37.48
			C-864.27-4262.26-864.31-4262.18-864.34-4262.09L-864.34-4262.09z M-878.09-4279.34c-1.58-3.6-4.52-6.43-8.17-7.88
			c-3.77-1.49-7.97-1.49-11.74,0c-1.82,0.72-3.48,1.79-4.9,3.13c-1.42,1.35-2.56,2.96-3.35,4.75c-1.63,3.82-1.63,8.14,0,11.95
			c0.79,1.79,1.93,3.41,3.35,4.75c1.42,1.35,3.08,2.41,4.9,3.13c3.77,1.49,7.97,1.49,11.74,0c1.81-0.72,3.46-1.78,4.86-3.13
			c1.4-1.36,2.53-2.97,3.31-4.75C-876.46-4271.2-876.46-4275.52-878.09-4279.34z"/>
		<rect id="Rectángulo_7_1_" x="-899.01" y="-4358.98" class="st1" width="13.68" height="40.85"/>
		<g id="Grupo_13_1_" transform="translate(1602.612 487.904)">
			
				<rect id="Rectángulo_8_1_" x="-2558.38" y="-4430.63" transform="matrix(0.7071 -0.7071 0.7071 0.7071 2384.739 -3090.3025)" class="st1" width="40.85" height="13.68"/>
			<g id="Grupo_12_1_" transform="translate(0 19.278)">
				<rect id="Rectángulo_9_1_" x="-2616.86" y="-4400.81" class="st1" width="98.18" height="13.68"/>
				<g id="Grupo_11_1_" transform="translate(116.577)">
					<path id="Trazado_14_1_" class="st1" d="M-2603.05-4393.97c-0.04,12.02,4.97,23.5,13.81,31.65v17.44
						c-27.11-16.47-35.74-51.81-19.26-78.92c4.78-7.87,11.39-14.48,19.26-19.26v17.44
						C-2598.08-4417.48-2603.09-4405.99-2603.05-4393.97z"/>
				</g>
			</g>
		</g>
		<g id="Grupo_16_1_" transform="translate(1645.084 856.573)">
			<path id="Trazado_15_1_" class="st1" d="M-2550.16-4378.95c-1.58-3.6-4.52-6.43-8.17-7.88c-5.68-2.29-12.17-1.07-16.63,3.13
				c-1.42,1.35-2.56,2.96-3.35,4.75c-1.63,3.82-1.63,8.14,0,11.95c0.79,1.79,1.93,3.41,3.35,4.75c1.42,1.35,3.08,2.41,4.9,3.13
				c3.77,1.49,7.97,1.49,11.74,0c1.81-0.72,3.46-1.78,4.86-3.13c1.4-1.36,2.53-2.97,3.31-4.75
				C-2548.52-4370.81-2548.52-4375.13-2550.16-4378.95L-2550.16-4378.95z"/>
			<g id="Grupo_14_1_" transform="translate(3.537)">
				<path id="Trazado_16_1_" class="st1" d="M-2567.77-4429.26c12.02,0.04,23.5-4.97,31.65-13.81h17.44
					c-16.48,27.11-51.81,35.73-78.92,19.26c-7.87-4.78-14.48-11.39-19.26-19.26h17.44
					C-2591.27-4434.23-2579.79-4429.22-2567.77-4429.26z"/>
			</g>
			<g id="Grupo_15_1_" transform="translate(0 114.188)">
				<path id="Trazado_17_1_" class="st1" d="M-2535.62-4403.22l24.01-25.21l-9.91-9.44l-14.11,14.81l-19.07-20.01l-19.07,20.02
					l-19.07-20.01l-24.03,25.21l9.9,9.44l14.12-14.82l19.08,20.01l19.07-20.01L-2535.62-4403.22z"/>
			</g>
		</g>
	</g>
</g>
<rect id="Rectángulo_51" x="-2616.33" y="-3059.49" class="st2" width="1919.83" height="1080"/>
<g id="Grupo_203" transform="translate(0 -7.083)">
	<g id="Grupo_10" transform="translate(150 84.083)">
		<path id="Trazado_8" class="st3" d="M-2614.1-2229.85c2.94-6.98,8.59-12.47,15.66-15.19c7.81-2.93,16.42-2.93,24.23,0
			c3.55,1.37,6.8,3.44,9.54,6.08c2.66,2.59,4.78,5.69,6.23,9.11c2.98,7.22,2.98,15.32,0,22.54c-1.45,3.42-3.56,6.52-6.23,9.11
			c-2.74,2.64-5.99,4.71-9.54,6.08c-7.81,2.93-16.42,2.93-24.23,0c-14.7-6-21.76-22.78-15.76-37.49
			C-2614.17-2229.69-2614.14-2229.77-2614.1-2229.85L-2614.1-2229.85z M-2600.35-2212.6c1.58,3.6,4.52,6.43,8.18,7.88
			c5.68,2.29,12.17,1.07,16.63-3.13c1.42-1.35,2.56-2.96,3.35-4.75c1.63-3.82,1.63-8.14,0-11.95c-0.79-1.79-1.93-3.4-3.35-4.75
			c-1.42-1.35-3.08-2.41-4.9-3.13c-3.77-1.49-7.96-1.49-11.73,0c-1.81,0.72-3.46,1.78-4.86,3.13c-1.4,1.36-2.53,2.97-3.31,4.75
			C-2601.98-2220.74-2601.98-2216.42-2600.35-2212.6L-2600.35-2212.6z"/>
		<rect id="Rectángulo_4" x="-2593.11" y="-2173.81" class="st3" width="13.68" height="40.85"/>
		<g id="Grupo_6" transform="translate(7.948 405.244)">
			
				<rect id="Rectángulo_5" x="-2571.47" y="-2968.14" transform="matrix(0.7071 -0.7071 0.7071 0.7071 1346.7732 -2671.209)" class="st3" width="40.85" height="13.68"/>
			<g id="Grupo_5">
				<rect id="Rectángulo_6" x="-2570.33" y="-3017.24" class="st3" width="98.18" height="13.68"/>
				<g id="Grupo_4">
					<path id="Trazado_9" class="st3" d="M-2602.53-3010.39c0.04-12.02-4.97-23.51-13.81-31.66v-17.43
						c27.11,16.48,35.73,51.81,19.26,78.92c-4.78,7.87-11.39,14.48-19.26,19.26v-17.44
						C-2607.5-2986.89-2602.49-2998.37-2602.53-3010.39z"/>
				</g>
			</g>
		</g>
		<g id="Grupo_9" transform="translate(4.411)">
			<path id="Trazado_10" class="st3" d="M-2577.78-2969.57c1.58,3.6,4.52,6.43,8.18,7.88c5.68,2.29,12.17,1.06,16.63-3.13
				c1.42-1.35,2.56-2.96,3.35-4.75c1.63-3.82,1.63-8.14,0-11.96c-0.79-1.79-1.93-3.4-3.35-4.75c-4.48-4.17-10.95-5.39-16.63-3.13
				c-1.81,0.72-3.46,1.78-4.86,3.13c-1.4,1.35-2.53,2.97-3.31,4.75C-2579.42-2977.7-2579.42-2973.38-2577.78-2969.57z"/>
			<g id="Grupo_7" transform="translate(3.537 126.423)">
				<path id="Trazado_11" class="st3" d="M-2567.24-3045.68c-12.02-0.04-23.5,4.97-31.65,13.81h-17.44
					c16.48-27.11,51.81-35.73,78.92-19.26c7.87,4.78,14.48,11.39,19.26,19.26h-17.44
					C-2543.74-3040.71-2555.22-3045.72-2567.24-3045.68z"/>
			</g>
			<g id="Grupo_8">
				<path id="Trazado_12" class="st3" d="M-2592.32-3059.49l-24.01,25.21l9.91,9.44l14.11-14.81l19.07,20.01l19.07-20.01
					l19.07,20.01l24.02-25.21l-9.9-9.44l-14.13,14.82l-19.07-20.01l-19.07,20.01L-2592.32-3059.49z"/>
			</g>
		</g>
	</g>
	<g id="Grupo_26" transform="translate(1324 684.328)">
		
			<rect id="Rectángulo_5-2" x="-2571.47" y="-2968.14" transform="matrix(0.7071 -0.7071 0.7071 0.7071 1346.7732 -2671.209)" class="st3" width="40.85" height="13.68"/>
		<g id="Grupo_5-2" transform="translate(0 0)">
			<rect id="Rectángulo_6-2" x="-2570.33" y="-3017.24" class="st3" width="98.18" height="13.68"/>
			<g id="Grupo_4-2">
				<path id="Trazado_9-2" class="st3" d="M-2602.53-3010.39c0.04-12.02-4.97-23.5-13.81-31.65v-17.44
					c17.21,10.35,27.71,29,27.61,49.09c0.09,20.09-10.4,38.74-27.61,49.09v-17.44C-2607.5-2986.89-2602.49-2998.37-2602.53-3010.39z
					"/>
			</g>
		</g>
	</g>
	<g id="Grupo_35" transform="translate(0 186)">
		<path id="Trazado_8-2" class="st3" d="M-2064.43-2878.51c-2.94,6.98-8.59,12.47-15.66,15.19c-7.81,2.93-16.42,2.93-24.23,0
			c-3.55-1.37-6.8-3.44-9.54-6.08c-2.66-2.59-4.78-5.69-6.23-9.11c-2.98-7.22-2.98-15.32,0-22.54c1.45-3.42,3.57-6.52,6.23-9.11
			c2.74-2.64,5.99-4.71,9.54-6.09c7.81-2.93,16.42-2.93,24.23,0c14.7,6,21.76,22.78,15.76,37.49
			C-2064.36-2878.67-2064.39-2878.59-2064.43-2878.51L-2064.43-2878.51z M-2078.18-2895.76c-1.58-3.6-4.52-6.43-8.17-7.88
			c-5.68-2.29-12.17-1.07-16.63,3.13c-1.42,1.35-2.56,2.96-3.35,4.75c-1.63,3.82-1.63,8.14,0,11.95c0.79,1.79,1.93,3.41,3.35,4.75
			c1.42,1.35,3.08,2.41,4.9,3.13c3.77,1.49,7.97,1.49,11.74,0c1.81-0.72,3.46-1.78,4.86-3.13c1.4-1.36,2.53-2.97,3.31-4.75
			C-2076.55-2887.62-2076.55-2891.94-2078.18-2895.76L-2078.18-2895.76z"/>
		<rect id="Rectángulo_4-2" x="-2099.1" y="-2975.4" class="st3" width="13.68" height="40.85"/>
	</g>
	<g id="Grupo_6-2" transform="translate(592.19 791.365) rotate(180)">
		
			<rect id="Rectángulo_5-3" x="2661.2" y="3150.83" transform="matrix(0.7071 -0.7071 0.7071 0.7071 -1447.3802 2821.0615)" class="st3" width="40.85" height="13.68"/>
		<g id="Grupo_5-3">
			<rect id="Rectángulo_6-3" x="2662.34" y="3101.74" class="st3" width="98.18" height="13.68"/>
			<g id="Grupo_4-3">
				<path id="Trazado_9-3" class="st3" d="M2630.14,3108.58c0.04-12.02-4.97-23.51-13.81-31.66v-17.43
					c27.11,16.48,35.73,51.81,19.26,78.92c-4.78,7.87-11.39,14.48-19.26,19.26v-17.44
					C2625.17,3132.08,2630.18,3120.6,2630.14,3108.58z"/>
			</g>
		</g>
	</g>
	<g id="Grupo_27" transform="translate(1339.463 279.083)">
		<path id="Trazado_10-2" class="st3" d="M-2577.78-2969.57c1.58,3.6,4.52,6.43,8.18,7.88c1.87,0.75,3.86,1.13,5.87,1.12
			c4,0.02,7.86-1.5,10.76-4.25c1.42-1.35,2.56-2.96,3.35-4.75c0.83-1.88,1.24-3.92,1.22-5.97c0.02-2.06-0.39-4.09-1.22-5.98
			c-0.79-1.79-1.93-3.4-3.35-4.75c-2.91-2.75-6.76-4.27-10.77-4.25c-2.01-0.01-4,0.37-5.87,1.11c-1.81,0.72-3.46,1.78-4.86,3.13
			c-1.4,1.36-2.53,2.97-3.31,4.75c-0.83,1.88-1.24,3.92-1.22,5.98C-2579.03-2973.49-2578.61-2971.45-2577.78-2969.57z"/>
		<g id="Grupo_7-2" transform="translate(3.537 126.423)">
			<path id="Trazado_11-2" class="st3" d="M-2567.24-3045.68c-12.02-0.04-23.5,4.97-31.65,13.81h-17.44
				c10.35-17.21,29-27.71,49.09-27.61c20.09-0.09,38.74,10.4,49.09,27.61h-17.44C-2543.74-3040.71-2555.22-3045.72-2567.24-3045.68z
				"/>
		</g>
		<g id="Grupo_8-2">
			<path id="Trazado_12-2" class="st3" d="M-2592.32-3059.49l-24.01,25.21l9.91,9.44l14.11-14.81l19.07,20.01l19.07-20.01
				l19.07,20.01l24.02-25.21l-9.9-9.44l-14.12,14.82l-19.07-20.02l-19.07,20.02L-2592.32-3059.49z"/>
		</g>
	</g>
	<g id="Grupo_25" transform="translate(15.249)">
		<path id="Trazado_13" class="st3" d="M-863.82-2878.51c-2.94,6.98-8.59,12.47-15.66,15.19c-7.81,2.93-16.42,2.93-24.23,0
			c-3.55-1.37-6.8-3.44-9.54-6.08c-2.66-2.59-4.78-5.69-6.23-9.11c-2.98-7.22-2.98-15.32,0-22.54c1.45-3.42,3.57-6.52,6.23-9.11
			c2.74-2.64,5.99-4.71,9.54-6.08c7.81-2.93,16.42-2.93,24.23,0c14.7,6,21.76,22.78,15.76,37.48
			C-863.75-2878.68-863.78-2878.6-863.82-2878.51L-863.82-2878.51z M-877.57-2895.76c-1.58-3.6-4.52-6.43-8.17-7.88
			c-3.77-1.49-7.97-1.49-11.74,0c-1.82,0.72-3.48,1.79-4.9,3.13c-1.42,1.35-2.56,2.96-3.35,4.75c-1.63,3.82-1.63,8.14,0,11.95
			c0.79,1.79,1.93,3.41,3.35,4.75c1.42,1.35,3.08,2.41,4.9,3.13c3.77,1.49,7.97,1.49,11.74,0c1.81-0.72,3.46-1.78,4.86-3.13
			c1.4-1.36,2.53-2.97,3.31-4.75C-875.94-2887.62-875.94-2891.94-877.57-2895.76z"/>
		<rect id="Rectángulo_7" x="-898.49" y="-2975.4" class="st3" width="13.68" height="40.85"/>
		<g id="Grupo_13" transform="translate(1602.612 487.904)">
			
				<rect id="Rectángulo_8" x="-2557.85" y="-3047.05" transform="matrix(0.7071 -0.7071 0.7071 0.7071 1406.5552 -2684.6895)" class="st3" width="40.85" height="13.68"/>
			<g id="Grupo_12" transform="translate(0 19.278)">
				<rect id="Rectángulo_9" x="-2616.33" y="-3017.23" class="st3" width="98.18" height="13.68"/>
				<g id="Grupo_11" transform="translate(116.577)">
					<path id="Trazado_14" class="st3" d="M-2602.53-3010.39c-0.04,12.02,4.97,23.5,13.81,31.65v17.44
						c-27.11-16.47-35.74-51.81-19.26-78.92c4.78-7.87,11.39-14.48,19.26-19.26v17.44
						C-2597.56-3033.9-2602.57-3022.41-2602.53-3010.39z"/>
				</g>
			</g>
		</g>
		<g id="Grupo_16" transform="translate(1645.084 856.573)">
			<path id="Trazado_15" class="st3" d="M-2549.63-2995.37c-1.58-3.6-4.52-6.43-8.17-7.88c-5.68-2.29-12.17-1.07-16.63,3.13
				c-1.42,1.35-2.56,2.96-3.35,4.75c-1.63,3.82-1.63,8.14,0,11.95c0.79,1.79,1.93,3.41,3.35,4.75c1.42,1.35,3.08,2.41,4.9,3.13
				c3.77,1.49,7.97,1.49,11.74,0c1.81-0.72,3.46-1.78,4.86-3.13c1.4-1.36,2.53-2.97,3.31-4.75
				C-2547.99-2987.23-2547.99-2991.55-2549.63-2995.37L-2549.63-2995.37z"/>
			<g id="Grupo_14" transform="translate(3.537)">
				<path id="Trazado_16" class="st3" d="M-2567.25-3045.68c12.02,0.04,23.5-4.97,31.65-13.81h17.44
					c-16.48,27.11-51.81,35.73-78.92,19.26c-7.87-4.78-14.48-11.39-19.26-19.26h17.44
					C-2590.75-3050.65-2579.26-3045.64-2567.25-3045.68z"/>
			</g>
			<g id="Grupo_15" transform="translate(0 114.188)">
				<path id="Trazado_17" class="st3" d="M-2535.09-3019.64l24.01-25.21l-9.91-9.44l-14.11,14.81l-19.07-20.01l-19.07,20.02
					l-19.07-20.01l-24.03,25.21l9.9,9.44l14.12-14.82l19.08,20.01l19.07-20.01L-2535.09-3019.64z"/>
			</g>
		</g>
	</g>
</g>
<rect id="Rectángulo_32_1_" x="-2617.33" y="-1666.49" class="st4" width="1919.83" height="1080"/>
<g id="Grupo_199_1_" transform="translate(0 -7.083)">
	<g id="Grupo_10_3_" transform="translate(150 84.083)">
		<path id="Trazado_8_3_" class="st5" d="M-2615.1-836.85c2.94-6.98,8.59-12.47,15.66-15.19c7.81-2.93,16.42-2.93,24.23,0
			c3.55,1.37,6.8,3.44,9.54,6.08c2.66,2.59,4.78,5.69,6.23,9.11c2.98,7.22,2.98,15.32,0,22.54c-1.45,3.42-3.56,6.52-6.23,9.11
			c-2.74,2.64-5.99,4.71-9.54,6.09c-7.81,2.93-16.42,2.93-24.23,0c-14.7-6-21.76-22.78-15.76-37.49
			C-2615.17-836.69-2615.14-836.77-2615.1-836.85L-2615.1-836.85z M-2601.35-819.6c1.58,3.6,4.52,6.43,8.18,7.88
			c5.68,2.29,12.17,1.07,16.63-3.13c1.42-1.35,2.56-2.96,3.35-4.75c1.63-3.82,1.63-8.14,0-11.95c-0.79-1.79-1.93-3.4-3.35-4.75
			c-1.42-1.35-3.08-2.41-4.9-3.13c-3.77-1.49-7.96-1.49-11.73,0c-1.81,0.72-3.46,1.78-4.86,3.13c-1.4,1.36-2.53,2.97-3.31,4.75
			C-2602.98-827.74-2602.98-823.42-2601.35-819.6L-2601.35-819.6z"/>
		<rect id="Rectángulo_4_3_" x="-2594.11" y="-780.81" class="st5" width="13.68" height="40.85"/>
		<g id="Grupo_6_3_" transform="translate(7.948 405.244)">
			
				<rect id="Rectángulo_5_3_" x="-2572.47" y="-1575.14" transform="matrix(0.7071 -0.7071 0.7071 0.7071 361.4806 -2263.9158)" class="st5" width="40.85" height="13.68"/>
			<g id="Grupo_5_3_">
				<rect id="Rectángulo_6_3_" x="-2571.33" y="-1624.24" class="st5" width="98.18" height="13.68"/>
				<g id="Grupo_4_3_">
					<path id="Trazado_9_3_" class="st5" d="M-2603.53-1617.39c0.04-12.02-4.97-23.51-13.81-31.66v-17.43
						c27.11,16.48,35.73,51.81,19.26,78.92c-4.78,7.87-11.39,14.48-19.26,19.26v-17.44
						C-2608.5-1593.89-2603.49-1605.37-2603.53-1617.39z"/>
				</g>
			</g>
		</g>
		<g id="Grupo_9_3_" transform="translate(4.411)">
			<path id="Trazado_10_3_" class="st5" d="M-2578.78-1576.57c1.58,3.6,4.52,6.43,8.18,7.88c5.68,2.29,12.17,1.06,16.63-3.13
				c1.42-1.35,2.56-2.96,3.35-4.75c1.63-3.82,1.63-8.14,0-11.95c-0.79-1.79-1.93-3.4-3.35-4.75c-4.48-4.17-10.95-5.39-16.63-3.13
				c-1.81,0.72-3.46,1.78-4.86,3.13c-1.4,1.36-2.53,2.97-3.31,4.75C-2580.42-1584.7-2580.42-1580.38-2578.78-1576.57z"/>
			<g id="Grupo_7_3_" transform="translate(3.537 126.423)">
				<path id="Trazado_11_3_" class="st5" d="M-2568.24-1652.68c-12.02-0.04-23.5,4.97-31.65,13.81h-17.44
					c16.48-27.11,51.81-35.73,78.92-19.26c7.87,4.78,14.48,11.39,19.26,19.26h-17.44
					C-2544.74-1647.71-2556.22-1652.72-2568.24-1652.68z"/>
			</g>
			<g id="Grupo_8_3_">
				<path id="Trazado_12_3_" class="st5" d="M-2593.32-1666.49l-24.01,25.21l9.91,9.44l14.11-14.81l19.07,20.01l19.07-20.01
					l19.07,20.01l24.02-25.21l-9.9-9.44l-14.13,14.82l-19.07-20.01l-19.07,20.01L-2593.32-1666.49z"/>
			</g>
		</g>
	</g>
	<g id="Grupo_26_3_" transform="translate(1324 684.328)">
		
			<rect id="Rectángulo_5-2_3_" x="-2572.47" y="-1575.14" transform="matrix(0.7071 -0.7071 0.7071 0.7071 361.4806 -2263.9158)" class="st5" width="40.85" height="13.68"/>
		<g id="Grupo_5-2_3_" transform="translate(0 0)">
			<rect id="Rectángulo_6-2_3_" x="-2571.33" y="-1624.24" class="st5" width="98.18" height="13.68"/>
			<g id="Grupo_4-2_3_">
				<path id="Trazado_9-2_3_" class="st5" d="M-2603.53-1617.39c0.04-12.02-4.97-23.5-13.81-31.65v-17.44
					c17.21,10.35,27.71,29,27.61,49.09c0.09,20.09-10.4,38.74-27.61,49.09v-17.44C-2608.5-1593.89-2603.49-1605.37-2603.53-1617.39z
					"/>
			</g>
		</g>
	</g>
	<g id="Grupo_35_3_" transform="translate(0 186)">
		<path id="Trazado_8-2_3_" class="st5" d="M-2065.43-1485.51c-2.94,6.98-8.59,12.47-15.66,15.19c-7.81,2.93-16.42,2.93-24.23,0
			c-3.55-1.37-6.8-3.44-9.54-6.08c-2.66-2.59-4.78-5.69-6.23-9.11c-2.98-7.22-2.98-15.32,0-22.54c1.45-3.42,3.57-6.52,6.23-9.11
			c2.74-2.64,5.99-4.71,9.54-6.08c7.81-2.93,16.42-2.93,24.23,0c14.7,6,21.76,22.78,15.76,37.49
			C-2065.36-1485.67-2065.39-1485.59-2065.43-1485.51L-2065.43-1485.51z M-2079.18-1502.76c-1.58-3.6-4.52-6.43-8.17-7.88
			c-5.68-2.29-12.17-1.07-16.63,3.13c-1.42,1.35-2.56,2.96-3.35,4.75c-1.63,3.82-1.63,8.14,0,11.95c0.79,1.79,1.93,3.4,3.35,4.75
			c1.42,1.35,3.08,2.41,4.9,3.13c3.77,1.49,7.97,1.49,11.74,0c1.81-0.72,3.46-1.78,4.86-3.13c1.4-1.36,2.53-2.97,3.31-4.75
			C-2077.55-1494.62-2077.55-1498.94-2079.18-1502.76L-2079.18-1502.76z"/>
		<rect id="Rectángulo_4-2_3_" x="-2100.1" y="-1582.4" class="st5" width="13.68" height="40.85"/>
	</g>
	<g id="Grupo_6-2_3_" transform="translate(592.19 791.365) rotate(180)">
		
			<rect id="Rectángulo_5-3_3_" x="2662.2" y="1757.83" transform="matrix(0.7071 -0.7071 0.7071 0.7071 -462.0851 2413.7659)" class="st5" width="40.85" height="13.68"/>
		<g id="Grupo_5-3_3_">
			<rect id="Rectángulo_6-3_3_" x="2663.34" y="1708.74" class="st5" width="98.18" height="13.68"/>
			<g id="Grupo_4-3_3_">
				<path id="Trazado_9-3_3_" class="st5" d="M2631.14,1715.58c0.04-12.02-4.97-23.51-13.81-31.66v-17.43
					c27.11,16.48,35.73,51.81,19.26,78.92c-4.78,7.87-11.39,14.48-19.26,19.26v-17.44
					C2626.17,1739.08,2631.18,1727.6,2631.14,1715.58z"/>
			</g>
		</g>
	</g>
	<g id="Grupo_27_3_" transform="translate(1339.463 279.083)">
		<path id="Trazado_10-2_3_" class="st5" d="M-2578.78-1576.57c1.58,3.6,4.52,6.43,8.18,7.88c1.87,0.75,3.86,1.13,5.87,1.12
			c4,0.02,7.86-1.5,10.76-4.25c1.42-1.35,2.56-2.96,3.35-4.75c0.83-1.88,1.24-3.92,1.22-5.97c0.02-2.06-0.39-4.09-1.22-5.98
			c-0.79-1.79-1.93-3.4-3.35-4.75c-2.91-2.75-6.76-4.27-10.77-4.25c-2.01-0.01-4,0.37-5.87,1.11c-1.81,0.72-3.46,1.78-4.86,3.13
			c-1.4,1.36-2.53,2.97-3.31,4.75c-0.83,1.88-1.24,3.92-1.22,5.98C-2580.03-1580.49-2579.61-1578.45-2578.78-1576.57z"/>
		<g id="Grupo_7-2_3_" transform="translate(3.537 126.423)">
			<path id="Trazado_11-2_3_" class="st5" d="M-2568.24-1652.68c-12.02-0.04-23.5,4.97-31.65,13.81h-17.44
				c10.35-17.21,29-27.71,49.09-27.61c20.09-0.09,38.74,10.4,49.09,27.61h-17.44C-2544.74-1647.71-2556.22-1652.72-2568.24-1652.68z
				"/>
		</g>
		<g id="Grupo_8-2_3_">
			<path id="Trazado_12-2_3_" class="st5" d="M-2593.32-1666.49l-24.01,25.21l9.91,9.44l14.11-14.81l19.07,20.01l19.07-20.01
				l19.07,20.01l24.02-25.21l-9.9-9.44l-14.12,14.82l-19.07-20.02l-19.07,20.02L-2593.32-1666.49z"/>
		</g>
	</g>
	<g id="Grupo_25_3_" transform="translate(15.249)">
		<path id="Trazado_13_3_" class="st5" d="M-864.82-1485.51c-2.94,6.98-8.59,12.47-15.66,15.19c-7.81,2.93-16.42,2.93-24.23,0
			c-3.55-1.37-6.8-3.44-9.54-6.08c-2.66-2.59-4.78-5.69-6.23-9.11c-2.98-7.22-2.98-15.32,0-22.54c1.45-3.42,3.57-6.52,6.23-9.11
			c2.74-2.64,5.99-4.71,9.54-6.09c7.81-2.93,16.42-2.93,24.23,0c14.7,6,21.76,22.78,15.76,37.48
			C-864.75-1485.68-864.78-1485.6-864.82-1485.51L-864.82-1485.51z M-878.57-1502.76c-1.58-3.6-4.52-6.43-8.17-7.88
			c-3.77-1.49-7.97-1.49-11.74,0c-1.82,0.72-3.48,1.79-4.9,3.13c-1.42,1.35-2.56,2.96-3.35,4.75c-1.63,3.82-1.63,8.14,0,11.95
			c0.79,1.79,1.93,3.41,3.35,4.75c1.42,1.35,3.08,2.41,4.9,3.13c3.77,1.49,7.97,1.49,11.74,0c1.81-0.72,3.46-1.78,4.86-3.13
			c1.4-1.36,2.53-2.97,3.31-4.75C-876.94-1494.62-876.94-1498.94-878.57-1502.76z"/>
		<rect id="Rectángulo_7_3_" x="-899.49" y="-1582.4" class="st5" width="13.68" height="40.85"/>
		<g id="Grupo_13_3_" transform="translate(1602.612 487.904)">
			
				<rect id="Rectángulo_8_3_" x="-2558.85" y="-1654.05" transform="matrix(0.7071 -0.7071 0.7071 0.7071 421.2625 -2277.3962)" class="st5" width="40.85" height="13.68"/>
			<g id="Grupo_12_3_" transform="translate(0 19.278)">
				<rect id="Rectángulo_9_3_" x="-2617.33" y="-1624.23" class="st5" width="98.18" height="13.68"/>
				<g id="Grupo_11_3_" transform="translate(116.577)">
					<path id="Trazado_14_3_" class="st5" d="M-2603.53-1617.39c-0.04,12.02,4.97,23.5,13.81,31.65v17.44
						c-27.11-16.47-35.74-51.81-19.26-78.92c4.78-7.87,11.39-14.48,19.26-19.26v17.44
						C-2598.56-1640.9-2603.57-1629.41-2603.53-1617.39z"/>
				</g>
			</g>
		</g>
		<g id="Grupo_16_3_" transform="translate(1645.084 856.573)">
			<path id="Trazado_15_3_" class="st5" d="M-2550.63-1602.37c-1.58-3.6-4.52-6.43-8.17-7.88c-5.68-2.29-12.17-1.07-16.63,3.13
				c-1.42,1.35-2.56,2.96-3.35,4.75c-1.63,3.82-1.63,8.14,0,11.95c0.79,1.79,1.93,3.41,3.35,4.75c1.42,1.35,3.08,2.41,4.9,3.13
				c3.77,1.49,7.97,1.49,11.74,0c1.81-0.72,3.46-1.78,4.86-3.13c1.4-1.36,2.53-2.97,3.31-4.75
				C-2548.99-1594.23-2548.99-1598.55-2550.63-1602.37L-2550.63-1602.37z"/>
			<g id="Grupo_14_3_" transform="translate(3.537)">
				<path id="Trazado_16_3_" class="st5" d="M-2568.25-1652.68c12.02,0.04,23.5-4.97,31.65-13.81h17.44
					c-16.48,27.11-51.81,35.73-78.92,19.26c-7.87-4.78-14.48-11.39-19.26-19.26h17.44
					C-2591.75-1657.65-2580.26-1652.64-2568.25-1652.68z"/>
			</g>
			<g id="Grupo_15_3_" transform="translate(0 114.188)">
				<path id="Trazado_17_3_" class="st5" d="M-2536.09-1626.64l24.01-25.21l-9.91-9.44l-14.11,14.81l-19.07-20.01l-19.07,20.02
					l-19.07-20.01l-24.03,25.21l9.9,9.44l14.12-14.82l19.08,20.01l19.07-20.01L-2536.09-1626.64z"/>
			</g>
		</g>
	</g>
</g>
<rect id="Rectángulo_3" x="-2616.62" y="-297.33" class="st6" width="1920.4" height="1080"/>
<g id="Grupo_196">
	<g id="Grupo_10_2_" transform="translate(150 84.083)">
		<path id="Trazado_8_2_" class="st7" d="M-2614.39,532.31c2.94-6.98,8.59-12.47,15.66-15.19c7.81-2.93,16.42-2.93,24.23,0
			c3.55,1.37,6.8,3.44,9.54,6.08c2.66,2.59,4.78,5.69,6.23,9.11c2.98,7.22,2.98,15.32,0,22.54c-1.45,3.42-3.57,6.52-6.23,9.11
			c-2.74,2.64-5.99,4.71-9.54,6.09c-7.81,2.93-16.42,2.93-24.23,0c-14.7-6-21.76-22.78-15.76-37.49
			C-2614.46,532.47-2614.42,532.39-2614.39,532.31L-2614.39,532.31z M-2600.64,549.56c1.58,3.6,4.52,6.43,8.18,7.88
			c5.68,2.29,12.17,1.07,16.63-3.13c1.42-1.35,2.56-2.96,3.35-4.75c1.63-3.82,1.63-8.14,0-11.95c-0.79-1.79-1.93-3.4-3.35-4.75
			c-1.42-1.35-3.08-2.41-4.9-3.13c-3.77-1.49-7.97-1.49-11.74,0c-1.81,0.72-3.46,1.78-4.86,3.13c-1.4,1.36-2.53,2.97-3.31,4.75
			C-2602.27,541.42-2602.27,545.74-2600.64,549.56L-2600.64,549.56z"/>
		<rect id="Rectángulo_4_2_" x="-2593.4" y="588.35" class="st7" width="13.68" height="40.85"/>
		<g id="Grupo_6_2_" transform="translate(7.948 405.244)">
			
				<rect id="Rectángulo_5_2_" x="-2571.76" y="-205.99" transform="matrix(0.7071 -0.7071 0.7071 0.7071 -606.4508 -1862.3932)" class="st7" width="40.85" height="13.68"/>
			<g id="Grupo_5_2_">
				<rect id="Rectángulo_6_2_" x="-2570.61" y="-255.08" class="st7" width="98.18" height="13.68"/>
				<g id="Grupo_4_2_">
					<path id="Trazado_9_2_" class="st7" d="M-2602.81-248.24c0.04-12.02-4.97-23.51-13.81-31.66v-17.43
						c27.11,16.48,35.73,51.81,19.26,78.92c-4.78,7.87-11.39,14.48-19.26,19.26v-17.44
						C-2607.78-224.73-2602.77-236.22-2602.81-248.24z"/>
				</g>
			</g>
		</g>
		<g id="Grupo_9_2_" transform="translate(4.411)">
			<path id="Trazado_10_2_" class="st7" d="M-2578.07-207.41c1.58,3.6,4.52,6.43,8.18,7.88c5.68,2.29,12.17,1.06,16.63-3.13
				c1.42-1.35,2.56-2.96,3.35-4.75c1.63-3.82,1.63-8.14,0-11.96c-0.79-1.79-1.93-3.4-3.35-4.75c-4.48-4.17-10.95-5.39-16.63-3.13
				c-1.81,0.72-3.46,1.78-4.86,3.13c-1.4,1.36-2.53,2.97-3.31,4.75C-2579.7-215.54-2579.7-211.23-2578.07-207.41z"/>
			<g id="Grupo_7_2_" transform="translate(3.537 126.423)">
				<path id="Trazado_11_2_" class="st7" d="M-2567.53-283.52c-12.02-0.04-23.5,4.97-31.65,13.81h-17.44
					c16.48-27.11,51.81-35.73,78.92-19.26c7.87,4.78,14.48,11.39,19.26,19.26h-17.44C-2544.02-278.55-2555.51-283.56-2567.53-283.52
					z"/>
			</g>
			<g id="Grupo_8_2_">
				<path id="Trazado_12_2_" class="st7" d="M-2592.6-297.33l-24.02,25.21l9.91,9.44l14.11-14.81l19.07,20.01l19.07-20.01
					l19.07,20.01l24.03-25.21l-9.9-9.44l-14.13,14.82l-19.07-20.01l-19.07,20.01L-2592.6-297.33z"/>
			</g>
		</g>
	</g>
	<g id="Grupo_26_2_" transform="translate(1324 684.328)">
		
			<rect id="Rectángulo_5-2_2_" x="-2571.76" y="-205.99" transform="matrix(0.7071 -0.7071 0.7071 0.7071 -606.4508 -1862.3932)" class="st7" width="40.85" height="13.68"/>
		<g id="Grupo_5-2_2_" transform="translate(0 0)">
			<rect id="Rectángulo_6-2_2_" x="-2570.61" y="-255.08" class="st7" width="98.18" height="13.68"/>
			<g id="Grupo_4-2_2_">
				<path id="Trazado_9-2_2_" class="st7" d="M-2602.81-248.24c0.04-12.02-4.97-23.5-13.81-31.65v-17.44
					c17.21,10.35,27.71,29,27.61,49.09c0.09,20.09-10.4,38.74-27.61,49.09v-17.44C-2607.78-224.73-2602.77-236.22-2602.81-248.24z"
					/>
			</g>
		</g>
	</g>
	<g id="Grupo_35_2_" transform="translate(0 186)">
		<path id="Trazado_8-2_2_" class="st7" d="M-2064.71-116.35c-2.94,6.98-8.59,12.47-15.66,15.19c-7.81,2.93-16.42,2.93-24.23,0
			c-3.55-1.37-6.8-3.44-9.54-6.08c-2.66-2.59-4.78-5.69-6.23-9.11c-2.98-7.22-2.98-15.32,0-22.54c1.45-3.42,3.57-6.52,6.23-9.11
			c2.74-2.64,5.99-4.71,9.54-6.09c7.81-2.93,16.42-2.93,24.23,0c14.7,6,21.76,22.78,15.76,37.49
			C-2064.64-116.52-2064.68-116.44-2064.71-116.35L-2064.71-116.35z M-2078.46-133.6c-1.58-3.6-4.52-6.43-8.18-7.88
			c-5.68-2.29-12.17-1.07-16.63,3.13c-1.42,1.35-2.56,2.96-3.35,4.75c-1.63,3.82-1.63,8.14,0,11.95c0.79,1.79,1.93,3.4,3.35,4.75
			c1.42,1.35,3.08,2.41,4.9,3.13c3.77,1.49,7.97,1.49,11.74,0c1.81-0.72,3.46-1.78,4.86-3.13c1.4-1.36,2.53-2.97,3.31-4.75
			C-2076.83-125.47-2076.83-129.78-2078.46-133.6L-2078.46-133.6z"/>
		<rect id="Rectángulo_4-2_2_" x="-2099.38" y="-213.24" class="st7" width="13.68" height="40.85"/>
	</g>
	<g id="Grupo_6-2_2_" transform="translate(592.19 791.365) rotate(180)">
		
			<rect id="Rectángulo_5-3_2_" x="2661.48" y="388.67" transform="matrix(0.7071 -0.7071 0.7071 0.7071 505.8488 2012.2408)" class="st7" width="40.85" height="13.68"/>
		<g id="Grupo_5-3_2_">
			<rect id="Rectángulo_6-3_2_" x="2662.63" y="339.58" class="st7" width="98.18" height="13.68"/>
			<g id="Grupo_4-3_2_">
				<path id="Trazado_9-3_2_" class="st7" d="M2630.43,346.42c0.04-12.02-4.97-23.51-13.81-31.66v-17.43
					c27.11,16.48,35.73,51.81,19.26,78.92c-4.78,7.87-11.39,14.48-19.26,19.26v-17.44C2625.45,369.92,2630.46,358.44,2630.43,346.42
					z"/>
			</g>
		</g>
	</g>
	<g id="Grupo_27_2_" transform="translate(1339.463 279.083)">
		<path id="Trazado_10-2_2_" class="st7" d="M-2578.07-207.41c1.58,3.6,4.52,6.43,8.18,7.88c1.87,0.75,3.86,1.13,5.87,1.12
			c4,0.02,7.86-1.5,10.77-4.25c1.42-1.35,2.56-2.96,3.35-4.75c0.83-1.88,1.24-3.92,1.22-5.97c0.02-2.06-0.39-4.09-1.22-5.98
			c-0.79-1.79-1.93-3.4-3.35-4.75c-2.91-2.75-6.76-4.27-10.77-4.25c-2.01-0.01-4,0.37-5.87,1.12c-1.81,0.72-3.46,1.78-4.86,3.13
			c-1.4,1.36-2.53,2.97-3.31,4.75c-0.83,1.88-1.24,3.92-1.22,5.98C-2579.31-211.33-2578.9-209.29-2578.07-207.41z"/>
		<g id="Grupo_7-2_2_" transform="translate(3.537 126.423)">
			<path id="Trazado_11-2_2_" class="st7" d="M-2567.53-283.52c-12.02-0.04-23.5,4.97-31.65,13.81h-17.44
				c10.35-17.21,29-27.71,49.09-27.61c20.09-0.09,38.74,10.4,49.09,27.61h-17.44C-2544.02-278.55-2555.51-283.56-2567.53-283.52z"/>
		</g>
		<g id="Grupo_8-2_2_">
			<path id="Trazado_12-2_2_" class="st7" d="M-2592.6-297.33l-24.02,25.21l9.91,9.44l14.11-14.81l19.07,20.01l19.07-20.01
				l19.07,20.01l24.03-25.21l-9.9-9.44l-14.12,14.82l-19.07-20.02l-19.07,20.02L-2592.6-297.33z"/>
		</g>
	</g>
	<g id="Grupo_25_2_" transform="translate(15.249)">
		<path id="Trazado_13_2_" class="st7" d="M-864.1-116.35c-2.94,6.98-8.59,12.47-15.66,15.19c-7.81,2.93-16.42,2.93-24.23,0
			c-3.55-1.37-6.8-3.44-9.54-6.08c-2.66-2.59-4.78-5.69-6.23-9.11c-2.98-7.22-2.98-15.32,0-22.54c1.45-3.42,3.57-6.52,6.23-9.11
			c2.74-2.64,5.99-4.71,9.54-6.08c7.81-2.93,16.42-2.93,24.23,0c14.7,6,21.76,22.78,15.76,37.48
			C-864.03-116.52-864.06-116.44-864.1-116.35L-864.1-116.35z M-877.85-133.6c-1.58-3.6-4.52-6.43-8.17-7.88
			c-3.77-1.49-7.97-1.49-11.74,0c-1.82,0.72-3.48,1.79-4.9,3.13c-1.42,1.35-2.56,2.96-3.35,4.75c-1.63,3.82-1.63,8.14,0,11.95
			c0.79,1.79,1.93,3.41,3.35,4.75c1.42,1.35,3.08,2.41,4.9,3.13c3.77,1.49,7.97,1.49,11.74,0c1.81-0.72,3.46-1.78,4.86-3.13
			c1.4-1.36,2.53-2.97,3.31-4.75C-876.22-125.47-876.22-129.79-877.85-133.6z"/>
		<rect id="Rectángulo_7_2_" x="-898.77" y="-213.24" class="st7" width="13.68" height="40.85"/>
		<g id="Grupo_13_2_" transform="translate(1602.612 487.904)">
			
				<rect id="Rectángulo_8_2_" x="-2558.14" y="-284.89" transform="matrix(0.7071 -0.7071 0.7071 0.7071 -546.6689 -1875.8737)" class="st7" width="40.85" height="13.68"/>
			<g id="Grupo_12_2_" transform="translate(0 19.278)">
				<rect id="Rectángulo_9_2_" x="-2616.62" y="-255.08" class="st7" width="98.18" height="13.68"/>
				<g id="Grupo_11_2_" transform="translate(116.577)">
					<path id="Trazado_14_2_" class="st7" d="M-2602.81-248.24c-0.04,12.02,4.97,23.5,13.81,31.65v17.44
						c-27.11-16.47-35.74-51.81-19.26-78.92c4.78-7.87,11.39-14.48,19.26-19.26v17.44
						C-2597.84-271.74-2602.85-260.26-2602.81-248.24z"/>
				</g>
			</g>
		</g>
		<g id="Grupo_16_2_" transform="translate(1645.084 856.573)">
			<path id="Trazado_15_2_" class="st7" d="M-2549.91-233.21c-1.58-3.6-4.52-6.43-8.17-7.88c-5.68-2.29-12.17-1.07-16.63,3.13
				c-1.42,1.35-2.56,2.96-3.35,4.75c-1.63,3.82-1.63,8.14,0,11.95c0.79,1.79,1.93,3.41,3.35,4.75c1.42,1.35,3.08,2.41,4.9,3.13
				c3.77,1.49,7.97,1.49,11.74,0c1.81-0.72,3.46-1.78,4.86-3.13c1.4-1.36,2.53-2.97,3.31-4.75
				C-2548.28-225.08-2548.28-229.39-2549.91-233.21L-2549.91-233.21z"/>
			<g id="Grupo_14_2_" transform="translate(3.537)">
				<path id="Trazado_16_2_" class="st7" d="M-2567.53-283.52c12.02,0.04,23.5-4.97,31.65-13.81h17.44
					c-16.48,27.11-51.81,35.73-78.92,19.26c-7.87-4.78-14.48-11.39-19.26-19.26h17.44
					C-2591.03-288.49-2579.55-283.48-2567.53-283.52z"/>
			</g>
			<g id="Grupo_15_2_" transform="translate(0 114.188)">
				<path id="Trazado_17_2_" class="st7" d="M-2535.38-257.48l24.02-25.21l-9.91-9.44l-14.11,14.81l-19.07-20.01l-19.07,20.02
					l-19.07-20.01l-24.03,25.21l9.9,9.44l14.12-14.82l19.08,20.01l19.07-20.01L-2535.38-257.48z"/>
			</g>
		</g>
	</g>
</g>
<path id="Rectángulo_28_1_" class="st8" d="M-482.15-3690.59h251.78c37.5,0,67.9,30.4,67.9,67.9l0,0c0,37.5-30.4,67.9-67.9,67.9
	h-251.78c-37.5,0-67.9-30.4-67.9-67.9l0,0C-550.05-3660.19-519.65-3690.59-482.15-3690.59z"/>
<circle id="Elipse_18_1_" class="st3" cx="-377.48" cy="-3625.26" r="6.06"/>
<circle id="Elipse_19_1_" class="st3" cx="-335.04" cy="-3625.26" r="6.06"/>
<line id="Línea_10_1_" class="st9" x1="-383.54" y1="-3638.2" x2="-371.42" y2="-3638.2"/>
<line id="Línea_11_1_" class="st9" x1="-341.11" y1="-3638.2" x2="-328.98" y2="-3638.2"/>
<line id="Línea_12_1_" class="st9" x1="-370.23" y1="-3607.19" x2="-341.25" y2="-3607.19"/>
<circle id="Elipse_20_1_" class="st3" cx="-254.68" cy="-3627.84" r="6.06"/>
<circle id="Elipse_21_1_" class="st3" cx="-212.25" cy="-3627.84" r="6.06"/>
<path id="Trazado_49_1_" class="st9" d="M-247.43-3602.54c0,0,13.2-16.05,28.98-0.27"/>
<line id="Línea_13_1_" class="st9" x1="-260.38" y1="-3638.7" x2="-248.98" y2="-3642.85"/>
<line id="Línea_14_1_" class="st9" x1="-217.94" y1="-3642.85" x2="-206.55" y2="-3638.7"/>
<circle id="Elipse_22_4_" class="st3" cx="-501.08" cy="-3625.84" r="6.06"/>
<path id="Trazado_50_4_" class="st9" d="M-507.14-3638.78c0-3.35,2.71-6.06,6.06-6.06s6.06,2.71,6.06,6.06"/>
<path id="Trazado_51_4_" class="st9" d="M-464.71-3638.78c0.04-3.35,2.79-6.03,6.14-5.99c3.29,0.04,5.94,2.7,5.99,5.99"/>
<circle id="Elipse_23_4_" class="st3" cx="-458.64" cy="-3625.84" r="6.06"/>
<path id="Trazado_52_4_" class="st9" d="M-464.84-3607.76c0,0-13.2,16.05-28.98,0.27"/>
<circle id="Elipse_17_1_" class="st8" cx="-357.05" cy="-4192.22" r="51.74"/>
<circle id="Elipse_27_1_" class="st10" cx="296.79" cy="-4182.27" r="51.74"/>
<circle id="Elipse_34_1_" class="st11" cx="297.79" cy="-3621.96" r="51.74"/>
<circle id="Elipse_17" class="st12" cx="942" cy="-3910.85" r="51.74"/>
<g id="Grupo_206_2_" transform="translate(-761.504 -930.93)">
	<circle id="Elipse_51_2_" class="st6" cx="576.4" cy="-1865.4" r="32.38"/>
	<g id="Grupo_106_2_" transform="translate(778.662 948.619)">
		<line id="Línea_31_2_" class="st13" x1="-187.04" y1="-2814.02" x2="-217.48" y2="-2814.02"/>
		<path id="Trazado_101_2_" class="st13" d="M-201.73-2828.7l14.69,14.69l-14.69,14.69"/>
	</g>
</g>
<g id="Grupo_206_1_" transform="translate(-761.504 -930.93)">
	<circle id="Elipse_51_1_" class="st6" cx="340.4" cy="-1865.4" r="32.38"/>
	<g id="Grupo_106_1_" transform="translate(778.662 948.619)">
		<line id="Línea_31_1_" class="st13" x1="-423.04" y1="-2814.02" x2="-453.48" y2="-2814.02"/>
		<path id="Trazado_101_1_" class="st13" d="M-438.79-2799.33l-14.69-14.69l14.69-14.69"/>
	</g>
</g>
<g id="Grupo_207_1_" transform="translate(-852.941 -931.283)">
	<path id="Rectángulo_65_1_" class="st6" d="M420.36-1325.38h150.94c17.67,0,32,14.33,32,32v0.05c0,17.67-14.33,32-32,32H420.36
		c-17.67,0-32-14.33-32-32v-0.05C388.36-1311.06,402.69-1325.38,420.36-1325.38z"/>
	<text transform="matrix(1 0 0 1 430.0432 -1288.0222)" class="st2" style="font-family:'SegoeUI'; font-size:21px;">Ver en Netflix</text>
</g>
<g id="Grupo_208" transform="translate(-1091.976 -930.93)">
	<circle id="Elipse_52" class="st6" cx="662.87" cy="-1618.71" r="32.38"/>
	<g id="Grupo_108" transform="translate(1109.666 948.088)">
		<path id="Trazado_102" class="st13" d="M-457.23-2571.36v19.78h20.86v-19.78"/>
		<path id="Trazado_103" class="st13" d="M-461.48-2567.33l14.69-14.69l14.69,14.69"/>
	</g>
</g>
<g id="Grupo_209" transform="translate(-854.092 -931.284)">
	<path id="Rectángulo_109" class="st6" d="M832.52-1325.38h150.94c17.67,0,32,14.33,32,32v0.05c0,17.67-14.33,32-32,32H832.52
		c-17.67,0-32-14.33-32-32v-0.05C800.52-1311.06,814.84-1325.38,832.52-1325.38z"/>
	<text transform="matrix(1 0 0 1 832.4233 -1288.0222)" class="st2" style="font-family:'SegoeUI'; font-size:21px;">Abrir en Spotify</text>
</g>
<g id="Grupo_187" transform="translate(-198 -430)">
	<circle id="Elipse_27" class="st10" cx="516.41" cy="-2108.14" r="51.74"/>
	<circle id="Elipse_28" class="st3" cx="494.66" cy="-2113.28" r="6.06"/>
	<circle id="Elipse_29" class="st3" cx="537.1" cy="-2113.28" r="6.06"/>
	<path id="Trazado_54" class="st9" d="M501.92-2087.99c0,0,13.2-16.05,28.98-0.27"/>
	<line id="Línea_19" class="st9" x1="488.97" y1="-2124.15" x2="500.36" y2="-2128.3"/>
	<line id="Línea_20" class="st9" x1="531.4" y1="-2128.3" x2="542.79" y2="-2124.15"/>
</g>
<circle id="Elipse_34" class="st10" cx="573.38" cy="-2538.14" r="51.74"/>
<path id="Trazado_186" class="st9" d="M594.54-2540.69c0,11.56-9.38,20.93-20.94,20.93c-11.56,0-20.92-9.37-20.93-20.93"/>
<line id="Línea_40" class="st9" x1="573.6" y1="-2519.64" x2="573.6" y2="-2500.98"/>
<line id="Línea_41" class="st9" x1="560.85" y1="-2500.98" x2="586.84" y2="-2500.98"/>
<path id="Rectángulo_112" class="st9" d="M573.6-2576.14L573.6-2576.14c7.05,0,12.76,5.71,12.76,12.76v22.07
	c0,7.05-5.71,12.76-12.76,12.76l0,0c-7.05,0-12.76-5.71-12.76-12.76v-22.07C560.85-2570.43,566.56-2576.14,573.6-2576.14z"/>
<line id="Línea_42" class="st9" x1="560.85" y1="-2561.54" x2="567.67" y2="-2561.54"/>
<line id="Línea_44" class="st9" x1="560.85" y1="-2552.56" x2="567.67" y2="-2552.56"/>
<line id="Línea_45" class="st9" x1="560.85" y1="-2543.58" x2="567.67" y2="-2543.58"/>
<line id="Línea_46" class="st9" x1="579.54" y1="-2561.54" x2="586.36" y2="-2561.54"/>
<line id="Línea_48" class="st9" x1="579.54" y1="-2552.56" x2="586.36" y2="-2552.56"/>
<line id="Línea_49" class="st9" x1="579.54" y1="-2543.58" x2="586.36" y2="-2543.58"/>
<circle id="Elipse_34_2_" class="st11" cx="821.38" cy="-2538.14" r="51.74"/>
<path id="Trazado_186_1_" class="st9" d="M842.54-2540.69c0,11.56-9.38,20.93-20.94,20.93c-11.56,0-20.92-9.37-20.93-20.93"/>
<line id="Línea_40_1_" class="st9" x1="821.6" y1="-2519.64" x2="821.6" y2="-2500.98"/>
<line id="Línea_41_1_" class="st9" x1="808.85" y1="-2500.98" x2="834.84" y2="-2500.98"/>
<path id="Rectángulo_112_1_" class="st9" d="M821.6-2576.14L821.6-2576.14c7.05,0,12.76,5.71,12.76,12.76v22.07
	c0,7.05-5.71,12.76-12.76,12.76l0,0c-7.05,0-12.76-5.71-12.76-12.76v-22.07C808.85-2570.43,814.56-2576.14,821.6-2576.14z"/>
<line id="Línea_42_1_" class="st9" x1="808.85" y1="-2561.54" x2="815.67" y2="-2561.54"/>
<line id="Línea_44_1_" class="st9" x1="808.85" y1="-2552.56" x2="815.67" y2="-2552.56"/>
<line id="Línea_45_1_" class="st9" x1="808.85" y1="-2543.58" x2="815.67" y2="-2543.58"/>
<line id="Línea_46_1_" class="st9" x1="827.54" y1="-2561.54" x2="834.36" y2="-2561.54"/>
<line id="Línea_48_1_" class="st9" x1="827.54" y1="-2552.56" x2="834.36" y2="-2552.56"/>
<line id="Línea_49_1_" class="st9" x1="827.54" y1="-2543.58" x2="834.36" y2="-2543.58"/>
<circle id="Elipse_27-2" class="st8" cx="318.41" cy="-2537.14" r="51.74"/>
<circle id="Elipse_28-2" class="st3" cx="296.66" cy="-2542.28" r="6.06"/>
<circle id="Elipse_29-2" class="st3" cx="339.1" cy="-2542.28" r="6.06"/>
<path id="Trazado_54-2" class="st9" d="M303.92-2516.99c0,0,13.2-16.05,28.98-0.27"/>
<line id="Línea_19-2" class="st9" x1="290.97" y1="-2553.15" x2="302.36" y2="-2557.3"/>
<line id="Línea_20-2" class="st9" x1="333.4" y1="-2557.3" x2="344.8" y2="-2553.15"/>
<circle id="Elipse_27-2_2_" class="st10" cx="573.41" cy="-2796.14" r="51.74"/>
<circle id="Elipse_22_3_" class="st3" cx="552.46" cy="-2799.54" r="6.06"/>
<path id="Trazado_50_3_" class="st9" d="M546.41-2812.48c0-3.35,2.71-6.06,6.06-6.06s6.06,2.71,6.06,6.06"/>
<path id="Trazado_51_3_" class="st9" d="M588.84-2812.48c0.04-3.35,2.79-6.03,6.14-5.99c3.29,0.04,5.94,2.7,5.99,5.99"/>
<circle id="Elipse_23_3_" class="st3" cx="594.9" cy="-2799.54" r="6.06"/>
<path id="Trazado_52_3_" class="st9" d="M588.7-2781.46c0,0-13.2,16.05-28.98,0.27"/>
<circle id="Elipse_33" class="st10" cx="824.21" cy="-2793.22" r="51.74"/>
<g id="Grupo_173" transform="translate(-524.864 -221.357)">
	<path id="Trazado_187" class="st14" d="M1336.16-2589.78"/>
	<path id="Trazado_188" class="st9" d="M1372.56-2593.78c0-2.39-1.68-4.45-4.02-4.93c-0.21-2.61-2.39-4.63-5.01-4.63
		c-0.25,0-0.5,0.02-0.75,0.06c-4.39-1.12-8.55-3.02-12.29-5.59c-2.41,0-4.47,1.7-4.94,4.07c-2.53,2.46-6.42,2.86-9.39,0.96
		c-2.78,0-5.03,2.25-5.03,5.03l0,0c0,0.02,0,0.03,0,0.05c-0.23-0.03-0.45-0.05-0.68-0.05c-2.78,0-5.03,2.25-5.03,5.03l0,0"/>
	<g id="Grupo_172">
		<path id="Trazado_189" class="st9" d="M1367.85-2535.33h-37.32l-4.06-43.44h45.34L1367.85-2535.33z"/>
		<circle id="Elipse_68" class="st9" cx="1349" cy="-2557.05" r="10.36"/>
		<line id="Línea_50" class="st9" x1="1340.43" y1="-2578.77" x2="1340.91" y2="-2563.52"/>
		<line id="Línea_51" class="st9" x1="1357.55" y1="-2578.77" x2="1357.04" y2="-2563.59"/>
		<line id="Línea_52" class="st9" x1="1341.34" y1="-2550.08" x2="1341.81" y2="-2535.33"/>
		<line id="Línea_53" class="st9" x1="1356.58" y1="-2550.08" x2="1356.09" y2="-2535.33"/>
		<rect id="Rectángulo_113" x="1324.29" y="-2587.13" class="st9" width="49.65" height="8.36"/>
	</g>
	<path id="Trazado_190" class="st9" d="M1337.9-2594.06c0.8-2.02,3.1-3.01,5.12-2.21"/>
	<path id="Trazado_191" class="st9" d="M1355.51-2597.31c2.05-0.73,4.31,0.35,5.03,2.4"/>
</g>
<g id="Grupo_187_1_" transform="translate(-198 -430)">
	<circle id="Elipse_27_2_" class="st10" cx="13.41" cy="-2108.14" r="51.74"/>
	<circle id="Elipse_28_1_" class="st3" cx="-8.34" cy="-2113.28" r="6.06"/>
	<circle id="Elipse_29_1_" class="st3" cx="34.1" cy="-2113.28" r="6.06"/>
	<path id="Trazado_54_1_" class="st9" d="M-1.08-2087.99c0,0,13.2-16.05,28.98-0.27"/>
	<line id="Línea_19_1_" class="st9" x1="-14.03" y1="-2124.15" x2="-2.64" y2="-2128.3"/>
	<line id="Línea_20_1_" class="st9" x1="28.4" y1="-2128.3" x2="39.79" y2="-2124.15"/>
</g>
<circle id="Elipse_27-2_3_" class="st15" cx="-184.59" cy="-2537.14" r="51.74"/>
<circle id="Elipse_28-2_1_" class="st3" cx="-206.34" cy="-2542.28" r="6.06"/>
<circle id="Elipse_29-2_1_" class="st3" cx="-163.9" cy="-2542.28" r="6.06"/>
<path id="Trazado_54-2_1_" class="st9" d="M-199.08-2516.99c0,0,13.2-16.05,28.98-0.27"/>
<line id="Línea_19-2_1_" class="st9" x1="-212.03" y1="-2553.15" x2="-200.64" y2="-2557.3"/>
<line id="Línea_20-2_1_" class="st9" x1="-169.6" y1="-2557.3" x2="-158.2" y2="-2553.15"/>
<circle id="Elipse_27-2_1_" class="st15" cx="70.41" cy="-2796.14" r="51.74"/>
<circle id="Elipse_22_1_" class="st3" cx="49.46" cy="-2799.54" r="6.06"/>
<path id="Trazado_50_1_" class="st9" d="M43.41-2812.48c0-3.35,2.71-6.06,6.06-6.06s6.06,2.71,6.06,6.06"/>
<path id="Trazado_51_1_" class="st9" d="M85.84-2812.48c0.04-3.35,2.79-6.03,6.14-5.99c3.29,0.04,5.94,2.7,5.99,5.99"/>
<circle id="Elipse_23_1_" class="st3" cx="91.9" cy="-2799.54" r="6.06"/>
<path id="Trazado_52_1_" class="st9" d="M85.7-2781.46c0,0-13.2,16.05-28.98,0.27"/>
<circle id="Elipse_33_1_" class="st11" cx="1068.21" cy="-2793.22" r="51.74"/>
<g id="Grupo_173_1_" transform="translate(-524.864 -221.357)">
	<path id="Trazado_187_1_" class="st14" d="M1580.16-2589.78"/>
	<path id="Trazado_188_1_" class="st9" d="M1616.56-2593.78c0-2.39-1.68-4.45-4.02-4.93c-0.21-2.61-2.39-4.63-5.01-4.63
		c-0.25,0-0.5,0.02-0.75,0.06c-4.39-1.12-8.55-3.02-12.29-5.59c-2.41,0-4.47,1.7-4.94,4.07c-2.53,2.46-6.42,2.86-9.39,0.96
		c-2.78,0-5.03,2.25-5.03,5.03l0,0c0,0.02,0,0.03,0,0.05c-0.23-0.03-0.45-0.05-0.68-0.05c-2.78,0-5.03,2.25-5.03,5.03l0,0"/>
	<g id="Grupo_172_1_">
		<path id="Trazado_189_1_" class="st9" d="M1611.85-2535.33h-37.32l-4.06-43.44h45.34L1611.85-2535.33z"/>
		<circle id="Elipse_68_1_" class="st9" cx="1593" cy="-2557.05" r="10.36"/>
		<line id="Línea_50_1_" class="st9" x1="1584.43" y1="-2578.77" x2="1584.91" y2="-2563.52"/>
		<line id="Línea_51_1_" class="st9" x1="1601.55" y1="-2578.77" x2="1601.04" y2="-2563.59"/>
		<line id="Línea_52_1_" class="st9" x1="1585.34" y1="-2550.08" x2="1585.81" y2="-2535.33"/>
		<line id="Línea_53_1_" class="st9" x1="1600.58" y1="-2550.08" x2="1600.09" y2="-2535.33"/>
		<rect id="Rectángulo_113_1_" x="1568.29" y="-2587.13" class="st9" width="49.65" height="8.36"/>
	</g>
	<path id="Trazado_190_1_" class="st9" d="M1581.9-2594.06c0.8-2.02,3.1-3.01,5.12-2.21"/>
	<path id="Trazado_191_1_" class="st9" d="M1599.51-2597.31c2.05-0.73,4.31,0.35,5.03,2.4"/>
</g>
<g id="Grupo_188_2_" transform="translate(152 -432)">
	<circle id="Elipse_34_3_" class="st15" cx="-81.62" cy="-2106.14" r="51.74"/>
	<g id="Grupo_174_2_" transform="translate(2.001)">
		<path id="Trazado_186_3_" class="st16" d="M-62.46-2108.69c0,11.56-9.38,20.93-20.94,20.93c-11.56,0-20.92-9.37-20.93-20.93"/>
		<line id="Línea_40_3_" class="st9" x1="-83.4" y1="-2087.64" x2="-83.4" y2="-2068.98"/>
		<line id="Línea_41_3_" class="st9" x1="-96.16" y1="-2068.98" x2="-70.16" y2="-2068.98"/>
		<path id="Rectángulo_112_3_" class="st16" d="M-83.4-2144.14L-83.4-2144.14c7.05,0,12.76,5.71,12.76,12.76v22.07
			c0,7.05-5.71,12.76-12.76,12.76l0,0c-7.05,0-12.76-5.71-12.76-12.76v-22.07C-96.16-2138.43-90.44-2144.14-83.4-2144.14z"/>
		<line id="Línea_42_3_" class="st9" x1="-96.16" y1="-2129.54" x2="-89.33" y2="-2129.54"/>
		<line id="Línea_44_3_" class="st9" x1="-96.16" y1="-2120.56" x2="-89.33" y2="-2120.56"/>
		<line id="Línea_45_3_" class="st9" x1="-96.16" y1="-2111.58" x2="-89.33" y2="-2111.58"/>
		<line id="Línea_46_3_" class="st9" x1="-77.46" y1="-2129.54" x2="-70.64" y2="-2129.54"/>
		<line id="Línea_48_3_" class="st9" x1="-77.46" y1="-2120.56" x2="-70.64" y2="-2120.56"/>
		<line id="Línea_49_3_" class="st9" x1="-77.46" y1="-2111.58" x2="-70.64" y2="-2111.58"/>
	</g>
</g>
<circle id="Elipse_33_2_" class="st15" cx="321.21" cy="-2793.22" r="51.74"/>
<g id="Grupo_173_3_" transform="translate(-524.864 -221.357)">
	<path id="Trazado_187_3_" class="st14" d="M833.16-2589.78"/>
	<path id="Trazado_188_3_" class="st9" d="M869.56-2593.78c0-2.39-1.68-4.45-4.02-4.93c-0.21-2.61-2.39-4.63-5.01-4.63
		c-0.25,0-0.5,0.02-0.75,0.06c-4.39-1.12-8.55-3.02-12.29-5.59c-2.41,0-4.47,1.7-4.94,4.07c-2.53,2.46-6.42,2.86-9.39,0.96
		c-2.78,0-5.03,2.25-5.03,5.03l0,0c0,0.02,0,0.03,0,0.05c-0.23-0.03-0.45-0.05-0.68-0.05c-2.78,0-5.03,2.25-5.03,5.03l0,0"/>
	<g id="Grupo_172_3_">
		<path id="Trazado_189_3_" class="st9" d="M864.85-2535.33h-37.32l-4.06-43.44h45.34L864.85-2535.33z"/>
		<circle id="Elipse_68_3_" class="st9" cx="846" cy="-2557.05" r="10.36"/>
		<line id="Línea_50_3_" class="st9" x1="837.43" y1="-2578.77" x2="837.91" y2="-2563.52"/>
		<line id="Línea_51_3_" class="st9" x1="854.55" y1="-2578.77" x2="854.04" y2="-2563.59"/>
		<line id="Línea_52_3_" class="st9" x1="838.34" y1="-2550.08" x2="838.81" y2="-2535.33"/>
		<line id="Línea_53_3_" class="st9" x1="853.58" y1="-2550.08" x2="853.09" y2="-2535.33"/>
		<rect id="Rectángulo_113_3_" x="821.29" y="-2587.13" class="st9" width="49.65" height="8.36"/>
	</g>
	<path id="Trazado_190_3_" class="st9" d="M834.9-2594.06c0.8-2.02,3.1-3.01,5.12-2.21"/>
	<path id="Trazado_191_3_" class="st9" d="M852.51-2597.31c2.05-0.73,4.31,0.35,5.03,2.4"/>
</g>
<path id="Rectángulo_37_1_" class="st12" d="M-412.89-1470.96h129.04c37.5,0,67.9,30.4,67.9,67.9l0,0c0,37.5-30.4,67.9-67.9,67.9
	h-129.04c-37.5,0-67.9-30.4-67.9-67.9l0,0C-480.78-1440.56-450.38-1470.96-412.89-1470.96z"/>
<g id="Grupo_174_1_" transform="translate(-820.998 -467.103)">
	<path id="Trazado_186_4_" class="st9" d="M432.09-938.5c0,11.56-9.38,20.93-20.94,20.93c-11.56,0-20.92-9.37-20.93-20.93"/>
	<line id="Línea_40_4_" class="st9" x1="411.15" y1="-917.46" x2="411.15" y2="-898.8"/>
	<line id="Línea_41_4_" class="st9" x1="398.39" y1="-898.8" x2="424.39" y2="-898.8"/>
	<path id="Rectángulo_112_4_" class="st9" d="M411.15-973.96L411.15-973.96c7.05,0,12.76,5.71,12.76,12.76v22.07
		c0,7.05-5.71,12.76-12.76,12.76l0,0c-7.05,0-12.76-5.71-12.76-12.76v-22.07C398.39-968.25,404.11-973.96,411.15-973.96z"/>
	<line id="Línea_42_4_" class="st9" x1="398.39" y1="-959.35" x2="405.22" y2="-959.35"/>
	<line id="Línea_44_4_" class="st9" x1="398.39" y1="-950.38" x2="405.22" y2="-950.38"/>
	<line id="Línea_45_4_" class="st9" x1="398.39" y1="-941.4" x2="405.22" y2="-941.4"/>
	<line id="Línea_46_4_" class="st9" x1="417.09" y1="-959.35" x2="423.91" y2="-959.35"/>
	<line id="Línea_48_4_" class="st9" x1="417.09" y1="-950.38" x2="423.91" y2="-950.38"/>
	<line id="Línea_49_4_" class="st9" x1="417.09" y1="-941.4" x2="423.91" y2="-941.4"/>
</g>
<g id="Grupo_173_4_" transform="translate(-535.864 214.643)">
	<path id="Trazado_187_4_" class="st14" d="M235.96-1635.62"/>
	<path id="Trazado_188_4_" class="st9" d="M272.35-1639.62c0-2.39-1.68-4.45-4.02-4.93c-0.21-2.61-2.39-4.63-5.01-4.63
		c-0.25,0-0.5,0.02-0.75,0.06c-4.39-1.12-8.55-3.02-12.29-5.59c-2.41,0-4.47,1.7-4.94,4.07c-2.53,2.46-6.42,2.86-9.39,0.96
		c-2.78,0-5.03,2.25-5.03,5.03v0c0,0.02,0,0.03,0,0.05c-0.23-0.03-0.45-0.05-0.68-0.05c-2.78,0-5.03,2.25-5.03,5.03l0,0"/>
	<g id="Grupo_172_4_">
		<path id="Trazado_189_4_" class="st9" d="M267.65-1581.17h-37.32l-4.06-43.44h45.34L267.65-1581.17z"/>
		<circle id="Elipse_68_4_" class="st9" cx="248.8" cy="-1602.89" r="10.36"/>
		<line id="Línea_50_4_" class="st9" x1="240.23" y1="-1624.61" x2="240.71" y2="-1609.36"/>
		<line id="Línea_51_4_" class="st9" x1="257.34" y1="-1624.61" x2="256.83" y2="-1609.43"/>
		<line id="Línea_52_4_" class="st9" x1="241.14" y1="-1595.93" x2="241.61" y2="-1581.17"/>
		<line id="Línea_53_4_" class="st9" x1="256.38" y1="-1595.93" x2="255.88" y2="-1581.17"/>
		<rect id="Rectángulo_113_4_" x="224.08" y="-1632.97" class="st9" width="49.65" height="8.36"/>
	</g>
	<path id="Trazado_190_4_" class="st9" d="M237.69-1639.9c0.8-2.02,3.1-3.01,5.12-2.21"/>
	<path id="Trazado_191_4_" class="st9" d="M255.3-1643.15c2.05-0.73,4.31,0.35,5.03,2.4"/>
</g>
<circle id="Elipse_53_1_" class="st2" cx="-560.53" cy="-1020.7" r="25.74"/>
<path id="Rectángulo_73_1_" class="st6" d="M-560.53-1031.42L-560.53-1031.42c0.97,0,1.76,0.79,1.76,1.76v17.92
	c0,0.97-0.79,1.76-1.76,1.76l0,0c-0.97,0-1.76-0.79-1.76-1.76v-17.92C-562.29-1030.63-561.5-1031.42-560.53-1031.42z"/>
<path id="Rectángulo_74_1_" class="st6" d="M-549.81-1020.7L-549.81-1020.7c0,0.97-0.79,1.76-1.76,1.76h-17.92
	c-0.97,0-1.76-0.79-1.76-1.76l0,0c0-0.97,0.79-1.76,1.76-1.76h17.92C-550.59-1022.46-549.81-1021.67-549.81-1020.7z"/>
<circle id="Elipse_60" class="st6" cx="-355.53" cy="-1022.85" r="25.74"/>
<path id="Rectángulo_97" class="st2" d="M-355.53-1033.57L-355.53-1033.57c0.97,0,1.76,0.79,1.76,1.76v17.92
	c0,0.97-0.79,1.76-1.76,1.76l0,0c-0.97,0-1.76-0.79-1.76-1.76v-17.92C-357.29-1032.79-356.5-1033.57-355.53-1033.57z"/>
<path id="Rectángulo_98" class="st2" d="M-344.81-1022.85L-344.81-1022.85c0,0.97-0.79,1.76-1.76,1.76h-17.92
	c-0.97,0-1.76-0.79-1.76-1.76l0,0c0-0.97,0.79-1.76,1.76-1.76h17.92C-345.59-1024.61-344.81-1023.83-344.81-1022.85z"/>
<path id="Trazado_124_1_" class="st2" d="M-486.18,43.22c19.59,0,35.47-15.88,35.47-35.47c0.06-56.26,45.66-101.86,101.92-101.92
	c56.26,0.06,101.86,45.66,101.92,101.92c0,19.59,15.88,35.47,35.47,35.47c19.59,0,35.47-15.88,35.47-35.47
	c0.13-45.87-18.11-89.88-50.63-122.23c-32.35-32.52-76.36-50.76-122.23-50.63c-45.87-0.13-89.88,18.11-122.23,50.63
	c-32.52,32.35-50.75,76.36-50.63,122.23C-521.65,27.34-505.77,43.22-486.18,43.22C-486.18,43.22-486.18,43.22-486.18,43.22z"/>
<g>
	<g id="Grupo_132_1_" transform="translate(47.033 54.45)">
		<path id="Trazado_125_1_" class="st6" d="M-399.41,511.76c6.61-0.02,12.93,2.74,17.41,7.6h9.59c-5.69-9.47-15.95-15.24-27-15.19
			c-11.05-0.05-21.31,5.72-27,15.19h9.59C-412.34,514.5-406.02,511.74-399.41,511.76z"/>
	</g>
	<path id="Trazado_126_1_" class="st6" d="M-426.42,550.75l5.07-30.1h7.68l5.98,16.05l5.94-16.05h7.69l5.07,30.1h-7.72l-2.57-17.33
		l-7.05,17.33h-3.09l-6.69-17.33l-2.57,17.33H-426.42z"/>
	<path id="Trazado_127_1_" class="st6" d="M-387.32,534.98c-0.02-2.13,0.4-4.24,1.23-6.2c0.79-1.88,1.95-3.58,3.41-5.01
		c1.49-1.45,3.27-2.59,5.21-3.35c2.13-0.82,4.39-1.24,6.67-1.21c2.28-0.02,4.53,0.39,6.66,1.21c1.95,0.75,3.74,1.89,5.25,3.35
		c1.46,1.42,2.63,3.13,3.43,5.01c0.83,1.96,1.25,4.07,1.23,6.2c0.02,2.13-0.4,4.24-1.23,6.2c-0.8,1.88-1.96,3.59-3.43,5.01
		c-1.51,1.45-3.29,2.59-5.25,3.35c-2.12,0.82-4.38,1.23-6.66,1.21c-2.28,0.03-4.55-0.38-6.67-1.21c-1.94-0.76-3.71-1.89-5.21-3.35
		c-1.46-1.43-2.61-3.13-3.41-5.01C-386.92,539.22-387.34,537.11-387.32,534.98z M-379.2,534.98c-0.01,1.13,0.22,2.25,0.68,3.29
		c0.43,0.98,1.05,1.87,1.82,2.62c0.77,0.74,1.68,1.33,2.67,1.72c1.03,0.41,2.12,0.62,3.23,0.61c1.11,0.01,2.2-0.2,3.23-0.61
		c1-0.4,1.91-0.98,2.69-1.72c0.78-0.74,1.41-1.63,1.84-2.62c0.46-1.04,0.68-2.16,0.67-3.29c0.01-1.13-0.22-2.25-0.67-3.29
		c-0.44-0.98-1.06-1.87-1.84-2.61c-0.78-0.74-1.7-1.32-2.69-1.72c-1.03-0.41-2.12-0.62-3.23-0.61c-1.11-0.01-2.2,0.2-3.23,0.61
		c-0.99,0.39-1.9,0.98-2.67,1.72c-0.77,0.75-1.39,1.63-1.82,2.61C-378.98,532.73-379.21,533.85-379.2,534.98z"/>
	<path id="Trazado_128_1_" class="st6" d="M-350.33,534.98c-0.02-2.13,0.4-4.24,1.23-6.2c0.79-1.88,1.95-3.58,3.41-5.01
		c1.49-1.45,3.27-2.59,5.21-3.35c2.13-0.83,4.39-1.24,6.68-1.21c2.27-0.02,4.53,0.39,6.65,1.21c1.96,0.75,3.74,1.89,5.25,3.35
		c1.46,1.42,2.63,3.13,3.43,5.01c0.83,1.96,1.24,4.07,1.23,6.2c0.02,2.13-0.4,4.24-1.23,6.2c-0.8,1.88-1.96,3.59-3.43,5.01
		c-1.51,1.46-3.29,2.59-5.25,3.35c-2.12,0.82-4.38,1.23-6.65,1.21c-2.28,0.03-4.55-0.38-6.68-1.21c-1.94-0.76-3.71-1.89-5.21-3.35
		c-1.46-1.43-2.61-3.13-3.41-5.01C-349.93,539.22-350.35,537.11-350.33,534.98z M-342.21,534.98c-0.01,1.13,0.22,2.25,0.67,3.29
		c0.43,0.98,1.05,1.87,1.82,2.62c0.77,0.74,1.68,1.33,2.67,1.72c1.03,0.41,2.12,0.62,3.23,0.61c1.11,0.01,2.2-0.2,3.23-0.61
		c1-0.4,1.91-0.98,2.69-1.72c0.78-0.74,1.41-1.63,1.84-2.62c0.46-1.03,0.69-2.16,0.68-3.29c0.01-1.13-0.22-2.25-0.68-3.29
		c-0.44-0.98-1.06-1.87-1.84-2.61c-0.78-0.74-1.69-1.32-2.69-1.72c-1.03-0.41-2.12-0.62-3.23-0.61c-1.11-0.01-2.2,0.2-3.23,0.61
		c-0.99,0.4-1.9,0.98-2.67,1.72c-0.77,0.75-1.39,1.63-1.82,2.61C-341.99,532.73-342.22,533.85-342.21,534.98L-342.21,534.98z"/>
	<path id="Trazado_129_1_" class="st6" d="M-313.35,520.64h11.49c1.98-0.01,3.93,0.41,5.72,1.24c1.75,0.8,3.33,1.92,4.67,3.29
		c1.34,1.38,2.41,3.01,3.15,4.79c0.76,1.81,1.15,3.76,1.15,5.73c0,1.95-0.38,3.89-1.13,5.69c-0.73,1.79-1.79,3.42-3.13,4.81
		c-1.34,1.39-2.92,2.51-4.67,3.31c-1.81,0.83-3.77,1.25-5.76,1.24h-11.49L-313.35,520.64z M-305.58,544.12h1.78
		c1.23,0.02,2.45-0.2,3.6-0.64c1.01-0.39,1.92-0.99,2.68-1.76c0.73-0.76,1.3-1.66,1.66-2.65c0.39-1.08,0.59-2.22,0.57-3.37
		c0.01-1.14-0.19-2.28-0.59-3.35c-0.37-1-0.94-1.91-1.68-2.67c-0.76-0.77-1.67-1.36-2.67-1.76c-1.14-0.44-2.35-0.66-3.56-0.64h-1.78
		L-305.58,544.12z"/>
	<rect id="Rectángulo_83_1_" x="-379.35" y="504.17" class="st6" width="22.47" height="7.53"/>
	<rect id="Rectángulo_84_1_" x="-347.69" y="504.17" class="st6" width="22.47" height="7.53"/>
</g>
<g>
	<g id="Grupo_98" transform="translate(47.035 54.451)">
		<path id="Trazado_90" class="st6" d="M205.39,215.53c-6.61,0.02-12.93-2.73-17.41-7.59h-9.59c9.06,14.91,28.5,19.66,43.42,10.59
			c4.33-2.63,7.96-6.26,10.59-10.59h-9.59C218.32,212.8,212.01,215.55,205.39,215.53z"/>
	</g>
	<path id="Trazado_91" class="st6" d="M178.39,254.51l5.07-30.1h7.69l5.98,16.05l5.94-16.05h7.69l5.07,30.1h-7.73l-2.58-17.33
		l-7.05,17.33h-3.09l-6.69-17.33l-2.58,17.33L178.39,254.51z"/>
	<path id="Trazado_92" class="st6" d="M217.49,238.75c-0.08-6.43,3.84-12.24,9.84-14.56c4.3-1.61,9.03-1.61,13.33,0
		c1.95,0.76,3.74,1.89,5.25,3.35c1.46,1.43,2.63,3.13,3.42,5.01c1.64,3.97,1.64,8.43,0,12.4c-0.8,1.88-1.96,3.58-3.42,5.01
		c-1.51,1.45-3.29,2.59-5.25,3.35c-4.3,1.61-9.03,1.61-13.33,0C221.35,250.98,217.43,245.18,217.49,238.75L217.49,238.75z
		 M225.61,238.75c-0.01,1.13,0.22,2.25,0.67,3.29c0.87,1.98,2.49,3.54,4.5,4.34c3.13,1.26,6.7,0.59,9.15-1.72
		c0.78-0.74,1.41-1.63,1.84-2.61c0.9-2.1,0.9-4.48,0-6.57c-0.44-0.98-1.06-1.87-1.84-2.62c-0.78-0.74-1.7-1.32-2.7-1.72
		c-2.07-0.82-4.38-0.82-6.45,0c-0.99,0.39-1.9,0.98-2.67,1.72c-0.77,0.75-1.39,1.63-1.82,2.62
		C225.83,236.5,225.6,237.62,225.61,238.75z"/>
	<path id="Trazado_93" class="st6" d="M254.48,238.75c-0.08-6.43,3.84-12.24,9.84-14.56c4.3-1.61,9.03-1.61,13.33,0
		c1.95,0.76,3.74,1.89,5.25,3.35c1.46,1.42,2.63,3.13,3.43,5.01c1.64,3.97,1.64,8.43,0,12.4c-0.8,1.88-1.96,3.59-3.43,5.01
		c-1.51,1.45-3.29,2.59-5.25,3.35c-4.3,1.61-9.03,1.61-13.33,0C258.33,250.98,254.41,245.18,254.48,238.75L254.48,238.75z
		 M262.6,238.75c-0.01,1.13,0.22,2.25,0.67,3.29c0.87,1.98,2.49,3.54,4.5,4.34c2.07,0.82,4.38,0.82,6.45,0
		c1-0.4,1.91-0.98,2.69-1.72c0.78-0.74,1.41-1.63,1.84-2.61c0.9-2.1,0.9-4.48,0-6.57c-0.44-0.98-1.06-1.87-1.84-2.62
		c-0.78-0.74-1.69-1.32-2.69-1.72c-2.07-0.82-4.38-0.82-6.45,0c-0.99,0.39-1.9,0.98-2.67,1.72c-0.77,0.75-1.39,1.63-1.82,2.62
		C262.82,236.5,262.59,237.62,262.6,238.75z"/>
	<path id="Trazado_94" class="st6" d="M291.46,224.41h11.49c1.98-0.01,3.93,0.41,5.72,1.24c1.75,0.8,3.33,1.92,4.67,3.29
		c1.34,1.38,2.41,3.01,3.15,4.79c1.53,3.65,1.53,7.76,0.02,11.42c-0.73,1.79-1.79,3.42-3.13,4.81c-1.34,1.39-2.92,2.51-4.67,3.31
		c-1.81,0.83-3.77,1.25-5.76,1.24h-11.49V224.41z M299.23,247.89h1.78c1.23,0.02,2.45-0.2,3.6-0.64c1-0.39,1.91-0.99,2.67-1.76
		c0.73-0.76,1.3-1.66,1.66-2.66c0.39-1.08,0.59-2.22,0.58-3.37c0.01-1.14-0.19-2.28-0.59-3.35c-0.74-2.04-2.33-3.66-4.36-4.43
		c-1.14-0.44-2.35-0.66-3.56-0.64h-1.78L299.23,247.89z"/>
	<rect id="Rectángulo_56" x="225.46" y="207.93" class="st6" width="22.47" height="7.53"/>
	<rect id="Rectángulo_57" x="257.12" y="207.93" class="st6" width="22.47" height="7.53"/>
</g>
</svg>
