<svg xmlns="http://www.w3.org/2000/svg" viewBox="0 0 53.58 89.04"><defs><style>.cls-1{fill:#e7e1da;}</style></defs><title>Recurso 1</title><g id="Capa_2" data-name="Capa 2"><g id="Capa_1-2" data-name="Capa 1"><path class="cls-1" d="M9.52,27.7,14.22,0h7.13L26.9,14.77,32.41,0h7.12l4.71,27.7H37.07L34.69,11.76,28.15,27.7H25.28L19.07,11.76,16.68,27.7Z"/><path class="cls-1" d="M40.86,33a12.57,12.57,0,0,1,5,1,12.32,12.32,0,0,1,4,2.75,12.54,12.54,0,0,1,2.7,4.2,15.38,15.38,0,0,1,0,10.75,12.71,12.71,0,0,1-2.7,4.24,12.35,12.35,0,0,1-4,2.76,13.12,13.12,0,0,1-10,0,12.31,12.31,0,0,1-4-2.76,12.74,12.74,0,0,1-2.71-4.24,15.38,15.38,0,0,1,0-10.75,12.56,12.56,0,0,1,2.71-4.2,12.28,12.28,0,0,1,4-2.75A12.57,12.57,0,0,1,40.86,33Zm0,6.55a6.44,6.44,0,0,0-2.65.54,6.62,6.62,0,0,0-3.5,3.63,7,7,0,0,0,0,5.21,6.77,6.77,0,0,0,1.39,2.17,6.57,6.57,0,0,0,2.11,1.49,6.55,6.55,0,0,0,7.41-1.49A6.77,6.77,0,0,0,47,48.89a7,7,0,0,0,0-5.21,6.62,6.62,0,0,0-3.5-3.63A6.44,6.44,0,0,0,40.86,39.51Z"/><path class="cls-1" d="M12.72,33a12.57,12.57,0,0,1,5,1,12.32,12.32,0,0,1,4.05,2.75,12.54,12.54,0,0,1,2.7,4.2,15.38,15.38,0,0,1,0,10.75,12.71,12.71,0,0,1-2.7,4.24,12.35,12.35,0,0,1-4.05,2.76,12.57,12.57,0,0,1-5,1,12.57,12.57,0,0,1-5-1,12.31,12.31,0,0,1-4-2.76A12.58,12.58,0,0,1,1,51.65,15.38,15.38,0,0,1,1,40.9a12.41,12.41,0,0,1,2.71-4.2,12.28,12.28,0,0,1,4-2.75A12.57,12.57,0,0,1,12.72,33Zm0,6.55a6.44,6.44,0,0,0-2.65.54,6.62,6.62,0,0,0-3.5,3.63,7,7,0,0,0,0,5.21A6.77,6.77,0,0,0,8,51.06a6.55,6.55,0,0,0,9.52,0,6.77,6.77,0,0,0,1.39-2.17,7,7,0,0,0,0-5.21,6.62,6.62,0,0,0-3.5-3.63A6.44,6.44,0,0,0,12.72,39.51Z"/><path class="cls-1" d="M13,89V78.38a12.6,12.6,0,0,1,1.14-5.31,14.56,14.56,0,0,1,3-4.33,14,14,0,0,1,4.41-2.92,13.53,13.53,0,0,1,10.5,0,14.11,14.11,0,0,1,4.43,2.9A14.36,14.36,0,0,1,39.59,73a12.61,12.61,0,0,1,1.14,5.34V89Zm21.6-7.2V80.18A9,9,0,0,0,34,76.84a7.15,7.15,0,0,0-1.61-2.48A6.9,6.9,0,0,0,30,72.82a9,9,0,0,0-6.19,0,7,7,0,0,0-2.46,1.56,7.31,7.31,0,0,0-1.62,2.48,8.86,8.86,0,0,0-.58,3.3v1.66Z"/></g></g></svg>