<?xml version="1.0" encoding="utf-8"?>
<!-- Generator: Adobe Illustrator 24.0.0, SVG Export Plug-In . SVG Version: 6.00 Build 0)  -->
<svg version="1.1" id="Capa_1" xmlns="http://www.w3.org/2000/svg" xmlns:xlink="http://www.w3.org/1999/xlink" x="0px" y="0px"
	 viewBox="0 0 508.53 488.71" style="enable-background:new 0 0 508.53 488.71;" xml:space="preserve">
<style type="text/css">
	.st0{fill:#F5B15A;}
	.st1{fill:#EAE3DA;}
	.st2{fill:#E4D7CE;}
	.st3{fill:#002E61;}
	.st4{fill:#E45451;}
	.st5{fill:#E4D8CE;}
	.st6{fill:#1E244D;}
	.st7{fill:#F99A3D;}
	.st8{fill:none;stroke:#002E61;stroke-width:10;stroke-miterlimit:10;}
	.st9{fill:none;stroke:#002E61;stroke-width:5;stroke-linecap:round;stroke-linejoin:round;}
	.st10{fill:#E45451;stroke:#002E61;stroke-width:10;stroke-miterlimit:10;}
	.st11{fill:#F5B15A;stroke:#002E61;stroke-width:10;stroke-miterlimit:10;}
	.st12{fill:#E4D7CE;stroke:#002E61;stroke-width:10;stroke-miterlimit:10;}
	.st13{fill:none;stroke:#E4D7CE;stroke-width:5;stroke-linecap:round;stroke-linejoin:round;}
	.st14{fill:none;stroke:#002E61;stroke-width:2.37;stroke-linecap:round;stroke-linejoin:round;}
	.st15{fill:#E4D8CE;stroke:#002E61;stroke-width:10;stroke-miterlimit:10;}
	.st16{fill:#E4D8CE;stroke:#002E61;stroke-width:5;stroke-linecap:round;stroke-linejoin:round;}
</style>
<rect id="Rectángulo_36_1_" x="-2005.86" y="-4738.06" class="st0" width="1919.83" height="1080"/>
<g id="Grupo_201_1_" transform="translate(0 -7.083)">
	<g id="Grupo_10_1_" transform="translate(150 84.083)">
		<path id="Trazado_8_1_" class="st1" d="M-2003.63-3908.43c2.94-6.98,8.59-12.47,15.66-15.19c7.81-2.93,16.42-2.93,24.23,0
			c3.55,1.37,6.8,3.44,9.54,6.08c2.66,2.59,4.78,5.69,6.23,9.11c2.98,7.22,2.98,15.32,0,22.54c-1.45,3.42-3.57,6.52-6.23,9.11
			c-2.74,2.64-5.99,4.71-9.54,6.08c-7.81,2.93-16.42,2.93-24.23,0c-14.7-6-21.76-22.78-15.76-37.49
			C-2003.7-3908.27-2003.66-3908.35-2003.63-3908.43L-2003.63-3908.43z M-1989.88-3891.18c1.58,3.6,4.52,6.43,8.18,7.88
			c5.68,2.29,12.17,1.07,16.63-3.13c1.42-1.35,2.56-2.96,3.35-4.75c1.63-3.82,1.63-8.14,0-11.95c-0.79-1.79-1.93-3.4-3.35-4.75
			c-1.42-1.35-3.08-2.41-4.9-3.13c-3.77-1.49-7.96-1.49-11.73,0c-1.81,0.72-3.46,1.78-4.86,3.13c-1.4,1.36-2.53,2.97-3.31,4.75
			C-1991.51-3899.32-1991.51-3895-1989.88-3891.18L-1989.88-3891.18z"/>
		<rect id="Rectángulo_4_1_" x="-1982.64" y="-3852.39" class="st1" width="13.68" height="40.85"/>
		<g id="Grupo_6_1_" transform="translate(7.948 405.244)">
			
				<rect id="Rectángulo_5_1_" x="-1961" y="-4646.72" transform="matrix(0.7071 -0.7071 0.7071 0.7071 2712.5115 -2731.1833)" class="st1" width="40.85" height="13.68"/>
			<g id="Grupo_5_1_">
				<rect id="Rectángulo_6_1_" x="-1959.85" y="-4695.81" class="st1" width="98.18" height="13.68"/>
				<g id="Grupo_4_1_">
					<path id="Trazado_9_1_" class="st1" d="M-1992.05-4688.97c0.04-12.02-4.97-23.51-13.81-31.66v-17.43
						c27.11,16.48,35.73,51.81,19.26,78.92c-4.78,7.87-11.39,14.48-19.26,19.26v-17.44
						C-1997.02-4665.47-1992.02-4676.95-1992.05-4688.97z"/>
				</g>
			</g>
		</g>
		<g id="Grupo_9_1_" transform="translate(4.411)">
			<path id="Trazado_10_1_" class="st1" d="M-1967.31-4648.14c1.58,3.6,4.52,6.43,8.18,7.88c5.68,2.29,12.17,1.06,16.63-3.13
				c1.42-1.35,2.56-2.96,3.35-4.75c1.63-3.82,1.63-8.14,0-11.96c-0.79-1.79-1.93-3.4-3.35-4.75c-4.47-4.17-10.95-5.39-16.63-3.13
				c-1.81,0.72-3.46,1.78-4.86,3.13c-1.4,1.35-2.53,2.97-3.31,4.75C-1968.94-4656.28-1968.94-4651.96-1967.31-4648.14z"/>
			<g id="Grupo_7_1_" transform="translate(3.537 126.423)">
				<path id="Trazado_11_1_" class="st1" d="M-1956.77-4724.26c-12.02-0.04-23.5,4.97-31.65,13.81h-17.44
					c16.48-27.11,51.81-35.73,78.92-19.26c7.87,4.78,14.48,11.39,19.26,19.26h-17.44
					C-1933.27-4719.29-1944.75-4724.3-1956.77-4724.26z"/>
			</g>
			<g id="Grupo_8_1_">
				<path id="Trazado_12_1_" class="st1" d="M-1981.85-4738.06l-24.02,25.21l9.91,9.44l14.11-14.81l19.07,20.01l19.07-20.01
					l19.07,20.01l24.03-25.21l-9.9-9.44l-14.13,14.82l-19.07-20.01l-19.07,20.01L-1981.85-4738.06z"/>
			</g>
		</g>
	</g>
	<g id="Grupo_26_1_" transform="translate(1324 684.328)">
		
			<rect id="Rectángulo_5-2_1_" x="-1961" y="-4646.72" transform="matrix(0.7071 -0.7071 0.7071 0.7071 2712.5115 -2731.1833)" class="st1" width="40.85" height="13.68"/>
		<g id="Grupo_5-2_1_" transform="translate(0 0)">
			<rect id="Rectángulo_6-2_1_" x="-1959.85" y="-4695.81" class="st1" width="98.18" height="13.68"/>
			<g id="Grupo_4-2_1_">
				<path id="Trazado_9-2_1_" class="st1" d="M-1992.05-4688.97c0.04-12.02-4.97-23.5-13.81-31.65v-17.44
					c17.21,10.35,27.71,29,27.61,49.09c0.09,20.09-10.4,38.74-27.61,49.09v-17.44C-1997.02-4665.47-1992.02-4676.95-1992.05-4688.97
					z"/>
			</g>
		</g>
	</g>
	<g id="Grupo_35_1_" transform="translate(0 186)">
		<path id="Trazado_8-2_1_" class="st1" d="M-1453.95-4557.09c-2.94,6.98-8.59,12.47-15.66,15.19c-7.81,2.93-16.42,2.93-24.23,0
			c-3.55-1.37-6.8-3.44-9.54-6.08c-2.66-2.59-4.78-5.69-6.23-9.11c-2.98-7.22-2.98-15.32,0-22.54c1.45-3.42,3.57-6.52,6.23-9.11
			c2.74-2.64,5.99-4.71,9.54-6.08c7.81-2.93,16.42-2.93,24.23,0c14.7,6,21.76,22.78,15.76,37.49
			C-1453.89-4557.25-1453.92-4557.17-1453.95-4557.09L-1453.95-4557.09z M-1467.71-4574.34c-1.58-3.6-4.52-6.43-8.17-7.88
			c-5.68-2.29-12.17-1.07-16.63,3.13c-1.42,1.35-2.56,2.96-3.35,4.75c-1.63,3.82-1.63,8.14,0,11.95c0.79,1.79,1.93,3.4,3.35,4.75
			c1.42,1.35,3.08,2.41,4.9,3.13c3.77,1.49,7.96,1.49,11.73,0c1.81-0.72,3.46-1.78,4.86-3.13c1.4-1.36,2.53-2.97,3.31-4.75
			C-1466.07-4566.2-1466.07-4570.52-1467.71-4574.34L-1467.71-4574.34z"/>
		<rect id="Rectángulo_4-2_1_" x="-1488.62" y="-4653.98" class="st1" width="13.68" height="40.85"/>
	</g>
	<g id="Grupo_6-2_1_" transform="translate(592.19 791.365) rotate(180)">
		
			<rect id="Rectángulo_5-3_1_" x="2050.72" y="4829.41" transform="matrix(0.7071 -0.7071 0.7071 0.7071 -2813.1226 2881.0378)" class="st1" width="40.85" height="13.68"/>
		<g id="Grupo_5-3_1_">
			<rect id="Rectángulo_6-3_1_" x="2051.87" y="4780.31" class="st1" width="98.18" height="13.68"/>
			<g id="Grupo_4-3_1_">
				<path id="Trazado_9-3_1_" class="st1" d="M2019.67,4787.16c0.04-12.02-4.97-23.51-13.81-31.66v-17.43
					c27.11,16.48,35.73,51.81,19.26,78.92c-4.78,7.87-11.39,14.48-19.26,19.26v-17.44
					C2014.7,4810.66,2019.71,4799.17,2019.67,4787.16z"/>
			</g>
		</g>
	</g>
	<g id="Grupo_27_1_" transform="translate(1339.463 279.083)">
		<path id="Trazado_10-2_1_" class="st1" d="M-1967.31-4648.14c1.58,3.6,4.52,6.43,8.18,7.88c1.87,0.75,3.86,1.13,5.87,1.12
			c4,0.02,7.86-1.5,10.76-4.25c1.42-1.35,2.56-2.96,3.35-4.75c0.83-1.88,1.24-3.92,1.22-5.97c0.02-2.06-0.39-4.09-1.22-5.98
			c-0.79-1.79-1.93-3.4-3.35-4.75c-2.91-2.75-6.76-4.27-10.77-4.25c-2.01-0.01-4,0.37-5.87,1.11c-1.81,0.72-3.46,1.78-4.86,3.13
			c-1.4,1.36-2.53,2.97-3.31,4.75c-0.83,1.88-1.24,3.92-1.22,5.98C-1968.56-4652.07-1968.14-4650.03-1967.31-4648.14z"/>
		<g id="Grupo_7-2_1_" transform="translate(3.537 126.423)">
			<path id="Trazado_11-2_1_" class="st1" d="M-1956.77-4724.26c-12.02-0.04-23.5,4.97-31.65,13.81h-17.44
				c10.35-17.21,29-27.71,49.09-27.61c20.09-0.09,38.74,10.4,49.09,27.61h-17.44C-1933.27-4719.29-1944.75-4724.3-1956.77-4724.26z"
				/>
		</g>
		<g id="Grupo_8-2_1_">
			<path id="Trazado_12-2_1_" class="st1" d="M-1981.85-4738.06l-24.02,25.21l9.91,9.44l14.11-14.81l19.07,20.01l19.07-20.01
				l19.07,20.01l24.03-25.21l-9.9-9.44l-14.12,14.82l-19.07-20.02l-19.07,20.02L-1981.85-4738.06z"/>
		</g>
	</g>
	<g id="Grupo_25_1_" transform="translate(15.249)">
		<path id="Trazado_13_1_" class="st1" d="M-253.34-4557.09c-2.94,6.98-8.59,12.47-15.66,15.19c-7.81,2.93-16.42,2.93-24.23,0
			c-3.55-1.37-6.8-3.44-9.54-6.08c-2.66-2.59-4.78-5.69-6.23-9.11c-2.98-7.22-2.98-15.32,0-22.54c1.45-3.42,3.57-6.52,6.23-9.11
			c2.74-2.64,5.99-4.71,9.54-6.08c7.81-2.93,16.42-2.93,24.23,0c14.7,6,21.76,22.78,15.76,37.48
			C-253.27-4557.26-253.31-4557.18-253.34-4557.09L-253.34-4557.09z M-267.09-4574.34c-1.58-3.6-4.52-6.43-8.17-7.88
			c-3.77-1.49-7.97-1.49-11.74,0c-1.82,0.72-3.48,1.79-4.9,3.13c-1.42,1.35-2.56,2.96-3.35,4.75c-1.63,3.82-1.63,8.14,0,11.95
			c0.79,1.79,1.93,3.41,3.35,4.75c1.42,1.35,3.08,2.41,4.9,3.13c3.77,1.49,7.97,1.49,11.74,0c1.81-0.72,3.46-1.78,4.86-3.13
			c1.4-1.36,2.53-2.97,3.31-4.75C-265.46-4566.2-265.46-4570.52-267.09-4574.34z"/>
		<rect id="Rectángulo_7_1_" x="-288.01" y="-4653.98" class="st1" width="13.68" height="40.85"/>
		<g id="Grupo_13_1_" transform="translate(1602.612 487.904)">
			
				<rect id="Rectángulo_8_1_" x="-1947.38" y="-4725.63" transform="matrix(0.7071 -0.7071 0.7071 0.7071 2772.2932 -2744.6638)" class="st1" width="40.85" height="13.68"/>
			<g id="Grupo_12_1_" transform="translate(0 19.278)">
				<rect id="Rectángulo_9_1_" x="-2005.86" y="-4695.81" class="st1" width="98.18" height="13.68"/>
				<g id="Grupo_11_1_" transform="translate(116.577)">
					<path id="Trazado_14_1_" class="st1" d="M-1992.05-4688.97c-0.04,12.02,4.97,23.5,13.81,31.65v17.44
						c-27.11-16.47-35.74-51.81-19.26-78.92c4.78-7.87,11.39-14.48,19.26-19.26v17.44
						C-1987.08-4712.48-1992.09-4700.99-1992.05-4688.97z"/>
				</g>
			</g>
		</g>
		<g id="Grupo_16_1_" transform="translate(1645.084 856.573)">
			<path id="Trazado_15_1_" class="st1" d="M-1939.16-4673.95c-1.58-3.6-4.52-6.43-8.17-7.88c-5.68-2.29-12.17-1.07-16.63,3.13
				c-1.42,1.35-2.56,2.96-3.35,4.75c-1.63,3.82-1.63,8.14,0,11.95c0.79,1.79,1.93,3.41,3.35,4.75c1.42,1.35,3.08,2.41,4.9,3.13
				c3.77,1.49,7.97,1.49,11.74,0c1.81-0.72,3.46-1.78,4.86-3.13c1.4-1.36,2.53-2.97,3.31-4.75
				C-1937.52-4665.81-1937.52-4670.13-1939.16-4673.95L-1939.16-4673.95z"/>
			<g id="Grupo_14_1_" transform="translate(3.537)">
				<path id="Trazado_16_1_" class="st1" d="M-1956.77-4724.26c12.02,0.04,23.5-4.97,31.65-13.81h17.44
					c-16.48,27.11-51.81,35.73-78.92,19.26c-7.87-4.78-14.48-11.39-19.26-19.26h17.44
					C-1980.27-4729.23-1968.79-4724.22-1956.77-4724.26z"/>
			</g>
			<g id="Grupo_15_1_" transform="translate(0 114.188)">
				<path id="Trazado_17_1_" class="st1" d="M-1924.62-4698.22l24.02-25.21l-9.91-9.44l-14.11,14.81l-19.07-20.01l-19.07,20.02
					l-19.07-20.01l-24.03,25.21l9.9,9.44l14.12-14.82l19.08,20.01l19.07-20.01L-1924.62-4698.22z"/>
			</g>
		</g>
	</g>
</g>
<rect id="Rectángulo_51" x="-2005.33" y="-3354.49" class="st2" width="1919.83" height="1080"/>
<g id="Grupo_203" transform="translate(0 -7.083)">
	<g id="Grupo_10" transform="translate(150 84.083)">
		<path id="Trazado_8" class="st3" d="M-2003.1-2524.85c2.94-6.98,8.59-12.47,15.66-15.19c7.81-2.93,16.42-2.93,24.23,0
			c3.55,1.37,6.8,3.44,9.54,6.08c2.66,2.59,4.78,5.69,6.23,9.11c2.98,7.22,2.98,15.32,0,22.54c-1.45,3.42-3.57,6.52-6.23,9.11
			c-2.74,2.64-5.99,4.71-9.54,6.08c-7.81,2.93-16.42,2.93-24.23,0c-14.7-6-21.76-22.78-15.76-37.49
			C-2003.17-2524.69-2003.14-2524.77-2003.1-2524.85L-2003.1-2524.85z M-1989.35-2507.6c1.58,3.6,4.52,6.43,8.18,7.88
			c5.68,2.29,12.17,1.07,16.63-3.13c1.42-1.35,2.56-2.96,3.35-4.75c1.63-3.82,1.63-8.14,0-11.95c-0.79-1.79-1.93-3.4-3.35-4.75
			c-1.42-1.35-3.08-2.41-4.9-3.13c-3.77-1.49-7.96-1.49-11.73,0c-1.81,0.72-3.46,1.78-4.86,3.13c-1.4,1.36-2.53,2.97-3.31,4.75
			C-1990.98-2515.74-1990.98-2511.42-1989.35-2507.6L-1989.35-2507.6z"/>
		<rect id="Rectángulo_4" x="-1982.11" y="-2468.81" class="st3" width="13.68" height="40.85"/>
		<g id="Grupo_6" transform="translate(7.948 405.244)">
			
				<rect id="Rectángulo_5" x="-1960.47" y="-3263.14" transform="matrix(0.7071 -0.7071 0.7071 0.7071 1734.3275 -2325.5703)" class="st3" width="40.85" height="13.68"/>
			<g id="Grupo_5">
				<rect id="Rectángulo_6" x="-1959.33" y="-3312.24" class="st3" width="98.18" height="13.68"/>
				<g id="Grupo_4">
					<path id="Trazado_9" class="st3" d="M-1991.53-3305.39c0.04-12.02-4.97-23.51-13.81-31.66v-17.43
						c27.11,16.48,35.73,51.81,19.26,78.92c-4.78,7.87-11.39,14.48-19.26,19.26v-17.44
						C-1996.5-3281.89-1991.49-3293.37-1991.53-3305.39z"/>
				</g>
			</g>
		</g>
		<g id="Grupo_9" transform="translate(4.411)">
			<path id="Trazado_10" class="st3" d="M-1966.78-3264.57c1.58,3.6,4.52,6.43,8.17,7.88c5.68,2.29,12.17,1.06,16.63-3.13
				c1.42-1.35,2.56-2.96,3.35-4.75c1.63-3.82,1.63-8.14,0-11.96c-0.79-1.79-1.93-3.4-3.35-4.75c-4.47-4.17-10.95-5.39-16.63-3.13
				c-1.81,0.72-3.46,1.78-4.86,3.13c-1.4,1.35-2.53,2.97-3.31,4.75C-1968.42-3272.7-1968.42-3268.38-1966.78-3264.57z"/>
			<g id="Grupo_7" transform="translate(3.537 126.423)">
				<path id="Trazado_11" class="st3" d="M-1956.24-3340.68c-12.02-0.04-23.5,4.97-31.65,13.81h-17.44
					c16.48-27.11,51.81-35.73,78.92-19.26c7.87,4.78,14.48,11.39,19.26,19.26h-17.44
					C-1932.74-3335.71-1944.22-3340.72-1956.24-3340.68z"/>
			</g>
			<g id="Grupo_8">
				<path id="Trazado_12" class="st3" d="M-1981.32-3354.49l-24.02,25.21l9.91,9.44l14.11-14.81l19.07,20.01l19.07-20.01
					l19.07,20.01l24.03-25.21l-9.9-9.44l-14.13,14.82l-19.07-20.01l-19.07,20.01L-1981.32-3354.49z"/>
			</g>
		</g>
	</g>
	<g id="Grupo_26" transform="translate(1324 684.328)">
		
			<rect id="Rectángulo_5-2" x="-1960.47" y="-3263.14" transform="matrix(0.7071 -0.7071 0.7071 0.7071 1734.3275 -2325.5703)" class="st3" width="40.85" height="13.68"/>
		<g id="Grupo_5-2" transform="translate(0 0)">
			<rect id="Rectángulo_6-2" x="-1959.33" y="-3312.24" class="st3" width="98.18" height="13.68"/>
			<g id="Grupo_4-2">
				<path id="Trazado_9-2" class="st3" d="M-1991.53-3305.39c0.04-12.02-4.97-23.5-13.81-31.65v-17.44
					c17.21,10.35,27.71,29,27.61,49.09c0.09,20.09-10.4,38.74-27.61,49.09v-17.44C-1996.5-3281.89-1991.49-3293.37-1991.53-3305.39z
					"/>
			</g>
		</g>
	</g>
	<g id="Grupo_35" transform="translate(0 186)">
		<path id="Trazado_8-2" class="st3" d="M-1453.43-3173.51c-2.94,6.98-8.59,12.47-15.66,15.19c-7.81,2.93-16.42,2.93-24.23,0
			c-3.55-1.37-6.8-3.44-9.54-6.08c-2.66-2.59-4.78-5.69-6.23-9.11c-2.98-7.22-2.98-15.32,0-22.54c1.45-3.42,3.57-6.52,6.23-9.11
			c2.74-2.64,5.99-4.71,9.54-6.09c7.81-2.93,16.42-2.93,24.23,0c14.7,6,21.76,22.78,15.76,37.49
			C-1453.36-3173.67-1453.39-3173.59-1453.43-3173.51L-1453.43-3173.51z M-1467.18-3190.76c-1.58-3.6-4.52-6.43-8.18-7.88
			c-5.68-2.29-12.17-1.07-16.63,3.13c-1.42,1.35-2.56,2.96-3.35,4.75c-1.63,3.82-1.63,8.14,0,11.95c0.79,1.79,1.93,3.41,3.35,4.75
			c1.42,1.35,3.08,2.41,4.9,3.13c3.77,1.49,7.96,1.49,11.73,0c1.81-0.72,3.46-1.78,4.86-3.13c1.4-1.36,2.53-2.97,3.31-4.75
			C-1465.55-3182.62-1465.55-3186.94-1467.18-3190.76L-1467.18-3190.76z"/>
		<rect id="Rectángulo_4-2" x="-1488.1" y="-3270.4" class="st3" width="13.68" height="40.85"/>
	</g>
	<g id="Grupo_6-2" transform="translate(592.19 791.365) rotate(180)">
		
			<rect id="Rectángulo_5-3" x="2050.2" y="3445.83" transform="matrix(0.7071 -0.7071 0.7071 0.7071 -1834.9362 2475.4224)" class="st3" width="40.85" height="13.68"/>
		<g id="Grupo_5-3">
			<rect id="Rectángulo_6-3" x="2051.34" y="3396.74" class="st3" width="98.18" height="13.68"/>
			<g id="Grupo_4-3">
				<path id="Trazado_9-3" class="st3" d="M2019.14,3403.58c0.04-12.02-4.97-23.51-13.81-31.66v-17.43
					c27.11,16.48,35.73,51.81,19.26,78.92c-4.78,7.87-11.39,14.48-19.26,19.26v-17.44
					C2014.17,3427.08,2019.18,3415.6,2019.14,3403.58z"/>
			</g>
		</g>
	</g>
	<g id="Grupo_27" transform="translate(1339.463 279.083)">
		<path id="Trazado_10-2" class="st3" d="M-1966.78-3264.57c1.58,3.6,4.52,6.43,8.18,7.88c1.87,0.75,3.86,1.13,5.87,1.12
			c4,0.02,7.86-1.5,10.77-4.25c1.42-1.35,2.56-2.96,3.35-4.75c0.83-1.88,1.24-3.92,1.22-5.97c0.02-2.06-0.39-4.09-1.22-5.98
			c-0.79-1.79-1.93-3.4-3.35-4.75c-2.91-2.75-6.76-4.27-10.77-4.25c-2.01-0.01-4,0.37-5.87,1.11c-1.81,0.72-3.46,1.78-4.86,3.13
			c-1.4,1.36-2.53,2.97-3.31,4.75c-0.83,1.88-1.24,3.92-1.22,5.98C-1968.03-3268.49-1967.61-3266.45-1966.78-3264.57z"/>
		<g id="Grupo_7-2" transform="translate(3.537 126.423)">
			<path id="Trazado_11-2" class="st3" d="M-1956.24-3340.68c-12.02-0.04-23.5,4.97-31.65,13.81h-17.44
				c10.35-17.21,29-27.71,49.09-27.61c20.09-0.09,38.74,10.4,49.09,27.61h-17.44C-1932.74-3335.71-1944.22-3340.72-1956.24-3340.68z
				"/>
		</g>
		<g id="Grupo_8-2">
			<path id="Trazado_12-2" class="st3" d="M-1981.32-3354.49l-24.02,25.21l9.91,9.44l14.11-14.81l19.07,20.01l19.07-20.01
				l19.07,20.01l24.03-25.21l-9.9-9.44l-14.12,14.82l-19.07-20.02l-19.07,20.02L-1981.32-3354.49z"/>
		</g>
	</g>
	<g id="Grupo_25" transform="translate(15.249)">
		<path id="Trazado_13" class="st3" d="M-252.82-3173.51c-2.94,6.98-8.59,12.47-15.66,15.19c-7.81,2.93-16.42,2.93-24.23,0
			c-3.55-1.37-6.8-3.44-9.54-6.08c-2.66-2.59-4.78-5.69-6.23-9.11c-2.98-7.22-2.98-15.32,0-22.54c1.45-3.42,3.57-6.52,6.23-9.11
			c2.74-2.64,5.99-4.71,9.54-6.08c7.81-2.93,16.42-2.93,24.23,0c14.7,6,21.76,22.78,15.76,37.48
			C-252.75-3173.68-252.78-3173.6-252.82-3173.51L-252.82-3173.51z M-266.57-3190.76c-1.58-3.6-4.52-6.43-8.17-7.88
			c-3.77-1.49-7.97-1.49-11.74,0c-1.82,0.72-3.48,1.79-4.9,3.13c-1.42,1.35-2.56,2.96-3.35,4.75c-1.63,3.82-1.63,8.14,0,11.95
			c0.79,1.79,1.93,3.41,3.35,4.75c1.42,1.35,3.08,2.41,4.9,3.13c3.77,1.49,7.97,1.49,11.74,0c1.81-0.72,3.46-1.78,4.86-3.13
			c1.4-1.36,2.53-2.97,3.31-4.75C-264.94-3182.62-264.94-3186.94-266.57-3190.76z"/>
		<rect id="Rectángulo_7" x="-287.49" y="-3270.4" class="st3" width="13.68" height="40.85"/>
		<g id="Grupo_13" transform="translate(1602.612 487.904)">
			
				<rect id="Rectángulo_8" x="-1946.85" y="-3342.05" transform="matrix(0.7071 -0.7071 0.7071 0.7071 1794.1094 -2339.0508)" class="st3" width="40.85" height="13.68"/>
			<g id="Grupo_12" transform="translate(0 19.278)">
				<rect id="Rectángulo_9" x="-2005.33" y="-3312.23" class="st3" width="98.18" height="13.68"/>
				<g id="Grupo_11" transform="translate(116.577)">
					<path id="Trazado_14" class="st3" d="M-1991.53-3305.39c-0.04,12.02,4.97,23.5,13.81,31.65v17.44
						c-27.11-16.47-35.74-51.81-19.26-78.92c4.78-7.87,11.39-14.48,19.26-19.26v17.44
						C-1986.56-3328.9-1991.57-3317.41-1991.53-3305.39z"/>
				</g>
			</g>
		</g>
		<g id="Grupo_16" transform="translate(1645.084 856.573)">
			<path id="Trazado_15" class="st3" d="M-1938.63-3290.37c-1.58-3.6-4.52-6.43-8.17-7.88c-5.68-2.29-12.17-1.07-16.63,3.13
				c-1.42,1.35-2.56,2.96-3.35,4.75c-1.63,3.82-1.63,8.14,0,11.95c0.79,1.79,1.93,3.41,3.35,4.75c1.42,1.35,3.08,2.41,4.9,3.13
				c3.77,1.49,7.97,1.49,11.74,0c1.81-0.72,3.46-1.78,4.86-3.13c1.4-1.36,2.53-2.97,3.31-4.75
				C-1936.99-3282.23-1936.99-3286.55-1938.63-3290.37L-1938.63-3290.37z"/>
			<g id="Grupo_14" transform="translate(3.537)">
				<path id="Trazado_16" class="st3" d="M-1956.25-3340.68c12.02,0.04,23.5-4.97,31.65-13.81h17.44
					c-16.48,27.11-51.81,35.73-78.92,19.26c-7.87-4.78-14.48-11.39-19.26-19.26h17.44
					C-1979.75-3345.65-1968.26-3340.64-1956.25-3340.68z"/>
			</g>
			<g id="Grupo_15" transform="translate(0 114.188)">
				<path id="Trazado_17" class="st3" d="M-1924.09-3314.64l24.02-25.21l-9.91-9.44l-14.11,14.81l-19.07-20.01l-19.07,20.02
					l-19.07-20.01l-24.03,25.21l9.9,9.44l14.12-14.82l19.08,20.01l19.07-20.01L-1924.09-3314.64z"/>
			</g>
		</g>
	</g>
</g>
<rect id="Rectángulo_32_1_" x="-2006.33" y="-1961.49" class="st4" width="1919.83" height="1080"/>
<g id="Grupo_199_1_" transform="translate(0 -7.083)">
	<g id="Grupo_10_3_" transform="translate(150 84.083)">
		<path id="Trazado_8_3_" class="st5" d="M-2004.1-1131.85c2.94-6.98,8.59-12.47,15.66-15.19c7.81-2.93,16.42-2.93,24.23,0
			c3.55,1.37,6.8,3.44,9.54,6.08c2.66,2.59,4.78,5.69,6.23,9.11c2.98,7.22,2.98,15.32,0,22.54c-1.45,3.42-3.57,6.52-6.23,9.11
			c-2.74,2.64-5.99,4.71-9.54,6.09c-7.81,2.93-16.42,2.93-24.23,0c-14.7-6-21.76-22.78-15.76-37.49
			C-2004.17-1131.69-2004.14-1131.77-2004.1-1131.85L-2004.1-1131.85z M-1990.35-1114.6c1.58,3.6,4.52,6.43,8.18,7.88
			c5.68,2.29,12.17,1.07,16.63-3.13c1.42-1.35,2.56-2.96,3.35-4.75c1.63-3.82,1.63-8.14,0-11.95c-0.79-1.79-1.93-3.4-3.35-4.75
			c-1.42-1.35-3.08-2.41-4.9-3.13c-3.77-1.49-7.96-1.49-11.73,0c-1.81,0.72-3.46,1.78-4.86,3.13c-1.4,1.36-2.53,2.97-3.31,4.75
			C-1991.98-1122.74-1991.98-1118.42-1990.35-1114.6L-1990.35-1114.6z"/>
		<rect id="Rectángulo_4_3_" x="-1983.11" y="-1075.81" class="st5" width="13.68" height="40.85"/>
		<g id="Grupo_6_3_" transform="translate(7.948 405.244)">
			
				<rect id="Rectángulo_5_3_" x="-1961.47" y="-1870.14" transform="matrix(0.7071 -0.7071 0.7071 0.7071 749.0349 -1918.2771)" class="st5" width="40.85" height="13.68"/>
			<g id="Grupo_5_3_">
				<rect id="Rectángulo_6_3_" x="-1960.33" y="-1919.24" class="st5" width="98.18" height="13.68"/>
				<g id="Grupo_4_3_">
					<path id="Trazado_9_3_" class="st5" d="M-1992.53-1912.39c0.04-12.02-4.97-23.51-13.81-31.66v-17.43
						c27.11,16.48,35.73,51.81,19.26,78.92c-4.78,7.87-11.39,14.48-19.26,19.26v-17.44
						C-1997.5-1888.89-1992.49-1900.37-1992.53-1912.39z"/>
				</g>
			</g>
		</g>
		<g id="Grupo_9_3_" transform="translate(4.411)">
			<path id="Trazado_10_3_" class="st5" d="M-1967.78-1871.57c1.58,3.6,4.52,6.43,8.17,7.88c5.68,2.29,12.17,1.06,16.63-3.13
				c1.42-1.35,2.56-2.96,3.35-4.75c1.63-3.82,1.63-8.14,0-11.95c-0.79-1.79-1.93-3.4-3.35-4.75c-4.47-4.17-10.95-5.39-16.63-3.13
				c-1.81,0.72-3.46,1.78-4.86,3.13c-1.4,1.36-2.53,2.97-3.31,4.75C-1969.42-1879.7-1969.42-1875.38-1967.78-1871.57z"/>
			<g id="Grupo_7_3_" transform="translate(3.537 126.423)">
				<path id="Trazado_11_3_" class="st5" d="M-1957.24-1947.68c-12.02-0.04-23.5,4.97-31.65,13.81h-17.44
					c16.48-27.11,51.81-35.73,78.92-19.26c7.87,4.78,14.48,11.39,19.26,19.26h-17.44
					C-1933.74-1942.71-1945.22-1947.72-1957.24-1947.68z"/>
			</g>
			<g id="Grupo_8_3_">
				<path id="Trazado_12_3_" class="st5" d="M-1982.32-1961.49l-24.02,25.21l9.91,9.44l14.11-14.81l19.07,20.01l19.07-20.01
					l19.07,20.01l24.03-25.21l-9.9-9.44l-14.13,14.82l-19.07-20.01l-19.07,20.01L-1982.32-1961.49z"/>
			</g>
		</g>
	</g>
	<g id="Grupo_26_3_" transform="translate(1324 684.328)">
		
			<rect id="Rectángulo_5-2_3_" x="-1961.47" y="-1870.14" transform="matrix(0.7071 -0.7071 0.7071 0.7071 749.0349 -1918.2771)" class="st5" width="40.85" height="13.68"/>
		<g id="Grupo_5-2_3_" transform="translate(0 0)">
			<rect id="Rectángulo_6-2_3_" x="-1960.33" y="-1919.24" class="st5" width="98.18" height="13.68"/>
			<g id="Grupo_4-2_3_">
				<path id="Trazado_9-2_3_" class="st5" d="M-1992.53-1912.39c0.04-12.02-4.97-23.5-13.81-31.65v-17.44
					c17.21,10.35,27.71,29,27.61,49.09c0.09,20.09-10.4,38.74-27.61,49.09v-17.44C-1997.5-1888.89-1992.49-1900.37-1992.53-1912.39z
					"/>
			</g>
		</g>
	</g>
	<g id="Grupo_35_3_" transform="translate(0 186)">
		<path id="Trazado_8-2_3_" class="st5" d="M-1454.43-1780.51c-2.94,6.98-8.59,12.47-15.66,15.19c-7.81,2.93-16.42,2.93-24.23,0
			c-3.55-1.37-6.8-3.44-9.54-6.08c-2.66-2.59-4.78-5.69-6.23-9.11c-2.98-7.22-2.98-15.32,0-22.54c1.45-3.42,3.57-6.52,6.23-9.11
			c2.74-2.64,5.99-4.71,9.54-6.08c7.81-2.93,16.42-2.93,24.23,0c14.7,6,21.76,22.78,15.76,37.49
			C-1454.36-1780.67-1454.39-1780.59-1454.43-1780.51L-1454.43-1780.51z M-1468.18-1797.76c-1.58-3.6-4.52-6.43-8.18-7.88
			c-5.68-2.29-12.17-1.07-16.63,3.13c-1.42,1.35-2.56,2.96-3.35,4.75c-1.63,3.82-1.63,8.14,0,11.95c0.79,1.79,1.93,3.4,3.35,4.75
			c1.42,1.35,3.08,2.41,4.9,3.13c3.77,1.49,7.96,1.49,11.73,0c1.81-0.72,3.46-1.78,4.86-3.13c1.4-1.36,2.53-2.97,3.31-4.75
			C-1466.55-1789.62-1466.55-1793.94-1468.18-1797.76L-1468.18-1797.76z"/>
		<rect id="Rectángulo_4-2_3_" x="-1489.1" y="-1877.4" class="st5" width="13.68" height="40.85"/>
	</g>
	<g id="Grupo_6-2_3_" transform="translate(592.19 791.365) rotate(180)">
		
			<rect id="Rectángulo_5-3_3_" x="2051.2" y="2052.83" transform="matrix(0.7071 -0.7071 0.7071 0.7071 -849.641 2068.1267)" class="st5" width="40.85" height="13.68"/>
		<g id="Grupo_5-3_3_">
			<rect id="Rectángulo_6-3_3_" x="2052.34" y="2003.74" class="st5" width="98.18" height="13.68"/>
			<g id="Grupo_4-3_3_">
				<path id="Trazado_9-3_3_" class="st5" d="M2020.14,2010.58c0.04-12.02-4.97-23.51-13.81-31.66v-17.43
					c27.11,16.48,35.73,51.81,19.26,78.92c-4.78,7.87-11.39,14.48-19.26,19.26v-17.44
					C2015.17,2034.08,2020.18,2022.6,2020.14,2010.58z"/>
			</g>
		</g>
	</g>
	<g id="Grupo_27_3_" transform="translate(1339.463 279.083)">
		<path id="Trazado_10-2_3_" class="st5" d="M-1967.78-1871.57c1.58,3.6,4.52,6.43,8.18,7.88c1.87,0.75,3.86,1.13,5.87,1.12
			c4,0.02,7.86-1.5,10.77-4.25c1.42-1.35,2.56-2.96,3.35-4.75c0.83-1.88,1.24-3.92,1.22-5.97c0.02-2.06-0.39-4.09-1.22-5.98
			c-0.79-1.79-1.93-3.4-3.35-4.75c-2.91-2.75-6.76-4.27-10.77-4.25c-2.01-0.01-4,0.37-5.87,1.11c-1.81,0.72-3.46,1.78-4.86,3.13
			c-1.4,1.36-2.53,2.97-3.31,4.75c-0.83,1.88-1.24,3.92-1.22,5.98C-1969.03-1875.49-1968.61-1873.45-1967.78-1871.57z"/>
		<g id="Grupo_7-2_3_" transform="translate(3.537 126.423)">
			<path id="Trazado_11-2_3_" class="st5" d="M-1957.24-1947.68c-12.02-0.04-23.5,4.97-31.65,13.81h-17.44
				c10.35-17.21,29-27.71,49.09-27.61c20.09-0.09,38.74,10.4,49.09,27.61h-17.44C-1933.74-1942.71-1945.22-1947.72-1957.24-1947.68z
				"/>
		</g>
		<g id="Grupo_8-2_3_">
			<path id="Trazado_12-2_3_" class="st5" d="M-1982.32-1961.49l-24.02,25.21l9.91,9.44l14.11-14.81l19.07,20.01l19.07-20.01
				l19.07,20.01l24.03-25.21l-9.9-9.44l-14.12,14.82l-19.07-20.02l-19.07,20.02L-1982.32-1961.49z"/>
		</g>
	</g>
	<g id="Grupo_25_3_" transform="translate(15.249)">
		<path id="Trazado_13_3_" class="st5" d="M-253.82-1780.51c-2.94,6.98-8.59,12.47-15.66,15.19c-7.81,2.93-16.42,2.93-24.23,0
			c-3.55-1.37-6.8-3.44-9.54-6.08c-2.66-2.59-4.78-5.69-6.23-9.11c-2.98-7.22-2.98-15.32,0-22.54c1.45-3.42,3.57-6.52,6.23-9.11
			c2.74-2.64,5.99-4.71,9.54-6.09c7.81-2.93,16.42-2.93,24.23,0c14.7,6,21.76,22.78,15.76,37.48
			C-253.75-1780.68-253.78-1780.6-253.82-1780.51L-253.82-1780.51z M-267.57-1797.76c-1.58-3.6-4.52-6.43-8.17-7.88
			c-3.77-1.49-7.97-1.49-11.74,0c-1.82,0.72-3.48,1.79-4.9,3.13c-1.42,1.35-2.56,2.96-3.35,4.75c-1.63,3.82-1.63,8.14,0,11.95
			c0.79,1.79,1.93,3.41,3.35,4.75c1.42,1.35,3.08,2.41,4.9,3.13c3.77,1.49,7.97,1.49,11.74,0c1.81-0.72,3.46-1.78,4.86-3.13
			c1.4-1.36,2.53-2.97,3.31-4.75C-265.94-1789.62-265.94-1793.94-267.57-1797.76z"/>
		<rect id="Rectángulo_7_3_" x="-288.49" y="-1877.4" class="st5" width="13.68" height="40.85"/>
		<g id="Grupo_13_3_" transform="translate(1602.612 487.904)">
			
				<rect id="Rectángulo_8_3_" x="-1947.85" y="-1949.05" transform="matrix(0.7071 -0.7071 0.7071 0.7071 808.8168 -1931.7576)" class="st5" width="40.85" height="13.68"/>
			<g id="Grupo_12_3_" transform="translate(0 19.278)">
				<rect id="Rectángulo_9_3_" x="-2006.33" y="-1919.23" class="st5" width="98.18" height="13.68"/>
				<g id="Grupo_11_3_" transform="translate(116.577)">
					<path id="Trazado_14_3_" class="st5" d="M-1992.53-1912.39c-0.04,12.02,4.97,23.5,13.81,31.65v17.44
						c-27.11-16.47-35.74-51.81-19.26-78.92c4.78-7.87,11.39-14.48,19.26-19.26v17.44
						C-1987.56-1935.9-1992.57-1924.41-1992.53-1912.39z"/>
				</g>
			</g>
		</g>
		<g id="Grupo_16_3_" transform="translate(1645.084 856.573)">
			<path id="Trazado_15_3_" class="st5" d="M-1939.63-1897.37c-1.58-3.6-4.52-6.43-8.17-7.88c-5.68-2.29-12.17-1.07-16.63,3.13
				c-1.42,1.35-2.56,2.96-3.35,4.75c-1.63,3.82-1.63,8.14,0,11.95c0.79,1.79,1.93,3.41,3.35,4.75c1.42,1.35,3.08,2.41,4.9,3.13
				c3.77,1.49,7.97,1.49,11.74,0c1.81-0.72,3.46-1.78,4.86-3.13c1.4-1.36,2.53-2.97,3.31-4.75
				C-1937.99-1889.23-1937.99-1893.55-1939.63-1897.37L-1939.63-1897.37z"/>
			<g id="Grupo_14_3_" transform="translate(3.537)">
				<path id="Trazado_16_3_" class="st5" d="M-1957.25-1947.68c12.02,0.04,23.5-4.97,31.65-13.81h17.44
					c-16.48,27.11-51.81,35.73-78.92,19.26c-7.87-4.78-14.48-11.39-19.26-19.26h17.44
					C-1980.75-1952.65-1969.26-1947.64-1957.25-1947.68z"/>
			</g>
			<g id="Grupo_15_3_" transform="translate(0 114.188)">
				<path id="Trazado_17_3_" class="st5" d="M-1925.09-1921.64l24.02-25.21l-9.91-9.44l-14.11,14.81l-19.07-20.01l-19.07,20.02
					l-19.07-20.01l-24.03,25.21l9.9,9.44l14.12-14.82l19.08,20.01l19.07-20.01L-1925.09-1921.64z"/>
			</g>
		</g>
	</g>
</g>
<rect id="Rectángulo_3" x="-2005.62" y="-592.33" class="st6" width="1920.4" height="1080"/>
<g id="Grupo_196">
	<g id="Grupo_10_2_" transform="translate(150 84.083)">
		<path id="Trazado_8_2_" class="st7" d="M-2003.39,237.31c2.94-6.98,8.59-12.47,15.66-15.19c7.81-2.93,16.42-2.93,24.23,0
			c3.55,1.37,6.8,3.44,9.54,6.08c2.66,2.59,4.78,5.69,6.23,9.11c2.98,7.22,2.98,15.32,0,22.54c-1.45,3.42-3.57,6.52-6.23,9.11
			c-2.74,2.64-5.99,4.71-9.54,6.09c-7.81,2.93-16.42,2.93-24.23,0c-14.7-6-21.76-22.78-15.76-37.49
			C-2003.46,237.47-2003.42,237.39-2003.39,237.31L-2003.39,237.31z M-1989.64,254.56c1.58,3.6,4.52,6.43,8.18,7.88
			c5.68,2.29,12.17,1.07,16.63-3.13c1.42-1.35,2.56-2.96,3.35-4.75c1.63-3.82,1.63-8.14,0-11.95c-0.79-1.79-1.93-3.4-3.35-4.75
			c-1.42-1.35-3.08-2.41-4.9-3.13c-3.77-1.49-7.96-1.49-11.73,0c-1.81,0.72-3.46,1.78-4.86,3.13c-1.4,1.36-2.53,2.97-3.31,4.75
			C-1991.27,246.42-1991.27,250.74-1989.64,254.56L-1989.64,254.56z"/>
		<rect id="Rectángulo_4_2_" x="-1982.4" y="293.35" class="st7" width="13.68" height="40.85"/>
		<g id="Grupo_6_2_" transform="translate(7.948 405.244)">
			
				<rect id="Rectángulo_5_2_" x="-1960.76" y="-500.99" transform="matrix(0.7071 -0.7071 0.7071 0.7071 -218.8966 -1516.7544)" class="st7" width="40.85" height="13.68"/>
			<g id="Grupo_5_2_">
				<rect id="Rectángulo_6_2_" x="-1959.61" y="-550.08" class="st7" width="98.18" height="13.68"/>
				<g id="Grupo_4_2_">
					<path id="Trazado_9_2_" class="st7" d="M-1991.81-543.24c0.04-12.02-4.97-23.51-13.81-31.66v-17.43
						c27.11,16.48,35.73,51.81,19.26,78.92c-4.78,7.87-11.39,14.48-19.26,19.26v-17.44
						C-1996.78-519.73-1991.77-531.22-1991.81-543.24z"/>
				</g>
			</g>
		</g>
		<g id="Grupo_9_2_" transform="translate(4.411)">
			<path id="Trazado_10_2_" class="st7" d="M-1967.07-502.41c1.58,3.6,4.52,6.43,8.18,7.88c5.68,2.29,12.17,1.06,16.63-3.13
				c1.42-1.35,2.56-2.96,3.35-4.75c1.63-3.82,1.63-8.14,0-11.96c-0.79-1.79-1.93-3.4-3.35-4.75c-4.47-4.17-10.95-5.39-16.63-3.13
				c-1.81,0.72-3.46,1.78-4.86,3.13c-1.4,1.36-2.53,2.97-3.31,4.75C-1968.7-510.54-1968.7-506.23-1967.07-502.41z"/>
			<g id="Grupo_7_2_" transform="translate(3.537 126.423)">
				<path id="Trazado_11_2_" class="st7" d="M-1956.53-578.52c-12.02-0.04-23.5,4.97-31.65,13.81h-17.44
					c16.48-27.11,51.81-35.73,78.92-19.26c7.87,4.78,14.48,11.39,19.26,19.26h-17.44C-1933.02-573.55-1944.51-578.56-1956.53-578.52
					z"/>
			</g>
			<g id="Grupo_8_2_">
				<path id="Trazado_12_2_" class="st7" d="M-1981.6-592.33l-24.02,25.21l9.91,9.44l14.11-14.81l19.07,20.01l19.07-20.01
					l19.07,20.01l24.03-25.21l-9.9-9.44l-14.13,14.82l-19.07-20.01l-19.07,20.01L-1981.6-592.33z"/>
			</g>
		</g>
	</g>
	<g id="Grupo_26_2_" transform="translate(1324 684.328)">
		
			<rect id="Rectángulo_5-2_2_" x="-1960.76" y="-500.99" transform="matrix(0.7071 -0.7071 0.7071 0.7071 -218.8966 -1516.7544)" class="st7" width="40.85" height="13.68"/>
		<g id="Grupo_5-2_2_" transform="translate(0 0)">
			<rect id="Rectángulo_6-2_2_" x="-1959.61" y="-550.08" class="st7" width="98.18" height="13.68"/>
			<g id="Grupo_4-2_2_">
				<path id="Trazado_9-2_2_" class="st7" d="M-1991.81-543.24c0.04-12.02-4.97-23.5-13.81-31.65v-17.44
					c17.21,10.35,27.71,29,27.61,49.09c0.09,20.09-10.4,38.74-27.61,49.09v-17.44C-1996.78-519.73-1991.77-531.22-1991.81-543.24z"
					/>
			</g>
		</g>
	</g>
	<g id="Grupo_35_2_" transform="translate(0 186)">
		<path id="Trazado_8-2_2_" class="st7" d="M-1453.71-411.35c-2.94,6.98-8.59,12.47-15.66,15.19c-7.81,2.93-16.42,2.93-24.23,0
			c-3.55-1.37-6.8-3.44-9.54-6.08c-2.66-2.59-4.78-5.69-6.23-9.11c-2.98-7.22-2.98-15.32,0-22.54c1.45-3.42,3.57-6.52,6.23-9.11
			c2.74-2.64,5.99-4.71,9.54-6.09c7.81-2.93,16.42-2.93,24.23,0c14.7,6,21.76,22.78,15.76,37.49
			C-1453.64-411.52-1453.68-411.44-1453.71-411.35L-1453.71-411.35z M-1467.46-428.6c-1.58-3.6-4.52-6.43-8.17-7.88
			c-5.68-2.29-12.17-1.07-16.63,3.13c-1.42,1.35-2.56,2.96-3.35,4.75c-1.63,3.82-1.63,8.14,0,11.95c0.79,1.79,1.93,3.4,3.35,4.75
			c1.42,1.35,3.08,2.41,4.9,3.13c3.77,1.49,7.96,1.49,11.73,0c1.81-0.72,3.46-1.78,4.86-3.13c1.4-1.36,2.53-2.97,3.31-4.75
			C-1465.83-420.47-1465.83-424.78-1467.46-428.6L-1467.46-428.6z"/>
		<rect id="Rectángulo_4-2_2_" x="-1488.38" y="-508.24" class="st7" width="13.68" height="40.85"/>
	</g>
	<g id="Grupo_6-2_2_" transform="translate(592.19 791.365) rotate(180)">
		
			<rect id="Rectángulo_5-3_2_" x="2050.48" y="683.67" transform="matrix(0.7071 -0.7071 0.7071 0.7071 118.2929 1666.6016)" class="st7" width="40.85" height="13.68"/>
		<g id="Grupo_5-3_2_">
			<rect id="Rectángulo_6-3_2_" x="2051.63" y="634.58" class="st7" width="98.18" height="13.68"/>
			<g id="Grupo_4-3_2_">
				<path id="Trazado_9-3_2_" class="st7" d="M2019.43,641.42c0.04-12.02-4.97-23.51-13.81-31.66v-17.43
					c27.11,16.48,35.73,51.81,19.26,78.92c-4.78,7.87-11.39,14.48-19.26,19.26v-17.44C2014.45,664.92,2019.46,653.44,2019.43,641.42
					z"/>
			</g>
		</g>
	</g>
	<g id="Grupo_27_2_" transform="translate(1339.463 279.083)">
		<path id="Trazado_10-2_2_" class="st7" d="M-1967.07-502.41c1.58,3.6,4.52,6.43,8.18,7.88c1.87,0.75,3.86,1.13,5.87,1.12
			c4,0.02,7.86-1.5,10.76-4.25c1.42-1.35,2.56-2.96,3.35-4.75c0.83-1.88,1.24-3.92,1.22-5.97c0.02-2.06-0.39-4.09-1.22-5.98
			c-0.79-1.79-1.93-3.4-3.35-4.75c-2.91-2.75-6.76-4.27-10.77-4.25c-2.01-0.01-4,0.37-5.87,1.11c-1.81,0.72-3.46,1.78-4.86,3.13
			c-1.4,1.36-2.53,2.97-3.31,4.75c-0.83,1.88-1.24,3.92-1.22,5.98C-1968.31-506.33-1967.9-504.29-1967.07-502.41z"/>
		<g id="Grupo_7-2_2_" transform="translate(3.537 126.423)">
			<path id="Trazado_11-2_2_" class="st7" d="M-1956.53-578.52c-12.02-0.04-23.5,4.97-31.65,13.81h-17.44
				c10.35-17.21,29-27.71,49.09-27.61c20.09-0.09,38.74,10.4,49.09,27.61h-17.44C-1933.02-573.55-1944.51-578.56-1956.53-578.52z"/>
		</g>
		<g id="Grupo_8-2_2_">
			<path id="Trazado_12-2_2_" class="st7" d="M-1981.6-592.33l-24.02,25.21l9.91,9.44l14.11-14.81l19.07,20.01l19.07-20.01
				l19.07,20.01l24.03-25.21l-9.9-9.44l-14.12,14.82l-19.07-20.02l-19.07,20.02L-1981.6-592.33z"/>
		</g>
	</g>
	<g id="Grupo_25_2_" transform="translate(15.249)">
		<path id="Trazado_13_2_" class="st7" d="M-253.1-411.35c-2.94,6.98-8.59,12.47-15.66,15.19c-7.81,2.93-16.42,2.93-24.23,0
			c-3.55-1.37-6.8-3.44-9.54-6.08c-2.66-2.59-4.78-5.69-6.23-9.11c-2.98-7.22-2.98-15.32,0-22.54c1.45-3.42,3.57-6.52,6.23-9.11
			c2.74-2.64,5.99-4.71,9.54-6.08c7.81-2.93,16.42-2.93,24.23,0c14.7,6,21.76,22.78,15.76,37.48
			C-253.03-411.52-253.06-411.44-253.1-411.35L-253.1-411.35z M-266.85-428.6c-1.58-3.6-4.52-6.43-8.17-7.88
			c-3.77-1.49-7.97-1.49-11.74,0c-1.82,0.72-3.48,1.79-4.9,3.13c-1.42,1.35-2.56,2.96-3.35,4.75c-1.63,3.82-1.63,8.14,0,11.95
			c0.79,1.79,1.93,3.41,3.35,4.75c1.42,1.35,3.08,2.41,4.9,3.13c3.77,1.49,7.97,1.49,11.74,0c1.81-0.72,3.46-1.78,4.86-3.13
			c1.4-1.36,2.53-2.97,3.31-4.75C-265.22-420.47-265.22-424.79-266.85-428.6z"/>
		<rect id="Rectángulo_7_2_" x="-287.77" y="-508.24" class="st7" width="13.68" height="40.85"/>
		<g id="Grupo_13_2_" transform="translate(1602.612 487.904)">
			
				<rect id="Rectángulo_8_2_" x="-1947.14" y="-579.89" transform="matrix(0.7071 -0.7071 0.7071 0.7071 -159.1146 -1530.2349)" class="st7" width="40.85" height="13.68"/>
			<g id="Grupo_12_2_" transform="translate(0 19.278)">
				<rect id="Rectángulo_9_2_" x="-2005.62" y="-550.08" class="st7" width="98.18" height="13.68"/>
				<g id="Grupo_11_2_" transform="translate(116.577)">
					<path id="Trazado_14_2_" class="st7" d="M-1991.81-543.24c-0.04,12.02,4.97,23.5,13.81,31.65v17.44
						c-27.11-16.47-35.74-51.81-19.26-78.92c4.78-7.87,11.39-14.48,19.26-19.26v17.44
						C-1986.84-566.74-1991.85-555.26-1991.81-543.24z"/>
				</g>
			</g>
		</g>
		<g id="Grupo_16_2_" transform="translate(1645.084 856.573)">
			<path id="Trazado_15_2_" class="st7" d="M-1938.91-528.21c-1.58-3.6-4.52-6.43-8.17-7.88c-5.68-2.29-12.17-1.07-16.63,3.13
				c-1.42,1.35-2.56,2.96-3.35,4.75c-1.63,3.82-1.63,8.14,0,11.95c0.79,1.79,1.93,3.41,3.35,4.75c1.42,1.35,3.08,2.41,4.9,3.13
				c3.77,1.49,7.97,1.49,11.74,0c1.81-0.72,3.46-1.78,4.86-3.13c1.4-1.36,2.53-2.97,3.31-4.75
				C-1937.28-520.08-1937.28-524.39-1938.91-528.21L-1938.91-528.21z"/>
			<g id="Grupo_14_2_" transform="translate(3.537)">
				<path id="Trazado_16_2_" class="st7" d="M-1956.53-578.52c12.02,0.04,23.5-4.97,31.65-13.81h17.44
					c-16.48,27.11-51.81,35.73-78.92,19.26c-7.87-4.78-14.48-11.39-19.26-19.26h17.44
					C-1980.03-583.49-1968.55-578.48-1956.53-578.52z"/>
			</g>
			<g id="Grupo_15_2_" transform="translate(0 114.188)">
				<path id="Trazado_17_2_" class="st7" d="M-1924.38-552.48l24.02-25.21l-9.91-9.44l-14.11,14.81l-19.07-20.01l-19.07,20.02
					l-19.07-20.01l-24.03,25.21l9.9,9.44l14.12-14.82l19.08,20.01l19.07-20.01L-1924.38-552.48z"/>
			</g>
		</g>
	</g>
</g>
<path id="Rectángulo_28_1_" class="st8" d="M128.85-3985.59h251.78c37.5,0,67.9,30.4,67.9,67.9l0,0c0,37.5-30.4,67.9-67.9,67.9
	H128.85c-37.5,0-67.9-30.4-67.9-67.9l0,0C60.95-3955.19,91.35-3985.59,128.85-3985.59z"/>
<circle id="Elipse_18_1_" class="st3" cx="233.52" cy="-3920.26" r="6.06"/>
<circle id="Elipse_19_1_" class="st3" cx="275.96" cy="-3920.26" r="6.06"/>
<line id="Línea_10_1_" class="st9" x1="227.46" y1="-3933.2" x2="239.58" y2="-3933.2"/>
<line id="Línea_11_1_" class="st9" x1="269.89" y1="-3933.2" x2="282.02" y2="-3933.2"/>
<line id="Línea_12_1_" class="st9" x1="240.77" y1="-3902.19" x2="269.75" y2="-3902.19"/>
<circle id="Elipse_20_1_" class="st3" cx="356.32" cy="-3922.84" r="6.06"/>
<circle id="Elipse_21_1_" class="st3" cx="398.75" cy="-3922.84" r="6.06"/>
<path id="Trazado_49_1_" class="st9" d="M363.57-3897.54c0,0,13.2-16.05,28.98-0.27"/>
<line id="Línea_13_1_" class="st9" x1="350.62" y1="-3933.7" x2="362.02" y2="-3937.85"/>
<line id="Línea_14_1_" class="st9" x1="393.06" y1="-3937.85" x2="404.45" y2="-3933.7"/>
<circle id="Elipse_22_4_" class="st3" cx="109.92" cy="-3920.84" r="6.06"/>
<path id="Trazado_50_4_" class="st9" d="M103.86-3933.78c0-3.35,2.71-6.06,6.06-6.06s6.06,2.71,6.06,6.06"/>
<path id="Trazado_51_4_" class="st9" d="M146.29-3933.78c0.04-3.35,2.79-6.03,6.14-5.99c3.29,0.04,5.94,2.7,5.99,5.99"/>
<circle id="Elipse_23_4_" class="st3" cx="152.36" cy="-3920.84" r="6.06"/>
<path id="Trazado_52_4_" class="st9" d="M146.16-3902.76c0,0-13.2,16.05-28.98,0.27"/>
<circle id="Elipse_17_1_" class="st8" cx="253.95" cy="-4487.22" r="51.74"/>
<circle id="Elipse_27_1_" class="st10" cx="907.79" cy="-4477.27" r="51.74"/>
<circle id="Elipse_34_1_" class="st11" cx="908.79" cy="-3916.96" r="51.74"/>
<circle id="Elipse_17" class="st12" cx="1553" cy="-4205.85" r="51.74"/>
<g id="Grupo_206_2_" transform="translate(-761.504 -930.93)">
	<circle id="Elipse_51_2_" class="st6" cx="1187.4" cy="-2160.4" r="32.38"/>
	<g id="Grupo_106_2_" transform="translate(778.662 948.619)">
		<line id="Línea_31_2_" class="st13" x1="423.96" y1="-3109.02" x2="393.52" y2="-3109.02"/>
		<path id="Trazado_101_2_" class="st13" d="M409.27-3123.7l14.69,14.69l-14.69,14.69"/>
	</g>
</g>
<g id="Grupo_206_1_" transform="translate(-761.504 -930.93)">
	<circle id="Elipse_51_1_" class="st6" cx="951.4" cy="-2160.4" r="32.38"/>
	<g id="Grupo_106_1_" transform="translate(778.662 948.619)">
		<line id="Línea_31_1_" class="st13" x1="187.96" y1="-3109.02" x2="157.52" y2="-3109.02"/>
		<path id="Trazado_101_1_" class="st13" d="M172.21-3094.33l-14.69-14.69l14.69-14.69"/>
	</g>
</g>
<g id="Grupo_207_1_" transform="translate(-852.941 -931.283)">
	<path id="Rectángulo_65_1_" class="st6" d="M1031.36-1620.38h150.94c17.67,0,32,14.33,32,32v0.05c0,17.67-14.33,32-32,32h-150.94
		c-17.67,0-32-14.33-32-32v-0.05C999.36-1606.06,1013.69-1620.38,1031.36-1620.38z"/>
	<text transform="matrix(1 0 0 1 1041.0432 -1583.0222)" class="st2" style="font-family:'SegoeUI'; font-size:21px;">Ver en Netflix</text>
</g>
<g id="Grupo_208" transform="translate(-1091.976 -930.93)">
	<circle id="Elipse_52" class="st6" cx="1273.87" cy="-1913.71" r="32.38"/>
	<g id="Grupo_108" transform="translate(1109.666 948.088)">
		<path id="Trazado_102" class="st13" d="M153.77-2866.36v19.78h20.86v-19.78"/>
		<path id="Trazado_103" class="st13" d="M149.52-2862.33l14.69-14.69l14.69,14.69"/>
	</g>
</g>
<g id="Grupo_209" transform="translate(-854.092 -931.284)">
	<path id="Rectángulo_109" class="st6" d="M1443.52-1620.38h150.94c17.67,0,32,14.33,32,32v0.05c0,17.67-14.33,32-32,32h-150.94
		c-17.67,0-32-14.33-32-32v-0.05C1411.52-1606.06,1425.84-1620.38,1443.52-1620.38z"/>
	<text transform="matrix(1 0 0 1 1443.4232 -1583.0222)" class="st2" style="font-family:'SegoeUI'; font-size:21px;">Abrir en Spotify</text>
</g>
<g id="Grupo_187" transform="translate(-198 -430)">
	<circle id="Elipse_27" class="st10" cx="1127.41" cy="-2403.14" r="51.74"/>
	<circle id="Elipse_28" class="st3" cx="1105.66" cy="-2408.28" r="6.06"/>
	<circle id="Elipse_29" class="st3" cx="1148.1" cy="-2408.28" r="6.06"/>
	<path id="Trazado_54" class="st9" d="M1112.92-2382.99c0,0,13.2-16.05,28.98-0.27"/>
	<line id="Línea_19" class="st9" x1="1099.97" y1="-2419.15" x2="1111.36" y2="-2423.3"/>
	<line id="Línea_20" class="st9" x1="1142.4" y1="-2423.3" x2="1153.79" y2="-2419.15"/>
</g>
<circle id="Elipse_34" class="st10" cx="1184.38" cy="-2833.14" r="51.74"/>
<path id="Trazado_186" class="st9" d="M1205.54-2835.69c0,11.56-9.38,20.93-20.94,20.93c-11.56,0-20.92-9.37-20.93-20.93"/>
<line id="Línea_40" class="st9" x1="1184.6" y1="-2814.64" x2="1184.6" y2="-2795.98"/>
<line id="Línea_41" class="st9" x1="1171.85" y1="-2795.98" x2="1197.84" y2="-2795.98"/>
<path id="Rectángulo_112" class="st9" d="M1184.6-2871.14L1184.6-2871.14c7.05,0,12.76,5.71,12.76,12.76v22.07
	c0,7.05-5.71,12.76-12.76,12.76l0,0c-7.05,0-12.76-5.71-12.76-12.76v-22.07C1171.85-2865.43,1177.56-2871.14,1184.6-2871.14z"/>
<line id="Línea_42" class="st9" x1="1171.85" y1="-2856.54" x2="1178.67" y2="-2856.54"/>
<line id="Línea_44" class="st9" x1="1171.85" y1="-2847.56" x2="1178.67" y2="-2847.56"/>
<line id="Línea_45" class="st9" x1="1171.85" y1="-2838.58" x2="1178.67" y2="-2838.58"/>
<line id="Línea_46" class="st9" x1="1190.54" y1="-2856.54" x2="1197.36" y2="-2856.54"/>
<line id="Línea_48" class="st9" x1="1190.54" y1="-2847.56" x2="1197.36" y2="-2847.56"/>
<line id="Línea_49" class="st9" x1="1190.54" y1="-2838.58" x2="1197.36" y2="-2838.58"/>
<circle id="Elipse_34_2_" class="st11" cx="1432.38" cy="-2833.14" r="51.74"/>
<path id="Trazado_186_1_" class="st9" d="M1453.54-2835.69c0,11.56-9.38,20.93-20.94,20.93c-11.56,0-20.92-9.37-20.93-20.93"/>
<line id="Línea_40_1_" class="st9" x1="1432.6" y1="-2814.64" x2="1432.6" y2="-2795.98"/>
<line id="Línea_41_1_" class="st9" x1="1419.85" y1="-2795.98" x2="1445.84" y2="-2795.98"/>
<path id="Rectángulo_112_1_" class="st9" d="M1432.6-2871.14L1432.6-2871.14c7.05,0,12.76,5.71,12.76,12.76v22.07
	c0,7.05-5.71,12.76-12.76,12.76l0,0c-7.05,0-12.76-5.71-12.76-12.76v-22.07C1419.85-2865.43,1425.56-2871.14,1432.6-2871.14z"/>
<line id="Línea_42_1_" class="st9" x1="1419.85" y1="-2856.54" x2="1426.67" y2="-2856.54"/>
<line id="Línea_44_1_" class="st9" x1="1419.85" y1="-2847.56" x2="1426.67" y2="-2847.56"/>
<line id="Línea_45_1_" class="st9" x1="1419.85" y1="-2838.58" x2="1426.67" y2="-2838.58"/>
<line id="Línea_46_1_" class="st9" x1="1438.54" y1="-2856.54" x2="1445.36" y2="-2856.54"/>
<line id="Línea_48_1_" class="st9" x1="1438.54" y1="-2847.56" x2="1445.36" y2="-2847.56"/>
<line id="Línea_49_1_" class="st9" x1="1438.54" y1="-2838.58" x2="1445.36" y2="-2838.58"/>
<circle id="Elipse_27-2" class="st8" cx="929.41" cy="-2832.14" r="51.74"/>
<circle id="Elipse_28-2" class="st3" cx="907.66" cy="-2837.28" r="6.06"/>
<circle id="Elipse_29-2" class="st3" cx="950.1" cy="-2837.28" r="6.06"/>
<path id="Trazado_54-2" class="st9" d="M914.92-2811.99c0,0,13.2-16.05,28.98-0.27"/>
<line id="Línea_19-2" class="st9" x1="901.97" y1="-2848.15" x2="913.36" y2="-2852.3"/>
<line id="Línea_20-2" class="st9" x1="944.4" y1="-2852.3" x2="955.8" y2="-2848.15"/>
<circle id="Elipse_27-2_2_" class="st10" cx="1184.41" cy="-3091.14" r="51.74"/>
<circle id="Elipse_22_3_" class="st3" cx="1163.46" cy="-3094.54" r="6.06"/>
<path id="Trazado_50_3_" class="st9" d="M1157.41-3107.48c0-3.35,2.71-6.06,6.06-6.06s6.06,2.71,6.06,6.06"/>
<path id="Trazado_51_3_" class="st9" d="M1199.84-3107.48c0.04-3.35,2.79-6.03,6.14-5.99c3.29,0.04,5.94,2.7,5.99,5.99"/>
<circle id="Elipse_23_3_" class="st3" cx="1205.9" cy="-3094.54" r="6.06"/>
<path id="Trazado_52_3_" class="st9" d="M1199.7-3076.46c0,0-13.2,16.05-28.98,0.27"/>
<circle id="Elipse_33" class="st10" cx="1435.21" cy="-3088.22" r="51.74"/>
<g id="Grupo_173" transform="translate(-524.864 -221.357)">
	<path id="Trazado_187" class="st14" d="M1947.16-2884.78"/>
	<path id="Trazado_188" class="st9" d="M1983.56-2888.78c0-2.39-1.68-4.45-4.02-4.93c-0.21-2.61-2.39-4.63-5.01-4.63
		c-0.25,0-0.5,0.02-0.75,0.06c-4.39-1.12-8.55-3.02-12.29-5.59c-2.41,0-4.47,1.7-4.94,4.07c-2.53,2.46-6.42,2.86-9.39,0.96
		c-2.78,0-5.03,2.25-5.03,5.03l0,0c0,0.02,0,0.03,0,0.05c-0.23-0.03-0.45-0.05-0.68-0.05c-2.78,0-5.03,2.25-5.03,5.03l0,0"/>
	<g id="Grupo_172">
		<path id="Trazado_189" class="st9" d="M1978.85-2830.33h-37.32l-4.06-43.44h45.34L1978.85-2830.33z"/>
		<circle id="Elipse_68" class="st9" cx="1960" cy="-2852.05" r="10.36"/>
		<line id="Línea_50" class="st9" x1="1951.43" y1="-2873.77" x2="1951.91" y2="-2858.52"/>
		<line id="Línea_51" class="st9" x1="1968.55" y1="-2873.77" x2="1968.04" y2="-2858.59"/>
		<line id="Línea_52" class="st9" x1="1952.34" y1="-2845.08" x2="1952.81" y2="-2830.33"/>
		<line id="Línea_53" class="st9" x1="1967.58" y1="-2845.08" x2="1967.09" y2="-2830.33"/>
		<rect id="Rectángulo_113" x="1935.29" y="-2882.13" class="st9" width="49.65" height="8.36"/>
	</g>
	<path id="Trazado_190" class="st9" d="M1948.9-2889.06c0.8-2.02,3.1-3.01,5.12-2.21"/>
	<path id="Trazado_191" class="st9" d="M1966.51-2892.31c2.05-0.73,4.31,0.35,5.03,2.4"/>
</g>
<g id="Grupo_187_1_" transform="translate(-198 -430)">
	<circle id="Elipse_27_2_" class="st10" cx="624.41" cy="-2403.14" r="51.74"/>
	<circle id="Elipse_28_1_" class="st3" cx="602.66" cy="-2408.28" r="6.06"/>
	<circle id="Elipse_29_1_" class="st3" cx="645.1" cy="-2408.28" r="6.06"/>
	<path id="Trazado_54_1_" class="st9" d="M609.92-2382.99c0,0,13.2-16.05,28.98-0.27"/>
	<line id="Línea_19_1_" class="st9" x1="596.97" y1="-2419.15" x2="608.36" y2="-2423.3"/>
	<line id="Línea_20_1_" class="st9" x1="639.4" y1="-2423.3" x2="650.79" y2="-2419.15"/>
</g>
<circle id="Elipse_27-2_3_" class="st15" cx="426.41" cy="-2832.14" r="51.74"/>
<circle id="Elipse_28-2_1_" class="st3" cx="404.66" cy="-2837.28" r="6.06"/>
<circle id="Elipse_29-2_1_" class="st3" cx="447.1" cy="-2837.28" r="6.06"/>
<path id="Trazado_54-2_1_" class="st9" d="M411.92-2811.99c0,0,13.2-16.05,28.98-0.27"/>
<line id="Línea_19-2_1_" class="st9" x1="398.97" y1="-2848.15" x2="410.36" y2="-2852.3"/>
<line id="Línea_20-2_1_" class="st9" x1="441.4" y1="-2852.3" x2="452.8" y2="-2848.15"/>
<circle id="Elipse_27-2_1_" class="st15" cx="681.41" cy="-3091.14" r="51.74"/>
<circle id="Elipse_22_1_" class="st3" cx="660.46" cy="-3094.54" r="6.06"/>
<path id="Trazado_50_1_" class="st9" d="M654.41-3107.48c0-3.35,2.71-6.06,6.06-6.06s6.06,2.71,6.06,6.06"/>
<path id="Trazado_51_1_" class="st9" d="M696.84-3107.48c0.04-3.35,2.79-6.03,6.14-5.99c3.29,0.04,5.94,2.7,5.99,5.99"/>
<circle id="Elipse_23_1_" class="st3" cx="702.9" cy="-3094.54" r="6.06"/>
<path id="Trazado_52_1_" class="st9" d="M696.7-3076.46c0,0-13.2,16.05-28.98,0.27"/>
<circle id="Elipse_33_1_" class="st11" cx="1679.21" cy="-3088.22" r="51.74"/>
<g id="Grupo_173_1_" transform="translate(-524.864 -221.357)">
	<path id="Trazado_187_1_" class="st14" d="M2191.16-2884.78"/>
	<path id="Trazado_188_1_" class="st9" d="M2227.56-2888.78c0-2.39-1.68-4.45-4.02-4.93c-0.21-2.61-2.39-4.63-5.01-4.63
		c-0.25,0-0.5,0.02-0.75,0.06c-4.39-1.12-8.55-3.02-12.29-5.59c-2.41,0-4.47,1.7-4.94,4.07c-2.53,2.46-6.42,2.86-9.39,0.96
		c-2.78,0-5.03,2.25-5.03,5.03l0,0c0,0.02,0,0.03,0,0.05c-0.23-0.03-0.45-0.05-0.68-0.05c-2.78,0-5.03,2.25-5.03,5.03l0,0"/>
	<g id="Grupo_172_1_">
		<path id="Trazado_189_1_" class="st9" d="M2222.85-2830.33h-37.32l-4.06-43.44h45.34L2222.85-2830.33z"/>
		<circle id="Elipse_68_1_" class="st9" cx="2204" cy="-2852.05" r="10.36"/>
		<line id="Línea_50_1_" class="st9" x1="2195.43" y1="-2873.77" x2="2195.91" y2="-2858.52"/>
		<line id="Línea_51_1_" class="st9" x1="2212.55" y1="-2873.77" x2="2212.04" y2="-2858.59"/>
		<line id="Línea_52_1_" class="st9" x1="2196.34" y1="-2845.08" x2="2196.81" y2="-2830.33"/>
		<line id="Línea_53_1_" class="st9" x1="2211.58" y1="-2845.08" x2="2211.09" y2="-2830.33"/>
		<rect id="Rectángulo_113_1_" x="2179.29" y="-2882.13" class="st9" width="49.65" height="8.36"/>
	</g>
	<path id="Trazado_190_1_" class="st9" d="M2192.9-2889.06c0.8-2.02,3.1-3.01,5.12-2.21"/>
	<path id="Trazado_191_1_" class="st9" d="M2210.51-2892.31c2.05-0.73,4.31,0.35,5.03,2.4"/>
</g>
<g id="Grupo_188_2_" transform="translate(152 -432)">
	<circle id="Elipse_34_3_" class="st15" cx="529.38" cy="-2401.14" r="51.74"/>
	<g id="Grupo_174_2_" transform="translate(2.001)">
		<path id="Trazado_186_3_" class="st16" d="M548.54-2403.69c0,11.56-9.38,20.93-20.94,20.93c-11.56,0-20.92-9.37-20.93-20.93"/>
		<line id="Línea_40_3_" class="st9" x1="527.6" y1="-2382.64" x2="527.6" y2="-2363.98"/>
		<line id="Línea_41_3_" class="st9" x1="514.84" y1="-2363.98" x2="540.84" y2="-2363.98"/>
		<path id="Rectángulo_112_3_" class="st16" d="M527.6-2439.14L527.6-2439.14c7.05,0,12.76,5.71,12.76,12.76v22.07
			c0,7.05-5.71,12.76-12.76,12.76l0,0c-7.05,0-12.76-5.71-12.76-12.76v-22.07C514.84-2433.43,520.56-2439.14,527.6-2439.14z"/>
		<line id="Línea_42_3_" class="st9" x1="514.84" y1="-2424.54" x2="521.67" y2="-2424.54"/>
		<line id="Línea_44_3_" class="st9" x1="514.84" y1="-2415.56" x2="521.67" y2="-2415.56"/>
		<line id="Línea_45_3_" class="st9" x1="514.84" y1="-2406.58" x2="521.67" y2="-2406.58"/>
		<line id="Línea_46_3_" class="st9" x1="533.54" y1="-2424.54" x2="540.36" y2="-2424.54"/>
		<line id="Línea_48_3_" class="st9" x1="533.54" y1="-2415.56" x2="540.36" y2="-2415.56"/>
		<line id="Línea_49_3_" class="st9" x1="533.54" y1="-2406.58" x2="540.36" y2="-2406.58"/>
	</g>
</g>
<circle id="Elipse_33_2_" class="st15" cx="932.21" cy="-3088.22" r="51.74"/>
<g id="Grupo_173_3_" transform="translate(-524.864 -221.357)">
	<path id="Trazado_187_3_" class="st14" d="M1444.16-2884.78"/>
	<path id="Trazado_188_3_" class="st9" d="M1480.56-2888.78c0-2.39-1.68-4.45-4.02-4.93c-0.21-2.61-2.39-4.63-5.01-4.63
		c-0.25,0-0.5,0.02-0.75,0.06c-4.39-1.12-8.55-3.02-12.29-5.59c-2.41,0-4.47,1.7-4.94,4.07c-2.53,2.46-6.42,2.86-9.39,0.96
		c-2.78,0-5.03,2.25-5.03,5.03l0,0c0,0.02,0,0.03,0,0.05c-0.23-0.03-0.45-0.05-0.68-0.05c-2.78,0-5.03,2.25-5.03,5.03l0,0"/>
	<g id="Grupo_172_3_">
		<path id="Trazado_189_3_" class="st9" d="M1475.85-2830.33h-37.32l-4.06-43.44h45.34L1475.85-2830.33z"/>
		<circle id="Elipse_68_3_" class="st9" cx="1457" cy="-2852.05" r="10.36"/>
		<line id="Línea_50_3_" class="st9" x1="1448.43" y1="-2873.77" x2="1448.91" y2="-2858.52"/>
		<line id="Línea_51_3_" class="st9" x1="1465.55" y1="-2873.77" x2="1465.04" y2="-2858.59"/>
		<line id="Línea_52_3_" class="st9" x1="1449.34" y1="-2845.08" x2="1449.81" y2="-2830.33"/>
		<line id="Línea_53_3_" class="st9" x1="1464.58" y1="-2845.08" x2="1464.09" y2="-2830.33"/>
		<rect id="Rectángulo_113_3_" x="1432.29" y="-2882.13" class="st9" width="49.65" height="8.36"/>
	</g>
	<path id="Trazado_190_3_" class="st9" d="M1445.9-2889.06c0.8-2.02,3.1-3.01,5.12-2.21"/>
	<path id="Trazado_191_3_" class="st9" d="M1463.51-2892.31c2.05-0.73,4.31,0.35,5.03,2.4"/>
</g>
<path id="Rectángulo_37_1_" class="st12" d="M198.11-1765.96h129.04c37.5,0,67.9,30.4,67.9,67.9l0,0c0,37.5-30.4,67.9-67.9,67.9
	H198.11c-37.5,0-67.9-30.4-67.9-67.9l0,0C130.22-1735.56,160.62-1765.96,198.11-1765.96z"/>
<g id="Grupo_174_1_" transform="translate(-820.998 -467.103)">
	<path id="Trazado_186_4_" class="st9" d="M1043.09-1233.5c0,11.56-9.38,20.93-20.94,20.93c-11.56,0-20.92-9.37-20.93-20.93"/>
	<line id="Línea_40_4_" class="st9" x1="1022.15" y1="-1212.46" x2="1022.15" y2="-1193.8"/>
	<line id="Línea_41_4_" class="st9" x1="1009.39" y1="-1193.8" x2="1035.39" y2="-1193.8"/>
	<path id="Rectángulo_112_4_" class="st9" d="M1022.15-1268.96L1022.15-1268.96c7.05,0,12.76,5.71,12.76,12.76v22.07
		c0,7.05-5.71,12.76-12.76,12.76l0,0c-7.05,0-12.76-5.71-12.76-12.76v-22.07C1009.39-1263.25,1015.11-1268.96,1022.15-1268.96z"/>
	<line id="Línea_42_4_" class="st9" x1="1009.39" y1="-1254.35" x2="1016.22" y2="-1254.35"/>
	<line id="Línea_44_4_" class="st9" x1="1009.39" y1="-1245.38" x2="1016.22" y2="-1245.38"/>
	<line id="Línea_45_4_" class="st9" x1="1009.39" y1="-1236.4" x2="1016.22" y2="-1236.4"/>
	<line id="Línea_46_4_" class="st9" x1="1028.09" y1="-1254.35" x2="1034.91" y2="-1254.35"/>
	<line id="Línea_48_4_" class="st9" x1="1028.09" y1="-1245.38" x2="1034.91" y2="-1245.38"/>
	<line id="Línea_49_4_" class="st9" x1="1028.09" y1="-1236.4" x2="1034.91" y2="-1236.4"/>
</g>
<g id="Grupo_173_4_" transform="translate(-535.864 214.643)">
	<path id="Trazado_187_4_" class="st14" d="M846.96-1930.62"/>
	<path id="Trazado_188_4_" class="st9" d="M883.35-1934.62c0-2.39-1.68-4.45-4.02-4.93c-0.21-2.61-2.39-4.63-5.01-4.63
		c-0.25,0-0.5,0.02-0.75,0.06c-4.39-1.12-8.55-3.02-12.29-5.59c-2.41,0-4.47,1.7-4.94,4.07c-2.53,2.46-6.42,2.86-9.39,0.96
		c-2.78,0-5.03,2.25-5.03,5.03v0c0,0.02,0,0.03,0,0.05c-0.23-0.03-0.45-0.05-0.68-0.05c-2.78,0-5.03,2.25-5.03,5.03l0,0"/>
	<g id="Grupo_172_4_">
		<path id="Trazado_189_4_" class="st9" d="M878.65-1876.17h-37.32l-4.06-43.44h45.34L878.65-1876.17z"/>
		<circle id="Elipse_68_4_" class="st9" cx="859.8" cy="-1897.89" r="10.36"/>
		<line id="Línea_50_4_" class="st9" x1="851.23" y1="-1919.61" x2="851.71" y2="-1904.36"/>
		<line id="Línea_51_4_" class="st9" x1="868.34" y1="-1919.61" x2="867.83" y2="-1904.43"/>
		<line id="Línea_52_4_" class="st9" x1="852.14" y1="-1890.93" x2="852.61" y2="-1876.17"/>
		<line id="Línea_53_4_" class="st9" x1="867.38" y1="-1890.93" x2="866.88" y2="-1876.17"/>
		<rect id="Rectángulo_113_4_" x="835.08" y="-1927.97" class="st9" width="49.65" height="8.36"/>
	</g>
	<path id="Trazado_190_4_" class="st9" d="M848.69-1934.9c0.8-2.02,3.1-3.01,5.12-2.21"/>
	<path id="Trazado_191_4_" class="st9" d="M866.3-1938.15c2.05-0.73,4.31,0.35,5.03,2.4"/>
</g>
<circle id="Elipse_53_1_" class="st2" cx="50.47" cy="-1315.7" r="25.74"/>
<path id="Rectángulo_73_1_" class="st6" d="M50.47-1326.42L50.47-1326.42c0.97,0,1.76,0.79,1.76,1.76v17.92
	c0,0.97-0.79,1.76-1.76,1.76l0,0c-0.97,0-1.76-0.79-1.76-1.76v-17.92C48.71-1325.63,49.5-1326.42,50.47-1326.42z"/>
<path id="Rectángulo_74_1_" class="st6" d="M61.19-1315.7L61.19-1315.7c0,0.97-0.79,1.76-1.76,1.76H41.51
	c-0.97,0-1.76-0.79-1.76-1.76l0,0c0-0.97,0.79-1.76,1.76-1.76h17.92C60.41-1317.46,61.19-1316.67,61.19-1315.7z"/>
<circle id="Elipse_60" class="st6" cx="255.47" cy="-1317.85" r="25.74"/>
<path id="Rectángulo_97" class="st2" d="M255.47-1328.57L255.47-1328.57c0.97,0,1.76,0.79,1.76,1.76v17.92
	c0,0.97-0.79,1.76-1.76,1.76l0,0c-0.97,0-1.76-0.79-1.76-1.76v-17.92C253.71-1327.79,254.5-1328.57,255.47-1328.57z"/>
<path id="Rectángulo_98" class="st2" d="M266.19-1317.85L266.19-1317.85c0,0.97-0.79,1.76-1.76,1.76h-17.92
	c-0.97,0-1.76-0.79-1.76-1.76l0,0c0-0.97,0.79-1.76,1.76-1.76h17.92C265.41-1319.61,266.19-1318.83,266.19-1317.85z"/>
<path id="Trazado_124_1_" class="st2" d="M124.82-251.78c19.59,0,35.47-15.88,35.47-35.47c0.06-56.26,45.66-101.86,101.92-101.92
	c56.26,0.06,101.86,45.66,101.92,101.92c0,19.59,15.88,35.47,35.47,35.47c19.59,0,35.47-15.88,35.47-35.47
	c0.13-45.87-18.11-89.88-50.63-122.23c-32.35-32.52-76.36-50.76-122.23-50.63c-45.87-0.13-89.88,18.11-122.23,50.63
	c-32.52,32.35-50.75,76.36-50.63,122.23C89.35-267.66,105.23-251.78,124.82-251.78C124.82-251.78,124.82-251.78,124.82-251.78z"/>
<g>
	<g id="Grupo_132_1_" transform="translate(47.033 54.45)">
		<path id="Trazado_125_1_" class="st6" d="M211.59,216.76c6.61-0.02,12.93,2.74,17.41,7.6h9.59c-5.69-9.47-15.95-15.24-27-15.19
			c-11.05-0.05-21.31,5.72-27,15.19h9.59C198.66,219.5,204.98,216.74,211.59,216.76z"/>
	</g>
	<path id="Trazado_126_1_" class="st6" d="M184.58,255.75l5.07-30.1h7.68l5.98,16.05l5.94-16.05h7.69l5.07,30.1h-7.72l-2.57-17.33
		l-7.05,17.33h-3.09l-6.69-17.33l-2.57,17.33H184.58z"/>
	<path id="Trazado_127_1_" class="st6" d="M223.68,239.98c-0.02-2.13,0.4-4.24,1.23-6.2c0.79-1.88,1.95-3.58,3.41-5.01
		c1.49-1.45,3.27-2.59,5.21-3.35c2.13-0.82,4.39-1.24,6.67-1.21c2.28-0.02,4.53,0.39,6.66,1.21c1.95,0.75,3.74,1.89,5.25,3.35
		c1.46,1.43,2.63,3.13,3.43,5.01c0.83,1.96,1.25,4.07,1.23,6.2c0.02,2.13-0.4,4.24-1.23,6.2c-0.8,1.88-1.96,3.59-3.43,5.01
		c-1.51,1.45-3.29,2.59-5.25,3.35c-2.12,0.82-4.38,1.23-6.66,1.21c-2.28,0.03-4.55-0.38-6.67-1.21c-1.94-0.76-3.71-1.89-5.21-3.35
		c-1.46-1.43-2.61-3.13-3.41-5.01C224.08,244.22,223.66,242.11,223.68,239.98z M231.8,239.98c-0.01,1.13,0.22,2.25,0.68,3.29
		c0.43,0.98,1.05,1.87,1.82,2.62c0.77,0.74,1.68,1.33,2.67,1.72c1.03,0.41,2.12,0.62,3.23,0.61c1.11,0.01,2.2-0.2,3.23-0.61
		c1-0.4,1.91-0.98,2.69-1.72c0.78-0.74,1.41-1.63,1.84-2.62c0.46-1.04,0.68-2.16,0.67-3.29c0.01-1.13-0.22-2.25-0.67-3.29
		c-0.44-0.98-1.06-1.87-1.84-2.61c-0.78-0.74-1.7-1.32-2.69-1.72c-1.03-0.41-2.12-0.62-3.23-0.61c-1.11-0.01-2.2,0.2-3.23,0.61
		c-0.99,0.39-1.9,0.98-2.67,1.72c-0.77,0.75-1.39,1.63-1.82,2.61C232.02,237.73,231.79,238.85,231.8,239.98z"/>
	<path id="Trazado_128_1_" class="st6" d="M260.67,239.98c-0.02-2.13,0.4-4.24,1.23-6.2c0.79-1.88,1.95-3.58,3.41-5.01
		c1.49-1.45,3.27-2.59,5.21-3.35c2.13-0.83,4.39-1.24,6.68-1.21c2.27-0.02,4.53,0.39,6.65,1.21c1.96,0.75,3.74,1.89,5.25,3.35
		c1.46,1.42,2.63,3.13,3.43,5.01c0.83,1.96,1.24,4.07,1.23,6.2c0.02,2.13-0.4,4.24-1.23,6.2c-0.8,1.88-1.96,3.59-3.43,5.01
		c-1.51,1.46-3.29,2.59-5.25,3.35c-2.12,0.82-4.38,1.23-6.65,1.21c-2.28,0.03-4.55-0.38-6.68-1.21c-1.94-0.76-3.71-1.89-5.21-3.35
		c-1.46-1.43-2.61-3.13-3.41-5.01C261.07,244.22,260.65,242.11,260.67,239.98z M268.79,239.98c-0.01,1.13,0.22,2.25,0.67,3.29
		c0.43,0.98,1.05,1.87,1.82,2.62c0.77,0.74,1.68,1.33,2.67,1.72c1.03,0.41,2.12,0.62,3.23,0.61c1.11,0.01,2.2-0.2,3.23-0.61
		c1-0.4,1.91-0.98,2.69-1.72c0.78-0.74,1.41-1.63,1.84-2.62c0.46-1.03,0.69-2.16,0.68-3.29c0.01-1.13-0.22-2.25-0.68-3.29
		c-0.44-0.98-1.06-1.87-1.84-2.61c-0.78-0.74-1.69-1.32-2.69-1.72c-1.03-0.41-2.12-0.62-3.23-0.61c-1.11-0.01-2.2,0.2-3.23,0.61
		c-0.99,0.4-1.9,0.98-2.67,1.72c-0.77,0.75-1.39,1.63-1.82,2.61C269.01,237.73,268.78,238.85,268.79,239.98L268.79,239.98z"/>
	<path id="Trazado_129_1_" class="st6" d="M297.65,225.64h11.49c1.98-0.01,3.93,0.41,5.72,1.24c1.75,0.8,3.33,1.92,4.67,3.29
		c1.34,1.38,2.41,3.01,3.15,4.79c0.76,1.81,1.15,3.76,1.15,5.73c0,1.95-0.38,3.89-1.13,5.69c-0.73,1.79-1.79,3.42-3.13,4.81
		c-1.34,1.39-2.92,2.51-4.67,3.31c-1.81,0.83-3.77,1.25-5.76,1.24h-11.49L297.65,225.64z M305.42,249.12h1.78
		c1.23,0.02,2.45-0.2,3.6-0.64c1.01-0.39,1.92-0.99,2.68-1.76c0.73-0.76,1.3-1.66,1.66-2.65c0.39-1.08,0.59-2.22,0.57-3.37
		c0.01-1.14-0.19-2.28-0.59-3.35c-0.37-1-0.94-1.91-1.68-2.67c-0.76-0.77-1.67-1.36-2.67-1.76c-1.14-0.44-2.35-0.66-3.56-0.64h-1.78
		L305.42,249.12z"/>
	<rect id="Rectángulo_83_1_" x="231.65" y="209.17" class="st6" width="22.47" height="7.53"/>
	<rect id="Rectángulo_84_1_" x="263.31" y="209.17" class="st6" width="22.47" height="7.53"/>
</g>
<g>
	<g id="Grupo_98" transform="translate(47.035 54.451)">
		<path id="Trazado_90" class="st6" d="M816.39-79.47c-6.61,0.02-12.93-2.73-17.41-7.59h-9.59c9.06,14.91,28.5,19.66,43.42,10.59
			c4.33-2.63,7.96-6.26,10.59-10.59h-9.59C829.32-82.2,823.01-79.45,816.39-79.47z"/>
	</g>
	<path id="Trazado_91" class="st6" d="M789.39-40.49l5.07-30.1h7.69l5.98,16.05l5.94-16.05h7.69l5.07,30.1h-7.73l-2.58-17.33
		l-7.05,17.33h-3.09l-6.69-17.33l-2.58,17.33L789.39-40.49z"/>
	<path id="Trazado_92" class="st6" d="M828.49-56.25c-0.08-6.43,3.84-12.24,9.84-14.56c4.3-1.61,9.03-1.61,13.33,0
		c1.95,0.76,3.74,1.89,5.25,3.35c1.46,1.43,2.63,3.13,3.42,5.01c1.64,3.97,1.64,8.43,0,12.4c-0.8,1.88-1.96,3.58-3.42,5.01
		c-1.51,1.45-3.29,2.59-5.25,3.35c-4.3,1.61-9.03,1.61-13.33,0C832.35-44.02,828.43-49.82,828.49-56.25L828.49-56.25z M836.61-56.25
		c-0.01,1.13,0.22,2.25,0.67,3.29c0.87,1.98,2.49,3.54,4.5,4.34c3.13,1.26,6.7,0.59,9.15-1.72c0.78-0.74,1.41-1.63,1.84-2.61
		c0.9-2.1,0.9-4.48,0-6.57c-0.44-0.98-1.06-1.87-1.84-2.62c-0.78-0.74-1.7-1.32-2.7-1.72c-2.07-0.82-4.38-0.82-6.45,0
		c-0.99,0.39-1.9,0.98-2.67,1.72c-0.77,0.75-1.39,1.63-1.82,2.62C836.83-58.5,836.6-57.38,836.61-56.25z"/>
	<path id="Trazado_93" class="st6" d="M865.48-56.25c-0.08-6.43,3.84-12.24,9.84-14.56c4.3-1.61,9.03-1.61,13.33,0
		c1.95,0.76,3.74,1.89,5.25,3.35c1.46,1.42,2.63,3.13,3.43,5.01c1.64,3.97,1.64,8.43,0,12.4c-0.8,1.88-1.96,3.59-3.43,5.01
		c-1.51,1.45-3.29,2.59-5.25,3.35c-4.3,1.61-9.03,1.61-13.33,0C869.33-44.02,865.41-49.82,865.48-56.25L865.48-56.25z M873.6-56.25
		c-0.01,1.13,0.22,2.25,0.67,3.29c0.87,1.98,2.49,3.54,4.5,4.34c2.07,0.82,4.38,0.82,6.46,0c1-0.4,1.91-0.98,2.69-1.72
		c0.78-0.74,1.41-1.63,1.84-2.61c0.9-2.1,0.9-4.48,0-6.57c-0.44-0.98-1.06-1.87-1.84-2.62c-0.78-0.74-1.69-1.32-2.69-1.72
		c-2.07-0.82-4.38-0.82-6.46,0c-0.99,0.39-1.9,0.98-2.67,1.72c-0.77,0.75-1.39,1.63-1.82,2.62C873.82-58.5,873.59-57.38,873.6-56.25
		z"/>
	<path id="Trazado_94" class="st6" d="M902.46-70.59h11.49c1.98-0.01,3.93,0.41,5.72,1.24c1.75,0.8,3.33,1.92,4.67,3.29
		c1.34,1.38,2.41,3.01,3.15,4.79c1.53,3.65,1.53,7.76,0.02,11.42c-0.73,1.79-1.79,3.42-3.13,4.81c-1.34,1.39-2.92,2.51-4.67,3.31
		c-1.81,0.83-3.77,1.25-5.76,1.24h-11.49V-70.59z M910.23-47.11h1.78c1.23,0.02,2.45-0.2,3.6-0.64c1-0.39,1.91-0.99,2.67-1.76
		c0.73-0.76,1.3-1.66,1.66-2.66c0.39-1.08,0.59-2.22,0.58-3.37c0.01-1.14-0.19-2.28-0.59-3.35c-0.74-2.04-2.33-3.66-4.36-4.43
		c-1.14-0.44-2.35-0.66-3.56-0.64h-1.78L910.23-47.11z"/>
	<rect id="Rectángulo_56" x="836.46" y="-87.07" class="st6" width="22.47" height="7.53"/>
	<rect id="Rectángulo_57" x="868.12" y="-87.07" class="st6" width="22.47" height="7.53"/>
</g>
</svg>
