<?xml version="1.0" encoding="utf-8"?>
<!-- Generator: Adobe Illustrator 24.0.0, SVG Export Plug-In . SVG Version: 6.00 Build 0)  -->
<svg version="1.1" id="Capa_1" xmlns="http://www.w3.org/2000/svg" xmlns:xlink="http://www.w3.org/1999/xlink" x="0px" y="0px"
	 viewBox="0 0 100 101" style="enable-background:new 0 0 100 101;" xml:space="preserve">
<style type="text/css">
	.st0{fill:#F5B15A;}
	.st1{fill:#EAE3DA;}
	.st2{fill:#E4D7CE;}
	.st3{fill:#002E61;}
	.st4{fill:#E45451;}
	.st5{fill:#E4D8CE;}
	.st6{fill:#1E244D;}
	.st7{fill:#F99A3D;}
	.st8{fill:none;stroke:#002E61;stroke-width:10;stroke-miterlimit:10;}
	.st9{fill:none;stroke:#002E61;stroke-width:5;stroke-linecap:round;stroke-linejoin:round;}
	.st10{fill:#E45451;stroke:#002E61;stroke-width:10;stroke-miterlimit:10;}
	.st11{fill:#F5B15A;stroke:#002E61;stroke-width:10;stroke-miterlimit:10;}
	.st12{fill:#E4D7CE;stroke:#002E61;stroke-width:10;stroke-miterlimit:10;}
	.st13{fill:none;stroke:#E4D7CE;stroke-width:5;stroke-linecap:round;stroke-linejoin:round;}
	.st14{fill:none;stroke:#002E61;stroke-width:2.37;stroke-linecap:round;stroke-linejoin:round;}
	.st15{fill:#E4D8CE;stroke:#002E61;stroke-width:10;stroke-miterlimit:10;}
	.st16{fill:#E4D8CE;stroke:#002E61;stroke-width:5;stroke-linecap:round;stroke-linejoin:round;}
</style>
<rect id="Rectángulo_36_1_" x="-2210.12" y="-3369.42" class="st0" width="1919.83" height="1080"/>
<g id="Grupo_201_1_" transform="translate(0 -7.083)">
	<g id="Grupo_10_1_" transform="translate(150 84.083)">
		<path id="Trazado_8_1_" class="st1" d="M-2207.89-2539.79c2.94-6.98,8.59-12.47,15.66-15.19c7.81-2.93,16.42-2.93,24.23,0
			c3.55,1.37,6.8,3.44,9.54,6.08c2.66,2.59,4.78,5.69,6.23,9.11c2.98,7.22,2.98,15.32,0,22.54c-1.45,3.42-3.56,6.52-6.23,9.11
			c-2.74,2.64-5.99,4.71-9.54,6.08c-7.81,2.93-16.42,2.93-24.23,0c-14.7-6-21.76-22.78-15.76-37.49
			C-2207.96-2539.62-2207.93-2539.7-2207.89-2539.79L-2207.89-2539.79z M-2194.14-2522.54c1.58,3.6,4.52,6.43,8.18,7.88
			c5.68,2.29,12.17,1.07,16.63-3.13c1.42-1.35,2.56-2.96,3.35-4.75c1.63-3.82,1.63-8.14,0-11.95c-0.79-1.79-1.93-3.4-3.35-4.75
			c-1.42-1.35-3.08-2.41-4.9-3.13c-3.77-1.49-7.96-1.49-11.73,0c-1.81,0.72-3.46,1.78-4.86,3.13c-1.4,1.36-2.53,2.97-3.31,4.75
			C-2195.77-2530.67-2195.77-2526.36-2194.14-2522.54L-2194.14-2522.54z"/>
		<rect id="Rectángulo_4_1_" x="-2186.9" y="-2483.74" class="st1" width="13.68" height="40.85"/>
		<g id="Grupo_6_1_" transform="translate(7.948 405.244)">
			
				<rect id="Rectángulo_5_1_" x="-2165.26" y="-3278.08" transform="matrix(0.7071 -0.7071 0.7071 0.7071 1684.9072 -2474.7529)" class="st1" width="40.85" height="13.68"/>
			<g id="Grupo_5_1_">
				<rect id="Rectángulo_6_1_" x="-2164.12" y="-3327.17" class="st1" width="98.18" height="13.68"/>
				<g id="Grupo_4_1_">
					<path id="Trazado_9_1_" class="st1" d="M-2196.32-3320.33c0.04-12.02-4.97-23.51-13.81-31.66v-17.43
						c27.11,16.48,35.73,51.81,19.26,78.92c-4.78,7.87-11.39,14.48-19.26,19.26v-17.44
						C-2201.29-3296.83-2196.28-3308.31-2196.32-3320.33z"/>
				</g>
			</g>
		</g>
		<g id="Grupo_9_1_" transform="translate(4.411)">
			<path id="Trazado_10_1_" class="st1" d="M-2171.57-3279.5c1.58,3.6,4.52,6.43,8.18,7.88c5.68,2.29,12.17,1.06,16.63-3.13
				c1.42-1.35,2.56-2.96,3.35-4.75c1.63-3.82,1.63-8.14,0-11.96c-0.79-1.79-1.93-3.4-3.35-4.75c-4.47-4.17-10.95-5.39-16.63-3.13
				c-1.81,0.72-3.46,1.78-4.86,3.13c-1.4,1.36-2.53,2.97-3.31,4.75C-2173.21-3287.64-2173.21-3283.32-2171.57-3279.5z"/>
			<g id="Grupo_7_1_" transform="translate(3.537 126.423)">
				<path id="Trazado_11_1_" class="st1" d="M-2161.03-3355.61c-12.02-0.04-23.5,4.97-31.65,13.81h-17.44
					c16.48-27.11,51.81-35.73,78.92-19.26c7.87,4.78,14.48,11.39,19.26,19.26h-17.44
					C-2137.53-3350.64-2149.01-3355.65-2161.03-3355.61z"/>
			</g>
			<g id="Grupo_8_1_">
				<path id="Trazado_12_1_" class="st1" d="M-2186.11-3369.42l-24.01,25.21l9.91,9.44l14.11-14.81l19.07,20.01l19.07-20.01
					l19.07,20.01l24.02-25.21l-9.9-9.44l-14.13,14.82l-19.07-20.01l-19.07,20.01L-2186.11-3369.42z"/>
			</g>
		</g>
	</g>
	<g id="Grupo_26_1_" transform="translate(1324 684.328)">
		
			<rect id="Rectángulo_5-2_1_" x="-2165.26" y="-3278.08" transform="matrix(0.7071 -0.7071 0.7071 0.7071 1684.9072 -2474.7529)" class="st1" width="40.85" height="13.68"/>
		<g id="Grupo_5-2_1_" transform="translate(0 0)">
			<rect id="Rectángulo_6-2_1_" x="-2164.12" y="-3327.17" class="st1" width="98.18" height="13.68"/>
			<g id="Grupo_4-2_1_">
				<path id="Trazado_9-2_1_" class="st1" d="M-2196.32-3320.33c0.04-12.02-4.97-23.5-13.81-31.65v-17.44
					c17.21,10.35,27.71,29,27.61,49.09c0.09,20.09-10.4,38.74-27.61,49.09v-17.44C-2201.29-3296.83-2196.28-3308.31-2196.32-3320.33
					z"/>
			</g>
		</g>
	</g>
	<g id="Grupo_35_1_" transform="translate(0 186)">
		<path id="Trazado_8-2_1_" class="st1" d="M-1658.22-3188.45c-2.94,6.98-8.59,12.47-15.66,15.19c-7.81,2.93-16.42,2.93-24.23,0
			c-3.55-1.37-6.8-3.44-9.54-6.08c-2.66-2.59-4.78-5.69-6.23-9.11c-2.98-7.22-2.98-15.32,0-22.54c1.45-3.42,3.57-6.52,6.23-9.11
			c2.74-2.64,5.99-4.71,9.54-6.08c7.81-2.93,16.42-2.93,24.23,0c14.7,6,21.76,22.78,15.76,37.49
			C-1658.15-3188.61-1658.18-3188.53-1658.22-3188.45L-1658.22-3188.45z M-1671.97-3205.7c-1.58-3.6-4.52-6.43-8.18-7.88
			c-5.68-2.29-12.17-1.07-16.63,3.13c-1.42,1.35-2.56,2.96-3.35,4.75c-1.63,3.82-1.63,8.14,0,11.95c0.79,1.79,1.93,3.4,3.35,4.75
			c1.42,1.35,3.08,2.41,4.9,3.13c3.77,1.49,7.96,1.49,11.73,0c1.81-0.72,3.46-1.78,4.86-3.13c1.4-1.36,2.53-2.97,3.31-4.75
			C-1670.34-3197.56-1670.34-3201.88-1671.97-3205.7L-1671.97-3205.7z"/>
		<rect id="Rectángulo_4-2_1_" x="-1692.89" y="-3285.34" class="st1" width="13.68" height="40.85"/>
	</g>
	<g id="Grupo_6-2_1_" transform="translate(592.19 791.365) rotate(180)">
		
			<rect id="Rectángulo_5-3_1_" x="2254.99" y="3460.76" transform="matrix(0.7071 -0.7071 0.7071 0.7071 -1785.5155 2624.6052)" class="st1" width="40.85" height="13.68"/>
		<g id="Grupo_5-3_1_">
			<rect id="Rectángulo_6-3_1_" x="2256.13" y="3411.67" class="st1" width="98.18" height="13.68"/>
			<g id="Grupo_4-3_1_">
				<path id="Trazado_9-3_1_" class="st1" d="M2223.93,3418.51c0.04-12.02-4.97-23.51-13.81-31.66v-17.43
					c27.11,16.48,35.73,51.81,19.26,78.92c-4.78,7.87-11.39,14.48-19.26,19.26v-17.44
					C2218.96,3442.02,2223.97,3430.53,2223.93,3418.51z"/>
			</g>
		</g>
	</g>
	<g id="Grupo_27_1_" transform="translate(1339.463 279.083)">
		<path id="Trazado_10-2_1_" class="st1" d="M-2171.57-3279.5c1.58,3.6,4.52,6.43,8.18,7.88c1.86,0.75,3.86,1.13,5.87,1.12
			c4,0.02,7.86-1.5,10.76-4.25c1.42-1.35,2.56-2.96,3.35-4.75c0.83-1.88,1.24-3.92,1.22-5.97c0.02-2.06-0.39-4.09-1.22-5.98
			c-0.79-1.79-1.93-3.4-3.35-4.75c-2.91-2.75-6.76-4.27-10.76-4.25c-2.01-0.01-4,0.37-5.87,1.11c-1.81,0.72-3.46,1.78-4.86,3.13
			c-1.4,1.36-2.53,2.97-3.31,4.75c-0.83,1.88-1.24,3.92-1.22,5.98C-2172.82-3283.42-2172.4-3281.38-2171.57-3279.5z"/>
		<g id="Grupo_7-2_1_" transform="translate(3.537 126.423)">
			<path id="Trazado_11-2_1_" class="st1" d="M-2161.03-3355.61c-12.02-0.04-23.5,4.97-31.65,13.81h-17.44
				c10.35-17.21,29-27.71,49.09-27.61c20.09-0.09,38.74,10.4,49.09,27.61h-17.44C-2137.53-3350.64-2149.01-3355.65-2161.03-3355.61z
				"/>
		</g>
		<g id="Grupo_8-2_1_">
			<path id="Trazado_12-2_1_" class="st1" d="M-2186.11-3369.42l-24.01,25.21l9.91,9.44l14.11-14.81l19.07,20.01l19.07-20.01
				l19.07,20.01l24.02-25.21l-9.9-9.44l-14.12,14.82l-19.07-20.02l-19.07,20.02L-2186.11-3369.42z"/>
		</g>
	</g>
	<g id="Grupo_25_1_" transform="translate(15.249)">
		<path id="Trazado_13_1_" class="st1" d="M-457.61-3188.45c-2.94,6.98-8.59,12.47-15.66,15.19c-7.81,2.93-16.42,2.93-24.23,0
			c-3.55-1.37-6.8-3.44-9.54-6.08c-2.66-2.59-4.78-5.69-6.23-9.11c-2.98-7.22-2.98-15.32,0-22.54c1.45-3.42,3.57-6.52,6.23-9.11
			c2.74-2.64,5.99-4.71,9.54-6.09c7.81-2.93,16.42-2.93,24.23,0c14.7,6,21.76,22.78,15.76,37.48
			C-457.53-3188.62-457.57-3188.53-457.61-3188.45L-457.61-3188.45z M-471.36-3205.7c-1.58-3.6-4.52-6.43-8.17-7.88
			c-3.77-1.49-7.97-1.49-11.74,0c-1.82,0.72-3.48,1.79-4.9,3.13c-1.42,1.35-2.56,2.96-3.35,4.75c-1.63,3.82-1.63,8.14,0,11.95
			c0.79,1.79,1.93,3.41,3.35,4.75c1.42,1.35,3.08,2.41,4.9,3.13c3.77,1.49,7.97,1.49,11.74,0c1.81-0.72,3.46-1.78,4.86-3.13
			c1.4-1.36,2.53-2.97,3.31-4.75C-469.73-3197.56-469.73-3201.88-471.36-3205.7z"/>
		<rect id="Rectángulo_7_1_" x="-492.28" y="-3285.34" class="st1" width="13.68" height="40.85"/>
		<g id="Grupo_13_1_" transform="translate(1602.612 487.904)">
			
				<rect id="Rectángulo_8_1_" x="-2151.64" y="-3356.98" transform="matrix(0.7071 -0.7071 0.7071 0.7071 1744.6892 -2488.2334)" class="st1" width="40.85" height="13.68"/>
			<g id="Grupo_12_1_" transform="translate(0 19.278)">
				<rect id="Rectángulo_9_1_" x="-2210.12" y="-3327.17" class="st1" width="98.18" height="13.68"/>
				<g id="Grupo_11_1_" transform="translate(116.577)">
					<path id="Trazado_14_1_" class="st1" d="M-2196.32-3320.33c-0.04,12.02,4.97,23.5,13.81,31.65v17.44
						c-27.11-16.47-35.74-51.81-19.26-78.92c4.78-7.87,11.39-14.48,19.26-19.26v17.44
						C-2191.35-3343.83-2196.36-3332.35-2196.32-3320.33z"/>
				</g>
			</g>
		</g>
		<g id="Grupo_16_1_" transform="translate(1645.084 856.573)">
			<path id="Trazado_15_1_" class="st1" d="M-2143.42-3305.31c-1.58-3.6-4.52-6.43-8.17-7.88c-5.68-2.29-12.17-1.07-16.63,3.13
				c-1.42,1.35-2.56,2.96-3.35,4.75c-1.63,3.82-1.63,8.14,0,11.95c0.79,1.79,1.93,3.41,3.35,4.75c1.42,1.35,3.08,2.41,4.9,3.13
				c3.77,1.49,7.97,1.49,11.74,0c1.81-0.72,3.46-1.78,4.86-3.13c1.4-1.36,2.53-2.97,3.31-4.75
				C-2141.78-3297.17-2141.78-3301.49-2143.42-3305.31L-2143.42-3305.31z"/>
			<g id="Grupo_14_1_" transform="translate(3.537)">
				<path id="Trazado_16_1_" class="st1" d="M-2161.03-3355.61c12.02,0.04,23.5-4.97,31.65-13.81h17.44
					c-16.48,27.11-51.81,35.73-78.92,19.26c-7.87-4.78-14.48-11.39-19.26-19.26h17.44
					C-2184.54-3360.59-2173.05-3355.58-2161.03-3355.61z"/>
			</g>
			<g id="Grupo_15_1_" transform="translate(0 114.188)">
				<path id="Trazado_17_1_" class="st1" d="M-2128.88-3329.58l24.01-25.21l-9.91-9.44l-14.11,14.81l-19.07-20.01l-19.07,20.02
					l-19.07-20.01l-24.03,25.21l9.9,9.44l14.12-14.82l19.08,20.01l19.07-20.01L-2128.88-3329.58z"/>
			</g>
		</g>
	</g>
</g>
<rect id="Rectángulo_51" x="-2209.6" y="-1985.84" class="st2" width="1919.83" height="1080"/>
<g id="Grupo_203" transform="translate(0 -7.083)">
	<g id="Grupo_10" transform="translate(150 84.083)">
		<path id="Trazado_8" class="st3" d="M-2207.37-1156.21c2.94-6.98,8.59-12.47,15.66-15.19c7.81-2.93,16.42-2.93,24.23,0
			c3.55,1.37,6.8,3.44,9.54,6.08c2.66,2.59,4.78,5.69,6.23,9.11c2.98,7.22,2.98,15.32,0,22.54c-1.45,3.42-3.56,6.52-6.23,9.11
			c-2.74,2.64-5.99,4.71-9.54,6.09c-7.81,2.93-16.42,2.93-24.23,0c-14.7-6-21.76-22.78-15.76-37.49
			C-2207.43-1156.04-2207.4-1156.13-2207.37-1156.21L-2207.37-1156.21z M-2193.61-1138.96c1.58,3.6,4.52,6.43,8.18,7.88
			c5.68,2.29,12.17,1.07,16.63-3.13c1.42-1.35,2.56-2.96,3.35-4.75c1.63-3.82,1.63-8.14,0-11.95c-0.79-1.79-1.93-3.4-3.35-4.75
			c-1.42-1.35-3.08-2.41-4.9-3.13c-3.77-1.49-7.96-1.49-11.73,0c-1.81,0.72-3.46,1.78-4.86,3.13c-1.4,1.36-2.53,2.97-3.31,4.75
			C-2195.25-1147.09-2195.25-1142.78-2193.61-1138.96L-2193.61-1138.96z"/>
		<rect id="Rectángulo_4" x="-2186.38" y="-1100.16" class="st3" width="13.68" height="40.85"/>
		<g id="Grupo_6" transform="translate(7.948 405.244)">
			
				<rect id="Rectángulo_5" x="-2164.73" y="-1894.5" transform="matrix(0.7071 -0.7071 0.7071 0.7071 706.7233 -2069.1399)" class="st3" width="40.85" height="13.68"/>
			<g id="Grupo_5">
				<rect id="Rectángulo_6" x="-2163.59" y="-1943.59" class="st3" width="98.18" height="13.68"/>
				<g id="Grupo_4">
					<path id="Trazado_9" class="st3" d="M-2195.79-1936.75c0.04-12.02-4.97-23.51-13.81-31.66v-17.43
						c27.11,16.48,35.73,51.81,19.26,78.92c-4.78,7.87-11.39,14.48-19.26,19.26v-17.44
						C-2200.76-1913.25-2195.75-1924.73-2195.79-1936.75z"/>
				</g>
			</g>
		</g>
		<g id="Grupo_9" transform="translate(4.411)">
			<path id="Trazado_10" class="st3" d="M-2171.05-1895.92c1.58,3.6,4.52,6.43,8.17,7.88c5.68,2.29,12.17,1.06,16.63-3.13
				c1.42-1.35,2.56-2.96,3.35-4.75c1.63-3.82,1.63-8.14,0-11.95c-0.79-1.79-1.93-3.4-3.35-4.75c-4.47-4.17-10.95-5.39-16.63-3.13
				c-1.81,0.72-3.46,1.78-4.86,3.13c-1.4,1.36-2.53,2.97-3.31,4.75C-2172.68-1904.06-2172.68-1899.74-2171.05-1895.92z"/>
			<g id="Grupo_7" transform="translate(3.537 126.423)">
				<path id="Trazado_11" class="st3" d="M-2160.51-1972.04c-12.02-0.04-23.5,4.97-31.65,13.81h-17.44
					c16.48-27.11,51.81-35.73,78.92-19.26c7.87,4.78,14.48,11.39,19.26,19.26h-17.44C-2137-1967.07-2148.49-1972.07-2160.51-1972.04
					z"/>
			</g>
			<g id="Grupo_8">
				<path id="Trazado_12" class="st3" d="M-2185.58-1985.84l-24.01,25.21l9.91,9.44l14.11-14.81l19.07,20.01l19.07-20.01
					l19.07,20.01l24.02-25.21l-9.9-9.44l-14.13,14.82l-19.07-20.01l-19.07,20.01L-2185.58-1985.84z"/>
			</g>
		</g>
	</g>
	<g id="Grupo_26" transform="translate(1324 684.328)">
		
			<rect id="Rectángulo_5-2" x="-2164.73" y="-1894.5" transform="matrix(0.7071 -0.7071 0.7071 0.7071 706.7233 -2069.1399)" class="st3" width="40.85" height="13.68"/>
		<g id="Grupo_5-2" transform="translate(0 0)">
			<rect id="Rectángulo_6-2" x="-2163.59" y="-1943.59" class="st3" width="98.18" height="13.68"/>
			<g id="Grupo_4-2">
				<path id="Trazado_9-2" class="st3" d="M-2195.79-1936.75c0.04-12.02-4.97-23.5-13.81-31.65v-17.44
					c17.21,10.35,27.71,29,27.61,49.09c0.09,20.09-10.4,38.74-27.61,49.09v-17.44C-2200.76-1913.25-2195.75-1924.73-2195.79-1936.75
					z"/>
			</g>
		</g>
	</g>
	<g id="Grupo_35" transform="translate(0 186)">
		<path id="Trazado_8-2" class="st3" d="M-1657.69-1804.87c-2.94,6.98-8.59,12.47-15.66,15.19c-7.81,2.93-16.42,2.93-24.23,0
			c-3.55-1.37-6.8-3.44-9.54-6.08c-2.66-2.59-4.78-5.69-6.23-9.11c-2.98-7.22-2.98-15.32,0-22.54c1.45-3.42,3.57-6.52,6.23-9.11
			c2.74-2.64,5.99-4.71,9.54-6.08c7.81-2.93,16.42-2.93,24.23,0c14.7,6,21.76,22.78,15.76,37.49
			C-1657.62-1805.03-1657.66-1804.95-1657.69-1804.87L-1657.69-1804.87z M-1671.44-1822.12c-1.58-3.6-4.52-6.43-8.17-7.88
			c-5.68-2.29-12.17-1.07-16.63,3.13c-1.42,1.35-2.56,2.96-3.35,4.75c-1.63,3.82-1.63,8.14,0,11.95c0.79,1.79,1.93,3.4,3.35,4.75
			c1.42,1.35,3.08,2.41,4.9,3.13c3.77,1.49,7.96,1.49,11.73,0c1.81-0.72,3.46-1.78,4.86-3.13c1.4-1.36,2.53-2.97,3.31-4.75
			C-1669.81-1813.98-1669.81-1818.3-1671.44-1822.12L-1671.44-1822.12z"/>
		<rect id="Rectángulo_4-2" x="-1692.36" y="-1901.76" class="st3" width="13.68" height="40.85"/>
	</g>
	<g id="Grupo_6-2" transform="translate(592.19 791.365) rotate(180)">
		
			<rect id="Rectángulo_5-3" x="2254.46" y="2077.18" transform="matrix(0.7071 -0.7071 0.7071 0.7071 -807.3291 2218.9897)" class="st3" width="40.85" height="13.68"/>
		<g id="Grupo_5-3">
			<rect id="Rectángulo_6-3" x="2255.61" y="2028.09" class="st3" width="98.18" height="13.68"/>
			<g id="Grupo_4-3">
				<path id="Trazado_9-3" class="st3" d="M2223.4,2034.93c0.04-12.02-4.97-23.51-13.81-31.66v-17.43
					c27.11,16.48,35.73,51.81,19.26,78.92c-4.78,7.87-11.39,14.48-19.26,19.26v-17.44
					C2218.43,2058.44,2223.44,2046.95,2223.4,2034.93z"/>
			</g>
		</g>
	</g>
	<g id="Grupo_27" transform="translate(1339.463 279.083)">
		<path id="Trazado_10-2" class="st3" d="M-2171.05-1895.92c1.58,3.6,4.52,6.43,8.18,7.88c1.87,0.75,3.86,1.13,5.87,1.12
			c4,0.02,7.86-1.5,10.76-4.25c1.42-1.35,2.56-2.96,3.35-4.75c0.83-1.88,1.24-3.92,1.22-5.97c0.02-2.06-0.39-4.09-1.22-5.98
			c-0.79-1.79-1.93-3.4-3.35-4.75c-2.91-2.75-6.76-4.27-10.76-4.25c-2.01-0.01-4,0.37-5.87,1.11c-1.81,0.72-3.46,1.78-4.86,3.13
			c-1.4,1.36-2.53,2.97-3.31,4.75c-0.83,1.88-1.24,3.92-1.22,5.98C-2172.29-1899.84-2171.87-1897.81-2171.05-1895.92z"/>
		<g id="Grupo_7-2" transform="translate(3.537 126.423)">
			<path id="Trazado_11-2" class="st3" d="M-2160.51-1972.04c-12.02-0.04-23.5,4.97-31.65,13.81h-17.44
				c10.35-17.21,29-27.71,49.09-27.61c20.09-0.09,38.74,10.4,49.09,27.61h-17.44C-2137-1967.07-2148.49-1972.07-2160.51-1972.04z"/>
		</g>
		<g id="Grupo_8-2">
			<path id="Trazado_12-2" class="st3" d="M-2185.58-1985.84l-24.01,25.21l9.91,9.44l14.11-14.81l19.07,20.01l19.07-20.01
				l19.07,20.01l24.02-25.21l-9.9-9.44l-14.12,14.82l-19.07-20.02l-19.07,20.02L-2185.58-1985.84z"/>
		</g>
	</g>
	<g id="Grupo_25" transform="translate(15.249)">
		<path id="Trazado_13" class="st3" d="M-457.08-1804.87c-2.94,6.98-8.59,12.47-15.66,15.19c-7.81,2.93-16.42,2.93-24.23,0
			c-3.55-1.37-6.8-3.44-9.54-6.08c-2.66-2.59-4.78-5.69-6.23-9.11c-2.98-7.22-2.98-15.32,0-22.54c1.45-3.42,3.57-6.52,6.23-9.11
			c2.74-2.64,5.99-4.71,9.54-6.08c7.81-2.93,16.42-2.93,24.23,0c14.7,6,21.76,22.78,15.76,37.48
			C-457.01-1805.04-457.04-1804.95-457.08-1804.87L-457.08-1804.87z M-470.83-1822.12c-1.58-3.6-4.52-6.43-8.17-7.88
			c-3.77-1.49-7.97-1.49-11.74,0c-1.82,0.72-3.48,1.79-4.9,3.13c-1.42,1.35-2.56,2.96-3.35,4.75c-1.63,3.82-1.63,8.14,0,11.95
			c0.79,1.79,1.93,3.41,3.35,4.75c1.42,1.35,3.08,2.41,4.9,3.13c3.77,1.49,7.97,1.49,11.74,0c1.81-0.72,3.46-1.78,4.86-3.13
			c1.4-1.36,2.53-2.97,3.31-4.75C-469.2-1813.98-469.2-1818.3-470.83-1822.12z"/>
		<rect id="Rectángulo_7" x="-491.75" y="-1901.76" class="st3" width="13.68" height="40.85"/>
		<g id="Grupo_13" transform="translate(1602.612 487.904)">
			
				<rect id="Rectángulo_8" x="-2151.12" y="-1973.4" transform="matrix(0.7071 -0.7071 0.7071 0.7071 766.5052 -2082.6204)" class="st3" width="40.85" height="13.68"/>
			<g id="Grupo_12" transform="translate(0 19.278)">
				<rect id="Rectángulo_9" x="-2209.6" y="-1943.59" class="st3" width="98.18" height="13.68"/>
				<g id="Grupo_11" transform="translate(116.577)">
					<path id="Trazado_14" class="st3" d="M-2195.79-1936.75c-0.04,12.02,4.97,23.5,13.81,31.65v17.44
						c-27.11-16.47-35.74-51.81-19.26-78.92c4.78-7.87,11.39-14.48,19.26-19.26v17.44
						C-2190.82-1960.26-2195.83-1948.77-2195.79-1936.75z"/>
				</g>
			</g>
		</g>
		<g id="Grupo_16" transform="translate(1645.084 856.573)">
			<path id="Trazado_15" class="st3" d="M-2142.89-1921.73c-1.58-3.6-4.52-6.43-8.17-7.88c-5.68-2.29-12.17-1.07-16.63,3.13
				c-1.42,1.35-2.56,2.96-3.35,4.75c-1.63,3.82-1.63,8.14,0,11.95c0.79,1.79,1.93,3.41,3.35,4.75c1.42,1.35,3.08,2.41,4.9,3.13
				c3.77,1.49,7.97,1.49,11.74,0c1.81-0.72,3.46-1.78,4.86-3.13c1.4-1.36,2.53-2.97,3.31-4.75
				C-2141.26-1913.59-2141.26-1917.91-2142.89-1921.73L-2142.89-1921.73z"/>
			<g id="Grupo_14" transform="translate(3.537)">
				<path id="Trazado_16" class="st3" d="M-2160.51-1972.04c12.02,0.04,23.5-4.97,31.65-13.81h17.44
					c-16.48,27.11-51.81,35.73-78.92,19.26c-7.87-4.78-14.48-11.39-19.26-19.26h17.44
					C-2184.01-1977.01-2172.53-1972-2160.51-1972.04z"/>
			</g>
			<g id="Grupo_15" transform="translate(0 114.188)">
				<path id="Trazado_17" class="st3" d="M-2128.36-1946l24.01-25.21l-9.91-9.44l-14.11,14.81l-19.07-20.01l-19.07,20.02
					l-19.07-20.01l-24.03,25.21l9.9,9.44l14.12-14.82l19.08,20.01l19.07-20.01L-2128.36-1946z"/>
			</g>
		</g>
	</g>
</g>
<rect id="Rectángulo_32_1_" x="-2210.6" y="-592.84" class="st4" width="1919.83" height="1080"/>
<g id="Grupo_199_1_" transform="translate(0 -7.083)">
	<g id="Grupo_10_3_" transform="translate(150 84.083)">
		<path id="Trazado_8_3_" class="st5" d="M-2208.37,236.79c2.94-6.98,8.59-12.47,15.66-15.19c7.81-2.93,16.42-2.93,24.23,0
			c3.55,1.37,6.8,3.44,9.54,6.08c2.66,2.59,4.78,5.69,6.23,9.11c2.98,7.22,2.98,15.32,0,22.54c-1.45,3.42-3.56,6.52-6.23,9.11
			c-2.74,2.64-5.99,4.71-9.54,6.09c-7.81,2.93-16.42,2.93-24.23,0c-14.7-6-21.76-22.78-15.76-37.49
			C-2208.43,236.96-2208.4,236.88-2208.37,236.79L-2208.37,236.79z M-2194.61,254.04c1.58,3.6,4.52,6.43,8.18,7.88
			c5.68,2.29,12.17,1.07,16.63-3.13c1.42-1.35,2.56-2.96,3.35-4.75c1.63-3.82,1.63-8.14,0-11.95c-0.79-1.79-1.93-3.4-3.35-4.75
			c-1.42-1.35-3.08-2.41-4.9-3.13c-3.77-1.49-7.96-1.49-11.73,0c-1.81,0.72-3.46,1.78-4.86,3.13c-1.4,1.36-2.53,2.97-3.31,4.75
			C-2196.25,245.91-2196.25,250.22-2194.61,254.04L-2194.61,254.04z"/>
		<rect id="Rectángulo_4_3_" x="-2187.38" y="292.84" class="st5" width="13.68" height="40.85"/>
		<g id="Grupo_6_3_" transform="translate(7.948 405.244)">
			
				<rect id="Rectángulo_5_3_" x="-2165.73" y="-501.5" transform="matrix(0.7071 -0.7071 0.7071 0.7071 -278.5693 -1661.8467)" class="st5" width="40.85" height="13.68"/>
			<g id="Grupo_5_3_">
				<rect id="Rectángulo_6_3_" x="-2164.59" y="-550.59" class="st5" width="98.18" height="13.68"/>
				<g id="Grupo_4_3_">
					<path id="Trazado_9_3_" class="st5" d="M-2196.79-543.75c0.04-12.02-4.97-23.51-13.81-31.66v-17.43
						c27.11,16.48,35.73,51.81,19.26,78.92c-4.78,7.87-11.39,14.48-19.26,19.26v-17.44
						C-2201.76-520.25-2196.75-531.73-2196.79-543.75z"/>
				</g>
			</g>
		</g>
		<g id="Grupo_9_3_" transform="translate(4.411)">
			<path id="Trazado_10_3_" class="st5" d="M-2172.05-502.92c1.58,3.6,4.52,6.43,8.17,7.88c5.68,2.29,12.17,1.06,16.63-3.13
				c1.42-1.35,2.56-2.96,3.35-4.75c1.63-3.82,1.63-8.14,0-11.95c-0.79-1.79-1.93-3.4-3.35-4.75c-4.47-4.17-10.95-5.39-16.63-3.13
				c-1.81,0.72-3.46,1.78-4.86,3.13c-1.4,1.36-2.53,2.97-3.31,4.75C-2173.68-511.06-2173.68-506.74-2172.05-502.92z"/>
			<g id="Grupo_7_3_" transform="translate(3.537 126.423)">
				<path id="Trazado_11_3_" class="st5" d="M-2161.51-579.04c-12.02-0.04-23.5,4.97-31.65,13.81h-17.44
					c16.48-27.11,51.81-35.73,78.92-19.26c7.87,4.78,14.48,11.39,19.26,19.26h-17.44C-2138-574.07-2149.49-579.07-2161.51-579.04z"
					/>
			</g>
			<g id="Grupo_8_3_">
				<path id="Trazado_12_3_" class="st5" d="M-2186.58-592.84l-24.01,25.21l9.91,9.44l14.11-14.81l19.07,20.01l19.07-20.01
					l19.07,20.01l24.02-25.21l-9.9-9.44l-14.13,14.82l-19.07-20.01l-19.07,20.01L-2186.58-592.84z"/>
			</g>
		</g>
	</g>
	<g id="Grupo_26_3_" transform="translate(1324 684.328)">
		
			<rect id="Rectángulo_5-2_3_" x="-2165.73" y="-501.5" transform="matrix(0.7071 -0.7071 0.7071 0.7071 -278.5693 -1661.8467)" class="st5" width="40.85" height="13.68"/>
		<g id="Grupo_5-2_3_" transform="translate(0 0)">
			<rect id="Rectángulo_6-2_3_" x="-2164.59" y="-550.59" class="st5" width="98.18" height="13.68"/>
			<g id="Grupo_4-2_3_">
				<path id="Trazado_9-2_3_" class="st5" d="M-2196.79-543.75c0.04-12.02-4.97-23.5-13.81-31.65v-17.44
					c17.21,10.35,27.71,29,27.61,49.09c0.09,20.09-10.4,38.74-27.61,49.09v-17.44C-2201.76-520.25-2196.75-531.73-2196.79-543.75z"
					/>
			</g>
		</g>
	</g>
	<g id="Grupo_35_3_" transform="translate(0 186)">
		<path id="Trazado_8-2_3_" class="st5" d="M-1658.69-411.87c-2.94,6.98-8.59,12.47-15.66,15.19c-7.81,2.93-16.42,2.93-24.23,0
			c-3.55-1.37-6.8-3.44-9.54-6.08c-2.66-2.59-4.78-5.69-6.23-9.11c-2.98-7.22-2.98-15.32,0-22.54c1.45-3.42,3.57-6.52,6.23-9.11
			c2.74-2.64,5.99-4.71,9.54-6.09c7.81-2.93,16.42-2.93,24.23,0c14.7,6,21.76,22.78,15.76,37.49
			C-1658.62-412.03-1658.66-411.95-1658.69-411.87L-1658.69-411.87z M-1672.44-429.12c-1.58-3.6-4.52-6.43-8.17-7.88
			c-5.68-2.29-12.17-1.07-16.63,3.13c-1.42,1.35-2.56,2.96-3.35,4.75c-1.63,3.82-1.63,8.14,0,11.95c0.79,1.79,1.93,3.4,3.35,4.75
			c1.42,1.35,3.08,2.41,4.9,3.13c3.77,1.49,7.96,1.49,11.73,0c1.81-0.72,3.46-1.78,4.86-3.13c1.4-1.36,2.53-2.97,3.31-4.75
			C-1670.81-420.98-1670.81-425.3-1672.44-429.12L-1672.44-429.12z"/>
		<rect id="Rectángulo_4-2_3_" x="-1693.36" y="-508.76" class="st5" width="13.68" height="40.85"/>
	</g>
	<g id="Grupo_6-2_3_" transform="translate(592.19 791.365) rotate(180)">
		
			<rect id="Rectángulo_5-3_3_" x="2255.46" y="684.18" transform="matrix(0.7071 -0.7071 0.7071 0.7071 177.966 1811.6941)" class="st5" width="40.85" height="13.68"/>
		<g id="Grupo_5-3_3_">
			<rect id="Rectángulo_6-3_3_" x="2256.61" y="635.09" class="st5" width="98.18" height="13.68"/>
			<g id="Grupo_4-3_3_">
				<path id="Trazado_9-3_3_" class="st5" d="M2224.4,641.93c0.04-12.02-4.97-23.51-13.81-31.66v-17.43
					c27.11,16.48,35.73,51.81,19.26,78.92c-4.78,7.87-11.39,14.48-19.26,19.26v-17.44C2219.43,665.44,2224.44,653.95,2224.4,641.93z
					"/>
			</g>
		</g>
	</g>
	<g id="Grupo_27_3_" transform="translate(1339.463 279.083)">
		<path id="Trazado_10-2_3_" class="st5" d="M-2172.05-502.92c1.58,3.6,4.52,6.43,8.18,7.88c1.87,0.75,3.86,1.13,5.87,1.12
			c4,0.02,7.86-1.5,10.76-4.25c1.42-1.35,2.56-2.96,3.35-4.75c0.83-1.88,1.24-3.92,1.22-5.97c0.02-2.06-0.39-4.09-1.22-5.98
			c-0.79-1.79-1.93-3.4-3.35-4.75c-2.91-2.75-6.76-4.27-10.76-4.25c-2.01-0.01-4,0.37-5.87,1.11c-1.81,0.72-3.46,1.78-4.86,3.13
			c-1.4,1.36-2.53,2.97-3.31,4.75c-0.83,1.88-1.24,3.92-1.22,5.98C-2173.29-506.84-2172.87-504.81-2172.05-502.92z"/>
		<g id="Grupo_7-2_3_" transform="translate(3.537 126.423)">
			<path id="Trazado_11-2_3_" class="st5" d="M-2161.51-579.04c-12.02-0.04-23.5,4.97-31.65,13.81h-17.44
				c10.35-17.21,29-27.71,49.09-27.61c20.09-0.09,38.74,10.4,49.09,27.61h-17.44C-2138-574.07-2149.49-579.07-2161.51-579.04z"/>
		</g>
		<g id="Grupo_8-2_3_">
			<path id="Trazado_12-2_3_" class="st5" d="M-2186.58-592.84l-24.01,25.21l9.91,9.44l14.11-14.81l19.07,20.01l19.07-20.01
				l19.07,20.01l24.02-25.21l-9.9-9.44l-14.12,14.82l-19.07-20.02l-19.07,20.02L-2186.58-592.84z"/>
		</g>
	</g>
	<g id="Grupo_25_3_" transform="translate(15.249)">
		<path id="Trazado_13_3_" class="st5" d="M-458.08-411.87c-2.94,6.98-8.59,12.47-15.66,15.19c-7.81,2.93-16.42,2.93-24.23,0
			c-3.55-1.37-6.8-3.44-9.54-6.08c-2.66-2.59-4.78-5.69-6.23-9.11c-2.98-7.22-2.98-15.32,0-22.54c1.45-3.42,3.57-6.52,6.23-9.11
			c2.74-2.64,5.99-4.71,9.54-6.09c7.81-2.93,16.42-2.93,24.23,0c14.7,6,21.76,22.78,15.76,37.48
			C-458.01-412.04-458.04-411.95-458.08-411.87L-458.08-411.87z M-471.83-429.12c-1.58-3.6-4.52-6.43-8.17-7.88
			c-3.77-1.49-7.97-1.49-11.74,0c-1.82,0.72-3.48,1.79-4.9,3.13c-1.42,1.35-2.56,2.96-3.35,4.75c-1.63,3.82-1.63,8.14,0,11.95
			c0.79,1.79,1.93,3.41,3.35,4.75c1.42,1.35,3.08,2.41,4.9,3.13c3.77,1.49,7.97,1.49,11.74,0c1.81-0.72,3.46-1.78,4.86-3.13
			c1.4-1.36,2.53-2.97,3.31-4.75C-470.2-420.98-470.2-425.3-471.83-429.12z"/>
		<rect id="Rectángulo_7_3_" x="-492.75" y="-508.76" class="st5" width="13.68" height="40.85"/>
		<g id="Grupo_13_3_" transform="translate(1602.612 487.904)">
			
				<rect id="Rectángulo_8_3_" x="-2152.12" y="-580.4" transform="matrix(0.7071 -0.7071 0.7071 0.7071 -218.7874 -1675.3271)" class="st5" width="40.85" height="13.68"/>
			<g id="Grupo_12_3_" transform="translate(0 19.278)">
				<rect id="Rectángulo_9_3_" x="-2210.6" y="-550.59" class="st5" width="98.18" height="13.68"/>
				<g id="Grupo_11_3_" transform="translate(116.577)">
					<path id="Trazado_14_3_" class="st5" d="M-2196.79-543.75c-0.04,12.02,4.97,23.5,13.81,31.65v17.44
						c-27.11-16.47-35.74-51.81-19.26-78.92c4.78-7.87,11.39-14.48,19.26-19.26v17.44
						C-2191.82-567.26-2196.83-555.77-2196.79-543.75z"/>
				</g>
			</g>
		</g>
		<g id="Grupo_16_3_" transform="translate(1645.084 856.573)">
			<path id="Trazado_15_3_" class="st5" d="M-2143.89-528.73c-1.58-3.6-4.52-6.43-8.17-7.88c-5.68-2.29-12.17-1.07-16.63,3.13
				c-1.42,1.35-2.56,2.96-3.35,4.75c-1.63,3.82-1.63,8.14,0,11.95c0.79,1.79,1.93,3.41,3.35,4.75c1.42,1.35,3.08,2.41,4.9,3.13
				c3.77,1.49,7.97,1.49,11.74,0c1.81-0.72,3.46-1.78,4.86-3.13c1.4-1.36,2.53-2.97,3.31-4.75
				C-2142.26-520.59-2142.26-524.91-2143.89-528.73L-2143.89-528.73z"/>
			<g id="Grupo_14_3_" transform="translate(3.537)">
				<path id="Trazado_16_3_" class="st5" d="M-2161.51-579.04c12.02,0.04,23.5-4.97,31.65-13.81h17.44
					c-16.48,27.11-51.81,35.73-78.92,19.26c-7.87-4.78-14.48-11.39-19.26-19.26h17.44C-2185.01-584.01-2173.53-579-2161.51-579.04z"
					/>
			</g>
			<g id="Grupo_15_3_" transform="translate(0 114.188)">
				<path id="Trazado_17_3_" class="st5" d="M-2129.36-553l24.01-25.21l-9.91-9.44l-14.11,14.81l-19.07-20.01l-19.07,20.02
					l-19.07-20.01l-24.03,25.21l9.9,9.44l14.12-14.82l19.08,20.01l19.07-20.01L-2129.36-553z"/>
			</g>
		</g>
	</g>
</g>
<rect id="Rectángulo_3" x="-2209.88" y="776.32" class="st6" width="1920.4" height="1080"/>
<g id="Grupo_196">
	<g id="Grupo_10_2_" transform="translate(150 84.083)">
		<path id="Trazado_8_2_" class="st7" d="M-2207.65,1605.95c2.94-6.98,8.59-12.47,15.66-15.19c7.81-2.93,16.42-2.93,24.23,0
			c3.55,1.37,6.8,3.44,9.54,6.08c2.66,2.59,4.78,5.69,6.23,9.11c2.98,7.22,2.98,15.32,0,22.54c-1.45,3.42-3.56,6.52-6.23,9.11
			c-2.74,2.64-5.99,4.71-9.54,6.08c-7.81,2.93-16.42,2.93-24.23,0c-14.7-6-21.76-22.78-15.76-37.49
			C-2207.72,1606.11-2207.69,1606.03-2207.65,1605.95L-2207.65,1605.95z M-2193.9,1623.2c1.58,3.6,4.52,6.43,8.18,7.88
			c5.68,2.29,12.17,1.07,16.63-3.13c1.42-1.35,2.56-2.96,3.35-4.75c1.63-3.82,1.63-8.14,0-11.95c-0.79-1.79-1.93-3.4-3.35-4.75
			c-1.42-1.35-3.08-2.41-4.9-3.13c-3.77-1.49-7.96-1.49-11.74,0c-1.81,0.72-3.46,1.78-4.86,3.13c-1.4,1.36-2.53,2.97-3.31,4.75
			C-2195.53,1615.06-2195.53,1619.38-2193.9,1623.2L-2193.9,1623.2z"/>
		<rect id="Rectángulo_4_2_" x="-2186.66" y="1661.99" class="st7" width="13.68" height="40.85"/>
		<g id="Grupo_6_2_" transform="translate(7.948 405.244)">
			
				<rect id="Rectángulo_5_2_" x="-2165.02" y="867.66" transform="matrix(0.7071 -0.7071 0.7071 0.7071 -1246.5007 -1260.324)" class="st7" width="40.85" height="13.68"/>
			<g id="Grupo_5_2_">
				<rect id="Rectángulo_6_2_" x="-2163.87" y="818.57" class="st7" width="98.18" height="13.68"/>
				<g id="Grupo_4_2_">
					<path id="Trazado_9_2_" class="st7" d="M-2196.08,825.41c0.04-12.02-4.97-23.51-13.81-31.66v-17.43
						c27.11,16.48,35.73,51.81,19.26,78.92c-4.78,7.87-11.39,14.48-19.26,19.26v-17.44
						C-2201.05,848.91-2196.04,837.43-2196.08,825.41z"/>
				</g>
			</g>
		</g>
		<g id="Grupo_9_2_" transform="translate(4.411)">
			<path id="Trazado_10_2_" class="st7" d="M-2171.33,866.24c1.58,3.6,4.52,6.43,8.18,7.88c5.68,2.29,12.17,1.06,16.63-3.13
				c1.42-1.35,2.56-2.96,3.35-4.75c1.63-3.82,1.63-8.14,0-11.95c-0.79-1.79-1.93-3.4-3.35-4.75c-4.48-4.17-10.95-5.39-16.63-3.13
				c-1.81,0.72-3.46,1.78-4.86,3.13c-1.4,1.36-2.53,2.97-3.31,4.75C-2172.96,858.1-2172.96,862.42-2171.33,866.24z"/>
			<g id="Grupo_7_2_" transform="translate(3.537 126.423)">
				<path id="Trazado_11_2_" class="st7" d="M-2160.79,790.12c-12.02-0.04-23.5,4.97-31.65,13.81h-17.44
					c16.48-27.11,51.81-35.73,78.92-19.26c7.87,4.78,14.48,11.39,19.26,19.26h-17.44C-2137.29,795.09-2148.77,790.08-2160.79,790.12
					z"/>
			</g>
			<g id="Grupo_8_2_">
				<path id="Trazado_12_2_" class="st7" d="M-2185.87,776.32l-24.02,25.21l9.91,9.44l14.11-14.81l19.07,20.01l19.07-20.01
					l19.07,20.01l24.02-25.21l-9.9-9.44l-14.13,14.82l-19.07-20.01l-19.07,20.01L-2185.87,776.32z"/>
			</g>
		</g>
	</g>
	<g id="Grupo_26_2_" transform="translate(1324 684.328)">
		
			<rect id="Rectángulo_5-2_2_" x="-2165.02" y="867.66" transform="matrix(0.7071 -0.7071 0.7071 0.7071 -1246.5007 -1260.324)" class="st7" width="40.85" height="13.68"/>
		<g id="Grupo_5-2_2_" transform="translate(0 0)">
			<rect id="Rectángulo_6-2_2_" x="-2163.87" y="818.57" class="st7" width="98.18" height="13.68"/>
			<g id="Grupo_4-2_2_">
				<path id="Trazado_9-2_2_" class="st7" d="M-2196.08,825.41c0.04-12.02-4.97-23.5-13.81-31.65v-17.44
					c17.21,10.35,27.71,29,27.61,49.09c0.09,20.09-10.4,38.74-27.61,49.09v-17.44C-2201.05,848.91-2196.04,837.43-2196.08,825.41z"
					/>
			</g>
		</g>
	</g>
	<g id="Grupo_35_2_" transform="translate(0 186)">
		<path id="Trazado_8-2_2_" class="st7" d="M-1657.98,957.29c-2.94,6.98-8.59,12.47-15.66,15.19c-7.81,2.93-16.42,2.93-24.23,0
			c-3.55-1.37-6.8-3.44-9.54-6.08c-2.66-2.59-4.78-5.69-6.23-9.11c-2.98-7.22-2.98-15.32,0-22.54c1.45-3.42,3.57-6.52,6.23-9.11
			c2.74-2.64,5.99-4.71,9.54-6.09c7.81-2.93,16.42-2.93,24.23,0c14.7,6,21.76,22.78,15.76,37.49
			C-1657.91,957.13-1657.94,957.21-1657.98,957.29L-1657.98,957.29z M-1671.73,940.04c-1.58-3.6-4.52-6.43-8.18-7.88
			c-5.68-2.29-12.17-1.07-16.63,3.13c-1.42,1.35-2.56,2.96-3.35,4.75c-1.63,3.82-1.63,8.14,0,11.95c0.79,1.79,1.93,3.4,3.35,4.75
			c1.42,1.35,3.08,2.41,4.9,3.13c3.77,1.49,7.96,1.49,11.73,0c1.81-0.72,3.46-1.78,4.86-3.13c1.4-1.36,2.53-2.97,3.31-4.75
			C-1670.09,948.18-1670.09,943.86-1671.73,940.04L-1671.73,940.04z"/>
		<rect id="Rectángulo_4-2_2_" x="-1692.65" y="860.4" class="st7" width="13.68" height="40.85"/>
	</g>
	<g id="Grupo_6-2_2_" transform="translate(592.19 791.365) rotate(180)">
		
			<rect id="Rectángulo_5-3_2_" x="2254.75" y="-684.97" transform="matrix(0.7071 -0.7071 0.7071 0.7071 1145.8999 1410.1691)" class="st7" width="40.85" height="13.68"/>
		<g id="Grupo_5-3_2_">
			<rect id="Rectángulo_6-3_2_" x="2255.89" y="-734.07" class="st7" width="98.18" height="13.68"/>
			<g id="Grupo_4-3_2_">
				<path id="Trazado_9-3_2_" class="st7" d="M2223.69-727.22c0.04-12.02-4.97-23.51-13.81-31.66v-17.43
					c27.11,16.48,35.73,51.81,19.26,78.92c-4.78,7.87-11.39,14.48-19.26,19.26v-17.44C2218.72-703.72,2223.73-715.21,2223.69-727.22
					z"/>
			</g>
		</g>
	</g>
	<g id="Grupo_27_2_" transform="translate(1339.463 279.083)">
		<path id="Trazado_10-2_2_" class="st7" d="M-2171.33,866.24c1.58,3.6,4.52,6.43,8.18,7.88c1.87,0.75,3.86,1.13,5.87,1.12
			c4,0.02,7.86-1.5,10.77-4.25c1.42-1.35,2.56-2.96,3.35-4.75c0.83-1.88,1.24-3.92,1.22-5.97c0.02-2.06-0.39-4.09-1.22-5.98
			c-0.79-1.79-1.93-3.4-3.35-4.75c-2.91-2.75-6.76-4.27-10.77-4.25c-2.01-0.01-4,0.37-5.87,1.11c-1.81,0.72-3.46,1.78-4.86,3.13
			c-1.4,1.36-2.53,2.97-3.31,4.75c-0.83,1.88-1.24,3.92-1.22,5.98C-2172.58,862.31-2172.16,864.35-2171.33,866.24z"/>
		<g id="Grupo_7-2_2_" transform="translate(3.537 126.423)">
			<path id="Trazado_11-2_2_" class="st7" d="M-2160.79,790.12c-12.02-0.04-23.5,4.97-31.65,13.81h-17.44
				c10.35-17.21,29-27.71,49.09-27.61c20.09-0.09,38.74,10.4,49.09,27.61h-17.44C-2137.29,795.09-2148.77,790.08-2160.79,790.12z"/>
		</g>
		<g id="Grupo_8-2_2_">
			<path id="Trazado_12-2_2_" class="st7" d="M-2185.87,776.32l-24.02,25.21l9.91,9.44l14.11-14.81l19.07,20.01l19.07-20.01
				l19.07,20.01l24.02-25.21l-9.9-9.44l-14.12,14.82l-19.07-20.02l-19.07,20.02L-2185.87,776.32z"/>
		</g>
	</g>
	<g id="Grupo_25_2_" transform="translate(15.249)">
		<path id="Trazado_13_2_" class="st7" d="M-457.36,957.29c-2.94,6.98-8.59,12.47-15.66,15.19c-7.81,2.93-16.42,2.93-24.23,0
			c-3.55-1.37-6.8-3.44-9.54-6.08c-2.66-2.59-4.78-5.69-6.23-9.11c-2.98-7.22-2.98-15.32,0-22.54c1.45-3.42,3.57-6.52,6.23-9.11
			c2.74-2.64,5.99-4.71,9.54-6.09c7.81-2.93,16.42-2.93,24.23,0c14.7,6,21.76,22.78,15.76,37.48
			C-457.29,957.12-457.33,957.2-457.36,957.29L-457.36,957.29z M-471.12,940.04c-1.58-3.6-4.52-6.43-8.17-7.88
			c-3.77-1.49-7.97-1.49-11.74,0c-1.82,0.72-3.48,1.79-4.9,3.13c-1.42,1.35-2.56,2.96-3.35,4.75c-1.63,3.82-1.63,8.14,0,11.95
			c0.79,1.79,1.93,3.41,3.35,4.75c1.42,1.35,3.08,2.41,4.9,3.13c3.77,1.49,7.97,1.49,11.74,0c1.81-0.72,3.46-1.78,4.86-3.13
			c1.4-1.36,2.53-2.97,3.31-4.75C-469.48,948.18-469.48,943.86-471.12,940.04z"/>
		<rect id="Rectángulo_7_2_" x="-492.03" y="860.4" class="st7" width="13.68" height="40.85"/>
		<g id="Grupo_13_2_" transform="translate(1602.612 487.904)">
			
				<rect id="Rectángulo_8_2_" x="-2151.4" y="788.75" transform="matrix(0.7071 -0.7071 0.7071 0.7071 -1186.7188 -1273.8044)" class="st7" width="40.85" height="13.68"/>
			<g id="Grupo_12_2_" transform="translate(0 19.278)">
				<rect id="Rectángulo_9_2_" x="-2209.88" y="818.57" class="st7" width="98.18" height="13.68"/>
				<g id="Grupo_11_2_" transform="translate(116.577)">
					<path id="Trazado_14_2_" class="st7" d="M-2196.08,825.41c-0.04,12.02,4.97,23.5,13.81,31.65v17.44
						c-27.11-16.47-35.74-51.81-19.26-78.92c4.78-7.87,11.39-14.48,19.26-19.26v17.44C-2191.1,801.9-2196.11,813.39-2196.08,825.41z
						"/>
				</g>
			</g>
		</g>
		<g id="Grupo_16_2_" transform="translate(1645.084 856.573)">
			<path id="Trazado_15_2_" class="st7" d="M-2143.18,840.43c-1.58-3.6-4.52-6.43-8.17-7.88c-5.68-2.29-12.17-1.07-16.63,3.13
				c-1.42,1.35-2.56,2.96-3.35,4.75c-1.63,3.82-1.63,8.14,0,11.95c0.79,1.79,1.93,3.41,3.35,4.75c1.42,1.35,3.08,2.41,4.9,3.13
				c3.77,1.49,7.97,1.49,11.74,0c1.81-0.72,3.46-1.78,4.86-3.13c1.4-1.36,2.53-2.97,3.31-4.75
				C-2141.54,848.57-2141.54,844.25-2143.18,840.43L-2143.18,840.43z"/>
			<g id="Grupo_14_2_" transform="translate(3.537)">
				<path id="Trazado_16_2_" class="st7" d="M-2160.79,790.12c12.02,0.04,23.5-4.97,31.65-13.81h17.44
					c-16.48,27.11-51.81,35.73-78.92,19.26c-7.87-4.78-14.48-11.39-19.26-19.26h17.44C-2184.3,785.15-2172.81,790.16-2160.79,790.12
					z"/>
			</g>
			<g id="Grupo_15_2_" transform="translate(0 114.188)">
				<path id="Trazado_17_2_" class="st7" d="M-2128.64,816.16l24.02-25.21l-9.91-9.44l-14.11,14.81l-19.07-20.01l-19.07,20.02
					l-19.07-20.01l-24.03,25.21l9.9,9.44l14.12-14.82l19.08,20.01l19.07-20.01L-2128.64,816.16z"/>
			</g>
		</g>
	</g>
</g>
<path id="Rectángulo_28_1_" class="st8" d="M-75.41-2616.95h251.78c37.5,0,67.9,30.4,67.9,67.9l0,0c0,37.5-30.4,67.9-67.9,67.9
	H-75.41c-37.5,0-67.9-30.4-67.9-67.9l0,0C-143.31-2586.55-112.91-2616.95-75.41-2616.95z"/>
<circle id="Elipse_18_1_" class="st3" cx="29.26" cy="-2551.62" r="6.06"/>
<circle id="Elipse_19_1_" class="st3" cx="71.69" cy="-2551.62" r="6.06"/>
<line id="Línea_10_1_" class="st9" x1="23.19" y1="-2564.56" x2="35.32" y2="-2564.56"/>
<line id="Línea_11_1_" class="st9" x1="65.63" y1="-2564.56" x2="77.75" y2="-2564.56"/>
<line id="Línea_12_1_" class="st9" x1="36.51" y1="-2533.54" x2="65.49" y2="-2533.54"/>
<circle id="Elipse_20_1_" class="st3" cx="152.06" cy="-2554.19" r="6.06"/>
<circle id="Elipse_21_1_" class="st3" cx="194.49" cy="-2554.19" r="6.06"/>
<path id="Trazado_49_1_" class="st9" d="M159.31-2528.9c0,0,13.2-16.05,28.98-0.27"/>
<line id="Línea_13_1_" class="st9" x1="146.36" y1="-2565.06" x2="157.75" y2="-2569.21"/>
<line id="Línea_14_1_" class="st9" x1="188.79" y1="-2569.21" x2="200.19" y2="-2565.06"/>
<circle id="Elipse_22_4_" class="st3" cx="-94.34" cy="-2552.2" r="6.06"/>
<path id="Trazado_50_4_" class="st9" d="M-100.4-2565.14c0-3.35,2.71-6.06,6.06-6.06s6.06,2.71,6.06,6.06"/>
<path id="Trazado_51_4_" class="st9" d="M-57.97-2565.14c0.04-3.35,2.79-6.03,6.14-5.99c3.29,0.04,5.94,2.7,5.99,5.99"/>
<circle id="Elipse_23_4_" class="st3" cx="-51.91" cy="-2552.2" r="6.06"/>
<path id="Trazado_52_4_" class="st9" d="M-58.11-2534.12c0,0-13.2,16.05-28.98,0.27"/>
<circle id="Elipse_17_1_" class="st8" cx="49.68" cy="-3118.58" r="51.74"/>
<circle id="Elipse_27_1_" class="st10" cx="703.53" cy="-3108.63" r="51.74"/>
<circle id="Elipse_34_1_" class="st11" cx="704.53" cy="-2548.32" r="51.74"/>
<circle id="Elipse_17" class="st12" cx="1348.74" cy="-2837.21" r="51.74"/>
<g id="Grupo_206_2_" transform="translate(-761.504 -930.93)">
	<circle id="Elipse_51_2_" class="st6" cx="983.14" cy="-791.75" r="32.38"/>
	<g id="Grupo_106_2_" transform="translate(778.662 948.619)">
		<line id="Línea_31_2_" class="st13" x1="219.69" y1="-1740.37" x2="189.25" y2="-1740.37"/>
		<path id="Trazado_101_2_" class="st13" d="M205-1755.06l14.69,14.69L205-1725.69"/>
	</g>
</g>
<g id="Grupo_206_1_" transform="translate(-761.504 -930.93)">
	<circle id="Elipse_51_1_" class="st6" cx="747.14" cy="-791.75" r="32.38"/>
	<g id="Grupo_106_1_" transform="translate(778.662 948.619)">
		<line id="Línea_31_1_" class="st13" x1="-16.31" y1="-1740.37" x2="-46.75" y2="-1740.37"/>
		<path id="Trazado_101_1_" class="st13" d="M-32.06-1725.69l-14.69-14.69l14.69-14.69"/>
	</g>
</g>
<g id="Grupo_207_1_" transform="translate(-852.941 -931.283)">
	<path id="Rectángulo_65_1_" class="st6" d="M827.1-251.74h150.94c17.67,0,32,14.33,32,32v0.05c0,17.67-14.33,32-32,32H827.1
		c-17.67,0-32-14.33-32-32v-0.05C795.1-237.41,809.43-251.74,827.1-251.74z"/>
	<text transform="matrix(1 0 0 1 836.7801 -214.379)" class="st2" style="font-family:'SegoeUI'; font-size:21px;">Ver en Netflix</text>
</g>
<g id="Grupo_208" transform="translate(-1091.976 -930.93)">
	<circle id="Elipse_52" class="st6" cx="1069.61" cy="-545.07" r="32.38"/>
	<g id="Grupo_108" transform="translate(1109.666 948.088)">
		<path id="Trazado_102" class="st13" d="M-50.49-1497.72v19.78h20.86v-19.78"/>
		<path id="Trazado_103" class="st13" d="M-54.75-1493.69l14.69-14.69l14.69,14.69"/>
	</g>
</g>
<g id="Grupo_209" transform="translate(-854.092 -931.284)">
	<path id="Rectángulo_109" class="st6" d="M1239.25-251.74h150.94c17.67,0,32,14.33,32,32v0.05c0,17.67-14.33,32-32,32h-150.94
		c-17.67,0-32-14.33-32-32v-0.05C1207.25-237.41,1221.58-251.74,1239.25-251.74z"/>
	<text transform="matrix(1 0 0 1 1239.1602 -214.379)" class="st2" style="font-family:'SegoeUI'; font-size:21px;">Abrir en Spotify</text>
</g>
<g id="Grupo_187" transform="translate(-198 -430)">
	<circle id="Elipse_27" class="st10" cx="923.15" cy="-1034.5" r="51.74"/>
	<circle id="Elipse_28" class="st3" cx="901.4" cy="-1039.64" r="6.06"/>
	<circle id="Elipse_29" class="st3" cx="943.84" cy="-1039.64" r="6.06"/>
	<path id="Trazado_54" class="st9" d="M908.65-1014.35c0,0,13.2-16.05,28.98-0.27"/>
	<line id="Línea_19" class="st9" x1="895.7" y1="-1050.51" x2="907.1" y2="-1054.65"/>
	<line id="Línea_20" class="st9" x1="938.14" y1="-1054.65" x2="949.53" y2="-1050.51"/>
</g>
<circle id="Elipse_34" class="st10" cx="980.12" cy="-1464.5" r="51.74"/>
<path id="Trazado_186" class="st9" d="M1001.28-1467.04c0,11.56-9.38,20.93-20.94,20.93c-11.56,0-20.92-9.37-20.93-20.93"/>
<line id="Línea_40" class="st9" x1="980.34" y1="-1446" x2="980.34" y2="-1427.33"/>
<line id="Línea_41" class="st9" x1="967.58" y1="-1427.33" x2="993.58" y2="-1427.33"/>
<path id="Rectángulo_112" class="st9" d="M980.34-1502.5L980.34-1502.5c7.05,0,12.76,5.71,12.76,12.76v22.07
	c0,7.05-5.71,12.76-12.76,12.76l0,0c-7.05,0-12.76-5.71-12.76-12.76v-22.07C967.58-1496.79,973.29-1502.5,980.34-1502.5z"/>
<line id="Línea_42" class="st9" x1="967.58" y1="-1487.89" x2="974.4" y2="-1487.89"/>
<line id="Línea_44" class="st9" x1="967.58" y1="-1478.92" x2="974.4" y2="-1478.92"/>
<line id="Línea_45" class="st9" x1="967.58" y1="-1469.94" x2="974.4" y2="-1469.94"/>
<line id="Línea_46" class="st9" x1="986.28" y1="-1487.89" x2="993.1" y2="-1487.89"/>
<line id="Línea_48" class="st9" x1="986.28" y1="-1478.92" x2="993.1" y2="-1478.92"/>
<line id="Línea_49" class="st9" x1="986.28" y1="-1469.94" x2="993.1" y2="-1469.94"/>
<circle id="Elipse_34_2_" class="st11" cx="1228.12" cy="-1464.5" r="51.74"/>
<path id="Trazado_186_1_" class="st9" d="M1249.28-1467.04c0,11.56-9.38,20.93-20.94,20.93c-11.56,0-20.92-9.37-20.93-20.93"/>
<line id="Línea_40_1_" class="st9" x1="1228.34" y1="-1446" x2="1228.34" y2="-1427.33"/>
<line id="Línea_41_1_" class="st9" x1="1215.58" y1="-1427.33" x2="1241.58" y2="-1427.33"/>
<path id="Rectángulo_112_1_" class="st9" d="M1228.34-1502.5L1228.34-1502.5c7.05,0,12.76,5.71,12.76,12.76v22.07
	c0,7.05-5.71,12.76-12.76,12.76l0,0c-7.05,0-12.76-5.71-12.76-12.76v-22.07C1215.58-1496.79,1221.29-1502.5,1228.34-1502.5z"/>
<line id="Línea_42_1_" class="st9" x1="1215.58" y1="-1487.89" x2="1222.4" y2="-1487.89"/>
<line id="Línea_44_1_" class="st9" x1="1215.58" y1="-1478.92" x2="1222.4" y2="-1478.92"/>
<line id="Línea_45_1_" class="st9" x1="1215.58" y1="-1469.94" x2="1222.4" y2="-1469.94"/>
<line id="Línea_46_1_" class="st9" x1="1234.28" y1="-1487.89" x2="1241.1" y2="-1487.89"/>
<line id="Línea_48_1_" class="st9" x1="1234.28" y1="-1478.92" x2="1241.1" y2="-1478.92"/>
<line id="Línea_49_1_" class="st9" x1="1234.28" y1="-1469.94" x2="1241.1" y2="-1469.94"/>
<circle id="Elipse_27-2" class="st8" cx="725.15" cy="-1463.5" r="51.74"/>
<circle id="Elipse_28-2" class="st3" cx="703.4" cy="-1468.64" r="6.06"/>
<circle id="Elipse_29-2" class="st3" cx="745.84" cy="-1468.64" r="6.06"/>
<path id="Trazado_54-2" class="st9" d="M710.66-1443.35c0,0,13.2-16.05,28.98-0.27"/>
<line id="Línea_19-2" class="st9" x1="697.71" y1="-1479.51" x2="709.1" y2="-1483.65"/>
<line id="Línea_20-2" class="st9" x1="740.14" y1="-1483.65" x2="751.53" y2="-1479.51"/>
<circle id="Elipse_27-2_2_" class="st10" cx="980.15" cy="-1722.5" r="51.74"/>
<circle id="Elipse_22_3_" class="st3" cx="959.2" cy="-1725.89" r="6.06"/>
<path id="Trazado_50_3_" class="st9" d="M953.14-1738.83c0-3.35,2.71-6.06,6.06-6.06s6.06,2.71,6.06,6.06"/>
<path id="Trazado_51_3_" class="st9" d="M995.58-1738.83c0.04-3.35,2.79-6.03,6.14-5.99c3.29,0.04,5.94,2.7,5.99,5.99"/>
<circle id="Elipse_23_3_" class="st3" cx="1001.64" cy="-1725.89" r="6.06"/>
<path id="Trazado_52_3_" class="st9" d="M995.44-1707.82c0,0-13.2,16.05-28.98,0.27"/>
<circle id="Elipse_33" class="st10" cx="1230.94" cy="-1719.58" r="51.74"/>
<g id="Grupo_173" transform="translate(-524.864 -221.357)">
	<path id="Trazado_187" class="st14" d="M1742.9-1516.13"/>
	<path id="Trazado_188" class="st9" d="M1779.29-1520.13c0-2.39-1.68-4.45-4.02-4.93c-0.21-2.61-2.39-4.63-5.01-4.63
		c-0.25,0-0.5,0.02-0.75,0.06c-4.39-1.12-8.55-3.02-12.29-5.59c-2.41,0-4.47,1.7-4.94,4.07c-2.53,2.46-6.42,2.86-9.39,0.96
		c-2.78,0-5.03,2.25-5.03,5.03l0,0c0,0.02,0,0.03,0,0.05c-0.23-0.03-0.45-0.05-0.68-0.05c-2.78,0-5.03,2.25-5.03,5.03l0,0"/>
	<g id="Grupo_172">
		<path id="Trazado_189" class="st9" d="M1774.59-1461.69h-37.32l-4.06-43.44h45.34L1774.59-1461.69z"/>
		<circle id="Elipse_68" class="st9" cx="1755.74" cy="-1483.4" r="10.36"/>
		<line id="Línea_50" class="st9" x1="1747.17" y1="-1505.12" x2="1747.65" y2="-1489.88"/>
		<line id="Línea_51" class="st9" x1="1764.28" y1="-1505.12" x2="1763.77" y2="-1489.95"/>
		<line id="Línea_52" class="st9" x1="1748.08" y1="-1476.44" x2="1748.55" y2="-1461.69"/>
		<line id="Línea_53" class="st9" x1="1763.32" y1="-1476.44" x2="1762.82" y2="-1461.69"/>
		<rect id="Rectángulo_113" x="1731.02" y="-1513.48" class="st9" width="49.65" height="8.36"/>
	</g>
	<path id="Trazado_190" class="st9" d="M1744.63-1520.41c0.8-2.02,3.1-3.01,5.12-2.21"/>
	<path id="Trazado_191" class="st9" d="M1762.24-1523.67c2.05-0.73,4.31,0.35,5.03,2.4"/>
</g>
<g id="Grupo_187_1_" transform="translate(-198 -430)">
	<circle id="Elipse_27_2_" class="st10" cx="420.15" cy="-1034.5" r="51.74"/>
	<circle id="Elipse_28_1_" class="st3" cx="398.4" cy="-1039.64" r="6.06"/>
	<circle id="Elipse_29_1_" class="st3" cx="440.84" cy="-1039.64" r="6.06"/>
	<path id="Trazado_54_1_" class="st9" d="M405.65-1014.35c0,0,13.2-16.05,28.98-0.27"/>
	<line id="Línea_19_1_" class="st9" x1="392.7" y1="-1050.51" x2="404.1" y2="-1054.65"/>
	<line id="Línea_20_1_" class="st9" x1="435.14" y1="-1054.65" x2="446.53" y2="-1050.51"/>
</g>
<circle id="Elipse_27-2_3_" class="st15" cx="222.15" cy="-1463.5" r="51.74"/>
<circle id="Elipse_28-2_1_" class="st3" cx="200.4" cy="-1468.64" r="6.06"/>
<circle id="Elipse_29-2_1_" class="st3" cx="242.84" cy="-1468.64" r="6.06"/>
<path id="Trazado_54-2_1_" class="st9" d="M207.66-1443.35c0,0,13.2-16.05,28.98-0.27"/>
<line id="Línea_19-2_1_" class="st9" x1="194.71" y1="-1479.51" x2="206.1" y2="-1483.65"/>
<line id="Línea_20-2_1_" class="st9" x1="237.14" y1="-1483.65" x2="248.53" y2="-1479.51"/>
<circle id="Elipse_27-2_1_" class="st15" cx="477.15" cy="-1722.5" r="51.74"/>
<circle id="Elipse_22_1_" class="st3" cx="456.2" cy="-1725.89" r="6.06"/>
<path id="Trazado_50_1_" class="st9" d="M450.14-1738.83c0-3.35,2.71-6.06,6.06-6.06s6.06,2.71,6.06,6.06"/>
<path id="Trazado_51_1_" class="st9" d="M492.58-1738.83c0.04-3.35,2.79-6.03,6.14-5.99c3.29,0.04,5.94,2.7,5.99,5.99"/>
<circle id="Elipse_23_1_" class="st3" cx="498.64" cy="-1725.89" r="6.06"/>
<path id="Trazado_52_1_" class="st9" d="M492.44-1707.82c0,0-13.2,16.05-28.98,0.27"/>
<circle id="Elipse_33_1_" class="st11" cx="1474.94" cy="-1719.58" r="51.74"/>
<g id="Grupo_173_1_" transform="translate(-524.864 -221.357)">
	<path id="Trazado_187_1_" class="st14" d="M1986.9-1516.13"/>
	<path id="Trazado_188_1_" class="st9" d="M2023.29-1520.13c0-2.39-1.68-4.45-4.02-4.93c-0.21-2.61-2.39-4.63-5.01-4.63
		c-0.25,0-0.5,0.02-0.75,0.06c-4.39-1.12-8.55-3.02-12.29-5.59c-2.41,0-4.47,1.7-4.94,4.07c-2.53,2.46-6.42,2.86-9.39,0.96
		c-2.78,0-5.03,2.25-5.03,5.03l0,0c0,0.02,0,0.03,0,0.05c-0.23-0.03-0.45-0.05-0.68-0.05c-2.78,0-5.03,2.25-5.03,5.03l0,0"/>
	<g id="Grupo_172_1_">
		<path id="Trazado_189_1_" class="st9" d="M2018.59-1461.69h-37.32l-4.06-43.44h45.34L2018.59-1461.69z"/>
		<circle id="Elipse_68_1_" class="st9" cx="1999.74" cy="-1483.4" r="10.36"/>
		<line id="Línea_50_1_" class="st9" x1="1991.17" y1="-1505.12" x2="1991.65" y2="-1489.88"/>
		<line id="Línea_51_1_" class="st9" x1="2008.28" y1="-1505.12" x2="2007.77" y2="-1489.95"/>
		<line id="Línea_52_1_" class="st9" x1="1992.08" y1="-1476.44" x2="1992.55" y2="-1461.69"/>
		<line id="Línea_53_1_" class="st9" x1="2007.32" y1="-1476.44" x2="2006.82" y2="-1461.69"/>
		<rect id="Rectángulo_113_1_" x="1975.02" y="-1513.48" class="st9" width="49.65" height="8.36"/>
	</g>
	<path id="Trazado_190_1_" class="st9" d="M1988.63-1520.41c0.8-2.02,3.1-3.01,5.12-2.21"/>
	<path id="Trazado_191_1_" class="st9" d="M2006.24-1523.67c2.05-0.73,4.31,0.35,5.03,2.4"/>
</g>
<g id="Grupo_188_2_" transform="translate(152 -432)">
	<circle id="Elipse_34_3_" class="st15" cx="325.12" cy="-1032.5" r="51.74"/>
	<g id="Grupo_174_2_" transform="translate(2.001)">
		<path id="Trazado_186_3_" class="st16" d="M344.27-1035.04c0,11.56-9.38,20.93-20.94,20.93c-11.56,0-20.92-9.37-20.93-20.93"/>
		<line id="Línea_40_3_" class="st9" x1="323.34" y1="-1014" x2="323.34" y2="-995.33"/>
		<line id="Línea_41_3_" class="st9" x1="310.58" y1="-995.33" x2="336.58" y2="-995.33"/>
		<path id="Rectángulo_112_3_" class="st16" d="M323.34-1070.5L323.34-1070.5c7.05,0,12.76,5.71,12.76,12.76v22.07
			c0,7.05-5.71,12.76-12.76,12.76l0,0c-7.05,0-12.76-5.71-12.76-12.76v-22.07C310.58-1064.79,316.29-1070.5,323.34-1070.5z"/>
		<line id="Línea_42_3_" class="st9" x1="310.58" y1="-1055.89" x2="317.4" y2="-1055.89"/>
		<line id="Línea_44_3_" class="st9" x1="310.58" y1="-1046.92" x2="317.4" y2="-1046.92"/>
		<line id="Línea_45_3_" class="st9" x1="310.58" y1="-1037.94" x2="317.4" y2="-1037.94"/>
		<line id="Línea_46_3_" class="st9" x1="329.28" y1="-1055.89" x2="336.1" y2="-1055.89"/>
		<line id="Línea_48_3_" class="st9" x1="329.28" y1="-1046.92" x2="336.1" y2="-1046.92"/>
		<line id="Línea_49_3_" class="st9" x1="329.28" y1="-1037.94" x2="336.1" y2="-1037.94"/>
	</g>
</g>
<circle id="Elipse_33_2_" class="st15" cx="727.94" cy="-1719.58" r="51.74"/>
<g id="Grupo_173_3_" transform="translate(-524.864 -221.357)">
	<path id="Trazado_187_3_" class="st14" d="M1239.9-1516.13"/>
	<path id="Trazado_188_3_" class="st9" d="M1276.29-1520.13c0-2.39-1.68-4.45-4.02-4.93c-0.21-2.61-2.39-4.63-5.01-4.63
		c-0.25,0-0.5,0.02-0.75,0.06c-4.39-1.12-8.55-3.02-12.29-5.59c-2.41,0-4.47,1.7-4.94,4.07c-2.53,2.46-6.42,2.86-9.39,0.96
		c-2.78,0-5.03,2.25-5.03,5.03l0,0c0,0.02,0,0.03,0,0.05c-0.23-0.03-0.45-0.05-0.68-0.05c-2.78,0-5.03,2.25-5.03,5.03l0,0"/>
	<g id="Grupo_172_3_">
		<path id="Trazado_189_3_" class="st9" d="M1271.59-1461.69h-37.32l-4.06-43.44h45.34L1271.59-1461.69z"/>
		<circle id="Elipse_68_3_" class="st9" cx="1252.74" cy="-1483.4" r="10.36"/>
		<line id="Línea_50_3_" class="st9" x1="1244.17" y1="-1505.12" x2="1244.65" y2="-1489.88"/>
		<line id="Línea_51_3_" class="st9" x1="1261.28" y1="-1505.12" x2="1260.77" y2="-1489.95"/>
		<line id="Línea_52_3_" class="st9" x1="1245.08" y1="-1476.44" x2="1245.55" y2="-1461.69"/>
		<line id="Línea_53_3_" class="st9" x1="1260.32" y1="-1476.44" x2="1259.82" y2="-1461.69"/>
		<rect id="Rectángulo_113_3_" x="1228.02" y="-1513.48" class="st9" width="49.65" height="8.36"/>
	</g>
	<path id="Trazado_190_3_" class="st9" d="M1241.63-1520.41c0.8-2.02,3.1-3.01,5.12-2.21"/>
	<path id="Trazado_191_3_" class="st9" d="M1259.24-1523.67c2.05-0.73,4.31,0.35,5.03,2.4"/>
</g>
<path id="Rectángulo_37_1_" class="st12" d="M-6.15-397.32h129.04c37.5,0,67.9,30.4,67.9,67.9l0,0c0,37.5-30.4,67.9-67.9,67.9
	H-6.15c-37.5,0-67.9-30.4-67.9-67.9l0,0C-74.05-366.92-43.65-397.32-6.15-397.32z"/>
<g id="Grupo_174_1_" transform="translate(-820.998 -467.103)">
	<path id="Trazado_186_4_" class="st9" d="M838.82,135.14c0,11.56-9.38,20.93-20.94,20.93c-11.56,0-20.92-9.37-20.93-20.93"/>
	<line id="Línea_40_4_" class="st9" x1="817.89" y1="156.18" x2="817.89" y2="174.85"/>
	<line id="Línea_41_4_" class="st9" x1="805.13" y1="174.85" x2="831.13" y2="174.85"/>
	<path id="Rectángulo_112_4_" class="st9" d="M817.89,99.68L817.89,99.68c7.05,0,12.76,5.71,12.76,12.76v22.07
		c0,7.05-5.71,12.76-12.76,12.76l0,0c-7.05,0-12.76-5.71-12.76-12.76v-22.07C805.13,105.39,810.84,99.68,817.89,99.68z"/>
	<line id="Línea_42_4_" class="st9" x1="805.13" y1="114.29" x2="811.95" y2="114.29"/>
	<line id="Línea_44_4_" class="st9" x1="805.13" y1="123.26" x2="811.95" y2="123.26"/>
	<line id="Línea_45_4_" class="st9" x1="805.13" y1="132.25" x2="811.95" y2="132.25"/>
	<line id="Línea_46_4_" class="st9" x1="823.82" y1="114.29" x2="830.65" y2="114.29"/>
	<line id="Línea_48_4_" class="st9" x1="823.82" y1="123.26" x2="830.65" y2="123.26"/>
	<line id="Línea_49_4_" class="st9" x1="823.82" y1="132.25" x2="830.65" y2="132.25"/>
</g>
<g id="Grupo_173_4_" transform="translate(-535.864 214.643)">
	<path id="Trazado_187_4_" class="st14" d="M642.69-561.98"/>
	<path id="Trazado_188_4_" class="st9" d="M679.09-565.98c0-2.39-1.68-4.45-4.02-4.93c-0.21-2.61-2.39-4.63-5.01-4.63
		c-0.25,0-0.5,0.02-0.75,0.06c-4.39-1.12-8.55-3.02-12.29-5.59c-2.41,0-4.47,1.7-4.94,4.07c-2.53,2.46-6.42,2.86-9.39,0.96
		c-2.78,0-5.03,2.25-5.03,5.03l0,0c0,0.02,0,0.03,0,0.05c-0.23-0.03-0.45-0.05-0.68-0.05c-2.78,0-5.03,2.25-5.03,5.03v0"/>
	<g id="Grupo_172_4_">
		<path id="Trazado_189_4_" class="st9" d="M674.38-507.53h-37.32l-4.06-43.44h45.34L674.38-507.53z"/>
		<circle id="Elipse_68_4_" class="st9" cx="655.54" cy="-529.25" r="10.36"/>
		<line id="Línea_50_4_" class="st9" x1="646.96" y1="-550.97" x2="647.45" y2="-535.72"/>
		<line id="Línea_51_4_" class="st9" x1="664.08" y1="-550.97" x2="663.57" y2="-535.79"/>
		<line id="Línea_52_4_" class="st9" x1="647.87" y1="-522.28" x2="648.34" y2="-507.53"/>
		<line id="Línea_53_4_" class="st9" x1="663.12" y1="-522.28" x2="662.62" y2="-507.53"/>
		<rect id="Rectángulo_113_4_" x="630.82" y="-559.32" class="st9" width="49.65" height="8.36"/>
	</g>
	<path id="Trazado_190_4_" class="st9" d="M644.43-566.26c0.8-2.02,3.1-3.01,5.12-2.21"/>
	<path id="Trazado_191_4_" class="st9" d="M662.04-569.51c2.05-0.73,4.31,0.35,5.03,2.4"/>
</g>
<circle id="Elipse_53_1_" class="st2" cx="-153.79" cy="52.95" r="25.74"/>
<path id="Rectángulo_73_1_" class="st6" d="M-153.79,42.23L-153.79,42.23c0.97,0,1.76,0.79,1.76,1.76v17.92
	c0,0.97-0.79,1.76-1.76,1.76l0,0c-0.97,0-1.76-0.79-1.76-1.76V43.99C-155.55,43.02-154.76,42.23-153.79,42.23z"/>
<path id="Rectángulo_74_1_" class="st6" d="M-143.07,52.95L-143.07,52.95c0,0.97-0.79,1.76-1.76,1.76h-17.92
	c-0.97,0-1.76-0.79-1.76-1.76l0,0c0-0.97,0.79-1.76,1.76-1.76h17.92C-143.86,51.19-143.07,51.98-143.07,52.95z"/>
<circle id="Elipse_60" class="st6" cx="51.21" cy="50.79" r="25.74"/>
<path id="Rectángulo_97" class="st2" d="M51.21,40.07L51.21,40.07c0.97,0,1.76,0.79,1.76,1.76v17.92c0,0.97-0.79,1.76-1.76,1.76
	l0,0c-0.97,0-1.76-0.79-1.76-1.76V41.83C49.45,40.86,50.24,40.07,51.21,40.07z"/>
<path id="Rectángulo_98" class="st2" d="M61.93,50.79L61.93,50.79c0,0.97-0.79,1.76-1.76,1.76H42.25c-0.97,0-1.76-0.79-1.76-1.76
	l0,0c0-0.97,0.79-1.76,1.76-1.76h17.92C61.14,49.03,61.93,49.82,61.93,50.79z"/>
<path id="Trazado_124_1_" class="st2" d="M-79.44,1116.86c19.59,0,35.47-15.88,35.47-35.47c0.06-56.26,45.66-101.86,101.92-101.92
	c56.26,0.06,101.86,45.66,101.92,101.92c0,19.59,15.88,35.47,35.47,35.47c19.59,0,35.47-15.88,35.47-35.47
	c0.13-45.87-18.11-89.88-50.63-122.23c-32.35-32.52-76.36-50.76-122.23-50.63c-45.87-0.13-89.88,18.11-122.23,50.63
	c-32.52,32.35-50.75,76.36-50.63,122.23C-114.91,1100.98-99.03,1116.86-79.44,1116.86C-79.44,1116.86-79.44,1116.86-79.44,1116.86z"
	/>
<g>
	<g id="Grupo_132_1_" transform="translate(47.033 54.45)">
		<path id="Trazado_125_1_" class="st6" d="M7.32,1585.4c6.61-0.02,12.93,2.74,17.41,7.6h9.59c-5.69-9.47-15.95-15.24-27-15.19
			c-11.05-0.05-21.31,5.72-27,15.19h9.59C-5.6,1588.14,0.71,1585.39,7.32,1585.4z"/>
	</g>
	<path id="Trazado_126_1_" class="st6" d="M-19.68,1624.39l5.07-30.1h7.68l5.98,16.05l5.94-16.05h7.69l5.07,30.1h-7.72l-2.57-17.33
		l-7.05,17.33h-3.09l-6.69-17.33l-2.57,17.33H-19.68z"/>
	<path id="Trazado_127_1_" class="st6" d="M19.42,1608.62c-0.02-2.13,0.4-4.24,1.23-6.2c0.79-1.88,1.95-3.58,3.41-5.01
		c1.49-1.45,3.27-2.59,5.21-3.35c2.13-0.82,4.39-1.24,6.67-1.21c2.28-0.02,4.53,0.39,6.66,1.21c1.95,0.75,3.74,1.89,5.25,3.35
		c1.46,1.43,2.63,3.13,3.43,5.01c0.83,1.96,1.25,4.07,1.23,6.2c0.02,2.13-0.4,4.24-1.23,6.2c-0.8,1.88-1.96,3.59-3.43,5.01
		c-1.51,1.45-3.29,2.59-5.25,3.35c-2.12,0.82-4.38,1.23-6.66,1.21c-2.28,0.03-4.55-0.38-6.67-1.21c-1.94-0.76-3.71-1.89-5.21-3.35
		c-1.46-1.43-2.61-3.13-3.41-5.01C19.82,1612.86,19.4,1610.75,19.42,1608.62z M27.54,1608.62c-0.01,1.13,0.22,2.25,0.68,3.29
		c0.43,0.98,1.05,1.87,1.82,2.62c0.77,0.74,1.68,1.33,2.67,1.72c1.03,0.41,2.12,0.62,3.23,0.61c1.11,0.01,2.2-0.2,3.23-0.61
		c1-0.4,1.91-0.98,2.69-1.72c0.78-0.74,1.41-1.63,1.84-2.62c0.46-1.04,0.68-2.16,0.67-3.29c0.01-1.13-0.22-2.25-0.67-3.29
		c-0.44-0.98-1.06-1.87-1.84-2.61c-0.78-0.74-1.7-1.32-2.69-1.72c-1.03-0.41-2.12-0.62-3.23-0.61c-1.11-0.01-2.2,0.2-3.23,0.61
		c-0.99,0.39-1.9,0.98-2.67,1.72c-0.77,0.75-1.39,1.63-1.82,2.61C27.76,1606.37,27.53,1607.49,27.54,1608.62z"/>
	<path id="Trazado_128_1_" class="st6" d="M56.41,1608.62c-0.02-2.13,0.4-4.24,1.23-6.2c0.79-1.88,1.95-3.58,3.41-5.01
		c1.49-1.45,3.27-2.59,5.21-3.35c2.13-0.83,4.39-1.24,6.68-1.21c2.27-0.02,4.53,0.39,6.65,1.21c1.96,0.75,3.74,1.89,5.25,3.35
		c1.46,1.42,2.63,3.13,3.43,5.01c0.83,1.96,1.24,4.07,1.23,6.2c0.02,2.13-0.4,4.24-1.23,6.2c-0.8,1.88-1.96,3.59-3.43,5.01
		c-1.51,1.46-3.29,2.59-5.25,3.35c-2.12,0.82-4.38,1.23-6.65,1.21c-2.28,0.03-4.55-0.38-6.68-1.21c-1.94-0.76-3.71-1.89-5.21-3.35
		c-1.46-1.43-2.61-3.13-3.41-5.01C56.81,1612.86,56.39,1610.75,56.41,1608.62z M64.53,1608.62c-0.01,1.13,0.22,2.25,0.67,3.29
		c0.43,0.98,1.05,1.87,1.82,2.62c0.77,0.74,1.68,1.33,2.67,1.72c1.03,0.41,2.12,0.62,3.23,0.61c1.11,0.01,2.2-0.2,3.23-0.61
		c1-0.4,1.91-0.98,2.69-1.72c0.78-0.74,1.41-1.63,1.84-2.62c0.46-1.03,0.69-2.16,0.68-3.29c0.01-1.13-0.22-2.25-0.68-3.29
		c-0.44-0.98-1.06-1.87-1.84-2.61c-0.78-0.74-1.69-1.32-2.69-1.72c-1.03-0.41-2.12-0.62-3.23-0.61c-1.11-0.01-2.2,0.2-3.23,0.61
		c-0.99,0.4-1.9,0.98-2.67,1.72c-0.77,0.75-1.39,1.63-1.82,2.61C64.75,1606.37,64.52,1607.49,64.53,1608.62L64.53,1608.62z"/>
	<path id="Trazado_129_1_" class="st6" d="M93.39,1594.29h11.49c1.98-0.01,3.93,0.41,5.72,1.24c1.75,0.8,3.33,1.92,4.67,3.29
		c1.34,1.38,2.41,3.01,3.15,4.79c0.76,1.81,1.15,3.76,1.15,5.73c0,1.95-0.38,3.89-1.13,5.69c-0.73,1.79-1.79,3.42-3.13,4.81
		c-1.34,1.39-2.92,2.51-4.67,3.31c-1.81,0.83-3.77,1.25-5.76,1.24H93.39L93.39,1594.29z M101.15,1617.76h1.78
		c1.23,0.02,2.45-0.2,3.6-0.64c1.01-0.39,1.92-0.99,2.68-1.76c0.73-0.76,1.3-1.66,1.66-2.65c0.39-1.08,0.59-2.22,0.57-3.37
		c0.01-1.15-0.19-2.28-0.59-3.35c-0.37-1-0.94-1.91-1.68-2.68c-0.76-0.77-1.67-1.36-2.67-1.76c-1.14-0.44-2.35-0.66-3.56-0.64h-1.78
		L101.15,1617.76z"/>
	<rect id="Rectángulo_83_1_" x="27.38" y="1577.81" class="st6" width="22.47" height="7.53"/>
	<rect id="Rectángulo_84_1_" x="59.05" y="1577.81" class="st6" width="22.47" height="7.53"/>
</g>
<g>
	<g id="Grupo_98" transform="translate(47.035 54.451)">
		<path id="Trazado_90" class="st6" d="M612.13,1289.17c-6.61,0.02-12.93-2.73-17.41-7.59h-9.59c9.06,14.91,28.5,19.66,43.42,10.59
			c4.33-2.63,7.96-6.26,10.59-10.59h-9.59C625.06,1286.44,618.74,1289.19,612.13,1289.17z"/>
	</g>
	<path id="Trazado_91" class="st6" d="M585.13,1328.16l5.07-30.1h7.69l5.98,16.05l5.94-16.05h7.69l5.07,30.1h-7.73l-2.58-17.33
		l-7.05,17.33h-3.09l-6.69-17.33l-2.58,17.33L585.13,1328.16z"/>
	<path id="Trazado_92" class="st6" d="M624.23,1312.39c-0.08-6.43,3.84-12.24,9.84-14.56c4.3-1.61,9.03-1.61,13.33,0
		c1.95,0.76,3.74,1.89,5.25,3.35c1.46,1.43,2.63,3.13,3.42,5.01c1.64,3.97,1.64,8.43,0,12.4c-0.8,1.88-1.96,3.58-3.42,5.01
		c-1.51,1.45-3.29,2.59-5.25,3.35c-4.3,1.61-9.03,1.61-13.33,0C628.08,1324.62,624.16,1318.82,624.23,1312.39L624.23,1312.39z
		 M632.35,1312.39c-0.01,1.13,0.22,2.25,0.67,3.29c0.87,1.98,2.49,3.54,4.5,4.34c3.13,1.26,6.7,0.59,9.15-1.72
		c0.78-0.74,1.41-1.63,1.84-2.61c0.9-2.1,0.9-4.48,0-6.58c-0.44-0.98-1.06-1.87-1.84-2.62c-0.78-0.74-1.7-1.32-2.7-1.72
		c-2.07-0.82-4.38-0.82-6.45,0c-0.99,0.39-1.9,0.98-2.67,1.72c-0.77,0.75-1.39,1.63-1.82,2.62
		C632.57,1310.14,632.34,1311.26,632.35,1312.39z"/>
	<path id="Trazado_93" class="st6" d="M661.22,1312.39c-0.08-6.43,3.84-12.24,9.84-14.56c4.3-1.61,9.03-1.61,13.33,0
		c1.95,0.76,3.74,1.89,5.25,3.35c1.46,1.42,2.63,3.13,3.43,5.01c1.64,3.97,1.64,8.43,0,12.4c-0.8,1.88-1.96,3.59-3.43,5.01
		c-1.51,1.45-3.29,2.59-5.25,3.35c-4.3,1.61-9.03,1.61-13.33,0C665.07,1324.62,661.15,1318.82,661.22,1312.39L661.22,1312.39z
		 M669.34,1312.39c-0.01,1.13,0.22,2.25,0.67,3.29c0.87,1.98,2.49,3.54,4.5,4.34c2.07,0.82,4.38,0.82,6.46,0
		c1-0.4,1.91-0.98,2.69-1.72c0.78-0.74,1.41-1.63,1.84-2.61c0.9-2.1,0.9-4.48,0-6.58c-0.44-0.98-1.06-1.87-1.84-2.62
		c-0.78-0.74-1.69-1.32-2.69-1.72c-2.07-0.82-4.38-0.82-6.46,0c-0.99,0.39-1.9,0.98-2.67,1.72c-0.77,0.75-1.39,1.63-1.82,2.62
		C669.56,1310.14,669.33,1311.26,669.34,1312.39z"/>
	<path id="Trazado_94" class="st6" d="M698.2,1298.05h11.49c1.98-0.01,3.93,0.41,5.72,1.24c1.75,0.8,3.33,1.92,4.67,3.3
		c1.34,1.38,2.41,3.01,3.15,4.79c1.53,3.65,1.53,7.76,0.02,11.42c-0.73,1.79-1.79,3.42-3.13,4.81c-1.34,1.39-2.92,2.51-4.67,3.31
		c-1.81,0.83-3.77,1.25-5.76,1.24H698.2V1298.05z M705.96,1321.53h1.78c1.23,0.02,2.45-0.2,3.6-0.64c1-0.39,1.91-0.99,2.67-1.76
		c0.73-0.76,1.3-1.66,1.66-2.66c0.39-1.08,0.59-2.22,0.58-3.37c0.01-1.14-0.19-2.28-0.59-3.35c-0.74-2.04-2.33-3.66-4.36-4.43
		c-1.14-0.44-2.35-0.66-3.56-0.64h-1.78L705.96,1321.53z"/>
	<rect id="Rectángulo_56" x="632.19" y="1281.58" class="st6" width="22.47" height="7.53"/>
	<rect id="Rectángulo_57" x="663.86" y="1281.58" class="st6" width="22.47" height="7.53"/>
</g>
</svg>
