<?xml version="1.0" encoding="utf-8"?>
<!-- Generator: Adobe Illustrator 24.0.0, SVG Export Plug-In . SVG Version: 6.00 Build 0)  -->
<svg version="1.1" id="Capa_1" xmlns="http://www.w3.org/2000/svg" xmlns:xlink="http://www.w3.org/1999/xlink" x="0px" y="0px"
	 viewBox="0 0 127.3 122.3" style="enable-background:new 0 0 127.3 122.3;" xml:space="preserve">
<style type="text/css">
	.st0{fill:#F5B15A;}
	.st1{fill:#EAE3DA;}
	.st2{fill:#E4D7CE;}
	.st3{fill:#002E61;}
	.st4{fill:#E45451;}
	.st5{fill:#E4D8CE;}
	.st6{fill:#1E244D;}
	.st7{fill:#F99A3D;}
	.st8{fill:none;stroke:#002E61;stroke-width:10;stroke-miterlimit:10;}
	.st9{fill:none;stroke:#002E61;stroke-width:5;stroke-linecap:round;stroke-linejoin:round;}
	.st10{fill:#E45451;stroke:#002E61;stroke-width:10;stroke-miterlimit:10;}
	.st11{fill:#F5B15A;stroke:#002E61;stroke-width:10;stroke-miterlimit:10;}
	.st12{fill:#E4D7CE;stroke:#002E61;stroke-width:10;stroke-miterlimit:10;}
	.st13{fill:none;stroke:#E4D7CE;stroke-width:5;stroke-linecap:round;stroke-linejoin:round;}
	.st14{fill:none;stroke:#002E61;stroke-width:2.37;stroke-linecap:round;stroke-linejoin:round;}
	.st15{fill:#E4D8CE;stroke:#002E61;stroke-width:10;stroke-miterlimit:10;}
	.st16{fill:#E4D8CE;stroke:#002E61;stroke-width:5;stroke-linecap:round;stroke-linejoin:round;}
</style>
<rect id="Rectángulo_36_1_" x="-2624" y="-1839.8" class="st0" width="1919.8" height="1080"/>
<g id="Grupo_201_1_" transform="translate(0 -7.083)">
	<g id="Grupo_10_1_" transform="translate(150 84.083)">
		<path id="Trazado_8_1_" class="st1" d="M-2621.8-1010.1c2.9-7,8.6-12.5,15.7-15.2c7.8-2.9,16.4-2.9,24.2,0
			c3.6,1.4,6.8,3.4,9.5,6.1c2.7,2.6,4.8,5.7,6.2,9.1c3,7.2,3,15.3,0,22.5c-1.4,3.4-3.6,6.5-6.2,9.1c-2.7,2.6-6,4.7-9.5,6.1
			c-7.8,2.9-16.4,2.9-24.2,0c-14.7-6-21.8-22.8-15.8-37.5C-2621.8-1010-2621.8-1010-2621.8-1010.1L-2621.8-1010.1z M-2608-992.9
			c1.6,3.6,4.5,6.4,8.2,7.9c5.7,2.3,12.2,1.1,16.6-3.1c1.4-1.3,2.6-3,3.4-4.8c1.6-3.8,1.6-8.1,0-12c-0.8-1.8-1.9-3.4-3.4-4.8
			c-1.4-1.3-3.1-2.4-4.9-3.1c-3.8-1.5-8-1.5-11.7,0c-1.8,0.7-3.5,1.8-4.9,3.1c-1.4,1.4-2.5,3-3.3,4.8
			C-2609.6-1001-2609.6-996.7-2608-992.9L-2608-992.9z"/>
		<rect id="Rectángulo_4_1_" x="-2600.8" y="-954.1" class="st1" width="13.7" height="40.8"/>
		<g id="Grupo_6_1_" transform="translate(7.948 405.244)">
			
				<rect id="Rectángulo_5_1_" x="-2579.1" y="-1748.4" transform="matrix(0.7071 -0.7071 0.7071 0.7071 482.0724 -2319.3447)" class="st1" width="40.8" height="13.7"/>
			<g id="Grupo_5_1_">
				<rect id="Rectángulo_6_1_" x="-2578" y="-1797.5" class="st1" width="98.2" height="13.7"/>
				<g id="Grupo_4_1_">
					<path id="Trazado_9_1_" class="st1" d="M-2610.2-1790.7c0-12-5-23.5-13.8-31.7v-17.4c27.1,16.5,35.7,51.8,19.3,78.9
						c-4.8,7.9-11.4,14.5-19.3,19.3v-17.4C-2615.1-1767.2-2610.1-1778.6-2610.2-1790.7z"/>
				</g>
			</g>
		</g>
		<g id="Grupo_9_1_" transform="translate(4.411)">
			<path id="Trazado_10_1_" class="st1" d="M-2585.4-1749.8c1.6,3.6,4.5,6.4,8.2,7.9c5.7,2.3,12.2,1.1,16.6-3.1
				c1.4-1.3,2.6-3,3.4-4.8c1.6-3.8,1.6-8.1,0-11.9c-0.8-1.8-1.9-3.4-3.4-4.8c-4.5-4.2-10.9-5.4-16.6-3.1c-1.8,0.7-3.5,1.8-4.9,3.1
				c-1.4,1.4-2.5,3-3.3,4.8C-2587.1-1758-2587.1-1753.7-2585.4-1749.8z"/>
			<g id="Grupo_7_1_" transform="translate(3.537 126.423)">
				<path id="Trazado_11_1_" class="st1" d="M-2574.9-1826c-12,0-23.5,5-31.6,13.8h-17.4c16.5-27.1,51.8-35.7,78.9-19.3
					c7.9,4.8,14.5,11.4,19.3,19.3h-17.4C-2551.4-1821-2562.9-1826-2574.9-1826z"/>
			</g>
			<g id="Grupo_8_1_">
				<path id="Trazado_12_1_" class="st1" d="M-2600-1839.8l-24,25.2l9.9,9.4l14.1-14.8l19.1,20l19.1-20l19.1,20l24-25.2l-9.9-9.4
					l-14.1,14.8l-19.1-20l-19.1,20L-2600-1839.8z"/>
			</g>
		</g>
	</g>
	<g id="Grupo_26_1_" transform="translate(1324 684.328)">
		
			<rect id="Rectángulo_5-2_1_" x="-2579.1" y="-1748.4" transform="matrix(0.7071 -0.7071 0.7071 0.7071 482.0724 -2319.3447)" class="st1" width="40.8" height="13.7"/>
		<g id="Grupo_5-2_1_" transform="translate(0 0)">
			<rect id="Rectángulo_6-2_1_" x="-2578" y="-1797.5" class="st1" width="98.2" height="13.7"/>
			<g id="Grupo_4-2_1_">
				<path id="Trazado_9-2_1_" class="st1" d="M-2610.2-1790.7c0-12-5-23.5-13.8-31.7v-17.4c17.2,10.3,27.7,29,27.6,49.1
					c0.1,20.1-10.4,38.7-27.6,49.1v-17.4C-2615.1-1767.2-2610.1-1778.6-2610.2-1790.7z"/>
			</g>
		</g>
	</g>
	<g id="Grupo_35_1_" transform="translate(0 186)">
		<path id="Trazado_8-2_1_" class="st1" d="M-2072.1-1658.8c-2.9,7-8.6,12.5-15.7,15.2c-7.8,2.9-16.4,2.9-24.2,0
			c-3.6-1.4-6.8-3.4-9.5-6.1c-2.7-2.6-4.8-5.7-6.2-9.1c-3-7.2-3-15.3,0-22.5c1.4-3.4,3.6-6.5,6.2-9.1c2.7-2.6,6-4.7,9.5-6.1
			c7.8-2.9,16.4-2.9,24.2,0c14.7,6,21.8,22.8,15.8,37.5C-2072-1658.9-2072-1658.9-2072.1-1658.8L-2072.1-1658.8z M-2085.8-1676
			c-1.6-3.6-4.5-6.4-8.2-7.9c-5.7-2.3-12.2-1.1-16.6,3.1c-1.4,1.3-2.6,3-3.4,4.8c-1.6,3.8-1.6,8.1,0,11.9c0.8,1.8,1.9,3.4,3.4,4.8
			c1.4,1.3,3.1,2.4,4.9,3.1c3.8,1.5,8,1.5,11.7,0c1.8-0.7,3.5-1.8,4.9-3.1c1.4-1.4,2.5-3,3.3-4.8
			C-2084.2-1667.9-2084.2-1672.2-2085.8-1676L-2085.8-1676z"/>
		<rect id="Rectángulo_4-2_1_" x="-2106.7" y="-1755.7" class="st1" width="13.7" height="40.8"/>
	</g>
	<g id="Grupo_6-2_1_" transform="translate(592.19 791.365) rotate(180)">
		
			<rect id="Rectángulo_5-3_1_" x="2668.8" y="1931.1" transform="matrix(0.7071 -0.7071 0.7071 0.7071 -582.6794 2469.2036)" class="st1" width="40.8" height="13.7"/>
		<g id="Grupo_5-3_1_">
			<rect id="Rectángulo_6-3_1_" x="2670" y="1882" class="st1" width="98.2" height="13.7"/>
			<g id="Grupo_4-3_1_">
				<path id="Trazado_9-3_1_" class="st1" d="M2637.8,1888.9c0-12-5-23.5-13.8-31.7v-17.4c27.1,16.5,35.7,51.8,19.3,78.9
					c-4.8,7.9-11.4,14.5-19.3,19.3v-17.4C2632.8,1912.4,2637.8,1900.9,2637.8,1888.9z"/>
			</g>
		</g>
	</g>
	<g id="Grupo_27_1_" transform="translate(1339.463 279.083)">
		<path id="Trazado_10-2_1_" class="st1" d="M-2585.4-1749.8c1.6,3.6,4.5,6.4,8.2,7.9c1.9,0.8,3.9,1.1,5.9,1.1c4,0,7.9-1.5,10.8-4.2
			c1.4-1.3,2.6-3,3.4-4.8c0.8-1.9,1.2-3.9,1.2-6c0-2.1-0.4-4.1-1.2-6c-0.8-1.8-1.9-3.4-3.4-4.8c-2.9-2.8-6.8-4.3-10.8-4.2
			c-2,0-4,0.4-5.9,1.1c-1.8,0.7-3.5,1.8-4.9,3.1c-1.4,1.4-2.5,3-3.3,4.8c-0.8,1.9-1.2,3.9-1.2,6
			C-2586.7-1753.8-2586.3-1751.7-2585.4-1749.8z"/>
		<g id="Grupo_7-2_1_" transform="translate(3.537 126.423)">
			<path id="Trazado_11-2_1_" class="st1" d="M-2574.9-1826c-12,0-23.5,5-31.6,13.8h-17.4c10.4-17.2,29-27.7,49.1-27.6
				c20.1-0.1,38.7,10.4,49.1,27.6h-17.4C-2551.4-1821-2562.9-1826-2574.9-1826z"/>
		</g>
		<g id="Grupo_8-2_1_">
			<path id="Trazado_12-2_1_" class="st1" d="M-2600-1839.8l-24,25.2l9.9,9.4l14.1-14.8l19.1,20l19.1-20l19.1,20l24-25.2l-9.9-9.4
				l-14.1,14.8l-19.1-20l-19.1,20L-2600-1839.8z"/>
		</g>
	</g>
	<g id="Grupo_25_1_" transform="translate(15.249)">
		<path id="Trazado_13_1_" class="st1" d="M-871.5-1658.8c-2.9,7-8.6,12.5-15.7,15.2c-7.8,2.9-16.4,2.9-24.2,0
			c-3.5-1.4-6.8-3.4-9.5-6.1c-2.7-2.6-4.8-5.7-6.2-9.1c-3-7.2-3-15.3,0-22.5c1.5-3.4,3.6-6.5,6.2-9.1c2.7-2.6,6-4.7,9.5-6.1
			c7.8-2.9,16.4-2.9,24.2,0c14.7,6,21.8,22.8,15.8,37.5C-871.4-1659-871.4-1658.9-871.5-1658.8L-871.5-1658.8z M-885.2-1676
			c-1.6-3.6-4.5-6.4-8.2-7.9c-3.8-1.5-8-1.5-11.7,0c-1.8,0.7-3.5,1.8-4.9,3.1c-1.4,1.3-2.6,3-3.3,4.8c-1.6,3.8-1.6,8.1,0,11.9
			c0.8,1.8,1.9,3.4,3.3,4.8c1.4,1.3,3.1,2.4,4.9,3.1c3.8,1.5,8,1.5,11.7,0c1.8-0.7,3.5-1.8,4.9-3.1c1.4-1.4,2.5-3,3.3-4.8
			C-883.6-1667.9-883.6-1672.2-885.2-1676z"/>
		<rect id="Rectángulo_7_1_" x="-906.1" y="-1755.7" class="st1" width="13.7" height="40.8"/>
		<g id="Grupo_13_1_" transform="translate(1602.612 487.904)">
			
				<rect id="Rectángulo_8_1_" x="-2565.5" y="-1827.3" transform="matrix(0.7071 -0.7071 0.7071 0.7071 541.8497 -2332.8318)" class="st1" width="40.8" height="13.7"/>
			<g id="Grupo_12_1_" transform="translate(0 19.278)">
				<rect id="Rectángulo_9_1_" x="-2624" y="-1797.5" class="st1" width="98.2" height="13.7"/>
				<g id="Grupo_11_1_" transform="translate(116.577)">
					<path id="Trazado_14_1_" class="st1" d="M-2610.2-1790.7c0,12,5,23.5,13.8,31.7v17.4c-27.1-16.5-35.7-51.8-19.3-78.9
						c4.8-7.9,11.4-14.5,19.3-19.3v17.4C-2605.2-1814.2-2610.2-1802.7-2610.2-1790.7z"/>
				</g>
			</g>
		</g>
		<g id="Grupo_16_1_" transform="translate(1645.084 856.573)">
			<path id="Trazado_15_1_" class="st1" d="M-2557.3-1775.6c-1.6-3.6-4.5-6.4-8.2-7.9c-5.7-2.3-12.2-1.1-16.6,3.1
				c-1.4,1.3-2.6,3-3.4,4.8c-1.6,3.8-1.6,8.1,0,11.9c0.8,1.8,1.9,3.4,3.4,4.8c1.4,1.3,3.1,2.4,4.9,3.1c3.8,1.5,8,1.5,11.7,0
				c1.8-0.7,3.5-1.8,4.9-3.1c1.4-1.4,2.5-3,3.3-4.8C-2555.6-1767.5-2555.6-1771.8-2557.3-1775.6L-2557.3-1775.6z"/>
			<g id="Grupo_14_1_" transform="translate(3.537)">
				<path id="Trazado_16_1_" class="st1" d="M-2574.9-1826c12,0,23.5-5,31.6-13.8h17.4c-16.5,27.1-51.8,35.7-78.9,19.3
					c-7.9-4.8-14.5-11.4-19.3-19.3h17.4C-2598.4-1830.9-2586.9-1825.9-2574.9-1826z"/>
			</g>
			<g id="Grupo_15_1_" transform="translate(0 114.188)">
				<path id="Trazado_17_1_" class="st1" d="M-2542.7-1799.9l24-25.2l-9.9-9.4l-14.1,14.8l-19.1-20l-19.1,20l-19.1-20l-24,25.2
					l9.9,9.4l14.1-14.8l19.1,20l19.1-20L-2542.7-1799.9z"/>
			</g>
		</g>
	</g>
</g>
<rect id="Rectángulo_51" x="-2623.5" y="-456.2" class="st2" width="1919.8" height="1080"/>
<g id="Grupo_203" transform="translate(0 -7.083)">
	<g id="Grupo_10" transform="translate(150 84.083)">
		<path id="Trazado_8" class="st3" d="M-2621.2,373.5c2.9-7,8.6-12.5,15.7-15.2c7.8-2.9,16.4-2.9,24.2,0c3.6,1.4,6.8,3.4,9.5,6.1
			c2.7,2.6,4.8,5.7,6.2,9.1c3,7.2,3,15.3,0,22.5c-1.4,3.4-3.6,6.5-6.2,9.1c-2.7,2.6-6,4.7-9.5,6.1c-7.8,2.9-16.4,2.9-24.2,0
			c-14.7-6-21.8-22.8-15.8-37.5C-2621.3,373.6-2621.3,373.5-2621.2,373.5L-2621.2,373.5z M-2607.5,390.7c1.6,3.6,4.5,6.4,8.2,7.9
			c5.7,2.3,12.2,1.1,16.6-3.1c1.4-1.4,2.6-3,3.4-4.8c1.6-3.8,1.6-8.1,0-12c-0.8-1.8-1.9-3.4-3.4-4.8c-1.4-1.4-3.1-2.4-4.9-3.1
			c-3.8-1.5-8-1.5-11.7,0c-1.8,0.7-3.5,1.8-4.9,3.1c-1.4,1.4-2.5,3-3.3,4.8C-2609.1,382.6-2609.1,386.9-2607.5,390.7L-2607.5,390.7z
			"/>
		<rect id="Rectángulo_4" x="-2600.2" y="429.5" class="st3" width="13.7" height="40.9"/>
		<g id="Grupo_6" transform="translate(7.948 405.244)">
			
				<rect id="Rectángulo_5" x="-2578.6" y="-364.9" transform="matrix(0.7071 -0.7071 0.7071 0.7071 -496.1124 -1913.7422)" class="st3" width="40.8" height="13.7"/>
			<g id="Grupo_5">
				<rect id="Rectángulo_6" x="-2577.4" y="-413.9" class="st3" width="98.2" height="13.7"/>
				<g id="Grupo_4">
					<path id="Trazado_9" class="st3" d="M-2609.6-407.1c0-12-5-23.5-13.8-31.7v-17.4c27.1,16.5,35.7,51.8,19.3,78.9
						c-4.8,7.9-11.4,14.5-19.3,19.3v-17.4C-2614.6-383.6-2609.6-395.1-2609.6-407.1z"/>
				</g>
			</g>
		</g>
		<g id="Grupo_9" transform="translate(4.411)">
			<path id="Trazado_10" class="st3" d="M-2584.9-366.3c1.6,3.6,4.5,6.4,8.2,7.9c5.7,2.3,12.2,1.1,16.6-3.1c1.4-1.4,2.6-3,3.4-4.8
				c1.6-3.8,1.6-8.1,0-12c-0.8-1.8-1.9-3.4-3.4-4.8c-4.5-4.2-10.9-5.4-16.6-3.1c-1.8,0.7-3.5,1.8-4.9,3.1c-1.4,1.4-2.5,3-3.3,4.8
				C-2586.5-374.4-2586.5-370.1-2584.9-366.3z"/>
			<g id="Grupo_7" transform="translate(3.537 126.423)">
				<path id="Trazado_11" class="st3" d="M-2574.4-442.4c-12,0-23.5,5-31.6,13.8h-17.4c16.5-27.1,51.8-35.7,78.9-19.3
					c7.9,4.8,14.5,11.4,19.3,19.3h-17.4C-2550.9-437.4-2562.3-442.4-2574.4-442.4z"/>
			</g>
			<g id="Grupo_8">
				<path id="Trazado_12" class="st3" d="M-2599.4-456.2l-24,25.2l9.9,9.4l14.1-14.8l19.1,20l19.1-20l19.1,20l24-25.2l-9.9-9.4
					l-14.1,14.8l-19.1-20l-19.1,20L-2599.4-456.2z"/>
			</g>
		</g>
	</g>
	<g id="Grupo_26" transform="translate(1324 684.328)">
		
			<rect id="Rectángulo_5-2" x="-2578.6" y="-364.9" transform="matrix(0.7071 -0.7071 0.7071 0.7071 -496.1124 -1913.7422)" class="st3" width="40.8" height="13.7"/>
		<g id="Grupo_5-2" transform="translate(0 0)">
			<rect id="Rectángulo_6-2" x="-2577.4" y="-413.9" class="st3" width="98.2" height="13.7"/>
			<g id="Grupo_4-2">
				<path id="Trazado_9-2" class="st3" d="M-2609.6-407.1c0-12-5-23.5-13.8-31.6v-17.4c17.2,10.4,27.7,29,27.6,49.1
					c0.1,20.1-10.4,38.7-27.6,49.1v-17.4C-2614.6-383.6-2609.6-395.1-2609.6-407.1z"/>
			</g>
		</g>
	</g>
	<g id="Grupo_35" transform="translate(0 186)">
		<path id="Trazado_8-2" class="st3" d="M-2071.5-275.2c-2.9,7-8.6,12.5-15.7,15.2c-7.8,2.9-16.4,2.9-24.2,0
			c-3.6-1.4-6.8-3.4-9.5-6.1c-2.7-2.6-4.8-5.7-6.2-9.1c-3-7.2-3-15.3,0-22.5c1.4-3.4,3.6-6.5,6.2-9.1c2.7-2.6,6-4.7,9.5-6.1
			c7.8-2.9,16.4-2.9,24.2,0c14.7,6,21.8,22.8,15.8,37.5C-2071.5-275.4-2071.5-275.3-2071.5-275.2L-2071.5-275.2z M-2085.3-292.5
			c-1.6-3.6-4.5-6.4-8.2-7.9c-5.7-2.3-12.2-1.1-16.6,3.1c-1.4,1.4-2.6,3-3.4,4.8c-1.6,3.8-1.6,8.1,0,12c0.8,1.8,1.9,3.4,3.4,4.8
			c1.4,1.4,3.1,2.4,4.9,3.1c3.8,1.5,8,1.5,11.7,0c1.8-0.7,3.5-1.8,4.9-3.1c1.4-1.4,2.5-3,3.3-4.8
			C-2083.7-284.3-2083.7-288.6-2085.3-292.5L-2085.3-292.5z"/>
		<rect id="Rectángulo_4-2" x="-2106.2" y="-372.1" class="st3" width="13.7" height="40.9"/>
	</g>
	<g id="Grupo_6-2" transform="translate(592.19 791.365) rotate(180)">
		
			<rect id="Rectángulo_5-3" x="2668.3" y="547.5" transform="matrix(0.7071 -0.7071 0.7071 0.7071 395.5032 2063.5967)" class="st3" width="40.8" height="13.7"/>
		<g id="Grupo_5-3">
			<rect id="Rectángulo_6-3" x="2669.5" y="498.4" class="st3" width="98.2" height="13.7"/>
			<g id="Grupo_4-3">
				<path id="Trazado_9-3" class="st3" d="M2637.3,505.3c0-12-5-23.5-13.8-31.7v-17.4c27.1,16.5,35.7,51.8,19.3,78.9
					c-4.8,7.9-11.4,14.5-19.3,19.3v-17.4C2632.3,528.8,2637.3,517.3,2637.3,505.3z"/>
			</g>
		</g>
	</g>
	<g id="Grupo_27" transform="translate(1339.463 279.083)">
		<path id="Trazado_10-2" class="st3" d="M-2584.9-366.3c1.6,3.6,4.5,6.4,8.2,7.9c1.9,0.8,3.9,1.1,5.9,1.1c4,0,7.9-1.5,10.8-4.2
			c1.4-1.4,2.6-3,3.4-4.8c0.8-1.9,1.2-3.9,1.2-6c0-2.1-0.4-4.1-1.2-6c-0.8-1.8-1.9-3.4-3.4-4.8c-2.9-2.8-6.8-4.3-10.8-4.2
			c-2,0-4,0.4-5.9,1.1c-1.8,0.7-3.5,1.8-4.9,3.1c-1.4,1.4-2.5,3-3.3,4.8c-0.8,1.9-1.2,3.9-1.2,6
			C-2586.2-370.2-2585.7-368.1-2584.9-366.3z"/>
		<g id="Grupo_7-2" transform="translate(3.537 126.423)">
			<path id="Trazado_11-2" class="st3" d="M-2574.4-442.4c-12,0-23.5,5-31.6,13.8h-17.4c10.4-17.2,29-27.7,49.1-27.6
				c20.1-0.1,38.7,10.4,49.1,27.6h-17.4C-2550.9-437.4-2562.3-442.4-2574.4-442.4z"/>
		</g>
		<g id="Grupo_8-2">
			<path id="Trazado_12-2" class="st3" d="M-2599.4-456.2l-24,25.2l9.9,9.4l14.1-14.8l19.1,20l19.1-20l19.1,20l24-25.2l-9.9-9.4
				l-14.1,14.8l-19.1-20l-19.1,20L-2599.4-456.2z"/>
		</g>
	</g>
	<g id="Grupo_25" transform="translate(15.249)">
		<path id="Trazado_13" class="st3" d="M-870.9-275.2c-2.9,7-8.6,12.5-15.7,15.2c-7.8,2.9-16.4,2.9-24.2,0c-3.5-1.4-6.8-3.4-9.5-6.1
			c-2.7-2.6-4.8-5.7-6.2-9.1c-3-7.2-3-15.3,0-22.5c1.5-3.4,3.6-6.5,6.2-9.1c2.7-2.6,6-4.7,9.5-6.1c7.8-2.9,16.4-2.9,24.2,0
			c14.7,6,21.8,22.8,15.8,37.5C-870.9-275.4-870.9-275.3-870.9-275.2L-870.9-275.2z M-884.7-292.5c-1.6-3.6-4.5-6.4-8.2-7.9
			c-3.8-1.5-8-1.5-11.7,0c-1.8,0.7-3.5,1.8-4.9,3.1c-1.4,1.4-2.6,3-3.3,4.8c-1.6,3.8-1.6,8.1,0,12c0.8,1.8,1.9,3.4,3.3,4.8
			c1.4,1.4,3.1,2.4,4.9,3.1c3.8,1.5,8,1.5,11.7,0c1.8-0.7,3.5-1.8,4.9-3.1c1.4-1.4,2.5-3,3.3-4.8
			C-883.1-284.3-883.1-288.6-884.7-292.5z"/>
		<rect id="Rectángulo_7" x="-905.6" y="-372.1" class="st3" width="13.7" height="40.9"/>
		<g id="Grupo_13" transform="translate(1602.612 487.904)">
			
				<rect id="Rectángulo_8" x="-2565" y="-443.8" transform="matrix(0.7071 -0.7071 0.7071 0.7071 -436.3279 -1927.2264)" class="st3" width="40.8" height="13.7"/>
			<g id="Grupo_12" transform="translate(0 19.278)">
				<rect id="Rectángulo_9" x="-2623.5" y="-413.9" class="st3" width="98.2" height="13.7"/>
				<g id="Grupo_11" transform="translate(116.577)">
					<path id="Trazado_14" class="st3" d="M-2609.6-407.1c0,12,5,23.5,13.8,31.6v17.4c-27.1-16.5-35.7-51.8-19.3-78.9
						c4.8-7.9,11.4-14.5,19.3-19.3v17.4C-2604.7-430.6-2609.7-419.1-2609.6-407.1z"/>
				</g>
			</g>
		</g>
		<g id="Grupo_16" transform="translate(1645.084 856.573)">
			<path id="Trazado_15" class="st3" d="M-2556.8-392.1c-1.6-3.6-4.5-6.4-8.2-7.9c-5.7-2.3-12.2-1.1-16.6,3.1
				c-1.4,1.4-2.6,3-3.4,4.8c-1.6,3.8-1.6,8.1,0,12c0.8,1.8,1.9,3.4,3.4,4.8c1.4,1.4,3.1,2.4,4.9,3.1c3.8,1.5,8,1.5,11.7,0
				c1.8-0.7,3.5-1.8,4.9-3.1c1.4-1.4,2.5-3,3.3-4.8C-2555.1-383.9-2555.1-388.2-2556.8-392.1L-2556.8-392.1z"/>
			<g id="Grupo_14" transform="translate(3.537)">
				<path id="Trazado_16" class="st3" d="M-2574.4-442.4c12,0,23.5-5,31.6-13.8h17.4c-16.5,27.1-51.8,35.7-78.9,19.3
					c-7.9-4.8-14.5-11.4-19.3-19.3h17.4C-2597.9-447.3-2586.4-442.3-2574.4-442.4z"/>
			</g>
			<g id="Grupo_15" transform="translate(0 114.188)">
				<path id="Trazado_17" class="st3" d="M-2542.2-416.3l24-25.2l-9.9-9.4l-14.1,14.8l-19.1-20l-19.1,20l-19.1-20l-24,25.2l9.9,9.4
					l14.1-14.8l19.1,20l19.1-20L-2542.2-416.3z"/>
			</g>
		</g>
	</g>
</g>
<rect id="Rectángulo_32_1_" x="-2624.5" y="936.8" class="st4" width="1919.8" height="1080"/>
<g id="Grupo_199_1_" transform="translate(0 -7.083)">
	<g id="Grupo_10_3_" transform="translate(150 84.083)">
		<path id="Trazado_8_3_" class="st5" d="M-2622.2,1766.5c2.9-7,8.6-12.5,15.7-15.2c7.8-2.9,16.4-2.9,24.2,0
			c3.6,1.4,6.8,3.4,9.5,6.1c2.7,2.6,4.8,5.7,6.2,9.1c3,7.2,3,15.3,0,22.5c-1.4,3.4-3.6,6.5-6.2,9.1c-2.7,2.6-6,4.7-9.5,6.1
			c-7.8,2.9-16.4,2.9-24.2,0c-14.7-6-21.8-22.8-15.8-37.5C-2622.3,1766.6-2622.3,1766.5-2622.2,1766.5L-2622.2,1766.5z
			 M-2608.5,1783.7c1.6,3.6,4.5,6.4,8.2,7.9c5.7,2.3,12.2,1.1,16.6-3.1c1.4-1.3,2.6-3,3.4-4.8c1.6-3.8,1.6-8.1,0-11.9
			c-0.8-1.8-1.9-3.4-3.4-4.8c-1.4-1.3-3.1-2.4-4.9-3.1c-3.8-1.5-8-1.5-11.7,0c-1.8,0.7-3.5,1.8-4.9,3.1c-1.4,1.4-2.5,3-3.3,4.8
			C-2610.1,1775.6-2610.1,1779.9-2608.5,1783.7L-2608.5,1783.7z"/>
		<rect id="Rectángulo_4_3_" x="-2601.2" y="1822.5" class="st5" width="13.7" height="40.8"/>
		<g id="Grupo_6_3_" transform="translate(7.948 405.244)">
			
				<rect id="Rectángulo_5_3_" x="-2579.6" y="1028.1" transform="matrix(0.7071 -0.7071 0.7071 0.7071 -1481.4011 -1506.4585)" class="st5" width="40.8" height="13.7"/>
			<g id="Grupo_5_3_">
				<rect id="Rectángulo_6_3_" x="-2578.4" y="979.1" class="st5" width="98.2" height="13.7"/>
				<g id="Grupo_4_3_">
					<path id="Trazado_9_3_" class="st5" d="M-2610.6,985.9c0-12-5-23.5-13.8-31.7v-17.4c27.1,16.5,35.7,51.8,19.3,78.9
						c-4.8,7.9-11.4,14.5-19.3,19.3v-17.4C-2615.6,1009.4-2610.6,997.9-2610.6,985.9z"/>
				</g>
			</g>
		</g>
		<g id="Grupo_9_3_" transform="translate(4.411)">
			<path id="Trazado_10_3_" class="st5" d="M-2585.9,1026.7c1.6,3.6,4.5,6.4,8.2,7.9c5.7,2.3,12.2,1.1,16.6-3.1
				c1.4-1.3,2.6-3,3.4-4.8c1.6-3.8,1.6-8.1,0-12c-0.8-1.8-1.9-3.4-3.4-4.8c-4.5-4.2-10.9-5.4-16.6-3.1c-1.8,0.7-3.5,1.8-4.9,3.1
				c-1.4,1.4-2.5,3-3.3,4.8C-2587.5,1018.6-2587.5,1022.9-2585.9,1026.7z"/>
			<g id="Grupo_7_3_" transform="translate(3.537 126.423)">
				<path id="Trazado_11_3_" class="st5" d="M-2575.4,950.6c-12,0-23.5,5-31.6,13.8h-17.4c16.5-27.1,51.8-35.7,78.9-19.3
					c7.9,4.8,14.5,11.4,19.3,19.3h-17.4C-2551.9,955.6-2563.3,950.6-2575.4,950.6z"/>
			</g>
			<g id="Grupo_8_3_">
				<path id="Trazado_12_3_" class="st5" d="M-2600.4,936.8l-24,25.2l9.9,9.4l14.1-14.8l19.1,20l19.1-20l19.1,20l24-25.2l-9.9-9.4
					l-14.1,14.8l-19.1-20l-19.1,20L-2600.4,936.8z"/>
			</g>
		</g>
	</g>
	<g id="Grupo_26_3_" transform="translate(1324 684.328)">
		
			<rect id="Rectángulo_5-2_3_" x="-2579.6" y="1028.1" transform="matrix(0.7071 -0.7071 0.7071 0.7071 -1481.4011 -1506.4585)" class="st5" width="40.8" height="13.7"/>
		<g id="Grupo_5-2_3_" transform="translate(0 0)">
			<rect id="Rectángulo_6-2_3_" x="-2578.4" y="979.1" class="st5" width="98.2" height="13.7"/>
			<g id="Grupo_4-2_3_">
				<path id="Trazado_9-2_3_" class="st5" d="M-2610.6,985.9c0-12-5-23.5-13.8-31.7v-17.4c17.2,10.3,27.7,29,27.6,49.1
					c0.1,20.1-10.4,38.7-27.6,49.1v-17.4C-2615.6,1009.4-2610.6,997.9-2610.6,985.9z"/>
			</g>
		</g>
	</g>
	<g id="Grupo_35_3_" transform="translate(0 186)">
		<path id="Trazado_8-2_3_" class="st5" d="M-2072.5,1117.8c-2.9,7-8.6,12.5-15.7,15.2c-7.8,2.9-16.4,2.9-24.2,0
			c-3.6-1.4-6.8-3.4-9.5-6.1c-2.7-2.6-4.8-5.7-6.2-9.1c-3-7.2-3-15.3,0-22.5c1.4-3.4,3.6-6.5,6.2-9.1c2.7-2.6,6-4.7,9.5-6.1
			c7.8-2.9,16.4-2.9,24.2,0c14.7,6,21.8,22.8,15.8,37.5C-2072.5,1117.6-2072.5,1117.7-2072.5,1117.8L-2072.5,1117.8z
			 M-2086.3,1100.5c-1.6-3.6-4.5-6.4-8.2-7.9c-5.7-2.3-12.2-1.1-16.6,3.1c-1.4,1.3-2.6,3-3.4,4.8c-1.6,3.8-1.6,8.1,0,11.9
			c0.8,1.8,1.9,3.4,3.4,4.8c1.4,1.3,3.1,2.4,4.9,3.1c3.8,1.5,8,1.5,11.7,0c1.8-0.7,3.5-1.8,4.9-3.1c1.4-1.4,2.5-3,3.3-4.8
			C-2084.7,1108.7-2084.7,1104.4-2086.3,1100.5L-2086.3,1100.5z"/>
		<rect id="Rectángulo_4-2_3_" x="-2107.2" y="1020.9" class="st5" width="13.7" height="40.8"/>
	</g>
	<g id="Grupo_6-2_3_" transform="translate(592.19 791.365) rotate(180)">
		
			<rect id="Rectángulo_5-3_3_" x="2669.3" y="-845.4" transform="matrix(0.7071 -0.7071 0.7071 0.7071 1380.7969 1656.3116)" class="st5" width="40.8" height="13.7"/>
		<g id="Grupo_5-3_3_">
			<rect id="Rectángulo_6-3_3_" x="2670.5" y="-894.6" class="st5" width="98.2" height="13.7"/>
			<g id="Grupo_4-3_3_">
				<path id="Trazado_9-3_3_" class="st5" d="M2638.3-887.7c0-12-5-23.5-13.8-31.7v-17.4c27.1,16.5,35.7,51.8,19.3,78.9
					c-4.8,7.9-11.4,14.5-19.3,19.3v-17.4C2633.3-864.2,2638.3-875.7,2638.3-887.7z"/>
			</g>
		</g>
	</g>
	<g id="Grupo_27_3_" transform="translate(1339.463 279.083)">
		<path id="Trazado_10-2_3_" class="st5" d="M-2585.9,1026.7c1.6,3.6,4.5,6.4,8.2,7.9c1.9,0.8,3.9,1.1,5.9,1.1c4,0,7.9-1.5,10.8-4.2
			c1.4-1.3,2.6-3,3.4-4.8c0.8-1.9,1.2-3.9,1.2-6c0-2.1-0.4-4.1-1.2-6c-0.8-1.8-1.9-3.4-3.4-4.8c-2.9-2.8-6.8-4.3-10.8-4.2
			c-2,0-4,0.4-5.9,1.1c-1.8,0.7-3.5,1.8-4.9,3.1c-1.4,1.4-2.5,3-3.3,4.8c-0.8,1.9-1.2,3.9-1.2,6
			C-2587.2,1022.8-2586.7,1024.9-2585.9,1026.7z"/>
		<g id="Grupo_7-2_3_" transform="translate(3.537 126.423)">
			<path id="Trazado_11-2_3_" class="st5" d="M-2575.4,950.6c-12,0-23.5,5-31.6,13.8h-17.4c10.4-17.2,29-27.7,49.1-27.6
				c20.1-0.1,38.7,10.4,49.1,27.6h-17.4C-2551.9,955.6-2563.3,950.6-2575.4,950.6z"/>
		</g>
		<g id="Grupo_8-2_3_">
			<path id="Trazado_12-2_3_" class="st5" d="M-2600.4,936.8l-24,25.2l9.9,9.4l14.1-14.8l19.1,20l19.1-20l19.1,20l24-25.2l-9.9-9.4
				l-14.1,14.8l-19.1-20l-19.1,20L-2600.4,936.8z"/>
		</g>
	</g>
	<g id="Grupo_25_3_" transform="translate(15.249)">
		<path id="Trazado_13_3_" class="st5" d="M-871.9,1117.8c-2.9,7-8.6,12.5-15.7,15.2c-7.8,2.9-16.4,2.9-24.2,0
			c-3.5-1.4-6.8-3.4-9.5-6.1c-2.7-2.6-4.8-5.7-6.2-9.1c-3-7.2-3-15.3,0-22.5c1.5-3.4,3.6-6.5,6.2-9.1c2.7-2.6,6-4.7,9.5-6.1
			c7.8-2.9,16.4-2.9,24.2,0c14.7,6,21.8,22.8,15.8,37.5C-871.9,1117.6-871.9,1117.7-871.9,1117.8L-871.9,1117.8z M-885.7,1100.5
			c-1.6-3.6-4.5-6.4-8.2-7.9c-3.8-1.5-8-1.5-11.7,0c-1.8,0.7-3.5,1.8-4.9,3.1c-1.4,1.3-2.6,3-3.3,4.8c-1.6,3.8-1.6,8.1,0,11.9
			c0.8,1.8,1.9,3.4,3.3,4.8c1.4,1.3,3.1,2.4,4.9,3.1c3.8,1.5,8,1.5,11.7,0c1.8-0.7,3.5-1.8,4.9-3.1c1.4-1.4,2.5-3,3.3-4.8
			C-884.1,1108.7-884.1,1104.4-885.7,1100.5z"/>
		<rect id="Rectángulo_7_3_" x="-906.6" y="1020.9" class="st5" width="13.7" height="40.8"/>
		<g id="Grupo_13_3_" transform="translate(1602.612 487.904)">
			
				<rect id="Rectángulo_8_3_" x="-2566" y="949.2" transform="matrix(0.7071 -0.7071 0.7071 0.7071 -1421.6166 -1519.9427)" class="st5" width="40.8" height="13.7"/>
			<g id="Grupo_12_3_" transform="translate(0 19.278)">
				<rect id="Rectángulo_9_3_" x="-2624.5" y="979.1" class="st5" width="98.2" height="13.7"/>
				<g id="Grupo_11_3_" transform="translate(116.577)">
					<path id="Trazado_14_3_" class="st5" d="M-2610.6,985.9c0,12,5,23.5,13.8,31.7v17.4c-27.1-16.5-35.7-51.8-19.3-78.9
						c4.8-7.9,11.4-14.5,19.3-19.3v17.4C-2605.7,962.4-2610.7,973.9-2610.6,985.9z"/>
				</g>
			</g>
		</g>
		<g id="Grupo_16_3_" transform="translate(1645.084 856.573)">
			<path id="Trazado_15_3_" class="st5" d="M-2557.8,1000.9c-1.6-3.6-4.5-6.4-8.2-7.9c-5.7-2.3-12.2-1.1-16.6,3.1
				c-1.4,1.3-2.6,3-3.4,4.8c-1.6,3.8-1.6,8.1,0,11.9c0.8,1.8,1.9,3.4,3.4,4.8c1.4,1.3,3.1,2.4,4.9,3.1c3.8,1.5,8,1.5,11.7,0
				c1.8-0.7,3.5-1.8,4.9-3.1c1.4-1.4,2.5-3,3.3-4.8C-2556.1,1009.1-2556.1,1004.8-2557.8,1000.9L-2557.8,1000.9z"/>
			<g id="Grupo_14_3_" transform="translate(3.537)">
				<path id="Trazado_16_3_" class="st5" d="M-2575.4,950.6c12,0,23.5-5,31.6-13.8h17.4c-16.5,27.1-51.8,35.7-78.9,19.3
					c-7.9-4.8-14.5-11.4-19.3-19.3h17.4C-2598.9,945.7-2587.4,950.7-2575.4,950.6z"/>
			</g>
			<g id="Grupo_15_3_" transform="translate(0 114.188)">
				<path id="Trazado_17_3_" class="st5" d="M-2543.2,976.7l24-25.2l-9.9-9.4l-14.1,14.8l-19.1-20l-19.1,20l-19.1-20l-24,25.2
					l9.9,9.4l14.1-14.8l19.1,20l19.1-20L-2543.2,976.7z"/>
			</g>
		</g>
	</g>
</g>
<rect id="Rectángulo_3" x="-2623.7" y="2306" class="st6" width="1920.4" height="1080"/>
<g id="Grupo_196">
	<g id="Grupo_10_2_" transform="translate(150 84.083)">
		<path id="Trazado_8_2_" class="st7" d="M-2621.5,3135.6c2.9-7,8.6-12.5,15.7-15.2c7.8-2.9,16.4-2.9,24.2,0
			c3.6,1.4,6.8,3.4,9.5,6.1c2.7,2.6,4.8,5.7,6.2,9.1c3,7.2,3,15.3,0,22.5c-1.4,3.4-3.6,6.5-6.2,9.1c-2.7,2.6-6,4.7-9.5,6.1
			c-7.8,2.9-16.4,2.9-24.2,0c-14.7-6-21.8-22.8-15.8-37.5C-2621.6,3135.8-2621.5,3135.7-2621.5,3135.6L-2621.5,3135.6z
			 M-2607.8,3152.9c1.6,3.6,4.5,6.4,8.2,7.9c5.7,2.3,12.2,1.1,16.6-3.1c1.4-1.4,2.6-3,3.4-4.8c1.6-3.8,1.6-8.1,0-11.9
			c-0.8-1.8-1.9-3.4-3.4-4.8c-1.4-1.4-3.1-2.4-4.9-3.1c-3.8-1.5-8-1.5-11.7,0c-1.8,0.7-3.5,1.8-4.9,3.1c-1.4,1.4-2.5,3-3.3,4.8
			C-2609.4,3144.7-2609.4,3149-2607.8,3152.9L-2607.8,3152.9z"/>
		<rect id="Rectángulo_4_2_" x="-2600.5" y="3191.7" class="st7" width="13.7" height="40.9"/>
		<g id="Grupo_6_2_" transform="translate(7.948 405.244)">
			
				<rect id="Rectángulo_5_2_" x="-2578.9" y="2397.3" transform="matrix(0.7071 -0.7071 0.7071 0.7071 -2449.3228 -1104.9493)" class="st7" width="40.8" height="13.7"/>
			<g id="Grupo_5_2_">
				<rect id="Rectángulo_6_2_" x="-2577.7" y="2348.2" class="st7" width="98.2" height="13.7"/>
				<g id="Grupo_4_2_">
					<path id="Trazado_9_2_" class="st7" d="M-2609.9,2355.1c0-12-5-23.5-13.8-31.7V2306c27.1,16.5,35.7,51.8,19.3,78.9
						c-4.8,7.9-11.4,14.5-19.3,19.3v-17.4C-2614.9,2378.6-2609.9,2367.1-2609.9,2355.1z"/>
				</g>
			</g>
		</g>
		<g id="Grupo_9_2_" transform="translate(4.411)">
			<path id="Trazado_10_2_" class="st7" d="M-2585.2,2395.9c1.6,3.6,4.5,6.4,8.2,7.9c5.7,2.3,12.2,1.1,16.6-3.1
				c1.4-1.4,2.6-3,3.4-4.8c1.6-3.8,1.6-8.1,0-12c-0.8-1.8-1.9-3.4-3.4-4.8c-4.5-4.2-10.9-5.4-16.6-3.1c-1.8,0.7-3.5,1.8-4.9,3.1
				c-1.4,1.4-2.5,3-3.3,4.8C-2586.8,2387.8-2586.8,2392.1-2585.2,2395.9z"/>
			<g id="Grupo_7_2_" transform="translate(3.537 126.423)">
				<path id="Trazado_11_2_" class="st7" d="M-2574.6,2319.8c-12,0-23.5,5-31.6,13.8h-17.4c16.5-27.1,51.8-35.7,78.9-19.3
					c7.9,4.8,14.5,11.4,19.3,19.3h-17.4C-2551.1,2324.8-2562.6,2319.7-2574.6,2319.8z"/>
			</g>
			<g id="Grupo_8_2_">
				<path id="Trazado_12_2_" class="st7" d="M-2599.7,2306l-24,25.2l9.9,9.4l14.1-14.8l19.1,20l19.1-20l19.1,20l24-25.2l-9.9-9.4
					l-14.1,14.8l-19.1-20l-19.1,20L-2599.7,2306z"/>
			</g>
		</g>
	</g>
	<g id="Grupo_26_2_" transform="translate(1324 684.328)">
		
			<rect id="Rectángulo_5-2_2_" x="-2578.9" y="2397.3" transform="matrix(0.7071 -0.7071 0.7071 0.7071 -2449.3228 -1104.9493)" class="st7" width="40.8" height="13.7"/>
		<g id="Grupo_5-2_2_" transform="translate(0 0)">
			<rect id="Rectángulo_6-2_2_" x="-2577.7" y="2348.2" class="st7" width="98.2" height="13.7"/>
			<g id="Grupo_4-2_2_">
				<path id="Trazado_9-2_2_" class="st7" d="M-2609.9,2355.1c0-12-5-23.5-13.8-31.6V2306c17.2,10.4,27.7,29,27.6,49.1
					c0.1,20.1-10.4,38.7-27.6,49.1v-17.4C-2614.9,2378.6-2609.9,2367.1-2609.9,2355.1z"/>
			</g>
		</g>
	</g>
	<g id="Grupo_35_2_" transform="translate(0 186)">
		<path id="Trazado_8-2_2_" class="st7" d="M-2071.8,2487c-2.9,7-8.6,12.5-15.7,15.2c-7.8,2.9-16.4,2.9-24.2,0
			c-3.6-1.4-6.8-3.4-9.5-6.1c-2.7-2.6-4.8-5.7-6.2-9.1c-3-7.2-3-15.3,0-22.5c1.4-3.4,3.6-6.5,6.2-9.1c2.7-2.6,6-4.7,9.5-6.1
			c7.8-2.9,16.4-2.9,24.2,0c14.7,6,21.8,22.8,15.8,37.5C-2071.8,2486.8-2071.8,2486.9-2071.8,2487L-2071.8,2487z M-2085.6,2469.7
			c-1.6-3.6-4.5-6.4-8.2-7.9c-5.7-2.3-12.2-1.1-16.6,3.1c-1.4,1.4-2.6,3-3.4,4.8c-1.6,3.8-1.6,8.1,0,11.9c0.8,1.8,1.9,3.4,3.4,4.8
			c1.4,1.4,3.1,2.4,4.9,3.1c3.8,1.5,8,1.5,11.7,0c1.8-0.7,3.5-1.8,4.9-3.1c1.4-1.4,2.5-3,3.3-4.8
			C-2084,2477.8-2084,2473.5-2085.6,2469.7L-2085.6,2469.7z"/>
		<rect id="Rectángulo_4-2_2_" x="-2106.5" y="2390.1" class="st7" width="13.7" height="40.9"/>
	</g>
	<g id="Grupo_6-2_2_" transform="translate(592.19 791.365) rotate(180)">
		
			<rect id="Rectángulo_5-3_2_" x="2668.6" y="-2214.6" transform="matrix(0.7071 -0.7071 0.7071 0.7071 2348.7336 1254.7968)" class="st7" width="40.8" height="13.7"/>
		<g id="Grupo_5-3_2_">
			<rect id="Rectángulo_6-3_2_" x="2669.7" y="-2263.7" class="st7" width="98.2" height="13.7"/>
			<g id="Grupo_4-3_2_">
				<path id="Trazado_9-3_2_" class="st7" d="M2637.5-2256.9c0-12-5-23.5-13.8-31.7v-17.4c27.1,16.5,35.7,51.8,19.3,78.9
					c-4.8,7.9-11.4,14.5-19.3,19.3v-17.4C2632.6-2233.4,2637.6-2244.9,2637.5-2256.9z"/>
			</g>
		</g>
	</g>
	<g id="Grupo_27_2_" transform="translate(1339.463 279.083)">
		<path id="Trazado_10-2_2_" class="st7" d="M-2585.2,2395.9c1.6,3.6,4.5,6.4,8.2,7.9c1.9,0.8,3.9,1.1,5.9,1.1c4,0,7.9-1.5,10.8-4.2
			c1.4-1.4,2.6-3,3.4-4.8c0.8-1.9,1.2-3.9,1.2-6c0-2.1-0.4-4.1-1.2-6c-0.8-1.8-1.9-3.4-3.4-4.8c-2.9-2.8-6.8-4.3-10.8-4.2
			c-2,0-4,0.4-5.9,1.1c-1.8,0.7-3.5,1.8-4.9,3.1c-1.4,1.4-2.5,3-3.3,4.8c-0.8,1.9-1.2,3.9-1.2,6
			C-2586.4,2392-2586,2394-2585.2,2395.9z"/>
		<g id="Grupo_7-2_2_" transform="translate(3.537 126.423)">
			<path id="Trazado_11-2_2_" class="st7" d="M-2574.6,2319.8c-12,0-23.5,5-31.6,13.8h-17.4c10.4-17.2,29-27.7,49.1-27.6
				c20.1-0.1,38.7,10.4,49.1,27.6h-17.4C-2551.1,2324.8-2562.6,2319.7-2574.6,2319.8z"/>
		</g>
		<g id="Grupo_8-2_2_">
			<path id="Trazado_12-2_2_" class="st7" d="M-2599.7,2306l-24,25.2l9.9,9.4l14.1-14.8l19.1,20l19.1-20l19.1,20l24-25.2l-9.9-9.4
				l-14.1,14.8l-19.1-20l-19.1,20L-2599.7,2306z"/>
		</g>
	</g>
	<g id="Grupo_25_2_" transform="translate(15.249)">
		<path id="Trazado_13_2_" class="st7" d="M-871.2,2487c-2.9,7-8.6,12.5-15.7,15.2c-7.8,2.9-16.4,2.9-24.2,0
			c-3.5-1.4-6.8-3.4-9.5-6.1c-2.7-2.6-4.8-5.7-6.2-9.1c-3-7.2-3-15.3,0-22.5c1.5-3.4,3.6-6.5,6.2-9.1c2.7-2.6,6-4.7,9.5-6.1
			c7.8-2.9,16.4-2.9,24.2,0c14.7,6,21.8,22.8,15.8,37.5C-871.2,2486.8-871.2,2486.9-871.2,2487L-871.2,2487z M-885,2469.7
			c-1.6-3.6-4.5-6.4-8.2-7.9c-3.8-1.5-8-1.5-11.7,0c-1.8,0.7-3.5,1.8-4.9,3.1c-1.4,1.4-2.6,3-3.3,4.8c-1.6,3.8-1.6,8.1,0,11.9
			c0.8,1.8,1.9,3.4,3.3,4.8c1.4,1.4,3.1,2.4,4.9,3.1c3.8,1.5,8,1.5,11.7,0c1.8-0.7,3.5-1.8,4.9-3.1c1.4-1.4,2.5-3,3.3-4.8
			C-883.3,2477.8-883.3,2473.5-885,2469.7z"/>
		<rect id="Rectángulo_7_2_" x="-905.9" y="2390.1" class="st7" width="13.7" height="40.9"/>
		<g id="Grupo_13_2_" transform="translate(1602.612 487.904)">
			
				<rect id="Rectángulo_8_2_" x="-2565.3" y="2318.4" transform="matrix(0.7071 -0.7071 0.7071 0.7071 -2389.5413 -1118.4264)" class="st7" width="40.8" height="13.7"/>
			<g id="Grupo_12_2_" transform="translate(0 19.278)">
				<rect id="Rectángulo_9_2_" x="-2623.7" y="2348.2" class="st7" width="98.2" height="13.7"/>
				<g id="Grupo_11_2_" transform="translate(116.577)">
					<path id="Trazado_14_2_" class="st7" d="M-2609.9,2355.1c0,12,5,23.5,13.8,31.6v17.4c-27.1-16.5-35.7-51.8-19.3-78.9
						c4.8-7.9,11.4-14.5,19.3-19.3v17.4C-2605,2331.6-2610,2343-2609.9,2355.1z"/>
				</g>
			</g>
		</g>
		<g id="Grupo_16_2_" transform="translate(1645.084 856.573)">
			<path id="Trazado_15_2_" class="st7" d="M-2557,2370.1c-1.6-3.6-4.5-6.4-8.2-7.9c-5.7-2.3-12.2-1.1-16.6,3.1
				c-1.4,1.4-2.6,3-3.4,4.8c-1.6,3.8-1.6,8.1,0,11.9c0.8,1.8,1.9,3.4,3.4,4.8c1.4,1.4,3.1,2.4,4.9,3.1c3.8,1.5,8,1.5,11.7,0
				c1.8-0.7,3.5-1.8,4.9-3.1c1.4-1.4,2.5-3,3.3-4.8C-2555.4,2378.2-2555.4,2373.9-2557,2370.1L-2557,2370.1z"/>
			<g id="Grupo_14_2_" transform="translate(3.537)">
				<path id="Trazado_16_2_" class="st7" d="M-2574.7,2319.8c12,0,23.5-5,31.6-13.8h17.4c-16.5,27.1-51.8,35.7-78.9,19.3
					c-7.9-4.8-14.5-11.4-19.3-19.3h17.4C-2598.2,2314.8-2586.7,2319.8-2574.7,2319.8z"/>
			</g>
			<g id="Grupo_15_2_" transform="translate(0 114.188)">
				<path id="Trazado_17_2_" class="st7" d="M-2542.5,2345.8l24-25.2l-9.9-9.4l-14.1,14.8l-19.1-20l-19.1,20l-19.1-20l-24,25.2
					l9.9,9.4l14.1-14.8l19.1,20l19.1-20L-2542.5,2345.8z"/>
			</g>
		</g>
	</g>
</g>
<path id="Rectángulo_28_1_" class="st8" d="M-489.3-1087.3h251.8c37.5,0,67.9,30.4,67.9,67.9l0,0c0,37.5-30.4,67.9-67.9,67.9
	h-251.8c-37.5,0-67.9-30.4-67.9-67.9l0,0C-557.2-1056.9-526.8-1087.3-489.3-1087.3z"/>
<circle id="Elipse_18_1_" class="st3" cx="-384.6" cy="-1022" r="6.1"/>
<circle id="Elipse_19_1_" class="st3" cx="-342.2" cy="-1022" r="6.1"/>
<line id="Línea_10_1_" class="st9" x1="-390.7" y1="-1034.9" x2="-378.5" y2="-1034.9"/>
<line id="Línea_11_1_" class="st9" x1="-348.2" y1="-1034.9" x2="-336.1" y2="-1034.9"/>
<line id="Línea_12_1_" class="st9" x1="-377.3" y1="-1003.9" x2="-348.4" y2="-1003.9"/>
<circle id="Elipse_20_1_" class="st3" cx="-261.8" cy="-1024.5" r="6.1"/>
<circle id="Elipse_21_1_" class="st3" cx="-219.4" cy="-1024.5" r="6.1"/>
<path id="Trazado_49_1_" class="st9" d="M-254.5-999.2c0,0,13.2-16,29-0.3"/>
<line id="Línea_13_1_" class="st9" x1="-267.5" y1="-1035.4" x2="-256.1" y2="-1039.5"/>
<line id="Línea_14_1_" class="st9" x1="-225.1" y1="-1039.5" x2="-213.7" y2="-1035.4"/>
<circle id="Elipse_22_4_" class="st3" cx="-508.2" cy="-1022.5" r="6.1"/>
<path id="Trazado_50_4_" class="st9" d="M-514.3-1035.5c0-3.3,2.7-6.1,6.1-6.1s6.1,2.7,6.1,6.1"/>
<path id="Trazado_51_4_" class="st9" d="M-471.8-1035.5c0-3.3,2.8-6,6.1-6c3.3,0,5.9,2.7,6,6"/>
<circle id="Elipse_23_4_" class="st3" cx="-465.8" cy="-1022.5" r="6.1"/>
<path id="Trazado_52_4_" class="st9" d="M-472-1004.5c0,0-13.2,16-29,0.3"/>
<circle id="Elipse_17_1_" class="st8" cx="-364.2" cy="-1588.9" r="51.7"/>
<circle id="Elipse_27_1_" class="st10" cx="289.7" cy="-1579" r="51.7"/>
<circle id="Elipse_34_1_" class="st11" cx="290.7" cy="-1018.7" r="51.7"/>
<circle id="Elipse_17" class="st12" cx="934.9" cy="-1307.5" r="51.7"/>
<g id="Grupo_206_2_" transform="translate(-761.504 -930.93)">
	<circle id="Elipse_51_2_" class="st6" cx="569.3" cy="737.9" r="32.4"/>
	<g id="Grupo_106_2_" transform="translate(778.662 948.619)">
		<line id="Línea_31_2_" class="st13" x1="-194.2" y1="-210.7" x2="-224.6" y2="-210.7"/>
		<path id="Trazado_101_2_" class="st13" d="M-208.9-225.4l14.7,14.7l-14.7,14.7"/>
	</g>
</g>
<g id="Grupo_206_1_" transform="translate(-761.504 -930.93)">
	<circle id="Elipse_51_1_" class="st6" cx="333.3" cy="737.9" r="32.4"/>
	<g id="Grupo_106_1_" transform="translate(778.662 948.619)">
		<line id="Línea_31_1_" class="st13" x1="-430.2" y1="-210.7" x2="-460.6" y2="-210.7"/>
		<path id="Trazado_101_1_" class="st13" d="M-445.9-196l-14.7-14.7l14.7-14.7"/>
	</g>
</g>
<g id="Grupo_207_1_" transform="translate(-852.941 -931.283)">
	<path id="Rectángulo_65_1_" class="st6" d="M413.2,1277.9h150.9c17.7,0,32,14.3,32,32v0.1c0,17.7-14.3,32-32,32H413.2
		c-17.7,0-32-14.3-32-32v-0.1C381.2,1292.2,395.6,1277.9,413.2,1277.9z"/>
	<text transform="matrix(1 0 0 1 422.9214 1315.2828)" class="st2" style="font-family:'ArialMT'; font-size:21px;">Ver en Netflix</text>
</g>
<g id="Grupo_208" transform="translate(-1091.976 -930.93)">
	<circle id="Elipse_52" class="st6" cx="655.7" cy="984.6" r="32.4"/>
	<g id="Grupo_108" transform="translate(1109.666 948.088)">
		<path id="Trazado_102" class="st13" d="M-464.3,31.9v19.8h20.9V31.9"/>
		<path id="Trazado_103" class="st13" d="M-468.6,36l14.7-14.7l14.7,14.7"/>
	</g>
</g>
<g id="Grupo_209" transform="translate(-854.092 -931.284)">
	<path id="Rectángulo_109" class="st6" d="M825.4,1277.9h150.9c17.7,0,32,14.3,32,32v0.1c0,17.7-14.3,32-32,32H825.4
		c-17.7,0-32-14.3-32-32v-0.1C793.4,1292.2,807.7,1277.9,825.4,1277.9z"/>
	<text transform="matrix(1 0 0 1 825.3015 1315.2828)" class="st2" style="font-family:'ArialMT'; font-size:21px;">Abrir en Spotify</text>
</g>
<g id="Grupo_187" transform="translate(-198 -430)">
	<circle id="Elipse_27" class="st10" cx="509.3" cy="495.2" r="51.7"/>
	<circle id="Elipse_28" class="st3" cx="487.5" cy="490" r="6.1"/>
	<circle id="Elipse_29" class="st3" cx="530" cy="490" r="6.1"/>
	<path id="Trazado_54" class="st9" d="M494.8,515.3c0,0,13.2-16,29-0.3"/>
	<line id="Línea_19" class="st9" x1="481.8" y1="479.2" x2="493.2" y2="475"/>
	<line id="Línea_20" class="st9" x1="524.3" y1="475" x2="535.7" y2="479.2"/>
</g>
<circle id="Elipse_34" class="st10" cx="566.3" cy="65.2" r="51.7"/>
<path id="Trazado_186" class="st9" d="M587.4,62.6c0,11.6-9.4,20.9-20.9,20.9s-20.9-9.4-20.9-20.9"/>
<line id="Línea_40" class="st9" x1="566.5" y1="83.7" x2="566.5" y2="102.3"/>
<line id="Línea_41" class="st9" x1="553.7" y1="102.3" x2="579.7" y2="102.3"/>
<path id="Rectángulo_112" class="st9" d="M566.5,27.2L566.5,27.2c7,0,12.8,5.7,12.8,12.8V62c0,7-5.7,12.8-12.8,12.8l0,0
	c-7,0-12.8-5.7-12.8-12.8V39.9C553.7,32.9,559.4,27.2,566.5,27.2z"/>
<line id="Línea_42" class="st9" x1="553.7" y1="41.8" x2="560.5" y2="41.8"/>
<line id="Línea_44" class="st9" x1="553.7" y1="50.7" x2="560.5" y2="50.7"/>
<line id="Línea_45" class="st9" x1="553.7" y1="59.7" x2="560.5" y2="59.7"/>
<line id="Línea_46" class="st9" x1="572.4" y1="41.8" x2="579.2" y2="41.8"/>
<line id="Línea_48" class="st9" x1="572.4" y1="50.7" x2="579.2" y2="50.7"/>
<line id="Línea_49" class="st9" x1="572.4" y1="59.7" x2="579.2" y2="59.7"/>
<circle id="Elipse_34_2_" class="st11" cx="814.3" cy="65.2" r="51.7"/>
<path id="Trazado_186_1_" class="st9" d="M835.4,62.6c0,11.6-9.4,20.9-20.9,20.9s-20.9-9.4-20.9-20.9"/>
<line id="Línea_40_1_" class="st9" x1="814.5" y1="83.7" x2="814.5" y2="102.3"/>
<line id="Línea_41_1_" class="st9" x1="801.7" y1="102.3" x2="827.7" y2="102.3"/>
<path id="Rectángulo_112_1_" class="st9" d="M814.5,27.2L814.5,27.2c7,0,12.8,5.7,12.8,12.8V62c0,7-5.7,12.8-12.8,12.8l0,0
	c-7,0-12.8-5.7-12.8-12.8V39.9C801.7,32.9,807.4,27.2,814.5,27.2z"/>
<line id="Línea_42_1_" class="st9" x1="801.7" y1="41.8" x2="808.5" y2="41.8"/>
<line id="Línea_44_1_" class="st9" x1="801.7" y1="50.7" x2="808.5" y2="50.7"/>
<line id="Línea_45_1_" class="st9" x1="801.7" y1="59.7" x2="808.5" y2="59.7"/>
<line id="Línea_46_1_" class="st9" x1="820.4" y1="41.8" x2="827.2" y2="41.8"/>
<line id="Línea_48_1_" class="st9" x1="820.4" y1="50.7" x2="827.2" y2="50.7"/>
<line id="Línea_49_1_" class="st9" x1="820.4" y1="59.7" x2="827.2" y2="59.7"/>
<circle id="Elipse_27-2" class="st8" cx="311.3" cy="66.2" r="51.7"/>
<circle id="Elipse_28-2" class="st3" cx="289.5" cy="61" r="6.1"/>
<circle id="Elipse_29-2" class="st3" cx="332" cy="61" r="6.1"/>
<path id="Trazado_54-2" class="st9" d="M296.8,86.3c0,0,13.2-16,29-0.3"/>
<line id="Línea_19-2" class="st9" x1="283.8" y1="50.2" x2="295.2" y2="46"/>
<line id="Línea_20-2" class="st9" x1="326.3" y1="46" x2="337.7" y2="50.2"/>
<circle id="Elipse_27-2_2_" class="st10" cx="566.3" cy="-192.8" r="51.7"/>
<circle id="Elipse_22_3_" class="st3" cx="545.3" cy="-196.2" r="6.1"/>
<path id="Trazado_50_3_" class="st9" d="M539.3-209.2c0-3.4,2.7-6.1,6.1-6.1s6.1,2.7,6.1,6.1"/>
<path id="Trazado_51_3_" class="st9" d="M581.7-209.2c0-3.4,2.8-6,6.1-6c3.3,0,5.9,2.7,6,6"/>
<circle id="Elipse_23_3_" class="st3" cx="587.8" cy="-196.2" r="6.1"/>
<path id="Trazado_52_3_" class="st9" d="M581.6-178.2c0,0-13.2,16.1-29,0.3"/>
<circle id="Elipse_33" class="st10" cx="817.1" cy="-189.9" r="51.7"/>
<g id="Grupo_173" transform="translate(-524.864 -221.357)">
	<path id="Trazado_187" class="st14" d="M1329,13.5"/>
	<path id="Trazado_188" class="st9" d="M1365.4,9.5c0-2.4-1.7-4.5-4-4.9c-0.2-2.6-2.4-4.6-5-4.6c-0.2,0-0.5,0-0.8,0.1
		c-4.4-1.1-8.6-3-12.3-5.6c-2.4,0-4.5,1.7-4.9,4.1c-2.5,2.5-6.4,2.9-9.4,1c-2.8,0-5,2.2-5,5l0,0c0,0,0,0,0,0c-0.2,0-0.4,0-0.7,0
		c-2.8,0-5,2.2-5,5l0,0"/>
	<g id="Grupo_172">
		<path id="Trazado_189" class="st9" d="M1360.7,68h-37.3l-4.1-43.4h45.3L1360.7,68z"/>
		<circle id="Elipse_68" class="st9" cx="1341.9" cy="46.3" r="10.4"/>
		<line id="Línea_50" class="st9" x1="1333.3" y1="24.5" x2="1333.8" y2="39.8"/>
		<line id="Línea_51" class="st9" x1="1350.4" y1="24.5" x2="1349.9" y2="39.7"/>
		<line id="Línea_52" class="st9" x1="1334.2" y1="53.2" x2="1334.7" y2="68"/>
		<line id="Línea_53" class="st9" x1="1349.5" y1="53.2" x2="1349" y2="68"/>
		<rect id="Rectángulo_113" x="1317.2" y="16.2" class="st9" width="49.7" height="8.4"/>
	</g>
	<path id="Trazado_190" class="st9" d="M1330.8,9.2c0.8-2,3.1-3,5.1-2.2"/>
	<path id="Trazado_191" class="st9" d="M1348.4,6c2.1-0.7,4.3,0.4,5,2.4"/>
</g>
<g id="Grupo_187_1_" transform="translate(-198 -430)">
	<circle id="Elipse_27_2_" class="st10" cx="6.3" cy="495.2" r="51.7"/>
	<circle id="Elipse_28_1_" class="st3" cx="-15.5" cy="490" r="6.1"/>
	<circle id="Elipse_29_1_" class="st3" cx="27" cy="490" r="6.1"/>
	<path id="Trazado_54_1_" class="st9" d="M-8.2,515.3c0,0,13.2-16,29-0.3"/>
	<line id="Línea_19_1_" class="st9" x1="-21.2" y1="479.2" x2="-9.8" y2="475"/>
	<line id="Línea_20_1_" class="st9" x1="21.3" y1="475" x2="32.7" y2="479.2"/>
</g>
<circle id="Elipse_27-2_3_" class="st15" cx="-191.7" cy="66.2" r="51.7"/>
<circle id="Elipse_28-2_1_" class="st3" cx="-213.5" cy="61" r="6.1"/>
<circle id="Elipse_29-2_1_" class="st3" cx="-171" cy="61" r="6.1"/>
<path id="Trazado_54-2_1_" class="st9" d="M-206.2,86.3c0,0,13.2-16,29-0.3"/>
<line id="Línea_19-2_1_" class="st9" x1="-219.2" y1="50.2" x2="-207.8" y2="46"/>
<line id="Línea_20-2_1_" class="st9" x1="-176.7" y1="46" x2="-165.3" y2="50.2"/>
<circle id="Elipse_27-2_1_" class="st15" cx="63.3" cy="-192.8" r="51.7"/>
<circle id="Elipse_22_1_" class="st3" cx="42.3" cy="-196.2" r="6.1"/>
<path id="Trazado_50_1_" class="st9" d="M36.3-209.2c0-3.4,2.7-6.1,6.1-6.1s6.1,2.7,6.1,6.1"/>
<path id="Trazado_51_1_" class="st9" d="M78.7-209.2c0-3.4,2.8-6,6.1-6c3.3,0,5.9,2.7,6,6"/>
<circle id="Elipse_23_1_" class="st3" cx="84.8" cy="-196.2" r="6.1"/>
<path id="Trazado_52_1_" class="st9" d="M78.6-178.2c0,0-13.2,16.1-29,0.3"/>
<circle id="Elipse_33_1_" class="st11" cx="1061.1" cy="-189.9" r="51.7"/>
<g id="Grupo_173_1_" transform="translate(-524.864 -221.357)">
	<path id="Trazado_187_1_" class="st14" d="M1573,13.5"/>
	<path id="Trazado_188_1_" class="st9" d="M1609.4,9.5c0-2.4-1.7-4.5-4-4.9c-0.2-2.6-2.4-4.6-5-4.6c-0.2,0-0.5,0-0.8,0.1
		c-4.4-1.1-8.6-3-12.3-5.6c-2.4,0-4.5,1.7-4.9,4.1c-2.5,2.5-6.4,2.9-9.4,1c-2.8,0-5,2.2-5,5l0,0c0,0,0,0,0,0c-0.2,0-0.4,0-0.7,0
		c-2.8,0-5,2.2-5,5l0,0"/>
	<g id="Grupo_172_1_">
		<path id="Trazado_189_1_" class="st9" d="M1604.7,68h-37.3l-4.1-43.4h45.3L1604.7,68z"/>
		<circle id="Elipse_68_1_" class="st9" cx="1585.9" cy="46.3" r="10.4"/>
		<line id="Línea_50_1_" class="st9" x1="1577.3" y1="24.5" x2="1577.8" y2="39.8"/>
		<line id="Línea_51_1_" class="st9" x1="1594.4" y1="24.5" x2="1593.9" y2="39.7"/>
		<line id="Línea_52_1_" class="st9" x1="1578.2" y1="53.2" x2="1578.7" y2="68"/>
		<line id="Línea_53_1_" class="st9" x1="1593.5" y1="53.2" x2="1593" y2="68"/>
		<rect id="Rectángulo_113_1_" x="1561.2" y="16.2" class="st9" width="49.7" height="8.4"/>
	</g>
	<path id="Trazado_190_1_" class="st9" d="M1574.8,9.2c0.8-2,3.1-3,5.1-2.2"/>
	<path id="Trazado_191_1_" class="st9" d="M1592.4,6c2.1-0.7,4.3,0.4,5,2.4"/>
</g>
<g id="Grupo_188_2_" transform="translate(152 -432)">
	<circle id="Elipse_34_3_" class="st15" cx="-88.7" cy="493" r="51.7"/>
	<g id="Grupo_174_2_" transform="translate(2.001)">
		<path id="Trazado_186_3_" class="st16" d="M-69.6,490.4c0,11.6-9.4,20.9-20.9,20.9s-20.9-9.4-20.9-20.9"/>
		<line id="Línea_40_3_" class="st9" x1="-90.5" y1="511.5" x2="-90.5" y2="530.2"/>
		<line id="Línea_41_3_" class="st9" x1="-103.3" y1="530.2" x2="-77.3" y2="530.2"/>
		<path id="Rectángulo_112_3_" class="st16" d="M-90.5,455L-90.5,455c7,0,12.8,5.7,12.8,12.8v22.1c0,7-5.7,12.8-12.8,12.8l0,0
			c-7.1,0-12.8-5.7-12.8-12.8v-22.1C-103.3,460.7-97.6,455-90.5,455z"/>
		<line id="Línea_42_3_" class="st9" x1="-103.3" y1="469.6" x2="-96.5" y2="469.6"/>
		<line id="Línea_44_3_" class="st9" x1="-103.3" y1="478.6" x2="-96.5" y2="478.6"/>
		<line id="Línea_45_3_" class="st9" x1="-103.3" y1="487.6" x2="-96.5" y2="487.6"/>
		<line id="Línea_46_3_" class="st9" x1="-84.6" y1="469.6" x2="-77.8" y2="469.6"/>
		<line id="Línea_48_3_" class="st9" x1="-84.6" y1="478.6" x2="-77.8" y2="478.6"/>
		<line id="Línea_49_3_" class="st9" x1="-84.6" y1="487.6" x2="-77.8" y2="487.6"/>
	</g>
</g>
<circle id="Elipse_33_2_" class="st15" cx="314.1" cy="-189.9" r="51.7"/>
<g id="Grupo_173_3_" transform="translate(-524.864 -221.357)">
	<path id="Trazado_187_3_" class="st14" d="M826,13.5"/>
	<path id="Trazado_188_3_" class="st9" d="M862.4,9.5c0-2.4-1.7-4.5-4-4.9C858.2,2,856,0,853.4,0c-0.2,0-0.5,0-0.8,0.1
		c-4.4-1.1-8.5-3-12.3-5.6c-2.4,0-4.5,1.7-4.9,4.1c-2.5,2.5-6.4,2.9-9.4,1c-2.8,0-5,2.2-5,5l0,0c0,0,0,0,0,0c-0.2,0-0.5,0-0.7,0
		c-2.8,0-5,2.2-5,5l0,0"/>
	<g id="Grupo_172_3_">
		<path id="Trazado_189_3_" class="st9" d="M857.7,68h-37.3l-4.1-43.4h45.3L857.7,68z"/>
		<circle id="Elipse_68_3_" class="st9" cx="838.9" cy="46.3" r="10.4"/>
		<line id="Línea_50_3_" class="st9" x1="830.3" y1="24.5" x2="830.8" y2="39.8"/>
		<line id="Línea_51_3_" class="st9" x1="847.4" y1="24.5" x2="846.9" y2="39.7"/>
		<line id="Línea_52_3_" class="st9" x1="831.2" y1="53.2" x2="831.7" y2="68"/>
		<line id="Línea_53_3_" class="st9" x1="846.5" y1="53.2" x2="846" y2="68"/>
		<rect id="Rectángulo_113_3_" x="814.2" y="16.2" class="st9" width="49.7" height="8.4"/>
	</g>
	<path id="Trazado_190_3_" class="st9" d="M827.8,9.2c0.8-2,3.1-3,5.1-2.2"/>
	<path id="Trazado_191_3_" class="st9" d="M845.4,6c2-0.7,4.3,0.4,5,2.4"/>
</g>
<path id="Rectángulo_37_1_" class="st12" d="M-420,1132.3h129c37.5,0,67.9,30.4,67.9,67.9l0,0c0,37.5-30.4,67.9-67.9,67.9h-129
	c-37.5,0-67.9-30.4-67.9-67.9l0,0C-487.9,1162.7-457.5,1132.3-420,1132.3z"/>
<g id="Grupo_174_1_" transform="translate(-820.998 -467.103)">
	<path id="Trazado_186_4_" class="st9" d="M425,1664.8c0,11.6-9.4,20.9-20.9,20.9s-20.9-9.4-20.9-20.9"/>
	<line id="Línea_40_4_" class="st9" x1="404" y1="1685.8" x2="404" y2="1704.5"/>
	<line id="Línea_41_4_" class="st9" x1="391.3" y1="1704.5" x2="417.3" y2="1704.5"/>
	<path id="Rectángulo_112_4_" class="st9" d="M404,1629.3L404,1629.3c7,0,12.8,5.7,12.8,12.8v22.1c0,7.1-5.7,12.8-12.8,12.8l0,0
		c-7,0-12.8-5.7-12.8-12.8v-22.1C391.3,1635.1,397,1629.3,404,1629.3z"/>
	<line id="Línea_42_4_" class="st9" x1="391.3" y1="1644" x2="398.1" y2="1644"/>
	<line id="Línea_44_4_" class="st9" x1="391.3" y1="1652.9" x2="398.1" y2="1652.9"/>
	<line id="Línea_45_4_" class="st9" x1="391.3" y1="1661.9" x2="398.1" y2="1661.9"/>
	<line id="Línea_46_4_" class="st9" x1="410" y1="1644" x2="416.8" y2="1644"/>
	<line id="Línea_48_4_" class="st9" x1="410" y1="1652.9" x2="416.8" y2="1652.9"/>
	<line id="Línea_49_4_" class="st9" x1="410" y1="1661.9" x2="416.8" y2="1661.9"/>
</g>
<g id="Grupo_173_4_" transform="translate(-535.864 214.643)">
	<path id="Trazado_187_4_" class="st14" d="M228.8,967.7"/>
	<path id="Trazado_188_4_" class="st9" d="M265.2,963.7c0-2.4-1.7-4.5-4-4.9c-0.2-2.6-2.4-4.6-5-4.6c-0.2,0-0.5,0-0.7,0.1
		c-4.4-1.1-8.5-3-12.3-5.6c-2.4,0-4.5,1.7-4.9,4.1c-2.5,2.5-6.4,2.9-9.4,1c-2.8,0-5,2.2-5,5l0,0c0,0,0,0,0,0c-0.2,0-0.4,0-0.7,0
		c-2.8,0-5,2.2-5,5l0,0"/>
	<g id="Grupo_172_4_">
		<path id="Trazado_189_4_" class="st9" d="M260.5,1022.1h-37.3l-4.1-43.4h45.3L260.5,1022.1z"/>
		<circle id="Elipse_68_4_" class="st9" cx="241.7" cy="1000.4" r="10.4"/>
		<line id="Línea_50_4_" class="st9" x1="233.1" y1="978.7" x2="233.6" y2="993.9"/>
		<line id="Línea_51_4_" class="st9" x1="250.2" y1="978.7" x2="249.7" y2="993.9"/>
		<line id="Línea_52_4_" class="st9" x1="234" y1="1007.4" x2="234.5" y2="1022.1"/>
		<line id="Línea_53_4_" class="st9" x1="249.3" y1="1007.4" x2="248.8" y2="1022.1"/>
		<rect id="Rectángulo_113_4_" x="217" y="970.3" class="st9" width="49.6" height="8.4"/>
	</g>
	<path id="Trazado_190_4_" class="st9" d="M230.6,963.4c0.8-2,3.1-3,5.1-2.2"/>
	<path id="Trazado_191_4_" class="st9" d="M248.2,960.2c2-0.7,4.3,0.3,5,2.4"/>
</g>
<circle id="Elipse_53_1_" class="st2" cx="-567.6" cy="1582.6" r="25.7"/>
<path id="Rectángulo_73_1_" class="st6" d="M-567.6,1571.9L-567.6,1571.9c1,0,1.8,0.8,1.8,1.8v17.9c0,1-0.8,1.8-1.8,1.8l0,0
	c-1,0-1.8-0.8-1.8-1.8v-17.9C-569.4,1572.7-568.6,1571.9-567.6,1571.9z"/>
<path id="Rectángulo_74_1_" class="st6" d="M-556.9,1582.6L-556.9,1582.6c0,1-0.8,1.8-1.8,1.8h-17.9c-1,0-1.8-0.8-1.8-1.8l0,0
	c0-1,0.8-1.8,1.8-1.8h17.9C-557.7,1580.8-556.9,1581.6-556.9,1582.6z"/>
<circle id="Elipse_60" class="st6" cx="-362.6" cy="1580.5" r="25.7"/>
<path id="Rectángulo_97" class="st2" d="M-362.6,1569.7L-362.6,1569.7c1,0,1.8,0.8,1.8,1.8v17.9c0,1-0.8,1.8-1.8,1.8l0,0
	c-1,0-1.8-0.8-1.8-1.8v-17.9C-364.4,1570.5-363.6,1569.7-362.6,1569.7z"/>
<path id="Rectángulo_98" class="st2" d="M-351.9,1580.5L-351.9,1580.5c0,1-0.8,1.8-1.8,1.8h-17.9c-1,0-1.8-0.8-1.8-1.8l0,0
	c0-1,0.8-1.8,1.8-1.8h17.9C-352.7,1578.7-351.9,1579.5-351.9,1580.5z"/>
<path id="Trazado_124_1_" class="st2" d="M-493.3,2646.5c19.6,0,35.5-15.9,35.5-35.5c0.1-56.3,45.7-101.9,101.9-101.9
	c56.3,0.1,101.9,45.7,101.9,101.9c0,19.6,15.9,35.5,35.5,35.5s35.5-15.9,35.5-35.5c0.1-45.9-18.1-89.9-50.6-122.2
	c-32.3-32.5-76.4-50.8-122.2-50.6c-45.9-0.1-89.9,18.1-122.2,50.6c-32.5,32.4-50.8,76.4-50.6,122.2
	C-528.8,2630.6-512.9,2646.5-493.3,2646.5L-493.3,2646.5z"/>
<g>
	<g id="Grupo_132_1_" transform="translate(47.033 54.45)">
		<path id="Trazado_125_1_" class="st6" d="M-406.5,3115.1c6.6,0,12.9,2.7,17.4,7.6h9.6c-5.7-9.5-16-15.2-27-15.2
			c-11-0.1-21.3,5.7-27,15.2h9.6C-419.5,3117.8-413.1,3115-406.5,3115.1z"/>
	</g>
	<path id="Trazado_126_1_" class="st6" d="M-433.5,3154.1l5.1-30.1h7.7l6,16.1l5.9-16.1h7.7l5.1,30.1h-7.7l-2.6-17.3l-7,17.3h-3.1
		l-6.7-17.3l-2.6,17.3H-433.5z"/>
	<path id="Trazado_127_1_" class="st6" d="M-394.4,3138.3c0-2.1,0.4-4.2,1.2-6.2c0.8-1.9,2-3.6,3.4-5c1.5-1.4,3.3-2.6,5.2-3.4
		c2.1-0.8,4.4-1.2,6.7-1.2c2.3,0,4.5,0.4,6.7,1.2c2,0.8,3.7,1.9,5.2,3.4c1.5,1.4,2.6,3.1,3.4,5c0.8,2,1.2,4.1,1.2,6.2
		c0,2.1-0.4,4.2-1.2,6.2c-0.8,1.9-2,3.6-3.4,5c-1.5,1.4-3.3,2.6-5.2,3.4c-2.1,0.8-4.4,1.2-6.7,1.2c-2.3,0-4.5-0.4-6.7-1.2
		c-1.9-0.8-3.7-1.9-5.2-3.4c-1.5-1.4-2.6-3.1-3.4-5C-394,3142.5-394.5,3140.4-394.4,3138.3z M-386.3,3138.3c0,1.1,0.2,2.2,0.7,3.3
		c0.4,1,1,1.9,1.8,2.6c0.8,0.7,1.7,1.3,2.7,1.7c1,0.4,2.1,0.6,3.2,0.6c1.1,0,2.2-0.2,3.2-0.6c1-0.4,1.9-1,2.7-1.7s1.4-1.6,1.8-2.6
		c0.5-1,0.7-2.2,0.7-3.3c0-1.1-0.2-2.2-0.7-3.3c-0.4-1-1.1-1.9-1.8-2.6s-1.7-1.3-2.7-1.7c-1-0.4-2.1-0.6-3.2-0.6
		c-1.1,0-2.2,0.2-3.2,0.6c-1,0.4-1.9,1-2.7,1.7c-0.8,0.8-1.4,1.6-1.8,2.6C-386.1,3136-386.3,3137.2-386.3,3138.3z"/>
	<path id="Trazado_128_1_" class="st6" d="M-357.4,3138.3c0-2.1,0.4-4.2,1.2-6.2c0.8-1.9,2-3.6,3.4-5c1.5-1.4,3.3-2.6,5.2-3.4
		c2.1-0.8,4.4-1.2,6.7-1.2c2.3,0,4.5,0.4,6.6,1.2c2,0.8,3.7,1.9,5.2,3.4c1.5,1.4,2.6,3.1,3.4,5c0.8,2,1.2,4.1,1.2,6.2
		c0,2.1-0.4,4.2-1.2,6.2c-0.8,1.9-2,3.6-3.4,5c-1.5,1.5-3.3,2.6-5.2,3.4c-2.1,0.8-4.4,1.2-6.6,1.2c-2.3,0-4.5-0.4-6.7-1.2
		c-1.9-0.8-3.7-1.9-5.2-3.4c-1.5-1.4-2.6-3.1-3.4-5C-357,3142.5-357.5,3140.4-357.4,3138.3z M-349.3,3138.3c0,1.1,0.2,2.2,0.7,3.3
		c0.4,1,1,1.9,1.8,2.6c0.8,0.7,1.7,1.3,2.7,1.7c1,0.4,2.1,0.6,3.2,0.6c1.1,0,2.2-0.2,3.2-0.6c1-0.4,1.9-1,2.7-1.7s1.4-1.6,1.8-2.6
		c0.5-1,0.7-2.2,0.7-3.3c0-1.1-0.2-2.2-0.7-3.3c-0.4-1-1.1-1.9-1.8-2.6s-1.7-1.3-2.7-1.7c-1-0.4-2.1-0.6-3.2-0.6
		c-1.1,0-2.2,0.2-3.2,0.6c-1,0.4-1.9,1-2.7,1.7c-0.8,0.8-1.4,1.6-1.8,2.6C-349.1,3136-349.3,3137.2-349.3,3138.3L-349.3,3138.3z"/>
	<path id="Trazado_129_1_" class="st6" d="M-320.5,3123.9h11.5c2,0,3.9,0.4,5.7,1.2c1.8,0.8,3.3,1.9,4.7,3.3c1.3,1.4,2.4,3,3.1,4.8
		c0.8,1.8,1.1,3.8,1.1,5.7c0,1.9-0.4,3.9-1.1,5.7c-0.7,1.8-1.8,3.4-3.1,4.8c-1.3,1.4-2.9,2.5-4.7,3.3c-1.8,0.8-3.8,1.2-5.8,1.2
		h-11.5L-320.5,3123.9z M-312.7,3147.4h1.8c1.2,0,2.5-0.2,3.6-0.6c1-0.4,1.9-1,2.7-1.8c0.7-0.8,1.3-1.7,1.7-2.6
		c0.4-1.1,0.6-2.2,0.6-3.4c0-1.1-0.2-2.3-0.6-3.4c-0.4-1-0.9-1.9-1.7-2.7c-0.8-0.8-1.7-1.4-2.7-1.8c-1.1-0.4-2.4-0.7-3.6-0.6h-1.8
		L-312.7,3147.4z"/>
	<rect id="Rectángulo_83_1_" x="-386.5" y="3107.5" class="st6" width="22.5" height="7.5"/>
	<rect id="Rectángulo_84_1_" x="-354.8" y="3107.5" class="st6" width="22.5" height="7.5"/>
</g>
<g>
	<g id="Grupo_98" transform="translate(47.035 54.451)">
		<path id="Trazado_90" class="st6" d="M198.3,2818.8c-6.6,0-12.9-2.7-17.4-7.6h-9.6c9.1,14.9,28.5,19.7,43.4,10.6
			c4.3-2.6,8-6.3,10.6-10.6h-9.6C211.2,2816.1,204.9,2818.9,198.3,2818.8z"/>
	</g>
	<path id="Trazado_91" class="st6" d="M171.3,2857.8l5.1-30.1h7.7l6,16.1l5.9-16.1h7.7l5.1,30.1H201l-2.6-17.3l-7.1,17.3h-3.1
		l-6.7-17.3l-2.6,17.3H171.3z"/>
	<path id="Trazado_92" class="st6" d="M210.4,2842.1c-0.1-6.4,3.8-12.2,9.8-14.6c4.3-1.6,9-1.6,13.3,0c2,0.8,3.7,1.9,5.2,3.4
		c1.5,1.4,2.6,3.1,3.4,5c1.6,4,1.6,8.4,0,12.4c-0.8,1.9-2,3.6-3.4,5c-1.5,1.4-3.3,2.6-5.2,3.4c-4.3,1.6-9,1.6-13.3,0
		C214.2,2854.3,210.3,2848.5,210.4,2842.1L210.4,2842.1z M218.5,2842.1c0,1.1,0.2,2.2,0.7,3.3c0.9,2,2.5,3.5,4.5,4.3
		c3.1,1.3,6.7,0.6,9.2-1.7c0.8-0.7,1.4-1.6,1.8-2.6c0.9-2.1,0.9-4.5,0-6.6c-0.4-1-1.1-1.9-1.8-2.6c-0.8-0.7-1.7-1.3-2.7-1.7
		c-2.1-0.8-4.4-0.8-6.4,0c-1,0.4-1.9,1-2.7,1.7c-0.8,0.8-1.4,1.6-1.8,2.6C218.7,2839.8,218.5,2840.9,218.5,2842.1z"/>
	<path id="Trazado_93" class="st6" d="M247.4,2842.1c-0.1-6.4,3.8-12.2,9.8-14.6c4.3-1.6,9-1.6,13.3,0c2,0.8,3.7,1.9,5.2,3.4
		c1.5,1.4,2.6,3.1,3.4,5c1.6,4,1.6,8.4,0,12.4c-0.8,1.9-2,3.6-3.4,5c-1.5,1.4-3.3,2.6-5.2,3.4c-4.3,1.6-9,1.6-13.3,0
		C251.2,2854.3,247.3,2848.5,247.4,2842.1L247.4,2842.1z M255.5,2842.1c0,1.1,0.2,2.2,0.7,3.3c0.9,2,2.5,3.5,4.5,4.3
		c2.1,0.8,4.4,0.8,6.5,0c1-0.4,1.9-1,2.7-1.7s1.4-1.6,1.8-2.6c0.9-2.1,0.9-4.5,0-6.6c-0.4-1-1.1-1.9-1.8-2.6
		c-0.8-0.7-1.7-1.3-2.7-1.7c-2.1-0.8-4.4-0.8-6.5,0c-1,0.4-1.9,1-2.7,1.7c-0.8,0.8-1.4,1.6-1.8,2.6
		C255.7,2839.8,255.5,2840.9,255.5,2842.1z"/>
	<path id="Trazado_94" class="st6" d="M284.3,2827.7h11.5c2,0,3.9,0.4,5.7,1.2c1.8,0.8,3.3,1.9,4.7,3.3c1.3,1.4,2.4,3,3.1,4.8
		c1.5,3.6,1.5,7.8,0,11.4c-0.7,1.8-1.8,3.4-3.1,4.8c-1.3,1.4-2.9,2.5-4.7,3.3c-1.8,0.8-3.8,1.2-5.8,1.2h-11.5L284.3,2827.7
		L284.3,2827.7z M292.1,2851.2h1.8c1.2,0,2.5-0.2,3.6-0.6c1-0.4,1.9-1,2.7-1.8c0.7-0.8,1.3-1.7,1.7-2.7c0.4-1.1,0.6-2.2,0.6-3.4
		c0-1.1-0.2-2.3-0.6-3.4c-0.7-2-2.3-3.7-4.4-4.4c-1.1-0.4-2.4-0.7-3.6-0.6h-1.8L292.1,2851.2z"/>
	<rect id="Rectángulo_56" x="218.3" y="2811.2" class="st6" width="22.5" height="7.5"/>
	<rect id="Rectángulo_57" x="250" y="2811.2" class="st6" width="22.5" height="7.5"/>
</g>
</svg>
