<?xml version="1.0" encoding="utf-8"?>
<!-- Generator: Adobe Illustrator 24.0.0, SVG Export Plug-In . SVG Version: 6.00 Build 0)  -->
<svg version="1.1" id="Capa_1" xmlns="http://www.w3.org/2000/svg" xmlns:xlink="http://www.w3.org/1999/xlink" x="0px" y="0px"
	 viewBox="0 0 175.05 168.23" style="enable-background:new 0 0 175.05 168.23;" xml:space="preserve">
<style type="text/css">
	.st0{fill:#F5B15A;}
	.st1{fill:#EAE3DA;}
	.st2{fill:#E4D7CE;}
	.st3{fill:#002E61;}
	.st4{fill:#E45451;}
	.st5{fill:#E4D8CE;}
	.st6{fill:#1E244D;}
	.st7{fill:#F99A3D;}
	.st8{fill:none;stroke:#002E61;stroke-width:10;stroke-miterlimit:10;}
	.st9{fill:none;stroke:#002E61;stroke-width:5;stroke-linecap:round;stroke-linejoin:round;}
	.st10{fill:#E45451;stroke:#002E61;stroke-width:10;stroke-miterlimit:10;}
	.st11{fill:#F5B15A;stroke:#002E61;stroke-width:10;stroke-miterlimit:10;}
	.st12{fill:#E4D7CE;stroke:#002E61;stroke-width:10;stroke-miterlimit:10;}
	.st13{fill:none;stroke:#E4D7CE;stroke-width:5;stroke-linecap:round;stroke-linejoin:round;}
	.st14{fill:none;stroke:#002E61;stroke-width:2.37;stroke-linecap:round;stroke-linejoin:round;}
	.st15{fill:#E4D8CE;stroke:#002E61;stroke-width:10;stroke-miterlimit:10;}
	.st16{fill:#E4D8CE;stroke:#002E61;stroke-width:5;stroke-linecap:round;stroke-linejoin:round;}
</style>
<rect id="Rectángulo_36_1_" x="-3347.1" y="-1816.8" class="st0" width="1919.83" height="1080"/>
<g id="Grupo_201_1_" transform="translate(0 -7.083)">
	<g id="Grupo_10_1_" transform="translate(150 84.083)">
		<path id="Trazado_8_1_" class="st1" d="M-3344.87-987.17c2.94-6.98,8.59-12.47,15.66-15.19c7.81-2.93,16.42-2.93,24.23,0
			c3.55,1.37,6.8,3.44,9.54,6.08c2.66,2.59,4.78,5.69,6.23,9.11c2.98,7.22,2.98,15.32,0,22.54c-1.45,3.42-3.56,6.52-6.23,9.11
			c-2.74,2.64-5.99,4.71-9.54,6.09c-7.81,2.93-16.42,2.93-24.23,0c-14.7-6-21.76-22.78-15.76-37.49
			C-3344.93-987.01-3344.9-987.09-3344.87-987.17L-3344.87-987.17z M-3331.11-969.92c1.58,3.6,4.52,6.43,8.18,7.88
			c5.68,2.29,12.17,1.07,16.63-3.13c1.42-1.35,2.56-2.96,3.35-4.75c1.63-3.82,1.63-8.14,0-11.95c-0.79-1.79-1.93-3.4-3.35-4.75
			c-1.42-1.35-3.08-2.41-4.9-3.13c-3.77-1.49-7.96-1.49-11.73,0c-1.81,0.72-3.46,1.78-4.86,3.13c-1.4,1.36-2.53,2.97-3.31,4.75
			C-3332.75-978.06-3332.75-973.74-3331.11-969.92L-3331.11-969.92z"/>
		<rect id="Rectángulo_4_1_" x="-3323.88" y="-931.13" class="st1" width="13.68" height="40.85"/>
		<g id="Grupo_6_1_" transform="translate(7.948 405.244)">
			
				<rect id="Rectángulo_5_1_" x="-3302.23" y="-1725.46" transform="matrix(0.7071 -0.7071 0.7071 0.7071 254.0299 -2823.9639)" class="st1" width="40.85" height="13.68"/>
			<g id="Grupo_5_1_">
				<rect id="Rectángulo_6_1_" x="-3301.09" y="-1774.55" class="st1" width="98.18" height="13.68"/>
				<g id="Grupo_4_1_">
					<path id="Trazado_9_1_" class="st1" d="M-3333.29-1767.71c0.04-12.02-4.97-23.51-13.81-31.66v-17.43
						c27.11,16.48,35.73,51.81,19.26,78.92c-4.78,7.87-11.39,14.48-19.26,19.26v-17.44
						C-3338.26-1744.21-3333.25-1755.69-3333.29-1767.71z"/>
				</g>
			</g>
		</g>
		<g id="Grupo_9_1_" transform="translate(4.411)">
			<path id="Trazado_10_1_" class="st1" d="M-3308.55-1726.88c1.58,3.6,4.52,6.43,8.17,7.88c5.68,2.29,12.17,1.06,16.63-3.13
				c1.42-1.35,2.56-2.96,3.35-4.75c1.63-3.82,1.63-8.14,0-11.95c-0.79-1.79-1.93-3.4-3.35-4.75c-4.47-4.17-10.95-5.39-16.63-3.13
				c-1.81,0.72-3.46,1.78-4.86,3.13c-1.4,1.36-2.53,2.97-3.31,4.75C-3310.18-1735.02-3310.18-1730.7-3308.55-1726.88z"/>
			<g id="Grupo_7_1_" transform="translate(3.537 126.423)">
				<path id="Trazado_11_1_" class="st1" d="M-3298.01-1803c-12.02-0.04-23.5,4.97-31.65,13.81h-17.44
					c16.48-27.11,51.81-35.73,78.92-19.26c7.87,4.78,14.48,11.39,19.26,19.26h-17.44C-3274.5-1798.03-3285.99-1803.04-3298.01-1803z
					"/>
			</g>
			<g id="Grupo_8_1_">
				<path id="Trazado_12_1_" class="st1" d="M-3323.08-1816.8l-24.01,25.21l9.91,9.44l14.11-14.81l19.07,20.01l19.07-20.01
					l19.07,20.01l24.02-25.21l-9.9-9.44l-14.13,14.82l-19.07-20.01l-19.07,20.01L-3323.08-1816.8z"/>
			</g>
		</g>
	</g>
	<g id="Grupo_26_1_" transform="translate(1324 684.328)">
		
			<rect id="Rectángulo_5-2_1_" x="-3302.23" y="-1725.46" transform="matrix(0.7071 -0.7071 0.7071 0.7071 254.0299 -2823.9639)" class="st1" width="40.85" height="13.68"/>
		<g id="Grupo_5-2_1_" transform="translate(0 0)">
			<rect id="Rectángulo_6-2_1_" x="-3301.09" y="-1774.55" class="st1" width="98.18" height="13.68"/>
			<g id="Grupo_4-2_1_">
				<path id="Trazado_9-2_1_" class="st1" d="M-3333.29-1767.71c0.04-12.02-4.97-23.5-13.81-31.65v-17.44
					c17.21,10.35,27.71,29,27.61,49.09c0.09,20.09-10.4,38.74-27.61,49.09v-17.44C-3338.26-1744.21-3333.25-1755.69-3333.29-1767.71
					z"/>
			</g>
		</g>
	</g>
	<g id="Grupo_35_1_" transform="translate(0 186)">
		<path id="Trazado_8-2_1_" class="st1" d="M-2795.19-1635.83c-2.94,6.98-8.59,12.47-15.66,15.19c-7.81,2.93-16.42,2.93-24.23,0
			c-3.55-1.37-6.8-3.44-9.54-6.08c-2.66-2.59-4.78-5.69-6.23-9.11c-2.98-7.22-2.98-15.32,0-22.54c1.45-3.42,3.57-6.52,6.23-9.11
			c2.74-2.64,5.99-4.71,9.54-6.09c7.81-2.93,16.42-2.93,24.23,0c14.7,6,21.76,22.78,15.76,37.49
			C-2795.12-1635.99-2795.16-1635.91-2795.19-1635.83L-2795.19-1635.83z M-2808.94-1653.08c-1.58-3.6-4.52-6.43-8.18-7.88
			c-5.68-2.29-12.17-1.07-16.63,3.13c-1.42,1.35-2.56,2.96-3.35,4.75c-1.63,3.82-1.63,8.14,0,11.95c0.79,1.79,1.93,3.4,3.35,4.75
			c1.42,1.35,3.08,2.41,4.9,3.13c3.77,1.49,7.97,1.49,11.74,0c1.81-0.72,3.46-1.78,4.86-3.13c1.4-1.36,2.53-2.97,3.31-4.75
			C-2807.31-1644.94-2807.31-1649.26-2808.94-1653.08L-2808.94-1653.08z"/>
		<rect id="Rectángulo_4-2_1_" x="-2829.86" y="-1732.72" class="st1" width="13.68" height="40.85"/>
	</g>
	<g id="Grupo_6-2_1_" transform="translate(592.19 791.365) rotate(180)">
		
			<rect id="Rectángulo_5-3_1_" x="3391.96" y="1908.15" transform="matrix(0.7071 -0.7071 0.7071 0.7071 -354.6333 2973.8157)" class="st1" width="40.85" height="13.68"/>
		<g id="Grupo_5-3_1_">
			<rect id="Rectángulo_6-3_1_" x="3393.11" y="1859.05" class="st1" width="98.18" height="13.68"/>
			<g id="Grupo_4-3_1_">
				<path id="Trazado_9-3_1_" class="st1" d="M3360.9,1865.9c0.04-12.02-4.97-23.51-13.81-31.66v-17.43
					c27.11,16.48,35.73,51.81,19.26,78.92c-4.78,7.87-11.39,14.48-19.26,19.26v-17.44C3355.93,1889.4,3360.94,1877.92,3360.9,1865.9
					z"/>
			</g>
		</g>
	</g>
	<g id="Grupo_27_1_" transform="translate(1339.463 279.083)">
		<path id="Trazado_10-2_1_" class="st1" d="M-3308.55-1726.88c1.58,3.6,4.52,6.43,8.18,7.88c1.87,0.75,3.86,1.13,5.87,1.12
			c4,0.02,7.86-1.5,10.76-4.25c1.42-1.35,2.56-2.96,3.35-4.75c0.83-1.88,1.24-3.92,1.22-5.97c0.02-2.06-0.39-4.09-1.22-5.98
			c-0.79-1.79-1.93-3.4-3.35-4.75c-2.91-2.75-6.76-4.27-10.76-4.25c-2.01-0.01-4,0.37-5.87,1.11c-1.81,0.72-3.46,1.78-4.86,3.13
			c-1.4,1.36-2.53,2.97-3.31,4.75c-0.83,1.88-1.24,3.92-1.22,5.98C-3309.79-1730.81-3309.37-1728.77-3308.55-1726.88z"/>
		<g id="Grupo_7-2_1_" transform="translate(3.537 126.423)">
			<path id="Trazado_11-2_1_" class="st1" d="M-3298.01-1803c-12.02-0.04-23.5,4.97-31.65,13.81h-17.44
				c10.35-17.21,29-27.71,49.09-27.61c20.09-0.09,38.74,10.4,49.09,27.61h-17.44C-3274.5-1798.03-3285.99-1803.04-3298.01-1803z"/>
		</g>
		<g id="Grupo_8-2_1_">
			<path id="Trazado_12-2_1_" class="st1" d="M-3323.08-1816.8l-24.01,25.21l9.91,9.44l14.11-14.81l19.07,20.01l19.07-20.01
				l19.07,20.01l24.02-25.21l-9.9-9.44l-14.12,14.82l-19.07-20.02l-19.07,20.02L-3323.08-1816.8z"/>
		</g>
	</g>
	<g id="Grupo_25_1_" transform="translate(15.249)">
		<path id="Trazado_13_1_" class="st1" d="M-1594.58-1635.83c-2.94,6.98-8.59,12.47-15.66,15.19c-7.81,2.93-16.42,2.93-24.23,0
			c-3.55-1.37-6.8-3.44-9.54-6.08c-2.66-2.59-4.78-5.69-6.23-9.11c-2.98-7.22-2.98-15.32,0-22.54c1.45-3.42,3.57-6.52,6.23-9.11
			c2.74-2.64,5.99-4.71,9.54-6.08c7.81-2.93,16.42-2.93,24.23,0c14.7,6,21.76,22.78,15.76,37.48
			C-1594.51-1636-1594.54-1635.92-1594.58-1635.83L-1594.58-1635.83z M-1608.33-1653.08c-1.58-3.6-4.52-6.43-8.17-7.88
			c-3.77-1.49-7.97-1.49-11.74,0c-1.82,0.72-3.48,1.79-4.9,3.13c-1.42,1.35-2.56,2.96-3.35,4.75c-1.63,3.82-1.63,8.14,0,11.95
			c0.79,1.79,1.93,3.41,3.35,4.75c1.42,1.35,3.08,2.41,4.9,3.13c3.77,1.49,7.97,1.49,11.74,0c1.81-0.72,3.46-1.78,4.86-3.13
			c1.4-1.36,2.53-2.97,3.31-4.75C-1606.7-1644.94-1606.7-1649.26-1608.33-1653.08z"/>
		<rect id="Rectángulo_7_1_" x="-1629.25" y="-1732.72" class="st1" width="13.68" height="40.85"/>
		<g id="Grupo_13_1_" transform="translate(1602.612 487.904)">
			
				<rect id="Rectángulo_8_1_" x="-3288.62" y="-1804.37" transform="matrix(0.7071 -0.7071 0.7071 0.7071 313.8118 -2837.4443)" class="st1" width="40.85" height="13.68"/>
			<g id="Grupo_12_1_" transform="translate(0 19.278)">
				<rect id="Rectángulo_9_1_" x="-3347.1" y="-1774.55" class="st1" width="98.18" height="13.68"/>
				<g id="Grupo_11_1_" transform="translate(116.577)">
					<path id="Trazado_14_1_" class="st1" d="M-3333.29-1767.71c-0.04,12.02,4.97,23.5,13.81,31.65v17.44
						c-27.11-16.47-35.74-51.81-19.26-78.92c4.78-7.87,11.39-14.48,19.26-19.26v17.44
						C-3328.32-1791.22-3333.33-1779.73-3333.29-1767.71z"/>
				</g>
			</g>
		</g>
		<g id="Grupo_16_1_" transform="translate(1645.084 856.573)">
			<path id="Trazado_15_1_" class="st1" d="M-3280.39-1752.69c-1.58-3.6-4.52-6.43-8.17-7.88c-5.68-2.29-12.17-1.07-16.63,3.13
				c-1.42,1.35-2.56,2.96-3.35,4.75c-1.63,3.82-1.63,8.14,0,11.95c0.79,1.79,1.93,3.41,3.35,4.75c1.42,1.35,3.08,2.41,4.9,3.13
				c3.77,1.49,7.97,1.49,11.74,0c1.81-0.72,3.46-1.78,4.86-3.13c1.4-1.36,2.53-2.97,3.31-4.75
				C-3278.76-1744.55-3278.76-1748.87-3280.39-1752.69L-3280.39-1752.69z"/>
			<g id="Grupo_14_1_" transform="translate(3.537)">
				<path id="Trazado_16_1_" class="st1" d="M-3298.01-1803c12.02,0.04,23.5-4.97,31.65-13.81h17.44
					c-16.48,27.11-51.81,35.73-78.92,19.26c-7.87-4.78-14.48-11.39-19.26-19.26h17.44
					C-3321.51-1807.97-3310.03-1802.96-3298.01-1803z"/>
			</g>
			<g id="Grupo_15_1_" transform="translate(0 114.188)">
				<path id="Trazado_17_1_" class="st1" d="M-3265.86-1776.96l24.01-25.21l-9.91-9.44l-14.11,14.81l-19.07-20.01l-19.07,20.02
					l-19.07-20.01l-24.03,25.21l9.9,9.44l14.12-14.82l19.08,20.01l19.07-20.01L-3265.86-1776.96z"/>
			</g>
		</g>
	</g>
</g>
<rect id="Rectángulo_51" x="-3346.57" y="-433.23" class="st2" width="1919.83" height="1080"/>
<g id="Grupo_203" transform="translate(0 -7.083)">
	<g id="Grupo_10" transform="translate(150 84.083)">
		<path id="Trazado_8" class="st3" d="M-3344.34,396.41c2.94-6.98,8.59-12.47,15.66-15.19c7.81-2.93,16.42-2.93,24.23,0
			c3.55,1.37,6.8,3.44,9.54,6.08c2.66,2.59,4.78,5.69,6.23,9.11c2.98,7.22,2.98,15.32,0,22.54c-1.45,3.42-3.56,6.52-6.23,9.11
			c-2.74,2.64-5.99,4.71-9.54,6.09c-7.81,2.93-16.42,2.93-24.23,0c-14.7-6-21.76-22.78-15.76-37.49
			C-3344.41,396.57-3344.37,396.49-3344.34,396.41L-3344.34,396.41z M-3330.59,413.66c1.58,3.6,4.52,6.43,8.18,7.88
			c5.68,2.29,12.17,1.07,16.63-3.13c1.42-1.35,2.56-2.96,3.35-4.75c1.63-3.82,1.63-8.14,0-11.95c-0.79-1.79-1.93-3.4-3.35-4.75
			c-1.42-1.35-3.08-2.41-4.9-3.13c-3.77-1.49-7.96-1.49-11.73,0c-1.81,0.72-3.46,1.78-4.86,3.13c-1.4,1.36-2.53,2.97-3.31,4.75
			C-3332.22,405.52-3332.22,409.84-3330.59,413.66L-3330.59,413.66z"/>
		<rect id="Rectángulo_4" x="-3323.35" y="452.45" class="st3" width="13.68" height="40.85"/>
		<g id="Grupo_6" transform="translate(7.948 405.244)">
			
				<rect id="Rectángulo_5" x="-3301.71" y="-341.88" transform="matrix(0.7071 -0.7071 0.7071 0.7071 -724.1541 -2418.3508)" class="st3" width="40.85" height="13.68"/>
			<g id="Grupo_5">
				<rect id="Rectángulo_6" x="-3300.56" y="-390.98" class="st3" width="98.18" height="13.68"/>
				<g id="Grupo_4">
					<path id="Trazado_9" class="st3" d="M-3332.76-384.13c0.04-12.02-4.97-23.51-13.81-31.66v-17.43
						c27.11,16.48,35.73,51.81,19.26,78.92c-4.78,7.87-11.39,14.48-19.26,19.26v-17.44
						C-3337.74-360.63-3332.73-372.12-3332.76-384.13z"/>
				</g>
			</g>
		</g>
		<g id="Grupo_9" transform="translate(4.411)">
			<path id="Trazado_10" class="st3" d="M-3308.02-343.31c1.58,3.6,4.52,6.43,8.18,7.88c5.68,2.29,12.17,1.06,16.63-3.13
				c1.42-1.35,2.56-2.96,3.35-4.75c1.63-3.82,1.63-8.14,0-11.95c-0.79-1.79-1.93-3.4-3.35-4.75c-4.48-4.17-10.95-5.39-16.63-3.13
				c-1.81,0.72-3.46,1.78-4.86,3.13c-1.4,1.36-2.53,2.97-3.31,4.75C-3309.65-351.44-3309.65-347.12-3308.02-343.31z"/>
			<g id="Grupo_7" transform="translate(3.537 126.423)">
				<path id="Trazado_11" class="st3" d="M-3297.48-419.42c-12.02-0.04-23.5,4.97-31.65,13.81h-17.44
					c16.48-27.11,51.81-35.73,78.92-19.26c7.87,4.78,14.48,11.39,19.26,19.26h-17.44C-3273.98-414.45-3285.46-419.46-3297.48-419.42
					z"/>
			</g>
			<g id="Grupo_8">
				<path id="Trazado_12" class="st3" d="M-3322.56-433.23l-24.01,25.21l9.91,9.44l14.11-14.81l19.07,20.01l19.07-20.01l19.07,20.01
					l24.02-25.21l-9.9-9.44l-14.13,14.82l-19.07-20.01l-19.07,20.01L-3322.56-433.23z"/>
			</g>
		</g>
	</g>
	<g id="Grupo_26" transform="translate(1324 684.328)">
		
			<rect id="Rectángulo_5-2" x="-3301.71" y="-341.88" transform="matrix(0.7071 -0.7071 0.7071 0.7071 -724.1541 -2418.3508)" class="st3" width="40.85" height="13.68"/>
		<g id="Grupo_5-2" transform="translate(0 0)">
			<rect id="Rectángulo_6-2" x="-3300.56" y="-390.98" class="st3" width="98.18" height="13.68"/>
			<g id="Grupo_4-2">
				<path id="Trazado_9-2" class="st3" d="M-3332.76-384.13c0.04-12.02-4.97-23.5-13.81-31.65v-17.44
					c17.21,10.35,27.71,29,27.61,49.09c0.09,20.09-10.4,38.74-27.61,49.09v-17.44C-3337.74-360.63-3332.73-372.12-3332.76-384.13z"
					/>
			</g>
		</g>
	</g>
	<g id="Grupo_35" transform="translate(0 186)">
		<path id="Trazado_8-2" class="st3" d="M-2794.66-252.25c-2.94,6.98-8.59,12.47-15.66,15.19c-7.81,2.93-16.42,2.93-24.23,0
			c-3.55-1.37-6.8-3.44-9.54-6.08c-2.66-2.59-4.78-5.69-6.23-9.11c-2.98-7.22-2.98-15.32,0-22.54c1.45-3.42,3.57-6.52,6.23-9.11
			c2.74-2.64,5.99-4.71,9.54-6.09c7.81-2.93,16.42-2.93,24.23,0c14.7,6,21.76,22.78,15.76,37.49
			C-2794.6-252.42-2794.63-252.33-2794.66-252.25L-2794.66-252.25z M-2808.42-269.5c-1.58-3.6-4.52-6.43-8.17-7.88
			c-5.68-2.29-12.17-1.07-16.63,3.13c-1.42,1.35-2.56,2.96-3.35,4.75c-1.63,3.82-1.63,8.14,0,11.95c0.79,1.79,1.93,3.4,3.35,4.75
			c1.42,1.35,3.08,2.41,4.9,3.13c3.77,1.49,7.97,1.49,11.74,0c1.81-0.72,3.46-1.78,4.86-3.13c1.4-1.36,2.53-2.97,3.31-4.75
			C-2806.78-261.36-2806.78-265.68-2808.42-269.5L-2808.42-269.5z"/>
		<rect id="Rectángulo_4-2" x="-2829.33" y="-349.14" class="st3" width="13.68" height="40.85"/>
	</g>
	<g id="Grupo_6-2" transform="translate(592.19 791.365) rotate(180)">
		
			<rect id="Rectángulo_5-3" x="3391.43" y="524.57" transform="matrix(0.7071 -0.7071 0.7071 0.7071 623.553 2568.2)" class="st3" width="40.85" height="13.68"/>
		<g id="Grupo_5-3">
			<rect id="Rectángulo_6-3" x="3392.58" y="475.48" class="st3" width="98.18" height="13.68"/>
			<g id="Grupo_4-3">
				<path id="Trazado_9-3" class="st3" d="M3360.38,482.32c0.04-12.02-4.97-23.51-13.81-31.66v-17.43
					c27.11,16.48,35.73,51.81,19.26,78.92c-4.78,7.87-11.39,14.48-19.26,19.26v-17.44C3355.41,505.82,3360.42,494.34,3360.38,482.32
					z"/>
			</g>
		</g>
	</g>
	<g id="Grupo_27" transform="translate(1339.463 279.083)">
		<path id="Trazado_10-2" class="st3" d="M-3308.02-343.31c1.58,3.6,4.52,6.43,8.18,7.88c1.87,0.75,3.86,1.13,5.87,1.12
			c4,0.02,7.86-1.5,10.77-4.25c1.42-1.35,2.56-2.96,3.35-4.75c0.83-1.88,1.24-3.92,1.22-5.97c0.02-2.06-0.39-4.09-1.22-5.98
			c-0.79-1.79-1.93-3.4-3.35-4.75c-2.91-2.75-6.76-4.27-10.77-4.25c-2.01-0.01-4,0.37-5.87,1.11c-1.81,0.72-3.46,1.78-4.86,3.13
			c-1.4,1.36-2.53,2.97-3.31,4.75c-0.83,1.88-1.24,3.92-1.22,5.98C-3309.27-347.23-3308.85-345.19-3308.02-343.31z"/>
		<g id="Grupo_7-2" transform="translate(3.537 126.423)">
			<path id="Trazado_11-2" class="st3" d="M-3297.48-419.42c-12.02-0.04-23.5,4.97-31.65,13.81h-17.44
				c10.35-17.21,29-27.71,49.09-27.61c20.09-0.09,38.74,10.4,49.09,27.61h-17.44C-3273.98-414.45-3285.46-419.46-3297.48-419.42z"/>
		</g>
		<g id="Grupo_8-2">
			<path id="Trazado_12-2" class="st3" d="M-3322.56-433.23l-24.01,25.21l9.91,9.44l14.11-14.81l19.07,20.01l19.07-20.01
				l19.07,20.01l24.02-25.21l-9.9-9.44l-14.12,14.82l-19.07-20.02l-19.07,20.02L-3322.56-433.23z"/>
		</g>
	</g>
	<g id="Grupo_25" transform="translate(15.249)">
		<path id="Trazado_13" class="st3" d="M-1594.05-252.25c-2.94,6.98-8.59,12.47-15.66,15.19c-7.81,2.93-16.42,2.93-24.23,0
			c-3.55-1.37-6.8-3.44-9.54-6.08c-2.66-2.59-4.78-5.69-6.23-9.11c-2.98-7.22-2.98-15.32,0-22.54c1.45-3.42,3.57-6.52,6.23-9.11
			c2.74-2.64,5.99-4.71,9.54-6.08c7.81-2.93,16.42-2.93,24.23,0c14.7,6,21.76,22.78,15.76,37.48
			C-1593.98-252.42-1594.02-252.34-1594.05-252.25L-1594.05-252.25z M-1607.8-269.5c-1.58-3.6-4.52-6.43-8.17-7.88
			c-3.77-1.49-7.97-1.49-11.74,0c-1.82,0.72-3.48,1.79-4.9,3.13c-1.42,1.35-2.56,2.96-3.35,4.75c-1.63,3.82-1.63,8.14,0,11.95
			c0.79,1.79,1.93,3.41,3.35,4.75c1.42,1.35,3.08,2.41,4.9,3.13c3.77,1.49,7.97,1.49,11.74,0c1.81-0.72,3.46-1.78,4.86-3.13
			c1.4-1.36,2.53-2.97,3.31-4.75C-1606.17-261.37-1606.17-265.68-1607.8-269.5z"/>
		<rect id="Rectángulo_7" x="-1628.72" y="-349.14" class="st3" width="13.68" height="40.85"/>
		<g id="Grupo_13" transform="translate(1602.612 487.904)">
			
				<rect id="Rectángulo_8" x="-3288.09" y="-420.79" transform="matrix(0.7071 -0.7071 0.7071 0.7071 -664.3721 -2431.8313)" class="st3" width="40.85" height="13.68"/>
			<g id="Grupo_12" transform="translate(0 19.278)">
				<rect id="Rectángulo_9" x="-3346.57" y="-390.97" class="st3" width="98.18" height="13.68"/>
				<g id="Grupo_11" transform="translate(116.577)">
					<path id="Trazado_14" class="st3" d="M-3332.76-384.13c-0.04,12.02,4.97,23.5,13.81,31.65v17.44
						c-27.11-16.47-35.74-51.81-19.26-78.92c4.78-7.87,11.39-14.48,19.26-19.26v17.44C-3327.79-407.64-3332.8-396.16-3332.76-384.13
						z"/>
				</g>
			</g>
		</g>
		<g id="Grupo_16" transform="translate(1645.084 856.573)">
			<path id="Trazado_15" class="st3" d="M-3279.87-369.11c-1.58-3.6-4.52-6.43-8.17-7.88c-5.68-2.29-12.17-1.07-16.63,3.13
				c-1.42,1.35-2.56,2.96-3.35,4.75c-1.63,3.82-1.63,8.14,0,11.95c0.79,1.79,1.93,3.41,3.35,4.75c1.42,1.35,3.08,2.41,4.9,3.13
				c3.77,1.49,7.97,1.49,11.74,0c1.81-0.72,3.46-1.78,4.86-3.13c1.4-1.36,2.53-2.97,3.31-4.75
				C-3278.23-360.97-3278.23-365.29-3279.87-369.11L-3279.87-369.11z"/>
			<g id="Grupo_14" transform="translate(3.537)">
				<path id="Trazado_16" class="st3" d="M-3297.48-419.42c12.02,0.04,23.5-4.97,31.65-13.81h17.44
					c-16.48,27.11-51.81,35.73-78.92,19.26c-7.87-4.78-14.48-11.39-19.26-19.26h17.44C-3320.98-424.39-3309.5-419.38-3297.48-419.42
					z"/>
			</g>
			<g id="Grupo_15" transform="translate(0 114.188)">
				<path id="Trazado_17" class="st3" d="M-3265.33-393.38l24.01-25.21l-9.91-9.44l-14.11,14.81l-19.07-20.01l-19.07,20.02
					l-19.07-20.01l-24.03,25.21l9.9,9.44l14.12-14.82l19.08,20.01l19.07-20.01L-3265.33-393.38z"/>
			</g>
		</g>
	</g>
</g>
<rect id="Rectángulo_32_1_" x="-3347.57" y="959.77" class="st4" width="1919.83" height="1080"/>
<g id="Grupo_199_1_" transform="translate(0 -7.083)">
	<g id="Grupo_10_3_" transform="translate(150 84.083)">
		<path id="Trazado_8_3_" class="st5" d="M-3345.34,1789.41c2.94-6.98,8.59-12.47,15.66-15.19c7.81-2.93,16.42-2.93,24.23,0
			c3.55,1.37,6.8,3.44,9.54,6.08c2.66,2.59,4.78,5.69,6.23,9.11c2.98,7.22,2.98,15.32,0,22.54c-1.45,3.42-3.56,6.52-6.23,9.11
			c-2.74,2.64-5.99,4.71-9.54,6.09c-7.81,2.93-16.42,2.93-24.23,0c-14.7-6-21.76-22.78-15.76-37.49
			C-3345.41,1789.57-3345.37,1789.49-3345.34,1789.41L-3345.34,1789.41z M-3331.59,1806.66c1.58,3.6,4.52,6.43,8.18,7.88
			c5.68,2.29,12.17,1.07,16.63-3.13c1.42-1.35,2.56-2.96,3.35-4.75c1.63-3.82,1.63-8.14,0-11.95c-0.79-1.79-1.93-3.4-3.35-4.75
			c-1.42-1.35-3.08-2.41-4.9-3.13c-3.77-1.49-7.96-1.49-11.73,0c-1.81,0.72-3.46,1.78-4.86,3.13c-1.4,1.36-2.53,2.97-3.31,4.75
			C-3333.22,1798.52-3333.22,1802.84-3331.59,1806.66L-3331.59,1806.66z"/>
		<rect id="Rectángulo_4_3_" x="-3324.35" y="1845.45" class="st5" width="13.68" height="40.85"/>
		<g id="Grupo_6_3_" transform="translate(7.948 405.244)">
			
				<rect id="Rectángulo_5_3_" x="-3302.71" y="1051.12" transform="matrix(0.7071 -0.7071 0.7071 0.7071 -1709.4467 -2011.0577)" class="st5" width="40.85" height="13.68"/>
			<g id="Grupo_5_3_">
				<rect id="Rectángulo_6_3_" x="-3301.56" y="1002.02" class="st5" width="98.18" height="13.68"/>
				<g id="Grupo_4_3_">
					<path id="Trazado_9_3_" class="st5" d="M-3333.76,1008.87c0.04-12.02-4.97-23.51-13.81-31.66v-17.43
						c27.11,16.48,35.73,51.81,19.26,78.92c-4.78,7.87-11.39,14.48-19.26,19.26v-17.44
						C-3338.74,1032.37-3333.73,1020.88-3333.76,1008.87z"/>
				</g>
			</g>
		</g>
		<g id="Grupo_9_3_" transform="translate(4.411)">
			<path id="Trazado_10_3_" class="st5" d="M-3309.02,1049.69c1.58,3.6,4.52,6.43,8.18,7.88c5.68,2.29,12.17,1.06,16.63-3.13
				c1.42-1.35,2.56-2.96,3.35-4.75c1.63-3.82,1.63-8.14,0-11.95c-0.79-1.79-1.93-3.4-3.35-4.75c-4.48-4.17-10.95-5.39-16.63-3.13
				c-1.81,0.72-3.46,1.78-4.86,3.13c-1.4,1.36-2.53,2.97-3.31,4.75C-3310.65,1041.56-3310.65,1045.88-3309.02,1049.69z"/>
			<g id="Grupo_7_3_" transform="translate(3.537 126.423)">
				<path id="Trazado_11_3_" class="st5" d="M-3298.48,973.58c-12.02-0.04-23.5,4.97-31.65,13.81h-17.44
					c16.48-27.11,51.81-35.73,78.92-19.26c7.87,4.78,14.48,11.39,19.26,19.26h-17.44C-3274.98,978.55-3286.46,973.54-3298.48,973.58
					z"/>
			</g>
			<g id="Grupo_8_3_">
				<path id="Trazado_12_3_" class="st5" d="M-3323.56,959.77l-24.01,25.21l9.91,9.44l14.11-14.81l19.07,20.01l19.07-20.01
					l19.07,20.01l24.02-25.21l-9.9-9.44l-14.13,14.82l-19.07-20.01l-19.07,20.01L-3323.56,959.77z"/>
			</g>
		</g>
	</g>
	<g id="Grupo_26_3_" transform="translate(1324 684.328)">
		
			<rect id="Rectángulo_5-2_3_" x="-3302.71" y="1051.12" transform="matrix(0.7071 -0.7071 0.7071 0.7071 -1709.4467 -2011.0577)" class="st5" width="40.85" height="13.68"/>
		<g id="Grupo_5-2_3_" transform="translate(0 0)">
			<rect id="Rectángulo_6-2_3_" x="-3301.56" y="1002.02" class="st5" width="98.18" height="13.68"/>
			<g id="Grupo_4-2_3_">
				<path id="Trazado_9-2_3_" class="st5" d="M-3333.76,1008.87c0.04-12.02-4.97-23.5-13.81-31.65v-17.44
					c17.21,10.35,27.71,29,27.61,49.09c0.09,20.09-10.4,38.74-27.61,49.09v-17.44C-3338.74,1032.37-3333.73,1020.88-3333.76,1008.87
					z"/>
			</g>
		</g>
	</g>
	<g id="Grupo_35_3_" transform="translate(0 186)">
		<path id="Trazado_8-2_3_" class="st5" d="M-2795.66,1140.75c-2.94,6.98-8.59,12.47-15.66,15.19c-7.81,2.93-16.42,2.93-24.23,0
			c-3.55-1.37-6.8-3.44-9.54-6.08c-2.66-2.59-4.78-5.69-6.23-9.11c-2.98-7.22-2.98-15.32,0-22.54c1.45-3.42,3.57-6.52,6.23-9.11
			c2.74-2.64,5.99-4.71,9.54-6.08c7.81-2.93,16.42-2.93,24.23,0c14.7,6,21.76,22.78,15.76,37.49
			C-2795.6,1140.58-2795.63,1140.67-2795.66,1140.75L-2795.66,1140.75z M-2809.42,1123.5c-1.58-3.6-4.52-6.43-8.17-7.88
			c-5.68-2.29-12.17-1.07-16.63,3.13c-1.42,1.35-2.56,2.96-3.35,4.75c-1.63,3.82-1.63,8.14,0,11.95c0.79,1.79,1.93,3.4,3.35,4.75
			c1.42,1.35,3.08,2.41,4.9,3.13c3.77,1.49,7.97,1.49,11.74,0c1.81-0.72,3.46-1.78,4.86-3.13c1.4-1.36,2.53-2.97,3.31-4.75
			C-2807.78,1131.64-2807.78,1127.32-2809.42,1123.5L-2809.42,1123.5z"/>
		<rect id="Rectángulo_4-2_3_" x="-2830.33" y="1043.86" class="st5" width="13.68" height="40.85"/>
	</g>
	<g id="Grupo_6-2_3_" transform="translate(592.19 791.365) rotate(180)">
		
			<rect id="Rectángulo_5-3_3_" x="3392.43" y="-868.43" transform="matrix(0.7071 -0.7071 0.7071 0.7071 1608.8481 2160.9045)" class="st5" width="40.85" height="13.68"/>
		<g id="Grupo_5-3_3_">
			<rect id="Rectángulo_6-3_3_" x="3393.58" y="-917.52" class="st5" width="98.18" height="13.68"/>
			<g id="Grupo_4-3_3_">
				<path id="Trazado_9-3_3_" class="st5" d="M3361.38-910.68c0.04-12.02-4.97-23.51-13.81-31.66v-17.43
					c27.11,16.48,35.73,51.81,19.26,78.92c-4.78,7.87-11.39,14.48-19.26,19.26v-17.44C3356.41-887.18,3361.42-898.66,3361.38-910.68
					z"/>
			</g>
		</g>
	</g>
	<g id="Grupo_27_3_" transform="translate(1339.463 279.083)">
		<path id="Trazado_10-2_3_" class="st5" d="M-3309.02,1049.69c1.58,3.6,4.52,6.43,8.18,7.88c1.87,0.75,3.86,1.13,5.87,1.12
			c4,0.02,7.86-1.5,10.77-4.25c1.42-1.35,2.56-2.96,3.35-4.75c0.83-1.88,1.24-3.92,1.22-5.97c0.02-2.06-0.39-4.09-1.22-5.98
			c-0.79-1.79-1.93-3.4-3.35-4.75c-2.91-2.75-6.76-4.27-10.77-4.25c-2.01-0.01-4,0.37-5.87,1.11c-1.81,0.72-3.46,1.78-4.86,3.13
			c-1.4,1.36-2.53,2.97-3.31,4.75c-0.83,1.88-1.24,3.92-1.22,5.98C-3310.27,1045.77-3309.85,1047.81-3309.02,1049.69z"/>
		<g id="Grupo_7-2_3_" transform="translate(3.537 126.423)">
			<path id="Trazado_11-2_3_" class="st5" d="M-3298.48,973.58c-12.02-0.04-23.5,4.97-31.65,13.81h-17.44
				c10.35-17.21,29-27.71,49.09-27.61c20.09-0.09,38.74,10.4,49.09,27.61h-17.44C-3274.98,978.55-3286.46,973.54-3298.48,973.58z"/>
		</g>
		<g id="Grupo_8-2_3_">
			<path id="Trazado_12-2_3_" class="st5" d="M-3323.56,959.77l-24.01,25.21l9.91,9.44l14.11-14.81l19.07,20.01l19.07-20.01
				l19.07,20.01l24.02-25.21l-9.9-9.44l-14.12,14.82l-19.07-20.02l-19.07,20.02L-3323.56,959.77z"/>
		</g>
	</g>
	<g id="Grupo_25_3_" transform="translate(15.249)">
		<path id="Trazado_13_3_" class="st5" d="M-1595.05,1140.75c-2.94,6.98-8.59,12.47-15.66,15.19c-7.81,2.93-16.42,2.93-24.23,0
			c-3.55-1.37-6.8-3.44-9.54-6.08c-2.66-2.59-4.78-5.69-6.23-9.11c-2.98-7.22-2.98-15.32,0-22.54c1.45-3.42,3.57-6.52,6.23-9.11
			c2.74-2.64,5.99-4.71,9.54-6.09c7.81-2.93,16.42-2.93,24.23,0c14.7,6,21.76,22.78,15.76,37.48
			C-1594.98,1140.58-1595.02,1140.66-1595.05,1140.75L-1595.05,1140.75z M-1608.8,1123.5c-1.58-3.6-4.52-6.43-8.17-7.88
			c-3.77-1.49-7.97-1.49-11.74,0c-1.82,0.72-3.48,1.79-4.9,3.13c-1.42,1.35-2.56,2.96-3.35,4.75c-1.63,3.82-1.63,8.14,0,11.95
			c0.79,1.79,1.93,3.41,3.35,4.75c1.42,1.35,3.08,2.41,4.9,3.13c3.77,1.49,7.97,1.49,11.74,0c1.81-0.72,3.46-1.78,4.86-3.13
			c1.4-1.36,2.53-2.97,3.31-4.75C-1607.17,1131.63-1607.17,1127.32-1608.8,1123.5z"/>
		<rect id="Rectángulo_7_3_" x="-1629.72" y="1043.86" class="st5" width="13.68" height="40.85"/>
		<g id="Grupo_13_3_" transform="translate(1602.612 487.904)">
			
				<rect id="Rectángulo_8_3_" x="-3289.09" y="972.21" transform="matrix(0.7071 -0.7071 0.7071 0.7071 -1649.6647 -2024.5382)" class="st5" width="40.85" height="13.68"/>
			<g id="Grupo_12_3_" transform="translate(0 19.278)">
				<rect id="Rectángulo_9_3_" x="-3347.57" y="1002.03" class="st5" width="98.18" height="13.68"/>
				<g id="Grupo_11_3_" transform="translate(116.577)">
					<path id="Trazado_14_3_" class="st5" d="M-3333.76,1008.87c-0.04,12.02,4.97,23.5,13.81,31.65v17.44
						c-27.11-16.47-35.74-51.81-19.26-78.92c4.78-7.87,11.39-14.48,19.26-19.26v17.44
						C-3328.79,985.36-3333.8,996.84-3333.76,1008.87z"/>
				</g>
			</g>
		</g>
		<g id="Grupo_16_3_" transform="translate(1645.084 856.573)">
			<path id="Trazado_15_3_" class="st5" d="M-3280.87,1023.89c-1.58-3.6-4.52-6.43-8.17-7.88c-5.68-2.29-12.17-1.07-16.63,3.13
				c-1.42,1.35-2.56,2.96-3.35,4.75c-1.63,3.82-1.63,8.14,0,11.95c0.79,1.79,1.93,3.41,3.35,4.75c1.42,1.35,3.08,2.41,4.9,3.13
				c3.77,1.49,7.97,1.49,11.74,0c1.81-0.72,3.46-1.78,4.86-3.13c1.4-1.36,2.53-2.97,3.31-4.75
				C-3279.23,1032.03-3279.23,1027.71-3280.87,1023.89L-3280.87,1023.89z"/>
			<g id="Grupo_14_3_" transform="translate(3.537)">
				<path id="Trazado_16_3_" class="st5" d="M-3298.48,973.58c12.02,0.04,23.5-4.97,31.65-13.81h17.44
					c-16.48,27.11-51.81,35.73-78.92,19.26c-7.87-4.78-14.48-11.39-19.26-19.26h17.44C-3321.98,968.61-3310.5,973.62-3298.48,973.58
					z"/>
			</g>
			<g id="Grupo_15_3_" transform="translate(0 114.188)">
				<path id="Trazado_17_3_" class="st5" d="M-3266.33,999.62l24.01-25.21l-9.91-9.44l-14.11,14.81l-19.07-20.01l-19.07,20.02
					l-19.07-20.01l-24.03,25.21l9.9,9.44l14.12-14.82l19.08,20.01l19.07-20.01L-3266.33,999.62z"/>
			</g>
		</g>
	</g>
</g>
<rect id="Rectángulo_3" x="-3346.86" y="2328.93" class="st6" width="1920.4" height="1080"/>
<g id="Grupo_196">
	<g id="Grupo_10_2_" transform="translate(150 84.083)">
		<path id="Trazado_8_2_" class="st7" d="M-3344.63,3158.57c2.94-6.98,8.59-12.47,15.66-15.19c7.81-2.93,16.42-2.93,24.23,0
			c3.55,1.37,6.8,3.44,9.54,6.08c2.66,2.59,4.78,5.69,6.23,9.11c2.98,7.22,2.98,15.32,0,22.54c-1.45,3.42-3.57,6.52-6.23,9.11
			c-2.74,2.64-5.99,4.71-9.54,6.09c-7.81,2.93-16.42,2.93-24.23,0c-14.7-6-21.76-22.78-15.76-37.49
			C-3344.69,3158.73-3344.66,3158.65-3344.63,3158.57L-3344.63,3158.57z M-3330.87,3175.81c1.58,3.6,4.52,6.43,8.17,7.88
			c5.68,2.29,12.17,1.07,16.63-3.13c1.42-1.35,2.56-2.96,3.35-4.75c1.63-3.82,1.63-8.14,0-11.95c-0.79-1.79-1.93-3.41-3.35-4.75
			c-1.42-1.35-3.08-2.41-4.9-3.13c-3.77-1.49-7.97-1.49-11.74,0c-1.81,0.72-3.46,1.78-4.86,3.13c-1.4,1.36-2.53,2.97-3.31,4.75
			C-3332.51,3167.68-3332.51,3172-3330.87,3175.81L-3330.87,3175.81z"/>
		<rect id="Rectángulo_4_2_" x="-3323.64" y="3214.61" class="st7" width="13.68" height="40.85"/>
		<g id="Grupo_6_2_" transform="translate(7.948 405.244)">
			
				<rect id="Rectángulo_5_2_" x="-3301.99" y="2420.27" transform="matrix(0.7071 -0.7071 0.7071 0.7071 -2677.3782 -1609.535)" class="st7" width="40.85" height="13.68"/>
			<g id="Grupo_5_2_">
				<rect id="Rectángulo_6_2_" x="-3300.85" y="2371.18" class="st7" width="98.18" height="13.68"/>
				<g id="Grupo_4_2_">
					<path id="Trazado_9_2_" class="st7" d="M-3333.05,2378.02c0.04-12.02-4.97-23.51-13.81-31.66v-17.43
						c27.11,16.48,35.73,51.81,19.26,78.92c-4.78,7.87-11.39,14.48-19.26,19.26v-17.44
						C-3338.02,2401.53-3333.01,2390.04-3333.05,2378.02z"/>
				</g>
			</g>
		</g>
		<g id="Grupo_9_2_" transform="translate(4.411)">
			<path id="Trazado_10_2_" class="st7" d="M-3308.31,2418.85c1.58,3.6,4.52,6.43,8.18,7.88c5.68,2.29,12.17,1.06,16.63-3.13
				c1.42-1.35,2.56-2.96,3.35-4.75c1.63-3.82,1.63-8.14,0-11.96c-0.79-1.79-1.93-3.4-3.35-4.75c-4.48-4.17-10.95-5.39-16.63-3.13
				c-1.81,0.72-3.46,1.78-4.86,3.13c-1.4,1.36-2.53,2.97-3.31,4.75C-3309.94,2410.72-3309.94,2415.03-3308.31,2418.85z"/>
			<g id="Grupo_7_2_" transform="translate(3.537 126.423)">
				<path id="Trazado_11_2_" class="st7" d="M-3297.76,2342.74c-12.02-0.04-23.5,4.97-31.65,13.81h-17.44
					c16.48-27.11,51.81-35.73,78.92-19.26c7.87,4.78,14.48,11.39,19.26,19.26h-17.44
					C-3274.26,2347.71-3285.75,2342.7-3297.76,2342.74z"/>
			</g>
			<g id="Grupo_8_2_">
				<path id="Trazado_12_2_" class="st7" d="M-3322.84,2328.93l-24.02,25.21l9.91,9.44l14.11-14.81l19.07,20.01l19.07-20.01
					l19.07,20.01l24.03-25.21l-9.9-9.44l-14.13,14.82l-19.07-20.01l-19.07,20.01L-3322.84,2328.93z"/>
			</g>
		</g>
	</g>
	<g id="Grupo_26_2_" transform="translate(1324 684.328)">
		
			<rect id="Rectángulo_5-2_2_" x="-3301.99" y="2420.27" transform="matrix(0.7071 -0.7071 0.7071 0.7071 -2677.3782 -1609.535)" class="st7" width="40.85" height="13.68"/>
		<g id="Grupo_5-2_2_" transform="translate(0 0)">
			<rect id="Rectángulo_6-2_2_" x="-3300.85" y="2371.18" class="st7" width="98.18" height="13.68"/>
			<g id="Grupo_4-2_2_">
				<path id="Trazado_9-2_2_" class="st7" d="M-3333.05,2378.02c0.04-12.02-4.97-23.5-13.81-31.65v-17.44
					c17.21,10.35,27.71,29,27.61,49.09c0.09,20.09-10.4,38.74-27.61,49.09v-17.44C-3338.02,2401.53-3333.01,2390.04-3333.05,2378.02
					z"/>
			</g>
		</g>
	</g>
	<g id="Grupo_35_2_" transform="translate(0 186)">
		<path id="Trazado_8-2_2_" class="st7" d="M-2794.95,2509.91c-2.94,6.98-8.59,12.47-15.66,15.19c-7.81,2.93-16.42,2.93-24.23,0
			c-3.55-1.37-6.8-3.44-9.54-6.08c-2.66-2.59-4.78-5.69-6.23-9.11c-2.98-7.22-2.98-15.32,0-22.54c1.45-3.42,3.56-6.52,6.23-9.11
			c2.74-2.64,5.99-4.71,9.54-6.08c7.81-2.93,16.42-2.93,24.23,0c14.7,6,21.76,22.78,15.76,37.49
			C-2794.88,2509.74-2794.91,2509.82-2794.95,2509.91L-2794.95,2509.91z M-2808.7,2492.66c-1.58-3.6-4.52-6.43-8.18-7.88
			c-5.68-2.29-12.17-1.07-16.63,3.13c-1.42,1.35-2.56,2.96-3.35,4.75c-1.63,3.82-1.63,8.14,0,11.95c0.79,1.79,1.93,3.4,3.35,4.75
			c1.42,1.35,3.08,2.41,4.9,3.13c3.77,1.49,7.96,1.49,11.74,0c1.81-0.72,3.46-1.78,4.86-3.13c1.4-1.36,2.53-2.97,3.31-4.75
			C-2807.07,2500.79-2807.07,2496.48-2808.7,2492.66L-2808.7,2492.66z"/>
		<rect id="Rectángulo_4-2_2_" x="-2829.62" y="2413.01" class="st7" width="13.68" height="40.85"/>
	</g>
	<g id="Grupo_6-2_2_" transform="translate(592.19 791.365) rotate(180)">
		
			<rect id="Rectángulo_5-3_2_" x="3391.72" y="-2237.59" transform="matrix(0.7071 -0.7071 0.7071 0.7071 2576.782 1759.3793)" class="st7" width="40.85" height="13.68"/>
		<g id="Grupo_5-3_2_">
			<rect id="Rectángulo_6-3_2_" x="3392.86" y="-2286.68" class="st7" width="98.18" height="13.68"/>
			<g id="Grupo_4-3_2_">
				<path id="Trazado_9-3_2_" class="st7" d="M3360.66-2279.84c0.04-12.02-4.97-23.51-13.81-31.66v-17.43
					c27.11,16.48,35.73,51.81,19.26,78.92c-4.78,7.87-11.39,14.48-19.26,19.26v-17.44
					C3355.69-2256.34,3360.7-2267.82,3360.66-2279.84z"/>
			</g>
		</g>
	</g>
	<g id="Grupo_27_2_" transform="translate(1339.463 279.083)">
		<path id="Trazado_10-2_2_" class="st7" d="M-3308.31,2418.85c1.58,3.6,4.52,6.43,8.18,7.88c1.87,0.75,3.86,1.13,5.87,1.12
			c4,0.02,7.86-1.5,10.77-4.25c1.42-1.35,2.56-2.96,3.35-4.75c0.83-1.88,1.24-3.92,1.22-5.97c0.02-2.06-0.39-4.09-1.22-5.98
			c-0.79-1.79-1.93-3.4-3.35-4.75c-2.91-2.75-6.76-4.27-10.77-4.25c-2.01-0.01-4,0.37-5.87,1.11c-1.81,0.72-3.46,1.78-4.86,3.13
			c-1.4,1.36-2.53,2.97-3.31,4.75c-0.83,1.88-1.24,3.92-1.22,5.98C-3309.55,2414.93-3309.13,2416.97-3308.31,2418.85z"/>
		<g id="Grupo_7-2_2_" transform="translate(3.537 126.423)">
			<path id="Trazado_11-2_2_" class="st7" d="M-3297.76,2342.74c-12.02-0.04-23.5,4.97-31.65,13.81h-17.44
				c10.35-17.21,29-27.71,49.09-27.61c20.09-0.09,38.74,10.4,49.09,27.61h-17.44C-3274.26,2347.71-3285.75,2342.7-3297.76,2342.74z"
				/>
		</g>
		<g id="Grupo_8-2_2_">
			<path id="Trazado_12-2_2_" class="st7" d="M-3322.84,2328.93l-24.02,25.21l9.91,9.44l14.11-14.81l19.07,20.01l19.07-20.01
				l19.07,20.01l24.03-25.21l-9.9-9.44l-14.12,14.82l-19.07-20.02l-19.07,20.02L-3322.84,2328.93z"/>
		</g>
	</g>
	<g id="Grupo_25_2_" transform="translate(15.249)">
		<path id="Trazado_13_2_" class="st7" d="M-1594.34,2509.91c-2.94,6.98-8.59,12.47-15.66,15.19c-7.81,2.93-16.42,2.93-24.23,0
			c-3.55-1.37-6.8-3.44-9.54-6.08c-2.66-2.59-4.78-5.69-6.23-9.11c-2.98-7.22-2.98-15.32,0-22.54c1.45-3.42,3.57-6.52,6.23-9.11
			c2.74-2.64,5.99-4.71,9.54-6.09c7.81-2.93,16.42-2.93,24.23,0c14.7,6,21.76,22.78,15.76,37.48
			C-1594.27,2509.74-1594.3,2509.82-1594.34,2509.91L-1594.34,2509.91z M-1608.09,2492.66c-1.58-3.6-4.52-6.43-8.17-7.88
			c-3.77-1.49-7.97-1.49-11.74,0c-1.82,0.72-3.48,1.79-4.9,3.13c-1.42,1.35-2.56,2.96-3.35,4.75c-1.63,3.82-1.63,8.14,0,11.95
			c0.79,1.79,1.93,3.41,3.35,4.75c1.42,1.35,3.08,2.41,4.9,3.13c3.77,1.49,7.97,1.49,11.74,0c1.81-0.72,3.46-1.78,4.86-3.13
			c1.4-1.36,2.53-2.97,3.31-4.75C-1606.46,2500.79-1606.46,2496.47-1608.09,2492.66z"/>
		<rect id="Rectángulo_7_2_" x="-1629.01" y="2413.01" class="st7" width="13.68" height="40.85"/>
		<g id="Grupo_13_2_" transform="translate(1602.612 487.904)">
			
				<rect id="Rectángulo_8_2_" x="-3288.37" y="2341.37" transform="matrix(0.7071 -0.7071 0.7071 0.7071 -2617.5962 -1623.0155)" class="st7" width="40.85" height="13.68"/>
			<g id="Grupo_12_2_" transform="translate(0 19.278)">
				<rect id="Rectángulo_9_2_" x="-3346.86" y="2371.18" class="st7" width="98.18" height="13.68"/>
				<g id="Grupo_11_2_" transform="translate(116.577)">
					<path id="Trazado_14_2_" class="st7" d="M-3333.05,2378.02c-0.04,12.02,4.97,23.5,13.81,31.65v17.44
						c-27.11-16.47-35.74-51.81-19.26-78.92c4.78-7.87,11.39-14.48,19.26-19.26v17.44
						C-3328.08,2354.52-3333.09,2366-3333.05,2378.02z"/>
				</g>
			</g>
		</g>
		<g id="Grupo_16_2_" transform="translate(1645.084 856.573)">
			<path id="Trazado_15_2_" class="st7" d="M-3280.15,2393.05c-1.58-3.6-4.52-6.43-8.17-7.88c-5.68-2.29-12.17-1.07-16.63,3.13
				c-1.42,1.35-2.56,2.96-3.35,4.75c-1.63,3.82-1.63,8.14,0,11.95c0.79,1.79,1.93,3.41,3.35,4.75c1.42,1.35,3.08,2.41,4.9,3.13
				c3.77,1.49,7.97,1.49,11.74,0c1.81-0.72,3.46-1.78,4.86-3.13c1.4-1.36,2.53-2.97,3.31-4.75
				C-3278.52,2401.18-3278.52,2396.87-3280.15,2393.05L-3280.15,2393.05z"/>
			<g id="Grupo_14_2_" transform="translate(3.537)">
				<path id="Trazado_16_2_" class="st7" d="M-3297.77,2342.74c12.02,0.04,23.5-4.97,31.65-13.81h17.44
					c-16.48,27.11-51.81,35.73-78.92,19.26c-7.87-4.78-14.48-11.39-19.26-19.26h17.44
					C-3321.27,2337.77-3309.79,2342.78-3297.77,2342.74z"/>
			</g>
			<g id="Grupo_15_2_" transform="translate(0 114.188)">
				<path id="Trazado_17_2_" class="st7" d="M-3265.62,2368.78l24.02-25.21l-9.91-9.44l-14.11,14.81l-19.07-20.01l-19.07,20.02
					l-19.07-20.01l-24.03,25.21l9.9,9.44l14.12-14.82l19.08,20.01l19.07-20.01L-3265.62,2368.78z"/>
			</g>
		</g>
	</g>
</g>
<path id="Rectángulo_28_1_" class="st8" d="M-1212.39-1064.33h251.78c37.5,0,67.9,30.4,67.9,67.9l0,0c0,37.5-30.4,67.9-67.9,67.9
	h-251.78c-37.5,0-67.9-30.4-67.9-67.9l0,0C-1280.29-1033.93-1249.89-1064.33-1212.39-1064.33z"/>
<circle id="Elipse_18_1_" class="st3" cx="-1107.72" cy="-999.01" r="6.06"/>
<circle id="Elipse_19_1_" class="st3" cx="-1065.28" cy="-999.01" r="6.06"/>
<line id="Línea_10_1_" class="st9" x1="-1113.78" y1="-1011.95" x2="-1101.66" y2="-1011.95"/>
<line id="Línea_11_1_" class="st9" x1="-1071.34" y1="-1011.95" x2="-1059.22" y2="-1011.95"/>
<line id="Línea_12_1_" class="st9" x1="-1100.46" y1="-980.93" x2="-1071.48" y2="-980.93"/>
<circle id="Elipse_20_1_" class="st3" cx="-984.92" cy="-1001.58" r="6.06"/>
<circle id="Elipse_21_1_" class="st3" cx="-942.48" cy="-1001.58" r="6.06"/>
<path id="Trazado_49_1_" class="st9" d="M-977.66-976.28c0,0,13.2-16.05,28.98-0.27"/>
<line id="Línea_13_1_" class="st9" x1="-990.61" y1="-1012.44" x2="-979.22" y2="-1016.59"/>
<line id="Línea_14_1_" class="st9" x1="-948.18" y1="-1016.59" x2="-936.79" y2="-1012.44"/>
<circle id="Elipse_22_4_" class="st3" cx="-1231.32" cy="-999.58" r="6.06"/>
<path id="Trazado_50_4_" class="st9" d="M-1237.37-1012.52c0-3.35,2.71-6.06,6.06-6.06s6.06,2.71,6.06,6.06"/>
<path id="Trazado_51_4_" class="st9" d="M-1194.94-1012.52c0.04-3.35,2.79-6.03,6.14-5.99c3.29,0.04,5.94,2.7,5.99,5.99"/>
<circle id="Elipse_23_4_" class="st3" cx="-1188.88" cy="-999.58" r="6.06"/>
<path id="Trazado_52_4_" class="st9" d="M-1195.08-981.5c0,0-13.2,16.05-28.98,0.27"/>
<circle id="Elipse_17_1_" class="st8" cx="-1087.29" cy="-1565.96" r="51.74"/>
<circle id="Elipse_27_1_" class="st10" cx="-433.45" cy="-1556.02" r="51.74"/>
<circle id="Elipse_34_1_" class="st11" cx="-432.45" cy="-995.7" r="51.74"/>
<circle id="Elipse_17" class="st12" cx="211.76" cy="-1284.59" r="51.74"/>
<g id="Grupo_206_2_" transform="translate(-761.504 -930.93)">
	<circle id="Elipse_51_2_" class="st6" cx="-153.84" cy="760.86" r="32.38"/>
	<g id="Grupo_106_2_" transform="translate(778.662 948.619)">
		<line id="Línea_31_2_" class="st13" x1="-917.28" y1="-187.76" x2="-947.72" y2="-187.76"/>
		<path id="Trazado_101_2_" class="st13" d="M-931.97-202.44l14.69,14.69l-14.69,14.69"/>
	</g>
</g>
<g id="Grupo_206_1_" transform="translate(-761.504 -930.93)">
	<circle id="Elipse_51_1_" class="st6" cx="-389.84" cy="760.86" r="32.38"/>
	<g id="Grupo_106_1_" transform="translate(778.662 948.619)">
		<line id="Línea_31_1_" class="st13" x1="-1153.28" y1="-187.76" x2="-1183.72" y2="-187.76"/>
		<path id="Trazado_101_1_" class="st13" d="M-1169.03-173.07l-14.69-14.69l14.69-14.69"/>
	</g>
</g>
<g id="Grupo_207_1_" transform="translate(-852.941 -931.283)">
	<path id="Rectángulo_65_1_" class="st6" d="M-309.87,1300.88h150.94c17.67,0,32,14.33,32,32v0.05c0,17.67-14.33,32-32,32h-150.94
		c-17.67,0-32-14.33-32-32v-0.05C-341.87,1315.2-327.55,1300.88-309.87,1300.88z"/>
	<text transform="matrix(1 0 0 1 -300.1936 1338.2372)" class="st2" style="font-family:'SegoeUI'; font-size:21px;">Ver en Netflix</text>
</g>
<g id="Grupo_208" transform="translate(-1091.976 -930.93)">
	<circle id="Elipse_52" class="st6" cx="-67.37" cy="1007.55" r="32.38"/>
	<g id="Grupo_108" transform="translate(1109.666 948.088)">
		<path id="Trazado_102" class="st13" d="M-1187.46,54.9v19.78h20.86V54.9"/>
		<path id="Trazado_103" class="st13" d="M-1191.72,58.93l14.69-14.69l14.69,14.69"/>
	</g>
</g>
<g id="Grupo_209" transform="translate(-854.092 -931.284)">
	<path id="Rectángulo_109" class="st6" d="M102.28,1300.88h150.94c17.67,0,32,14.33,32,32v0.05c0,17.67-14.33,32-32,32H102.28
		c-17.67,0-32-14.33-32-32v-0.05C70.28,1315.2,84.61,1300.88,102.28,1300.88z"/>
	<text transform="matrix(1 0 0 1 102.1864 1338.2372)" class="st2" style="font-family:'SegoeUI'; font-size:21px;">Abrir en Spotify</text>
</g>
<g id="Grupo_187" transform="translate(-198 -430)">
	<circle id="Elipse_27" class="st10" cx="-213.83" cy="518.12" r="51.74"/>
	<circle id="Elipse_28" class="st3" cx="-235.57" cy="512.98" r="6.06"/>
	<circle id="Elipse_29" class="st3" cx="-193.14" cy="512.98" r="6.06"/>
	<path id="Trazado_54" class="st9" d="M-228.32,538.27c0,0,13.2-16.05,28.98-0.27"/>
	<line id="Línea_19" class="st9" x1="-241.27" y1="502.11" x2="-229.88" y2="497.96"/>
	<line id="Línea_20" class="st9" x1="-198.84" y1="497.96" x2="-187.44" y2="502.11"/>
</g>
<circle id="Elipse_34" class="st10" cx="-156.86" cy="88.12" r="51.74"/>
<path id="Trazado_186" class="st9" d="M-135.7,85.57c0,11.56-9.38,20.93-20.94,20.93c-11.56,0-20.92-9.37-20.93-20.93"/>
<line id="Línea_40" class="st9" x1="-156.63" y1="106.62" x2="-156.63" y2="125.28"/>
<line id="Línea_41" class="st9" x1="-169.39" y1="125.28" x2="-143.4" y2="125.28"/>
<path id="Rectángulo_112" class="st9" d="M-156.63,50.12L-156.63,50.12c7.05,0,12.76,5.71,12.76,12.76v22.07
	c0,7.05-5.71,12.76-12.76,12.76l0,0c-7.05,0-12.76-5.71-12.76-12.76V62.87C-169.39,55.83-163.68,50.12-156.63,50.12z"/>
<line id="Línea_42" class="st9" x1="-169.39" y1="64.72" x2="-162.57" y2="64.72"/>
<line id="Línea_44" class="st9" x1="-169.39" y1="73.7" x2="-162.57" y2="73.7"/>
<line id="Línea_45" class="st9" x1="-169.39" y1="82.68" x2="-162.57" y2="82.68"/>
<line id="Línea_46" class="st9" x1="-150.7" y1="64.72" x2="-143.88" y2="64.72"/>
<line id="Línea_48" class="st9" x1="-150.7" y1="73.7" x2="-143.88" y2="73.7"/>
<line id="Línea_49" class="st9" x1="-150.7" y1="82.68" x2="-143.88" y2="82.68"/>
<circle id="Elipse_34_2_" class="st11" cx="91.14" cy="88.12" r="51.74"/>
<path id="Trazado_186_1_" class="st9" d="M112.3,85.57c0,11.56-9.38,20.93-20.94,20.93c-11.56,0-20.92-9.37-20.93-20.93"/>
<line id="Línea_40_1_" class="st9" x1="91.37" y1="106.62" x2="91.37" y2="125.28"/>
<line id="Línea_41_1_" class="st9" x1="78.61" y1="125.28" x2="104.6" y2="125.28"/>
<path id="Rectángulo_112_1_" class="st9" d="M91.37,50.12L91.37,50.12c7.05,0,12.76,5.71,12.76,12.76v22.07
	c0,7.05-5.71,12.76-12.76,12.76l0,0c-7.05,0-12.76-5.71-12.76-12.76V62.87C78.61,55.83,84.32,50.12,91.37,50.12z"/>
<line id="Línea_42_1_" class="st9" x1="78.61" y1="64.72" x2="85.43" y2="64.72"/>
<line id="Línea_44_1_" class="st9" x1="78.61" y1="73.7" x2="85.43" y2="73.7"/>
<line id="Línea_45_1_" class="st9" x1="78.61" y1="82.68" x2="85.43" y2="82.68"/>
<line id="Línea_46_1_" class="st9" x1="97.3" y1="64.72" x2="104.12" y2="64.72"/>
<line id="Línea_48_1_" class="st9" x1="97.3" y1="73.7" x2="104.12" y2="73.7"/>
<line id="Línea_49_1_" class="st9" x1="97.3" y1="82.68" x2="104.12" y2="82.68"/>
<circle id="Elipse_27-2" class="st8" cx="-411.82" cy="89.12" r="51.74"/>
<circle id="Elipse_28-2" class="st3" cx="-433.57" cy="83.98" r="6.06"/>
<circle id="Elipse_29-2" class="st3" cx="-391.14" cy="83.98" r="6.06"/>
<path id="Trazado_54-2" class="st9" d="M-426.32,109.27c0,0,13.2-16.05,28.98-0.27"/>
<line id="Línea_19-2" class="st9" x1="-439.27" y1="73.11" x2="-427.88" y2="68.96"/>
<line id="Línea_20-2" class="st9" x1="-396.83" y1="68.96" x2="-385.44" y2="73.11"/>
<circle id="Elipse_27-2_2_" class="st10" cx="-156.82" cy="-169.88" r="51.74"/>
<circle id="Elipse_22_3_" class="st3" cx="-177.77" cy="-173.28" r="6.06"/>
<path id="Trazado_50_3_" class="st9" d="M-183.83-186.22c0-3.35,2.71-6.06,6.06-6.06s6.06,2.71,6.06,6.06"/>
<path id="Trazado_51_3_" class="st9" d="M-141.4-186.22c0.04-3.35,2.79-6.03,6.14-5.99c3.29,0.04,5.94,2.7,5.99,5.99"/>
<circle id="Elipse_23_3_" class="st3" cx="-135.34" cy="-173.28" r="6.06"/>
<path id="Trazado_52_3_" class="st9" d="M-141.54-155.2c0,0-13.2,16.05-28.98,0.27"/>
<circle id="Elipse_33" class="st10" cx="93.97" cy="-166.96" r="51.74"/>
<g id="Grupo_173" transform="translate(-524.864 -221.357)">
	<path id="Trazado_187" class="st14" d="M605.92,36.48"/>
	<path id="Trazado_188" class="st9" d="M642.32,32.48c0-2.39-1.68-4.45-4.02-4.93c-0.21-2.61-2.39-4.63-5.01-4.63
		c-0.25,0-0.5,0.02-0.75,0.06c-4.39-1.12-8.55-3.02-12.29-5.59c-2.41,0-4.47,1.7-4.94,4.07c-2.53,2.46-6.42,2.86-9.39,0.96
		c-2.78,0-5.03,2.25-5.03,5.03v0c0,0.02,0,0.03,0,0.05c-0.23-0.03-0.45-0.05-0.68-0.05c-2.78,0-5.03,2.25-5.03,5.03v0"/>
	<g id="Grupo_172">
		<path id="Trazado_189" class="st9" d="M637.61,90.93H600.3l-4.06-43.44h45.34L637.61,90.93z"/>
		<circle id="Elipse_68" class="st9" cx="618.77" cy="69.21" r="10.36"/>
		<line id="Línea_50" class="st9" x1="610.19" y1="47.49" x2="610.68" y2="62.74"/>
		<line id="Línea_51" class="st9" x1="627.31" y1="47.49" x2="626.8" y2="62.67"/>
		<line id="Línea_52" class="st9" x1="611.1" y1="76.18" x2="611.57" y2="90.93"/>
		<line id="Línea_53" class="st9" x1="626.35" y1="76.18" x2="625.85" y2="90.93"/>
		<rect id="Rectángulo_113" x="594.05" y="39.13" class="st9" width="49.65" height="8.36"/>
	</g>
	<path id="Trazado_190" class="st9" d="M607.66,32.2c0.8-2.02,3.1-3.01,5.12-2.21"/>
	<path id="Trazado_191" class="st9" d="M625.27,28.95c2.05-0.73,4.31,0.35,5.03,2.4"/>
</g>
<g id="Grupo_187_1_" transform="translate(-198 -430)">
	<circle id="Elipse_27_2_" class="st10" cx="-716.83" cy="518.12" r="51.74"/>
	<circle id="Elipse_28_1_" class="st3" cx="-738.57" cy="512.98" r="6.06"/>
	<circle id="Elipse_29_1_" class="st3" cx="-696.14" cy="512.98" r="6.06"/>
	<path id="Trazado_54_1_" class="st9" d="M-731.32,538.27c0,0,13.2-16.05,28.98-0.27"/>
	<line id="Línea_19_1_" class="st9" x1="-744.27" y1="502.11" x2="-732.88" y2="497.96"/>
	<line id="Línea_20_1_" class="st9" x1="-701.84" y1="497.96" x2="-690.44" y2="502.11"/>
</g>
<circle id="Elipse_27-2_3_" class="st15" cx="-914.82" cy="89.12" r="51.74"/>
<circle id="Elipse_28-2_1_" class="st3" cx="-936.57" cy="83.98" r="6.06"/>
<circle id="Elipse_29-2_1_" class="st3" cx="-894.14" cy="83.98" r="6.06"/>
<path id="Trazado_54-2_1_" class="st9" d="M-929.32,109.27c0,0,13.2-16.05,28.98-0.27"/>
<line id="Línea_19-2_1_" class="st9" x1="-942.27" y1="73.11" x2="-930.88" y2="68.96"/>
<line id="Línea_20-2_1_" class="st9" x1="-899.83" y1="68.96" x2="-888.44" y2="73.11"/>
<circle id="Elipse_27-2_1_" class="st15" cx="-659.82" cy="-169.88" r="51.74"/>
<circle id="Elipse_22_1_" class="st3" cx="-680.77" cy="-173.28" r="6.06"/>
<path id="Trazado_50_1_" class="st9" d="M-686.83-186.22c0-3.35,2.71-6.06,6.06-6.06s6.06,2.71,6.06,6.06"/>
<path id="Trazado_51_1_" class="st9" d="M-644.4-186.22c0.04-3.35,2.79-6.03,6.14-5.99c3.29,0.04,5.94,2.7,5.99,5.99"/>
<circle id="Elipse_23_1_" class="st3" cx="-638.34" cy="-173.28" r="6.06"/>
<path id="Trazado_52_1_" class="st9" d="M-644.54-155.2c0,0-13.2,16.05-28.98,0.27"/>
<circle id="Elipse_33_1_" class="st11" cx="337.97" cy="-166.96" r="51.74"/>
<g id="Grupo_173_1_" transform="translate(-524.864 -221.357)">
	<path id="Trazado_187_1_" class="st14" d="M849.92,36.48"/>
	<path id="Trazado_188_1_" class="st9" d="M886.32,32.48c0-2.39-1.68-4.45-4.02-4.93c-0.21-2.61-2.39-4.63-5.01-4.63
		c-0.25,0-0.5,0.02-0.75,0.06c-4.39-1.12-8.55-3.02-12.29-5.59c-2.41,0-4.47,1.7-4.94,4.07c-2.53,2.46-6.42,2.86-9.39,0.96
		c-2.78,0-5.03,2.25-5.03,5.03v0c0,0.02,0,0.03,0,0.05c-0.23-0.03-0.45-0.05-0.68-0.05c-2.78,0-5.03,2.25-5.03,5.03v0"/>
	<g id="Grupo_172_1_">
		<path id="Trazado_189_1_" class="st9" d="M881.61,90.93H844.3l-4.06-43.44h45.34L881.61,90.93z"/>
		<circle id="Elipse_68_1_" class="st9" cx="862.77" cy="69.21" r="10.36"/>
		<line id="Línea_50_1_" class="st9" x1="854.19" y1="47.49" x2="854.68" y2="62.74"/>
		<line id="Línea_51_1_" class="st9" x1="871.31" y1="47.49" x2="870.8" y2="62.67"/>
		<line id="Línea_52_1_" class="st9" x1="855.1" y1="76.18" x2="855.57" y2="90.93"/>
		<line id="Línea_53_1_" class="st9" x1="870.35" y1="76.18" x2="869.85" y2="90.93"/>
		<rect id="Rectángulo_113_1_" x="838.05" y="39.13" class="st9" width="49.65" height="8.36"/>
	</g>
	<path id="Trazado_190_1_" class="st9" d="M851.66,32.2c0.8-2.02,3.1-3.01,5.12-2.21"/>
	<path id="Trazado_191_1_" class="st9" d="M869.27,28.95c2.05-0.73,4.31,0.35,5.03,2.4"/>
</g>
<g id="Grupo_188_2_" transform="translate(152 -432)">
	<circle id="Elipse_34_3_" class="st15" cx="-811.86" cy="520.12" r="51.74"/>
	<g id="Grupo_174_2_" transform="translate(2.001)">
		<path id="Trazado_186_3_" class="st16" d="M-792.7,517.57c0,11.56-9.38,20.93-20.94,20.93c-11.56,0-20.92-9.37-20.93-20.93"/>
		<line id="Línea_40_3_" class="st9" x1="-813.63" y1="538.62" x2="-813.63" y2="557.28"/>
		<line id="Línea_41_3_" class="st9" x1="-826.39" y1="557.28" x2="-800.4" y2="557.28"/>
		<path id="Rectángulo_112_3_" class="st16" d="M-813.63,482.12L-813.63,482.12c7.05,0,12.76,5.71,12.76,12.76v22.07
			c0,7.05-5.71,12.76-12.76,12.76l0,0c-7.05,0-12.76-5.71-12.76-12.76v-22.07C-826.39,487.83-820.68,482.12-813.63,482.12z"/>
		<line id="Línea_42_3_" class="st9" x1="-826.39" y1="496.72" x2="-819.57" y2="496.72"/>
		<line id="Línea_44_3_" class="st9" x1="-826.39" y1="505.7" x2="-819.57" y2="505.7"/>
		<line id="Línea_45_3_" class="st9" x1="-826.39" y1="514.68" x2="-819.57" y2="514.68"/>
		<line id="Línea_46_3_" class="st9" x1="-807.7" y1="496.72" x2="-800.88" y2="496.72"/>
		<line id="Línea_48_3_" class="st9" x1="-807.7" y1="505.7" x2="-800.88" y2="505.7"/>
		<line id="Línea_49_3_" class="st9" x1="-807.7" y1="514.68" x2="-800.88" y2="514.68"/>
	</g>
</g>
<circle id="Elipse_33_2_" class="st15" cx="-409.03" cy="-166.96" r="51.74"/>
<g id="Grupo_173_3_" transform="translate(-524.864 -221.357)">
	<path id="Trazado_187_3_" class="st14" d="M102.92,36.48"/>
	<path id="Trazado_188_3_" class="st9" d="M139.32,32.48c0-2.39-1.68-4.45-4.02-4.93c-0.21-2.61-2.39-4.63-5.01-4.63
		c-0.25,0-0.5,0.02-0.75,0.06c-4.39-1.12-8.55-3.02-12.29-5.59c-2.41,0-4.47,1.7-4.94,4.07c-2.53,2.46-6.42,2.86-9.39,0.96
		c-2.78,0-5.03,2.25-5.03,5.03v0c0,0.02,0,0.03,0,0.05c-0.23-0.03-0.45-0.05-0.68-0.05c-2.78,0-5.03,2.25-5.03,5.03v0"/>
	<g id="Grupo_172_3_">
		<path id="Trazado_189_3_" class="st9" d="M134.61,90.93H97.3l-4.06-43.44h45.34L134.61,90.93z"/>
		<circle id="Elipse_68_3_" class="st9" cx="115.77" cy="69.21" r="10.36"/>
		<line id="Línea_50_3_" class="st9" x1="107.19" y1="47.49" x2="107.68" y2="62.74"/>
		<line id="Línea_51_3_" class="st9" x1="124.31" y1="47.49" x2="123.8" y2="62.67"/>
		<line id="Línea_52_3_" class="st9" x1="108.1" y1="76.18" x2="108.57" y2="90.93"/>
		<line id="Línea_53_3_" class="st9" x1="123.35" y1="76.18" x2="122.85" y2="90.93"/>
		<rect id="Rectángulo_113_3_" x="91.05" y="39.13" class="st9" width="49.65" height="8.36"/>
	</g>
	<path id="Trazado_190_3_" class="st9" d="M104.66,32.2c0.8-2.02,3.1-3.01,5.12-2.21"/>
	<path id="Trazado_191_3_" class="st9" d="M122.27,28.95c2.05-0.73,4.31,0.35,5.03,2.4"/>
</g>
<path id="Rectángulo_37_1_" class="st12" d="M-1143.12,1155.3h129.04c37.5,0,67.9,30.4,67.9,67.9l0,0c0,37.5-30.4,67.9-67.9,67.9
	h-129.04c-37.5,0-67.9-30.4-67.9-67.9l0,0C-1211.02,1185.7-1180.62,1155.3-1143.12,1155.3z"/>
<g id="Grupo_174_1_" transform="translate(-820.998 -467.103)">
	<path id="Trazado_186_4_" class="st9" d="M-298.15,1687.76c0,11.56-9.38,20.93-20.94,20.93c-11.56,0-20.92-9.37-20.93-20.93"/>
	<line id="Línea_40_4_" class="st9" x1="-319.08" y1="1708.8" x2="-319.08" y2="1727.46"/>
	<line id="Línea_41_4_" class="st9" x1="-331.84" y1="1727.46" x2="-305.85" y2="1727.46"/>
	<path id="Rectángulo_112_4_" class="st9" d="M-319.08,1652.3L-319.08,1652.3c7.05,0,12.76,5.71,12.76,12.76v22.07
		c0,7.05-5.71,12.76-12.76,12.76l0,0c-7.05,0-12.76-5.71-12.76-12.76v-22.07C-331.84,1658.01-326.13,1652.3-319.08,1652.3z"/>
	<line id="Línea_42_4_" class="st9" x1="-331.84" y1="1666.91" x2="-325.02" y2="1666.91"/>
	<line id="Línea_44_4_" class="st9" x1="-331.84" y1="1675.88" x2="-325.02" y2="1675.88"/>
	<line id="Línea_45_4_" class="st9" x1="-331.84" y1="1684.86" x2="-325.02" y2="1684.86"/>
	<line id="Línea_46_4_" class="st9" x1="-313.15" y1="1666.91" x2="-306.33" y2="1666.91"/>
	<line id="Línea_48_4_" class="st9" x1="-313.15" y1="1675.88" x2="-306.33" y2="1675.88"/>
	<line id="Línea_49_4_" class="st9" x1="-313.15" y1="1684.86" x2="-306.33" y2="1684.86"/>
</g>
<g id="Grupo_173_4_" transform="translate(-535.864 214.643)">
	<path id="Trazado_187_4_" class="st14" d="M-494.28,990.64"/>
	<path id="Trazado_188_4_" class="st9" d="M-457.88,986.64c0-2.39-1.68-4.45-4.02-4.93c-0.21-2.61-2.39-4.63-5.01-4.63
		c-0.25,0-0.5,0.02-0.75,0.06c-4.39-1.12-8.55-3.02-12.29-5.59c-2.41,0-4.47,1.7-4.94,4.07c-2.53,2.46-6.42,2.86-9.39,0.96
		c-2.78,0-5.03,2.25-5.03,5.03l0,0c0,0.02,0,0.03,0,0.05c-0.23-0.03-0.45-0.05-0.68-0.05c-2.78,0-5.03,2.25-5.03,5.03v0"/>
	<g id="Grupo_172_4_">
		<path id="Trazado_189_4_" class="st9" d="M-462.59,1045.09h-37.32l-4.06-43.44h45.34L-462.59,1045.09z"/>
		<circle id="Elipse_68_4_" class="st9" cx="-481.44" cy="1023.37" r="10.36"/>
		<line id="Línea_50_4_" class="st9" x1="-490.01" y1="1001.65" x2="-489.53" y2="1016.9"/>
		<line id="Línea_51_4_" class="st9" x1="-472.89" y1="1001.65" x2="-473.4" y2="1016.83"/>
		<line id="Línea_52_4_" class="st9" x1="-489.1" y1="1030.33" x2="-488.63" y2="1045.09"/>
		<line id="Línea_53_4_" class="st9" x1="-473.86" y1="1030.33" x2="-474.35" y2="1045.09"/>
		<rect id="Rectángulo_113_4_" x="-506.15" y="993.29" class="st9" width="49.65" height="8.36"/>
	</g>
	<path id="Trazado_190_4_" class="st9" d="M-492.54,986.36c0.8-2.02,3.1-3.01,5.12-2.21"/>
	<path id="Trazado_191_4_" class="st9" d="M-474.93,983.11c2.05-0.73,4.31,0.35,5.03,2.4"/>
</g>
<circle id="Elipse_53_1_" class="st2" cx="-1290.76" cy="1605.56" r="25.74"/>
<path id="Rectángulo_73_1_" class="st6" d="M-1290.76,1594.84L-1290.76,1594.84c0.97,0,1.76,0.79,1.76,1.76v17.92
	c0,0.97-0.79,1.76-1.76,1.76l0,0c-0.97,0-1.76-0.79-1.76-1.76v-17.92C-1292.52,1595.63-1291.74,1594.84-1290.76,1594.84z"/>
<path id="Rectángulo_74_1_" class="st6" d="M-1280.04,1605.56L-1280.04,1605.56c0,0.97-0.79,1.76-1.76,1.76h-17.92
	c-0.97,0-1.76-0.79-1.76-1.76l0,0c0-0.97,0.79-1.76,1.76-1.76h17.92C-1280.83,1603.8-1280.04,1604.59-1280.04,1605.56z"/>
<circle id="Elipse_60" class="st6" cx="-1085.76" cy="1603.41" r="25.74"/>
<path id="Rectángulo_97" class="st2" d="M-1085.76,1592.69L-1085.76,1592.69c0.97,0,1.76,0.79,1.76,1.76v17.92
	c0,0.97-0.79,1.76-1.76,1.76l0,0c-0.97,0-1.76-0.79-1.76-1.76v-17.92C-1087.52,1593.47-1086.74,1592.69-1085.76,1592.69z"/>
<path id="Rectángulo_98" class="st2" d="M-1075.04,1603.41L-1075.04,1603.41c0,0.97-0.79,1.76-1.76,1.76h-17.92
	c-0.97,0-1.76-0.79-1.76-1.76l0,0c0-0.97,0.79-1.76,1.76-1.76h17.92C-1075.83,1601.65-1075.04,1602.43-1075.04,1603.41z"/>
<path id="Trazado_124_1_" class="st2" d="M-1216.42,2669.47c19.59,0,35.47-15.88,35.47-35.47c0.06-56.26,45.66-101.86,101.92-101.92
	c56.26,0.06,101.86,45.66,101.92,101.92c0,19.59,15.88,35.47,35.47,35.47c19.59,0,35.47-15.88,35.47-35.47
	c0.13-45.87-18.11-89.88-50.63-122.23c-32.35-32.52-76.36-50.76-122.23-50.63c-45.87-0.13-89.88,18.11-122.23,50.63
	c-32.52,32.35-50.75,76.36-50.63,122.23C-1251.89,2653.59-1236.01,2669.47-1216.42,2669.47
	C-1216.42,2669.47-1216.42,2669.47-1216.42,2669.47z"/>
<g>
	<g id="Grupo_132_1_" transform="translate(47.033 54.45)">
		<path id="Trazado_125_1_" class="st6" d="M-1129.65,3138.02c6.61-0.02,12.93,2.74,17.41,7.6h9.59c-5.69-9.47-15.95-15.24-27-15.19
			c-11.05-0.05-21.31,5.72-27,15.19h9.59C-1142.57,3140.76-1136.26,3138-1129.65,3138.02z"/>
	</g>
	<path id="Trazado_126_1_" class="st6" d="M-1156.66,3177.01l5.07-30.1h7.68l5.98,16.05l5.94-16.05h7.69l5.07,30.1h-7.72
		l-2.57-17.33l-7.05,17.33h-3.09l-6.69-17.33l-2.57,17.33H-1156.66z"/>
	<path id="Trazado_127_1_" class="st6" d="M-1117.55,3161.24c-0.02-2.13,0.4-4.24,1.23-6.2c0.79-1.88,1.95-3.58,3.41-5.01
		c1.49-1.45,3.27-2.59,5.21-3.35c2.13-0.82,4.39-1.24,6.67-1.21c2.28-0.02,4.53,0.39,6.66,1.21c1.95,0.75,3.74,1.89,5.25,3.35
		c1.46,1.43,2.63,3.13,3.43,5.01c0.83,1.96,1.25,4.07,1.23,6.2c0.02,2.13-0.4,4.24-1.23,6.2c-0.8,1.88-1.96,3.59-3.43,5.01
		c-1.51,1.45-3.29,2.59-5.25,3.35c-2.12,0.82-4.38,1.23-6.66,1.21c-2.28,0.03-4.55-0.38-6.67-1.21c-1.94-0.76-3.71-1.89-5.21-3.35
		c-1.46-1.43-2.61-3.13-3.41-5.01C-1117.16,3165.48-1117.57,3163.37-1117.55,3161.24z M-1109.43,3161.24
		c-0.01,1.13,0.22,2.25,0.68,3.29c0.43,0.98,1.05,1.87,1.82,2.62c0.77,0.74,1.68,1.33,2.67,1.72c1.03,0.41,2.12,0.62,3.23,0.61
		c1.11,0.01,2.2-0.2,3.23-0.61c1-0.4,1.91-0.98,2.69-1.72c0.78-0.74,1.41-1.63,1.84-2.62c0.46-1.04,0.68-2.16,0.67-3.29
		c0.01-1.13-0.22-2.25-0.67-3.29c-0.44-0.98-1.06-1.87-1.84-2.61c-0.78-0.74-1.7-1.32-2.69-1.72c-1.03-0.41-2.12-0.62-3.23-0.61
		c-1.11-0.01-2.2,0.2-3.23,0.61c-0.99,0.39-1.9,0.98-2.67,1.72c-0.77,0.75-1.39,1.63-1.82,2.61
		C-1109.22,3158.99-1109.45,3160.11-1109.43,3161.24z"/>
	<path id="Trazado_128_1_" class="st6" d="M-1080.56,3161.24c-0.02-2.13,0.4-4.24,1.23-6.2c0.79-1.88,1.95-3.58,3.41-5.01
		c1.49-1.45,3.27-2.59,5.21-3.35c2.13-0.83,4.39-1.24,6.68-1.21c2.27-0.02,4.53,0.39,6.65,1.21c1.96,0.75,3.74,1.89,5.25,3.35
		c1.46,1.42,2.63,3.13,3.43,5.01c0.83,1.96,1.24,4.07,1.23,6.2c0.02,2.13-0.4,4.24-1.23,6.2c-0.8,1.88-1.96,3.59-3.43,5.01
		c-1.51,1.46-3.29,2.59-5.25,3.35c-2.12,0.82-4.38,1.23-6.65,1.21c-2.28,0.03-4.55-0.38-6.68-1.21c-1.94-0.76-3.71-1.89-5.21-3.35
		c-1.46-1.43-2.61-3.13-3.41-5.01C-1080.16,3165.48-1080.58,3163.37-1080.56,3161.24z M-1072.44,3161.24
		c-0.01,1.13,0.22,2.25,0.67,3.29c0.43,0.98,1.05,1.87,1.82,2.62c0.77,0.74,1.68,1.33,2.67,1.72c1.03,0.41,2.12,0.62,3.23,0.61
		c1.11,0.01,2.2-0.2,3.23-0.61c1-0.4,1.91-0.98,2.69-1.72c0.78-0.74,1.41-1.63,1.84-2.62c0.46-1.03,0.69-2.16,0.68-3.29
		c0.01-1.13-0.22-2.25-0.68-3.29c-0.44-0.98-1.06-1.87-1.84-2.61c-0.78-0.74-1.69-1.32-2.69-1.72c-1.03-0.41-2.12-0.62-3.23-0.61
		c-1.11-0.01-2.2,0.2-3.23,0.61c-0.99,0.4-1.9,0.98-2.67,1.72c-0.77,0.75-1.39,1.63-1.82,2.61
		C-1072.23,3158.99-1072.46,3160.11-1072.44,3161.24L-1072.44,3161.24z"/>
	<path id="Trazado_129_1_" class="st6" d="M-1043.58,3146.9h11.49c1.98-0.01,3.93,0.41,5.72,1.24c1.75,0.8,3.33,1.92,4.67,3.29
		c1.34,1.38,2.41,3.01,3.15,4.79c0.76,1.81,1.15,3.76,1.15,5.73c0,1.95-0.38,3.89-1.13,5.69c-0.73,1.79-1.79,3.42-3.13,4.81
		c-1.34,1.39-2.92,2.51-4.67,3.31c-1.81,0.83-3.77,1.25-5.76,1.24h-11.49L-1043.58,3146.9z M-1035.82,3170.38h1.78
		c1.23,0.02,2.45-0.2,3.6-0.64c1.01-0.39,1.92-0.99,2.68-1.76c0.73-0.76,1.3-1.66,1.66-2.65c0.39-1.08,0.59-2.22,0.57-3.37
		c0.01-1.15-0.19-2.28-0.59-3.35c-0.37-1-0.94-1.91-1.68-2.68c-0.76-0.77-1.67-1.36-2.67-1.76c-1.14-0.44-2.35-0.66-3.56-0.64h-1.78
		L-1035.82,3170.38z"/>
	<rect id="Rectángulo_83_1_" x="-1109.59" y="3130.43" class="st6" width="22.47" height="7.53"/>
	<rect id="Rectángulo_84_1_" x="-1077.93" y="3130.43" class="st6" width="22.47" height="7.53"/>
</g>
<g>
	<g id="Grupo_98" transform="translate(47.035 54.451)">
		<path id="Trazado_90" class="st6" d="M-524.84,2841.79c-6.61,0.02-12.93-2.73-17.41-7.59h-9.59c9.06,14.91,28.5,19.66,43.42,10.59
			c4.33-2.63,7.96-6.26,10.59-10.59h-9.59C-511.91,2839.05-518.23,2841.81-524.84,2841.79z"/>
	</g>
	<path id="Trazado_91" class="st6" d="M-551.85,2880.77l5.07-30.1h7.69l5.98,16.05l5.94-16.05h7.69l5.07,30.1h-7.73l-2.58-17.33
		l-7.05,17.33h-3.09l-6.69-17.33l-2.58,17.33L-551.85,2880.77z"/>
	<path id="Trazado_92" class="st6" d="M-512.74,2865.01c-0.08-6.43,3.84-12.24,9.84-14.56c4.3-1.61,9.03-1.61,13.33,0
		c1.95,0.76,3.74,1.89,5.25,3.35c1.46,1.43,2.63,3.13,3.42,5.01c1.64,3.97,1.64,8.43,0,12.4c-0.8,1.88-1.96,3.58-3.42,5.01
		c-1.51,1.45-3.29,2.59-5.25,3.35c-4.3,1.61-9.03,1.61-13.33,0C-508.89,2877.24-512.81,2871.44-512.74,2865.01L-512.74,2865.01z
		 M-504.62,2865.01c-0.01,1.13,0.22,2.25,0.67,3.29c0.87,1.98,2.49,3.54,4.5,4.34c3.13,1.26,6.7,0.59,9.15-1.72
		c0.78-0.74,1.41-1.63,1.84-2.61c0.9-2.1,0.9-4.48,0-6.57c-0.44-0.98-1.06-1.87-1.84-2.62c-0.78-0.74-1.7-1.32-2.7-1.72
		c-2.07-0.82-4.38-0.82-6.45,0c-0.99,0.39-1.9,0.98-2.67,1.72c-0.77,0.75-1.39,1.63-1.82,2.62
		C-504.4,2862.76-504.63,2863.88-504.62,2865.01z"/>
	<path id="Trazado_93" class="st6" d="M-475.76,2865.01c-0.08-6.43,3.84-12.24,9.84-14.56c4.3-1.61,9.03-1.61,13.33,0
		c1.95,0.76,3.74,1.89,5.25,3.35c1.46,1.42,2.63,3.13,3.43,5.01c1.64,3.97,1.64,8.43,0,12.4c-0.8,1.88-1.96,3.59-3.43,5.01
		c-1.51,1.45-3.29,2.59-5.25,3.35c-4.3,1.61-9.03,1.61-13.33,0C-471.91,2877.24-475.83,2871.44-475.76,2865.01L-475.76,2865.01z
		 M-467.64,2865.01c-0.01,1.13,0.22,2.25,0.67,3.29c0.87,1.98,2.49,3.54,4.5,4.34c2.07,0.82,4.38,0.82,6.45,0
		c1-0.4,1.91-0.98,2.69-1.72c0.78-0.74,1.41-1.63,1.84-2.61c0.9-2.1,0.9-4.48,0-6.57c-0.44-0.98-1.06-1.87-1.84-2.62
		c-0.78-0.74-1.69-1.32-2.69-1.72c-2.07-0.82-4.38-0.82-6.45,0c-0.99,0.39-1.9,0.98-2.67,1.72c-0.77,0.75-1.39,1.63-1.82,2.62
		C-467.42,2862.76-467.65,2863.88-467.64,2865.01z"/>
	<path id="Trazado_94" class="st6" d="M-438.77,2850.67h11.49c1.98-0.01,3.93,0.41,5.72,1.24c1.75,0.8,3.33,1.92,4.67,3.29
		c1.34,1.38,2.41,3.01,3.15,4.79c1.53,3.65,1.53,7.76,0.02,11.42c-0.73,1.79-1.79,3.42-3.13,4.81c-1.34,1.39-2.92,2.51-4.67,3.31
		c-1.81,0.83-3.77,1.25-5.76,1.24h-11.49V2850.67z M-431.01,2874.14h1.78c1.23,0.02,2.45-0.2,3.6-0.64c1-0.39,1.91-0.99,2.67-1.76
		c0.73-0.76,1.3-1.66,1.66-2.66c0.39-1.08,0.59-2.22,0.58-3.37c0.01-1.14-0.19-2.28-0.59-3.35c-0.74-2.04-2.33-3.66-4.36-4.43
		c-1.14-0.44-2.35-0.66-3.56-0.64h-1.78L-431.01,2874.14z"/>
	<rect id="Rectángulo_56" x="-504.78" y="2834.19" class="st6" width="22.47" height="7.53"/>
	<rect id="Rectángulo_57" x="-473.12" y="2834.19" class="st6" width="22.47" height="7.53"/>
</g>
</svg>
