<?xml version="1.0" encoding="utf-8"?>
<!-- Generator: Adobe Illustrator 24.0.0, SVG Export Plug-In . SVG Version: 6.00 Build 0)  -->
<svg version="1.1" id="Capa_1" xmlns="http://www.w3.org/2000/svg" xmlns:xlink="http://www.w3.org/1999/xlink" x="0px" y="0px"
	 viewBox="0 0 303.89 292.05" style="enable-background:new 0 0 303.89 292.05;" xml:space="preserve">
<style type="text/css">
	.st0{fill:#F5B15A;}
	.st1{fill:#EAE3DA;}
	.st2{fill:#E4D7CE;}
	.st3{fill:#002E61;}
	.st4{fill:#E45451;}
	.st5{fill:#E4D8CE;}
	.st6{fill:#1E244D;}
	.st7{fill:#F99A3D;}
	.st8{fill:none;stroke:#002E61;stroke-width:10;stroke-miterlimit:10;}
	.st9{fill:none;stroke:#002E61;stroke-width:5;stroke-linecap:round;stroke-linejoin:round;}
	.st10{fill:#E45451;stroke:#002E61;stroke-width:10;stroke-miterlimit:10;}
	.st11{fill:#F5B15A;stroke:#002E61;stroke-width:10;stroke-miterlimit:10;}
	.st12{fill:#E4D7CE;stroke:#002E61;stroke-width:10;stroke-miterlimit:10;}
	.st13{fill:none;stroke:#E4D7CE;stroke-width:5;stroke-linecap:round;stroke-linejoin:round;}
	.st14{font-family:'SegoeUI';}
	.st15{font-size:21px;}
	.st16{fill:none;stroke:#002E61;stroke-width:2.37;stroke-linecap:round;stroke-linejoin:round;}
	.st17{fill:#E4D8CE;stroke:#002E61;stroke-width:10;stroke-miterlimit:10;}
	.st18{fill:#E4D8CE;stroke:#002E61;stroke-width:5;stroke-linecap:round;stroke-linejoin:round;}
</style>
<rect id="Rectángulo_36_1_" x="-2108.18" y="-2072.39" class="st0" width="1919.83" height="1080"/>
<g id="Grupo_201_1_" transform="translate(0 -7.083)">
	<g id="Grupo_10_1_" transform="translate(150 84.083)">
		<path id="Trazado_8_1_" class="st1" d="M-2105.95-1242.76c2.94-6.98,8.59-12.47,15.66-15.19c7.81-2.93,16.42-2.93,24.23,0
			c3.55,1.37,6.8,3.44,9.54,6.08c2.66,2.59,4.78,5.69,6.23,9.11c2.98,7.22,2.98,15.32,0,22.54c-1.45,3.42-3.57,6.52-6.23,9.11
			c-2.74,2.64-5.99,4.71-9.54,6.09c-7.81,2.93-16.42,2.93-24.23,0c-14.7-6-21.76-22.78-15.76-37.49
			C-2106.01-1242.6-2105.98-1242.68-2105.95-1242.76L-2105.95-1242.76z M-2092.19-1225.51c1.58,3.6,4.52,6.43,8.18,7.88
			c5.68,2.29,12.17,1.07,16.63-3.13c1.42-1.35,2.56-2.96,3.35-4.75c1.63-3.82,1.63-8.14,0-11.95c-0.79-1.79-1.93-3.4-3.35-4.75
			c-1.42-1.35-3.08-2.41-4.9-3.13c-3.77-1.49-7.97-1.49-11.74,0c-1.81,0.72-3.46,1.78-4.86,3.13c-1.4,1.36-2.53,2.97-3.31,4.75
			C-2093.83-1233.65-2093.83-1229.33-2092.19-1225.51L-2092.19-1225.51z"/>
		<rect id="Rectángulo_4_1_" x="-2084.96" y="-1186.71" class="st1" width="13.68" height="40.85"/>
		<g id="Grupo_6_1_" transform="translate(7.948 405.244)">
			
				<rect id="Rectángulo_5_1_" x="-2063.31" y="-1981.05" transform="matrix(0.7071 -0.7071 0.7071 0.7071 797.6301 -2022.7747)" class="st1" width="40.85" height="13.68"/>
			<g id="Grupo_5_1_">
				<rect id="Rectángulo_6_1_" x="-2062.17" y="-2030.14" class="st1" width="98.18" height="13.68"/>
				<g id="Grupo_4_1_">
					<path id="Trazado_9_1_" class="st1" d="M-2094.37-2023.3c0.04-12.02-4.97-23.51-13.81-31.66v-17.43
						c27.11,16.48,35.73,51.81,19.26,78.92c-4.78,7.87-11.39,14.48-19.26,19.26v-17.44
						C-2099.34-1999.8-2094.33-2011.28-2094.37-2023.3z"/>
				</g>
			</g>
		</g>
		<g id="Grupo_9_1_" transform="translate(4.411)">
			<path id="Trazado_10_1_" class="st1" d="M-2069.63-1982.47c1.58,3.6,4.52,6.43,8.18,7.88c5.68,2.29,12.17,1.06,16.63-3.13
				c1.42-1.35,2.56-2.96,3.35-4.75c1.63-3.82,1.63-8.14,0-11.95c-0.79-1.79-1.93-3.4-3.35-4.75c-4.47-4.17-10.95-5.39-16.63-3.13
				c-1.81,0.72-3.46,1.78-4.86,3.13c-1.4,1.36-2.53,2.97-3.31,4.75C-2071.26-1990.61-2071.26-1986.29-2069.63-1982.47z"/>
			<g id="Grupo_7_1_" transform="translate(3.537 126.423)">
				<path id="Trazado_11_1_" class="st1" d="M-2059.09-2058.59c-12.02-0.04-23.5,4.97-31.65,13.81h-17.44
					c16.48-27.11,51.81-35.73,78.92-19.26c7.87,4.78,14.48,11.39,19.26,19.26h-17.44
					C-2035.58-2053.62-2047.07-2058.63-2059.09-2058.59z"/>
			</g>
			<g id="Grupo_8_1_">
				<path id="Trazado_12_1_" class="st1" d="M-2084.16-2072.39l-24.02,25.21l9.91,9.44l14.11-14.81l19.07,20.01l19.07-20.01
					l19.07,20.01l24.03-25.21l-9.9-9.44l-14.13,14.82l-19.07-20.01l-19.07,20.01L-2084.16-2072.39z"/>
			</g>
		</g>
	</g>
	<g id="Grupo_26_1_" transform="translate(1324 684.328)">
		
			<rect id="Rectángulo_5-2_1_" x="-2063.31" y="-1981.05" transform="matrix(0.7071 -0.7071 0.7071 0.7071 797.6301 -2022.7747)" class="st1" width="40.85" height="13.68"/>
		<g id="Grupo_5-2_1_" transform="translate(0 0)">
			<rect id="Rectángulo_6-2_1_" x="-2062.17" y="-2030.14" class="st1" width="98.18" height="13.68"/>
			<g id="Grupo_4-2_1_">
				<path id="Trazado_9-2_1_" class="st1" d="M-2094.37-2023.3c0.04-12.02-4.97-23.5-13.81-31.65v-17.44
					c17.21,10.35,27.71,29,27.61,49.09c0.09,20.09-10.4,38.74-27.61,49.09v-17.44C-2099.34-1999.8-2094.33-2011.28-2094.37-2023.3z"
					/>
			</g>
		</g>
	</g>
	<g id="Grupo_35_1_" transform="translate(0 186)">
		<path id="Trazado_8-2_1_" class="st1" d="M-1556.27-1891.42c-2.94,6.98-8.59,12.47-15.66,15.19c-7.81,2.93-16.42,2.93-24.23,0
			c-3.55-1.37-6.8-3.44-9.54-6.08c-2.66-2.59-4.78-5.69-6.23-9.11c-2.98-7.22-2.98-15.32,0-22.54c1.45-3.42,3.57-6.52,6.23-9.11
			c2.74-2.64,5.99-4.71,9.54-6.09c7.81-2.93,16.42-2.93,24.23,0c14.7,6,21.76,22.78,15.76,37.49
			C-1556.2-1891.58-1556.24-1891.5-1556.27-1891.42L-1556.27-1891.42z M-1570.02-1908.67c-1.58-3.6-4.52-6.43-8.17-7.88
			c-5.68-2.29-12.17-1.07-16.63,3.13c-1.42,1.35-2.56,2.96-3.35,4.75c-1.63,3.82-1.63,8.14,0,11.95c0.79,1.79,1.93,3.4,3.35,4.75
			c1.42,1.35,3.08,2.41,4.9,3.13c3.77,1.49,7.96,1.49,11.73,0c1.81-0.72,3.46-1.78,4.86-3.13c1.4-1.36,2.53-2.97,3.31-4.75
			C-1568.39-1900.53-1568.39-1904.85-1570.02-1908.67L-1570.02-1908.67z"/>
		<rect id="Rectángulo_4-2_1_" x="-1590.94" y="-1988.31" class="st1" width="13.68" height="40.85"/>
	</g>
	<g id="Grupo_6-2_1_" transform="translate(592.19 791.365) rotate(180)">
		
			<rect id="Rectángulo_5-3_1_" x="2153.04" y="2163.73" transform="matrix(0.7071 -0.7071 0.7071 0.7071 -898.2362 2172.6245)" class="st1" width="40.85" height="13.68"/>
		<g id="Grupo_5-3_1_">
			<rect id="Rectángulo_6-3_1_" x="2154.18" y="2114.64" class="st1" width="98.18" height="13.68"/>
			<g id="Grupo_4-3_1_">
				<path id="Trazado_9-3_1_" class="st1" d="M2121.98,2121.48c0.04-12.02-4.97-23.51-13.81-31.66v-17.43
					c27.11,16.48,35.73,51.81,19.26,78.92c-4.78,7.87-11.39,14.48-19.26,19.26v-17.44
					C2117.01,2144.99,2122.02,2133.5,2121.98,2121.48z"/>
			</g>
		</g>
	</g>
	<g id="Grupo_27_1_" transform="translate(1339.463 279.083)">
		<path id="Trazado_10-2_1_" class="st1" d="M-2069.63-1982.47c1.58,3.6,4.52,6.43,8.18,7.88c1.87,0.75,3.86,1.13,5.87,1.12
			c4,0.02,7.86-1.5,10.77-4.25c1.42-1.35,2.56-2.96,3.35-4.75c0.83-1.88,1.24-3.92,1.22-5.97c0.02-2.06-0.39-4.09-1.22-5.98
			c-0.79-1.79-1.93-3.4-3.35-4.75c-2.91-2.75-6.76-4.27-10.77-4.25c-2.01-0.01-4,0.37-5.87,1.11c-1.81,0.72-3.46,1.78-4.86,3.13
			c-1.4,1.36-2.53,2.97-3.31,4.75c-0.83,1.88-1.24,3.92-1.22,5.98C-2070.87-1986.39-2070.45-1984.36-2069.63-1982.47z"/>
		<g id="Grupo_7-2_1_" transform="translate(3.537 126.423)">
			<path id="Trazado_11-2_1_" class="st1" d="M-2059.09-2058.59c-12.02-0.04-23.5,4.97-31.65,13.81h-17.44
				c10.35-17.21,29-27.71,49.09-27.61c20.09-0.09,38.74,10.4,49.09,27.61h-17.44C-2035.58-2053.62-2047.07-2058.63-2059.09-2058.59z
				"/>
		</g>
		<g id="Grupo_8-2_1_">
			<path id="Trazado_12-2_1_" class="st1" d="M-2084.16-2072.39l-24.02,25.21l9.91,9.44l14.11-14.81l19.07,20.01l19.07-20.01
				l19.07,20.01l24.03-25.21l-9.9-9.44l-14.12,14.82l-19.07-20.02l-19.07,20.02L-2084.16-2072.39z"/>
		</g>
	</g>
	<g id="Grupo_25_1_" transform="translate(15.249)">
		<path id="Trazado_13_1_" class="st1" d="M-355.66-1891.42c-2.94,6.98-8.59,12.47-15.66,15.19c-7.81,2.93-16.42,2.93-24.23,0
			c-3.55-1.37-6.8-3.44-9.54-6.08c-2.66-2.59-4.78-5.69-6.23-9.11c-2.98-7.22-2.98-15.32,0-22.54c1.45-3.42,3.57-6.52,6.23-9.11
			c2.74-2.64,5.99-4.71,9.54-6.08c7.81-2.93,16.42-2.93,24.23,0c14.7,6,21.76,22.78,15.76,37.48
			C-355.59-1891.59-355.62-1891.51-355.66-1891.42L-355.66-1891.42z M-369.41-1908.67c-1.58-3.6-4.52-6.43-8.17-7.88
			c-3.77-1.49-7.97-1.49-11.74,0c-1.82,0.72-3.48,1.79-4.9,3.13c-1.42,1.35-2.56,2.96-3.35,4.75c-1.63,3.82-1.63,8.14,0,11.95
			c0.79,1.79,1.93,3.41,3.35,4.75c1.42,1.35,3.08,2.41,4.9,3.13c3.77,1.49,7.97,1.49,11.74,0c1.81-0.72,3.46-1.78,4.86-3.13
			c1.4-1.36,2.53-2.97,3.31-4.75C-367.78-1900.53-367.78-1904.85-369.41-1908.67z"/>
		<rect id="Rectángulo_7_1_" x="-390.33" y="-1988.31" class="st1" width="13.68" height="40.85"/>
		<g id="Grupo_13_1_" transform="translate(1602.612 487.904)">
			
				<rect id="Rectángulo_8_1_" x="-2049.69" y="-2059.96" transform="matrix(0.7071 -0.7071 0.7071 0.7071 857.412 -2036.2551)" class="st1" width="40.85" height="13.68"/>
			<g id="Grupo_12_1_" transform="translate(0 19.278)">
				<rect id="Rectángulo_9_1_" x="-2108.18" y="-2030.14" class="st1" width="98.18" height="13.68"/>
				<g id="Grupo_11_1_" transform="translate(116.577)">
					<path id="Trazado_14_1_" class="st1" d="M-2094.37-2023.3c-0.04,12.02,4.97,23.5,13.81,31.65v17.44
						c-27.11-16.47-35.74-51.81-19.26-78.92c4.78-7.87,11.39-14.48,19.26-19.26v17.44
						C-2089.4-2046.81-2094.41-2035.32-2094.37-2023.3z"/>
				</g>
			</g>
		</g>
		<g id="Grupo_16_1_" transform="translate(1645.084 856.573)">
			<path id="Trazado_15_1_" class="st1" d="M-2041.47-2008.28c-1.58-3.6-4.52-6.43-8.17-7.88c-5.68-2.29-12.17-1.07-16.63,3.13
				c-1.42,1.35-2.56,2.96-3.35,4.75c-1.63,3.82-1.63,8.14,0,11.95c0.79,1.79,1.93,3.41,3.35,4.75c1.42,1.35,3.08,2.41,4.9,3.13
				c3.77,1.49,7.97,1.49,11.74,0c1.81-0.72,3.46-1.78,4.86-3.13c1.4-1.36,2.53-2.97,3.31-4.75
				C-2039.84-2000.14-2039.84-2004.46-2041.47-2008.28L-2041.47-2008.28z"/>
			<g id="Grupo_14_1_" transform="translate(3.537)">
				<path id="Trazado_16_1_" class="st1" d="M-2059.09-2058.59c12.02,0.04,23.5-4.97,31.65-13.81h17.44
					c-16.48,27.11-51.81,35.73-78.92,19.26c-7.87-4.78-14.48-11.39-19.26-19.26h17.44
					C-2082.59-2063.56-2071.11-2058.55-2059.09-2058.59z"/>
			</g>
			<g id="Grupo_15_1_" transform="translate(0 114.188)">
				<path id="Trazado_17_1_" class="st1" d="M-2026.94-2032.55l24.02-25.21l-9.91-9.44l-14.11,14.81l-19.07-20.01l-19.07,20.02
					l-19.07-20.01l-24.03,25.21l9.9,9.44l14.12-14.82l19.08,20.01l19.07-20.01L-2026.94-2032.55z"/>
			</g>
		</g>
	</g>
</g>
<rect id="Rectángulo_51" x="-2107.65" y="-688.81" class="st2" width="1919.83" height="1080"/>
<g id="Grupo_203" transform="translate(0 -7.083)">
	<g id="Grupo_10" transform="translate(150 84.083)">
		<path id="Trazado_8" class="st3" d="M-2105.42,140.82c2.94-6.98,8.59-12.47,15.66-15.19c7.81-2.93,16.42-2.93,24.23,0
			c3.55,1.37,6.8,3.44,9.54,6.08c2.66,2.59,4.78,5.69,6.23,9.11c2.98,7.22,2.98,15.32,0,22.54c-1.45,3.42-3.57,6.52-6.23,9.11
			c-2.74,2.64-5.99,4.71-9.54,6.09c-7.81,2.93-16.42,2.93-24.23,0c-14.7-6-21.76-22.78-15.76-37.49
			C-2105.49,140.98-2105.45,140.9-2105.42,140.82L-2105.42,140.82z M-2091.67,158.07c1.58,3.6,4.52,6.43,8.17,7.88
			c5.68,2.29,12.17,1.07,16.63-3.13c1.42-1.35,2.56-2.96,3.35-4.75c1.63-3.82,1.63-8.14,0-11.95c-0.79-1.79-1.93-3.4-3.35-4.75
			c-1.42-1.35-3.08-2.41-4.9-3.13c-3.77-1.49-7.97-1.49-11.74,0c-1.81,0.72-3.46,1.78-4.86,3.13c-1.4,1.36-2.53,2.97-3.31,4.75
			C-2093.3,149.93-2093.3,154.25-2091.67,158.07L-2091.67,158.07z"/>
		<rect id="Rectángulo_4" x="-2084.43" y="196.86" class="st3" width="13.68" height="40.85"/>
		<g id="Grupo_6" transform="translate(7.948 405.244)">
			
				<rect id="Rectángulo_5" x="-2062.79" y="-597.47" transform="matrix(0.7071 -0.7071 0.7071 0.7071 -180.5538 -1617.1616)" class="st3" width="40.85" height="13.68"/>
			<g id="Grupo_5">
				<rect id="Rectángulo_6" x="-2061.64" y="-646.56" class="st3" width="98.18" height="13.68"/>
				<g id="Grupo_4">
					<path id="Trazado_9" class="st3" d="M-2093.84-639.72c0.04-12.02-4.97-23.51-13.81-31.66v-17.43
						c27.11,16.48,35.73,51.81,19.26,78.92c-4.78,7.87-11.39,14.48-19.26,19.26v-17.44
						C-2098.81-616.22-2093.81-627.7-2093.84-639.72z"/>
				</g>
			</g>
		</g>
		<g id="Grupo_9" transform="translate(4.411)">
			<path id="Trazado_10" class="st3" d="M-2069.1-598.89c1.58,3.6,4.52,6.43,8.18,7.88c5.68,2.29,12.17,1.06,16.63-3.13
				c1.42-1.35,2.56-2.96,3.35-4.75c1.63-3.82,1.63-8.14,0-11.95c-0.79-1.79-1.93-3.4-3.35-4.75c-4.47-4.17-10.95-5.39-16.63-3.13
				c-1.81,0.72-3.46,1.78-4.86,3.13c-1.4,1.36-2.53,2.97-3.31,4.75C-2070.73-607.03-2070.73-602.71-2069.1-598.89z"/>
			<g id="Grupo_7" transform="translate(3.537 126.423)">
				<path id="Trazado_11" class="st3" d="M-2058.56-675.01c-12.02-0.04-23.5,4.97-31.65,13.81h-17.44
					c16.48-27.11,51.81-35.73,78.92-19.26c7.87,4.78,14.48,11.39,19.26,19.26h-17.44C-2035.06-670.04-2046.54-675.05-2058.56-675.01
					z"/>
			</g>
			<g id="Grupo_8">
				<path id="Trazado_12" class="st3" d="M-2083.63-688.81l-24.02,25.21l9.91,9.44l14.11-14.81l19.07,20.01l19.07-20.01l19.07,20.01
					l24.03-25.21l-9.9-9.44l-14.13,14.82l-19.07-20.01l-19.07,20.01L-2083.63-688.81z"/>
			</g>
		</g>
	</g>
	<g id="Grupo_26" transform="translate(1324 684.328)">
		
			<rect id="Rectángulo_5-2" x="-2062.79" y="-597.47" transform="matrix(0.7071 -0.7071 0.7071 0.7071 -180.5538 -1617.1616)" class="st3" width="40.85" height="13.68"/>
		<g id="Grupo_5-2" transform="translate(0 0)">
			<rect id="Rectángulo_6-2" x="-2061.64" y="-646.56" class="st3" width="98.18" height="13.68"/>
			<g id="Grupo_4-2">
				<path id="Trazado_9-2" class="st3" d="M-2093.84-639.72c0.04-12.02-4.97-23.5-13.81-31.65v-17.44
					c17.21,10.35,27.71,29,27.61,49.09c0.09,20.09-10.4,38.74-27.61,49.09v-17.44C-2098.81-616.22-2093.81-627.7-2093.84-639.72z"/>
			</g>
		</g>
	</g>
	<g id="Grupo_35" transform="translate(0 186)">
		<path id="Trazado_8-2" class="st3" d="M-1555.74-507.84c-2.94,6.98-8.59,12.47-15.66,15.19c-7.81,2.93-16.42,2.93-24.23,0
			c-3.55-1.37-6.8-3.44-9.54-6.08c-2.66-2.59-4.78-5.69-6.23-9.11c-2.98-7.22-2.98-15.32,0-22.54c1.45-3.42,3.57-6.52,6.23-9.11
			c2.74-2.64,5.99-4.71,9.54-6.09c7.81-2.93,16.42-2.93,24.23,0c14.7,6,21.76,22.78,15.76,37.49
			C-1555.68-508-1555.71-507.92-1555.74-507.84L-1555.74-507.84z M-1569.49-525.09c-1.58-3.6-4.52-6.43-8.18-7.88
			c-5.68-2.29-12.17-1.07-16.63,3.13c-1.42,1.35-2.56,2.96-3.35,4.75c-1.63,3.82-1.63,8.14,0,11.95c0.79,1.79,1.93,3.4,3.35,4.75
			c1.42,1.35,3.08,2.41,4.9,3.13c3.77,1.49,7.96,1.49,11.73,0c1.81-0.72,3.46-1.78,4.86-3.13c1.4-1.36,2.53-2.97,3.31-4.75
			C-1567.86-516.95-1567.86-521.27-1569.49-525.09L-1569.49-525.09z"/>
		<rect id="Rectángulo_4-2" x="-1590.41" y="-604.73" class="st3" width="13.68" height="40.85"/>
	</g>
	<g id="Grupo_6-2" transform="translate(592.19 791.365) rotate(180)">
		
			<rect id="Rectángulo_5-3" x="2152.51" y="780.16" transform="matrix(0.7071 -0.7071 0.7071 0.7071 79.9502 1767.009)" class="st3" width="40.85" height="13.68"/>
		<g id="Grupo_5-3">
			<rect id="Rectángulo_6-3" x="2153.66" y="731.06" class="st3" width="98.18" height="13.68"/>
			<g id="Grupo_4-3">
				<path id="Trazado_9-3" class="st3" d="M2121.46,737.91c0.04-12.02-4.97-23.51-13.81-31.66v-17.43
					c27.11,16.48,35.73,51.81,19.26,78.92c-4.78,7.87-11.39,14.48-19.26,19.26v-17.44C2116.49,761.41,2121.49,749.93,2121.46,737.91
					z"/>
			</g>
		</g>
	</g>
	<g id="Grupo_27" transform="translate(1339.463 279.083)">
		<path id="Trazado_10-2" class="st3" d="M-2069.1-598.89c1.58,3.6,4.52,6.43,8.18,7.88c1.86,0.75,3.86,1.13,5.87,1.12
			c4,0.02,7.86-1.5,10.77-4.25c1.42-1.35,2.56-2.96,3.35-4.75c0.83-1.88,1.24-3.92,1.22-5.97c0.02-2.06-0.39-4.09-1.22-5.98
			c-0.79-1.79-1.93-3.4-3.35-4.75c-2.91-2.75-6.76-4.27-10.77-4.25c-2.01-0.01-4,0.37-5.87,1.11c-1.81,0.72-3.46,1.78-4.86,3.13
			c-1.4,1.36-2.53,2.97-3.31,4.75c-0.83,1.88-1.24,3.92-1.22,5.98C-2070.34-602.82-2069.93-600.78-2069.1-598.89z"/>
		<g id="Grupo_7-2" transform="translate(3.537 126.423)">
			<path id="Trazado_11-2" class="st3" d="M-2058.56-675.01c-12.02-0.04-23.5,4.97-31.65,13.81h-17.44
				c10.35-17.21,29-27.71,49.09-27.61c20.09-0.09,38.74,10.4,49.09,27.61h-17.44C-2035.06-670.04-2046.54-675.05-2058.56-675.01z"/>
		</g>
		<g id="Grupo_8-2">
			<path id="Trazado_12-2" class="st3" d="M-2083.63-688.81l-24.02,25.21l9.91,9.44l14.11-14.81l19.07,20.01l19.07-20.01
				l19.07,20.01l24.03-25.21l-9.9-9.44l-14.12,14.82l-19.07-20.02l-19.07,20.02L-2083.63-688.81z"/>
		</g>
	</g>
	<g id="Grupo_25" transform="translate(15.249)">
		<path id="Trazado_13" class="st3" d="M-355.13-507.84c-2.94,6.98-8.59,12.47-15.66,15.19c-7.81,2.93-16.42,2.93-24.23,0
			c-3.55-1.37-6.8-3.44-9.54-6.08c-2.66-2.59-4.78-5.69-6.23-9.11c-2.98-7.22-2.98-15.32,0-22.54c1.45-3.42,3.57-6.52,6.23-9.11
			c2.74-2.64,5.99-4.71,9.54-6.09c7.81-2.93,16.42-2.93,24.23,0c14.7,6,21.76,22.78,15.76,37.48
			C-355.06-508.01-355.1-507.93-355.13-507.84L-355.13-507.84z M-368.88-525.09c-1.58-3.6-4.52-6.43-8.17-7.88
			c-3.77-1.49-7.97-1.49-11.74,0c-1.82,0.72-3.48,1.79-4.9,3.13c-1.42,1.35-2.56,2.96-3.35,4.75c-1.63,3.82-1.63,8.14,0,11.95
			c0.79,1.79,1.93,3.41,3.35,4.75c1.42,1.35,3.08,2.41,4.9,3.13c3.77,1.49,7.97,1.49,11.74,0c1.81-0.72,3.46-1.78,4.86-3.13
			c1.4-1.36,2.53-2.97,3.31-4.75C-367.25-516.95-367.25-521.27-368.88-525.09z"/>
		<rect id="Rectángulo_7" x="-389.8" y="-604.73" class="st3" width="13.68" height="40.85"/>
		<g id="Grupo_13" transform="translate(1602.612 487.904)">
			
				<rect id="Rectángulo_8" x="-2049.17" y="-676.38" transform="matrix(0.7071 -0.7071 0.7071 0.7071 -120.7719 -1630.6421)" class="st3" width="40.85" height="13.68"/>
			<g id="Grupo_12" transform="translate(0 19.278)">
				<rect id="Rectángulo_9" x="-2107.65" y="-646.56" class="st3" width="98.18" height="13.68"/>
				<g id="Grupo_11" transform="translate(116.577)">
					<path id="Trazado_14" class="st3" d="M-2093.84-639.72c-0.04,12.02,4.97,23.5,13.81,31.65v17.44
						c-27.11-16.47-35.74-51.81-19.26-78.92c4.78-7.87,11.39-14.48,19.26-19.26v17.44
						C-2088.87-663.23-2093.88-651.74-2093.84-639.72z"/>
				</g>
			</g>
		</g>
		<g id="Grupo_16" transform="translate(1645.084 856.573)">
			<path id="Trazado_15" class="st3" d="M-2040.94-624.7c-1.58-3.6-4.52-6.43-8.17-7.88c-5.68-2.29-12.17-1.07-16.63,3.13
				c-1.42,1.35-2.56,2.96-3.35,4.75c-1.63,3.82-1.63,8.14,0,11.95c0.79,1.79,1.93,3.41,3.35,4.75c1.42,1.35,3.08,2.41,4.9,3.13
				c3.77,1.49,7.97,1.49,11.74,0c1.81-0.72,3.46-1.78,4.86-3.13c1.4-1.36,2.53-2.97,3.31-4.75
				C-2039.31-616.56-2039.31-620.88-2040.94-624.7L-2040.94-624.7z"/>
			<g id="Grupo_14" transform="translate(3.537)">
				<path id="Trazado_16" class="st3" d="M-2058.56-675.01c12.02,0.04,23.5-4.97,31.65-13.81h17.44
					c-16.48,27.11-51.81,35.73-78.92,19.26c-7.87-4.78-14.48-11.39-19.26-19.26h17.44
					C-2082.06-679.98-2070.58-674.97-2058.56-675.01z"/>
			</g>
			<g id="Grupo_15" transform="translate(0 114.188)">
				<path id="Trazado_17" class="st3" d="M-2026.41-648.97l24.02-25.21l-9.91-9.44l-14.11,14.81l-19.07-20.01l-19.07,20.02
					l-19.07-20.01l-24.03,25.21l9.9,9.44l14.12-14.82l19.08,20.01l19.07-20.01L-2026.41-648.97z"/>
			</g>
		</g>
	</g>
</g>
<rect id="Rectángulo_32_1_" x="-2108.65" y="704.19" class="st4" width="1919.83" height="1080"/>
<g id="Grupo_199_1_" transform="translate(0 -7.083)">
	<g id="Grupo_10_3_" transform="translate(150 84.083)">
		<path id="Trazado_8_3_" class="st5" d="M-2106.42,1533.82c2.94-6.98,8.59-12.47,15.66-15.19c7.81-2.93,16.42-2.93,24.23,0
			c3.55,1.37,6.8,3.44,9.54,6.08c2.66,2.59,4.78,5.69,6.23,9.11c2.98,7.22,2.98,15.32,0,22.54c-1.45,3.42-3.57,6.52-6.23,9.11
			c-2.74,2.64-5.99,4.71-9.54,6.09c-7.81,2.93-16.42,2.93-24.23,0c-14.7-6-21.76-22.78-15.76-37.49
			C-2106.49,1533.98-2106.45,1533.9-2106.42,1533.82L-2106.42,1533.82z M-2092.67,1551.07c1.58,3.6,4.52,6.43,8.17,7.88
			c5.68,2.29,12.17,1.07,16.63-3.13c1.42-1.35,2.56-2.96,3.35-4.75c1.63-3.82,1.63-8.14,0-11.95c-0.79-1.79-1.93-3.4-3.35-4.75
			c-1.42-1.35-3.08-2.41-4.9-3.13c-3.77-1.49-7.97-1.49-11.74,0c-1.81,0.72-3.46,1.78-4.86,3.13c-1.4,1.36-2.53,2.97-3.31,4.75
			C-2094.3,1542.93-2094.3,1547.25-2092.67,1551.07L-2092.67,1551.07z"/>
		<rect id="Rectángulo_4_3_" x="-2085.43" y="1589.86" class="st5" width="13.68" height="40.85"/>
		<g id="Grupo_6_3_" transform="translate(7.948 405.244)">
			
				<rect id="Rectángulo_5_3_" x="-2063.79" y="795.53" transform="matrix(0.7071 -0.7071 0.7071 0.7071 -1165.8464 -1209.8684)" class="st5" width="40.85" height="13.68"/>
			<g id="Grupo_5_3_">
				<rect id="Rectángulo_6_3_" x="-2062.64" y="746.44" class="st5" width="98.18" height="13.68"/>
				<g id="Grupo_4_3_">
					<path id="Trazado_9_3_" class="st5" d="M-2094.84,753.28c0.04-12.02-4.97-23.51-13.81-31.66v-17.43
						c27.11,16.48,35.73,51.81,19.26,78.92c-4.78,7.87-11.39,14.48-19.26,19.26v-17.44
						C-2099.81,776.78-2094.81,765.3-2094.84,753.28z"/>
				</g>
			</g>
		</g>
		<g id="Grupo_9_3_" transform="translate(4.411)">
			<path id="Trazado_10_3_" class="st5" d="M-2070.1,794.11c1.58,3.6,4.52,6.43,8.18,7.88c5.68,2.29,12.17,1.06,16.63-3.13
				c1.42-1.35,2.56-2.96,3.35-4.75c1.63-3.82,1.63-8.14,0-11.95c-0.79-1.79-1.93-3.4-3.35-4.75c-4.47-4.17-10.95-5.39-16.63-3.13
				c-1.81,0.72-3.46,1.78-4.86,3.13c-1.4,1.36-2.53,2.97-3.31,4.75C-2071.73,785.97-2071.73,790.29-2070.1,794.11z"/>
			<g id="Grupo_7_3_" transform="translate(3.537 126.423)">
				<path id="Trazado_11_3_" class="st5" d="M-2059.56,717.99c-12.02-0.04-23.5,4.97-31.65,13.81h-17.44
					c16.48-27.11,51.81-35.73,78.92-19.26c7.87,4.78,14.48,11.39,19.26,19.26h-17.44C-2036.06,722.96-2047.54,717.95-2059.56,717.99
					z"/>
			</g>
			<g id="Grupo_8_3_">
				<path id="Trazado_12_3_" class="st5" d="M-2084.63,704.19l-24.02,25.21l9.91,9.44l14.11-14.81l19.07,20.01l19.07-20.01
					l19.07,20.01l24.03-25.21l-9.9-9.44l-14.13,14.82l-19.07-20.01l-19.07,20.01L-2084.63,704.19z"/>
			</g>
		</g>
	</g>
	<g id="Grupo_26_3_" transform="translate(1324 684.328)">
		
			<rect id="Rectángulo_5-2_3_" x="-2063.79" y="795.53" transform="matrix(0.7071 -0.7071 0.7071 0.7071 -1165.8464 -1209.8684)" class="st5" width="40.85" height="13.68"/>
		<g id="Grupo_5-2_3_" transform="translate(0 0)">
			<rect id="Rectángulo_6-2_3_" x="-2062.64" y="746.44" class="st5" width="98.18" height="13.68"/>
			<g id="Grupo_4-2_3_">
				<path id="Trazado_9-2_3_" class="st5" d="M-2094.84,753.28c0.04-12.02-4.97-23.5-13.81-31.65v-17.44
					c17.21,10.35,27.71,29,27.61,49.09c0.09,20.09-10.4,38.74-27.61,49.09v-17.44C-2099.81,776.78-2094.81,765.3-2094.84,753.28z"/>
			</g>
		</g>
	</g>
	<g id="Grupo_35_3_" transform="translate(0 186)">
		<path id="Trazado_8-2_3_" class="st5" d="M-1556.74,885.16c-2.94,6.98-8.59,12.47-15.66,15.19c-7.81,2.93-16.42,2.93-24.23,0
			c-3.55-1.37-6.8-3.44-9.54-6.08c-2.66-2.59-4.78-5.69-6.23-9.11c-2.98-7.22-2.98-15.32,0-22.54c1.45-3.42,3.57-6.52,6.23-9.11
			c2.74-2.64,5.99-4.71,9.54-6.09c7.81-2.93,16.42-2.93,24.23,0c14.7,6,21.76,22.78,15.76,37.49
			C-1556.68,885-1556.71,885.08-1556.74,885.16L-1556.74,885.16z M-1570.49,867.91c-1.58-3.6-4.52-6.43-8.18-7.88
			c-5.68-2.29-12.17-1.07-16.63,3.13c-1.42,1.35-2.56,2.96-3.35,4.75c-1.63,3.82-1.63,8.14,0,11.95c0.79,1.79,1.93,3.4,3.35,4.75
			c1.42,1.35,3.08,2.41,4.9,3.13c3.77,1.49,7.96,1.49,11.73,0c1.81-0.72,3.46-1.78,4.86-3.13c1.4-1.36,2.53-2.97,3.31-4.75
			C-1568.86,876.05-1568.86,871.73-1570.49,867.91L-1570.49,867.91z"/>
		<rect id="Rectángulo_4-2_3_" x="-1591.41" y="788.27" class="st5" width="13.68" height="40.85"/>
	</g>
	<g id="Grupo_6-2_3_" transform="translate(592.19 791.365) rotate(180)">
		
			<rect id="Rectángulo_5-3_3_" x="2153.51" y="-612.84" transform="matrix(0.7071 -0.7071 0.7071 0.7071 1065.2454 1359.7134)" class="st5" width="40.85" height="13.68"/>
		<g id="Grupo_5-3_3_">
			<rect id="Rectángulo_6-3_3_" x="2154.66" y="-661.94" class="st5" width="98.18" height="13.68"/>
			<g id="Grupo_4-3_3_">
				<path id="Trazado_9-3_3_" class="st5" d="M2122.46-655.09c0.04-12.02-4.97-23.51-13.81-31.66v-17.43
					c27.11,16.48,35.73,51.81,19.26,78.92c-4.78,7.87-11.39,14.48-19.26,19.26v-17.44C2117.49-631.59,2122.49-643.07,2122.46-655.09
					z"/>
			</g>
		</g>
	</g>
	<g id="Grupo_27_3_" transform="translate(1339.463 279.083)">
		<path id="Trazado_10-2_3_" class="st5" d="M-2070.1,794.11c1.58,3.6,4.52,6.43,8.18,7.88c1.86,0.75,3.86,1.13,5.87,1.12
			c4,0.02,7.86-1.5,10.77-4.25c1.42-1.35,2.56-2.96,3.35-4.75c0.83-1.88,1.24-3.92,1.22-5.97c0.02-2.06-0.39-4.09-1.22-5.98
			c-0.79-1.79-1.93-3.4-3.35-4.75c-2.91-2.75-6.76-4.27-10.77-4.25c-2.01-0.01-4,0.37-5.87,1.11c-1.81,0.72-3.46,1.78-4.86,3.13
			c-1.4,1.36-2.53,2.97-3.31,4.75c-0.83,1.88-1.24,3.92-1.22,5.98C-2071.34,790.18-2070.93,792.22-2070.1,794.11z"/>
		<g id="Grupo_7-2_3_" transform="translate(3.537 126.423)">
			<path id="Trazado_11-2_3_" class="st5" d="M-2059.56,717.99c-12.02-0.04-23.5,4.97-31.65,13.81h-17.44
				c10.35-17.21,29-27.71,49.09-27.61c20.09-0.09,38.74,10.4,49.09,27.61h-17.44C-2036.06,722.96-2047.54,717.95-2059.56,717.99z"/>
		</g>
		<g id="Grupo_8-2_3_">
			<path id="Trazado_12-2_3_" class="st5" d="M-2084.63,704.19l-24.02,25.21l9.91,9.44l14.11-14.81l19.07,20.01l19.07-20.01
				l19.07,20.01l24.03-25.21l-9.9-9.44l-14.12,14.82l-19.07-20.02l-19.07,20.02L-2084.63,704.19z"/>
		</g>
	</g>
	<g id="Grupo_25_3_" transform="translate(15.249)">
		<path id="Trazado_13_3_" class="st5" d="M-356.13,885.16c-2.94,6.98-8.59,12.47-15.66,15.19c-7.81,2.93-16.42,2.93-24.23,0
			c-3.55-1.37-6.8-3.44-9.54-6.08c-2.66-2.59-4.78-5.69-6.23-9.11c-2.98-7.22-2.98-15.32,0-22.54c1.45-3.42,3.57-6.52,6.23-9.11
			c2.74-2.64,5.99-4.71,9.54-6.09c7.81-2.93,16.42-2.93,24.23,0c14.7,6,21.76,22.78,15.76,37.48
			C-356.06,884.99-356.1,885.07-356.13,885.16L-356.13,885.16z M-369.88,867.91c-1.58-3.6-4.52-6.43-8.17-7.88
			c-3.77-1.49-7.97-1.49-11.74,0c-1.82,0.72-3.48,1.79-4.9,3.13c-1.42,1.35-2.56,2.96-3.35,4.75c-1.63,3.82-1.63,8.14,0,11.95
			c0.79,1.79,1.93,3.41,3.35,4.75c1.42,1.35,3.08,2.41,4.9,3.13c3.77,1.49,7.97,1.49,11.74,0c1.81-0.72,3.46-1.78,4.86-3.13
			c1.4-1.36,2.53-2.97,3.31-4.75C-368.25,876.05-368.25,871.73-369.88,867.91z"/>
		<rect id="Rectángulo_7_3_" x="-390.8" y="788.27" class="st5" width="13.68" height="40.85"/>
		<g id="Grupo_13_3_" transform="translate(1602.612 487.904)">
			
				<rect id="Rectángulo_8_3_" x="-2050.17" y="716.62" transform="matrix(0.7071 -0.7071 0.7071 0.7071 -1106.0646 -1223.349)" class="st5" width="40.85" height="13.68"/>
			<g id="Grupo_12_3_" transform="translate(0 19.278)">
				<rect id="Rectángulo_9_3_" x="-2108.65" y="746.44" class="st5" width="98.18" height="13.68"/>
				<g id="Grupo_11_3_" transform="translate(116.577)">
					<path id="Trazado_14_3_" class="st5" d="M-2094.84,753.28c-0.04,12.02,4.97,23.5,13.81,31.65v17.44
						c-27.11-16.47-35.74-51.81-19.26-78.92c4.78-7.87,11.39-14.48,19.26-19.26v17.44
						C-2089.87,729.77-2094.88,741.26-2094.84,753.28z"/>
				</g>
			</g>
		</g>
		<g id="Grupo_16_3_" transform="translate(1645.084 856.573)">
			<path id="Trazado_15_3_" class="st5" d="M-2041.94,768.3c-1.58-3.6-4.52-6.43-8.17-7.88c-5.68-2.29-12.17-1.07-16.63,3.13
				c-1.42,1.35-2.56,2.96-3.35,4.75c-1.63,3.82-1.63,8.14,0,11.95c0.79,1.79,1.93,3.41,3.35,4.75c1.42,1.35,3.08,2.41,4.9,3.13
				c3.77,1.49,7.97,1.49,11.74,0c1.81-0.72,3.46-1.78,4.86-3.13c1.4-1.36,2.53-2.97,3.31-4.75
				C-2040.31,776.44-2040.31,772.12-2041.94,768.3L-2041.94,768.3z"/>
			<g id="Grupo_14_3_" transform="translate(3.537)">
				<path id="Trazado_16_3_" class="st5" d="M-2059.56,717.99c12.02,0.04,23.5-4.97,31.65-13.81h17.44
					c-16.48,27.11-51.81,35.73-78.92,19.26c-7.87-4.78-14.48-11.39-19.26-19.26h17.44
					C-2083.06,713.02-2071.58,718.03-2059.56,717.99z"/>
			</g>
			<g id="Grupo_15_3_" transform="translate(0 114.188)">
				<path id="Trazado_17_3_" class="st5" d="M-2027.41,744.03l24.02-25.21l-9.91-9.44l-14.11,14.81l-19.07-20.01l-19.07,20.02
					l-19.07-20.01l-24.03,25.21l9.9,9.44l14.12-14.82l19.08,20.01l19.07-20.01L-2027.41,744.03z"/>
			</g>
		</g>
	</g>
</g>
<rect id="Rectángulo_3" x="-2107.93" y="2073.34" class="st6" width="1920.4" height="1080"/>
<g id="Grupo_196">
	<g id="Grupo_10_2_" transform="translate(150 84.083)">
		<path id="Trazado_8_2_" class="st7" d="M-2105.7,2902.98c2.94-6.98,8.59-12.47,15.66-15.19c7.81-2.93,16.42-2.93,24.23,0
			c3.55,1.37,6.8,3.44,9.54,6.08c2.66,2.59,4.78,5.69,6.23,9.11c2.98,7.22,2.98,15.32,0,22.54c-1.45,3.42-3.56,6.52-6.23,9.11
			c-2.74,2.64-5.99,4.71-9.54,6.09c-7.81,2.93-16.42,2.93-24.23,0c-14.7-6-21.76-22.78-15.76-37.49
			C-2105.77,2903.14-2105.74,2903.06-2105.7,2902.98L-2105.7,2902.98z M-2091.95,2920.23c1.58,3.6,4.52,6.43,8.18,7.88
			c5.68,2.29,12.17,1.07,16.63-3.13c1.42-1.35,2.56-2.96,3.35-4.75c1.63-3.82,1.63-8.14,0-11.95c-0.79-1.79-1.93-3.41-3.35-4.75
			c-1.42-1.35-3.08-2.41-4.9-3.13c-3.77-1.49-7.96-1.49-11.73,0c-1.81,0.72-3.46,1.78-4.86,3.13c-1.4,1.36-2.53,2.97-3.31,4.75
			C-2093.59,2912.09-2093.59,2916.41-2091.95,2920.23L-2091.95,2920.23z"/>
		<rect id="Rectángulo_4_2_" x="-2084.71" y="2959.02" class="st7" width="13.68" height="40.85"/>
		<g id="Grupo_6_2_" transform="translate(7.948 405.244)">
			
				<rect id="Rectángulo_5_2_" x="-2063.07" y="2164.68" transform="matrix(0.7071 -0.7071 0.7071 0.7071 -2133.7778 -808.3458)" class="st7" width="40.85" height="13.68"/>
			<g id="Grupo_5_2_">
				<rect id="Rectángulo_6_2_" x="-2061.93" y="2115.59" class="st7" width="98.18" height="13.68"/>
				<g id="Grupo_4_2_">
					<path id="Trazado_9_2_" class="st7" d="M-2094.13,2122.43c0.04-12.02-4.97-23.51-13.81-31.66v-17.43
						c27.11,16.48,35.73,51.81,19.26,78.92c-4.78,7.87-11.39,14.48-19.26,19.26v-17.44
						C-2099.1,2145.94-2094.09,2134.45-2094.13,2122.43z"/>
				</g>
			</g>
		</g>
		<g id="Grupo_9_2_" transform="translate(4.411)">
			<path id="Trazado_10_2_" class="st7" d="M-2069.38,2163.26c1.58,3.6,4.52,6.43,8.18,7.88c5.68,2.29,12.17,1.06,16.63-3.13
				c1.42-1.35,2.56-2.96,3.35-4.75c1.63-3.82,1.63-8.14,0-11.96c-0.79-1.79-1.93-3.4-3.35-4.75c-4.47-4.17-10.95-5.39-16.63-3.13
				c-1.81,0.72-3.46,1.78-4.86,3.13c-1.4,1.36-2.53,2.97-3.31,4.75C-2071.02,2155.13-2071.02,2159.45-2069.38,2163.26z"/>
			<g id="Grupo_7_2_" transform="translate(3.537 126.423)">
				<path id="Trazado_11_2_" class="st7" d="M-2058.84,2087.15c-12.02-0.04-23.5,4.97-31.65,13.81h-17.44
					c16.48-27.11,51.81-35.73,78.92-19.26c7.87,4.78,14.48,11.39,19.26,19.26h-17.44
					C-2035.34,2092.12-2046.82,2087.11-2058.84,2087.15z"/>
			</g>
			<g id="Grupo_8_2_">
				<path id="Trazado_12_2_" class="st7" d="M-2083.92,2073.34l-24.01,25.21l9.91,9.44l14.11-14.81l19.07,20.01l19.07-20.01
					l19.07,20.01l24.03-25.21l-9.9-9.44l-14.13,14.82l-19.07-20.01l-19.07,20.01L-2083.92,2073.34z"/>
			</g>
		</g>
	</g>
	<g id="Grupo_26_2_" transform="translate(1324 684.328)">
		
			<rect id="Rectángulo_5-2_2_" x="-2063.07" y="2164.68" transform="matrix(0.7071 -0.7071 0.7071 0.7071 -2133.7778 -808.3458)" class="st7" width="40.85" height="13.68"/>
		<g id="Grupo_5-2_2_" transform="translate(0 0)">
			<rect id="Rectángulo_6-2_2_" x="-2061.93" y="2115.59" class="st7" width="98.18" height="13.68"/>
			<g id="Grupo_4-2_2_">
				<path id="Trazado_9-2_2_" class="st7" d="M-2094.13,2122.43c0.04-12.02-4.97-23.5-13.81-31.65v-17.44
					c17.21,10.35,27.71,29,27.61,49.09c0.09,20.09-10.4,38.74-27.61,49.09v-17.44C-2099.1,2145.94-2094.09,2134.45-2094.13,2122.43z
					"/>
			</g>
		</g>
	</g>
	<g id="Grupo_35_2_" transform="translate(0 186)">
		<path id="Trazado_8-2_2_" class="st7" d="M-1556.03,2254.32c-2.94,6.98-8.59,12.47-15.66,15.19c-7.81,2.93-16.42,2.93-24.23,0
			c-3.55-1.37-6.8-3.44-9.54-6.08c-2.66-2.59-4.78-5.69-6.23-9.11c-2.98-7.22-2.98-15.32,0-22.54c1.45-3.42,3.57-6.52,6.23-9.11
			c2.74-2.64,5.99-4.71,9.54-6.08c7.81-2.93,16.42-2.93,24.23,0c14.7,6,21.76,22.78,15.76,37.49
			C-1555.96,2254.15-1555.99,2254.23-1556.03,2254.32L-1556.03,2254.32z M-1569.78,2237.07c-1.58-3.6-4.52-6.43-8.18-7.88
			c-5.68-2.29-12.17-1.07-16.63,3.13c-1.42,1.35-2.56,2.96-3.35,4.75c-1.63,3.82-1.63,8.14,0,11.95c0.79,1.79,1.93,3.4,3.35,4.75
			c1.42,1.35,3.08,2.41,4.9,3.13c3.77,1.49,7.96,1.49,11.73,0c1.81-0.72,3.46-1.78,4.86-3.13c1.4-1.36,2.53-2.97,3.31-4.75
			C-1568.15,2245.2-1568.15,2240.89-1569.78,2237.07L-1569.78,2237.07z"/>
		<rect id="Rectángulo_4-2_2_" x="-1590.7" y="2157.43" class="st7" width="13.68" height="40.85"/>
	</g>
	<g id="Grupo_6-2_2_" transform="translate(592.19 791.365) rotate(180)">
		
			<rect id="Rectángulo_5-3_2_" x="2152.8" y="-1982" transform="matrix(0.7071 -0.7071 0.7071 0.7071 2033.1792 958.1883)" class="st7" width="40.85" height="13.68"/>
		<g id="Grupo_5-3_2_">
			<rect id="Rectángulo_6-3_2_" x="2153.94" y="-2031.09" class="st7" width="98.18" height="13.68"/>
			<g id="Grupo_4-3_2_">
				<path id="Trazado_9-3_2_" class="st7" d="M2121.74-2024.25c0.04-12.02-4.97-23.51-13.81-31.66v-17.43
					c27.11,16.48,35.73,51.81,19.26,78.92c-4.78,7.87-11.39,14.48-19.26,19.26v-17.44
					C2116.77-2000.75,2121.78-2012.23,2121.74-2024.25z"/>
			</g>
		</g>
	</g>
	<g id="Grupo_27_2_" transform="translate(1339.463 279.083)">
		<path id="Trazado_10-2_2_" class="st7" d="M-2069.38,2163.26c1.58,3.6,4.52,6.43,8.18,7.88c1.86,0.75,3.86,1.13,5.87,1.12
			c4,0.02,7.86-1.5,10.77-4.25c1.42-1.35,2.56-2.96,3.35-4.75c0.83-1.88,1.24-3.92,1.22-5.97c0.02-2.06-0.39-4.09-1.22-5.98
			c-0.79-1.79-1.93-3.4-3.35-4.75c-2.91-2.75-6.76-4.27-10.76-4.25c-2.01-0.01-4,0.37-5.87,1.11c-1.81,0.72-3.46,1.78-4.86,3.13
			c-1.4,1.36-2.53,2.97-3.31,4.75c-0.83,1.88-1.24,3.92-1.22,5.98C-2070.63,2159.34-2070.21,2161.38-2069.38,2163.26z"/>
		<g id="Grupo_7-2_2_" transform="translate(3.537 126.423)">
			<path id="Trazado_11-2_2_" class="st7" d="M-2058.84,2087.15c-12.02-0.04-23.5,4.97-31.65,13.81h-17.44
				c10.35-17.21,29-27.71,49.09-27.61c20.09-0.09,38.74,10.4,49.09,27.61h-17.44C-2035.34,2092.12-2046.82,2087.11-2058.84,2087.15z
				"/>
		</g>
		<g id="Grupo_8-2_2_">
			<path id="Trazado_12-2_2_" class="st7" d="M-2083.92,2073.34l-24.01,25.21l9.91,9.44l14.11-14.81l19.07,20.01l19.07-20.01
				l19.07,20.01l24.03-25.21l-9.9-9.44l-14.12,14.82l-19.07-20.02l-19.07,20.02L-2083.92,2073.34z"/>
		</g>
	</g>
	<g id="Grupo_25_2_" transform="translate(15.249)">
		<path id="Trazado_13_2_" class="st7" d="M-355.42,2254.32c-2.94,6.98-8.59,12.47-15.66,15.19c-7.81,2.93-16.42,2.93-24.23,0
			c-3.55-1.37-6.8-3.44-9.54-6.08c-2.66-2.59-4.78-5.69-6.23-9.11c-2.98-7.22-2.98-15.32,0-22.54c1.45-3.42,3.57-6.52,6.23-9.11
			c2.74-2.64,5.99-4.71,9.54-6.08c7.81-2.93,16.42-2.93,24.23,0c14.7,6,21.76,22.78,15.76,37.48
			C-355.35,2254.15-355.38,2254.23-355.42,2254.32L-355.42,2254.32z M-369.17,2237.07c-1.58-3.6-4.52-6.43-8.17-7.88
			c-3.77-1.49-7.97-1.49-11.74,0c-1.82,0.72-3.48,1.79-4.9,3.13c-1.42,1.35-2.56,2.96-3.35,4.75c-1.63,3.82-1.63,8.14,0,11.95
			c0.79,1.79,1.93,3.41,3.35,4.75c1.42,1.35,3.08,2.41,4.9,3.13c3.77,1.49,7.97,1.49,11.74,0c1.81-0.72,3.46-1.78,4.86-3.13
			c1.4-1.36,2.53-2.97,3.31-4.75C-367.54,2245.2-367.54,2240.89-369.17,2237.07z"/>
		<rect id="Rectángulo_7_2_" x="-390.09" y="2157.43" class="st7" width="13.68" height="40.85"/>
		<g id="Grupo_13_2_" transform="translate(1602.612 487.904)">
			
				<rect id="Rectángulo_8_2_" x="-2049.45" y="2085.78" transform="matrix(0.7071 -0.7071 0.7071 0.7071 -2073.9958 -821.8263)" class="st7" width="40.85" height="13.68"/>
			<g id="Grupo_12_2_" transform="translate(0 19.278)">
				<rect id="Rectángulo_9_2_" x="-2107.93" y="2115.59" class="st7" width="98.18" height="13.68"/>
				<g id="Grupo_11_2_" transform="translate(116.577)">
					<path id="Trazado_14_2_" class="st7" d="M-2094.13,2122.43c-0.04,12.02,4.97,23.5,13.81,31.65v17.44
						c-27.11-16.47-35.74-51.81-19.26-78.92c4.78-7.87,11.39-14.48,19.26-19.26v17.44
						C-2089.16,2098.93-2094.17,2110.41-2094.13,2122.43z"/>
				</g>
			</g>
		</g>
		<g id="Grupo_16_2_" transform="translate(1645.084 856.573)">
			<path id="Trazado_15_2_" class="st7" d="M-2041.23,2137.46c-1.58-3.6-4.52-6.43-8.17-7.88c-5.68-2.29-12.17-1.07-16.63,3.13
				c-1.42,1.35-2.56,2.96-3.35,4.75c-1.63,3.82-1.63,8.14,0,11.95c0.79,1.79,1.93,3.41,3.35,4.75c1.42,1.35,3.08,2.41,4.9,3.13
				c3.77,1.49,7.97,1.49,11.74,0c1.81-0.72,3.46-1.78,4.86-3.13c1.4-1.36,2.53-2.97,3.31-4.75
				C-2039.59,2145.59-2039.59,2141.28-2041.23,2137.46L-2041.23,2137.46z"/>
			<g id="Grupo_14_2_" transform="translate(3.537)">
				<path id="Trazado_16_2_" class="st7" d="M-2058.85,2087.15c12.02,0.04,23.5-4.97,31.65-13.81h17.44
					c-16.48,27.11-51.81,35.73-78.92,19.26c-7.87-4.78-14.48-11.39-19.26-19.26h17.44
					C-2082.35,2082.18-2070.87,2087.19-2058.85,2087.15z"/>
			</g>
			<g id="Grupo_15_2_" transform="translate(0 114.188)">
				<path id="Trazado_17_2_" class="st7" d="M-2026.69,2113.19l24.02-25.21l-9.91-9.44l-14.11,14.81l-19.07-20.01l-19.07,20.02
					l-19.07-20.01l-24.03,25.21l9.9,9.44l14.12-14.82l19.08,20.01l19.07-20.01L-2026.69,2113.19z"/>
			</g>
		</g>
	</g>
</g>
<path id="Rectángulo_28_1_" class="st8" d="M26.53-1319.92h251.78c37.5,0,67.9,30.4,67.9,67.9l0,0c0,37.5-30.4,67.9-67.9,67.9
	H26.53c-37.5,0-67.9-30.4-67.9-67.9l0,0C-41.36-1289.52-10.97-1319.92,26.53-1319.92z"/>
<circle id="Elipse_18_1_" class="st3" cx="131.2" cy="-1254.59" r="6.06"/>
<circle id="Elipse_19_1_" class="st3" cx="173.64" cy="-1254.59" r="6.06"/>
<line id="Línea_10_1_" class="st9" x1="125.14" y1="-1267.53" x2="137.27" y2="-1267.53"/>
<line id="Línea_11_1_" class="st9" x1="167.58" y1="-1267.53" x2="179.7" y2="-1267.53"/>
<line id="Línea_12_1_" class="st9" x1="138.46" y1="-1236.52" x2="167.44" y2="-1236.52"/>
<circle id="Elipse_20_1_" class="st3" cx="254" cy="-1257.17" r="6.06"/>
<circle id="Elipse_21_1_" class="st3" cx="296.44" cy="-1257.17" r="6.06"/>
<path id="Trazado_49_1_" class="st9" d="M261.26-1231.87c0,0,13.2-16.05,28.98-0.27"/>
<line id="Línea_13_1_" class="st9" x1="248.31" y1="-1268.03" x2="259.7" y2="-1272.18"/>
<line id="Línea_14_1_" class="st9" x1="290.74" y1="-1272.18" x2="302.14" y2="-1268.03"/>
<circle id="Elipse_22_4_" class="st3" cx="7.6" cy="-1255.17" r="6.06"/>
<path id="Trazado_50_4_" class="st9" d="M1.55-1268.11c0-3.35,2.71-6.06,6.06-6.06s6.06,2.71,6.06,6.06"/>
<path id="Trazado_51_4_" class="st9" d="M43.98-1268.11c0.04-3.35,2.79-6.03,6.14-5.99c3.29,0.04,5.94,2.7,5.99,5.99"/>
<circle id="Elipse_23_4_" class="st3" cx="50.04" cy="-1255.17" r="6.06"/>
<path id="Trazado_52_4_" class="st9" d="M43.84-1237.09c0,0-13.2,16.05-28.98,0.27"/>
<circle id="Elipse_17_1_" class="st8" cx="151.63" cy="-1821.55" r="51.74"/>
<circle id="Elipse_27_1_" class="st10" cx="805.47" cy="-1811.6" r="51.74"/>
<circle id="Elipse_34_1_" class="st11" cx="806.47" cy="-1251.29" r="51.74"/>
<circle id="Elipse_17" class="st12" cx="1450.68" cy="-1540.18" r="51.74"/>
<g id="Grupo_206_2_" transform="translate(-761.504 -930.93)">
	<circle id="Elipse_51_2_" class="st6" cx="1085.08" cy="505.27" r="32.38"/>
	<g id="Grupo_106_2_" transform="translate(778.662 948.619)">
		<line id="Línea_31_2_" class="st13" x1="321.64" y1="-443.35" x2="291.2" y2="-443.35"/>
		<path id="Trazado_101_2_" class="st13" d="M306.95-458.03l14.69,14.69l-14.69,14.69"/>
	</g>
</g>
<g id="Grupo_206_1_" transform="translate(-761.504 -930.93)">
	<circle id="Elipse_51_1_" class="st6" cx="849.08" cy="505.27" r="32.38"/>
	<g id="Grupo_106_1_" transform="translate(778.662 948.619)">
		<line id="Línea_31_1_" class="st13" x1="85.64" y1="-443.35" x2="55.2" y2="-443.35"/>
		<path id="Trazado_101_1_" class="st13" d="M69.89-428.66L55.2-443.35l14.69-14.69"/>
	</g>
</g>
<g id="Grupo_207_1_" transform="translate(-852.941 -931.283)">
	<path id="Rectángulo_65_1_" class="st6" d="M929.05,1045.29h150.94c17.67,0,32,14.33,32,32v0.05c0,17.67-14.33,32-32,32H929.05
		c-17.67,0-32-14.33-32-32v-0.05C897.05,1059.61,911.38,1045.29,929.05,1045.29z"/>
	<text transform="matrix(1 0 0 1 938.7275 1082.6483)" class="st2 st14 st15">Ver en Netflix</text>
</g>
<g id="Grupo_208" transform="translate(-1091.976 -930.93)">
	<circle id="Elipse_52" class="st6" cx="1171.55" cy="751.96" r="32.38"/>
	<g id="Grupo_108" transform="translate(1109.666 948.088)">
		<path id="Trazado_102" class="st13" d="M51.46-200.69v19.78h20.86v-19.78"/>
		<path id="Trazado_103" class="st13" d="M47.2-196.66l14.69-14.69l14.69,14.69"/>
	</g>
</g>
<g id="Grupo_209" transform="translate(-854.092 -931.284)">
	<path id="Rectángulo_109" class="st6" d="M1341.2,1045.29h150.94c17.67,0,32,14.33,32,32v0.05c0,17.67-14.33,32-32,32H1341.2
		c-17.67,0-32-14.33-32-32v-0.05C1309.2,1059.61,1323.53,1045.29,1341.2,1045.29z"/>
	<text transform="matrix(1 0 0 1 1341.1074 1082.6483)" class="st2 st14 st15">Abrir en Spotify</text>
</g>
<g id="Grupo_187" transform="translate(-198 -430)">
	<circle id="Elipse_27" class="st10" cx="1025.09" cy="262.53" r="51.74"/>
	<circle id="Elipse_28" class="st3" cx="1003.35" cy="257.39" r="6.06"/>
	<circle id="Elipse_29" class="st3" cx="1045.78" cy="257.39" r="6.06"/>
	<path id="Trazado_54" class="st9" d="M1010.6,282.68c0,0,13.2-16.05,28.98-0.27"/>
	<line id="Línea_19" class="st9" x1="997.65" y1="246.52" x2="1009.04" y2="242.37"/>
	<line id="Línea_20" class="st9" x1="1040.09" y1="242.37" x2="1051.48" y2="246.52"/>
</g>
<circle id="Elipse_34" class="st10" cx="1082.06" cy="-167.47" r="51.74"/>
<path id="Trazado_186" class="st9" d="M1103.22-170.01c0,11.56-9.38,20.93-20.94,20.93c-11.56,0-20.92-9.37-20.93-20.93"/>
<line id="Línea_40" class="st9" x1="1082.29" y1="-148.97" x2="1082.29" y2="-130.31"/>
<line id="Línea_41" class="st9" x1="1069.53" y1="-130.31" x2="1095.52" y2="-130.31"/>
<path id="Rectángulo_112" class="st9" d="M1082.29-205.47L1082.29-205.47c7.05,0,12.76,5.71,12.76,12.76v22.07
	c0,7.05-5.71,12.76-12.76,12.76l0,0c-7.05,0-12.76-5.71-12.76-12.76v-22.07C1069.53-199.76,1075.24-205.47,1082.29-205.47z"/>
<line id="Línea_42" class="st9" x1="1069.53" y1="-190.86" x2="1076.35" y2="-190.86"/>
<line id="Línea_44" class="st9" x1="1069.53" y1="-181.89" x2="1076.35" y2="-181.89"/>
<line id="Línea_45" class="st9" x1="1069.53" y1="-172.91" x2="1076.35" y2="-172.91"/>
<line id="Línea_46" class="st9" x1="1088.22" y1="-190.86" x2="1095.05" y2="-190.86"/>
<line id="Línea_48" class="st9" x1="1088.22" y1="-181.89" x2="1095.05" y2="-181.89"/>
<line id="Línea_49" class="st9" x1="1088.22" y1="-172.91" x2="1095.05" y2="-172.91"/>
<circle id="Elipse_34_2_" class="st11" cx="1330.06" cy="-167.47" r="51.74"/>
<path id="Trazado_186_1_" class="st9" d="M1351.22-170.01c0,11.56-9.38,20.93-20.94,20.93c-11.56,0-20.92-9.37-20.93-20.93"/>
<line id="Línea_40_1_" class="st9" x1="1330.29" y1="-148.97" x2="1330.29" y2="-130.31"/>
<line id="Línea_41_1_" class="st9" x1="1317.53" y1="-130.31" x2="1343.52" y2="-130.31"/>
<path id="Rectángulo_112_1_" class="st9" d="M1330.29-205.47L1330.29-205.47c7.05,0,12.76,5.71,12.76,12.76v22.07
	c0,7.05-5.71,12.76-12.76,12.76l0,0c-7.05,0-12.76-5.71-12.76-12.76v-22.07C1317.53-199.76,1323.24-205.47,1330.29-205.47z"/>
<line id="Línea_42_1_" class="st9" x1="1317.53" y1="-190.86" x2="1324.35" y2="-190.86"/>
<line id="Línea_44_1_" class="st9" x1="1317.53" y1="-181.89" x2="1324.35" y2="-181.89"/>
<line id="Línea_45_1_" class="st9" x1="1317.53" y1="-172.91" x2="1324.35" y2="-172.91"/>
<line id="Línea_46_1_" class="st9" x1="1336.22" y1="-190.86" x2="1343.05" y2="-190.86"/>
<line id="Línea_48_1_" class="st9" x1="1336.22" y1="-181.89" x2="1343.05" y2="-181.89"/>
<line id="Línea_49_1_" class="st9" x1="1336.22" y1="-172.91" x2="1343.05" y2="-172.91"/>
<circle id="Elipse_27-2" class="st8" cx="827.1" cy="-166.47" r="51.74"/>
<circle id="Elipse_28-2" class="st3" cx="805.35" cy="-171.61" r="6.06"/>
<circle id="Elipse_29-2" class="st3" cx="847.78" cy="-171.61" r="6.06"/>
<path id="Trazado_54-2" class="st9" d="M812.6-146.32c0,0,13.2-16.05,28.98-0.27"/>
<line id="Línea_19-2" class="st9" x1="799.65" y1="-182.48" x2="811.05" y2="-186.63"/>
<line id="Línea_20-2" class="st9" x1="842.09" y1="-186.63" x2="853.48" y2="-182.48"/>
<circle id="Elipse_27-2_2_" class="st10" cx="1082.1" cy="-425.47" r="51.74"/>
<circle id="Elipse_22_3_" class="st3" cx="1061.15" cy="-428.87" r="6.06"/>
<path id="Trazado_50_3_" class="st9" d="M1055.09-441.81c0-3.35,2.71-6.06,6.06-6.06s6.06,2.71,6.06,6.06"/>
<path id="Trazado_51_3_" class="st9" d="M1097.52-441.81c0.04-3.35,2.79-6.03,6.14-5.99c3.29,0.04,5.94,2.7,5.99,5.99"/>
<circle id="Elipse_23_3_" class="st3" cx="1103.58" cy="-428.87" r="6.06"/>
<path id="Trazado_52_3_" class="st9" d="M1097.38-410.79c0,0-13.2,16.05-28.98,0.27"/>
<circle id="Elipse_33" class="st10" cx="1332.89" cy="-422.55" r="51.74"/>
<g id="Grupo_173" transform="translate(-524.864 -221.357)">
	<path id="Trazado_187" class="st16" d="M1844.85-219.11"/>
	<path id="Trazado_188" class="st9" d="M1881.24-223.11c0-2.39-1.68-4.45-4.02-4.93c-0.21-2.61-2.39-4.63-5.01-4.63
		c-0.25,0-0.5,0.02-0.75,0.06c-4.39-1.12-8.55-3.02-12.29-5.59c-2.41,0-4.47,1.7-4.94,4.07c-2.53,2.46-6.42,2.86-9.39,0.96
		c-2.78,0-5.03,2.25-5.03,5.03v0c0,0.02,0,0.03,0,0.05c-0.23-0.03-0.45-0.05-0.68-0.05c-2.78,0-5.03,2.25-5.03,5.03v0"/>
	<g id="Grupo_172">
		<path id="Trazado_189" class="st9" d="M1876.53-164.66h-37.32l-4.06-43.44h45.34L1876.53-164.66z"/>
		<circle id="Elipse_68" class="st9" cx="1857.69" cy="-186.38" r="10.36"/>
		<line id="Línea_50" class="st9" x1="1849.11" y1="-208.1" x2="1849.6" y2="-192.85"/>
		<line id="Línea_51" class="st9" x1="1866.23" y1="-208.1" x2="1865.72" y2="-192.92"/>
		<line id="Línea_52" class="st9" x1="1850.02" y1="-179.41" x2="1850.49" y2="-164.66"/>
		<line id="Línea_53" class="st9" x1="1865.27" y1="-179.41" x2="1864.77" y2="-164.66"/>
		<rect id="Rectángulo_113" x="1832.97" y="-216.45" class="st9" width="49.65" height="8.36"/>
	</g>
	<path id="Trazado_190" class="st9" d="M1846.58-223.39c0.8-2.02,3.1-3.01,5.12-2.21"/>
	<path id="Trazado_191" class="st9" d="M1864.19-226.64c2.05-0.73,4.31,0.35,5.03,2.4"/>
</g>
<g id="Grupo_187_1_" transform="translate(-198 -430)">
	<circle id="Elipse_27_2_" class="st10" cx="522.09" cy="262.53" r="51.74"/>
	<circle id="Elipse_28_1_" class="st3" cx="500.35" cy="257.39" r="6.06"/>
	<circle id="Elipse_29_1_" class="st3" cx="542.78" cy="257.39" r="6.06"/>
	<path id="Trazado_54_1_" class="st9" d="M507.6,282.68c0,0,13.2-16.05,28.98-0.27"/>
	<line id="Línea_19_1_" class="st9" x1="494.65" y1="246.52" x2="506.04" y2="242.37"/>
	<line id="Línea_20_1_" class="st9" x1="537.09" y1="242.37" x2="548.48" y2="246.52"/>
</g>
<circle id="Elipse_27-2_3_" class="st17" cx="324.1" cy="-166.47" r="51.74"/>
<circle id="Elipse_28-2_1_" class="st3" cx="302.35" cy="-171.61" r="6.06"/>
<circle id="Elipse_29-2_1_" class="st3" cx="344.78" cy="-171.61" r="6.06"/>
<path id="Trazado_54-2_1_" class="st9" d="M309.6-146.32c0,0,13.2-16.05,28.98-0.27"/>
<line id="Línea_19-2_1_" class="st9" x1="296.65" y1="-182.48" x2="308.05" y2="-186.63"/>
<line id="Línea_20-2_1_" class="st9" x1="339.09" y1="-186.63" x2="350.48" y2="-182.48"/>
<circle id="Elipse_27-2_1_" class="st17" cx="579.1" cy="-425.47" r="51.74"/>
<circle id="Elipse_22_1_" class="st3" cx="558.15" cy="-428.87" r="6.06"/>
<path id="Trazado_50_1_" class="st9" d="M552.09-441.81c0-3.35,2.71-6.06,6.06-6.06s6.06,2.71,6.06,6.06"/>
<path id="Trazado_51_1_" class="st9" d="M594.52-441.81c0.04-3.35,2.79-6.03,6.14-5.99c3.29,0.04,5.94,2.7,5.99,5.99"/>
<circle id="Elipse_23_1_" class="st3" cx="600.58" cy="-428.87" r="6.06"/>
<path id="Trazado_52_1_" class="st9" d="M594.38-410.79c0,0-13.2,16.05-28.98,0.27"/>
<circle id="Elipse_33_1_" class="st11" cx="1576.89" cy="-422.55" r="51.74"/>
<g id="Grupo_173_1_" transform="translate(-524.864 -221.357)">
	<path id="Trazado_187_1_" class="st16" d="M2088.85-219.11"/>
	<path id="Trazado_188_1_" class="st9" d="M2125.24-223.11c0-2.39-1.68-4.45-4.02-4.93c-0.21-2.61-2.39-4.63-5.01-4.63
		c-0.25,0-0.5,0.02-0.75,0.06c-4.39-1.12-8.55-3.02-12.29-5.59c-2.41,0-4.47,1.7-4.94,4.07c-2.53,2.46-6.42,2.86-9.39,0.96
		c-2.78,0-5.03,2.25-5.03,5.03v0c0,0.02,0,0.03,0,0.05c-0.23-0.03-0.45-0.05-0.68-0.05c-2.78,0-5.03,2.25-5.03,5.03v0"/>
	<g id="Grupo_172_1_">
		<path id="Trazado_189_1_" class="st9" d="M2120.53-164.66h-37.32l-4.06-43.44h45.34L2120.53-164.66z"/>
		<circle id="Elipse_68_1_" class="st9" cx="2101.69" cy="-186.38" r="10.36"/>
		<line id="Línea_50_1_" class="st9" x1="2093.11" y1="-208.1" x2="2093.6" y2="-192.85"/>
		<line id="Línea_51_1_" class="st9" x1="2110.23" y1="-208.1" x2="2109.72" y2="-192.92"/>
		<line id="Línea_52_1_" class="st9" x1="2094.02" y1="-179.41" x2="2094.49" y2="-164.66"/>
		<line id="Línea_53_1_" class="st9" x1="2109.27" y1="-179.41" x2="2108.77" y2="-164.66"/>
		<rect id="Rectángulo_113_1_" x="2076.97" y="-216.45" class="st9" width="49.65" height="8.36"/>
	</g>
	<path id="Trazado_190_1_" class="st9" d="M2090.58-223.39c0.8-2.02,3.1-3.01,5.12-2.21"/>
	<path id="Trazado_191_1_" class="st9" d="M2108.19-226.64c2.05-0.73,4.31,0.35,5.03,2.4"/>
</g>
<g id="Grupo_188_2_" transform="translate(152 -432)">
	<circle id="Elipse_34_3_" class="st17" cx="427.06" cy="264.53" r="51.74"/>
	<g id="Grupo_174_2_" transform="translate(2.001)">
		<path id="Trazado_186_3_" class="st18" d="M446.22,261.99c0,11.56-9.38,20.93-20.94,20.93c-11.56,0-20.92-9.37-20.93-20.93"/>
		<line id="Línea_40_3_" class="st9" x1="425.29" y1="283.03" x2="425.29" y2="301.69"/>
		<line id="Línea_41_3_" class="st9" x1="412.53" y1="301.69" x2="438.52" y2="301.69"/>
		<path id="Rectángulo_112_3_" class="st18" d="M425.29,226.53L425.29,226.53c7.05,0,12.76,5.71,12.76,12.76v22.07
			c0,7.05-5.71,12.76-12.76,12.76l0,0c-7.05,0-12.76-5.71-12.76-12.76v-22.07C412.53,232.24,418.24,226.53,425.29,226.53z"/>
		<line id="Línea_42_3_" class="st9" x1="412.53" y1="241.14" x2="419.35" y2="241.14"/>
		<line id="Línea_44_3_" class="st9" x1="412.53" y1="250.11" x2="419.35" y2="250.11"/>
		<line id="Línea_45_3_" class="st9" x1="412.53" y1="259.09" x2="419.35" y2="259.09"/>
		<line id="Línea_46_3_" class="st9" x1="431.22" y1="241.14" x2="438.04" y2="241.14"/>
		<line id="Línea_48_3_" class="st9" x1="431.22" y1="250.11" x2="438.04" y2="250.11"/>
		<line id="Línea_49_3_" class="st9" x1="431.22" y1="259.09" x2="438.04" y2="259.09"/>
	</g>
</g>
<circle id="Elipse_33_2_" class="st17" cx="829.89" cy="-422.55" r="51.74"/>
<g id="Grupo_173_3_" transform="translate(-524.864 -221.357)">
	<path id="Trazado_187_3_" class="st16" d="M1341.85-219.11"/>
	<path id="Trazado_188_3_" class="st9" d="M1378.24-223.11c0-2.39-1.68-4.45-4.02-4.93c-0.21-2.61-2.39-4.63-5.01-4.63
		c-0.25,0-0.5,0.02-0.75,0.06c-4.39-1.12-8.55-3.02-12.29-5.59c-2.41,0-4.47,1.7-4.94,4.07c-2.53,2.46-6.42,2.86-9.39,0.96
		c-2.78,0-5.03,2.25-5.03,5.03v0c0,0.02,0,0.03,0,0.05c-0.23-0.03-0.45-0.05-0.68-0.05c-2.78,0-5.03,2.25-5.03,5.03v0"/>
	<g id="Grupo_172_3_">
		<path id="Trazado_189_3_" class="st9" d="M1373.53-164.66h-37.32l-4.06-43.44h45.34L1373.53-164.66z"/>
		<circle id="Elipse_68_3_" class="st9" cx="1354.69" cy="-186.38" r="10.36"/>
		<line id="Línea_50_3_" class="st9" x1="1346.11" y1="-208.1" x2="1346.6" y2="-192.85"/>
		<line id="Línea_51_3_" class="st9" x1="1363.23" y1="-208.1" x2="1362.72" y2="-192.92"/>
		<line id="Línea_52_3_" class="st9" x1="1347.02" y1="-179.41" x2="1347.49" y2="-164.66"/>
		<line id="Línea_53_3_" class="st9" x1="1362.27" y1="-179.41" x2="1361.77" y2="-164.66"/>
		<rect id="Rectángulo_113_3_" x="1329.97" y="-216.45" class="st9" width="49.65" height="8.36"/>
	</g>
	<path id="Trazado_190_3_" class="st9" d="M1343.58-223.39c0.8-2.02,3.1-3.01,5.12-2.21"/>
	<path id="Trazado_191_3_" class="st9" d="M1361.19-226.64c2.05-0.73,4.31,0.35,5.03,2.4"/>
</g>
<path id="Rectángulo_37_1_" class="st12" d="M95.8,899.71h129.04c37.5,0,67.9,30.4,67.9,67.9l0,0c0,37.5-30.4,67.9-67.9,67.9H95.8
	c-37.5,0-67.9-30.4-67.9-67.9l0,0C27.9,930.11,58.3,899.71,95.8,899.71z"/>
<g id="Grupo_174_1_" transform="translate(-820.998 -467.103)">
	<path id="Trazado_186_4_" class="st9" d="M940.77,1432.17c0,11.56-9.38,20.93-20.94,20.93c-11.56,0-20.92-9.37-20.93-20.93"/>
	<line id="Línea_40_4_" class="st9" x1="919.84" y1="1453.21" x2="919.84" y2="1471.88"/>
	<line id="Línea_41_4_" class="st9" x1="907.08" y1="1471.88" x2="933.07" y2="1471.88"/>
	<path id="Rectángulo_112_4_" class="st9" d="M919.84,1396.71L919.84,1396.71c7.05,0,12.76,5.71,12.76,12.76v22.07
		c0,7.05-5.71,12.76-12.76,12.76l0,0c-7.05,0-12.76-5.71-12.76-12.76v-22.07C907.08,1402.42,912.79,1396.71,919.84,1396.71z"/>
	<line id="Línea_42_4_" class="st9" x1="907.08" y1="1411.32" x2="913.9" y2="1411.32"/>
	<line id="Línea_44_4_" class="st9" x1="907.08" y1="1420.29" x2="913.9" y2="1420.29"/>
	<line id="Línea_45_4_" class="st9" x1="907.08" y1="1429.27" x2="913.9" y2="1429.27"/>
	<line id="Línea_46_4_" class="st9" x1="925.77" y1="1411.32" x2="932.59" y2="1411.32"/>
	<line id="Línea_48_4_" class="st9" x1="925.77" y1="1420.29" x2="932.59" y2="1420.29"/>
	<line id="Línea_49_4_" class="st9" x1="925.77" y1="1429.27" x2="932.59" y2="1429.27"/>
</g>
<g id="Grupo_173_4_" transform="translate(-535.864 214.643)">
	<path id="Trazado_187_4_" class="st16" d="M744.64,735.05"/>
	<path id="Trazado_188_4_" class="st9" d="M781.04,731.05c0-2.39-1.68-4.45-4.02-4.93c-0.21-2.61-2.39-4.63-5.01-4.63
		c-0.25,0-0.5,0.02-0.75,0.06c-4.39-1.12-8.55-3.02-12.29-5.59c-2.41,0-4.47,1.7-4.94,4.07c-2.53,2.46-6.42,2.86-9.39,0.96
		c-2.78,0-5.03,2.25-5.03,5.03l0,0c0,0.02,0,0.03,0,0.05c-0.23-0.03-0.45-0.05-0.68-0.05c-2.78,0-5.03,2.25-5.03,5.03v0"/>
	<g id="Grupo_172_4_">
		<path id="Trazado_189_4_" class="st9" d="M776.33,789.5h-37.32l-4.06-43.44h45.34L776.33,789.5z"/>
		<circle id="Elipse_68_4_" class="st9" cx="757.48" cy="767.78" r="10.36"/>
		<line id="Línea_50_4_" class="st9" x1="748.91" y1="746.06" x2="749.39" y2="761.31"/>
		<line id="Línea_51_4_" class="st9" x1="766.03" y1="746.06" x2="765.52" y2="761.24"/>
		<line id="Línea_52_4_" class="st9" x1="749.82" y1="774.75" x2="750.29" y2="789.5"/>
		<line id="Línea_53_4_" class="st9" x1="765.06" y1="774.75" x2="764.57" y2="789.5"/>
		<rect id="Rectángulo_113_4_" x="732.77" y="737.7" class="st9" width="49.65" height="8.36"/>
	</g>
	<path id="Trazado_190_4_" class="st9" d="M746.38,730.77c0.8-2.02,3.1-3.01,5.12-2.21"/>
	<path id="Trazado_191_4_" class="st9" d="M763.99,727.52c2.05-0.73,4.31,0.35,5.03,2.4"/>
</g>
<circle id="Elipse_53_1_" class="st2" cx="-51.84" cy="1349.97" r="25.74"/>
<path id="Rectángulo_73_1_" class="st6" d="M-51.84,1339.25L-51.84,1339.25c0.97,0,1.76,0.79,1.76,1.76v17.92
	c0,0.97-0.79,1.76-1.76,1.76l0,0c-0.97,0-1.76-0.79-1.76-1.76v-17.92C-53.6,1340.04-52.81,1339.25-51.84,1339.25z"/>
<path id="Rectángulo_74_1_" class="st6" d="M-41.12,1349.97L-41.12,1349.97c0,0.97-0.79,1.76-1.76,1.76H-60.8
	c-0.97,0-1.76-0.79-1.76-1.76l0,0c0-0.97,0.79-1.76,1.76-1.76h17.92C-41.91,1348.21-41.12,1349-41.12,1349.97z"/>
<circle id="Elipse_60" class="st6" cx="153.16" cy="1347.82" r="25.74"/>
<path id="Rectángulo_97" class="st2" d="M153.16,1337.1L153.16,1337.1c0.97,0,1.76,0.79,1.76,1.76v17.92
	c0,0.97-0.79,1.76-1.76,1.76l0,0c-0.97,0-1.76-0.79-1.76-1.76v-17.92C151.4,1337.88,152.19,1337.1,153.16,1337.1z"/>
<path id="Rectángulo_98" class="st2" d="M163.88,1347.82L163.88,1347.82c0,0.97-0.79,1.76-1.76,1.76H144.2
	c-0.97,0-1.76-0.79-1.76-1.76l0,0c0-0.97,0.79-1.76,1.76-1.76h17.92C163.09,1346.06,163.88,1346.84,163.88,1347.82z"/>
<path id="Trazado_124_1_" class="st2" d="M22.51,2413.89c19.59,0,35.47-15.88,35.47-35.47c0.06-56.26,45.66-101.86,101.92-101.92
	c56.26,0.06,101.86,45.66,101.92,101.92c0,19.59,15.88,35.47,35.47,35.47c19.59,0,35.47-15.88,35.47-35.47
	c0.13-45.87-18.11-89.88-50.63-122.23c-32.35-32.52-76.36-50.76-122.23-50.63c-45.87-0.13-89.88,18.11-122.23,50.63
	c-32.52,32.35-50.75,76.36-50.63,122.23C-12.96,2398.01,2.92,2413.89,22.51,2413.89C22.5,2413.89,22.5,2413.89,22.51,2413.89z"/>
<g>
	<g id="Grupo_132_1_" transform="translate(47.033 54.45)">
		<path id="Trazado_125_1_" class="st6" d="M109.27,2882.43c6.61-0.02,12.93,2.74,17.41,7.6h9.59c-5.69-9.47-15.95-15.24-27-15.19
			c-11.05-0.05-21.31,5.72-27,15.19h9.59C96.35,2885.17,102.66,2882.41,109.27,2882.43z"/>
	</g>
	<path id="Trazado_126_1_" class="st6" d="M82.26,2921.42l5.07-30.1h7.68l5.98,16.05l5.94-16.05h7.69l5.07,30.1h-7.72l-2.57-17.33
		l-7.05,17.33h-3.09l-6.69-17.33l-2.57,17.33H82.26z"/>
	<path id="Trazado_127_1_" class="st6" d="M121.37,2905.65c-0.02-2.13,0.4-4.24,1.23-6.2c0.79-1.88,1.95-3.58,3.41-5.01
		c1.49-1.45,3.27-2.59,5.21-3.35c2.13-0.82,4.39-1.24,6.67-1.21c2.28-0.02,4.53,0.39,6.66,1.21c1.95,0.75,3.74,1.89,5.25,3.35
		c1.46,1.43,2.63,3.13,3.43,5.01c0.83,1.96,1.25,4.07,1.23,6.2c0.02,2.13-0.4,4.24-1.23,6.2c-0.8,1.88-1.96,3.59-3.43,5.01
		c-1.51,1.45-3.29,2.59-5.25,3.35c-2.12,0.82-4.38,1.23-6.66,1.21c-2.28,0.03-4.55-0.38-6.67-1.21c-1.94-0.76-3.71-1.89-5.21-3.35
		c-1.46-1.43-2.61-3.13-3.41-5.01C121.77,2909.89,121.35,2907.78,121.37,2905.65z M129.49,2905.65c-0.01,1.13,0.22,2.25,0.68,3.29
		c0.43,0.98,1.05,1.87,1.82,2.62c0.77,0.74,1.68,1.33,2.67,1.72c1.03,0.41,2.12,0.62,3.23,0.61c1.11,0.01,2.2-0.2,3.23-0.61
		c1-0.4,1.91-0.98,2.69-1.72c0.78-0.74,1.41-1.63,1.84-2.62c0.46-1.04,0.68-2.16,0.67-3.29c0.01-1.13-0.22-2.25-0.67-3.29
		c-0.44-0.98-1.06-1.87-1.84-2.61c-0.78-0.74-1.7-1.32-2.69-1.72c-1.03-0.41-2.12-0.62-3.23-0.61c-1.11-0.01-2.2,0.2-3.23,0.61
		c-0.99,0.39-1.9,0.98-2.67,1.72c-0.77,0.75-1.39,1.63-1.82,2.61C129.71,2903.4,129.48,2904.52,129.49,2905.65z"/>
	<path id="Trazado_128_1_" class="st6" d="M158.36,2905.65c-0.02-2.13,0.4-4.24,1.23-6.2c0.79-1.88,1.95-3.58,3.41-5.01
		c1.49-1.45,3.27-2.59,5.21-3.35c2.13-0.83,4.39-1.24,6.68-1.21c2.27-0.02,4.53,0.39,6.65,1.21c1.96,0.75,3.74,1.89,5.25,3.35
		c1.46,1.42,2.63,3.13,3.43,5.01c0.83,1.96,1.24,4.07,1.23,6.2c0.02,2.13-0.4,4.24-1.23,6.2c-0.8,1.88-1.96,3.59-3.43,5.01
		c-1.51,1.46-3.29,2.59-5.25,3.35c-2.12,0.82-4.38,1.23-6.65,1.21c-2.28,0.03-4.55-0.38-6.68-1.21c-1.94-0.76-3.71-1.89-5.21-3.35
		c-1.46-1.43-2.61-3.13-3.41-5.01C158.76,2909.89,158.34,2907.78,158.36,2905.65z M166.48,2905.65c-0.01,1.13,0.22,2.25,0.67,3.29
		c0.43,0.98,1.05,1.87,1.82,2.62c0.77,0.74,1.68,1.33,2.67,1.72c1.03,0.41,2.12,0.62,3.23,0.61c1.11,0.01,2.2-0.2,3.23-0.61
		c1-0.4,1.91-0.98,2.69-1.72c0.78-0.74,1.41-1.63,1.84-2.62c0.46-1.03,0.69-2.16,0.68-3.29c0.01-1.13-0.22-2.25-0.68-3.29
		c-0.44-0.98-1.06-1.87-1.84-2.61c-0.78-0.74-1.69-1.32-2.69-1.72c-1.03-0.41-2.12-0.62-3.23-0.61c-1.11-0.01-2.2,0.2-3.23,0.61
		c-0.99,0.4-1.9,0.98-2.67,1.72c-0.77,0.75-1.39,1.63-1.82,2.61C166.69,2903.4,166.46,2904.52,166.48,2905.65L166.48,2905.65z"/>
	<path id="Trazado_129_1_" class="st6" d="M195.34,2891.31h11.49c1.98-0.01,3.93,0.41,5.72,1.24c1.75,0.8,3.33,1.92,4.67,3.29
		c1.34,1.38,2.41,3.01,3.15,4.79c0.76,1.81,1.15,3.76,1.15,5.73c0,1.95-0.38,3.89-1.13,5.69c-0.73,1.79-1.79,3.42-3.13,4.81
		c-1.34,1.39-2.92,2.51-4.67,3.31c-1.81,0.83-3.77,1.25-5.76,1.24h-11.49L195.34,2891.31z M203.1,2914.79h1.78
		c1.23,0.02,2.45-0.2,3.6-0.64c1.01-0.39,1.92-0.99,2.68-1.76c0.73-0.76,1.3-1.66,1.66-2.65c0.39-1.08,0.59-2.22,0.57-3.37
		c0.01-1.15-0.19-2.28-0.59-3.35c-0.37-1-0.94-1.91-1.68-2.68c-0.76-0.77-1.67-1.36-2.67-1.76c-1.14-0.44-2.35-0.66-3.56-0.64h-1.78
		L203.1,2914.79z"/>
	<rect id="Rectángulo_83_1_" x="129.33" y="2874.84" class="st6" width="22.47" height="7.53"/>
	<rect id="Rectángulo_84_1_" x="160.99" y="2874.84" class="st6" width="22.47" height="7.53"/>
</g>
<g>
	<g id="Grupo_98" transform="translate(47.035 54.451)">
		<path id="Trazado_90" class="st6" d="M714.08,2586.2c-6.61,0.02-12.93-2.73-17.41-7.59h-9.59c9.06,14.91,28.5,19.66,43.42,10.59
			c4.33-2.63,7.96-6.26,10.59-10.59h-9.59C727.01,2583.47,720.69,2586.22,714.08,2586.2z"/>
	</g>
	<path id="Trazado_91" class="st6" d="M687.08,2625.18l5.07-30.1h7.69l5.98,16.05l5.94-16.05h7.69l5.07,30.1h-7.73l-2.58-17.33
		l-7.05,17.33h-3.09l-6.69-17.33l-2.58,17.33L687.08,2625.18z"/>
	<path id="Trazado_92" class="st6" d="M726.18,2609.42c-0.08-6.43,3.84-12.24,9.84-14.56c4.3-1.61,9.03-1.61,13.33,0
		c1.95,0.76,3.74,1.89,5.25,3.35c1.46,1.43,2.63,3.13,3.42,5.01c1.64,3.97,1.64,8.43,0,12.4c-0.8,1.88-1.96,3.58-3.42,5.01
		c-1.51,1.45-3.29,2.59-5.25,3.35c-4.3,1.61-9.03,1.61-13.33,0C730.03,2621.65,726.11,2615.85,726.18,2609.42L726.18,2609.42z
		 M734.3,2609.42c-0.01,1.13,0.22,2.25,0.67,3.29c0.87,1.98,2.49,3.54,4.5,4.34c3.13,1.26,6.7,0.59,9.15-1.72
		c0.78-0.74,1.41-1.63,1.84-2.61c0.9-2.1,0.9-4.48,0-6.57c-0.44-0.98-1.06-1.87-1.84-2.62c-0.78-0.74-1.7-1.32-2.7-1.72
		c-2.07-0.82-4.38-0.82-6.45,0c-0.99,0.39-1.9,0.98-2.67,1.72c-0.77,0.75-1.39,1.63-1.82,2.62
		C734.52,2607.17,734.29,2608.29,734.3,2609.42z"/>
	<path id="Trazado_93" class="st6" d="M763.16,2609.42c-0.08-6.43,3.84-12.24,9.84-14.56c4.3-1.61,9.03-1.61,13.33,0
		c1.95,0.76,3.74,1.89,5.25,3.35c1.46,1.42,2.63,3.13,3.43,5.01c1.64,3.97,1.64,8.43,0,12.4c-0.8,1.88-1.96,3.59-3.43,5.01
		c-1.51,1.45-3.29,2.59-5.25,3.35c-4.3,1.61-9.03,1.61-13.33,0C767.01,2621.65,763.09,2615.85,763.16,2609.42L763.16,2609.42z
		 M771.28,2609.42c-0.01,1.13,0.22,2.25,0.67,3.29c0.87,1.98,2.49,3.54,4.5,4.34c2.07,0.82,4.38,0.82,6.46,0
		c1-0.4,1.91-0.98,2.69-1.72c0.78-0.74,1.41-1.63,1.84-2.61c0.9-2.1,0.9-4.48,0-6.57c-0.44-0.98-1.06-1.87-1.84-2.62
		c-0.78-0.74-1.69-1.32-2.69-1.72c-2.07-0.82-4.38-0.82-6.46,0c-0.99,0.39-1.9,0.98-2.67,1.72c-0.77,0.75-1.39,1.63-1.82,2.62
		C771.5,2607.17,771.27,2608.29,771.28,2609.42z"/>
	<path id="Trazado_94" class="st6" d="M800.15,2595.08h11.49c1.98-0.01,3.93,0.41,5.72,1.24c1.75,0.8,3.33,1.92,4.67,3.29
		c1.34,1.38,2.41,3.01,3.15,4.79c1.53,3.65,1.53,7.76,0.02,11.42c-0.73,1.79-1.79,3.42-3.13,4.81c-1.34,1.39-2.92,2.51-4.67,3.31
		c-1.81,0.83-3.77,1.25-5.76,1.24h-11.49V2595.08z M807.91,2618.56h1.78c1.23,0.02,2.45-0.2,3.6-0.64c1-0.39,1.91-0.99,2.67-1.76
		c0.73-0.76,1.3-1.66,1.66-2.66c0.39-1.08,0.59-2.22,0.58-3.37c0.01-1.14-0.19-2.28-0.59-3.35c-0.74-2.04-2.33-3.66-4.36-4.43
		c-1.14-0.44-2.35-0.66-3.56-0.64h-1.78L807.91,2618.56z"/>
	<rect id="Rectángulo_56" x="734.14" y="2578.6" class="st6" width="22.47" height="7.53"/>
	<rect id="Rectángulo_57" x="765.8" y="2578.6" class="st6" width="22.47" height="7.53"/>
</g>
</svg>
