<?xml version="1.0" encoding="utf-8"?>
<!-- Generator: Adobe Illustrator 24.0.0, SVG Export Plug-In . SVG Version: 6.00 Build 0)  -->
<svg version="1.1" id="Capa_1" xmlns="http://www.w3.org/2000/svg" xmlns:xlink="http://www.w3.org/1999/xlink" x="0px" y="0px"
	 viewBox="0 0 118.6 121.4" style="enable-background:new 0 0 118.6 121.4;" xml:space="preserve">
<style type="text/css">
	.st0{fill:#F5B15A;}
	.st1{fill:#EAE3DA;}
	.st2{fill:#E4D7CE;}
	.st3{fill:#002E61;}
	.st4{fill:#E45451;}
	.st5{fill:#E4D8CE;}
	.st6{fill:#1E244D;}
	.st7{fill:#F99A3D;}
	.st8{fill:none;stroke:#002E61;stroke-width:10;stroke-miterlimit:10;}
	.st9{fill:none;stroke:#002E61;stroke-width:5;stroke-linecap:round;stroke-linejoin:round;}
	.st10{fill:#E45451;stroke:#002E61;stroke-width:10;stroke-miterlimit:10;}
	.st11{fill:#F5B15A;stroke:#002E61;stroke-width:10;stroke-miterlimit:10;}
	.st12{fill:#E4D7CE;stroke:#002E61;stroke-width:10;stroke-miterlimit:10;}
	.st13{fill:none;stroke:#E4D7CE;stroke-width:5;stroke-linecap:round;stroke-linejoin:round;}
	.st14{fill:none;stroke:#002E61;stroke-width:2.37;stroke-linecap:round;stroke-linejoin:round;}
	.st15{fill:#E4D8CE;stroke:#002E61;stroke-width:10;stroke-miterlimit:10;}
	.st16{fill:#E4D8CE;stroke:#002E61;stroke-width:5;stroke-linecap:round;stroke-linejoin:round;}
</style>
<rect id="Rectángulo_36_1_" x="-2883.5" y="-1587.8" class="st0" width="1919.8" height="1080"/>
<g id="Grupo_201_1_" transform="translate(0 -7.083)">
	<g id="Grupo_10_1_" transform="translate(150 84.083)">
		<path id="Trazado_8_1_" class="st1" d="M-2881.3-758.2c2.9-7,8.6-12.5,15.7-15.2c7.8-2.9,16.4-2.9,24.2,0c3.6,1.4,6.8,3.4,9.5,6.1
			c2.7,2.6,4.8,5.7,6.2,9.1c3,7.2,3,15.3,0,22.5c-1.4,3.4-3.6,6.5-6.2,9.1c-2.7,2.6-6,4.7-9.5,6.1c-7.8,2.9-16.4,2.9-24.2,0
			c-14.7-6-21.8-22.8-15.8-37.5C-2881.4-758-2881.3-758.1-2881.3-758.2L-2881.3-758.2z M-2867.5-740.9c1.6,3.6,4.5,6.4,8.2,7.9
			c5.7,2.3,12.2,1.1,16.6-3.1c1.4-1.3,2.6-3,3.4-4.8c1.6-3.8,1.6-8.1,0-12c-0.8-1.8-1.9-3.4-3.4-4.8c-1.4-1.3-3.1-2.4-4.9-3.1
			c-3.8-1.5-8-1.5-11.7,0c-1.8,0.7-3.5,1.8-4.9,3.1c-1.4,1.4-2.5,3-3.3,4.8C-2869.2-749.1-2869.2-744.7-2867.5-740.9L-2867.5-740.9z
			"/>
		<rect id="Rectángulo_4_1_" x="-2860.3" y="-702.1" class="st1" width="13.7" height="40.8"/>
		<g id="Grupo_6_1_" transform="translate(7.948 405.244)">
			
				<rect id="Rectángulo_5_1_" x="-2838.6" y="-1496.5" transform="matrix(0.7071 -0.7071 0.7071 0.7071 227.8972 -2429.0759)" class="st1" width="40.8" height="13.7"/>
			<g id="Grupo_5_1_">
				<rect id="Rectángulo_6_1_" x="-2837.5" y="-1545.6" class="st1" width="98.2" height="13.7"/>
				<g id="Grupo_4_1_">
					<path id="Trazado_9_1_" class="st1" d="M-2869.7-1538.7c0-12-5-23.5-13.8-31.7v-17.4c27.1,16.5,35.7,51.8,19.3,78.9
						c-4.8,7.9-11.4,14.5-19.3,19.3v-17.4C-2874.7-1515.2-2869.7-1526.7-2869.7-1538.7z"/>
				</g>
			</g>
		</g>
		<g id="Grupo_9_1_" transform="translate(4.411)">
			<path id="Trazado_10_1_" class="st1" d="M-2845-1497.9c1.6,3.6,4.5,6.4,8.2,7.9c5.7,2.3,12.2,1.1,16.6-3.1c1.4-1.3,2.6-3,3.4-4.8
				c1.6-3.8,1.6-8.1,0-11.9c-0.8-1.8-1.9-3.4-3.4-4.8c-4.5-4.2-10.9-5.4-16.6-3.1c-1.8,0.7-3.5,1.8-4.9,3.1c-1.4,1.4-2.5,3-3.3,4.8
				C-2846.6-1506-2846.6-1501.7-2845-1497.9z"/>
			<g id="Grupo_7_1_" transform="translate(3.537 126.423)">
				<path id="Trazado_11_1_" class="st1" d="M-2834.4-1574c-12,0-23.5,5-31.6,13.8h-17.4c16.5-27.1,51.8-35.7,78.9-19.3
					c7.9,4.8,14.5,11.4,19.3,19.3h-17.4C-2810.9-1569-2822.4-1574-2834.4-1574z"/>
			</g>
			<g id="Grupo_8_1_">
				<path id="Trazado_12_1_" class="st1" d="M-2859.5-1587.8l-24,25.2l9.9,9.4l14.1-14.8l19.1,20l19.1-20l19.1,20l24-25.2l-9.9-9.4
					l-14.1,14.8l-19.1-20l-19.1,20L-2859.5-1587.8z"/>
			</g>
		</g>
	</g>
	<g id="Grupo_26_1_" transform="translate(1324 684.328)">
		
			<rect id="Rectángulo_5-2_1_" x="-2838.6" y="-1496.5" transform="matrix(0.7071 -0.7071 0.7071 0.7071 227.8972 -2429.0759)" class="st1" width="40.8" height="13.7"/>
		<g id="Grupo_5-2_1_" transform="translate(0 0)">
			<rect id="Rectángulo_6-2_1_" x="-2837.5" y="-1545.6" class="st1" width="98.2" height="13.7"/>
			<g id="Grupo_4-2_1_">
				<path id="Trazado_9-2_1_" class="st1" d="M-2869.7-1538.7c0-12-5-23.5-13.8-31.7v-17.4c17.2,10.3,27.7,29,27.6,49.1
					c0.1,20.1-10.4,38.7-27.6,49.1v-17.4C-2874.7-1515.2-2869.7-1526.7-2869.7-1538.7z"/>
			</g>
		</g>
	</g>
	<g id="Grupo_35_1_" transform="translate(0 186)">
		<path id="Trazado_8-2_1_" class="st1" d="M-2331.6-1406.8c-2.9,7-8.6,12.5-15.7,15.2c-7.8,2.9-16.4,2.9-24.2,0
			c-3.6-1.4-6.8-3.4-9.5-6.1c-2.7-2.6-4.8-5.7-6.2-9.1c-3-7.2-3-15.3,0-22.5c1.4-3.4,3.6-6.5,6.2-9.1c2.7-2.6,6-4.7,9.5-6.1
			c7.8-2.9,16.4-2.9,24.2,0c14.7,6,21.8,22.8,15.8,37.5C-2331.6-1407-2331.6-1406.9-2331.6-1406.8L-2331.6-1406.8z M-2345.4-1424.1
			c-1.6-3.6-4.5-6.4-8.2-7.9c-5.7-2.3-12.2-1.1-16.6,3.1c-1.4,1.3-2.6,3-3.4,4.8c-1.6,3.8-1.6,8.1,0,11.9c0.8,1.8,1.9,3.4,3.4,4.8
			c1.4,1.3,3.1,2.4,4.9,3.1c3.8,1.5,8,1.5,11.7,0c1.8-0.7,3.5-1.8,4.9-3.1c1.4-1.4,2.5-3,3.3-4.8
			C-2343.7-1415.9-2343.7-1420.3-2345.4-1424.1L-2345.4-1424.1z"/>
		<rect id="Rectángulo_4-2_1_" x="-2366.3" y="-1503.7" class="st1" width="13.7" height="40.8"/>
	</g>
	<g id="Grupo_6-2_1_" transform="translate(592.19 791.365) rotate(180)">
		
			<rect id="Rectángulo_5-3_1_" x="2928.4" y="1679.2" transform="matrix(0.7071 -0.7071 0.7071 0.7071 -328.5031 2578.9358)" class="st1" width="40.8" height="13.7"/>
		<g id="Grupo_5-3_1_">
			<rect id="Rectángulo_6-3_1_" x="2929.5" y="1630.1" class="st1" width="98.2" height="13.7"/>
			<g id="Grupo_4-3_1_">
				<path id="Trazado_9-3_1_" class="st1" d="M2897.3,1636.9c0-12-5-23.5-13.8-31.7v-17.4c27.1,16.5,35.7,51.8,19.3,78.9
					c-4.8,7.9-11.4,14.5-19.3,19.3v-17.4C2892.4,1660.4,2897.4,1648.9,2897.3,1636.9z"/>
			</g>
		</g>
	</g>
	<g id="Grupo_27_1_" transform="translate(1339.463 279.083)">
		<path id="Trazado_10-2_1_" class="st1" d="M-2845-1497.9c1.6,3.6,4.5,6.4,8.2,7.9c1.9,0.8,3.9,1.1,5.9,1.1c4,0,7.9-1.5,10.8-4.2
			c1.4-1.3,2.6-3,3.4-4.8c0.8-1.9,1.2-3.9,1.2-6c0-2.1-0.4-4.1-1.2-6c-0.8-1.8-1.9-3.4-3.4-4.8c-2.9-2.8-6.8-4.3-10.8-4.2
			c-2,0-4,0.4-5.9,1.1c-1.8,0.7-3.5,1.8-4.9,3.1c-1.4,1.4-2.5,3-3.3,4.8c-0.8,1.9-1.2,3.9-1.2,6
			C-2846.2-1501.8-2845.8-1499.8-2845-1497.9z"/>
		<g id="Grupo_7-2_1_" transform="translate(3.537 126.423)">
			<path id="Trazado_11-2_1_" class="st1" d="M-2834.4-1574c-12,0-23.5,5-31.6,13.8h-17.4c10.4-17.2,29-27.7,49.1-27.6
				c20.1-0.1,38.7,10.4,49.1,27.6h-17.4C-2810.9-1569-2822.4-1574-2834.4-1574z"/>
		</g>
		<g id="Grupo_8-2_1_">
			<path id="Trazado_12-2_1_" class="st1" d="M-2859.5-1587.8l-24,25.2l9.9,9.4l14.1-14.8l19.1,20l19.1-20l19.1,20l24-25.2l-9.9-9.4
				l-14.1,14.8l-19.1-20l-19.1,20L-2859.5-1587.8z"/>
		</g>
	</g>
	<g id="Grupo_25_1_" transform="translate(15.249)">
		<path id="Trazado_13_1_" class="st1" d="M-1131-1406.8c-2.9,7-8.6,12.5-15.7,15.2c-7.8,2.9-16.4,2.9-24.2,0
			c-3.6-1.4-6.8-3.4-9.5-6.1c-2.7-2.6-4.8-5.7-6.2-9.1c-3-7.2-3-15.3,0-22.5c1.4-3.4,3.6-6.5,6.2-9.1c2.7-2.6,6-4.7,9.5-6.1
			c7.8-2.9,16.4-2.9,24.2,0c14.7,6,21.8,22.8,15.8,37.5C-1130.9-1407-1131-1406.9-1131-1406.8L-1131-1406.8z M-1144.8-1424.1
			c-1.6-3.6-4.5-6.4-8.2-7.9c-3.8-1.5-8-1.5-11.7,0c-1.8,0.7-3.5,1.8-4.9,3.1c-1.4,1.3-2.6,3-3.3,4.8c-1.6,3.8-1.6,8.1,0,11.9
			c0.8,1.8,1.9,3.4,3.3,4.8c1.4,1.3,3.1,2.4,4.9,3.1c3.8,1.5,8,1.5,11.7,0c1.8-0.7,3.5-1.8,4.9-3.1c1.4-1.4,2.5-3,3.3-4.8
			C-1143.1-1415.9-1143.1-1420.3-1144.8-1424.1z"/>
		<rect id="Rectángulo_7_1_" x="-1165.7" y="-1503.7" class="st1" width="13.7" height="40.8"/>
		<g id="Grupo_13_1_" transform="translate(1602.612 487.904)">
			
				<rect id="Rectángulo_8_1_" x="-2825" y="-1575.4" transform="matrix(0.7071 -0.7071 0.7071 0.7071 287.6746 -2442.5632)" class="st1" width="40.8" height="13.7"/>
			<g id="Grupo_12_1_" transform="translate(0 19.278)">
				<rect id="Rectángulo_9_1_" x="-2883.5" y="-1545.6" class="st1" width="98.2" height="13.7"/>
				<g id="Grupo_11_1_" transform="translate(116.577)">
					<path id="Trazado_14_1_" class="st1" d="M-2869.7-1538.7c0,12,5,23.5,13.8,31.7v17.4c-27.1-16.5-35.7-51.8-19.3-78.9
						c4.8-7.9,11.4-14.5,19.3-19.3v17.4C-2864.8-1562.2-2869.8-1550.7-2869.7-1538.7z"/>
				</g>
			</g>
		</g>
		<g id="Grupo_16_1_" transform="translate(1645.084 856.573)">
			<path id="Trazado_15_1_" class="st1" d="M-2816.8-1523.7c-1.6-3.6-4.5-6.4-8.2-7.9c-5.7-2.3-12.2-1.1-16.6,3.1
				c-1.4,1.3-2.6,3-3.4,4.8c-1.6,3.8-1.6,8.1,0,11.9c0.8,1.8,1.9,3.4,3.4,4.8c1.4,1.3,3.1,2.4,4.9,3.1c3.8,1.5,8,1.5,11.7,0
				c1.8-0.7,3.5-1.8,4.9-3.1c1.4-1.4,2.5-3,3.3-4.8C-2815.2-1515.6-2815.2-1519.9-2816.8-1523.7L-2816.8-1523.7z"/>
			<g id="Grupo_14_1_" transform="translate(3.537)">
				<path id="Trazado_16_1_" class="st1" d="M-2834.4-1574c12,0,23.5-5,31.6-13.8h17.4c-16.5,27.1-51.8,35.7-78.9,19.3
					c-7.9-4.8-14.5-11.4-19.3-19.3h17.4C-2857.9-1579-2846.5-1574-2834.4-1574z"/>
			</g>
			<g id="Grupo_15_1_" transform="translate(0 114.188)">
				<path id="Trazado_17_1_" class="st1" d="M-2802.3-1548l24-25.2l-9.9-9.4l-14.1,14.8l-19.1-20l-19.1,20l-19.1-20l-24,25.2
					l9.9,9.4l14.1-14.8l19.1,20l19.1-20L-2802.3-1548z"/>
			</g>
		</g>
	</g>
</g>
<rect id="Rectángulo_51" x="-2883" y="-204.2" class="st2" width="1919.8" height="1080"/>
<g id="Grupo_203" transform="translate(0 -7.083)">
	<g id="Grupo_10" transform="translate(150 84.083)">
		<path id="Trazado_8" class="st3" d="M-2880.8,625.4c2.9-7,8.6-12.5,15.7-15.2c7.8-2.9,16.4-2.9,24.2,0c3.6,1.4,6.8,3.4,9.5,6.1
			c2.7,2.6,4.8,5.7,6.2,9.1c3,7.2,3,15.3,0,22.5c-1.4,3.4-3.6,6.5-6.2,9.1c-2.7,2.6-6,4.7-9.5,6.1c-7.8,2.9-16.4,2.9-24.2,0
			c-14.7-6-21.8-22.8-15.8-37.5C-2880.8,625.6-2880.8,625.5-2880.8,625.4L-2880.8,625.4z M-2867,642.7c1.6,3.6,4.5,6.4,8.2,7.9
			c5.7,2.3,12.2,1.1,16.6-3.1c1.4-1.3,2.6-3,3.4-4.8c1.6-3.8,1.6-8.1,0-12c-0.8-1.8-1.9-3.4-3.4-4.8c-1.4-1.3-3.1-2.4-4.9-3.1
			c-3.8-1.5-8-1.5-11.7,0c-1.8,0.7-3.5,1.8-4.9,3.1c-1.4,1.4-2.5,3-3.3,4.8C-2868.6,634.5-2868.6,638.8-2867,642.7L-2867,642.7z"/>
		<rect id="Rectángulo_4" x="-2859.8" y="681.5" class="st3" width="13.7" height="40.8"/>
		<g id="Grupo_6" transform="translate(7.948 405.244)">
			
				<rect id="Rectángulo_5" x="-2838.1" y="-112.9" transform="matrix(0.7071 -0.7071 0.7071 0.7071 -750.2877 -2023.4735)" class="st3" width="40.8" height="13.7"/>
			<g id="Grupo_5">
				<rect id="Rectángulo_6" x="-2837" y="-162" class="st3" width="98.2" height="13.7"/>
				<g id="Grupo_4">
					<path id="Trazado_9" class="st3" d="M-2869.2-155.1c0-12-5-23.5-13.8-31.7v-17.4c27.1,16.5,35.7,51.8,19.3,78.9
						c-4.8,7.9-11.4,14.5-19.3,19.3v-17.4C-2874.2-131.6-2869.2-143.1-2869.2-155.1z"/>
				</g>
			</g>
		</g>
		<g id="Grupo_9" transform="translate(4.411)">
			<path id="Trazado_10" class="st3" d="M-2844.4-114.3c1.6,3.6,4.5,6.4,8.2,7.9c5.7,2.3,12.2,1.1,16.6-3.1c1.4-1.3,2.6-3,3.4-4.8
				c1.6-3.8,1.6-8.1,0-12c-0.8-1.8-1.9-3.4-3.4-4.7c-4.5-4.2-10.9-5.4-16.6-3.1c-1.8,0.7-3.5,1.8-4.9,3.1c-1.4,1.4-2.5,3-3.3,4.7
				C-2846.1-122.4-2846.1-118.1-2844.4-114.3z"/>
			<g id="Grupo_7" transform="translate(3.537 126.423)">
				<path id="Trazado_11" class="st3" d="M-2833.9-190.4c-12,0-23.5,5-31.6,13.8h-17.4c16.5-27.1,51.8-35.7,78.9-19.3
					c7.9,4.8,14.5,11.4,19.3,19.3h-17.4C-2810.4-185.4-2821.9-190.5-2833.9-190.4z"/>
			</g>
			<g id="Grupo_8">
				<path id="Trazado_12" class="st3" d="M-2859-204.2l-24,25.2l9.9,9.4l14.1-14.8l19.1,20l19.1-20l19.1,20l24-25.2l-9.9-9.4
					l-14.1,14.8l-19.1-20l-19.1,20L-2859-204.2z"/>
			</g>
		</g>
	</g>
	<g id="Grupo_26" transform="translate(1324 684.328)">
		
			<rect id="Rectángulo_5-2" x="-2838.1" y="-112.9" transform="matrix(0.7071 -0.7071 0.7071 0.7071 -750.2877 -2023.4735)" class="st3" width="40.8" height="13.7"/>
		<g id="Grupo_5-2" transform="translate(0 0)">
			<rect id="Rectángulo_6-2" x="-2837" y="-162" class="st3" width="98.2" height="13.7"/>
			<g id="Grupo_4-2">
				<path id="Trazado_9-2" class="st3" d="M-2869.2-155.1c0-12-5-23.5-13.8-31.6v-17.4c17.2,10.4,27.7,29,27.6,49.1
					c0.1,20.1-10.4,38.7-27.6,49.1v-17.4C-2874.2-131.6-2869.2-143.1-2869.2-155.1z"/>
			</g>
		</g>
	</g>
	<g id="Grupo_35" transform="translate(0 186)">
		<path id="Trazado_8-2" class="st3" d="M-2331.1-23.2c-2.9,7-8.6,12.5-15.7,15.2c-7.8,2.9-16.4,2.9-24.2,0
			c-3.6-1.4-6.8-3.4-9.5-6.1c-2.7-2.6-4.8-5.7-6.2-9.1c-3-7.2-3-15.3,0-22.5c1.4-3.4,3.6-6.5,6.2-9.1c2.7-2.6,6-4.7,9.5-6.1
			c7.8-2.9,16.4-2.9,24.2,0c14.7,6,21.8,22.8,15.8,37.5C-2331-23.4-2331.1-23.3-2331.1-23.2L-2331.1-23.2z M-2344.8-40.5
			c-1.6-3.6-4.5-6.4-8.2-7.9c-5.7-2.3-12.2-1.1-16.6,3.1c-1.4,1.4-2.6,3-3.4,4.8c-1.6,3.8-1.6,8.1,0,12c0.8,1.8,1.9,3.4,3.4,4.8
			c1.4,1.4,3.1,2.4,4.9,3.1c3.8,1.5,8,1.5,11.7,0c1.8-0.7,3.5-1.8,4.9-3.1c1.4-1.4,2.5-3,3.3-4.8
			C-2343.2-32.4-2343.2-36.7-2344.8-40.5L-2344.8-40.5z"/>
		<rect id="Rectángulo_4-2" x="-2365.8" y="-120.1" class="st3" width="13.7" height="40.8"/>
	</g>
	<g id="Grupo_6-2" transform="translate(592.19 791.365) rotate(180)">
		
			<rect id="Rectángulo_5-3" x="2927.8" y="295.6" transform="matrix(0.7071 -0.7071 0.7071 0.7071 649.6797 2173.3286)" class="st3" width="40.8" height="13.7"/>
		<g id="Grupo_5-3">
			<rect id="Rectángulo_6-3" x="2929" y="246.5" class="st3" width="98.2" height="13.7"/>
			<g id="Grupo_4-3">
				<path id="Trazado_9-3" class="st3" d="M2896.8,253.3c0-12-5-23.5-13.8-31.7v-17.4c27.1,16.5,35.7,51.8,19.3,78.9
					c-4.8,7.9-11.4,14.5-19.3,19.3V285C2891.8,276.8,2896.8,265.3,2896.8,253.3z"/>
			</g>
		</g>
	</g>
	<g id="Grupo_27" transform="translate(1339.463 279.083)">
		<path id="Trazado_10-2" class="st3" d="M-2844.4-114.3c1.6,3.6,4.5,6.4,8.2,7.9c1.9,0.8,3.9,1.1,5.9,1.1c4,0,7.9-1.5,10.8-4.2
			c1.4-1.3,2.6-3,3.4-4.8c0.8-1.9,1.2-3.9,1.2-6c0-2.1-0.4-4.1-1.2-6c-0.8-1.8-1.9-3.4-3.4-4.7c-2.9-2.8-6.8-4.3-10.8-4.2
			c-2,0-4,0.4-5.9,1.1c-1.8,0.7-3.5,1.8-4.9,3.1c-1.4,1.4-2.5,3-3.3,4.8c-0.8,1.9-1.2,3.9-1.2,6
			C-2845.7-118.2-2845.3-116.2-2844.4-114.3z"/>
		<g id="Grupo_7-2" transform="translate(3.537 126.423)">
			<path id="Trazado_11-2" class="st3" d="M-2833.9-190.4c-12,0-23.5,5-31.6,13.8h-17.4c10.4-17.2,29-27.7,49.1-27.6
				c20.1-0.1,38.7,10.4,49.1,27.6h-17.4C-2810.4-185.4-2821.9-190.5-2833.9-190.4z"/>
		</g>
		<g id="Grupo_8-2">
			<path id="Trazado_12-2" class="st3" d="M-2859-204.2l-24,25.2l9.9,9.4l14.1-14.8l19.1,20l19.1-20l19.1,20l24-25.2l-9.9-9.4
				l-14.1,14.8l-19.1-20l-19.1,20L-2859-204.2z"/>
		</g>
	</g>
	<g id="Grupo_25" transform="translate(15.249)">
		<path id="Trazado_13" class="st3" d="M-1130.5-23.2c-2.9,7-8.6,12.5-15.7,15.2c-7.8,2.9-16.4,2.9-24.2,0c-3.6-1.4-6.8-3.4-9.5-6.1
			c-2.7-2.6-4.8-5.7-6.2-9.1c-3-7.2-3-15.3,0-22.5c1.4-3.4,3.6-6.5,6.2-9.1c2.7-2.6,6-4.7,9.5-6.1c7.8-2.9,16.4-2.9,24.2,0
			c14.7,6,21.8,22.8,15.8,37.5C-1130.4-23.4-1130.5-23.3-1130.5-23.2L-1130.5-23.2z M-1144.2-40.5c-1.6-3.6-4.5-6.4-8.2-7.9
			c-3.8-1.5-8-1.5-11.7,0c-1.8,0.7-3.5,1.8-4.9,3.1c-1.4,1.4-2.6,3-3.3,4.8c-1.6,3.8-1.6,8.1,0,12c0.8,1.8,1.9,3.4,3.3,4.8
			c1.4,1.4,3.1,2.4,4.9,3.1c3.8,1.5,8,1.5,11.7,0c1.8-0.7,3.5-1.8,4.9-3.1c1.4-1.4,2.5-3,3.3-4.8
			C-1142.6-32.4-1142.6-36.7-1144.2-40.5z"/>
		<rect id="Rectángulo_7" x="-1165.2" y="-120.1" class="st3" width="13.7" height="40.8"/>
		<g id="Grupo_13" transform="translate(1602.612 487.904)">
			
				<rect id="Rectángulo_8" x="-2824.5" y="-191.8" transform="matrix(0.7071 -0.7071 0.7071 0.7071 -690.5032 -2036.9578)" class="st3" width="40.8" height="13.7"/>
			<g id="Grupo_12" transform="translate(0 19.278)">
				<rect id="Rectángulo_9" x="-2883" y="-162" class="st3" width="98.2" height="13.7"/>
				<g id="Grupo_11" transform="translate(116.577)">
					<path id="Trazado_14" class="st3" d="M-2869.2-155.1c0,12,5,23.5,13.8,31.7v17.4c-27.1-16.5-35.7-51.8-19.3-78.9
						c4.8-7.9,11.4-14.5,19.3-19.3v17.4C-2864.2-178.6-2869.2-167.2-2869.2-155.1z"/>
				</g>
			</g>
		</g>
		<g id="Grupo_16" transform="translate(1645.084 856.573)">
			<path id="Trazado_15" class="st3" d="M-2816.3-140.1c-1.6-3.6-4.5-6.4-8.2-7.9c-5.7-2.3-12.2-1.1-16.6,3.1
				c-1.4,1.4-2.6,3-3.4,4.8c-1.6,3.8-1.6,8.1,0,11.9c0.8,1.8,1.9,3.4,3.4,4.8c1.4,1.3,3.1,2.4,4.9,3.1c3.8,1.5,8,1.5,11.7,0
				c1.8-0.7,3.5-1.8,4.9-3.1c1.4-1.4,2.5-3,3.3-4.8C-2814.7-132-2814.7-136.3-2816.3-140.1L-2816.3-140.1z"/>
			<g id="Grupo_14" transform="translate(3.537)">
				<path id="Trazado_16" class="st3" d="M-2833.9-190.4c12,0,23.5-5,31.6-13.8h17.4c-16.5,27.1-51.8,35.7-78.9,19.3
					c-7.9-4.8-14.5-11.4-19.3-19.3h17.4C-2857.4-195.4-2845.9-190.4-2833.9-190.4z"/>
			</g>
			<g id="Grupo_15" transform="translate(0 114.188)">
				<path id="Trazado_17" class="st3" d="M-2801.8-164.4l24-25.2l-9.9-9.4l-14.1,14.8l-19.1-20l-19.1,20l-19.1-20l-24,25.2l9.9,9.4
					l14.1-14.8l19.1,20l19.1-20L-2801.8-164.4z"/>
			</g>
		</g>
	</g>
</g>
<rect id="Rectángulo_32_1_" x="-2884" y="1188.8" class="st4" width="1919.8" height="1080"/>
<g id="Grupo_199_1_" transform="translate(0 -7.083)">
	<g id="Grupo_10_3_" transform="translate(150 84.083)">
		<path id="Trazado_8_3_" class="st5" d="M-2881.8,2018.4c2.9-7,8.6-12.5,15.7-15.2c7.8-2.9,16.4-2.9,24.2,0
			c3.6,1.4,6.8,3.4,9.5,6.1c2.7,2.6,4.8,5.7,6.2,9.1c3,7.2,3,15.3,0,22.5c-1.4,3.4-3.6,6.5-6.2,9.1c-2.7,2.6-6,4.7-9.5,6.1
			c-7.8,2.9-16.4,2.9-24.2,0c-14.7-6-21.8-22.8-15.8-37.5C-2881.8,2018.6-2881.8,2018.5-2881.8,2018.4L-2881.8,2018.4z
			 M-2868,2035.7c1.6,3.6,4.5,6.4,8.2,7.9c5.7,2.3,12.2,1.1,16.6-3.1c1.4-1.4,2.6-3,3.4-4.8c1.6-3.8,1.6-8.1,0-11.9
			c-0.8-1.8-1.9-3.4-3.4-4.8c-1.4-1.3-3.1-2.4-4.9-3.1c-3.8-1.5-8-1.5-11.7,0c-1.8,0.7-3.5,1.8-4.9,3.1c-1.4,1.4-2.5,3-3.3,4.8
			C-2869.6,2027.5-2869.6,2031.8-2868,2035.7L-2868,2035.7z"/>
		<rect id="Rectángulo_4_3_" x="-2860.8" y="2074.4" class="st5" width="13.7" height="40.9"/>
		<g id="Grupo_6_3_" transform="translate(7.948 405.244)">
			
				<rect id="Rectángulo_5_3_" x="-2839.1" y="1280.1" transform="matrix(0.7071 -0.7071 0.7071 0.7071 -1735.5763 -1616.1898)" class="st5" width="40.8" height="13.7"/>
			<g id="Grupo_5_3_">
				<rect id="Rectángulo_6_3_" x="-2838" y="1231" class="st5" width="98.2" height="13.7"/>
				<g id="Grupo_4_3_">
					<path id="Trazado_9_3_" class="st5" d="M-2870.2,1237.9c0-12-5-23.5-13.8-31.7v-17.4c27.1,16.5,35.7,51.8,19.3,78.9
						c-4.8,7.9-11.4,14.5-19.3,19.3v-17.4C-2875.2,1261.4-2870.2,1249.9-2870.2,1237.9z"/>
				</g>
			</g>
		</g>
		<g id="Grupo_9_3_" transform="translate(4.411)">
			<path id="Trazado_10_3_" class="st5" d="M-2845.4,1278.7c1.6,3.6,4.5,6.4,8.2,7.9c5.7,2.3,12.2,1.1,16.6-3.1
				c1.4-1.3,2.6-3,3.4-4.8c1.6-3.8,1.6-8.1,0-11.9c-0.8-1.8-1.9-3.4-3.4-4.8c-4.5-4.2-10.9-5.4-16.6-3.1c-1.8,0.7-3.5,1.8-4.9,3.1
				c-1.4,1.4-2.5,3-3.3,4.8C-2847.1,1270.6-2847.1,1274.9-2845.4,1278.7z"/>
			<g id="Grupo_7_3_" transform="translate(3.537 126.423)">
				<path id="Trazado_11_3_" class="st5" d="M-2834.9,1202.6c-12,0-23.5,5-31.6,13.8h-17.4c16.5-27.1,51.8-35.7,78.9-19.3
					c7.9,4.8,14.5,11.4,19.3,19.3h-17.4C-2811.4,1207.6-2822.9,1202.5-2834.9,1202.6z"/>
			</g>
			<g id="Grupo_8_3_">
				<path id="Trazado_12_3_" class="st5" d="M-2860,1188.8l-24,25.2l9.9,9.4l14.1-14.8l19.1,20l19.1-20l19.1,20l24-25.2l-9.9-9.4
					l-14.1,14.8l-19.1-20l-19.1,20L-2860,1188.8z"/>
			</g>
		</g>
	</g>
	<g id="Grupo_26_3_" transform="translate(1324 684.328)">
		
			<rect id="Rectángulo_5-2_3_" x="-2839.1" y="1280.1" transform="matrix(0.7071 -0.7071 0.7071 0.7071 -1735.5763 -1616.1898)" class="st5" width="40.8" height="13.7"/>
		<g id="Grupo_5-2_3_" transform="translate(0 0)">
			<rect id="Rectángulo_6-2_3_" x="-2838" y="1231" class="st5" width="98.2" height="13.7"/>
			<g id="Grupo_4-2_3_">
				<path id="Trazado_9-2_3_" class="st5" d="M-2870.2,1237.9c0-12-5-23.5-13.8-31.7v-17.4c17.2,10.3,27.7,29,27.6,49.1
					c0.1,20.1-10.4,38.7-27.6,49.1v-17.4C-2875.2,1261.4-2870.2,1249.9-2870.2,1237.9z"/>
			</g>
		</g>
	</g>
	<g id="Grupo_35_3_" transform="translate(0 186)">
		<path id="Trazado_8-2_3_" class="st5" d="M-2332.1,1369.8c-2.9,7-8.6,12.5-15.7,15.2c-7.8,2.9-16.4,2.9-24.2,0
			c-3.6-1.4-6.8-3.4-9.5-6.1c-2.7-2.6-4.8-5.7-6.2-9.1c-3-7.2-3-15.3,0-22.5c1.4-3.4,3.6-6.5,6.2-9.1c2.7-2.6,6-4.7,9.5-6.1
			c7.8-2.9,16.4-2.9,24.2,0c14.7,6,21.8,22.8,15.8,37.5C-2332,1369.6-2332.1,1369.7-2332.1,1369.8L-2332.1,1369.8z M-2345.8,1352.5
			c-1.6-3.6-4.5-6.4-8.2-7.9c-5.7-2.3-12.2-1.1-16.6,3.1c-1.4,1.3-2.6,3-3.4,4.8c-1.6,3.8-1.6,8.1,0,11.9c0.8,1.8,1.9,3.4,3.4,4.8
			c1.4,1.3,3.1,2.4,4.9,3.1c3.8,1.5,8,1.5,11.7,0c1.8-0.7,3.5-1.8,4.9-3.1c1.4-1.4,2.5-3,3.3-4.8
			C-2344.2,1360.6-2344.2,1356.3-2345.8,1352.5L-2345.8,1352.5z"/>
		<rect id="Rectángulo_4-2_3_" x="-2366.8" y="1272.9" class="st5" width="13.7" height="40.8"/>
	</g>
	<g id="Grupo_6-2_3_" transform="translate(592.19 791.365) rotate(180)">
		
			<rect id="Rectángulo_5-3_3_" x="2928.9" y="-1097.4" transform="matrix(0.7071 -0.7071 0.7071 0.7071 1634.9734 1766.0436)" class="st5" width="40.8" height="13.7"/>
		<g id="Grupo_5-3_3_">
			<rect id="Rectángulo_6-3_3_" x="2930" y="-1146.5" class="st5" width="98.2" height="13.7"/>
			<g id="Grupo_4-3_3_">
				<path id="Trazado_9-3_3_" class="st5" d="M2897.8-1139.7c0-12-5-23.5-13.8-31.7v-17.4c27.1,16.5,35.7,51.8,19.3,78.9
					c-4.8,7.9-11.4,14.5-19.3,19.3v-17.4C2892.8-1116.2,2897.8-1127.7,2897.8-1139.7z"/>
			</g>
		</g>
	</g>
	<g id="Grupo_27_3_" transform="translate(1339.463 279.083)">
		<path id="Trazado_10-2_3_" class="st5" d="M-2845.4,1278.7c1.6,3.6,4.5,6.4,8.2,7.9c1.9,0.8,3.9,1.1,5.9,1.1c4,0,7.9-1.5,10.8-4.2
			c1.4-1.3,2.6-3,3.4-4.8c0.8-1.9,1.2-3.9,1.2-6c0-2.1-0.4-4.1-1.2-6c-0.8-1.8-1.9-3.4-3.4-4.8c-2.9-2.8-6.8-4.3-10.8-4.2
			c-2,0-4,0.4-5.9,1.1c-1.8,0.7-3.5,1.8-4.9,3.1c-1.4,1.4-2.5,3-3.3,4.8c-0.8,1.9-1.2,3.9-1.2,6
			C-2846.7,1274.8-2846.3,1276.8-2845.4,1278.7z"/>
		<g id="Grupo_7-2_3_" transform="translate(3.537 126.423)">
			<path id="Trazado_11-2_3_" class="st5" d="M-2834.9,1202.6c-12,0-23.5,5-31.6,13.8h-17.4c10.4-17.2,29-27.7,49.1-27.6
				c20.1-0.1,38.7,10.4,49.1,27.6h-17.4C-2811.4,1207.6-2822.9,1202.5-2834.9,1202.6z"/>
		</g>
		<g id="Grupo_8-2_3_">
			<path id="Trazado_12-2_3_" class="st5" d="M-2860,1188.8l-24,25.2l9.9,9.4l14.1-14.8l19.1,20l19.1-20l19.1,20l24-25.2l-9.9-9.4
				l-14.1,14.8l-19.1-20l-19.1,20L-2860,1188.8z"/>
		</g>
	</g>
	<g id="Grupo_25_3_" transform="translate(15.249)">
		<path id="Trazado_13_3_" class="st5" d="M-1131.5,1369.8c-2.9,7-8.6,12.5-15.7,15.2c-7.8,2.9-16.4,2.9-24.2,0
			c-3.6-1.4-6.8-3.4-9.5-6.1c-2.7-2.6-4.8-5.7-6.2-9.1c-3-7.2-3-15.3,0-22.5c1.4-3.4,3.6-6.5,6.2-9.1c2.7-2.6,6-4.7,9.5-6.1
			c7.8-2.9,16.4-2.9,24.2,0c14.7,6,21.8,22.8,15.8,37.5C-1131.4,1369.6-1131.5,1369.7-1131.5,1369.8L-1131.5,1369.8z
			 M-1145.2,1352.5c-1.6-3.6-4.5-6.4-8.2-7.9c-3.8-1.5-8-1.5-11.7,0c-1.8,0.7-3.5,1.8-4.9,3.1c-1.4,1.3-2.6,3-3.3,4.8
			c-1.6,3.8-1.6,8.1,0,11.9c0.8,1.8,1.9,3.4,3.3,4.8c1.4,1.3,3.1,2.4,4.9,3.1c3.8,1.5,8,1.5,11.7,0c1.8-0.7,3.5-1.8,4.9-3.1
			c1.4-1.4,2.5-3,3.3-4.8C-1143.6,1360.6-1143.6,1356.3-1145.2,1352.5z"/>
		<rect id="Rectángulo_7_3_" x="-1166.2" y="1272.9" class="st5" width="13.7" height="40.8"/>
		<g id="Grupo_13_3_" transform="translate(1602.612 487.904)">
			
				<rect id="Rectángulo_8_3_" x="-2825.5" y="1201.2" transform="matrix(0.7071 -0.7071 0.7071 0.7071 -1675.7919 -1629.6741)" class="st5" width="40.8" height="13.7"/>
			<g id="Grupo_12_3_" transform="translate(0 19.278)">
				<rect id="Rectángulo_9_3_" x="-2884" y="1231" class="st5" width="98.2" height="13.7"/>
				<g id="Grupo_11_3_" transform="translate(116.577)">
					<path id="Trazado_14_3_" class="st5" d="M-2870.2,1237.9c0,12,5,23.5,13.8,31.7v17.4c-27.1-16.5-35.7-51.8-19.3-78.9
						c4.8-7.9,11.4-14.5,19.3-19.3v17.4C-2865.2,1214.4-2870.2,1225.8-2870.2,1237.9z"/>
				</g>
			</g>
		</g>
		<g id="Grupo_16_3_" transform="translate(1645.084 856.573)">
			<path id="Trazado_15_3_" class="st5" d="M-2817.3,1252.9c-1.6-3.6-4.5-6.4-8.2-7.9c-5.7-2.3-12.2-1.1-16.6,3.1
				c-1.4,1.3-2.6,3-3.4,4.8c-1.6,3.8-1.6,8.1,0,11.9c0.8,1.8,1.9,3.4,3.4,4.8c1.4,1.3,3.1,2.4,4.9,3.1c3.8,1.5,8,1.5,11.7,0
				c1.8-0.7,3.5-1.8,4.9-3.1c1.4-1.4,2.5-3,3.3-4.8C-2815.7,1261-2815.7,1256.7-2817.3,1252.9L-2817.3,1252.9z"/>
			<g id="Grupo_14_3_" transform="translate(3.537)">
				<path id="Trazado_16_3_" class="st5" d="M-2834.9,1202.6c12,0,23.5-5,31.6-13.8h17.4c-16.5,27.1-51.8,35.7-78.9,19.3
					c-7.9-4.8-14.5-11.4-19.3-19.3h17.4C-2858.4,1197.6-2846.9,1202.6-2834.9,1202.6z"/>
			</g>
			<g id="Grupo_15_3_" transform="translate(0 114.188)">
				<path id="Trazado_17_3_" class="st5" d="M-2802.8,1228.6l24-25.2l-9.9-9.4l-14.1,14.8l-19.1-20l-19.1,20l-19.1-20l-24,25.2
					l9.9,9.4l14.1-14.8l19.1,20l19.1-20L-2802.8,1228.6z"/>
			</g>
		</g>
	</g>
</g>
<rect id="Rectángulo_3" x="-2883.3" y="2557.9" class="st6" width="1920.4" height="1080"/>
<g id="Grupo_196">
	<g id="Grupo_10_2_" transform="translate(150 84.083)">
		<path id="Trazado_8_2_" class="st7" d="M-2881.1,3387.6c2.9-7,8.6-12.5,15.7-15.2c7.8-2.9,16.4-2.9,24.2,0
			c3.6,1.4,6.8,3.4,9.5,6.1c2.7,2.6,4.8,5.7,6.2,9.1c3,7.2,3,15.3,0,22.5c-1.4,3.4-3.6,6.5-6.2,9.1c-2.7,2.6-6,4.7-9.5,6.1
			c-7.8,2.9-16.4,2.9-24.2,0c-14.7-6-21.8-22.8-15.8-37.5C-2881.1,3387.7-2881.1,3387.6-2881.1,3387.6L-2881.1,3387.6z
			 M-2867.3,3404.8c1.6,3.6,4.5,6.4,8.2,7.9c5.7,2.3,12.2,1.1,16.6-3.1c1.4-1.4,2.6-3,3.4-4.8c1.6-3.8,1.6-8.1,0-11.9
			c-0.8-1.8-1.9-3.4-3.4-4.8c-1.4-1.4-3.1-2.4-4.9-3.1c-3.8-1.5-8-1.5-11.7,0c-1.8,0.7-3.5,1.8-4.9,3.1c-1.4,1.4-2.5,3-3.3,4.8
			C-2868.9,3396.7-2868.9,3401-2867.3,3404.8L-2867.3,3404.8z"/>
		<rect id="Rectángulo_4_2_" x="-2860.1" y="3443.6" class="st7" width="13.7" height="40.9"/>
		<g id="Grupo_6_2_" transform="translate(7.948 405.244)">
			
				<rect id="Rectángulo_5_2_" x="-2838.4" y="2649.2" transform="matrix(0.7071 -0.7071 0.7071 0.7071 -2703.498 -1214.6807)" class="st7" width="40.8" height="13.7"/>
			<g id="Grupo_5_2_">
				<rect id="Rectángulo_6_2_" x="-2837.3" y="2600.2" class="st7" width="98.2" height="13.7"/>
				<g id="Grupo_4_2_">
					<path id="Trazado_9_2_" class="st7" d="M-2869.5,2607c0-12-5-23.5-13.8-31.7v-17.4c27.1,16.5,35.7,51.8,19.3,78.9
						c-4.8,7.9-11.4,14.5-19.3,19.3v-17.4C-2874.4,2630.5-2869.4,2619-2869.5,2607z"/>
				</g>
			</g>
		</g>
		<g id="Grupo_9_2_" transform="translate(4.411)">
			<path id="Trazado_10_2_" class="st7" d="M-2844.7,2647.9c1.6,3.6,4.5,6.4,8.2,7.9c5.7,2.3,12.2,1.1,16.6-3.1
				c1.4-1.4,2.6-3,3.4-4.8c1.6-3.8,1.6-8.1,0-12c-0.8-1.8-1.9-3.4-3.4-4.8c-4.5-4.2-10.9-5.4-16.6-3.1c-1.8,0.7-3.5,1.8-4.9,3.1
				c-1.4,1.4-2.5,3-3.3,4.8C-2846.4,2639.7-2846.4,2644-2844.7,2647.9z"/>
			<g id="Grupo_7_2_" transform="translate(3.537 126.423)">
				<path id="Trazado_11_2_" class="st7" d="M-2834.2,2571.7c-12,0-23.5,5-31.6,13.8h-17.4c16.5-27.1,51.8-35.7,78.9-19.3
					c7.9,4.8,14.5,11.4,19.3,19.3h-17.4C-2810.7,2576.7-2822.2,2571.7-2834.2,2571.7z"/>
			</g>
			<g id="Grupo_8_2_">
				<path id="Trazado_12_2_" class="st7" d="M-2859.3,2557.9l-24,25.2l9.9,9.4l14.1-14.8l19.1,20l19.1-20l19.1,20l24-25.2l-9.9-9.4
					l-14.1,14.8l-19.1-20l-19.1,20L-2859.3,2557.9z"/>
			</g>
		</g>
	</g>
	<g id="Grupo_26_2_" transform="translate(1324 684.328)">
		
			<rect id="Rectángulo_5-2_2_" x="-2838.4" y="2649.2" transform="matrix(0.7071 -0.7071 0.7071 0.7071 -2703.498 -1214.6807)" class="st7" width="40.8" height="13.7"/>
		<g id="Grupo_5-2_2_" transform="translate(0 0)">
			<rect id="Rectángulo_6-2_2_" x="-2837.3" y="2600.2" class="st7" width="98.2" height="13.7"/>
			<g id="Grupo_4-2_2_">
				<path id="Trazado_9-2_2_" class="st7" d="M-2869.5,2607c0-12-5-23.5-13.8-31.6v-17.4c17.2,10.4,27.7,29,27.6,49.1
					c0.1,20.1-10.4,38.7-27.6,49.1v-17.4C-2874.4,2630.5-2869.4,2619-2869.5,2607z"/>
			</g>
		</g>
	</g>
	<g id="Grupo_35_2_" transform="translate(0 186)">
		<path id="Trazado_8-2_2_" class="st7" d="M-2331.4,2738.9c-2.9,7-8.6,12.5-15.7,15.2c-7.8,2.9-16.4,2.9-24.2,0
			c-3.6-1.4-6.8-3.4-9.5-6.1c-2.7-2.6-4.8-5.7-6.2-9.1c-3-7.2-3-15.3,0-22.5c1.4-3.4,3.6-6.5,6.2-9.1c2.7-2.6,6-4.7,9.5-6.1
			c7.8-2.9,16.4-2.9,24.2,0c14.7,6,21.8,22.8,15.8,37.5C-2331.3,2738.7-2331.3,2738.8-2331.4,2738.9L-2331.4,2738.9z
			 M-2345.1,2721.7c-1.6-3.6-4.5-6.4-8.2-7.9c-5.7-2.3-12.2-1.1-16.6,3.1c-1.4,1.4-2.6,3-3.4,4.8c-1.6,3.8-1.6,8.1,0,11.9
			c0.8,1.8,1.9,3.4,3.4,4.8c1.4,1.4,3.1,2.4,4.9,3.1c3.8,1.5,8,1.5,11.7,0c1.8-0.7,3.5-1.8,4.9-3.1c1.4-1.4,2.5-3,3.3-4.8
			C-2343.5,2729.8-2343.5,2725.5-2345.1,2721.7L-2345.1,2721.7z"/>
		<rect id="Rectángulo_4-2_2_" x="-2366.1" y="2642" class="st7" width="13.7" height="40.9"/>
	</g>
	<g id="Grupo_6-2_2_" transform="translate(592.19 791.365) rotate(180)">
		
			<rect id="Rectángulo_5-3_2_" x="2928.2" y="-2466.6" transform="matrix(0.7071 -0.7071 0.7071 0.7071 2602.9102 1364.5288)" class="st7" width="40.8" height="13.7"/>
		<g id="Grupo_5-3_2_">
			<rect id="Rectángulo_6-3_2_" x="2929.3" y="-2515.7" class="st7" width="98.2" height="13.7"/>
			<g id="Grupo_4-3_2_">
				<path id="Trazado_9-3_2_" class="st7" d="M2897.1-2508.8c0-12-5-23.5-13.8-31.7v-17.4c27.1,16.5,35.7,51.8,19.3,78.9
					c-4.8,7.9-11.4,14.5-19.3,19.3v-17.4C2892.1-2485.3,2897.1-2496.8,2897.1-2508.8z"/>
			</g>
		</g>
	</g>
	<g id="Grupo_27_2_" transform="translate(1339.463 279.083)">
		<path id="Trazado_10-2_2_" class="st7" d="M-2844.7,2647.9c1.6,3.6,4.5,6.4,8.2,7.9c1.9,0.8,3.9,1.1,5.9,1.1c4,0,7.9-1.5,10.8-4.2
			c1.4-1.4,2.6-3,3.4-4.8c0.8-1.9,1.2-3.9,1.2-6c0-2.1-0.4-4.1-1.2-6c-0.8-1.8-1.9-3.4-3.4-4.8c-2.9-2.8-6.8-4.3-10.8-4.2
			c-2,0-4,0.4-5.9,1.1c-1.8,0.7-3.5,1.8-4.9,3.1c-1.4,1.4-2.5,3-3.3,4.8c-0.8,1.9-1.2,3.9-1.2,6
			C-2846,2643.9-2845.6,2646-2844.7,2647.9z"/>
		<g id="Grupo_7-2_2_" transform="translate(3.537 126.423)">
			<path id="Trazado_11-2_2_" class="st7" d="M-2834.2,2571.7c-12,0-23.5,5-31.6,13.8h-17.4c10.4-17.2,29-27.7,49.1-27.6
				c20.1-0.1,38.7,10.4,49.1,27.6h-17.4C-2810.7,2576.7-2822.2,2571.7-2834.2,2571.7z"/>
		</g>
		<g id="Grupo_8-2_2_">
			<path id="Trazado_12-2_2_" class="st7" d="M-2859.3,2557.9l-24,25.2l9.9,9.4l14.1-14.8l19.1,20l19.1-20l19.1,20l24-25.2l-9.9-9.4
				l-14.1,14.8l-19.1-20l-19.1,20L-2859.3,2557.9z"/>
		</g>
	</g>
	<g id="Grupo_25_2_" transform="translate(15.249)">
		<path id="Trazado_13_2_" class="st7" d="M-1130.8,2738.9c-2.9,7-8.6,12.5-15.7,15.2c-7.8,2.9-16.4,2.9-24.2,0
			c-3.6-1.4-6.8-3.4-9.5-6.1c-2.7-2.6-4.8-5.7-6.2-9.1c-3-7.2-3-15.3,0-22.5c1.4-3.4,3.6-6.5,6.2-9.1c2.7-2.6,6-4.7,9.5-6.1
			c7.8-2.9,16.4-2.9,24.2,0c14.7,6,21.8,22.8,15.8,37.5C-1130.7,2738.7-1130.7,2738.8-1130.8,2738.9L-1130.8,2738.9z
			 M-1144.5,2721.7c-1.6-3.6-4.5-6.4-8.2-7.9c-3.8-1.5-8-1.5-11.7,0c-1.8,0.7-3.5,1.8-4.9,3.1c-1.4,1.4-2.6,3-3.3,4.8
			c-1.6,3.8-1.6,8.1,0,11.9c0.8,1.8,1.9,3.4,3.3,4.8c1.4,1.4,3.1,2.4,4.9,3.1c3.8,1.5,8,1.5,11.7,0c1.8-0.7,3.5-1.8,4.9-3.1
			c1.4-1.4,2.5-3,3.3-4.8C-1142.9,2729.8-1142.9,2725.5-1144.5,2721.7z"/>
		<rect id="Rectángulo_7_2_" x="-1165.4" y="2642" class="st7" width="13.7" height="40.9"/>
		<g id="Grupo_13_2_" transform="translate(1602.612 487.904)">
			
				<rect id="Rectángulo_8_2_" x="-2824.8" y="2570.3" transform="matrix(0.7071 -0.7071 0.7071 0.7071 -2643.7166 -1228.1577)" class="st7" width="40.8" height="13.7"/>
			<g id="Grupo_12_2_" transform="translate(0 19.278)">
				<rect id="Rectángulo_9_2_" x="-2883.3" y="2600.2" class="st7" width="98.2" height="13.7"/>
				<g id="Grupo_11_2_" transform="translate(116.577)">
					<path id="Trazado_14_2_" class="st7" d="M-2869.5,2607c0,12,5,23.5,13.8,31.6v17.4c-27.1-16.5-35.7-51.8-19.3-78.9
						c4.8-7.9,11.4-14.5,19.3-19.3v17.4C-2864.5,2583.5-2869.5,2595-2869.5,2607z"/>
				</g>
			</g>
		</g>
		<g id="Grupo_16_2_" transform="translate(1645.084 856.573)">
			<path id="Trazado_15_2_" class="st7" d="M-2816.6,2622.1c-1.6-3.6-4.5-6.4-8.2-7.9c-5.7-2.3-12.2-1.1-16.6,3.1
				c-1.4,1.4-2.6,3-3.4,4.8c-1.6,3.8-1.6,8.1,0,11.9c0.8,1.8,1.9,3.4,3.4,4.8c1.4,1.4,3.1,2.4,4.9,3.1c3.8,1.5,8,1.5,11.7,0
				c1.8-0.7,3.5-1.8,4.9-3.1c1.4-1.4,2.5-3,3.3-4.8C-2814.9,2630.2-2814.9,2625.9-2816.6,2622.1L-2816.6,2622.1z"/>
			<g id="Grupo_14_2_" transform="translate(3.537)">
				<path id="Trazado_16_2_" class="st7" d="M-2834.2,2571.7c12,0,23.5-5,31.6-13.8h17.4c-16.5,27.1-51.8,35.7-78.9,19.3
					c-7.9-4.8-14.5-11.4-19.3-19.3h17.4C-2857.7,2566.8-2846.2,2571.8-2834.2,2571.7z"/>
			</g>
			<g id="Grupo_15_2_" transform="translate(0 114.188)">
				<path id="Trazado_17_2_" class="st7" d="M-2802.1,2597.8l24-25.2l-9.9-9.4l-14.1,14.8l-19.1-20l-19.1,20l-19.1-20l-24,25.2
					l9.9,9.4l14.1-14.8l19.1,20l19.1-20L-2802.1,2597.8z"/>
			</g>
		</g>
	</g>
</g>
<path id="Rectángulo_28_1_" class="st8" d="M-748.8-835.3H-497c37.5,0,67.9,30.4,67.9,67.9l0,0c0,37.5-30.4,67.9-67.9,67.9h-251.8
	c-37.5,0-67.9-30.4-67.9-67.9l0,0C-816.7-804.9-786.3-835.3-748.8-835.3z"/>
<circle id="Elipse_18_1_" class="st3" cx="-644.1" cy="-770" r="6.1"/>
<circle id="Elipse_19_1_" class="st3" cx="-601.7" cy="-770" r="6.1"/>
<line id="Línea_10_1_" class="st9" x1="-650.2" y1="-783" x2="-638.1" y2="-783"/>
<line id="Línea_11_1_" class="st9" x1="-607.8" y1="-783" x2="-595.6" y2="-783"/>
<line id="Línea_12_1_" class="st9" x1="-636.9" y1="-751.9" x2="-607.9" y2="-751.9"/>
<circle id="Elipse_20_1_" class="st3" cx="-521.4" cy="-772.6" r="6.1"/>
<circle id="Elipse_21_1_" class="st3" cx="-478.9" cy="-772.6" r="6.1"/>
<path id="Trazado_49_1_" class="st9" d="M-514.1-747.3c0,0,13.2-16,29-0.3"/>
<line id="Línea_13_1_" class="st9" x1="-527" y1="-783.4" x2="-515.7" y2="-787.6"/>
<line id="Línea_14_1_" class="st9" x1="-484.6" y1="-787.6" x2="-473.2" y2="-783.4"/>
<circle id="Elipse_22_4_" class="st3" cx="-767.8" cy="-770.6" r="6.1"/>
<path id="Trazado_50_4_" class="st9" d="M-773.8-783.5c0-3.3,2.7-6.1,6.1-6.1s6.1,2.7,6.1,6.1"/>
<path id="Trazado_51_4_" class="st9" d="M-731.4-783.5c0-3.3,2.8-6,6.1-6c3.3,0,5.9,2.7,6,6"/>
<circle id="Elipse_23_4_" class="st3" cx="-725.3" cy="-770.6" r="6.1"/>
<path id="Trazado_52_4_" class="st9" d="M-731.5-752.5c0,0-13.2,16-29,0.3"/>
<circle id="Elipse_17_1_" class="st8" cx="-623.7" cy="-1337" r="51.7"/>
<circle id="Elipse_27_1_" class="st10" cx="30.1" cy="-1327" r="51.7"/>
<circle id="Elipse_34_1_" class="st11" cx="31.1" cy="-766.7" r="51.7"/>
<circle id="Elipse_17" class="st12" cx="675.3" cy="-1055.6" r="51.7"/>
<g id="Grupo_206_2_" transform="translate(-761.504 -930.93)">
	<circle id="Elipse_51_2_" class="st6" cx="309.7" cy="989.9" r="32.4"/>
	<g id="Grupo_106_2_" transform="translate(778.662 948.619)">
		<line id="Línea_31_2_" class="st13" x1="-453.7" y1="41.2" x2="-484.2" y2="41.2"/>
		<path id="Trazado_101_2_" class="st13" d="M-468.4,26.6l14.7,14.7l-14.7,14.7"/>
	</g>
</g>
<g id="Grupo_206_1_" transform="translate(-761.504 -930.93)">
	<circle id="Elipse_51_1_" class="st6" cx="73.7" cy="989.9" r="32.4"/>
	<g id="Grupo_106_1_" transform="translate(778.662 948.619)">
		<line id="Línea_31_1_" class="st13" x1="-689.7" y1="41.2" x2="-720.1" y2="41.2"/>
		<path id="Trazado_101_1_" class="st13" d="M-705.5,55.9l-14.7-14.7l14.7-14.7"/>
	</g>
</g>
<g id="Grupo_207_1_" transform="translate(-852.941 -931.283)">
	<path id="Rectángulo_65_1_" class="st6" d="M153.7,1529.9h150.9c17.7,0,32,14.3,32,32v0.1c0,17.7-14.3,32-32,32H153.7
		c-17.7,0-32-14.3-32-32v-0.1C121.7,1544.2,136,1529.9,153.7,1529.9z"/>
	<text transform="matrix(1 0 0 1 163.3764 1567.2372)" class="st2" style="font-family:'ArialMT'; font-size:21px;">Ver en Netflix</text>
</g>
<g id="Grupo_208" transform="translate(-1091.976 -930.93)">
	<circle id="Elipse_52" class="st6" cx="396.2" cy="1236.6" r="32.4"/>
	<g id="Grupo_108" transform="translate(1109.666 948.088)">
		<path id="Trazado_102" class="st13" d="M-723.9,283.9v19.8h20.9v-19.8"/>
		<path id="Trazado_103" class="st13" d="M-728.1,287.9l14.7-14.7l14.7,14.7"/>
	</g>
</g>
<g id="Grupo_209" transform="translate(-854.092 -931.284)">
	<path id="Rectángulo_109" class="st6" d="M565.9,1529.9h150.9c17.7,0,32,14.3,32,32v0.1c0,17.7-14.3,32-32,32H565.9
		c-17.7,0-32-14.3-32-32v-0.1C533.9,1544.2,548.2,1529.9,565.9,1529.9z"/>
	<text transform="matrix(1 0 0 1 565.7564 1567.2372)" class="st2" style="font-family:'ArialMT'; font-size:21px;">Abrir en Spotify</text>
</g>
<g id="Grupo_187" transform="translate(-198 -430)">
	<circle id="Elipse_27" class="st10" cx="249.7" cy="747.1" r="51.7"/>
	<circle id="Elipse_28" class="st3" cx="228" cy="742" r="6.1"/>
	<circle id="Elipse_29" class="st3" cx="270.4" cy="742" r="6.1"/>
	<path id="Trazado_54" class="st9" d="M235.2,767.3c0,0,13.2-16,29-0.3"/>
	<line id="Línea_19" class="st9" x1="222.3" y1="731.1" x2="233.7" y2="727"/>
	<line id="Línea_20" class="st9" x1="264.7" y1="727" x2="276.1" y2="731.1"/>
</g>
<circle id="Elipse_34" class="st10" cx="306.7" cy="317.1" r="51.7"/>
<path id="Trazado_186" class="st9" d="M327.9,314.6c0,11.6-9.4,20.9-20.9,20.9s-20.9-9.4-20.9-20.9"/>
<line id="Línea_40" class="st9" x1="306.9" y1="335.6" x2="306.9" y2="354.3"/>
<line id="Línea_41" class="st9" x1="294.2" y1="354.3" x2="320.2" y2="354.3"/>
<path id="Rectángulo_112" class="st9" d="M306.9,279.1L306.9,279.1c7,0,12.8,5.7,12.8,12.8V314c0,7-5.7,12.8-12.8,12.8l0,0
	c-7,0-12.8-5.7-12.8-12.8v-22.1C294.2,284.8,299.9,279.1,306.9,279.1z"/>
<line id="Línea_42" class="st9" x1="294.2" y1="293.7" x2="301" y2="293.7"/>
<line id="Línea_44" class="st9" x1="294.2" y1="302.7" x2="301" y2="302.7"/>
<line id="Línea_45" class="st9" x1="294.2" y1="311.7" x2="301" y2="311.7"/>
<line id="Línea_46" class="st9" x1="312.9" y1="293.7" x2="319.7" y2="293.7"/>
<line id="Línea_48" class="st9" x1="312.9" y1="302.7" x2="319.7" y2="302.7"/>
<line id="Línea_49" class="st9" x1="312.9" y1="311.7" x2="319.7" y2="311.7"/>
<circle id="Elipse_34_2_" class="st11" cx="554.7" cy="317.1" r="51.7"/>
<path id="Trazado_186_1_" class="st9" d="M575.9,314.6c0,11.6-9.4,20.9-20.9,20.9s-20.9-9.4-20.9-20.9"/>
<line id="Línea_40_1_" class="st9" x1="554.9" y1="335.6" x2="554.9" y2="354.3"/>
<line id="Línea_41_1_" class="st9" x1="542.2" y1="354.3" x2="568.2" y2="354.3"/>
<path id="Rectángulo_112_1_" class="st9" d="M554.9,279.1L554.9,279.1c7,0,12.8,5.7,12.8,12.8V314c0,7-5.7,12.8-12.8,12.8l0,0
	c-7,0-12.8-5.7-12.8-12.8v-22.1C542.2,284.8,547.9,279.1,554.9,279.1z"/>
<line id="Línea_42_1_" class="st9" x1="542.2" y1="293.7" x2="549" y2="293.7"/>
<line id="Línea_44_1_" class="st9" x1="542.2" y1="302.7" x2="549" y2="302.7"/>
<line id="Línea_45_1_" class="st9" x1="542.2" y1="311.7" x2="549" y2="311.7"/>
<line id="Línea_46_1_" class="st9" x1="560.9" y1="293.7" x2="567.7" y2="293.7"/>
<line id="Línea_48_1_" class="st9" x1="560.9" y1="302.7" x2="567.7" y2="302.7"/>
<line id="Línea_49_1_" class="st9" x1="560.9" y1="311.7" x2="567.7" y2="311.7"/>
<circle id="Elipse_27-2" class="st8" cx="51.7" cy="318.1" r="51.7"/>
<circle id="Elipse_28-2" class="st3" cx="30" cy="313" r="6.1"/>
<circle id="Elipse_29-2" class="st3" cx="72.4" cy="313" r="6.1"/>
<path id="Trazado_54-2" class="st9" d="M37.2,338.3c0,0,13.2-16,29-0.3"/>
<line id="Línea_19-2" class="st9" x1="24.3" y1="302.1" x2="35.7" y2="298"/>
<line id="Línea_20-2" class="st9" x1="66.7" y1="298" x2="78.1" y2="302.1"/>
<circle id="Elipse_27-2_2_" class="st10" cx="306.8" cy="59.1" r="51.7"/>
<circle id="Elipse_22_3_" class="st3" cx="285.8" cy="55.7" r="6.1"/>
<path id="Trazado_50_3_" class="st9" d="M279.7,42.8c0-3.3,2.7-6.1,6.1-6.1c3.4,0,6.1,2.7,6.1,6.1"/>
<path id="Trazado_51_3_" class="st9" d="M322.2,42.8c0-3.3,2.8-6,6.1-6c3.3,0,5.9,2.7,6,6"/>
<circle id="Elipse_23_3_" class="st3" cx="328.2" cy="55.7" r="6.1"/>
<path id="Trazado_52_3_" class="st9" d="M322,73.8c0,0-13.2,16.1-29,0.3"/>
<circle id="Elipse_33" class="st10" cx="557.5" cy="62" r="51.7"/>
<g id="Grupo_173" transform="translate(-524.864 -221.357)">
	<path id="Trazado_187" class="st14" d="M1069.5,265.5"/>
	<path id="Trazado_188" class="st9" d="M1105.9,261.5c0-2.4-1.7-4.5-4-4.9c-0.2-2.6-2.4-4.6-5-4.6c-0.2,0-0.5,0-0.8,0.1
		c-4.4-1.1-8.6-3-12.3-5.6c-2.4,0-4.5,1.7-4.9,4.1c-2.5,2.5-6.4,2.9-9.4,1c-2.8,0-5,2.2-5,5l0,0c0,0,0,0,0,0c-0.2,0-0.4,0-0.7,0
		c-2.8,0-5,2.2-5,5l0,0"/>
	<g id="Grupo_172">
		<path id="Trazado_189" class="st9" d="M1101.2,319.9h-37.3l-4.1-43.4h45.3L1101.2,319.9z"/>
		<circle id="Elipse_68" class="st9" cx="1082.3" cy="298.2" r="10.4"/>
		<line id="Línea_50" class="st9" x1="1073.8" y1="276.5" x2="1074.2" y2="291.7"/>
		<line id="Línea_51" class="st9" x1="1090.9" y1="276.5" x2="1090.4" y2="291.7"/>
		<line id="Línea_52" class="st9" x1="1074.7" y1="305.2" x2="1075.1" y2="319.9"/>
		<line id="Línea_53" class="st9" x1="1089.9" y1="305.2" x2="1089.4" y2="319.9"/>
		<rect id="Rectángulo_113" x="1057.6" y="268.1" class="st9" width="49.7" height="8.4"/>
	</g>
	<path id="Trazado_190" class="st9" d="M1071.2,261.2c0.8-2,3.1-3,5.1-2.2"/>
	<path id="Trazado_191" class="st9" d="M1088.8,258c2.1-0.7,4.3,0.4,5,2.4"/>
</g>
<g id="Grupo_187_1_" transform="translate(-198 -430)">
	<circle id="Elipse_27_2_" class="st10" cx="-253.3" cy="747.1" r="51.7"/>
	<circle id="Elipse_28_1_" class="st3" cx="-275" cy="742" r="6.1"/>
	<circle id="Elipse_29_1_" class="st3" cx="-232.6" cy="742" r="6.1"/>
	<path id="Trazado_54_1_" class="st9" d="M-267.8,767.3c0,0,13.2-16,29-0.3"/>
	<line id="Línea_19_1_" class="st9" x1="-280.7" y1="731.1" x2="-269.3" y2="727"/>
	<line id="Línea_20_1_" class="st9" x1="-238.3" y1="727" x2="-226.9" y2="731.1"/>
</g>
<circle id="Elipse_27-2_3_" class="st15" cx="-451.2" cy="318.1" r="51.7"/>
<circle id="Elipse_28-2_1_" class="st3" cx="-473" cy="313" r="6.1"/>
<circle id="Elipse_29-2_1_" class="st3" cx="-430.6" cy="313" r="6.1"/>
<path id="Trazado_54-2_1_" class="st9" d="M-465.8,338.3c0,0,13.2-16,29-0.3"/>
<line id="Línea_19-2_1_" class="st9" x1="-478.7" y1="302.1" x2="-467.3" y2="298"/>
<line id="Línea_20-2_1_" class="st9" x1="-436.3" y1="298" x2="-424.9" y2="302.1"/>
<circle id="Elipse_27-2_1_" class="st15" cx="-196.3" cy="59.1" r="51.7"/>
<circle id="Elipse_22_1_" class="st3" cx="-217.2" cy="55.7" r="6.1"/>
<path id="Trazado_50_1_" class="st9" d="M-223.3,42.8c0-3.3,2.7-6.1,6.1-6.1s6.1,2.7,6.1,6.1"/>
<path id="Trazado_51_1_" class="st9" d="M-180.8,42.8c0-3.3,2.8-6,6.1-6c3.3,0,5.9,2.7,6,6"/>
<circle id="Elipse_23_1_" class="st3" cx="-174.8" cy="55.7" r="6.1"/>
<path id="Trazado_52_1_" class="st9" d="M-181,73.8c0,0-13.2,16.1-29,0.3"/>
<circle id="Elipse_33_1_" class="st11" cx="801.5" cy="62" r="51.7"/>
<g id="Grupo_173_1_" transform="translate(-524.864 -221.357)">
	<path id="Trazado_187_1_" class="st14" d="M1313.5,265.5"/>
	<path id="Trazado_188_1_" class="st9" d="M1349.9,261.5c0-2.4-1.7-4.5-4-4.9c-0.2-2.6-2.4-4.6-5-4.6c-0.2,0-0.5,0-0.8,0.1
		c-4.4-1.1-8.6-3-12.3-5.6c-2.4,0-4.5,1.7-4.9,4.1c-2.5,2.5-6.4,2.9-9.4,1c-2.8,0-5,2.2-5,5l0,0c0,0,0,0,0,0c-0.2,0-0.4,0-0.7,0
		c-2.8,0-5,2.2-5,5l0,0"/>
	<g id="Grupo_172_1_">
		<path id="Trazado_189_1_" class="st9" d="M1345.2,319.9h-37.3l-4.1-43.4h45.3L1345.2,319.9z"/>
		<circle id="Elipse_68_1_" class="st9" cx="1326.3" cy="298.2" r="10.4"/>
		<line id="Línea_50_1_" class="st9" x1="1317.8" y1="276.5" x2="1318.2" y2="291.7"/>
		<line id="Línea_51_1_" class="st9" x1="1334.9" y1="276.5" x2="1334.4" y2="291.7"/>
		<line id="Línea_52_1_" class="st9" x1="1318.7" y1="305.2" x2="1319.1" y2="319.9"/>
		<line id="Línea_53_1_" class="st9" x1="1333.9" y1="305.2" x2="1333.4" y2="319.9"/>
		<rect id="Rectángulo_113_1_" x="1301.6" y="268.1" class="st9" width="49.7" height="8.4"/>
	</g>
	<path id="Trazado_190_1_" class="st9" d="M1315.2,261.2c0.8-2,3.1-3,5.1-2.2"/>
	<path id="Trazado_191_1_" class="st9" d="M1332.8,258c2.1-0.7,4.3,0.4,5,2.4"/>
</g>
<g id="Grupo_188_2_" transform="translate(152 -432)">
	<circle id="Elipse_34_3_" class="st15" cx="-348.3" cy="749.1" r="51.7"/>
	<g id="Grupo_174_2_" transform="translate(2.001)">
		<path id="Trazado_186_3_" class="st16" d="M-329.1,746.6c0,11.6-9.4,20.9-20.9,20.9s-20.9-9.4-20.9-20.9"/>
		<line id="Línea_40_3_" class="st9" x1="-350.1" y1="767.6" x2="-350.1" y2="786.3"/>
		<line id="Línea_41_3_" class="st9" x1="-362.8" y1="786.3" x2="-336.8" y2="786.3"/>
		<path id="Rectángulo_112_3_" class="st16" d="M-350.1,711.1L-350.1,711.1c7,0,12.8,5.7,12.8,12.8V746c0,7-5.7,12.8-12.8,12.8l0,0
			c-7,0-12.8-5.7-12.8-12.8v-22.1C-362.8,716.8-357.1,711.1-350.1,711.1z"/>
		<line id="Línea_42_3_" class="st9" x1="-362.8" y1="725.7" x2="-356" y2="725.7"/>
		<line id="Línea_44_3_" class="st9" x1="-362.8" y1="734.7" x2="-356" y2="734.7"/>
		<line id="Línea_45_3_" class="st9" x1="-362.8" y1="743.7" x2="-356" y2="743.7"/>
		<line id="Línea_46_3_" class="st9" x1="-344.1" y1="725.7" x2="-337.3" y2="725.7"/>
		<line id="Línea_48_3_" class="st9" x1="-344.1" y1="734.7" x2="-337.3" y2="734.7"/>
		<line id="Línea_49_3_" class="st9" x1="-344.1" y1="743.7" x2="-337.3" y2="743.7"/>
	</g>
</g>
<circle id="Elipse_33_2_" class="st15" cx="59.3" cy="60.1" r="51.7"/>
<g id="Grupo_173_3_" transform="translate(-524.864 -221.357)">
	<path id="Trazado_187_3_" class="st14" d="M571.2,263.6"/>
	<path id="Trazado_188_3_" class="st9" d="M607.6,259.6c0-2.4-1.7-4.5-4-4.9c-0.2-2.6-2.4-4.6-5-4.6c-0.2,0-0.5,0-0.8,0.1
		c-4.4-1.1-8.5-3-12.3-5.6c-2.4,0-4.5,1.7-4.9,4.1c-2.5,2.5-6.4,2.9-9.4,1c-2.8,0-5,2.2-5,5l0,0c0,0,0,0,0,0c-0.2,0-0.5,0-0.7,0
		c-2.8,0-5,2.2-5,5l0,0"/>
	<g id="Grupo_172_3_">
		<path id="Trazado_189_3_" class="st9" d="M602.9,318h-37.3l-4.1-43.4h45.3L602.9,318z"/>
		<circle id="Elipse_68_3_" class="st9" cx="584.1" cy="296.3" r="10.4"/>
		<line id="Línea_50_3_" class="st9" x1="575.5" y1="274.6" x2="576" y2="289.8"/>
		<line id="Línea_51_3_" class="st9" x1="592.6" y1="274.6" x2="592.1" y2="289.8"/>
		<line id="Línea_52_3_" class="st9" x1="576.4" y1="303.3" x2="576.9" y2="318"/>
		<line id="Línea_53_3_" class="st9" x1="591.6" y1="303.3" x2="591.1" y2="318"/>
		<rect id="Rectángulo_113_3_" x="559.3" y="266.2" class="st9" width="49.7" height="8.4"/>
	</g>
	<path id="Trazado_190_3_" class="st9" d="M573,259.3c0.8-2,3.1-3,5.1-2.2"/>
	<path id="Trazado_191_3_" class="st9" d="M590.6,256c2-0.7,4.3,0.4,5,2.4"/>
</g>
<path id="Rectángulo_37_1_" class="st12" d="M-679.5,1384.3h129c37.5,0,67.9,30.4,67.9,67.9l0,0c0,37.5-30.4,67.9-67.9,67.9h-129
	c-37.5,0-67.9-30.4-67.9-67.9l0,0C-747.5,1414.7-717,1384.3-679.5,1384.3z"/>
<g id="Grupo_174_1_" transform="translate(-820.998 -467.103)">
	<path id="Trazado_186_4_" class="st9" d="M165.4,1916.8c0,11.6-9.4,20.9-20.9,20.9s-20.9-9.4-20.9-20.9"/>
	<line id="Línea_40_4_" class="st9" x1="144.5" y1="1937.8" x2="144.5" y2="1956.5"/>
	<line id="Línea_41_4_" class="st9" x1="131.7" y1="1956.5" x2="157.7" y2="1956.5"/>
	<path id="Rectángulo_112_4_" class="st9" d="M144.5,1881.3L144.5,1881.3c7.1,0,12.8,5.7,12.8,12.8v22.1c0,7.1-5.7,12.8-12.8,12.8
		l0,0c-7.1,0-12.8-5.7-12.8-12.8v-22.1C131.7,1887,137.4,1881.3,144.5,1881.3z"/>
	<line id="Línea_42_4_" class="st9" x1="131.7" y1="1895.9" x2="138.5" y2="1895.9"/>
	<line id="Línea_44_4_" class="st9" x1="131.7" y1="1904.9" x2="138.5" y2="1904.9"/>
	<line id="Línea_45_4_" class="st9" x1="131.7" y1="1913.9" x2="138.5" y2="1913.9"/>
	<line id="Línea_46_4_" class="st9" x1="150.4" y1="1895.9" x2="157.2" y2="1895.9"/>
	<line id="Línea_48_4_" class="st9" x1="150.4" y1="1904.9" x2="157.2" y2="1904.9"/>
	<line id="Línea_49_4_" class="st9" x1="150.4" y1="1913.9" x2="157.2" y2="1913.9"/>
</g>
<g id="Grupo_173_4_" transform="translate(-535.864 214.643)">
	<path id="Trazado_187_4_" class="st14" d="M-30.7,1219.6"/>
	<path id="Trazado_188_4_" class="st9" d="M5.7,1215.6c0-2.4-1.7-4.4-4-4.9c-0.2-2.6-2.4-4.6-5-4.6c-0.2,0-0.5,0-0.7,0.1
		c-4.4-1.1-8.5-3-12.3-5.6c-2.4,0-4.5,1.7-4.9,4.1c-2.5,2.5-6.4,2.9-9.4,1c-2.8,0-5,2.2-5,5l0,0c0,0,0,0,0,0.1
		c-0.2,0-0.5-0.1-0.7-0.1c-2.8,0-5,2.2-5,5l0,0"/>
	<g id="Grupo_172_4_">
		<path id="Trazado_189_4_" class="st9" d="M1,1274.1h-37.3l-4.1-43.4H4.9L1,1274.1z"/>
		
			<ellipse id="Elipse_68_4_" transform="matrix(1 -8.770912e-03 8.770912e-03 1 -10.9851 -0.1086)" class="st9" cx="-17.9" cy="1252.4" rx="10.4" ry="10.4"/>
		<line id="Línea_50_4_" class="st9" x1="-26.4" y1="1230.7" x2="-26" y2="1245.9"/>
		<line id="Línea_51_4_" class="st9" x1="-9.3" y1="1230.7" x2="-9.8" y2="1245.8"/>
		<line id="Línea_52_4_" class="st9" x1="-25.5" y1="1259.3" x2="-25.1" y2="1274.1"/>
		<line id="Línea_53_4_" class="st9" x1="-10.3" y1="1259.3" x2="-10.8" y2="1274.1"/>
		<rect id="Rectángulo_113_4_" x="-42.6" y="1222.3" class="st9" width="49.7" height="8.4"/>
	</g>
	<path id="Trazado_190_4_" class="st9" d="M-29,1215.4c0.8-2,3.1-3,5.1-2.2"/>
	<path id="Trazado_191_4_" class="st9" d="M-11.4,1212.1c2-0.7,4.3,0.3,5,2.4"/>
</g>
<circle id="Elipse_53_1_" class="st2" cx="-827.2" cy="1834.6" r="25.7"/>
<path id="Rectángulo_73_1_" class="st6" d="M-827.2,1823.8L-827.2,1823.8c1,0,1.8,0.8,1.8,1.8v17.9c0,1-0.8,1.8-1.8,1.8l0,0
	c-1,0-1.8-0.8-1.8-1.8v-17.9C-829,1824.6-828.2,1823.8-827.2,1823.8z"/>
<path id="Rectángulo_74_1_" class="st6" d="M-816.5,1834.6L-816.5,1834.6c0,1-0.8,1.8-1.8,1.8h-17.9c-1,0-1.8-0.8-1.8-1.8l0,0
	c0-1,0.8-1.8,1.8-1.8h17.9C-817.3,1832.8-816.5,1833.6-816.5,1834.6z"/>
<circle id="Elipse_60" class="st6" cx="-622.2" cy="1832.4" r="25.7"/>
<path id="Rectángulo_97" class="st2" d="M-622.2,1821.7L-622.2,1821.7c1,0,1.8,0.8,1.8,1.8v17.9c0,1-0.8,1.8-1.8,1.8l0,0
	c-1,0-1.8-0.8-1.8-1.8v-17.9C-624,1822.5-623.2,1821.7-622.2,1821.7z"/>
<path id="Rectángulo_98" class="st2" d="M-611.5,1832.4L-611.5,1832.4c0,1-0.8,1.8-1.8,1.8h-17.9c-1,0-1.8-0.8-1.8-1.8l0,0
	c0-1,0.8-1.8,1.8-1.8h17.9C-612.3,1830.7-611.5,1831.4-611.5,1832.4z"/>
<path id="Trazado_124_1_" class="st2" d="M-752.8,2898.5c19.6,0,35.5-15.9,35.5-35.5c0.1-56.3,45.7-101.9,101.9-101.9
	c56.3,0.1,101.9,45.7,101.9,101.9c0,19.6,15.9,35.5,35.5,35.5c19.6,0,35.5-15.9,35.5-35.5c0.1-45.9-18.1-89.9-50.6-122.2
	c-32.4-32.5-76.4-50.8-122.2-50.6c-45.9-0.1-89.9,18.1-122.2,50.6c-32.5,32.4-50.8,76.4-50.6,122.2
	C-788.3,2882.6-772.4,2898.5-752.8,2898.5L-752.8,2898.5z"/>
<g>
	<g id="Grupo_132_1_" transform="translate(47.033 54.45)">
		<path id="Trazado_125_1_" class="st6" d="M-666.1,3367c6.6,0,12.9,2.7,17.4,7.6h9.6c-5.7-9.5-16-15.2-27-15.2
			c-11-0.1-21.3,5.7-27,15.2h9.6C-679,3369.8-672.7,3367-666.1,3367z"/>
	</g>
	<path id="Trazado_126_1_" class="st6" d="M-693.1,3406l5.1-30.1h7.7l6,16.1l5.9-16.1h7.7l5.1,30.1h-7.7l-2.6-17.3l-7,17.3h-3.1
		l-6.7-17.3l-2.6,17.3H-693.1z"/>
	<path id="Trazado_127_1_" class="st6" d="M-654,3390.2c0-2.1,0.4-4.2,1.2-6.2c0.8-1.9,2-3.6,3.4-5c1.5-1.4,3.3-2.6,5.2-3.4
		c2.1-0.8,4.4-1.2,6.7-1.2c2.3,0,4.5,0.4,6.7,1.2c2,0.8,3.7,1.9,5.2,3.4c1.5,1.4,2.6,3.1,3.4,5c0.8,2,1.2,4.1,1.2,6.2
		c0,2.1-0.4,4.2-1.2,6.2c-0.8,1.9-2,3.6-3.4,5c-1.5,1.4-3.3,2.6-5.2,3.4c-2.1,0.8-4.4,1.2-6.7,1.2c-2.3,0-4.5-0.4-6.7-1.2
		c-1.9-0.8-3.7-1.9-5.2-3.4c-1.5-1.4-2.6-3.1-3.4-5C-653.6,3394.5-654,3392.4-654,3390.2z M-645.9,3390.2c0,1.1,0.2,2.2,0.7,3.3
		c0.4,1,1,1.9,1.8,2.6c0.8,0.7,1.7,1.3,2.7,1.7c1,0.4,2.1,0.6,3.2,0.6c1.1,0,2.2-0.2,3.2-0.6c1-0.4,1.9-1,2.7-1.7s1.4-1.6,1.8-2.6
		c0.5-1,0.7-2.2,0.7-3.3c0-1.1-0.2-2.2-0.7-3.3c-0.4-1-1.1-1.9-1.8-2.6s-1.7-1.3-2.7-1.7c-1-0.4-2.1-0.6-3.2-0.6
		c-1.1,0-2.2,0.2-3.2,0.6c-1,0.4-1.9,1-2.7,1.7c-0.8,0.8-1.4,1.6-1.8,2.6C-645.6,3388-645.9,3389.1-645.9,3390.2z"/>
	<path id="Trazado_128_1_" class="st6" d="M-617,3390.2c0-2.1,0.4-4.2,1.2-6.2c0.8-1.9,2-3.6,3.4-5c1.5-1.4,3.3-2.6,5.2-3.4
		c2.1-0.8,4.4-1.2,6.7-1.2c2.3,0,4.5,0.4,6.7,1.2c2,0.8,3.7,1.9,5.2,3.4c1.5,1.4,2.6,3.1,3.4,5c0.8,2,1.2,4.1,1.2,6.2
		c0,2.1-0.4,4.2-1.2,6.2c-0.8,1.9-2,3.6-3.4,5c-1.5,1.5-3.3,2.6-5.2,3.4c-2.1,0.8-4.4,1.2-6.7,1.2c-2.3,0-4.5-0.4-6.7-1.2
		c-1.9-0.8-3.7-1.9-5.2-3.4c-1.5-1.4-2.6-3.1-3.4-5C-616.6,3394.5-617,3392.4-617,3390.2z M-608.9,3390.2c0,1.1,0.2,2.2,0.7,3.3
		c0.4,1,1,1.9,1.8,2.6c0.8,0.7,1.7,1.3,2.7,1.7c1,0.4,2.1,0.6,3.2,0.6c1.1,0,2.2-0.2,3.2-0.6c1-0.4,1.9-1,2.7-1.7s1.4-1.6,1.8-2.6
		c0.5-1,0.7-2.2,0.7-3.3c0-1.1-0.2-2.2-0.7-3.3c-0.4-1-1.1-1.9-1.8-2.6s-1.7-1.3-2.7-1.7c-1-0.4-2.1-0.6-3.2-0.6
		c-1.1,0-2.2,0.2-3.2,0.6c-1,0.4-1.9,1-2.7,1.7c-0.8,0.8-1.4,1.6-1.8,2.6C-608.7,3388-608.9,3389.1-608.9,3390.2L-608.9,3390.2z"/>
	<path id="Trazado_129_1_" class="st6" d="M-580,3375.9h11.5c2,0,3.9,0.4,5.7,1.2c1.8,0.8,3.3,1.9,4.7,3.3c1.3,1.4,2.4,3,3.2,4.8
		c0.8,1.8,1.2,3.8,1.2,5.7c0,1.9-0.4,3.9-1.1,5.7c-0.7,1.8-1.8,3.4-3.1,4.8c-1.3,1.4-2.9,2.5-4.7,3.3c-1.8,0.8-3.8,1.2-5.8,1.2H-580
		V3375.9z M-572.2,3399.4h1.8c1.2,0,2.5-0.2,3.6-0.6c1-0.4,1.9-1,2.7-1.8c0.7-0.8,1.3-1.7,1.7-2.6c0.4-1.1,0.6-2.2,0.6-3.4
		c0-1.1-0.2-2.3-0.6-3.4c-0.4-1-0.9-1.9-1.7-2.7c-0.8-0.8-1.7-1.4-2.7-1.8c-1.1-0.4-2.3-0.7-3.6-0.6h-1.8L-572.2,3399.4z"/>
	<rect id="Rectángulo_83_1_" x="-646" y="3359.4" class="st6" width="22.5" height="7.5"/>
	<rect id="Rectángulo_84_1_" x="-614.4" y="3359.4" class="st6" width="22.5" height="7.5"/>
</g>
<g>
	<g id="Grupo_98" transform="translate(47.035 54.451)">
		<path id="Trazado_90" class="st6" d="M-61.3,3070.8c-6.6,0-12.9-2.7-17.4-7.6h-9.6c9.1,14.9,28.5,19.7,43.4,10.6
			c4.3-2.6,8-6.3,10.6-10.6h-9.6C-48.3,3068.1-54.7,3070.8-61.3,3070.8z"/>
	</g>
	<path id="Trazado_91" class="st6" d="M-88.3,3109.8l5.1-30.1h7.7l6,16.1l5.9-16.1h7.7l5.1,30.1h-7.7l-2.6-17.3l-7.1,17.3h-3.1
		l-6.7-17.3l-2.6,17.3H-88.3z"/>
	<path id="Trazado_92" class="st6" d="M-49.2,3094c-0.1-6.4,3.8-12.2,9.8-14.6c4.3-1.6,9-1.6,13.3,0c2,0.8,3.7,1.9,5.2,3.4
		c1.5,1.4,2.6,3.1,3.4,5c1.6,4,1.6,8.4,0,12.4c-0.8,1.9-2,3.6-3.4,5c-1.5,1.4-3.3,2.6-5.2,3.4c-4.3,1.6-9,1.6-13.3,0
		C-45.3,3106.2-49.2,3100.4-49.2,3094L-49.2,3094z M-41.1,3094c0,1.1,0.2,2.2,0.7,3.3c0.9,2,2.5,3.5,4.5,4.3
		c3.1,1.3,6.7,0.6,9.2-1.7c0.8-0.7,1.4-1.6,1.8-2.6c0.9-2.1,0.9-4.5,0-6.6c-0.4-1-1.1-1.9-1.8-2.6c-0.8-0.7-1.7-1.3-2.7-1.7
		c-2.1-0.8-4.4-0.8-6.5,0c-1,0.4-1.9,1-2.7,1.7c-0.8,0.8-1.4,1.6-1.8,2.6C-40.8,3091.8-41.1,3092.9-41.1,3094z"/>
	<path id="Trazado_93" class="st6" d="M-12.2,3094c-0.1-6.4,3.8-12.2,9.8-14.6c4.3-1.6,9-1.6,13.3,0c2,0.8,3.7,1.9,5.2,3.4
		c1.5,1.4,2.6,3.1,3.4,5c1.6,4,1.6,8.4,0,12.4c-0.8,1.9-2,3.6-3.4,5c-1.5,1.4-3.3,2.6-5.2,3.4c-4.3,1.6-9,1.6-13.3,0
		C-8.3,3106.2-12.3,3100.4-12.2,3094L-12.2,3094z M-4.1,3094c0,1.1,0.2,2.2,0.7,3.3c0.9,2,2.5,3.5,4.5,4.3c2.1,0.8,4.4,0.8,6.5,0
		c1-0.4,1.9-1,2.7-1.7s1.4-1.6,1.8-2.6c0.9-2.1,0.9-4.5,0-6.6c-0.4-1-1.1-1.9-1.8-2.6c-0.8-0.7-1.7-1.3-2.7-1.7
		c-2.1-0.8-4.4-0.8-6.5,0c-1,0.4-1.9,1-2.7,1.7c-0.8,0.8-1.4,1.6-1.8,2.6C-3.9,3091.8-4.1,3092.9-4.1,3094z"/>
	<path id="Trazado_94" class="st6" d="M24.8,3079.7h11.5c2,0,3.9,0.4,5.7,1.2c1.8,0.8,3.3,1.9,4.7,3.3c1.3,1.4,2.4,3,3.2,4.8
		c1.5,3.6,1.5,7.8,0,11.4c-0.7,1.8-1.8,3.4-3.1,4.8c-1.3,1.4-2.9,2.5-4.7,3.3c-1.8,0.8-3.8,1.2-5.8,1.2H24.8V3079.7z M32.6,3103.1
		h1.8c1.2,0,2.4-0.2,3.6-0.6c1-0.4,1.9-1,2.7-1.8c0.7-0.8,1.3-1.7,1.7-2.7c0.4-1.1,0.6-2.2,0.6-3.4c0-1.1-0.2-2.3-0.6-3.4
		c-0.7-2-2.3-3.7-4.4-4.4c-1.1-0.4-2.3-0.7-3.6-0.6h-1.8L32.6,3103.1z"/>
	<rect id="Rectángulo_56" x="-41.2" y="3063.2" class="st6" width="22.5" height="7.5"/>
	<rect id="Rectángulo_57" x="-9.6" y="3063.2" class="st6" width="22.5" height="7.5"/>
</g>
</svg>
