<?xml version="1.0" encoding="utf-8"?>
<!-- Generator: Adobe Illustrator 24.0.0, SVG Export Plug-In . SVG Version: 6.00 Build 0)  -->
<svg version="1.1" id="Capa_1" xmlns="http://www.w3.org/2000/svg" xmlns:xlink="http://www.w3.org/1999/xlink" x="0px" y="0px"
	 viewBox="0 0 175.05 168.23" style="enable-background:new 0 0 175.05 168.23;" xml:space="preserve">
<style type="text/css">
	.st0{fill:#F5B15A;}
	.st1{fill:#EAE3DA;}
	.st2{fill:#E4D7CE;}
	.st3{fill:#002E61;}
	.st4{fill:#E45451;}
	.st5{fill:#E4D8CE;}
	.st6{fill:#1E244D;}
	.st7{fill:#F99A3D;}
	.st8{fill:none;stroke:#002E61;stroke-width:10;stroke-miterlimit:10;}
	.st9{fill:none;stroke:#002E61;stroke-width:5;stroke-linecap:round;stroke-linejoin:round;}
	.st10{fill:#E45451;stroke:#002E61;stroke-width:10;stroke-miterlimit:10;}
	.st11{fill:#F5B15A;stroke:#002E61;stroke-width:10;stroke-miterlimit:10;}
	.st12{fill:#E4D7CE;stroke:#002E61;stroke-width:10;stroke-miterlimit:10;}
	.st13{fill:none;stroke:#E4D7CE;stroke-width:5;stroke-linecap:round;stroke-linejoin:round;}
	.st14{fill:none;stroke:#002E61;stroke-width:2.37;stroke-linecap:round;stroke-linejoin:round;}
	.st15{fill:#E4D8CE;stroke:#002E61;stroke-width:10;stroke-miterlimit:10;}
	.st16{fill:#E4D8CE;stroke:#002E61;stroke-width:5;stroke-linecap:round;stroke-linejoin:round;}
</style>
<rect id="Rectángulo_36_1_" x="-3595.1" y="-1561.8" class="st0" width="1919.83" height="1080"/>
<g id="Grupo_201_1_" transform="translate(0 -7.083)">
	<g id="Grupo_10_1_" transform="translate(150 84.083)">
		<path id="Trazado_8_1_" class="st1" d="M-3592.87-732.17c2.94-6.98,8.59-12.47,15.66-15.19c7.81-2.93,16.42-2.93,24.23,0
			c3.55,1.37,6.8,3.44,9.54,6.08c2.66,2.59,4.78,5.69,6.23,9.11c2.98,7.22,2.98,15.32,0,22.54c-1.45,3.42-3.56,6.52-6.23,9.11
			c-2.74,2.64-5.99,4.71-9.54,6.09c-7.81,2.93-16.42,2.93-24.23,0c-14.7-6-21.76-22.78-15.76-37.49
			C-3592.93-732.01-3592.9-732.09-3592.87-732.17L-3592.87-732.17z M-3579.11-714.92c1.58,3.6,4.52,6.43,8.18,7.88
			c5.68,2.29,12.17,1.07,16.63-3.13c1.42-1.35,2.56-2.96,3.35-4.75c1.63-3.82,1.63-8.14,0-11.95c-0.79-1.79-1.93-3.4-3.35-4.75
			c-1.42-1.35-3.08-2.41-4.9-3.13c-3.77-1.49-7.96-1.49-11.73,0c-1.81,0.72-3.46,1.78-4.86,3.13c-1.4,1.36-2.53,2.97-3.31,4.75
			C-3580.75-723.06-3580.75-718.74-3579.11-714.92L-3579.11-714.92z"/>
		<rect id="Rectángulo_4_1_" x="-3571.88" y="-676.13" class="st1" width="13.68" height="40.85"/>
		<g id="Grupo_6_1_" transform="translate(7.948 405.244)">
			
				<rect id="Rectángulo_5_1_" x="-3550.23" y="-1470.46" transform="matrix(0.7071 -0.7071 0.7071 0.7071 1.0801 -2924.6387)" class="st1" width="40.85" height="13.68"/>
			<g id="Grupo_5_1_">
				<rect id="Rectángulo_6_1_" x="-3549.09" y="-1519.55" class="st1" width="98.18" height="13.68"/>
				<g id="Grupo_4_1_">
					<path id="Trazado_9_1_" class="st1" d="M-3581.29-1512.71c0.04-12.02-4.97-23.51-13.81-31.66v-17.43
						c27.11,16.48,35.73,51.81,19.26,78.92c-4.78,7.87-11.39,14.48-19.26,19.26v-17.44
						C-3586.26-1489.21-3581.25-1500.69-3581.29-1512.71z"/>
				</g>
			</g>
		</g>
		<g id="Grupo_9_1_" transform="translate(4.411)">
			<path id="Trazado_10_1_" class="st1" d="M-3556.55-1471.88c1.58,3.6,4.52,6.43,8.17,7.88c5.68,2.29,12.17,1.06,16.63-3.13
				c1.42-1.35,2.56-2.96,3.35-4.75c1.63-3.82,1.63-8.14,0-11.95c-0.79-1.79-1.93-3.4-3.35-4.75c-4.47-4.17-10.95-5.39-16.63-3.13
				c-1.81,0.72-3.46,1.78-4.86,3.13c-1.4,1.36-2.53,2.97-3.31,4.75C-3558.18-1480.02-3558.18-1475.7-3556.55-1471.88z"/>
			<g id="Grupo_7_1_" transform="translate(3.537 126.423)">
				<path id="Trazado_11_1_" class="st1" d="M-3546.01-1548c-12.02-0.04-23.5,4.97-31.65,13.81h-17.44
					c16.48-27.11,51.81-35.73,78.92-19.26c7.87,4.78,14.48,11.39,19.26,19.26h-17.44C-3522.5-1543.03-3533.99-1548.04-3546.01-1548z
					"/>
			</g>
			<g id="Grupo_8_1_">
				<path id="Trazado_12_1_" class="st1" d="M-3571.08-1561.8l-24.01,25.21l9.91,9.44l14.11-14.81l19.07,20.01l19.07-20.01
					l19.07,20.01l24.02-25.21l-9.9-9.44l-14.13,14.82l-19.07-20.01l-19.07,20.01L-3571.08-1561.8z"/>
			</g>
		</g>
	</g>
	<g id="Grupo_26_1_" transform="translate(1324 684.328)">
		
			<rect id="Rectángulo_5-2_1_" x="-3550.23" y="-1470.46" transform="matrix(0.7071 -0.7071 0.7071 0.7071 1.0801 -2924.6387)" class="st1" width="40.85" height="13.68"/>
		<g id="Grupo_5-2_1_" transform="translate(0 0)">
			<rect id="Rectángulo_6-2_1_" x="-3549.09" y="-1519.55" class="st1" width="98.18" height="13.68"/>
			<g id="Grupo_4-2_1_">
				<path id="Trazado_9-2_1_" class="st1" d="M-3581.29-1512.71c0.04-12.02-4.97-23.5-13.81-31.65v-17.44
					c17.21,10.35,27.71,29,27.61,49.09c0.09,20.09-10.4,38.74-27.61,49.09v-17.44C-3586.26-1489.21-3581.25-1500.69-3581.29-1512.71
					z"/>
			</g>
		</g>
	</g>
	<g id="Grupo_35_1_" transform="translate(0 186)">
		<path id="Trazado_8-2_1_" class="st1" d="M-3043.19-1380.83c-2.94,6.98-8.59,12.47-15.66,15.19c-7.81,2.93-16.42,2.93-24.23,0
			c-3.55-1.37-6.8-3.44-9.54-6.08c-2.66-2.59-4.78-5.69-6.23-9.11c-2.98-7.22-2.98-15.32,0-22.54c1.45-3.42,3.57-6.52,6.23-9.11
			c2.74-2.64,5.99-4.71,9.54-6.09c7.81-2.93,16.42-2.93,24.23,0c14.7,6,21.76,22.78,15.76,37.49
			C-3043.12-1380.99-3043.16-1380.91-3043.19-1380.83L-3043.19-1380.83z M-3056.94-1398.08c-1.58-3.6-4.52-6.43-8.18-7.88
			c-5.68-2.29-12.17-1.07-16.63,3.13c-1.42,1.35-2.56,2.96-3.35,4.75c-1.63,3.82-1.63,8.14,0,11.95c0.79,1.79,1.93,3.4,3.35,4.75
			c1.42,1.35,3.08,2.41,4.9,3.13c3.77,1.49,7.97,1.49,11.74,0c1.81-0.72,3.46-1.78,4.86-3.13c1.4-1.36,2.53-2.97,3.31-4.75
			C-3055.31-1389.94-3055.31-1394.26-3056.94-1398.08L-3056.94-1398.08z"/>
		<rect id="Rectángulo_4-2_1_" x="-3077.86" y="-1477.72" class="st1" width="13.68" height="40.85"/>
	</g>
	<g id="Grupo_6-2_1_" transform="translate(592.19 791.365) rotate(180)">
		
			<rect id="Rectángulo_5-3_1_" x="3639.96" y="1653.15" transform="matrix(0.7071 -0.7071 0.7071 0.7071 -101.6827 3074.4902)" class="st1" width="40.85" height="13.68"/>
		<g id="Grupo_5-3_1_">
			<rect id="Rectángulo_6-3_1_" x="3641.11" y="1604.05" class="st1" width="98.18" height="13.68"/>
			<g id="Grupo_4-3_1_">
				<path id="Trazado_9-3_1_" class="st1" d="M3608.9,1610.9c0.04-12.02-4.97-23.51-13.81-31.66v-17.43
					c27.11,16.48,35.73,51.81,19.26,78.92c-4.78,7.87-11.39,14.48-19.26,19.26v-17.44C3603.93,1634.4,3608.94,1622.92,3608.9,1610.9
					z"/>
			</g>
		</g>
	</g>
	<g id="Grupo_27_1_" transform="translate(1339.463 279.083)">
		<path id="Trazado_10-2_1_" class="st1" d="M-3556.55-1471.88c1.58,3.6,4.52,6.43,8.18,7.88c1.87,0.75,3.86,1.13,5.87,1.12
			c4,0.02,7.86-1.5,10.76-4.25c1.42-1.35,2.56-2.96,3.35-4.75c0.83-1.88,1.24-3.92,1.22-5.97c0.02-2.06-0.39-4.09-1.22-5.98
			c-0.79-1.79-1.93-3.4-3.35-4.75c-2.91-2.75-6.76-4.27-10.76-4.25c-2.01-0.01-4,0.37-5.87,1.11c-1.81,0.72-3.46,1.78-4.86,3.13
			c-1.4,1.36-2.53,2.97-3.31,4.75c-0.83,1.88-1.24,3.92-1.22,5.98C-3557.79-1475.81-3557.37-1473.77-3556.55-1471.88z"/>
		<g id="Grupo_7-2_1_" transform="translate(3.537 126.423)">
			<path id="Trazado_11-2_1_" class="st1" d="M-3546.01-1548c-12.02-0.04-23.5,4.97-31.65,13.81h-17.44
				c10.35-17.21,29-27.71,49.09-27.61c20.09-0.09,38.74,10.4,49.09,27.61h-17.44C-3522.5-1543.03-3533.99-1548.04-3546.01-1548z"/>
		</g>
		<g id="Grupo_8-2_1_">
			<path id="Trazado_12-2_1_" class="st1" d="M-3571.08-1561.8l-24.01,25.21l9.91,9.44l14.11-14.81l19.07,20.01l19.07-20.01
				l19.07,20.01l24.02-25.21l-9.9-9.44l-14.12,14.82l-19.07-20.02l-19.07,20.02L-3571.08-1561.8z"/>
		</g>
	</g>
	<g id="Grupo_25_1_" transform="translate(15.249)">
		<path id="Trazado_13_1_" class="st1" d="M-1842.58-1380.83c-2.94,6.98-8.59,12.47-15.66,15.19c-7.81,2.93-16.42,2.93-24.23,0
			c-3.55-1.37-6.8-3.44-9.54-6.08c-2.66-2.59-4.78-5.69-6.23-9.11c-2.98-7.22-2.98-15.32,0-22.54c1.45-3.42,3.57-6.52,6.23-9.11
			c2.74-2.64,5.99-4.71,9.54-6.08c7.81-2.93,16.42-2.93,24.23,0c14.7,6,21.76,22.78,15.76,37.48
			C-1842.51-1381-1842.54-1380.92-1842.58-1380.83L-1842.58-1380.83z M-1856.33-1398.08c-1.58-3.6-4.52-6.43-8.17-7.88
			c-3.77-1.49-7.97-1.49-11.74,0c-1.82,0.72-3.48,1.79-4.9,3.13c-1.42,1.35-2.56,2.96-3.35,4.75c-1.63,3.82-1.63,8.14,0,11.95
			c0.79,1.79,1.93,3.41,3.35,4.75c1.42,1.35,3.08,2.41,4.9,3.13c3.77,1.49,7.97,1.49,11.74,0c1.81-0.72,3.46-1.78,4.86-3.13
			c1.4-1.36,2.53-2.97,3.31-4.75C-1854.7-1389.94-1854.7-1394.26-1856.33-1398.08z"/>
		<rect id="Rectángulo_7_1_" x="-1877.25" y="-1477.72" class="st1" width="13.68" height="40.85"/>
		<g id="Grupo_13_1_" transform="translate(1602.612 487.904)">
			
				<rect id="Rectángulo_8_1_" x="-3536.62" y="-1549.37" transform="matrix(0.7071 -0.7071 0.7071 0.7071 60.8621 -2938.1191)" class="st1" width="40.85" height="13.68"/>
			<g id="Grupo_12_1_" transform="translate(0 19.278)">
				<rect id="Rectángulo_9_1_" x="-3595.1" y="-1519.55" class="st1" width="98.18" height="13.68"/>
				<g id="Grupo_11_1_" transform="translate(116.577)">
					<path id="Trazado_14_1_" class="st1" d="M-3581.29-1512.71c-0.04,12.02,4.97,23.5,13.81,31.65v17.44
						c-27.11-16.47-35.74-51.81-19.26-78.92c4.78-7.87,11.39-14.48,19.26-19.26v17.44
						C-3576.32-1536.22-3581.33-1524.73-3581.29-1512.71z"/>
				</g>
			</g>
		</g>
		<g id="Grupo_16_1_" transform="translate(1645.084 856.573)">
			<path id="Trazado_15_1_" class="st1" d="M-3528.39-1497.69c-1.58-3.6-4.52-6.43-8.17-7.88c-5.68-2.29-12.17-1.07-16.63,3.13
				c-1.42,1.35-2.56,2.96-3.35,4.75c-1.63,3.82-1.63,8.14,0,11.95c0.79,1.79,1.93,3.41,3.35,4.75c1.42,1.35,3.08,2.41,4.9,3.13
				c3.77,1.49,7.97,1.49,11.74,0c1.81-0.72,3.46-1.78,4.86-3.13c1.4-1.36,2.53-2.97,3.31-4.75
				C-3526.76-1489.55-3526.76-1493.87-3528.39-1497.69L-3528.39-1497.69z"/>
			<g id="Grupo_14_1_" transform="translate(3.537)">
				<path id="Trazado_16_1_" class="st1" d="M-3546.01-1548c12.02,0.04,23.5-4.97,31.65-13.81h17.44
					c-16.48,27.11-51.81,35.73-78.92,19.26c-7.87-4.78-14.48-11.39-19.26-19.26h17.44
					C-3569.51-1552.97-3558.03-1547.96-3546.01-1548z"/>
			</g>
			<g id="Grupo_15_1_" transform="translate(0 114.188)">
				<path id="Trazado_17_1_" class="st1" d="M-3513.86-1521.96l24.01-25.21l-9.91-9.44l-14.11,14.81l-19.07-20.01l-19.07,20.02
					l-19.07-20.01l-24.03,25.21l9.9,9.44l14.12-14.82l19.08,20.01l19.07-20.01L-3513.86-1521.96z"/>
			</g>
		</g>
	</g>
</g>
<rect id="Rectángulo_51" x="-3594.57" y="-178.23" class="st2" width="1919.83" height="1080"/>
<g id="Grupo_203" transform="translate(0 -7.083)">
	<g id="Grupo_10" transform="translate(150 84.083)">
		<path id="Trazado_8" class="st3" d="M-3592.34,651.41c2.94-6.98,8.59-12.47,15.66-15.19c7.81-2.93,16.42-2.93,24.23,0
			c3.55,1.37,6.8,3.44,9.54,6.08c2.66,2.59,4.78,5.69,6.23,9.11c2.98,7.22,2.98,15.32,0,22.54c-1.45,3.42-3.56,6.52-6.23,9.11
			c-2.74,2.64-5.99,4.71-9.54,6.09c-7.81,2.93-16.42,2.93-24.23,0c-14.7-6-21.76-22.78-15.76-37.49
			C-3592.41,651.57-3592.37,651.49-3592.34,651.41L-3592.34,651.41z M-3578.59,668.66c1.58,3.6,4.52,6.43,8.18,7.88
			c5.68,2.29,12.17,1.07,16.63-3.13c1.42-1.35,2.56-2.96,3.35-4.75c1.63-3.82,1.63-8.14,0-11.95c-0.79-1.79-1.93-3.4-3.35-4.75
			c-1.42-1.35-3.08-2.41-4.9-3.13c-3.77-1.49-7.96-1.49-11.73,0c-1.81,0.72-3.46,1.78-4.86,3.13c-1.4,1.36-2.53,2.97-3.31,4.75
			C-3580.22,660.52-3580.22,664.84-3578.59,668.66L-3578.59,668.66z"/>
		<rect id="Rectángulo_4" x="-3571.35" y="707.45" class="st3" width="13.68" height="40.85"/>
		<g id="Grupo_6" transform="translate(7.948 405.244)">
			
				<rect id="Rectángulo_5" x="-3549.71" y="-86.88" transform="matrix(0.7071 -0.7071 0.7071 0.7071 -977.1038 -2519.0256)" class="st3" width="40.85" height="13.68"/>
			<g id="Grupo_5">
				<rect id="Rectángulo_6" x="-3548.56" y="-135.98" class="st3" width="98.18" height="13.68"/>
				<g id="Grupo_4">
					<path id="Trazado_9" class="st3" d="M-3580.76-129.13c0.04-12.02-4.97-23.51-13.81-31.66v-17.43
						c27.11,16.48,35.73,51.81,19.26,78.92c-4.78,7.87-11.39,14.48-19.26,19.26v-17.44
						C-3585.74-105.63-3580.73-117.12-3580.76-129.13z"/>
				</g>
			</g>
		</g>
		<g id="Grupo_9" transform="translate(4.411)">
			<path id="Trazado_10" class="st3" d="M-3556.02-88.31c1.58,3.6,4.52,6.43,8.18,7.88c5.68,2.29,12.17,1.06,16.63-3.13
				c1.42-1.35,2.56-2.96,3.35-4.75c1.63-3.82,1.63-8.14,0-11.96c-0.79-1.79-1.93-3.4-3.35-4.75c-4.48-4.17-10.95-5.39-16.63-3.13
				c-1.81,0.72-3.46,1.78-4.86,3.13c-1.4,1.36-2.53,2.97-3.31,4.75C-3557.65-96.44-3557.65-92.12-3556.02-88.31z"/>
			<g id="Grupo_7" transform="translate(3.537 126.423)">
				<path id="Trazado_11" class="st3" d="M-3545.48-164.42c-12.02-0.04-23.5,4.97-31.65,13.81h-17.44
					c16.48-27.11,51.81-35.73,78.92-19.26c7.87,4.78,14.48,11.39,19.26,19.26h-17.44C-3521.98-159.45-3533.46-164.46-3545.48-164.42
					z"/>
			</g>
			<g id="Grupo_8">
				<path id="Trazado_12" class="st3" d="M-3570.56-178.23l-24.01,25.21l9.91,9.44l14.11-14.81l19.07,20.01l19.07-20.01l19.07,20.01
					l24.02-25.21l-9.9-9.44l-14.13,14.82l-19.07-20.01l-19.07,20.01L-3570.56-178.23z"/>
			</g>
		</g>
	</g>
	<g id="Grupo_26" transform="translate(1324 684.328)">
		
			<rect id="Rectángulo_5-2" x="-3549.71" y="-86.88" transform="matrix(0.7071 -0.7071 0.7071 0.7071 -977.1038 -2519.0256)" class="st3" width="40.85" height="13.68"/>
		<g id="Grupo_5-2" transform="translate(0 0)">
			<rect id="Rectángulo_6-2" x="-3548.56" y="-135.98" class="st3" width="98.18" height="13.68"/>
			<g id="Grupo_4-2">
				<path id="Trazado_9-2" class="st3" d="M-3580.76-129.13c0.04-12.02-4.97-23.5-13.81-31.65v-17.44
					c17.21,10.35,27.71,29,27.61,49.09c0.09,20.09-10.4,38.74-27.61,49.09v-17.44C-3585.74-105.63-3580.73-117.12-3580.76-129.13z"
					/>
			</g>
		</g>
	</g>
	<g id="Grupo_35" transform="translate(0 186)">
		<path id="Trazado_8-2" class="st3" d="M-3042.66,2.75c-2.94,6.98-8.59,12.47-15.66,15.19c-7.81,2.93-16.42,2.93-24.23,0
			c-3.55-1.37-6.8-3.44-9.54-6.08c-2.66-2.59-4.78-5.69-6.23-9.11c-2.98-7.22-2.98-15.32,0-22.54c1.45-3.42,3.57-6.52,6.23-9.11
			c2.74-2.64,5.99-4.71,9.54-6.09c7.81-2.93,16.42-2.93,24.23,0c14.7,6,21.76,22.78,15.76,37.49
			C-3042.6,2.58-3042.63,2.67-3042.66,2.75L-3042.66,2.75z M-3056.42-14.5c-1.58-3.6-4.52-6.43-8.17-7.88
			c-5.68-2.29-12.17-1.07-16.63,3.13c-1.42,1.35-2.56,2.96-3.35,4.75c-1.63,3.82-1.63,8.14,0,11.95c0.79,1.79,1.93,3.4,3.35,4.75
			c1.42,1.35,3.08,2.41,4.9,3.13c3.77,1.49,7.97,1.49,11.74,0c1.81-0.72,3.46-1.78,4.86-3.13c1.4-1.36,2.53-2.97,3.31-4.75
			C-3054.78-6.36-3054.78-10.68-3056.42-14.5L-3056.42-14.5z"/>
		<rect id="Rectángulo_4-2" x="-3077.33" y="-94.14" class="st3" width="13.68" height="40.85"/>
	</g>
	<g id="Grupo_6-2" transform="translate(592.19 791.365) rotate(180)">
		
			<rect id="Rectángulo_5-3" x="3639.43" y="269.57" transform="matrix(0.7071 -0.7071 0.7071 0.7071 876.5037 2668.8748)" class="st3" width="40.85" height="13.68"/>
		<g id="Grupo_5-3">
			<rect id="Rectángulo_6-3" x="3640.58" y="220.48" class="st3" width="98.18" height="13.68"/>
			<g id="Grupo_4-3">
				<path id="Trazado_9-3" class="st3" d="M3608.38,227.32c0.04-12.02-4.97-23.51-13.81-31.66v-17.43
					c27.11,16.48,35.73,51.81,19.26,78.92c-4.78,7.87-11.39,14.48-19.26,19.26v-17.44C3603.41,250.82,3608.42,239.34,3608.38,227.32
					z"/>
			</g>
		</g>
	</g>
	<g id="Grupo_27" transform="translate(1339.463 279.083)">
		<path id="Trazado_10-2" class="st3" d="M-3556.02-88.31c1.58,3.6,4.52,6.43,8.18,7.88c1.87,0.75,3.86,1.13,5.87,1.12
			c4,0.02,7.86-1.5,10.77-4.25c1.42-1.35,2.56-2.96,3.35-4.75c0.83-1.88,1.24-3.92,1.22-5.97c0.02-2.06-0.39-4.09-1.22-5.98
			c-0.79-1.79-1.93-3.4-3.35-4.75c-2.91-2.75-6.76-4.27-10.77-4.25c-2.01-0.01-4,0.37-5.87,1.11c-1.81,0.72-3.46,1.78-4.86,3.13
			c-1.4,1.36-2.53,2.97-3.31,4.75c-0.83,1.88-1.24,3.92-1.22,5.98C-3557.27-92.23-3556.85-90.19-3556.02-88.31z"/>
		<g id="Grupo_7-2" transform="translate(3.537 126.423)">
			<path id="Trazado_11-2" class="st3" d="M-3545.48-164.42c-12.02-0.04-23.5,4.97-31.65,13.81h-17.44
				c10.35-17.21,29-27.71,49.09-27.61c20.09-0.09,38.74,10.4,49.09,27.61h-17.44C-3521.98-159.45-3533.46-164.46-3545.48-164.42z"/>
		</g>
		<g id="Grupo_8-2">
			<path id="Trazado_12-2" class="st3" d="M-3570.56-178.23l-24.01,25.21l9.91,9.44l14.11-14.81l19.07,20.01l19.07-20.01
				l19.07,20.01l24.02-25.21l-9.9-9.44l-14.12,14.82l-19.07-20.02l-19.07,20.02L-3570.56-178.23z"/>
		</g>
	</g>
	<g id="Grupo_25" transform="translate(15.249)">
		<path id="Trazado_13" class="st3" d="M-1842.05,2.75c-2.94,6.98-8.59,12.47-15.66,15.19c-7.81,2.93-16.42,2.93-24.23,0
			c-3.55-1.37-6.8-3.44-9.54-6.08c-2.66-2.59-4.78-5.69-6.23-9.11c-2.98-7.22-2.98-15.32,0-22.54c1.45-3.42,3.57-6.52,6.23-9.11
			c2.74-2.64,5.99-4.71,9.54-6.08c7.81-2.93,16.42-2.93,24.23,0c14.7,6,21.76,22.78,15.76,37.48
			C-1841.98,2.58-1842.02,2.66-1842.05,2.75L-1842.05,2.75z M-1855.8-14.5c-1.58-3.6-4.52-6.43-8.17-7.88
			c-3.77-1.49-7.97-1.49-11.74,0c-1.82,0.72-3.48,1.79-4.9,3.13c-1.42,1.35-2.56,2.96-3.35,4.75c-1.63,3.82-1.63,8.14,0,11.95
			c0.79,1.79,1.93,3.41,3.35,4.75c1.42,1.35,3.08,2.41,4.9,3.13c3.77,1.49,7.97,1.49,11.74,0c1.81-0.72,3.46-1.78,4.86-3.13
			c1.4-1.36,2.53-2.97,3.31-4.75C-1854.17-6.37-1854.17-10.68-1855.8-14.5z"/>
		<rect id="Rectángulo_7" x="-1876.72" y="-94.14" class="st3" width="13.68" height="40.85"/>
		<g id="Grupo_13" transform="translate(1602.612 487.904)">
			
				<rect id="Rectángulo_8" x="-3536.09" y="-165.79" transform="matrix(0.7071 -0.7071 0.7071 0.7071 -917.3218 -2532.5061)" class="st3" width="40.85" height="13.68"/>
			<g id="Grupo_12" transform="translate(0 19.278)">
				<rect id="Rectángulo_9" x="-3594.57" y="-135.97" class="st3" width="98.18" height="13.68"/>
				<g id="Grupo_11" transform="translate(116.577)">
					<path id="Trazado_14" class="st3" d="M-3580.76-129.13c-0.04,12.02,4.97,23.5,13.81,31.65v17.44
						c-27.11-16.47-35.74-51.81-19.26-78.92c4.78-7.87,11.39-14.48,19.26-19.26v17.44C-3575.79-152.64-3580.8-141.16-3580.76-129.13
						z"/>
				</g>
			</g>
		</g>
		<g id="Grupo_16" transform="translate(1645.084 856.573)">
			<path id="Trazado_15" class="st3" d="M-3527.87-114.11c-1.58-3.6-4.52-6.43-8.17-7.88c-5.68-2.29-12.17-1.07-16.63,3.13
				c-1.42,1.35-2.56,2.96-3.35,4.75c-1.63,3.82-1.63,8.14,0,11.95c0.79,1.79,1.93,3.41,3.35,4.75c1.42,1.35,3.08,2.41,4.9,3.13
				c3.77,1.49,7.97,1.49,11.74,0c1.81-0.72,3.46-1.78,4.86-3.13c1.4-1.36,2.53-2.97,3.31-4.75
				C-3526.23-105.97-3526.23-110.29-3527.87-114.11L-3527.87-114.11z"/>
			<g id="Grupo_14" transform="translate(3.537)">
				<path id="Trazado_16" class="st3" d="M-3545.48-164.42c12.02,0.04,23.5-4.97,31.65-13.81h17.44
					c-16.48,27.11-51.81,35.73-78.92,19.26c-7.87-4.78-14.48-11.39-19.26-19.26h17.44C-3568.98-169.39-3557.5-164.38-3545.48-164.42
					z"/>
			</g>
			<g id="Grupo_15" transform="translate(0 114.188)">
				<path id="Trazado_17" class="st3" d="M-3513.33-138.38l24.01-25.21l-9.91-9.44l-14.11,14.81l-19.07-20.01l-19.07,20.02
					l-19.07-20.01l-24.03,25.21l9.9,9.44l14.12-14.82l19.08,20.01l19.07-20.01L-3513.33-138.38z"/>
			</g>
		</g>
	</g>
</g>
<rect id="Rectángulo_32_1_" x="-3595.57" y="1214.77" class="st4" width="1919.83" height="1080"/>
<g id="Grupo_199_1_" transform="translate(0 -7.083)">
	<g id="Grupo_10_3_" transform="translate(150 84.083)">
		<path id="Trazado_8_3_" class="st5" d="M-3593.34,2044.41c2.94-6.98,8.59-12.47,15.66-15.19c7.81-2.93,16.42-2.93,24.23,0
			c3.55,1.37,6.8,3.44,9.54,6.08c2.66,2.59,4.78,5.69,6.23,9.11c2.98,7.22,2.98,15.32,0,22.54c-1.45,3.42-3.56,6.52-6.23,9.11
			c-2.74,2.64-5.99,4.71-9.54,6.08c-7.81,2.93-16.42,2.93-24.23,0c-14.7-6-21.76-22.78-15.76-37.49
			C-3593.41,2044.57-3593.37,2044.49-3593.34,2044.41L-3593.34,2044.41z M-3579.59,2061.66c1.58,3.6,4.52,6.43,8.18,7.88
			c5.68,2.29,12.17,1.07,16.63-3.13c1.42-1.35,2.56-2.96,3.35-4.75c1.63-3.82,1.63-8.14,0-11.95c-0.79-1.79-1.93-3.4-3.35-4.75
			c-1.42-1.35-3.08-2.41-4.9-3.13c-3.77-1.49-7.96-1.49-11.73,0c-1.81,0.72-3.46,1.78-4.86,3.13c-1.4,1.36-2.53,2.97-3.31,4.75
			C-3581.22,2053.52-3581.22,2057.84-3579.59,2061.66L-3579.59,2061.66z"/>
		<rect id="Rectángulo_4_3_" x="-3572.35" y="2100.45" class="st5" width="13.68" height="40.85"/>
		<g id="Grupo_6_3_" transform="translate(7.948 405.244)">
			
				<rect id="Rectángulo_5_3_" x="-3550.71" y="1306.12" transform="matrix(0.7071 -0.7071 0.7071 0.7071 -1962.3964 -2111.7324)" class="st5" width="40.85" height="13.68"/>
			<g id="Grupo_5_3_">
				<rect id="Rectángulo_6_3_" x="-3549.56" y="1257.02" class="st5" width="98.18" height="13.68"/>
				<g id="Grupo_4_3_">
					<path id="Trazado_9_3_" class="st5" d="M-3581.76,1263.87c0.04-12.02-4.97-23.51-13.81-31.66v-17.43
						c27.11,16.48,35.73,51.81,19.26,78.92c-4.78,7.87-11.39,14.48-19.26,19.26v-17.44
						C-3586.74,1287.37-3581.73,1275.88-3581.76,1263.87z"/>
				</g>
			</g>
		</g>
		<g id="Grupo_9_3_" transform="translate(4.411)">
			<path id="Trazado_10_3_" class="st5" d="M-3557.02,1304.69c1.58,3.6,4.52,6.43,8.18,7.88c5.68,2.29,12.17,1.06,16.63-3.13
				c1.42-1.35,2.56-2.96,3.35-4.75c1.63-3.82,1.63-8.14,0-11.95c-0.79-1.79-1.93-3.4-3.35-4.75c-4.48-4.17-10.95-5.39-16.63-3.13
				c-1.81,0.72-3.46,1.78-4.86,3.13c-1.4,1.36-2.53,2.97-3.31,4.75C-3558.65,1296.56-3558.65,1300.88-3557.02,1304.69z"/>
			<g id="Grupo_7_3_" transform="translate(3.537 126.423)">
				<path id="Trazado_11_3_" class="st5" d="M-3546.48,1228.58c-12.02-0.04-23.5,4.97-31.65,13.81h-17.44
					c16.48-27.11,51.81-35.73,78.92-19.26c7.87,4.78,14.48,11.39,19.26,19.26h-17.44
					C-3522.98,1233.55-3534.46,1228.54-3546.48,1228.58z"/>
			</g>
			<g id="Grupo_8_3_">
				<path id="Trazado_12_3_" class="st5" d="M-3571.56,1214.77l-24.01,25.21l9.91,9.44l14.11-14.81l19.07,20.01l19.07-20.01
					l19.07,20.01l24.02-25.21l-9.9-9.44l-14.13,14.82l-19.07-20.01l-19.07,20.01L-3571.56,1214.77z"/>
			</g>
		</g>
	</g>
	<g id="Grupo_26_3_" transform="translate(1324 684.328)">
		
			<rect id="Rectángulo_5-2_3_" x="-3550.71" y="1306.12" transform="matrix(0.7071 -0.7071 0.7071 0.7071 -1962.3964 -2111.7324)" class="st5" width="40.85" height="13.68"/>
		<g id="Grupo_5-2_3_" transform="translate(0 0)">
			<rect id="Rectángulo_6-2_3_" x="-3549.56" y="1257.02" class="st5" width="98.18" height="13.68"/>
			<g id="Grupo_4-2_3_">
				<path id="Trazado_9-2_3_" class="st5" d="M-3581.76,1263.87c0.04-12.02-4.97-23.5-13.81-31.65v-17.44
					c17.21,10.35,27.71,29,27.61,49.09c0.09,20.09-10.4,38.74-27.61,49.09v-17.44C-3586.74,1287.37-3581.73,1275.88-3581.76,1263.87
					z"/>
			</g>
		</g>
	</g>
	<g id="Grupo_35_3_" transform="translate(0 186)">
		<path id="Trazado_8-2_3_" class="st5" d="M-3043.66,1395.75c-2.94,6.98-8.59,12.47-15.66,15.19c-7.81,2.93-16.42,2.93-24.23,0
			c-3.55-1.37-6.8-3.44-9.54-6.08c-2.66-2.59-4.78-5.69-6.23-9.11c-2.98-7.22-2.98-15.32,0-22.54c1.45-3.42,3.57-6.52,6.23-9.11
			c2.74-2.64,5.99-4.71,9.54-6.08c7.81-2.93,16.42-2.93,24.23,0c14.7,6,21.76,22.78,15.76,37.49
			C-3043.6,1395.58-3043.63,1395.67-3043.66,1395.75L-3043.66,1395.75z M-3057.42,1378.5c-1.58-3.6-4.52-6.43-8.17-7.88
			c-5.68-2.29-12.17-1.07-16.63,3.13c-1.42,1.35-2.56,2.96-3.35,4.75c-1.63,3.82-1.63,8.14,0,11.95c0.79,1.79,1.93,3.4,3.35,4.75
			c1.42,1.35,3.08,2.41,4.9,3.13c3.77,1.49,7.97,1.49,11.74,0c1.81-0.72,3.46-1.78,4.86-3.13c1.4-1.36,2.53-2.97,3.31-4.75
			C-3055.78,1386.64-3055.78,1382.32-3057.42,1378.5L-3057.42,1378.5z"/>
		<rect id="Rectángulo_4-2_3_" x="-3078.33" y="1298.86" class="st5" width="13.68" height="40.85"/>
	</g>
	<g id="Grupo_6-2_3_" transform="translate(592.19 791.365) rotate(180)">
		
			<rect id="Rectángulo_5-3_3_" x="3640.43" y="-1123.43" transform="matrix(0.7071 -0.7071 0.7071 0.7071 1861.7988 2261.5791)" class="st5" width="40.85" height="13.68"/>
		<g id="Grupo_5-3_3_">
			<rect id="Rectángulo_6-3_3_" x="3641.58" y="-1172.52" class="st5" width="98.18" height="13.68"/>
			<g id="Grupo_4-3_3_">
				<path id="Trazado_9-3_3_" class="st5" d="M3609.38-1165.68c0.04-12.02-4.97-23.51-13.81-31.66v-17.43
					c27.11,16.48,35.73,51.81,19.26,78.92c-4.78,7.87-11.39,14.48-19.26,19.26v-17.44
					C3604.41-1142.18,3609.42-1153.66,3609.38-1165.68z"/>
			</g>
		</g>
	</g>
	<g id="Grupo_27_3_" transform="translate(1339.463 279.083)">
		<path id="Trazado_10-2_3_" class="st5" d="M-3557.02,1304.69c1.58,3.6,4.52,6.43,8.18,7.88c1.87,0.75,3.86,1.13,5.87,1.12
			c4,0.02,7.86-1.5,10.77-4.25c1.42-1.35,2.56-2.96,3.35-4.75c0.83-1.88,1.24-3.92,1.22-5.97c0.02-2.06-0.39-4.09-1.22-5.98
			c-0.79-1.79-1.93-3.4-3.35-4.75c-2.91-2.75-6.76-4.27-10.77-4.25c-2.01-0.01-4,0.37-5.87,1.11c-1.81,0.72-3.46,1.78-4.86,3.13
			c-1.4,1.36-2.53,2.97-3.31,4.75c-0.83,1.88-1.24,3.92-1.22,5.98C-3558.27,1300.77-3557.85,1302.81-3557.02,1304.69z"/>
		<g id="Grupo_7-2_3_" transform="translate(3.537 126.423)">
			<path id="Trazado_11-2_3_" class="st5" d="M-3546.48,1228.58c-12.02-0.04-23.5,4.97-31.65,13.81h-17.44
				c10.35-17.21,29-27.71,49.09-27.61c20.09-0.09,38.74,10.4,49.09,27.61h-17.44C-3522.98,1233.55-3534.46,1228.54-3546.48,1228.58z
				"/>
		</g>
		<g id="Grupo_8-2_3_">
			<path id="Trazado_12-2_3_" class="st5" d="M-3571.56,1214.77l-24.01,25.21l9.91,9.44l14.11-14.81l19.07,20.01l19.07-20.01
				l19.07,20.01l24.02-25.21l-9.9-9.44l-14.12,14.82l-19.07-20.02l-19.07,20.02L-3571.56,1214.77z"/>
		</g>
	</g>
	<g id="Grupo_25_3_" transform="translate(15.249)">
		<path id="Trazado_13_3_" class="st5" d="M-1843.05,1395.75c-2.94,6.98-8.59,12.47-15.66,15.19c-7.81,2.93-16.42,2.93-24.23,0
			c-3.55-1.37-6.8-3.44-9.54-6.08c-2.66-2.59-4.78-5.69-6.23-9.11c-2.98-7.22-2.98-15.32,0-22.54c1.45-3.42,3.57-6.52,6.23-9.11
			c2.74-2.64,5.99-4.71,9.54-6.09c7.81-2.93,16.42-2.93,24.23,0c14.7,6,21.76,22.78,15.76,37.48
			C-1842.98,1395.58-1843.02,1395.66-1843.05,1395.75L-1843.05,1395.75z M-1856.8,1378.5c-1.58-3.6-4.52-6.43-8.17-7.88
			c-3.77-1.49-7.97-1.49-11.74,0c-1.82,0.72-3.48,1.79-4.9,3.13c-1.42,1.35-2.56,2.96-3.35,4.75c-1.63,3.82-1.63,8.14,0,11.95
			c0.79,1.79,1.93,3.41,3.35,4.75c1.42,1.35,3.08,2.41,4.9,3.13c3.77,1.49,7.97,1.49,11.74,0c1.81-0.72,3.46-1.78,4.86-3.13
			c1.4-1.36,2.53-2.97,3.31-4.75C-1855.17,1386.63-1855.17,1382.32-1856.8,1378.5z"/>
		<rect id="Rectángulo_7_3_" x="-1877.72" y="1298.86" class="st5" width="13.68" height="40.85"/>
		<g id="Grupo_13_3_" transform="translate(1602.612 487.904)">
			
				<rect id="Rectángulo_8_3_" x="-3537.09" y="1227.21" transform="matrix(0.7071 -0.7071 0.7071 0.7071 -1902.6145 -2125.2129)" class="st5" width="40.85" height="13.68"/>
			<g id="Grupo_12_3_" transform="translate(0 19.278)">
				<rect id="Rectángulo_9_3_" x="-3595.57" y="1257.03" class="st5" width="98.18" height="13.68"/>
				<g id="Grupo_11_3_" transform="translate(116.577)">
					<path id="Trazado_14_3_" class="st5" d="M-3581.76,1263.87c-0.04,12.02,4.97,23.5,13.81,31.65v17.44
						c-27.11-16.47-35.74-51.81-19.26-78.92c4.78-7.87,11.39-14.48,19.26-19.26v17.44
						C-3576.79,1240.36-3581.8,1251.84-3581.76,1263.87z"/>
				</g>
			</g>
		</g>
		<g id="Grupo_16_3_" transform="translate(1645.084 856.573)">
			<path id="Trazado_15_3_" class="st5" d="M-3528.87,1278.89c-1.58-3.6-4.52-6.43-8.17-7.88c-5.68-2.29-12.17-1.07-16.63,3.13
				c-1.42,1.35-2.56,2.96-3.35,4.75c-1.63,3.82-1.63,8.14,0,11.95c0.79,1.79,1.93,3.41,3.35,4.75c1.42,1.35,3.08,2.41,4.9,3.13
				c3.77,1.49,7.97,1.49,11.74,0c1.81-0.72,3.46-1.78,4.86-3.13c1.4-1.36,2.53-2.97,3.31-4.75
				C-3527.23,1287.03-3527.23,1282.71-3528.87,1278.89L-3528.87,1278.89z"/>
			<g id="Grupo_14_3_" transform="translate(3.537)">
				<path id="Trazado_16_3_" class="st5" d="M-3546.48,1228.58c12.02,0.04,23.5-4.97,31.65-13.81h17.44
					c-16.48,27.11-51.81,35.73-78.92,19.26c-7.87-4.78-14.48-11.39-19.26-19.26h17.44
					C-3569.98,1223.61-3558.5,1228.62-3546.48,1228.58z"/>
			</g>
			<g id="Grupo_15_3_" transform="translate(0 114.188)">
				<path id="Trazado_17_3_" class="st5" d="M-3514.33,1254.62l24.01-25.21l-9.91-9.44l-14.11,14.81l-19.07-20.01l-19.07,20.02
					l-19.07-20.01l-24.03,25.21l9.9,9.44l14.12-14.82l19.08,20.01l19.07-20.01L-3514.33,1254.62z"/>
			</g>
		</g>
	</g>
</g>
<rect id="Rectángulo_3" x="-3594.86" y="2583.93" class="st6" width="1920.4" height="1080"/>
<g id="Grupo_196">
	<g id="Grupo_10_2_" transform="translate(150 84.083)">
		<path id="Trazado_8_2_" class="st7" d="M-3592.63,3413.57c2.94-6.98,8.59-12.47,15.66-15.19c7.81-2.93,16.42-2.93,24.23,0
			c3.55,1.37,6.8,3.44,9.54,6.08c2.66,2.59,4.78,5.69,6.23,9.11c2.98,7.22,2.98,15.32,0,22.54c-1.45,3.42-3.57,6.52-6.23,9.11
			c-2.74,2.64-5.99,4.71-9.54,6.09c-7.81,2.93-16.42,2.93-24.23,0c-14.7-6-21.76-22.78-15.76-37.49
			C-3592.69,3413.73-3592.66,3413.65-3592.63,3413.57L-3592.63,3413.57z M-3578.87,3430.81c1.58,3.6,4.52,6.43,8.17,7.88
			c5.68,2.29,12.17,1.07,16.63-3.13c1.42-1.35,2.56-2.96,3.35-4.75c1.63-3.82,1.63-8.14,0-11.95c-0.79-1.79-1.93-3.41-3.35-4.75
			c-1.42-1.35-3.08-2.41-4.9-3.13c-3.77-1.49-7.97-1.49-11.74,0c-1.81,0.72-3.46,1.78-4.86,3.13c-1.4,1.36-2.53,2.97-3.31,4.75
			C-3580.51,3422.68-3580.51,3427-3578.87,3430.81L-3578.87,3430.81z"/>
		<rect id="Rectángulo_4_2_" x="-3571.64" y="3469.61" class="st7" width="13.68" height="40.85"/>
		<g id="Grupo_6_2_" transform="translate(7.948 405.244)">
			
				<rect id="Rectángulo_5_2_" x="-3549.99" y="2675.27" transform="matrix(0.7071 -0.7071 0.7071 0.7071 -2930.3279 -1710.2097)" class="st7" width="40.85" height="13.68"/>
			<g id="Grupo_5_2_">
				<rect id="Rectángulo_6_2_" x="-3548.85" y="2626.18" class="st7" width="98.18" height="13.68"/>
				<g id="Grupo_4_2_">
					<path id="Trazado_9_2_" class="st7" d="M-3581.05,2633.02c0.04-12.02-4.97-23.51-13.81-31.66v-17.43
						c27.11,16.48,35.73,51.81,19.26,78.92c-4.78,7.87-11.39,14.48-19.26,19.26v-17.44
						C-3586.02,2656.53-3581.01,2645.04-3581.05,2633.02z"/>
				</g>
			</g>
		</g>
		<g id="Grupo_9_2_" transform="translate(4.411)">
			<path id="Trazado_10_2_" class="st7" d="M-3556.31,2673.85c1.58,3.6,4.52,6.43,8.18,7.88c5.68,2.29,12.17,1.06,16.63-3.13
				c1.42-1.35,2.56-2.96,3.35-4.75c1.63-3.82,1.63-8.14,0-11.96c-0.79-1.79-1.93-3.4-3.35-4.75c-4.48-4.17-10.95-5.39-16.63-3.13
				c-1.81,0.72-3.46,1.78-4.86,3.13c-1.4,1.36-2.53,2.97-3.31,4.75C-3557.94,2665.72-3557.94,2670.03-3556.31,2673.85z"/>
			<g id="Grupo_7_2_" transform="translate(3.537 126.423)">
				<path id="Trazado_11_2_" class="st7" d="M-3545.76,2597.74c-12.02-0.04-23.5,4.97-31.65,13.81h-17.44
					c16.48-27.11,51.81-35.73,78.92-19.26c7.87,4.78,14.48,11.39,19.26,19.26h-17.44
					C-3522.26,2602.71-3533.75,2597.7-3545.76,2597.74z"/>
			</g>
			<g id="Grupo_8_2_">
				<path id="Trazado_12_2_" class="st7" d="M-3570.84,2583.93l-24.02,25.21l9.91,9.44l14.11-14.81l19.07,20.01l19.07-20.01
					l19.07,20.01l24.03-25.21l-9.9-9.44l-14.13,14.82l-19.07-20.01l-19.07,20.01L-3570.84,2583.93z"/>
			</g>
		</g>
	</g>
	<g id="Grupo_26_2_" transform="translate(1324 684.328)">
		
			<rect id="Rectángulo_5-2_2_" x="-3549.99" y="2675.27" transform="matrix(0.7071 -0.7071 0.7071 0.7071 -2930.3279 -1710.2097)" class="st7" width="40.85" height="13.68"/>
		<g id="Grupo_5-2_2_" transform="translate(0 0)">
			<rect id="Rectángulo_6-2_2_" x="-3548.85" y="2626.18" class="st7" width="98.18" height="13.68"/>
			<g id="Grupo_4-2_2_">
				<path id="Trazado_9-2_2_" class="st7" d="M-3581.05,2633.02c0.04-12.02-4.97-23.5-13.81-31.65v-17.44
					c17.21,10.35,27.71,29,27.61,49.09c0.09,20.09-10.4,38.74-27.61,49.09v-17.44C-3586.02,2656.53-3581.01,2645.04-3581.05,2633.02
					z"/>
			</g>
		</g>
	</g>
	<g id="Grupo_35_2_" transform="translate(0 186)">
		<path id="Trazado_8-2_2_" class="st7" d="M-3042.95,2764.91c-2.94,6.98-8.59,12.47-15.66,15.19c-7.81,2.93-16.42,2.93-24.23,0
			c-3.55-1.37-6.8-3.44-9.54-6.08c-2.66-2.59-4.78-5.69-6.23-9.11c-2.98-7.22-2.98-15.32,0-22.54c1.45-3.42,3.56-6.52,6.23-9.11
			c2.74-2.64,5.99-4.71,9.54-6.08c7.81-2.93,16.42-2.93,24.23,0c14.7,6,21.76,22.78,15.76,37.49
			C-3042.88,2764.74-3042.91,2764.82-3042.95,2764.91L-3042.95,2764.91z M-3056.7,2747.66c-1.58-3.6-4.52-6.43-8.18-7.88
			c-5.68-2.29-12.17-1.07-16.63,3.13c-1.42,1.35-2.56,2.96-3.35,4.75c-1.63,3.82-1.63,8.14,0,11.95c0.79,1.79,1.93,3.4,3.35,4.75
			c1.42,1.35,3.08,2.41,4.9,3.13c3.77,1.49,7.96,1.49,11.74,0c1.81-0.72,3.46-1.78,4.86-3.13c1.4-1.36,2.53-2.97,3.31-4.75
			C-3055.07,2755.79-3055.07,2751.48-3056.7,2747.66L-3056.7,2747.66z"/>
		<rect id="Rectángulo_4-2_2_" x="-3077.62" y="2668.01" class="st7" width="13.68" height="40.85"/>
	</g>
	<g id="Grupo_6-2_2_" transform="translate(592.19 791.365) rotate(180)">
		
			<rect id="Rectángulo_5-3_2_" x="3639.72" y="-2492.59" transform="matrix(0.7071 -0.7071 0.7071 0.7071 2829.7327 1860.054)" class="st7" width="40.85" height="13.68"/>
		<g id="Grupo_5-3_2_">
			<rect id="Rectángulo_6-3_2_" x="3640.86" y="-2541.68" class="st7" width="98.18" height="13.68"/>
			<g id="Grupo_4-3_2_">
				<path id="Trazado_9-3_2_" class="st7" d="M3608.66-2534.84c0.04-12.02-4.97-23.51-13.81-31.66v-17.43
					c27.11,16.48,35.73,51.81,19.26,78.92c-4.78,7.87-11.39,14.48-19.26,19.26v-17.44
					C3603.69-2511.34,3608.7-2522.82,3608.66-2534.84z"/>
			</g>
		</g>
	</g>
	<g id="Grupo_27_2_" transform="translate(1339.463 279.083)">
		<path id="Trazado_10-2_2_" class="st7" d="M-3556.31,2673.85c1.58,3.6,4.52,6.43,8.18,7.88c1.87,0.75,3.86,1.13,5.87,1.12
			c4,0.02,7.86-1.5,10.77-4.25c1.42-1.35,2.56-2.96,3.35-4.75c0.83-1.88,1.24-3.92,1.22-5.97c0.02-2.06-0.39-4.09-1.22-5.98
			c-0.79-1.79-1.93-3.4-3.35-4.75c-2.91-2.75-6.76-4.27-10.77-4.25c-2.01-0.01-4,0.37-5.87,1.11c-1.81,0.72-3.46,1.78-4.86,3.13
			c-1.4,1.36-2.53,2.97-3.31,4.75c-0.83,1.88-1.24,3.92-1.22,5.98C-3557.55,2669.93-3557.13,2671.97-3556.31,2673.85z"/>
		<g id="Grupo_7-2_2_" transform="translate(3.537 126.423)">
			<path id="Trazado_11-2_2_" class="st7" d="M-3545.76,2597.74c-12.02-0.04-23.5,4.97-31.65,13.81h-17.44
				c10.35-17.21,29-27.71,49.09-27.61c20.09-0.09,38.74,10.4,49.09,27.61h-17.44C-3522.26,2602.71-3533.75,2597.7-3545.76,2597.74z"
				/>
		</g>
		<g id="Grupo_8-2_2_">
			<path id="Trazado_12-2_2_" class="st7" d="M-3570.84,2583.93l-24.02,25.21l9.91,9.44l14.11-14.81l19.07,20.01l19.07-20.01
				l19.07,20.01l24.03-25.21l-9.9-9.44l-14.12,14.82l-19.07-20.02l-19.07,20.02L-3570.84,2583.93z"/>
		</g>
	</g>
	<g id="Grupo_25_2_" transform="translate(15.249)">
		<path id="Trazado_13_2_" class="st7" d="M-1842.34,2764.91c-2.94,6.98-8.59,12.47-15.66,15.19c-7.81,2.93-16.42,2.93-24.23,0
			c-3.55-1.37-6.8-3.44-9.54-6.08c-2.66-2.59-4.78-5.69-6.23-9.11c-2.98-7.22-2.98-15.32,0-22.54c1.45-3.42,3.57-6.52,6.23-9.11
			c2.74-2.64,5.99-4.71,9.54-6.09c7.81-2.93,16.42-2.93,24.23,0c14.7,6,21.76,22.78,15.76,37.48
			C-1842.27,2764.74-1842.3,2764.82-1842.34,2764.91L-1842.34,2764.91z M-1856.09,2747.66c-1.58-3.6-4.52-6.43-8.17-7.88
			c-3.77-1.49-7.97-1.49-11.74,0c-1.82,0.72-3.48,1.79-4.9,3.13c-1.42,1.35-2.56,2.96-3.35,4.75c-1.63,3.82-1.63,8.14,0,11.95
			c0.79,1.79,1.93,3.41,3.35,4.75c1.42,1.35,3.08,2.41,4.9,3.13c3.77,1.49,7.97,1.49,11.74,0c1.81-0.72,3.46-1.78,4.86-3.13
			c1.4-1.36,2.53-2.97,3.31-4.75C-1854.46,2755.79-1854.46,2751.47-1856.09,2747.66z"/>
		<rect id="Rectángulo_7_2_" x="-1877.01" y="2668.01" class="st7" width="13.68" height="40.85"/>
		<g id="Grupo_13_2_" transform="translate(1602.612 487.904)">
			
				<rect id="Rectángulo_8_2_" x="-3536.37" y="2596.37" transform="matrix(0.7071 -0.7071 0.7071 0.7071 -2870.5459 -1723.6902)" class="st7" width="40.85" height="13.68"/>
			<g id="Grupo_12_2_" transform="translate(0 19.278)">
				<rect id="Rectángulo_9_2_" x="-3594.86" y="2626.18" class="st7" width="98.18" height="13.68"/>
				<g id="Grupo_11_2_" transform="translate(116.577)">
					<path id="Trazado_14_2_" class="st7" d="M-3581.05,2633.02c-0.04,12.02,4.97,23.5,13.81,31.65v17.44
						c-27.11-16.47-35.74-51.81-19.26-78.92c4.78-7.87,11.39-14.48,19.26-19.26v17.44
						C-3576.08,2609.52-3581.09,2621-3581.05,2633.02z"/>
				</g>
			</g>
		</g>
		<g id="Grupo_16_2_" transform="translate(1645.084 856.573)">
			<path id="Trazado_15_2_" class="st7" d="M-3528.15,2648.05c-1.58-3.6-4.52-6.43-8.17-7.88c-5.68-2.29-12.17-1.07-16.63,3.13
				c-1.42,1.35-2.56,2.96-3.35,4.75c-1.63,3.82-1.63,8.14,0,11.95c0.79,1.79,1.93,3.41,3.35,4.75c1.42,1.35,3.08,2.41,4.9,3.13
				c3.77,1.49,7.97,1.49,11.74,0c1.81-0.72,3.46-1.78,4.86-3.13c1.4-1.36,2.53-2.97,3.31-4.75
				C-3526.52,2656.18-3526.52,2651.87-3528.15,2648.05L-3528.15,2648.05z"/>
			<g id="Grupo_14_2_" transform="translate(3.537)">
				<path id="Trazado_16_2_" class="st7" d="M-3545.77,2597.74c12.02,0.04,23.5-4.97,31.65-13.81h17.44
					c-16.48,27.11-51.81,35.73-78.92,19.26c-7.87-4.78-14.48-11.39-19.26-19.26h17.44
					C-3569.27,2592.77-3557.79,2597.78-3545.77,2597.74z"/>
			</g>
			<g id="Grupo_15_2_" transform="translate(0 114.188)">
				<path id="Trazado_17_2_" class="st7" d="M-3513.62,2623.78l24.02-25.21l-9.91-9.44l-14.11,14.81l-19.07-20.01l-19.07,20.02
					l-19.07-20.01l-24.03,25.21l9.9,9.44l14.12-14.82l19.08,20.01l19.07-20.01L-3513.62,2623.78z"/>
			</g>
		</g>
	</g>
</g>
<path id="Rectángulo_28_1_" class="st8" d="M-1460.39-809.33h251.78c37.5,0,67.9,30.4,67.9,67.9l0,0c0,37.5-30.4,67.9-67.9,67.9
	h-251.78c-37.5,0-67.9-30.4-67.9-67.9l0,0C-1528.29-778.93-1497.89-809.33-1460.39-809.33z"/>
<circle id="Elipse_18_1_" class="st3" cx="-1355.72" cy="-744.01" r="6.06"/>
<circle id="Elipse_19_1_" class="st3" cx="-1313.28" cy="-744.01" r="6.06"/>
<line id="Línea_10_1_" class="st9" x1="-1361.78" y1="-756.95" x2="-1349.66" y2="-756.95"/>
<line id="Línea_11_1_" class="st9" x1="-1319.34" y1="-756.95" x2="-1307.22" y2="-756.95"/>
<line id="Línea_12_1_" class="st9" x1="-1348.46" y1="-725.93" x2="-1319.48" y2="-725.93"/>
<circle id="Elipse_20_1_" class="st3" cx="-1232.92" cy="-746.58" r="6.06"/>
<circle id="Elipse_21_1_" class="st3" cx="-1190.48" cy="-746.58" r="6.06"/>
<path id="Trazado_49_1_" class="st9" d="M-1225.66-721.28c0,0,13.2-16.05,28.98-0.27"/>
<line id="Línea_13_1_" class="st9" x1="-1238.61" y1="-757.44" x2="-1227.22" y2="-761.59"/>
<line id="Línea_14_1_" class="st9" x1="-1196.18" y1="-761.59" x2="-1184.79" y2="-757.44"/>
<circle id="Elipse_22_4_" class="st3" cx="-1479.32" cy="-744.58" r="6.06"/>
<path id="Trazado_50_4_" class="st9" d="M-1485.37-757.52c0-3.35,2.71-6.06,6.06-6.06s6.06,2.71,6.06,6.06"/>
<path id="Trazado_51_4_" class="st9" d="M-1442.94-757.52c0.04-3.35,2.79-6.03,6.14-5.99c3.29,0.04,5.94,2.7,5.99,5.99"/>
<circle id="Elipse_23_4_" class="st3" cx="-1436.88" cy="-744.58" r="6.06"/>
<path id="Trazado_52_4_" class="st9" d="M-1443.08-726.5c0,0-13.2,16.05-28.98,0.27"/>
<circle id="Elipse_17_1_" class="st8" cx="-1335.29" cy="-1310.96" r="51.74"/>
<circle id="Elipse_27_1_" class="st10" cx="-681.45" cy="-1301.02" r="51.74"/>
<circle id="Elipse_34_1_" class="st11" cx="-680.45" cy="-740.7" r="51.74"/>
<circle id="Elipse_17" class="st12" cx="-36.24" cy="-1029.59" r="51.74"/>
<g id="Grupo_206_2_" transform="translate(-761.504 -930.93)">
	<circle id="Elipse_51_2_" class="st6" cx="-401.84" cy="1015.86" r="32.38"/>
	<g id="Grupo_106_2_" transform="translate(778.662 948.619)">
		<line id="Línea_31_2_" class="st13" x1="-1165.28" y1="67.24" x2="-1195.72" y2="67.24"/>
		<path id="Trazado_101_2_" class="st13" d="M-1179.97,52.56l14.69,14.69l-14.69,14.69"/>
	</g>
</g>
<g id="Grupo_206_1_" transform="translate(-761.504 -930.93)">
	<circle id="Elipse_51_1_" class="st6" cx="-637.84" cy="1015.86" r="32.38"/>
	<g id="Grupo_106_1_" transform="translate(778.662 948.619)">
		<line id="Línea_31_1_" class="st13" x1="-1401.28" y1="67.24" x2="-1431.72" y2="67.24"/>
		<path id="Trazado_101_1_" class="st13" d="M-1417.03,81.93l-14.69-14.69l14.69-14.69"/>
	</g>
</g>
<g id="Grupo_207_1_" transform="translate(-852.941 -931.283)">
	<path id="Rectángulo_65_1_" class="st6" d="M-557.87,1555.88h150.94c17.67,0,32,14.33,32,32v0.05c0,17.67-14.33,32-32,32h-150.94
		c-17.67,0-32-14.33-32-32v-0.05C-589.87,1570.2-575.55,1555.88-557.87,1555.88z"/>
	<text transform="matrix(1 0 0 1 -548.1936 1593.2372)" class="st2" style="font-family:'SegoeUI'; font-size:21px;">Ver en Netflix</text>
</g>
<g id="Grupo_208" transform="translate(-1091.976 -930.93)">
	<circle id="Elipse_52" class="st6" cx="-315.37" cy="1262.55" r="32.38"/>
	<g id="Grupo_108" transform="translate(1109.666 948.088)">
		<path id="Trazado_102" class="st13" d="M-1435.46,309.9v19.78h20.86V309.9"/>
		<path id="Trazado_103" class="st13" d="M-1439.72,313.93l14.69-14.69l14.69,14.69"/>
	</g>
</g>
<g id="Grupo_209" transform="translate(-854.092 -931.284)">
	<path id="Rectángulo_109" class="st6" d="M-145.72,1555.88H5.22c17.67,0,32,14.33,32,32v0.05c0,17.67-14.33,32-32,32h-150.94
		c-17.67,0-32-14.33-32-32v-0.05C-177.72,1570.2-163.39,1555.88-145.72,1555.88z"/>
	<text transform="matrix(1 0 0 1 -145.8136 1593.2372)" class="st2" style="font-family:'SegoeUI'; font-size:21px;">Abrir en Spotify</text>
</g>
<g id="Grupo_187" transform="translate(-198 -430)">
	<circle id="Elipse_27" class="st10" cx="-461.83" cy="773.12" r="51.74"/>
	<circle id="Elipse_28" class="st3" cx="-483.57" cy="767.98" r="6.06"/>
	<circle id="Elipse_29" class="st3" cx="-441.14" cy="767.98" r="6.06"/>
	<path id="Trazado_54" class="st9" d="M-476.32,793.27c0,0,13.2-16.05,28.98-0.27"/>
	<line id="Línea_19" class="st9" x1="-489.27" y1="757.11" x2="-477.88" y2="752.96"/>
	<line id="Línea_20" class="st9" x1="-446.84" y1="752.96" x2="-435.44" y2="757.11"/>
</g>
<circle id="Elipse_34" class="st10" cx="-404.86" cy="343.12" r="51.74"/>
<path id="Trazado_186" class="st9" d="M-383.7,340.57c0,11.56-9.38,20.93-20.94,20.93c-11.56,0-20.92-9.37-20.93-20.93"/>
<line id="Línea_40" class="st9" x1="-404.63" y1="361.62" x2="-404.63" y2="380.28"/>
<line id="Línea_41" class="st9" x1="-417.39" y1="380.28" x2="-391.4" y2="380.28"/>
<path id="Rectángulo_112" class="st9" d="M-404.63,305.12L-404.63,305.12c7.05,0,12.76,5.71,12.76,12.76v22.07
	c0,7.05-5.71,12.76-12.76,12.76l0,0c-7.05,0-12.76-5.71-12.76-12.76v-22.07C-417.39,310.83-411.68,305.12-404.63,305.12z"/>
<line id="Línea_42" class="st9" x1="-417.39" y1="319.72" x2="-410.57" y2="319.72"/>
<line id="Línea_44" class="st9" x1="-417.39" y1="328.7" x2="-410.57" y2="328.7"/>
<line id="Línea_45" class="st9" x1="-417.39" y1="337.68" x2="-410.57" y2="337.68"/>
<line id="Línea_46" class="st9" x1="-398.7" y1="319.72" x2="-391.88" y2="319.72"/>
<line id="Línea_48" class="st9" x1="-398.7" y1="328.7" x2="-391.88" y2="328.7"/>
<line id="Línea_49" class="st9" x1="-398.7" y1="337.68" x2="-391.88" y2="337.68"/>
<circle id="Elipse_34_2_" class="st11" cx="-156.86" cy="343.12" r="51.74"/>
<path id="Trazado_186_1_" class="st9" d="M-135.7,340.57c0,11.56-9.38,20.93-20.94,20.93c-11.56,0-20.92-9.37-20.93-20.93"/>
<line id="Línea_40_1_" class="st9" x1="-156.63" y1="361.62" x2="-156.63" y2="380.28"/>
<line id="Línea_41_1_" class="st9" x1="-169.39" y1="380.28" x2="-143.4" y2="380.28"/>
<path id="Rectángulo_112_1_" class="st9" d="M-156.63,305.12L-156.63,305.12c7.05,0,12.76,5.71,12.76,12.76v22.07
	c0,7.05-5.71,12.76-12.76,12.76l0,0c-7.05,0-12.76-5.71-12.76-12.76v-22.07C-169.39,310.83-163.68,305.12-156.63,305.12z"/>
<line id="Línea_42_1_" class="st9" x1="-169.39" y1="319.72" x2="-162.57" y2="319.72"/>
<line id="Línea_44_1_" class="st9" x1="-169.39" y1="328.7" x2="-162.57" y2="328.7"/>
<line id="Línea_45_1_" class="st9" x1="-169.39" y1="337.68" x2="-162.57" y2="337.68"/>
<line id="Línea_46_1_" class="st9" x1="-150.7" y1="319.72" x2="-143.88" y2="319.72"/>
<line id="Línea_48_1_" class="st9" x1="-150.7" y1="328.7" x2="-143.88" y2="328.7"/>
<line id="Línea_49_1_" class="st9" x1="-150.7" y1="337.68" x2="-143.88" y2="337.68"/>
<circle id="Elipse_27-2" class="st8" cx="-659.82" cy="344.12" r="51.74"/>
<circle id="Elipse_28-2" class="st3" cx="-681.57" cy="338.98" r="6.06"/>
<circle id="Elipse_29-2" class="st3" cx="-639.14" cy="338.98" r="6.06"/>
<path id="Trazado_54-2" class="st9" d="M-674.32,364.27c0,0,13.2-16.05,28.98-0.27"/>
<line id="Línea_19-2" class="st9" x1="-687.27" y1="328.11" x2="-675.88" y2="323.96"/>
<line id="Línea_20-2" class="st9" x1="-644.83" y1="323.96" x2="-633.44" y2="328.11"/>
<circle id="Elipse_27-2_2_" class="st10" cx="-404.82" cy="85.12" r="51.74"/>
<circle id="Elipse_22_3_" class="st3" cx="-425.77" cy="81.72" r="6.06"/>
<path id="Trazado_50_3_" class="st9" d="M-431.83,68.78c0-3.35,2.71-6.06,6.06-6.06s6.06,2.71,6.06,6.06"/>
<path id="Trazado_51_3_" class="st9" d="M-389.4,68.78c0.04-3.35,2.79-6.03,6.14-5.99c3.29,0.04,5.94,2.7,5.99,5.99"/>
<circle id="Elipse_23_3_" class="st3" cx="-383.34" cy="81.72" r="6.06"/>
<path id="Trazado_52_3_" class="st9" d="M-389.54,99.8c0,0-13.2,16.05-28.98,0.27"/>
<circle id="Elipse_33" class="st10" cx="-154.03" cy="88.04" r="51.74"/>
<g id="Grupo_173" transform="translate(-524.864 -221.357)">
	<path id="Trazado_187" class="st14" d="M357.92,291.48"/>
	<path id="Trazado_188" class="st9" d="M394.32,287.48c0-2.39-1.68-4.45-4.02-4.93c-0.21-2.61-2.39-4.63-5.01-4.63
		c-0.25,0-0.5,0.02-0.75,0.06c-4.39-1.12-8.55-3.02-12.29-5.59c-2.41,0-4.47,1.7-4.94,4.07c-2.53,2.46-6.42,2.86-9.39,0.96
		c-2.78,0-5.03,2.25-5.03,5.03v0c0,0.02,0,0.03,0,0.05c-0.23-0.03-0.45-0.05-0.68-0.05c-2.78,0-5.03,2.25-5.03,5.03v0"/>
	<g id="Grupo_172">
		<path id="Trazado_189" class="st9" d="M389.61,345.93H352.3l-4.06-43.44h45.34L389.61,345.93z"/>
		<circle id="Elipse_68" class="st9" cx="370.77" cy="324.21" r="10.36"/>
		<line id="Línea_50" class="st9" x1="362.19" y1="302.49" x2="362.68" y2="317.74"/>
		<line id="Línea_51" class="st9" x1="379.31" y1="302.49" x2="378.8" y2="317.67"/>
		<line id="Línea_52" class="st9" x1="363.1" y1="331.18" x2="363.57" y2="345.93"/>
		<line id="Línea_53" class="st9" x1="378.35" y1="331.18" x2="377.85" y2="345.93"/>
		<rect id="Rectángulo_113" x="346.05" y="294.13" class="st9" width="49.65" height="8.36"/>
	</g>
	<path id="Trazado_190" class="st9" d="M359.66,287.2c0.8-2.02,3.1-3.01,5.12-2.21"/>
	<path id="Trazado_191" class="st9" d="M377.27,283.95c2.05-0.73,4.31,0.35,5.03,2.4"/>
</g>
<g id="Grupo_187_1_" transform="translate(-198 -430)">
	<circle id="Elipse_27_2_" class="st10" cx="-964.83" cy="773.12" r="51.74"/>
	<circle id="Elipse_28_1_" class="st3" cx="-986.57" cy="767.98" r="6.06"/>
	<circle id="Elipse_29_1_" class="st3" cx="-944.14" cy="767.98" r="6.06"/>
	<path id="Trazado_54_1_" class="st9" d="M-979.32,793.27c0,0,13.2-16.05,28.98-0.27"/>
	<line id="Línea_19_1_" class="st9" x1="-992.27" y1="757.11" x2="-980.88" y2="752.96"/>
	<line id="Línea_20_1_" class="st9" x1="-949.84" y1="752.96" x2="-938.44" y2="757.11"/>
</g>
<circle id="Elipse_27-2_3_" class="st15" cx="-1162.82" cy="344.12" r="51.74"/>
<circle id="Elipse_28-2_1_" class="st3" cx="-1184.57" cy="338.98" r="6.06"/>
<circle id="Elipse_29-2_1_" class="st3" cx="-1142.14" cy="338.98" r="6.06"/>
<path id="Trazado_54-2_1_" class="st9" d="M-1177.32,364.27c0,0,13.2-16.05,28.98-0.27"/>
<line id="Línea_19-2_1_" class="st9" x1="-1190.27" y1="328.11" x2="-1178.88" y2="323.96"/>
<line id="Línea_20-2_1_" class="st9" x1="-1147.83" y1="323.96" x2="-1136.44" y2="328.11"/>
<circle id="Elipse_27-2_1_" class="st15" cx="-907.82" cy="85.12" r="51.74"/>
<circle id="Elipse_22_1_" class="st3" cx="-928.77" cy="81.72" r="6.06"/>
<path id="Trazado_50_1_" class="st9" d="M-934.83,68.78c0-3.35,2.71-6.06,6.06-6.06s6.06,2.71,6.06,6.06"/>
<path id="Trazado_51_1_" class="st9" d="M-892.4,68.78c0.04-3.35,2.79-6.03,6.14-5.99c3.29,0.04,5.94,2.7,5.99,5.99"/>
<circle id="Elipse_23_1_" class="st3" cx="-886.34" cy="81.72" r="6.06"/>
<path id="Trazado_52_1_" class="st9" d="M-892.54,99.8c0,0-13.2,16.05-28.98,0.27"/>
<circle id="Elipse_33_1_" class="st11" cx="89.97" cy="88.04" r="51.74"/>
<g id="Grupo_173_1_" transform="translate(-524.864 -221.357)">
	<path id="Trazado_187_1_" class="st14" d="M601.92,291.48"/>
	<path id="Trazado_188_1_" class="st9" d="M638.32,287.48c0-2.39-1.68-4.45-4.02-4.93c-0.21-2.61-2.39-4.63-5.01-4.63
		c-0.25,0-0.5,0.02-0.75,0.06c-4.39-1.12-8.55-3.02-12.29-5.59c-2.41,0-4.47,1.7-4.94,4.07c-2.53,2.46-6.42,2.86-9.39,0.96
		c-2.78,0-5.03,2.25-5.03,5.03v0c0,0.02,0,0.03,0,0.05c-0.23-0.03-0.45-0.05-0.68-0.05c-2.78,0-5.03,2.25-5.03,5.03v0"/>
	<g id="Grupo_172_1_">
		<path id="Trazado_189_1_" class="st9" d="M633.61,345.93H596.3l-4.06-43.44h45.34L633.61,345.93z"/>
		<circle id="Elipse_68_1_" class="st9" cx="614.77" cy="324.21" r="10.36"/>
		<line id="Línea_50_1_" class="st9" x1="606.19" y1="302.49" x2="606.68" y2="317.74"/>
		<line id="Línea_51_1_" class="st9" x1="623.31" y1="302.49" x2="622.8" y2="317.67"/>
		<line id="Línea_52_1_" class="st9" x1="607.1" y1="331.18" x2="607.57" y2="345.93"/>
		<line id="Línea_53_1_" class="st9" x1="622.35" y1="331.18" x2="621.85" y2="345.93"/>
		<rect id="Rectángulo_113_1_" x="590.05" y="294.13" class="st9" width="49.65" height="8.36"/>
	</g>
	<path id="Trazado_190_1_" class="st9" d="M603.66,287.2c0.8-2.02,3.1-3.01,5.12-2.21"/>
	<path id="Trazado_191_1_" class="st9" d="M621.27,283.95c2.05-0.73,4.31,0.35,5.03,2.4"/>
</g>
<g id="Grupo_188_2_" transform="translate(152 -432)">
	<circle id="Elipse_34_3_" class="st15" cx="-1059.86" cy="775.12" r="51.74"/>
	<g id="Grupo_174_2_" transform="translate(2.001)">
		<path id="Trazado_186_3_" class="st16" d="M-1040.7,772.57c0,11.56-9.38,20.93-20.94,20.93c-11.56,0-20.92-9.37-20.93-20.93"/>
		<line id="Línea_40_3_" class="st9" x1="-1061.63" y1="793.62" x2="-1061.63" y2="812.28"/>
		<line id="Línea_41_3_" class="st9" x1="-1074.39" y1="812.28" x2="-1048.4" y2="812.28"/>
		<path id="Rectángulo_112_3_" class="st16" d="M-1061.63,737.12L-1061.63,737.12c7.05,0,12.76,5.71,12.76,12.76v22.07
			c0,7.05-5.71,12.76-12.76,12.76l0,0c-7.05,0-12.76-5.71-12.76-12.76v-22.07C-1074.39,742.83-1068.68,737.12-1061.63,737.12z"/>
		<line id="Línea_42_3_" class="st9" x1="-1074.39" y1="751.72" x2="-1067.57" y2="751.72"/>
		<line id="Línea_44_3_" class="st9" x1="-1074.39" y1="760.7" x2="-1067.57" y2="760.7"/>
		<line id="Línea_45_3_" class="st9" x1="-1074.39" y1="769.68" x2="-1067.57" y2="769.68"/>
		<line id="Línea_46_3_" class="st9" x1="-1055.7" y1="751.72" x2="-1048.88" y2="751.72"/>
		<line id="Línea_48_3_" class="st9" x1="-1055.7" y1="760.7" x2="-1048.88" y2="760.7"/>
		<line id="Línea_49_3_" class="st9" x1="-1055.7" y1="769.68" x2="-1048.88" y2="769.68"/>
	</g>
</g>
<circle id="Elipse_33_2_" class="st15" cx="-657.03" cy="88.04" r="51.74"/>
<g id="Grupo_173_3_" transform="translate(-524.864 -221.357)">
	<path id="Trazado_187_3_" class="st14" d="M-145.08,291.48"/>
	<path id="Trazado_188_3_" class="st9" d="M-108.68,287.48c0-2.39-1.68-4.45-4.02-4.93c-0.21-2.61-2.39-4.63-5.01-4.63
		c-0.25,0-0.5,0.02-0.75,0.06c-4.39-1.12-8.55-3.02-12.29-5.59c-2.41,0-4.47,1.7-4.94,4.07c-2.53,2.46-6.42,2.86-9.39,0.96
		c-2.78,0-5.03,2.25-5.03,5.03v0c0,0.02,0,0.03,0,0.05c-0.23-0.03-0.45-0.05-0.68-0.05c-2.78,0-5.03,2.25-5.03,5.03v0"/>
	<g id="Grupo_172_3_">
		<path id="Trazado_189_3_" class="st9" d="M-113.39,345.93h-37.32l-4.06-43.44h45.34L-113.39,345.93z"/>
		<circle id="Elipse_68_3_" class="st9" cx="-132.23" cy="324.21" r="10.36"/>
		<line id="Línea_50_3_" class="st9" x1="-140.81" y1="302.49" x2="-140.32" y2="317.74"/>
		<line id="Línea_51_3_" class="st9" x1="-123.69" y1="302.49" x2="-124.2" y2="317.67"/>
		<line id="Línea_52_3_" class="st9" x1="-139.9" y1="331.18" x2="-139.43" y2="345.93"/>
		<line id="Línea_53_3_" class="st9" x1="-124.65" y1="331.18" x2="-125.15" y2="345.93"/>
		<rect id="Rectángulo_113_3_" x="-156.95" y="294.13" class="st9" width="49.65" height="8.36"/>
	</g>
	<path id="Trazado_190_3_" class="st9" d="M-143.34,287.2c0.8-2.02,3.1-3.01,5.12-2.21"/>
	<path id="Trazado_191_3_" class="st9" d="M-125.73,283.95c2.05-0.73,4.31,0.35,5.03,2.4"/>
</g>
<path id="Rectángulo_37_1_" class="st12" d="M-1391.12,1410.3h129.04c37.5,0,67.9,30.4,67.9,67.9l0,0c0,37.5-30.4,67.9-67.9,67.9
	h-129.04c-37.5,0-67.9-30.4-67.9-67.9l0,0C-1459.02,1440.7-1428.62,1410.3-1391.12,1410.3z"/>
<g id="Grupo_174_1_" transform="translate(-820.998 -467.103)">
	<path id="Trazado_186_4_" class="st9" d="M-546.15,1942.76c0,11.56-9.38,20.93-20.94,20.93c-11.56,0-20.92-9.37-20.93-20.93"/>
	<line id="Línea_40_4_" class="st9" x1="-567.08" y1="1963.8" x2="-567.08" y2="1982.46"/>
	<line id="Línea_41_4_" class="st9" x1="-579.84" y1="1982.46" x2="-553.85" y2="1982.46"/>
	<path id="Rectángulo_112_4_" class="st9" d="M-567.08,1907.3L-567.08,1907.3c7.05,0,12.76,5.71,12.76,12.76v22.07
		c0,7.05-5.71,12.76-12.76,12.76l0,0c-7.05,0-12.76-5.71-12.76-12.76v-22.07C-579.84,1913.01-574.13,1907.3-567.08,1907.3z"/>
	<line id="Línea_42_4_" class="st9" x1="-579.84" y1="1921.91" x2="-573.02" y2="1921.91"/>
	<line id="Línea_44_4_" class="st9" x1="-579.84" y1="1930.88" x2="-573.02" y2="1930.88"/>
	<line id="Línea_45_4_" class="st9" x1="-579.84" y1="1939.86" x2="-573.02" y2="1939.86"/>
	<line id="Línea_46_4_" class="st9" x1="-561.15" y1="1921.91" x2="-554.33" y2="1921.91"/>
	<line id="Línea_48_4_" class="st9" x1="-561.15" y1="1930.88" x2="-554.33" y2="1930.88"/>
	<line id="Línea_49_4_" class="st9" x1="-561.15" y1="1939.86" x2="-554.33" y2="1939.86"/>
</g>
<g id="Grupo_173_4_" transform="translate(-535.864 214.643)">
	<path id="Trazado_187_4_" class="st14" d="M-742.28,1245.64"/>
	<path id="Trazado_188_4_" class="st9" d="M-705.88,1241.64c0-2.39-1.68-4.45-4.02-4.93c-0.21-2.61-2.39-4.63-5.01-4.63
		c-0.25,0-0.5,0.02-0.75,0.06c-4.39-1.12-8.55-3.02-12.29-5.59c-2.41,0-4.47,1.7-4.94,4.07c-2.53,2.46-6.42,2.86-9.39,0.96
		c-2.78,0-5.03,2.25-5.03,5.03v0c0,0.02,0,0.03,0,0.05c-0.23-0.03-0.45-0.05-0.68-0.05c-2.78,0-5.03,2.25-5.03,5.03l0,0"/>
	<g id="Grupo_172_4_">
		<path id="Trazado_189_4_" class="st9" d="M-710.59,1300.09h-37.32l-4.06-43.44h45.34L-710.59,1300.09z"/>
		<circle id="Elipse_68_4_" class="st9" cx="-729.44" cy="1278.37" r="10.36"/>
		<line id="Línea_50_4_" class="st9" x1="-738.01" y1="1256.65" x2="-737.53" y2="1271.9"/>
		<line id="Línea_51_4_" class="st9" x1="-720.89" y1="1256.65" x2="-721.4" y2="1271.83"/>
		<line id="Línea_52_4_" class="st9" x1="-737.1" y1="1285.33" x2="-736.63" y2="1300.09"/>
		<line id="Línea_53_4_" class="st9" x1="-721.86" y1="1285.33" x2="-722.35" y2="1300.09"/>
		<rect id="Rectángulo_113_4_" x="-754.15" y="1248.29" class="st9" width="49.65" height="8.36"/>
	</g>
	<path id="Trazado_190_4_" class="st9" d="M-740.54,1241.36c0.8-2.02,3.1-3.01,5.12-2.21"/>
	<path id="Trazado_191_4_" class="st9" d="M-722.93,1238.11c2.05-0.73,4.31,0.35,5.03,2.4"/>
</g>
<circle id="Elipse_53_1_" class="st2" cx="-1538.76" cy="1860.56" r="25.74"/>
<path id="Rectángulo_73_1_" class="st6" d="M-1538.76,1849.84L-1538.76,1849.84c0.97,0,1.76,0.79,1.76,1.76v17.92
	c0,0.97-0.79,1.76-1.76,1.76l0,0c-0.97,0-1.76-0.79-1.76-1.76v-17.92C-1540.52,1850.63-1539.74,1849.84-1538.76,1849.84z"/>
<path id="Rectángulo_74_1_" class="st6" d="M-1528.04,1860.56L-1528.04,1860.56c0,0.97-0.79,1.76-1.76,1.76h-17.92
	c-0.97,0-1.76-0.79-1.76-1.76l0,0c0-0.97,0.79-1.76,1.76-1.76h17.92C-1528.83,1858.8-1528.04,1859.59-1528.04,1860.56z"/>
<circle id="Elipse_60" class="st6" cx="-1333.76" cy="1858.41" r="25.74"/>
<path id="Rectángulo_97" class="st2" d="M-1333.76,1847.69L-1333.76,1847.69c0.97,0,1.76,0.79,1.76,1.76v17.92
	c0,0.97-0.79,1.76-1.76,1.76l0,0c-0.97,0-1.76-0.79-1.76-1.76v-17.92C-1335.52,1848.47-1334.74,1847.69-1333.76,1847.69z"/>
<path id="Rectángulo_98" class="st2" d="M-1323.04,1858.41L-1323.04,1858.41c0,0.97-0.79,1.76-1.76,1.76h-17.92
	c-0.97,0-1.76-0.79-1.76-1.76l0,0c0-0.97,0.79-1.76,1.76-1.76h17.92C-1323.83,1856.65-1323.04,1857.43-1323.04,1858.41z"/>
<path id="Trazado_124_1_" class="st2" d="M-1464.42,2924.47c19.59,0,35.47-15.88,35.47-35.47c0.06-56.26,45.66-101.86,101.92-101.92
	c56.26,0.06,101.86,45.66,101.92,101.92c0,19.59,15.88,35.47,35.47,35.47c19.59,0,35.47-15.88,35.47-35.47
	c0.13-45.87-18.11-89.88-50.63-122.23c-32.35-32.52-76.36-50.76-122.23-50.63c-45.87-0.13-89.88,18.11-122.23,50.63
	c-32.52,32.35-50.75,76.36-50.63,122.23C-1499.89,2908.59-1484.01,2924.47-1464.42,2924.47
	C-1464.42,2924.47-1464.42,2924.47-1464.42,2924.47z"/>
<g>
	<g id="Grupo_132_1_" transform="translate(47.033 54.45)">
		<path id="Trazado_125_1_" class="st6" d="M-1377.65,3393.02c6.61-0.02,12.93,2.74,17.41,7.6h9.59c-5.69-9.47-15.95-15.24-27-15.19
			c-11.05-0.05-21.31,5.72-27,15.19h9.59C-1390.57,3395.76-1384.26,3393-1377.65,3393.02z"/>
	</g>
	<path id="Trazado_126_1_" class="st6" d="M-1404.66,3432.01l5.07-30.1h7.68l5.98,16.05l5.94-16.05h7.69l5.07,30.1h-7.72
		l-2.57-17.33l-7.05,17.33h-3.09l-6.69-17.33l-2.57,17.33H-1404.66z"/>
	<path id="Trazado_127_1_" class="st6" d="M-1365.55,3416.24c-0.02-2.13,0.4-4.24,1.23-6.2c0.79-1.88,1.95-3.58,3.41-5.01
		c1.49-1.45,3.27-2.59,5.21-3.35c2.13-0.82,4.39-1.24,6.67-1.21c2.28-0.02,4.53,0.39,6.66,1.21c1.95,0.75,3.74,1.89,5.25,3.35
		c1.46,1.43,2.63,3.13,3.43,5.01c0.83,1.96,1.25,4.07,1.23,6.2c0.02,2.13-0.4,4.24-1.23,6.2c-0.8,1.88-1.96,3.59-3.43,5.01
		c-1.51,1.45-3.29,2.59-5.25,3.35c-2.12,0.82-4.38,1.23-6.66,1.21c-2.28,0.03-4.55-0.38-6.67-1.21c-1.94-0.76-3.71-1.89-5.21-3.35
		c-1.46-1.43-2.61-3.13-3.41-5.01C-1365.16,3420.48-1365.57,3418.37-1365.55,3416.24z M-1357.43,3416.24
		c-0.01,1.13,0.22,2.25,0.68,3.29c0.43,0.98,1.05,1.87,1.82,2.62c0.77,0.74,1.68,1.33,2.67,1.72c1.03,0.41,2.12,0.62,3.23,0.61
		c1.11,0.01,2.2-0.2,3.23-0.61c1-0.4,1.91-0.98,2.69-1.72c0.78-0.74,1.41-1.63,1.84-2.62c0.46-1.04,0.68-2.16,0.67-3.29
		c0.01-1.13-0.22-2.25-0.67-3.29c-0.44-0.98-1.06-1.87-1.84-2.61c-0.78-0.74-1.7-1.32-2.69-1.72c-1.03-0.41-2.12-0.62-3.23-0.61
		c-1.11-0.01-2.2,0.2-3.23,0.61c-0.99,0.39-1.9,0.98-2.67,1.72c-0.77,0.75-1.39,1.63-1.82,2.61
		C-1357.22,3413.99-1357.45,3415.11-1357.43,3416.24z"/>
	<path id="Trazado_128_1_" class="st6" d="M-1328.56,3416.24c-0.02-2.13,0.4-4.24,1.23-6.2c0.79-1.88,1.95-3.58,3.41-5.01
		c1.49-1.45,3.27-2.59,5.21-3.35c2.13-0.83,4.39-1.24,6.68-1.21c2.27-0.02,4.53,0.39,6.65,1.21c1.96,0.75,3.74,1.89,5.25,3.35
		c1.46,1.42,2.63,3.13,3.43,5.01c0.83,1.96,1.24,4.07,1.23,6.2c0.02,2.13-0.4,4.24-1.23,6.2c-0.8,1.88-1.96,3.59-3.43,5.01
		c-1.51,1.46-3.29,2.59-5.25,3.35c-2.12,0.82-4.38,1.23-6.65,1.21c-2.28,0.03-4.55-0.38-6.68-1.21c-1.94-0.76-3.71-1.89-5.21-3.35
		c-1.46-1.43-2.61-3.13-3.41-5.01C-1328.16,3420.48-1328.58,3418.37-1328.56,3416.24z M-1320.44,3416.24
		c-0.01,1.13,0.22,2.25,0.67,3.29c0.43,0.98,1.05,1.87,1.82,2.62c0.77,0.74,1.68,1.33,2.67,1.72c1.03,0.41,2.12,0.62,3.23,0.61
		c1.11,0.01,2.2-0.2,3.23-0.61c1-0.4,1.91-0.98,2.69-1.72c0.78-0.74,1.41-1.63,1.84-2.62c0.46-1.03,0.69-2.16,0.68-3.29
		c0.01-1.13-0.22-2.25-0.68-3.29c-0.44-0.98-1.06-1.87-1.84-2.61c-0.78-0.74-1.69-1.32-2.69-1.72c-1.03-0.41-2.12-0.62-3.23-0.61
		c-1.11-0.01-2.2,0.2-3.23,0.61c-0.99,0.4-1.9,0.98-2.67,1.72c-0.77,0.75-1.39,1.63-1.82,2.61
		C-1320.23,3413.99-1320.46,3415.11-1320.44,3416.24L-1320.44,3416.24z"/>
	<path id="Trazado_129_1_" class="st6" d="M-1291.58,3401.9h11.49c1.98-0.01,3.93,0.41,5.72,1.24c1.75,0.8,3.33,1.92,4.67,3.29
		c1.34,1.38,2.41,3.01,3.15,4.79c0.76,1.81,1.15,3.76,1.15,5.73c0,1.95-0.38,3.89-1.13,5.69c-0.73,1.79-1.79,3.42-3.13,4.81
		c-1.34,1.39-2.92,2.51-4.67,3.31c-1.81,0.83-3.77,1.25-5.76,1.24h-11.49L-1291.58,3401.9z M-1283.82,3425.38h1.78
		c1.23,0.02,2.45-0.2,3.6-0.64c1.01-0.39,1.92-0.99,2.68-1.76c0.73-0.76,1.3-1.66,1.66-2.65c0.39-1.08,0.59-2.22,0.57-3.37
		c0.01-1.15-0.19-2.28-0.59-3.35c-0.37-1-0.94-1.91-1.68-2.68c-0.76-0.77-1.67-1.36-2.67-1.76c-1.14-0.44-2.35-0.66-3.56-0.64h-1.78
		L-1283.82,3425.38z"/>
	<rect id="Rectángulo_83_1_" x="-1357.59" y="3385.43" class="st6" width="22.47" height="7.53"/>
	<rect id="Rectángulo_84_1_" x="-1325.93" y="3385.43" class="st6" width="22.47" height="7.53"/>
</g>
<g>
	<g id="Grupo_98" transform="translate(47.035 54.451)">
		<path id="Trazado_90" class="st6" d="M-772.84,3096.79c-6.61,0.02-12.93-2.73-17.41-7.59h-9.59c9.06,14.91,28.5,19.66,43.42,10.59
			c4.33-2.63,7.96-6.26,10.59-10.59h-9.59C-759.91,3094.05-766.23,3096.81-772.84,3096.79z"/>
	</g>
	<path id="Trazado_91" class="st6" d="M-799.85,3135.77l5.07-30.1h7.69l5.98,16.05l5.94-16.05h7.69l5.07,30.1h-7.73l-2.58-17.33
		l-7.05,17.33h-3.09l-6.69-17.33l-2.58,17.33L-799.85,3135.77z"/>
	<path id="Trazado_92" class="st6" d="M-760.74,3120.01c-0.08-6.43,3.84-12.24,9.84-14.56c4.3-1.61,9.03-1.61,13.33,0
		c1.95,0.76,3.74,1.89,5.25,3.35c1.46,1.43,2.63,3.13,3.42,5.01c1.64,3.97,1.64,8.43,0,12.4c-0.8,1.88-1.96,3.58-3.42,5.01
		c-1.51,1.45-3.29,2.59-5.25,3.35c-4.3,1.61-9.03,1.61-13.33,0C-756.89,3132.24-760.81,3126.44-760.74,3120.01L-760.74,3120.01z
		 M-752.62,3120.01c-0.01,1.13,0.22,2.25,0.67,3.29c0.87,1.98,2.49,3.54,4.5,4.34c3.13,1.26,6.7,0.59,9.15-1.72
		c0.78-0.74,1.41-1.63,1.84-2.61c0.9-2.1,0.9-4.48,0-6.57c-0.44-0.98-1.06-1.87-1.84-2.62c-0.78-0.74-1.7-1.32-2.7-1.72
		c-2.07-0.82-4.38-0.82-6.46,0c-0.99,0.39-1.9,0.98-2.67,1.72c-0.77,0.75-1.39,1.63-1.82,2.62
		C-752.4,3117.76-752.63,3118.88-752.62,3120.01z"/>
	<path id="Trazado_93" class="st6" d="M-723.76,3120.01c-0.08-6.43,3.84-12.24,9.84-14.56c4.3-1.61,9.03-1.61,13.33,0
		c1.95,0.76,3.74,1.89,5.25,3.35c1.46,1.42,2.63,3.13,3.43,5.01c1.64,3.97,1.64,8.43,0,12.4c-0.8,1.88-1.96,3.59-3.43,5.01
		c-1.51,1.45-3.29,2.59-5.25,3.35c-4.3,1.61-9.03,1.61-13.33,0C-719.91,3132.24-723.83,3126.44-723.76,3120.01L-723.76,3120.01z
		 M-715.64,3120.01c-0.01,1.13,0.22,2.25,0.67,3.29c0.87,1.98,2.49,3.54,4.5,4.34c2.07,0.82,4.38,0.82,6.45,0
		c1-0.4,1.91-0.98,2.69-1.72c0.78-0.74,1.41-1.63,1.84-2.61c0.9-2.1,0.9-4.48,0-6.57c-0.44-0.98-1.06-1.87-1.84-2.62
		c-0.78-0.74-1.69-1.32-2.69-1.72c-2.07-0.82-4.38-0.82-6.45,0c-0.99,0.39-1.9,0.98-2.67,1.72c-0.77,0.75-1.39,1.63-1.82,2.62
		C-715.42,3117.76-715.65,3118.88-715.64,3120.01z"/>
	<path id="Trazado_94" class="st6" d="M-686.77,3105.67h11.49c1.98-0.01,3.93,0.41,5.72,1.24c1.75,0.8,3.33,1.92,4.67,3.29
		c1.34,1.38,2.41,3.01,3.15,4.79c1.53,3.65,1.53,7.76,0.02,11.42c-0.73,1.79-1.79,3.42-3.13,4.81c-1.34,1.39-2.92,2.51-4.67,3.31
		c-1.81,0.83-3.77,1.25-5.76,1.24h-11.49V3105.67z M-679.01,3129.14h1.78c1.23,0.02,2.45-0.2,3.6-0.64c1-0.39,1.91-0.99,2.67-1.76
		c0.73-0.76,1.3-1.66,1.66-2.66c0.39-1.08,0.59-2.22,0.58-3.37c0.01-1.14-0.19-2.28-0.59-3.35c-0.74-2.04-2.33-3.66-4.36-4.43
		c-1.14-0.44-2.35-0.66-3.56-0.64h-1.78L-679.01,3129.14z"/>
	<rect id="Rectángulo_56" x="-752.78" y="3089.19" class="st6" width="22.47" height="7.53"/>
	<rect id="Rectángulo_57" x="-721.12" y="3089.19" class="st6" width="22.47" height="7.53"/>
</g>
</svg>
