<svg id="Capa_1" data-name="Capa 1" xmlns="http://www.w3.org/2000/svg" viewBox="0 0 475.14 475.14"><defs><style>.cls-1,.cls-2{fill:#e3d7ce;}.cls-1{stroke:#20345b;stroke-miterlimit:10;stroke-width:20px;}.cls-3{fill:#20345b;}.cls-4{fill:#1e335b;}</style></defs><title>Queen</title><g id="Elipse_27-2" data-name="Elipse 27-2"><circle class="cls-1" cx="237.57" cy="237.57" r="227.57"/></g><path class="cls-2" d="M287.12,264.32v36.56s84.43-1.6,84.43,93.49H128.45c0-95.09,84.43-93.49,84.43-93.49v-37.4a71,71,0,0,0,38.51,11.95C273.63,275.43,287.12,264.32,287.12,264.32Z" transform="translate(-12.43 -12.43)"/><path class="cls-3" d="M371.55,397.82H128.45a3.44,3.44,0,0,1-3.45-3.45c0-31,8.75-55.24,26-72.17,21.22-20.82,48.73-24.16,58.42-24.68v-34a3.43,3.43,0,0,1,1.89-3.07,3.46,3.46,0,0,1,3.6.29c.15.11,15.69,11.28,36.47,11.28s33.42-10.22,33.55-10.33a3.45,3.45,0,0,1,5.63,2.67v33.2c9.69.52,37.2,3.86,58.42,24.68,17.26,16.93,26,41.21,26,72.17A3.44,3.44,0,0,1,371.55,397.82Zm-239.61-6.89H368.07c-.62-27.36-8.64-48.8-23.85-63.76-23.53-23.13-56.72-22.83-57-22.84a3.32,3.32,0,0,1-2.48-1,3.44,3.44,0,0,1-1-2.46V270.69a66.27,66.27,0,0,1-32.29,8.19,74.34,74.34,0,0,1-35.07-9.23v31.23a3.46,3.46,0,0,1-1,2.47,3.52,3.52,0,0,1-2.48,1c-.34,0-33.51-.29-57,22.84C140.57,342.13,132.55,363.57,131.94,390.93Z" transform="translate(-12.43 -12.43)"/><g id="Elipse_27-2-2" data-name="Elipse 27-2"><ellipse class="cls-2" cx="239.05" cy="185.83" rx="66" ry="77.17"/><path class="cls-3" d="M251.48,278.88c-38.29,0-69.45-36.17-69.45-80.62q0-3.94,0-7.79c-.17-23.26-.32-43.35,13.19-57,10.76-10.83,28.64-15.87,56.29-15.87,31.63,0,50.92,7.72,60.72,24.3,8.72,14.77,8.72,34.95,8.72,56.32C320.92,242.71,289.77,278.88,251.48,278.88Zm0-154.34c-25.34,0-42.15,4.52-51.39,13.83-11.49,11.57-11.35,30.33-11.2,52,0,2.58,0,5.19,0,7.84,0,40.65,28.06,73.72,62.55,73.72S314,238.91,314,198.26C314,155.46,314,124.54,251.48,124.54Z" transform="translate(-12.43 -12.43)"/></g><path class="cls-4" d="M286.47,219.89c-4.15,0-8.94-1.44-13.59-6.1a3.45,3.45,0,0,1,4.88-4.87c8.73,8.74,17.82.84,18.82-.09a3.45,3.45,0,0,1,4.71,5,25.52,25.52,0,0,1-8.83,5.06A19.89,19.89,0,0,1,286.47,219.89Z" transform="translate(-12.43 -12.43)"/><path class="cls-4" d="M212.22,219.89c-4.15,0-8.94-1.44-13.59-6.1a3.45,3.45,0,0,1,4.88-4.87c8.73,8.73,17.82.84,18.83-.09a3.45,3.45,0,0,1,4.7,5,25.4,25.4,0,0,1-8.83,5.06A19.89,19.89,0,0,1,212.22,219.89Z" transform="translate(-12.43 -12.43)"/><path class="cls-4" d="M224.6,203.41a3,3,0,0,1-.42,0l-23.44-2.87a3.45,3.45,0,1,1,.84-6.85L225,196.54a3.45,3.45,0,0,1-.41,6.87Z" transform="translate(-12.43 -12.43)"/><path class="cls-4" d="M250,396.81H128.45a3.45,3.45,0,0,1-3.45-3.45c0-31,8.75-55.25,26-72.18,21.22-20.82,48.73-24.16,58.42-24.67v-32.6a3.45,3.45,0,1,1,6.89,0v36a3.45,3.45,0,0,1-3.51,3.45c-.33,0-33.51-.29-57,22.84-15.21,15-23.23,36.4-23.84,63.75H250a3.45,3.45,0,0,1,0,6.9Z" transform="translate(-12.43 -12.43)"/><path class="cls-4" d="M371.55,396.81H250a3.45,3.45,0,0,1,0-6.9H368.07c-.62-27.35-8.64-48.79-23.85-63.75-23.52-23.13-56.73-22.84-57-22.84a3.39,3.39,0,0,1-2.48-1,3.46,3.46,0,0,1-1-2.46V267a3.45,3.45,0,0,1,6.89,0v29.55c9.69.51,37.2,3.85,58.42,24.67,17.26,16.93,26,41.22,26,72.18A3.45,3.45,0,0,1,371.55,396.81Z" transform="translate(-12.43 -12.43)"/><path class="cls-3" d="M251.35,238.24c-19.26,0-26.67,9.17-26.67,9.17H278s-7.41-9.17-26.67-9.17" transform="translate(-12.43 -12.43)"/><path class="cls-4" d="M278,250.86H224.68a3.44,3.44,0,0,1-3.11-2,3.48,3.48,0,0,1,.43-3.66c.35-.42,8.68-10.44,29.35-10.44s29,10,29.35,10.44a3.45,3.45,0,0,1-2.68,5.62ZM236.71,244H266a48.38,48.38,0,0,0-29.29,0Z" transform="translate(-12.43 -12.43)"/><path class="cls-4" d="M251.35,260.59a1.83,1.83,0,0,1-.33,0l-17.65-2a3,3,0,1,1,.67-5.93l17.31,1.95,17.32-1.95a3,3,0,0,1,.67,5.93l-17.65,2A1.94,1.94,0,0,1,251.35,260.59Z" transform="translate(-12.43 -12.43)"/><path class="cls-4" d="M186.57,396.81a3.45,3.45,0,0,1-3.45-3.45V304.25a3.45,3.45,0,0,1,6.9,0v89.11A3.46,3.46,0,0,1,186.57,396.81Z" transform="translate(-12.43 -12.43)"/><path class="cls-4" d="M174.42,396.81a3.46,3.46,0,0,1-3.45-3.45V309a3.45,3.45,0,0,1,6.9,0v84.33A3.45,3.45,0,0,1,174.42,396.81Z" transform="translate(-12.43 -12.43)"/><path class="cls-4" d="M327.5,396.81a3.45,3.45,0,0,1-3.45-3.45V310a3.45,3.45,0,0,1,6.9,0v83.37A3.46,3.46,0,0,1,327.5,396.81Z" transform="translate(-12.43 -12.43)"/><path class="cls-4" d="M315.35,396.81a3.45,3.45,0,0,1-3.44-3.45V304.88a3.45,3.45,0,1,1,6.89,0v88.48A3.45,3.45,0,0,1,315.35,396.81Z" transform="translate(-12.43 -12.43)"/><path class="cls-4" d="M251.14,341.21c-47.1,0-47.71-39.22-47.71-39.62a3.45,3.45,0,0,1,3.45-3.45h0a3.45,3.45,0,0,1,3.45,3.44c0,1.33.71,32.73,40.81,32.73,40.3,0,40.81-31.39,40.81-32.73a3.45,3.45,0,0,1,3.45-3.44h0a3.45,3.45,0,0,1,3.45,3.45C298.85,302,298.24,341.21,251.14,341.21Z" transform="translate(-12.43 -12.43)"/><path class="cls-4" d="M250.59,352.25H250c-57.27,0-58.3-49.74-58.3-50.24a3.45,3.45,0,0,1,3.42-3.48A3.41,3.41,0,0,1,198.6,302c0,1.76,1.08,43.4,51.4,43.4h.59c50.3,0,51.39-39.46,51.41-41.14a3.45,3.45,0,0,1,3.45-3.41h0a3.44,3.44,0,0,1,3.41,3.47C308.89,304.76,307.86,352.25,250.59,352.25Z" transform="translate(-12.43 -12.43)"/><path class="cls-4" d="M251.78,153.31c30.41,0,50.29-11.8,50.29-11.8,9.59,3.37,14.8,65.54,14.8,65.54s39.83-101.42-65.52-101.42-65.52,101.42-65.52,101.42,5.21-62.17,14.81-65.54c0,0,19.87,11.8,50.28,11.8" transform="translate(-12.43 -12.43)"/><path class="cls-4" d="M185.83,210.5a3.47,3.47,0,0,1-3.21-2.19,127.62,127.62,0,0,1-6.7-27.62c-2.68-20.84.59-38.72,9.44-51.71,12.12-17.79,34.32-26.8,66-26.8s53.87,9,66,26.8c8.86,13,12.12,30.87,9.44,51.71a127.62,127.62,0,0,1-6.7,27.62,3.45,3.45,0,0,1-6.65-1C311,178,305.81,151.11,301.74,145.6c-6,3.06-24.25,11.16-50,11.16l-.43,0-.43,0c-25.74,0-44-8.13-50-11.17-4,5.4-9.19,32.32-11.66,61.75a3.44,3.44,0,0,1-2.94,3.12A2.81,2.81,0,0,1,185.83,210.5Zm65.52-101.42c-29.24,0-49.52,8-60.28,23.76-11.72,17.18-10,40.4-6.76,56,.53-4.32,1.18-9.06,1.92-13.82,4.69-29.93,9.34-35.37,13.26-36.75a3.43,3.43,0,0,1,2.91.29c.19.11,19.52,11.31,48.52,11.31a3,3,0,0,1,.43,0,3.11,3.11,0,0,1,.43,0c29,0,48.34-11.2,48.53-11.32a3.47,3.47,0,0,1,2.9-.28c3.92,1.38,8.57,6.82,13.26,36.75.75,4.76,1.39,9.5,1.92,13.82,3.2-15.59,5-38.81-6.76-56C300.87,117.07,280.59,109.08,251.35,109.08Z" transform="translate(-12.43 -12.43)"/><path class="cls-4" d="M275.4,203.41a3.45,3.45,0,0,1-.42-6.87l23.44-2.88a3.45,3.45,0,1,1,.84,6.85l-23.44,2.87A3,3,0,0,1,275.4,203.41Z" transform="translate(-12.43 -12.43)"/></svg>