<svg id="Capa_1" data-name="Capa 1" xmlns="http://www.w3.org/2000/svg" viewBox="0 0 475.14 475.14"><defs><style>.cls-1{fill:#e55552;stroke-miterlimit:10;stroke-width:20px;}.cls-1,.cls-4,.cls-5{stroke:#20345b;}.cls-2,.cls-4{fill:#e3d7cf;}.cls-3{fill:#20345b;}.cls-4,.cls-5{stroke-linecap:round;stroke-linejoin:round;}.cls-4{stroke-width:5.86px;}.cls-5{fill:none;stroke-width:3.72px;}</style></defs><title>Sia</title><g id="Elipse_27-2" data-name="Elipse 27-2"><circle class="cls-1" cx="237.57" cy="237.57" r="227.57"/></g><path class="cls-2" d="M279.83,283.63c0-1.31,2.44-4.4,3.06-5.56l16.45-29.33,6.86-15.91,26.61,60.89a8,8,0,0,1-7.4,11.21H279.83Z" transform="translate(-12.43 -12.43)"/><path class="cls-3" d="M325.41,307.27H279.83a2.34,2.34,0,0,1-2.34-2.34v-21.3c0-1.52,1-3.12,2.52-5.39.33-.5.68-1,.81-1.27l16.42-29.27,6.81-15.79a2.32,2.32,0,0,1,2.14-1.42h0a2.33,2.33,0,0,1,2.14,1.4L335,292.78a10.4,10.4,0,0,1-9.55,14.49Zm-43.25-4.68h43.25a5.71,5.71,0,0,0,5.25-7.95L306.21,238.7l-4.72,11a1.51,1.51,0,0,1-.11.22l-16.46,29.33c-.21.41-.59,1-1,1.63a19.41,19.41,0,0,0-1.73,2.91Z" transform="translate(-12.43 -12.43)"/><path class="cls-3" d="M216.76,283.63a8.12,8.12,0,0,0-.93-3.77l-16.46-31.12-6.85-15.91L165.9,293.72a8,8,0,0,0,7.41,11.21h43.45Z" transform="translate(-12.43 -12.43)"/><path class="cls-3" d="M216.76,307.27H173.31a10.39,10.39,0,0,1-10.39-10.39,10.23,10.23,0,0,1,.83-4.08l26.63-60.91a2.33,2.33,0,0,1,2.14-1.4h0a2.32,2.32,0,0,1,2.14,1.42l6.81,15.82,16.42,31a10.43,10.43,0,0,1,1.2,4.86v21.3a2.34,2.34,0,0,1-2.3,2.38ZM192.5,238.7,168,294.7a5.71,5.71,0,0,0,5.27,7.93h41.12v-19a5.65,5.65,0,0,0-.67-2.67l-16.45-31.13a.89.89,0,0,1-.08-.17Z" transform="translate(-12.43 -12.43)"/><g id="Elipse_27-2-2" data-name="Elipse 27-2-2"><ellipse class="cls-2" cx="237.65" cy="224.04" rx="56.05" ry="65.54"/><path class="cls-3" d="M250.08,304.94c-32.53,0-59-30.72-59-68.48v-6.61c-.14-19.76-.27-36.82,11.21-48.38,9.13-9.19,24.32-13.48,47.81-13.48,26.86,0,43.25,6.56,51.56,20.64,7.42,12.55,7.42,29.69,7.42,47.83C309.06,274.22,282.6,304.94,250.08,304.94Zm0-131.09c-21.52,0-35.8,3.84-43.65,11.75-9.76,9.83-9.64,25.76-9.51,44.2v6.66c0,34.53,23.83,62.62,53.13,62.62S303.2,271,303.2,236.46C303.2,200.11,303.2,173.85,250.08,173.85Z" transform="translate(-12.43 -12.43)"/></g><path class="cls-3" d="M248.22,292.65a43.59,43.59,0,0,1-29.92-12.53,2.93,2.93,0,0,1,4.17-4.11c1,1,24.35,24,51.8-.14a2.93,2.93,0,0,1,3.91,4.37l0,0C267.75,289.39,257.43,292.65,248.22,292.65Z" transform="translate(-12.43 -12.43)"/><path class="cls-4" d="M216.25,323.63" transform="translate(-12.43 -12.43)"/><path class="cls-4" d="M279.32,323.63" transform="translate(-12.43 -12.43)"/><path class="cls-2" d="M279.83,323.63V292.57S261.7,302,246.68,302s-29.92-10.15-29.92-10.15v31.77s-71.7-1.36-71.7,79.4H351.53C351.53,322.27,279.83,323.63,279.83,323.63Z" transform="translate(-12.43 -12.43)"/><path class="cls-3" d="M351.53,406H145.06a2.93,2.93,0,0,1-2.93-2.93c0-26.29,7.43-46.92,22.09-61.3,18-17.68,41.39-20.52,49.61-21V291.86a2.93,2.93,0,0,1,4.58-2.42c.14.1,14.37,9.64,28.27,9.64,14.11,0,31.62-9,31.79-9.1a2.92,2.92,0,0,1,3.94,1.22,2.87,2.87,0,0,1,.34,1.37v28.2c8.23.44,31.6,3.28,49.62,21,14.66,14.38,22.09,35,22.09,61.3a2.93,2.93,0,0,1-2.93,2.93ZM148,400.1H348.57c-.52-23.23-7.33-41.44-20.25-54.15-20-19.64-48.17-19.39-48.44-19.39a2.87,2.87,0,0,1-2.11-.84,3,3,0,0,1-.87-2.09V297.21c-6.44,2.86-19,7.73-30.22,7.73-10.73,0-21.21-4.75-27-7.91v26.6a2.94,2.94,0,0,1-.87,2.09,3,3,0,0,1-2.11.84c-.3,0-28.46-.25-48.44,19.39C155.35,358.66,148.54,376.87,148,400.1Z" transform="translate(-12.43 -12.43)"/><g id="Elipse_27-2-3" data-name="Elipse 27-2-3"><path class="cls-3" d="M196.38,264.22a98,98,0,0,1-1.74-18.56c0-41.28-4.81-74.74,55.44-74.74v74.74l-5.46,18.59h-15.1L219.22,247l-2.51,17.2H196.38" transform="translate(-12.43 -12.43)"/><path class="cls-3" d="M244.62,267.37h-15.1a3.15,3.15,0,0,1-2.69-1.52l-5.78-9.68-1.24,8.5a3.13,3.13,0,0,1-3.1,2.67H196.38a3.13,3.13,0,0,1-3.07-2.54,102.35,102.35,0,0,1-1.8-19.13v-8.52c-.19-23-.36-42.83,12.39-55.69,9.12-9.2,24.24-13.67,46.22-13.67a3.14,3.14,0,0,1,3.12,3.13v74.75a3.28,3.28,0,0,1-.12.88l-5.46,18.58A3.13,3.13,0,0,1,244.62,267.37Zm-13.33-6.25h11l4.67-15.9V174.08c-18.51.38-31.17,4.25-38.65,11.79-10.91,11-10.76,29.64-10.58,51.23,0,2.81.05,5.67.05,8.57A96,96,0,0,0,199,261.09h15l2.12-14.52a3.13,3.13,0,0,1,5.78-1.15Z" transform="translate(-12.43 -12.43)"/></g><g id="Elipse_27-2-4" data-name="Elipse 27-2-4"><path class="cls-2" d="M303.71,264.22a99.63,99.63,0,0,0,1.74-18.56c0-41.28,4.87-74.74-55.37-74.74v74.74l5.39,18.59h15.1L280.86,247l2.51,17.2h20.34" transform="translate(-12.43 -12.43)"/><path class="cls-3" d="M270.57,267.37h-15.1a3.13,3.13,0,0,1-3-2.25l-5.39-18.58a3.2,3.2,0,0,1-.12-.87V170.92a3.13,3.13,0,0,1,3.13-3.13h0c22,0,37.07,4.47,46.18,13.66,12.73,12.84,12.56,32.66,12.36,55.61v8.61a102.35,102.35,0,0,1-1.8,19.13,3.13,3.13,0,0,1-3.07,2.54H283.37a3.12,3.12,0,0,1-3.09-2.67l-1.24-8.5-5.79,9.68A3.12,3.12,0,0,1,270.57,267.37Zm-12.75-6.25h11l9.38-15.7a3.13,3.13,0,0,1,5.78,1.15l2.12,14.52h15a97.17,97.17,0,0,0,1.23-15.42c0-2.93,0-5.82.05-8.67.18-21.55.34-40.16-10.55-51.14-7.47-7.53-20.12-11.4-38.62-11.78v71.14Z" transform="translate(-12.43 -12.43)"/></g><path class="cls-3" d="M251.75,403H155.59a10.05,10.05,0,0,1-10.1-10c0-.28,0-.57,0-.86,2.6-29.62,15.85-46.45,30.22-56a10.2,10.2,0,0,1,4.86-1.69c7.87-.59,30.85-.76,30.85,17.45,0,13.23,6.9,17.95,12.39,19.6a9.94,9.94,0,0,0,9.47-2.11c4.91-4.39,15.78-10.95,29.29.21a10,10,0,0,0,8.92,2.11c5.59-1.45,13.13-6,13.13-19.81,0-18.21,23-18,30.85-17.45a10.2,10.2,0,0,1,4.86,1.69c14.38,9.55,27.62,26.38,30.23,56A10.07,10.07,0,0,1,341.36,403c-.28,0-.57,0-.85,0H244.36" transform="translate(-12.43 -12.43)"/><path class="cls-3" d="M340.51,406H155.59a13.15,13.15,0,0,1-9.65-4.25,13,13,0,0,1-3.34-9.81c2.31-26.25,12.92-45.83,31.52-58.19a13.24,13.24,0,0,1,6.26-2.17c7.29-.55,20.67-.4,28.4,6.76a17.75,17.75,0,0,1,5.6,13.61c0,9.09,3.47,14.74,10.3,16.8a7,7,0,0,0,6.68-1.5c4.76-4.25,17.51-12.75,33.1.14a7.2,7.2,0,0,0,6.33,1.54c7.25-1.89,10.93-7.6,10.93-17a17.79,17.79,0,0,1,5.61-13.61c7.72-7.16,21.1-7.32,28.39-6.76a13.14,13.14,0,0,1,6.26,2.17c18.61,12.37,29.21,31.94,31.52,58.19a12.88,12.88,0,0,1-3.34,9.81A13.13,13.13,0,0,1,340.51,406Zm-96.16-5.86h96.16a7.24,7.24,0,0,0,5.33-2.34,7,7,0,0,0,1.83-5.35c-2.15-24.38-11.88-42.49-28.93-53.82a7.27,7.27,0,0,0-3.46-1.21c-5.1-.39-17.65-.65-24,5.22a12,12,0,0,0-3.73,9.31c0,16.25-9.6,21.16-15.32,22.65a13.11,13.11,0,0,1-11.53-2.69c-11.08-9.16-20-5.21-25.46-.29a13,13,0,0,1-12.24,2.7c-5.4-1.63-14.47-6.71-14.47-22.41a12,12,0,0,0-3.73-9.31c-6.32-5.87-18.87-5.6-24-5.22a7.27,7.27,0,0,0-3.46,1.21c-17.05,11.33-26.78,29.44-28.92,53.82a6.93,6.93,0,0,0,1.82,5.35,7.24,7.24,0,0,0,5.33,2.34Z" transform="translate(-12.43 -12.43)"/><rect class="cls-2" x="205.17" y="138.29" width="63.73" height="33.54" rx="12"/><path class="cls-3" d="M266.7,186.53H232.24a16.93,16.93,0,0,1-16.9-16.91v-4.27a16.92,16.92,0,0,1,16.9-16.9H266.7a16.92,16.92,0,0,1,16.9,16.9v4.27A16.93,16.93,0,0,1,266.7,186.53ZM232.24,153a12.38,12.38,0,0,0-12.37,12.36v4.27A12.39,12.39,0,0,0,232.24,182H266.7a12.38,12.38,0,0,0,12.36-12.37v-4.27A12.38,12.38,0,0,0,266.7,153Z" transform="translate(-12.43 -12.43)"/><path class="cls-2" d="M244.19,166.05h12.69" transform="translate(-12.43 -12.43)"/><path class="cls-2" d="M225.65,152.63s-34.4-40.47-110.95-56.32c0,0-32.37,81.61,28.67,167.94,0,0,63.06-21.92,82.28-84Z" transform="translate(-12.43 -12.43)"/><path class="cls-3" d="M143.37,266.51a2.28,2.28,0,0,1-1.86-.95c-31.88-45.1-38.06-88.89-37.63-117.69.46-31.25,8.38-51.55,8.71-52.4a2.28,2.28,0,0,1,2.57-1.38C191.6,109.91,226,149.48,227.38,151.16a2.3,2.3,0,0,1,.53,1.47v27.65a2.18,2.18,0,0,1-.1.67c-19.33,62.42-83.06,85.22-83.7,85.44A2.34,2.34,0,0,1,143.37,266.51ZM116.17,98.94c-1.91,5.6-7.41,23.9-7.76,49.2C108,175.91,114,218,144.21,261.49c9.8-3.9,62.1-27.05,79.17-81.56V153.49C218.76,148.48,184.62,113.62,116.17,98.94Z" transform="translate(-12.43 -12.43)"/><path class="cls-2" d="M274.35,152.63s34.4-40.47,111-56.32c0,0,32.37,81.61-28.67,167.94,0,0-63.06-21.92-82.28-84Z" transform="translate(-12.43 -12.43)"/><path class="cls-3" d="M356.63,266.51a2.34,2.34,0,0,1-.74-.12c-.64-.22-64.37-23-83.71-85.44a2.53,2.53,0,0,1-.1-.67V152.63a2.26,2.26,0,0,1,.54-1.47c1.43-1.68,35.78-41.25,112.22-57.07a2.28,2.28,0,0,1,2.57,1.38c.33.85,8.25,21.15,8.71,52.4.43,28.8-5.75,72.59-37.63,117.69A2.28,2.28,0,0,1,356.63,266.51Zm-80-86.58c17.07,54.51,69.37,77.66,79.17,81.56C386,218,392,175.91,391.59,148.14c-.35-25.3-5.85-43.6-7.76-49.2-68.55,14.7-102.6,49.54-107.21,54.55Z" transform="translate(-12.43 -12.43)"/><path class="cls-2" d="M217.21,163.37s-3.27,3.82,0,7.09" transform="translate(-12.43 -12.43)"/><path class="cls-3" d="M217.21,172.73a2.24,2.24,0,0,1-1.6-.67c-3.76-3.75-1.72-8.29-.12-10.16a2.27,2.27,0,0,1,3.46,2.94c-.45.53-1.75,2.4-.13,4a2.27,2.27,0,0,1-1.61,3.87Z" transform="translate(-12.43 -12.43)"/><path class="cls-2" d="M202.3,160.57s-20.76-22.8-72.83-35.4" transform="translate(-12.43 -12.43)"/><path class="cls-3" d="M202.3,162.84a2.28,2.28,0,0,1-1.68-.74c-.21-.24-21-22.47-71.68-34.72a2.27,2.27,0,0,1,.52-4.51,2.37,2.37,0,0,1,.54.13c52.14,12.61,73.1,35.12,74,36.07a2.28,2.28,0,0,1-.18,3.22,2.25,2.25,0,0,1-1.5.58Z" transform="translate(-12.43 -12.43)"/><path class="cls-2" d="M202.3,180.28s-20.76,22.8-72.83,35.39" transform="translate(-12.43 -12.43)"/><path class="cls-3" d="M129.47,217.94a2.27,2.27,0,0,1-.53-4.48c50.65-12.25,71.48-34.49,71.68-34.71A2.28,2.28,0,1,1,204,181.8c-.87,1-21.83,23.47-74,36.07A1.88,1.88,0,0,1,129.47,217.94Z" transform="translate(-12.43 -12.43)"/><path class="cls-2" d="M282.94,163.37s3.27,3.82,0,7.09" transform="translate(-12.43 -12.43)"/><path class="cls-3" d="M282.94,172.73a2.27,2.27,0,0,1-1.62-3.85l0,0c1.61-1.62.3-3.49-.14-4a2.28,2.28,0,0,1,.29-3.19,2.25,2.25,0,0,1,3.17.26c1.61,1.87,3.64,6.41-.12,10.16A2.23,2.23,0,0,1,282.94,172.73Z" transform="translate(-12.43 -12.43)"/><path class="cls-2" d="M297.7,160.57s20.76-22.8,72.83-35.4" transform="translate(-12.43 -12.43)"/><path class="cls-3" d="M297.7,162.83A2.29,2.29,0,0,1,296,159l0,0c.87-.95,21.83-23.46,74-36.07a2.27,2.27,0,0,1,1.2,4.38l-.13,0c-50.65,12.25-71.48,34.49-71.68,34.72A2.24,2.24,0,0,1,297.7,162.83Z" transform="translate(-12.43 -12.43)"/><path class="cls-2" d="M297.7,180.28s20.76,22.8,72.83,35.39" transform="translate(-12.43 -12.43)"/><path class="cls-3" d="M370.53,217.94a2,2,0,0,1-.54-.07c-52.14-12.6-73.1-35.11-74-36.07a2.27,2.27,0,0,1,3.36-3.05c.21.23,21,22.47,71.68,34.71a2.27,2.27,0,0,1-.53,4.48Z" transform="translate(-12.43 -12.43)"/><path class="cls-5" d="M245.25,167.49h10.4" transform="translate(-12.43 -12.43)"/></svg>