<?xml version="1.0" encoding="utf-8"?>
<!-- Generator: Adobe Illustrator 24.0.0, SVG Export Plug-In . SVG Version: 6.00 Build 0)  -->
<svg version="1.1" id="Capa_1" xmlns="http://www.w3.org/2000/svg" xmlns:xlink="http://www.w3.org/1999/xlink" x="0px" y="0px"
	 viewBox="0 0 303.89 292.05" style="enable-background:new 0 0 303.89 292.05;" xml:space="preserve">
<style type="text/css">
	.st0{fill:#F5B15A;}
	.st1{fill:#EAE3DA;}
	.st2{fill:#E4D7CE;}
	.st3{fill:#002E61;}
	.st4{fill:#E45451;}
	.st5{fill:#E4D8CE;}
	.st6{fill:#1E244D;}
	.st7{fill:#F99A3D;}
	.st8{fill:none;stroke:#002E61;stroke-width:10;stroke-miterlimit:10;}
	.st9{fill:none;stroke:#002E61;stroke-width:5;stroke-linecap:round;stroke-linejoin:round;}
	.st10{fill:#E45451;stroke:#002E61;stroke-width:10;stroke-miterlimit:10;}
	.st11{fill:#F5B15A;stroke:#002E61;stroke-width:10;stroke-miterlimit:10;}
	.st12{fill:#E4D7CE;stroke:#002E61;stroke-width:10;stroke-miterlimit:10;}
	.st13{fill:none;stroke:#E4D7CE;stroke-width:5;stroke-linecap:round;stroke-linejoin:round;}
	.st14{font-family:'SegoeUI';}
	.st15{font-size:21px;}
	.st16{fill:none;stroke:#002E61;stroke-width:2.37;stroke-linecap:round;stroke-linejoin:round;}
	.st17{fill:#E4D8CE;stroke:#002E61;stroke-width:10;stroke-miterlimit:10;}
	.st18{fill:#E4D8CE;stroke:#002E61;stroke-width:5;stroke-linecap:round;stroke-linejoin:round;}
</style>
<rect id="Rectángulo_36_1_" x="-2519.18" y="-2072.39" class="st0" width="1919.83" height="1080"/>
<g id="Grupo_201_1_" transform="translate(0 -7.083)">
	<g id="Grupo_10_1_" transform="translate(150 84.083)">
		<path id="Trazado_8_1_" class="st1" d="M-2516.95-1242.76c2.94-6.98,8.59-12.47,15.66-15.19c7.81-2.93,16.42-2.93,24.23,0
			c3.55,1.37,6.8,3.44,9.54,6.08c2.66,2.59,4.78,5.69,6.23,9.11c2.98,7.22,2.98,15.32,0,22.54c-1.45,3.42-3.57,6.52-6.23,9.11
			c-2.74,2.64-5.99,4.71-9.54,6.09c-7.81,2.93-16.42,2.93-24.23,0c-14.7-6-21.76-22.78-15.76-37.49
			C-2517.01-1242.6-2516.98-1242.68-2516.95-1242.76L-2516.95-1242.76z M-2503.19-1225.51c1.58,3.6,4.52,6.43,8.18,7.88
			c5.68,2.29,12.17,1.07,16.63-3.13c1.42-1.35,2.56-2.96,3.35-4.75c1.63-3.82,1.63-8.14,0-11.95c-0.79-1.79-1.93-3.4-3.35-4.75
			c-1.42-1.35-3.08-2.41-4.9-3.13c-3.77-1.49-7.97-1.49-11.74,0c-1.81,0.72-3.46,1.78-4.86,3.13c-1.4,1.36-2.53,2.97-3.31,4.75
			C-2504.83-1233.65-2504.83-1229.33-2503.19-1225.51L-2503.19-1225.51z"/>
		<rect id="Rectángulo_4_1_" x="-2495.96" y="-1186.71" class="st1" width="13.68" height="40.85"/>
		<g id="Grupo_6_1_" transform="translate(7.948 405.244)">
			
				<rect id="Rectángulo_5_1_" x="-2474.31" y="-1981.05" transform="matrix(0.7071 -0.7071 0.7071 0.7071 677.251 -2313.3955)" class="st1" width="40.85" height="13.68"/>
			<g id="Grupo_5_1_">
				<rect id="Rectángulo_6_1_" x="-2473.17" y="-2030.14" class="st1" width="98.18" height="13.68"/>
				<g id="Grupo_4_1_">
					<path id="Trazado_9_1_" class="st1" d="M-2505.37-2023.3c0.04-12.02-4.97-23.51-13.81-31.66v-17.43
						c27.11,16.48,35.73,51.81,19.26,78.92c-4.78,7.87-11.39,14.48-19.26,19.26v-17.44
						C-2510.34-1999.8-2505.33-2011.28-2505.37-2023.3z"/>
				</g>
			</g>
		</g>
		<g id="Grupo_9_1_" transform="translate(4.411)">
			<path id="Trazado_10_1_" class="st1" d="M-2480.63-1982.47c1.58,3.6,4.52,6.43,8.18,7.88c5.68,2.29,12.17,1.06,16.63-3.13
				c1.42-1.35,2.56-2.96,3.35-4.75c1.63-3.82,1.63-8.14,0-11.95c-0.79-1.79-1.93-3.4-3.35-4.75c-4.48-4.17-10.95-5.39-16.63-3.13
				c-1.81,0.72-3.46,1.78-4.86,3.13c-1.4,1.36-2.53,2.97-3.31,4.75C-2482.26-1990.61-2482.26-1986.29-2480.63-1982.47z"/>
			<g id="Grupo_7_1_" transform="translate(3.537 126.423)">
				<path id="Trazado_11_1_" class="st1" d="M-2470.09-2058.59c-12.02-0.04-23.5,4.97-31.65,13.81h-17.44
					c16.48-27.11,51.81-35.73,78.92-19.26c7.87,4.78,14.48,11.39,19.26,19.26h-17.44
					C-2446.58-2053.62-2458.07-2058.63-2470.09-2058.59z"/>
			</g>
			<g id="Grupo_8_1_">
				<path id="Trazado_12_1_" class="st1" d="M-2495.16-2072.39l-24.02,25.21l9.91,9.44l14.11-14.81l19.07,20.01l19.07-20.01
					l19.07,20.01l24.03-25.21l-9.9-9.44l-14.13,14.82l-19.07-20.01l-19.07,20.01L-2495.16-2072.39z"/>
			</g>
		</g>
	</g>
	<g id="Grupo_26_1_" transform="translate(1324 684.328)">
		
			<rect id="Rectángulo_5-2_1_" x="-2474.31" y="-1981.05" transform="matrix(0.7071 -0.7071 0.7071 0.7071 677.251 -2313.3955)" class="st1" width="40.85" height="13.68"/>
		<g id="Grupo_5-2_1_" transform="translate(0 0)">
			<rect id="Rectángulo_6-2_1_" x="-2473.17" y="-2030.14" class="st1" width="98.18" height="13.68"/>
			<g id="Grupo_4-2_1_">
				<path id="Trazado_9-2_1_" class="st1" d="M-2505.37-2023.3c0.04-12.02-4.97-23.5-13.81-31.65v-17.44
					c17.21,10.35,27.71,29,27.61,49.09c0.09,20.09-10.4,38.74-27.61,49.09v-17.44C-2510.34-1999.8-2505.33-2011.28-2505.37-2023.3z"
					/>
			</g>
		</g>
	</g>
	<g id="Grupo_35_1_" transform="translate(0 186)">
		<path id="Trazado_8-2_1_" class="st1" d="M-1967.27-1891.42c-2.94,6.98-8.59,12.47-15.66,15.19c-7.81,2.93-16.42,2.93-24.23,0
			c-3.55-1.37-6.8-3.44-9.54-6.08c-2.66-2.59-4.78-5.69-6.23-9.11c-2.98-7.22-2.98-15.32,0-22.54c1.45-3.42,3.57-6.52,6.23-9.11
			c2.74-2.64,5.99-4.71,9.54-6.09c7.81-2.93,16.42-2.93,24.23,0c14.7,6,21.76,22.78,15.76,37.49
			C-1967.2-1891.58-1967.24-1891.5-1967.27-1891.42L-1967.27-1891.42z M-1981.02-1908.67c-1.58-3.6-4.52-6.43-8.17-7.88
			c-5.68-2.29-12.17-1.07-16.63,3.13c-1.42,1.35-2.56,2.96-3.35,4.75c-1.63,3.82-1.63,8.14,0,11.95c0.79,1.79,1.93,3.4,3.35,4.75
			c1.42,1.35,3.08,2.41,4.9,3.13c3.77,1.49,7.96,1.49,11.73,0c1.81-0.72,3.46-1.78,4.86-3.13c1.4-1.36,2.53-2.97,3.31-4.75
			C-1979.39-1900.53-1979.39-1904.85-1981.02-1908.67L-1981.02-1908.67z"/>
		<rect id="Rectángulo_4-2_1_" x="-2001.94" y="-1988.31" class="st1" width="13.68" height="40.85"/>
	</g>
	<g id="Grupo_6-2_1_" transform="translate(592.19 791.365) rotate(180)">
		
			<rect id="Rectángulo_5-3_1_" x="2564.04" y="2163.73" transform="matrix(0.7071 -0.7071 0.7071 0.7071 -777.8564 2463.2463)" class="st1" width="40.85" height="13.68"/>
		<g id="Grupo_5-3_1_">
			<rect id="Rectángulo_6-3_1_" x="2565.18" y="2114.64" class="st1" width="98.18" height="13.68"/>
			<g id="Grupo_4-3_1_">
				<path id="Trazado_9-3_1_" class="st1" d="M2532.98,2121.48c0.04-12.02-4.97-23.51-13.81-31.66v-17.43
					c27.11,16.48,35.73,51.81,19.26,78.92c-4.78,7.87-11.39,14.48-19.26,19.26v-17.44
					C2528.01,2144.99,2533.02,2133.5,2532.98,2121.48z"/>
			</g>
		</g>
	</g>
	<g id="Grupo_27_1_" transform="translate(1339.463 279.083)">
		<path id="Trazado_10-2_1_" class="st1" d="M-2480.63-1982.47c1.58,3.6,4.52,6.43,8.18,7.88c1.87,0.75,3.86,1.13,5.87,1.12
			c4,0.02,7.86-1.5,10.77-4.25c1.42-1.35,2.56-2.96,3.35-4.75c0.83-1.88,1.24-3.92,1.22-5.97c0.02-2.06-0.39-4.09-1.22-5.98
			c-0.79-1.79-1.93-3.4-3.35-4.75c-2.91-2.75-6.76-4.27-10.77-4.25c-2.01-0.01-4,0.37-5.87,1.11c-1.81,0.72-3.46,1.78-4.86,3.13
			c-1.4,1.36-2.53,2.97-3.31,4.75c-0.83,1.88-1.24,3.92-1.22,5.98C-2481.87-1986.39-2481.45-1984.36-2480.63-1982.47z"/>
		<g id="Grupo_7-2_1_" transform="translate(3.537 126.423)">
			<path id="Trazado_11-2_1_" class="st1" d="M-2470.09-2058.59c-12.02-0.04-23.5,4.97-31.65,13.81h-17.44
				c10.35-17.21,29-27.71,49.09-27.61c20.09-0.09,38.74,10.4,49.09,27.61h-17.44C-2446.58-2053.62-2458.07-2058.63-2470.09-2058.59z
				"/>
		</g>
		<g id="Grupo_8-2_1_">
			<path id="Trazado_12-2_1_" class="st1" d="M-2495.16-2072.39l-24.02,25.21l9.91,9.44l14.11-14.81l19.07,20.01l19.07-20.01
				l19.07,20.01l24.03-25.21l-9.9-9.44l-14.12,14.82l-19.07-20.02l-19.07,20.02L-2495.16-2072.39z"/>
		</g>
	</g>
	<g id="Grupo_25_1_" transform="translate(15.249)">
		<path id="Trazado_13_1_" class="st1" d="M-766.66-1891.42c-2.94,6.98-8.59,12.47-15.66,15.19c-7.81,2.93-16.42,2.93-24.23,0
			c-3.55-1.37-6.8-3.44-9.54-6.08c-2.66-2.59-4.78-5.69-6.23-9.11c-2.98-7.22-2.98-15.32,0-22.54c1.45-3.42,3.57-6.52,6.23-9.11
			c2.74-2.64,5.99-4.71,9.54-6.08c7.81-2.93,16.42-2.93,24.23,0c14.7,6,21.76,22.78,15.76,37.48
			C-766.59-1891.59-766.62-1891.51-766.66-1891.42L-766.66-1891.42z M-780.41-1908.67c-1.58-3.6-4.52-6.43-8.17-7.88
			c-3.77-1.49-7.97-1.49-11.74,0c-1.82,0.72-3.48,1.79-4.9,3.13c-1.42,1.35-2.56,2.96-3.35,4.75c-1.63,3.82-1.63,8.14,0,11.95
			c0.79,1.79,1.93,3.41,3.35,4.75c1.42,1.35,3.08,2.41,4.9,3.13c3.77,1.49,7.97,1.49,11.74,0c1.81-0.72,3.46-1.78,4.86-3.13
			c1.4-1.36,2.53-2.97,3.31-4.75C-778.78-1900.53-778.78-1904.85-780.41-1908.67z"/>
		<rect id="Rectángulo_7_1_" x="-801.33" y="-1988.31" class="st1" width="13.68" height="40.85"/>
		<g id="Grupo_13_1_" transform="translate(1602.612 487.904)">
			
				<rect id="Rectángulo_8_1_" x="-2460.69" y="-2059.96" transform="matrix(0.7071 -0.7071 0.7071 0.7071 737.0329 -2326.876)" class="st1" width="40.85" height="13.68"/>
			<g id="Grupo_12_1_" transform="translate(0 19.278)">
				<rect id="Rectángulo_9_1_" x="-2519.18" y="-2030.14" class="st1" width="98.18" height="13.68"/>
				<g id="Grupo_11_1_" transform="translate(116.577)">
					<path id="Trazado_14_1_" class="st1" d="M-2505.37-2023.3c-0.04,12.02,4.97,23.5,13.81,31.65v17.44
						c-27.11-16.47-35.74-51.81-19.26-78.92c4.78-7.87,11.39-14.48,19.26-19.26v17.44
						C-2500.4-2046.81-2505.41-2035.32-2505.37-2023.3z"/>
				</g>
			</g>
		</g>
		<g id="Grupo_16_1_" transform="translate(1645.084 856.573)">
			<path id="Trazado_15_1_" class="st1" d="M-2452.47-2008.28c-1.58-3.6-4.52-6.43-8.17-7.88c-5.68-2.29-12.17-1.07-16.63,3.13
				c-1.42,1.35-2.56,2.96-3.35,4.75c-1.63,3.82-1.63,8.14,0,11.95c0.79,1.79,1.93,3.41,3.35,4.75c1.42,1.35,3.08,2.41,4.9,3.13
				c3.77,1.49,7.97,1.49,11.74,0c1.81-0.72,3.46-1.78,4.86-3.13c1.4-1.36,2.53-2.97,3.31-4.75
				C-2450.84-2000.14-2450.84-2004.46-2452.47-2008.28L-2452.47-2008.28z"/>
			<g id="Grupo_14_1_" transform="translate(3.537)">
				<path id="Trazado_16_1_" class="st1" d="M-2470.09-2058.59c12.02,0.04,23.5-4.97,31.65-13.81h17.44
					c-16.48,27.11-51.81,35.73-78.92,19.26c-7.87-4.78-14.48-11.39-19.26-19.26h17.44
					C-2493.59-2063.56-2482.11-2058.55-2470.09-2058.59z"/>
			</g>
			<g id="Grupo_15_1_" transform="translate(0 114.188)">
				<path id="Trazado_17_1_" class="st1" d="M-2437.94-2032.55l24.02-25.21l-9.91-9.44l-14.11,14.81l-19.07-20.01l-19.07,20.02
					l-19.07-20.01l-24.03,25.21l9.9,9.44l14.12-14.82l19.08,20.01l19.07-20.01L-2437.94-2032.55z"/>
			</g>
		</g>
	</g>
</g>
<rect id="Rectángulo_51" x="-2518.65" y="-688.81" class="st2" width="1919.83" height="1080"/>
<g id="Grupo_203" transform="translate(0 -7.083)">
	<g id="Grupo_10" transform="translate(150 84.083)">
		<path id="Trazado_8" class="st3" d="M-2516.42,140.82c2.94-6.98,8.59-12.47,15.66-15.19c7.81-2.93,16.42-2.93,24.23,0
			c3.55,1.37,6.8,3.44,9.54,6.08c2.66,2.59,4.78,5.69,6.23,9.11c2.98,7.22,2.98,15.32,0,22.54c-1.45,3.42-3.57,6.52-6.23,9.11
			c-2.74,2.64-5.99,4.71-9.54,6.09c-7.81,2.93-16.42,2.93-24.23,0c-14.7-6-21.76-22.78-15.76-37.49
			C-2516.49,140.98-2516.45,140.9-2516.42,140.82L-2516.42,140.82z M-2502.67,158.07c1.58,3.6,4.52,6.43,8.17,7.88
			c5.68,2.29,12.17,1.07,16.63-3.13c1.42-1.35,2.56-2.96,3.35-4.75c1.63-3.82,1.63-8.14,0-11.95c-0.79-1.79-1.93-3.4-3.35-4.75
			c-1.42-1.35-3.08-2.41-4.9-3.13c-3.77-1.49-7.97-1.49-11.74,0c-1.81,0.72-3.46,1.78-4.86,3.13c-1.4,1.36-2.53,2.97-3.31,4.75
			C-2504.3,149.93-2504.3,154.25-2502.67,158.07L-2502.67,158.07z"/>
		<rect id="Rectángulo_4" x="-2495.43" y="196.86" class="st3" width="13.68" height="40.85"/>
		<g id="Grupo_6" transform="translate(7.948 405.244)">
			
				<rect id="Rectángulo_5" x="-2473.79" y="-597.47" transform="matrix(0.7071 -0.7071 0.7071 0.7071 -300.933 -1907.7825)" class="st3" width="40.85" height="13.68"/>
			<g id="Grupo_5">
				<rect id="Rectángulo_6" x="-2472.64" y="-646.56" class="st3" width="98.18" height="13.68"/>
				<g id="Grupo_4">
					<path id="Trazado_9" class="st3" d="M-2504.84-639.72c0.04-12.02-4.97-23.51-13.81-31.66v-17.43
						c27.11,16.48,35.73,51.81,19.26,78.92c-4.78,7.87-11.39,14.48-19.26,19.26v-17.44
						C-2509.81-616.22-2504.81-627.7-2504.84-639.72z"/>
				</g>
			</g>
		</g>
		<g id="Grupo_9" transform="translate(4.411)">
			<path id="Trazado_10" class="st3" d="M-2480.1-598.89c1.58,3.6,4.52,6.43,8.18,7.88c5.68,2.29,12.17,1.06,16.63-3.13
				c1.42-1.35,2.56-2.96,3.35-4.75c1.63-3.82,1.63-8.14,0-11.95c-0.79-1.79-1.93-3.4-3.35-4.75c-4.48-4.17-10.95-5.39-16.63-3.13
				c-1.81,0.72-3.46,1.78-4.86,3.13c-1.4,1.36-2.53,2.97-3.31,4.75C-2481.73-607.03-2481.73-602.71-2480.1-598.89z"/>
			<g id="Grupo_7" transform="translate(3.537 126.423)">
				<path id="Trazado_11" class="st3" d="M-2469.56-675.01c-12.02-0.04-23.5,4.97-31.65,13.81h-17.44
					c16.48-27.11,51.81-35.73,78.92-19.26c7.87,4.78,14.48,11.39,19.26,19.26h-17.44C-2446.06-670.04-2457.54-675.05-2469.56-675.01
					z"/>
			</g>
			<g id="Grupo_8">
				<path id="Trazado_12" class="st3" d="M-2494.63-688.81l-24.02,25.21l9.91,9.44l14.11-14.81l19.07,20.01l19.07-20.01l19.07,20.01
					l24.03-25.21l-9.9-9.44l-14.13,14.82l-19.07-20.01l-19.07,20.01L-2494.63-688.81z"/>
			</g>
		</g>
	</g>
	<g id="Grupo_26" transform="translate(1324 684.328)">
		
			<rect id="Rectángulo_5-2" x="-2473.79" y="-597.47" transform="matrix(0.7071 -0.7071 0.7071 0.7071 -300.933 -1907.7825)" class="st3" width="40.85" height="13.68"/>
		<g id="Grupo_5-2" transform="translate(0 0)">
			<rect id="Rectángulo_6-2" x="-2472.64" y="-646.56" class="st3" width="98.18" height="13.68"/>
			<g id="Grupo_4-2">
				<path id="Trazado_9-2" class="st3" d="M-2504.84-639.72c0.04-12.02-4.97-23.5-13.81-31.65v-17.44
					c17.21,10.35,27.71,29,27.61,49.09c0.09,20.09-10.4,38.74-27.61,49.09v-17.44C-2509.81-616.22-2504.81-627.7-2504.84-639.72z"/>
			</g>
		</g>
	</g>
	<g id="Grupo_35" transform="translate(0 186)">
		<path id="Trazado_8-2" class="st3" d="M-1966.74-507.84c-2.94,6.98-8.59,12.47-15.66,15.19c-7.81,2.93-16.42,2.93-24.23,0
			c-3.55-1.37-6.8-3.44-9.54-6.08c-2.66-2.59-4.78-5.69-6.23-9.11c-2.98-7.22-2.98-15.32,0-22.54c1.45-3.42,3.57-6.52,6.23-9.11
			c2.74-2.64,5.99-4.71,9.54-6.09c7.81-2.93,16.42-2.93,24.23,0c14.7,6,21.76,22.78,15.76,37.49
			C-1966.68-508-1966.71-507.92-1966.74-507.84L-1966.74-507.84z M-1980.49-525.09c-1.58-3.6-4.52-6.43-8.18-7.88
			c-5.68-2.29-12.17-1.07-16.63,3.13c-1.42,1.35-2.56,2.96-3.35,4.75c-1.63,3.82-1.63,8.14,0,11.95c0.79,1.79,1.93,3.4,3.35,4.75
			c1.42,1.35,3.08,2.41,4.9,3.13c3.77,1.49,7.96,1.49,11.73,0c1.81-0.72,3.46-1.78,4.86-3.13c1.4-1.36,2.53-2.97,3.31-4.75
			C-1978.86-516.95-1978.86-521.27-1980.49-525.09L-1980.49-525.09z"/>
		<rect id="Rectángulo_4-2" x="-2001.41" y="-604.73" class="st3" width="13.68" height="40.85"/>
	</g>
	<g id="Grupo_6-2" transform="translate(592.19 791.365) rotate(180)">
		
			<rect id="Rectángulo_5-3" x="2563.51" y="780.16" transform="matrix(0.7071 -0.7071 0.7071 0.7071 200.33 2057.6306)" class="st3" width="40.85" height="13.68"/>
		<g id="Grupo_5-3">
			<rect id="Rectángulo_6-3" x="2564.66" y="731.06" class="st3" width="98.18" height="13.68"/>
			<g id="Grupo_4-3">
				<path id="Trazado_9-3" class="st3" d="M2532.46,737.91c0.04-12.02-4.97-23.51-13.81-31.66v-17.43
					c27.11,16.48,35.73,51.81,19.26,78.92c-4.78,7.87-11.39,14.48-19.26,19.26v-17.44C2527.49,761.41,2532.49,749.93,2532.46,737.91
					z"/>
			</g>
		</g>
	</g>
	<g id="Grupo_27" transform="translate(1339.463 279.083)">
		<path id="Trazado_10-2" class="st3" d="M-2480.1-598.89c1.58,3.6,4.52,6.43,8.18,7.88c1.86,0.75,3.86,1.13,5.87,1.12
			c4,0.02,7.86-1.5,10.77-4.25c1.42-1.35,2.56-2.96,3.35-4.75c0.83-1.88,1.24-3.92,1.22-5.97c0.02-2.06-0.39-4.09-1.22-5.98
			c-0.79-1.79-1.93-3.4-3.35-4.75c-2.91-2.75-6.76-4.27-10.76-4.25c-2.01-0.01-4,0.37-5.87,1.11c-1.81,0.72-3.46,1.78-4.86,3.13
			c-1.4,1.36-2.53,2.97-3.31,4.75c-0.83,1.88-1.24,3.92-1.22,5.98C-2481.34-602.82-2480.93-600.78-2480.1-598.89z"/>
		<g id="Grupo_7-2" transform="translate(3.537 126.423)">
			<path id="Trazado_11-2" class="st3" d="M-2469.56-675.01c-12.02-0.04-23.5,4.97-31.65,13.81h-17.44
				c10.35-17.21,29-27.71,49.09-27.61c20.09-0.09,38.74,10.4,49.09,27.61h-17.44C-2446.06-670.04-2457.54-675.05-2469.56-675.01z"/>
		</g>
		<g id="Grupo_8-2">
			<path id="Trazado_12-2" class="st3" d="M-2494.63-688.81l-24.02,25.21l9.91,9.44l14.11-14.81l19.07,20.01l19.07-20.01
				l19.07,20.01l24.03-25.21l-9.9-9.44l-14.12,14.82l-19.07-20.02l-19.07,20.02L-2494.63-688.81z"/>
		</g>
	</g>
	<g id="Grupo_25" transform="translate(15.249)">
		<path id="Trazado_13" class="st3" d="M-766.13-507.84c-2.94,6.98-8.59,12.47-15.66,15.19c-7.81,2.93-16.42,2.93-24.23,0
			c-3.55-1.37-6.8-3.44-9.54-6.08c-2.66-2.59-4.78-5.69-6.23-9.11c-2.98-7.22-2.98-15.32,0-22.54c1.45-3.42,3.57-6.52,6.23-9.11
			c2.74-2.64,5.99-4.71,9.54-6.09c7.81-2.93,16.42-2.93,24.23,0c14.7,6,21.76,22.78,15.76,37.48
			C-766.06-508.01-766.1-507.93-766.13-507.84L-766.13-507.84z M-779.88-525.09c-1.58-3.6-4.52-6.43-8.17-7.88
			c-3.77-1.49-7.97-1.49-11.74,0c-1.82,0.72-3.48,1.79-4.9,3.13c-1.42,1.35-2.56,2.96-3.35,4.75c-1.63,3.82-1.63,8.14,0,11.95
			c0.79,1.79,1.93,3.41,3.35,4.75c1.42,1.35,3.08,2.41,4.9,3.13c3.77,1.49,7.97,1.49,11.74,0c1.81-0.72,3.46-1.78,4.86-3.13
			c1.4-1.36,2.53-2.97,3.31-4.75C-778.25-516.95-778.25-521.27-779.88-525.09z"/>
		<rect id="Rectángulo_7" x="-800.8" y="-604.73" class="st3" width="13.68" height="40.85"/>
		<g id="Grupo_13" transform="translate(1602.612 487.904)">
			
				<rect id="Rectángulo_8" x="-2460.17" y="-676.38" transform="matrix(0.7071 -0.7071 0.7071 0.7071 -241.151 -1921.2629)" class="st3" width="40.85" height="13.68"/>
			<g id="Grupo_12" transform="translate(0 19.278)">
				<rect id="Rectángulo_9" x="-2518.65" y="-646.56" class="st3" width="98.18" height="13.68"/>
				<g id="Grupo_11" transform="translate(116.577)">
					<path id="Trazado_14" class="st3" d="M-2504.84-639.72c-0.04,12.02,4.97,23.5,13.81,31.65v17.44
						c-27.11-16.47-35.74-51.81-19.26-78.92c4.78-7.87,11.39-14.48,19.26-19.26v17.44
						C-2499.87-663.23-2504.88-651.74-2504.84-639.72z"/>
				</g>
			</g>
		</g>
		<g id="Grupo_16" transform="translate(1645.084 856.573)">
			<path id="Trazado_15" class="st3" d="M-2451.94-624.7c-1.58-3.6-4.52-6.43-8.17-7.88c-5.68-2.29-12.17-1.07-16.63,3.13
				c-1.42,1.35-2.56,2.96-3.35,4.75c-1.63,3.82-1.63,8.14,0,11.95c0.79,1.79,1.93,3.41,3.35,4.75c1.42,1.35,3.08,2.41,4.9,3.13
				c3.77,1.49,7.97,1.49,11.74,0c1.81-0.72,3.46-1.78,4.86-3.13c1.4-1.36,2.53-2.97,3.31-4.75
				C-2450.31-616.56-2450.31-620.88-2451.94-624.7L-2451.94-624.7z"/>
			<g id="Grupo_14" transform="translate(3.537)">
				<path id="Trazado_16" class="st3" d="M-2469.56-675.01c12.02,0.04,23.5-4.97,31.65-13.81h17.44
					c-16.48,27.11-51.81,35.73-78.92,19.26c-7.87-4.78-14.48-11.39-19.26-19.26h17.44
					C-2493.06-679.98-2481.58-674.97-2469.56-675.01z"/>
			</g>
			<g id="Grupo_15" transform="translate(0 114.188)">
				<path id="Trazado_17" class="st3" d="M-2437.41-648.97l24.02-25.21l-9.91-9.44l-14.11,14.81l-19.07-20.01l-19.07,20.02
					l-19.07-20.01l-24.03,25.21l9.9,9.44l14.12-14.82l19.08,20.01l19.07-20.01L-2437.41-648.97z"/>
			</g>
		</g>
	</g>
</g>
<rect id="Rectángulo_32_1_" x="-2519.65" y="704.19" class="st4" width="1919.83" height="1080"/>
<g id="Grupo_199_1_" transform="translate(0 -7.083)">
	<g id="Grupo_10_3_" transform="translate(150 84.083)">
		<path id="Trazado_8_3_" class="st5" d="M-2517.42,1533.82c2.94-6.98,8.59-12.47,15.66-15.19c7.81-2.93,16.42-2.93,24.23,0
			c3.55,1.37,6.8,3.44,9.54,6.08c2.66,2.59,4.78,5.69,6.23,9.11c2.98,7.22,2.98,15.32,0,22.54c-1.45,3.42-3.57,6.52-6.23,9.11
			c-2.74,2.64-5.99,4.71-9.54,6.09c-7.81,2.93-16.42,2.93-24.23,0c-14.7-6-21.76-22.78-15.76-37.49
			C-2517.49,1533.98-2517.45,1533.9-2517.42,1533.82L-2517.42,1533.82z M-2503.67,1551.07c1.58,3.6,4.52,6.43,8.17,7.88
			c5.68,2.29,12.17,1.07,16.63-3.13c1.42-1.35,2.56-2.96,3.35-4.75c1.63-3.82,1.63-8.14,0-11.95c-0.79-1.79-1.93-3.4-3.35-4.75
			c-1.42-1.35-3.08-2.41-4.9-3.13c-3.77-1.49-7.97-1.49-11.74,0c-1.81,0.72-3.46,1.78-4.86,3.13c-1.4,1.36-2.53,2.97-3.31,4.75
			C-2505.3,1542.93-2505.3,1547.25-2503.67,1551.07L-2503.67,1551.07z"/>
		<rect id="Rectángulo_4_3_" x="-2496.43" y="1589.86" class="st5" width="13.68" height="40.85"/>
		<g id="Grupo_6_3_" transform="translate(7.948 405.244)">
			
				<rect id="Rectángulo_5_3_" x="-2474.79" y="795.53" transform="matrix(0.7071 -0.7071 0.7071 0.7071 -1286.2256 -1500.4894)" class="st5" width="40.85" height="13.68"/>
			<g id="Grupo_5_3_">
				<rect id="Rectángulo_6_3_" x="-2473.64" y="746.44" class="st5" width="98.18" height="13.68"/>
				<g id="Grupo_4_3_">
					<path id="Trazado_9_3_" class="st5" d="M-2505.84,753.28c0.04-12.02-4.97-23.51-13.81-31.66v-17.43
						c27.11,16.48,35.73,51.81,19.26,78.92c-4.78,7.87-11.39,14.48-19.26,19.26v-17.44
						C-2510.81,776.78-2505.81,765.3-2505.84,753.28z"/>
				</g>
			</g>
		</g>
		<g id="Grupo_9_3_" transform="translate(4.411)">
			<path id="Trazado_10_3_" class="st5" d="M-2481.1,794.11c1.58,3.6,4.52,6.43,8.18,7.88c5.68,2.29,12.17,1.06,16.63-3.13
				c1.42-1.35,2.56-2.96,3.35-4.75c1.63-3.82,1.63-8.14,0-11.95c-0.79-1.79-1.93-3.4-3.35-4.75c-4.48-4.17-10.95-5.39-16.63-3.13
				c-1.81,0.72-3.46,1.78-4.86,3.13c-1.4,1.36-2.53,2.97-3.31,4.75C-2482.73,785.97-2482.73,790.29-2481.1,794.11z"/>
			<g id="Grupo_7_3_" transform="translate(3.537 126.423)">
				<path id="Trazado_11_3_" class="st5" d="M-2470.56,717.99c-12.02-0.04-23.5,4.97-31.65,13.81h-17.44
					c16.48-27.11,51.81-35.73,78.92-19.26c7.87,4.78,14.48,11.39,19.26,19.26h-17.44C-2447.06,722.96-2458.54,717.95-2470.56,717.99
					z"/>
			</g>
			<g id="Grupo_8_3_">
				<path id="Trazado_12_3_" class="st5" d="M-2495.63,704.19l-24.02,25.21l9.91,9.44l14.11-14.81l19.07,20.01l19.07-20.01
					l19.07,20.01l24.03-25.21l-9.9-9.44l-14.13,14.82l-19.07-20.01l-19.07,20.01L-2495.63,704.19z"/>
			</g>
		</g>
	</g>
	<g id="Grupo_26_3_" transform="translate(1324 684.328)">
		
			<rect id="Rectángulo_5-2_3_" x="-2474.79" y="795.53" transform="matrix(0.7071 -0.7071 0.7071 0.7071 -1286.2256 -1500.4894)" class="st5" width="40.85" height="13.68"/>
		<g id="Grupo_5-2_3_" transform="translate(0 0)">
			<rect id="Rectángulo_6-2_3_" x="-2473.64" y="746.44" class="st5" width="98.18" height="13.68"/>
			<g id="Grupo_4-2_3_">
				<path id="Trazado_9-2_3_" class="st5" d="M-2505.84,753.28c0.04-12.02-4.97-23.5-13.81-31.65v-17.44
					c17.21,10.35,27.71,29,27.61,49.09c0.09,20.09-10.4,38.74-27.61,49.09v-17.44C-2510.81,776.78-2505.81,765.3-2505.84,753.28z"/>
			</g>
		</g>
	</g>
	<g id="Grupo_35_3_" transform="translate(0 186)">
		<path id="Trazado_8-2_3_" class="st5" d="M-1967.74,885.16c-2.94,6.98-8.59,12.47-15.66,15.19c-7.81,2.93-16.42,2.93-24.23,0
			c-3.55-1.37-6.8-3.44-9.54-6.08c-2.66-2.59-4.78-5.69-6.23-9.11c-2.98-7.22-2.98-15.32,0-22.54c1.45-3.42,3.57-6.52,6.23-9.11
			c2.74-2.64,5.99-4.71,9.54-6.09c7.81-2.93,16.42-2.93,24.23,0c14.7,6,21.76,22.78,15.76,37.49
			C-1967.68,885-1967.71,885.08-1967.74,885.16L-1967.74,885.16z M-1981.49,867.91c-1.58-3.6-4.52-6.43-8.18-7.88
			c-5.68-2.29-12.17-1.07-16.63,3.13c-1.42,1.35-2.56,2.96-3.35,4.75c-1.63,3.82-1.63,8.14,0,11.95c0.79,1.79,1.93,3.4,3.35,4.75
			c1.42,1.35,3.08,2.41,4.9,3.13c3.77,1.49,7.96,1.49,11.73,0c1.81-0.72,3.46-1.78,4.86-3.13c1.4-1.36,2.53-2.97,3.31-4.75
			C-1979.86,876.05-1979.86,871.73-1981.49,867.91L-1981.49,867.91z"/>
		<rect id="Rectángulo_4-2_3_" x="-2002.41" y="788.27" class="st5" width="13.68" height="40.85"/>
	</g>
	<g id="Grupo_6-2_3_" transform="translate(592.19 791.365) rotate(180)">
		
			<rect id="Rectángulo_5-3_3_" x="2564.51" y="-612.84" transform="matrix(0.7071 -0.7071 0.7071 0.7071 1185.6251 1650.3351)" class="st5" width="40.85" height="13.68"/>
		<g id="Grupo_5-3_3_">
			<rect id="Rectángulo_6-3_3_" x="2565.66" y="-661.94" class="st5" width="98.18" height="13.68"/>
			<g id="Grupo_4-3_3_">
				<path id="Trazado_9-3_3_" class="st5" d="M2533.46-655.09c0.04-12.02-4.97-23.51-13.81-31.66v-17.43
					c27.11,16.48,35.73,51.81,19.26,78.92c-4.78,7.87-11.39,14.48-19.26,19.26v-17.44C2528.49-631.59,2533.49-643.07,2533.46-655.09
					z"/>
			</g>
		</g>
	</g>
	<g id="Grupo_27_3_" transform="translate(1339.463 279.083)">
		<path id="Trazado_10-2_3_" class="st5" d="M-2481.1,794.11c1.58,3.6,4.52,6.43,8.18,7.88c1.86,0.75,3.86,1.13,5.87,1.12
			c4,0.02,7.86-1.5,10.77-4.25c1.42-1.35,2.56-2.96,3.35-4.75c0.83-1.88,1.24-3.92,1.22-5.97c0.02-2.06-0.39-4.09-1.22-5.98
			c-0.79-1.79-1.93-3.4-3.35-4.75c-2.91-2.75-6.76-4.27-10.76-4.25c-2.01-0.01-4,0.37-5.87,1.11c-1.81,0.72-3.46,1.78-4.86,3.13
			c-1.4,1.36-2.53,2.97-3.31,4.75c-0.83,1.88-1.24,3.92-1.22,5.98C-2482.34,790.18-2481.93,792.22-2481.1,794.11z"/>
		<g id="Grupo_7-2_3_" transform="translate(3.537 126.423)">
			<path id="Trazado_11-2_3_" class="st5" d="M-2470.56,717.99c-12.02-0.04-23.5,4.97-31.65,13.81h-17.44
				c10.35-17.21,29-27.71,49.09-27.61c20.09-0.09,38.74,10.4,49.09,27.61h-17.44C-2447.06,722.96-2458.54,717.95-2470.56,717.99z"/>
		</g>
		<g id="Grupo_8-2_3_">
			<path id="Trazado_12-2_3_" class="st5" d="M-2495.63,704.19l-24.02,25.21l9.91,9.44l14.11-14.81l19.07,20.01l19.07-20.01
				l19.07,20.01l24.03-25.21l-9.9-9.44l-14.12,14.82l-19.07-20.02l-19.07,20.02L-2495.63,704.19z"/>
		</g>
	</g>
	<g id="Grupo_25_3_" transform="translate(15.249)">
		<path id="Trazado_13_3_" class="st5" d="M-767.13,885.16c-2.94,6.98-8.59,12.47-15.66,15.19c-7.81,2.93-16.42,2.93-24.23,0
			c-3.55-1.37-6.8-3.44-9.54-6.08c-2.66-2.59-4.78-5.69-6.23-9.11c-2.98-7.22-2.98-15.32,0-22.54c1.45-3.42,3.57-6.52,6.23-9.11
			c2.74-2.64,5.99-4.71,9.54-6.09c7.81-2.93,16.42-2.93,24.23,0c14.7,6,21.76,22.78,15.76,37.48
			C-767.06,884.99-767.1,885.07-767.13,885.16L-767.13,885.16z M-780.88,867.91c-1.58-3.6-4.52-6.43-8.17-7.88
			c-3.77-1.49-7.97-1.49-11.74,0c-1.82,0.72-3.48,1.79-4.9,3.13c-1.42,1.35-2.56,2.96-3.35,4.75c-1.63,3.82-1.63,8.14,0,11.95
			c0.79,1.79,1.93,3.41,3.35,4.75c1.42,1.35,3.08,2.41,4.9,3.13c3.77,1.49,7.97,1.49,11.74,0c1.81-0.72,3.46-1.78,4.86-3.13
			c1.4-1.36,2.53-2.97,3.31-4.75C-779.25,876.05-779.25,871.73-780.88,867.91z"/>
		<rect id="Rectángulo_7_3_" x="-801.8" y="788.27" class="st5" width="13.68" height="40.85"/>
		<g id="Grupo_13_3_" transform="translate(1602.612 487.904)">
			
				<rect id="Rectángulo_8_3_" x="-2461.17" y="716.62" transform="matrix(0.7071 -0.7071 0.7071 0.7071 -1226.4436 -1513.9698)" class="st5" width="40.85" height="13.68"/>
			<g id="Grupo_12_3_" transform="translate(0 19.278)">
				<rect id="Rectángulo_9_3_" x="-2519.65" y="746.44" class="st5" width="98.18" height="13.68"/>
				<g id="Grupo_11_3_" transform="translate(116.577)">
					<path id="Trazado_14_3_" class="st5" d="M-2505.84,753.28c-0.04,12.02,4.97,23.5,13.81,31.65v17.44
						c-27.11-16.47-35.74-51.81-19.26-78.92c4.78-7.87,11.39-14.48,19.26-19.26v17.44
						C-2500.87,729.77-2505.88,741.26-2505.84,753.28z"/>
				</g>
			</g>
		</g>
		<g id="Grupo_16_3_" transform="translate(1645.084 856.573)">
			<path id="Trazado_15_3_" class="st5" d="M-2452.94,768.3c-1.58-3.6-4.52-6.43-8.17-7.88c-5.68-2.29-12.17-1.07-16.63,3.13
				c-1.42,1.35-2.56,2.96-3.35,4.75c-1.63,3.82-1.63,8.14,0,11.95c0.79,1.79,1.93,3.41,3.35,4.75c1.42,1.35,3.08,2.41,4.9,3.13
				c3.77,1.49,7.97,1.49,11.74,0c1.81-0.72,3.46-1.78,4.86-3.13c1.4-1.36,2.53-2.97,3.31-4.75
				C-2451.31,776.44-2451.31,772.12-2452.94,768.3L-2452.94,768.3z"/>
			<g id="Grupo_14_3_" transform="translate(3.537)">
				<path id="Trazado_16_3_" class="st5" d="M-2470.56,717.99c12.02,0.04,23.5-4.97,31.65-13.81h17.44
					c-16.48,27.11-51.81,35.73-78.92,19.26c-7.87-4.78-14.48-11.39-19.26-19.26h17.44
					C-2494.06,713.02-2482.58,718.03-2470.56,717.99z"/>
			</g>
			<g id="Grupo_15_3_" transform="translate(0 114.188)">
				<path id="Trazado_17_3_" class="st5" d="M-2438.41,744.03l24.02-25.21l-9.91-9.44l-14.11,14.81l-19.07-20.01l-19.07,20.02
					l-19.07-20.01l-24.03,25.21l9.9,9.44l14.12-14.82l19.08,20.01l19.07-20.01L-2438.41,744.03z"/>
			</g>
		</g>
	</g>
</g>
<rect id="Rectángulo_3" x="-2518.93" y="2073.34" class="st6" width="1920.4" height="1080"/>
<g id="Grupo_196">
	<g id="Grupo_10_2_" transform="translate(150 84.083)">
		<path id="Trazado_8_2_" class="st7" d="M-2516.7,2902.98c2.94-6.98,8.59-12.47,15.66-15.19c7.81-2.93,16.42-2.93,24.23,0
			c3.55,1.37,6.8,3.44,9.54,6.08c2.66,2.59,4.78,5.69,6.23,9.11c2.98,7.22,2.98,15.32,0,22.54c-1.45,3.42-3.56,6.52-6.23,9.11
			c-2.74,2.64-5.99,4.71-9.54,6.09c-7.81,2.93-16.42,2.93-24.23,0c-14.7-6-21.76-22.78-15.76-37.49
			C-2516.77,2903.14-2516.74,2903.06-2516.7,2902.98L-2516.7,2902.98z M-2502.95,2920.23c1.58,3.6,4.52,6.43,8.18,7.88
			c5.68,2.29,12.17,1.07,16.63-3.13c1.42-1.35,2.56-2.96,3.35-4.75c1.63-3.82,1.63-8.14,0-11.95c-0.79-1.79-1.93-3.41-3.35-4.75
			c-1.42-1.35-3.08-2.41-4.9-3.13c-3.77-1.49-7.96-1.49-11.73,0c-1.81,0.72-3.46,1.78-4.86,3.13c-1.4,1.36-2.53,2.97-3.31,4.75
			C-2504.59,2912.09-2504.59,2916.41-2502.95,2920.23L-2502.95,2920.23z"/>
		<rect id="Rectángulo_4_2_" x="-2495.71" y="2959.02" class="st7" width="13.68" height="40.85"/>
		<g id="Grupo_6_2_" transform="translate(7.948 405.244)">
			
				<rect id="Rectángulo_5_2_" x="-2474.07" y="2164.68" transform="matrix(0.7071 -0.7071 0.7071 0.7071 -2254.157 -1098.9667)" class="st7" width="40.85" height="13.68"/>
			<g id="Grupo_5_2_">
				<rect id="Rectángulo_6_2_" x="-2472.93" y="2115.59" class="st7" width="98.18" height="13.68"/>
				<g id="Grupo_4_2_">
					<path id="Trazado_9_2_" class="st7" d="M-2505.13,2122.43c0.04-12.02-4.97-23.51-13.81-31.66v-17.43
						c27.11,16.48,35.73,51.81,19.26,78.92c-4.78,7.87-11.39,14.48-19.26,19.26v-17.44
						C-2510.1,2145.94-2505.09,2134.45-2505.13,2122.43z"/>
				</g>
			</g>
		</g>
		<g id="Grupo_9_2_" transform="translate(4.411)">
			<path id="Trazado_10_2_" class="st7" d="M-2480.38,2163.26c1.58,3.6,4.52,6.43,8.18,7.88c5.68,2.29,12.17,1.06,16.63-3.13
				c1.42-1.35,2.56-2.96,3.35-4.75c1.63-3.82,1.63-8.14,0-11.96c-0.79-1.79-1.93-3.4-3.35-4.75c-4.47-4.17-10.95-5.39-16.63-3.13
				c-1.81,0.72-3.46,1.78-4.86,3.13c-1.4,1.36-2.53,2.97-3.31,4.75C-2482.02,2155.13-2482.02,2159.45-2480.38,2163.26z"/>
			<g id="Grupo_7_2_" transform="translate(3.537 126.423)">
				<path id="Trazado_11_2_" class="st7" d="M-2469.84,2087.15c-12.02-0.04-23.5,4.97-31.65,13.81h-17.44
					c16.48-27.11,51.81-35.73,78.92-19.26c7.87,4.78,14.48,11.39,19.26,19.26h-17.44
					C-2446.34,2092.12-2457.82,2087.11-2469.84,2087.15z"/>
			</g>
			<g id="Grupo_8_2_">
				<path id="Trazado_12_2_" class="st7" d="M-2494.92,2073.34l-24.01,25.21l9.91,9.44l14.11-14.81l19.07,20.01l19.07-20.01
					l19.07,20.01l24.02-25.21l-9.9-9.44l-14.13,14.82l-19.07-20.01l-19.07,20.01L-2494.92,2073.34z"/>
			</g>
		</g>
	</g>
	<g id="Grupo_26_2_" transform="translate(1324 684.328)">
		
			<rect id="Rectángulo_5-2_2_" x="-2474.07" y="2164.68" transform="matrix(0.7071 -0.7071 0.7071 0.7071 -2254.157 -1098.9667)" class="st7" width="40.85" height="13.68"/>
		<g id="Grupo_5-2_2_" transform="translate(0 0)">
			<rect id="Rectángulo_6-2_2_" x="-2472.93" y="2115.59" class="st7" width="98.18" height="13.68"/>
			<g id="Grupo_4-2_2_">
				<path id="Trazado_9-2_2_" class="st7" d="M-2505.13,2122.43c0.04-12.02-4.97-23.5-13.81-31.65v-17.44
					c17.21,10.35,27.71,29,27.61,49.09c0.09,20.09-10.4,38.74-27.61,49.09v-17.44C-2510.1,2145.94-2505.09,2134.45-2505.13,2122.43z
					"/>
			</g>
		</g>
	</g>
	<g id="Grupo_35_2_" transform="translate(0 186)">
		<path id="Trazado_8-2_2_" class="st7" d="M-1967.03,2254.32c-2.94,6.98-8.59,12.47-15.66,15.19c-7.81,2.93-16.42,2.93-24.23,0
			c-3.55-1.37-6.8-3.44-9.54-6.08c-2.66-2.59-4.78-5.69-6.23-9.11c-2.98-7.22-2.98-15.32,0-22.54c1.45-3.42,3.57-6.52,6.23-9.11
			c2.74-2.64,5.99-4.71,9.54-6.08c7.81-2.93,16.42-2.93,24.23,0c14.7,6,21.76,22.78,15.76,37.49
			C-1966.96,2254.15-1966.99,2254.23-1967.03,2254.32L-1967.03,2254.32z M-1980.78,2237.07c-1.58-3.6-4.52-6.43-8.18-7.88
			c-5.68-2.29-12.17-1.07-16.63,3.13c-1.42,1.35-2.56,2.96-3.35,4.75c-1.63,3.82-1.63,8.14,0,11.95c0.79,1.79,1.93,3.4,3.35,4.75
			c1.42,1.35,3.08,2.41,4.9,3.13c3.77,1.49,7.96,1.49,11.73,0c1.81-0.72,3.46-1.78,4.86-3.13c1.4-1.36,2.53-2.97,3.31-4.75
			C-1979.15,2245.2-1979.15,2240.89-1980.78,2237.07L-1980.78,2237.07z"/>
		<rect id="Rectángulo_4-2_2_" x="-2001.7" y="2157.43" class="st7" width="13.68" height="40.85"/>
	</g>
	<g id="Grupo_6-2_2_" transform="translate(592.19 791.365) rotate(180)">
		
			<rect id="Rectángulo_5-3_2_" x="2563.8" y="-1982" transform="matrix(0.7071 -0.7071 0.7071 0.7071 2153.5591 1248.8099)" class="st7" width="40.85" height="13.68"/>
		<g id="Grupo_5-3_2_">
			<rect id="Rectángulo_6-3_2_" x="2564.94" y="-2031.09" class="st7" width="98.18" height="13.68"/>
			<g id="Grupo_4-3_2_">
				<path id="Trazado_9-3_2_" class="st7" d="M2532.74-2024.25c0.04-12.02-4.97-23.51-13.81-31.66v-17.43
					c27.11,16.48,35.73,51.81,19.26,78.92c-4.78,7.87-11.39,14.48-19.26,19.26v-17.44
					C2527.77-2000.75,2532.78-2012.23,2532.74-2024.25z"/>
			</g>
		</g>
	</g>
	<g id="Grupo_27_2_" transform="translate(1339.463 279.083)">
		<path id="Trazado_10-2_2_" class="st7" d="M-2480.38,2163.26c1.58,3.6,4.52,6.43,8.18,7.88c1.86,0.75,3.86,1.13,5.87,1.12
			c4,0.02,7.86-1.5,10.76-4.25c1.42-1.35,2.56-2.96,3.35-4.75c0.83-1.88,1.24-3.92,1.22-5.97c0.02-2.06-0.39-4.09-1.22-5.98
			c-0.79-1.79-1.93-3.4-3.35-4.75c-2.91-2.75-6.76-4.27-10.76-4.25c-2.01-0.01-4,0.37-5.87,1.11c-1.81,0.72-3.46,1.78-4.86,3.13
			c-1.4,1.36-2.53,2.97-3.31,4.75c-0.83,1.88-1.24,3.92-1.22,5.98C-2481.63,2159.34-2481.21,2161.38-2480.38,2163.26z"/>
		<g id="Grupo_7-2_2_" transform="translate(3.537 126.423)">
			<path id="Trazado_11-2_2_" class="st7" d="M-2469.84,2087.15c-12.02-0.04-23.5,4.97-31.65,13.81h-17.44
				c10.35-17.21,29-27.71,49.09-27.61c20.09-0.09,38.74,10.4,49.09,27.61h-17.44C-2446.34,2092.12-2457.82,2087.11-2469.84,2087.15z
				"/>
		</g>
		<g id="Grupo_8-2_2_">
			<path id="Trazado_12-2_2_" class="st7" d="M-2494.92,2073.34l-24.01,25.21l9.91,9.44l14.11-14.81l19.07,20.01l19.07-20.01
				l19.07,20.01l24.02-25.21l-9.9-9.44l-14.12,14.82l-19.07-20.02l-19.07,20.02L-2494.92,2073.34z"/>
		</g>
	</g>
	<g id="Grupo_25_2_" transform="translate(15.249)">
		<path id="Trazado_13_2_" class="st7" d="M-766.42,2254.32c-2.94,6.98-8.59,12.47-15.66,15.19c-7.81,2.93-16.42,2.93-24.23,0
			c-3.55-1.37-6.8-3.44-9.54-6.08c-2.66-2.59-4.78-5.69-6.23-9.11c-2.98-7.22-2.98-15.32,0-22.54c1.45-3.42,3.57-6.52,6.23-9.11
			c2.74-2.64,5.99-4.71,9.54-6.08c7.81-2.93,16.42-2.93,24.23,0c14.7,6,21.76,22.78,15.76,37.48
			C-766.35,2254.15-766.38,2254.23-766.42,2254.32L-766.42,2254.32z M-780.17,2237.07c-1.58-3.6-4.52-6.43-8.17-7.88
			c-3.77-1.49-7.97-1.49-11.74,0c-1.82,0.72-3.48,1.79-4.9,3.13c-1.42,1.35-2.56,2.96-3.35,4.75c-1.63,3.82-1.63,8.14,0,11.95
			c0.79,1.79,1.93,3.41,3.35,4.75c1.42,1.35,3.08,2.41,4.9,3.13c3.77,1.49,7.97,1.49,11.74,0c1.81-0.72,3.46-1.78,4.86-3.13
			c1.4-1.36,2.53-2.97,3.31-4.75C-778.54,2245.2-778.54,2240.89-780.17,2237.07z"/>
		<rect id="Rectángulo_7_2_" x="-801.09" y="2157.43" class="st7" width="13.68" height="40.85"/>
		<g id="Grupo_13_2_" transform="translate(1602.612 487.904)">
			
				<rect id="Rectángulo_8_2_" x="-2460.45" y="2085.78" transform="matrix(0.7071 -0.7071 0.7071 0.7071 -2194.375 -1112.4471)" class="st7" width="40.85" height="13.68"/>
			<g id="Grupo_12_2_" transform="translate(0 19.278)">
				<rect id="Rectángulo_9_2_" x="-2518.93" y="2115.59" class="st7" width="98.18" height="13.68"/>
				<g id="Grupo_11_2_" transform="translate(116.577)">
					<path id="Trazado_14_2_" class="st7" d="M-2505.13,2122.43c-0.04,12.02,4.97,23.5,13.81,31.65v17.44
						c-27.11-16.47-35.74-51.81-19.26-78.92c4.78-7.87,11.39-14.48,19.26-19.26v17.44
						C-2500.16,2098.93-2505.17,2110.41-2505.13,2122.43z"/>
				</g>
			</g>
		</g>
		<g id="Grupo_16_2_" transform="translate(1645.084 856.573)">
			<path id="Trazado_15_2_" class="st7" d="M-2452.23,2137.46c-1.58-3.6-4.52-6.43-8.17-7.88c-5.68-2.29-12.17-1.07-16.63,3.13
				c-1.42,1.35-2.56,2.96-3.35,4.75c-1.63,3.82-1.63,8.14,0,11.95c0.79,1.79,1.93,3.41,3.35,4.75c1.42,1.35,3.08,2.41,4.9,3.13
				c3.77,1.49,7.97,1.49,11.74,0c1.81-0.72,3.46-1.78,4.86-3.13c1.4-1.36,2.53-2.97,3.31-4.75
				C-2450.59,2145.59-2450.59,2141.28-2452.23,2137.46L-2452.23,2137.46z"/>
			<g id="Grupo_14_2_" transform="translate(3.537)">
				<path id="Trazado_16_2_" class="st7" d="M-2469.85,2087.15c12.02,0.04,23.5-4.97,31.65-13.81h17.44
					c-16.48,27.11-51.81,35.73-78.92,19.26c-7.87-4.78-14.48-11.39-19.26-19.26h17.44
					C-2493.35,2082.18-2481.87,2087.19-2469.85,2087.15z"/>
			</g>
			<g id="Grupo_15_2_" transform="translate(0 114.188)">
				<path id="Trazado_17_2_" class="st7" d="M-2437.69,2113.19l24.01-25.21l-9.91-9.44l-14.11,14.81l-19.07-20.01l-19.07,20.02
					l-19.07-20.01l-24.03,25.21l9.9,9.44l14.12-14.82l19.08,20.01l19.07-20.01L-2437.69,2113.19z"/>
			</g>
		</g>
	</g>
</g>
<path id="Rectángulo_28_1_" class="st8" d="M-384.47-1319.92h251.78c37.5,0,67.9,30.4,67.9,67.9l0,0c0,37.5-30.4,67.9-67.9,67.9
	h-251.78c-37.5,0-67.9-30.4-67.9-67.9l0,0C-452.36-1289.52-421.97-1319.92-384.47-1319.92z"/>
<circle id="Elipse_18_1_" class="st3" cx="-279.8" cy="-1254.59" r="6.06"/>
<circle id="Elipse_19_1_" class="st3" cx="-237.36" cy="-1254.59" r="6.06"/>
<line id="Línea_10_1_" class="st9" x1="-285.86" y1="-1267.53" x2="-273.73" y2="-1267.53"/>
<line id="Línea_11_1_" class="st9" x1="-243.42" y1="-1267.53" x2="-231.3" y2="-1267.53"/>
<line id="Línea_12_1_" class="st9" x1="-272.54" y1="-1236.52" x2="-243.56" y2="-1236.52"/>
<circle id="Elipse_20_1_" class="st3" cx="-157" cy="-1257.17" r="6.06"/>
<circle id="Elipse_21_1_" class="st3" cx="-114.56" cy="-1257.17" r="6.06"/>
<path id="Trazado_49_1_" class="st9" d="M-149.74-1231.87c0,0,13.2-16.05,28.98-0.27"/>
<line id="Línea_13_1_" class="st9" x1="-162.69" y1="-1268.03" x2="-151.3" y2="-1272.18"/>
<line id="Línea_14_1_" class="st9" x1="-120.26" y1="-1272.18" x2="-108.86" y2="-1268.03"/>
<circle id="Elipse_22_4_" class="st3" cx="-403.4" cy="-1255.17" r="6.06"/>
<path id="Trazado_50_4_" class="st9" d="M-409.45-1268.11c0-3.35,2.71-6.06,6.06-6.06s6.06,2.71,6.06,6.06"/>
<path id="Trazado_51_4_" class="st9" d="M-367.02-1268.11c0.04-3.35,2.79-6.03,6.14-5.99c3.29,0.04,5.94,2.7,5.99,5.99"/>
<circle id="Elipse_23_4_" class="st3" cx="-360.96" cy="-1255.17" r="6.06"/>
<path id="Trazado_52_4_" class="st9" d="M-367.16-1237.09c0,0-13.2,16.05-28.98,0.27"/>
<circle id="Elipse_17_1_" class="st8" cx="-259.37" cy="-1821.55" r="51.74"/>
<circle id="Elipse_27_1_" class="st10" cx="394.47" cy="-1811.6" r="51.74"/>
<circle id="Elipse_34_1_" class="st11" cx="395.47" cy="-1251.29" r="51.74"/>
<circle id="Elipse_17" class="st12" cx="1039.68" cy="-1540.18" r="51.74"/>
<g id="Grupo_206_2_" transform="translate(-761.504 -930.93)">
	<circle id="Elipse_51_2_" class="st6" cx="674.08" cy="505.27" r="32.38"/>
	<g id="Grupo_106_2_" transform="translate(778.662 948.619)">
		<line id="Línea_31_2_" class="st13" x1="-89.36" y1="-443.35" x2="-119.8" y2="-443.35"/>
		<path id="Trazado_101_2_" class="st13" d="M-104.05-458.03l14.69,14.69l-14.69,14.69"/>
	</g>
</g>
<g id="Grupo_206_1_" transform="translate(-761.504 -930.93)">
	<circle id="Elipse_51_1_" class="st6" cx="438.08" cy="505.27" r="32.38"/>
	<g id="Grupo_106_1_" transform="translate(778.662 948.619)">
		<line id="Línea_31_1_" class="st13" x1="-325.36" y1="-443.35" x2="-355.8" y2="-443.35"/>
		<path id="Trazado_101_1_" class="st13" d="M-341.11-428.66l-14.69-14.69l14.69-14.69"/>
	</g>
</g>
<g id="Grupo_207_1_" transform="translate(-852.941 -931.283)">
	<path id="Rectángulo_65_1_" class="st6" d="M518.05,1045.29h150.94c17.67,0,32,14.33,32,32v0.05c0,17.67-14.33,32-32,32H518.05
		c-17.67,0-32-14.33-32-32v-0.05C486.05,1059.61,500.38,1045.29,518.05,1045.29z"/>
	<text transform="matrix(1 0 0 1 527.7275 1082.6483)" class="st2 st14 st15">Ver en Netflix</text>
</g>
<g id="Grupo_208" transform="translate(-1091.976 -930.93)">
	<circle id="Elipse_52" class="st6" cx="760.55" cy="751.96" r="32.38"/>
	<g id="Grupo_108" transform="translate(1109.666 948.088)">
		<path id="Trazado_102" class="st13" d="M-359.54-200.69v19.78h20.86v-19.78"/>
		<path id="Trazado_103" class="st13" d="M-363.8-196.66l14.69-14.69l14.69,14.69"/>
	</g>
</g>
<g id="Grupo_209" transform="translate(-854.092 -931.284)">
	<path id="Rectángulo_109" class="st6" d="M930.2,1045.29h150.94c17.67,0,32,14.33,32,32v0.05c0,17.67-14.33,32-32,32H930.2
		c-17.67,0-32-14.33-32-32v-0.05C898.2,1059.61,912.53,1045.29,930.2,1045.29z"/>
	<text transform="matrix(1 0 0 1 930.1075 1082.6483)" class="st2 st14 st15">Abrir en Spotify</text>
</g>
<g id="Grupo_187" transform="translate(-198 -430)">
	<circle id="Elipse_27" class="st10" cx="614.09" cy="262.53" r="51.74"/>
	<circle id="Elipse_28" class="st3" cx="592.35" cy="257.39" r="6.06"/>
	<circle id="Elipse_29" class="st3" cx="634.78" cy="257.39" r="6.06"/>
	<path id="Trazado_54" class="st9" d="M599.6,282.68c0,0,13.2-16.05,28.98-0.27"/>
	<line id="Línea_19" class="st9" x1="586.65" y1="246.52" x2="598.04" y2="242.37"/>
	<line id="Línea_20" class="st9" x1="629.09" y1="242.37" x2="640.48" y2="246.52"/>
</g>
<circle id="Elipse_34" class="st10" cx="671.06" cy="-167.47" r="51.74"/>
<path id="Trazado_186" class="st9" d="M692.22-170.01c0,11.56-9.38,20.93-20.94,20.93c-11.56,0-20.92-9.37-20.93-20.93"/>
<line id="Línea_40" class="st9" x1="671.29" y1="-148.97" x2="671.29" y2="-130.31"/>
<line id="Línea_41" class="st9" x1="658.53" y1="-130.31" x2="684.52" y2="-130.31"/>
<path id="Rectángulo_112" class="st9" d="M671.29-205.47L671.29-205.47c7.05,0,12.76,5.71,12.76,12.76v22.07
	c0,7.05-5.71,12.76-12.76,12.76l0,0c-7.05,0-12.76-5.71-12.76-12.76v-22.07C658.53-199.76,664.24-205.47,671.29-205.47z"/>
<line id="Línea_42" class="st9" x1="658.53" y1="-190.86" x2="665.35" y2="-190.86"/>
<line id="Línea_44" class="st9" x1="658.53" y1="-181.89" x2="665.35" y2="-181.89"/>
<line id="Línea_45" class="st9" x1="658.53" y1="-172.91" x2="665.35" y2="-172.91"/>
<line id="Línea_46" class="st9" x1="677.22" y1="-190.86" x2="684.05" y2="-190.86"/>
<line id="Línea_48" class="st9" x1="677.22" y1="-181.89" x2="684.05" y2="-181.89"/>
<line id="Línea_49" class="st9" x1="677.22" y1="-172.91" x2="684.05" y2="-172.91"/>
<circle id="Elipse_34_2_" class="st11" cx="919.06" cy="-167.47" r="51.74"/>
<path id="Trazado_186_1_" class="st9" d="M940.22-170.01c0,11.56-9.38,20.93-20.94,20.93c-11.56,0-20.92-9.37-20.93-20.93"/>
<line id="Línea_40_1_" class="st9" x1="919.29" y1="-148.97" x2="919.29" y2="-130.31"/>
<line id="Línea_41_1_" class="st9" x1="906.53" y1="-130.31" x2="932.52" y2="-130.31"/>
<path id="Rectángulo_112_1_" class="st9" d="M919.29-205.47L919.29-205.47c7.05,0,12.76,5.71,12.76,12.76v22.07
	c0,7.05-5.71,12.76-12.76,12.76l0,0c-7.05,0-12.76-5.71-12.76-12.76v-22.07C906.53-199.76,912.24-205.47,919.29-205.47z"/>
<line id="Línea_42_1_" class="st9" x1="906.53" y1="-190.86" x2="913.35" y2="-190.86"/>
<line id="Línea_44_1_" class="st9" x1="906.53" y1="-181.89" x2="913.35" y2="-181.89"/>
<line id="Línea_45_1_" class="st9" x1="906.53" y1="-172.91" x2="913.35" y2="-172.91"/>
<line id="Línea_46_1_" class="st9" x1="925.22" y1="-190.86" x2="932.05" y2="-190.86"/>
<line id="Línea_48_1_" class="st9" x1="925.22" y1="-181.89" x2="932.05" y2="-181.89"/>
<line id="Línea_49_1_" class="st9" x1="925.22" y1="-172.91" x2="932.05" y2="-172.91"/>
<circle id="Elipse_27-2" class="st8" cx="416.1" cy="-166.47" r="51.74"/>
<circle id="Elipse_28-2" class="st3" cx="394.35" cy="-171.61" r="6.06"/>
<circle id="Elipse_29-2" class="st3" cx="436.78" cy="-171.61" r="6.06"/>
<path id="Trazado_54-2" class="st9" d="M401.6-146.32c0,0,13.2-16.05,28.98-0.27"/>
<line id="Línea_19-2" class="st9" x1="388.65" y1="-182.48" x2="400.05" y2="-186.63"/>
<line id="Línea_20-2" class="st9" x1="431.09" y1="-186.63" x2="442.48" y2="-182.48"/>
<circle id="Elipse_27-2_2_" class="st10" cx="671.1" cy="-425.47" r="51.74"/>
<circle id="Elipse_22_3_" class="st3" cx="650.15" cy="-428.87" r="6.06"/>
<path id="Trazado_50_3_" class="st9" d="M644.09-441.81c0-3.35,2.71-6.06,6.06-6.06s6.06,2.71,6.06,6.06"/>
<path id="Trazado_51_3_" class="st9" d="M686.52-441.81c0.04-3.35,2.79-6.03,6.14-5.99c3.29,0.04,5.94,2.7,5.99,5.99"/>
<circle id="Elipse_23_3_" class="st3" cx="692.58" cy="-428.87" r="6.06"/>
<path id="Trazado_52_3_" class="st9" d="M686.38-410.79c0,0-13.2,16.05-28.98,0.27"/>
<circle id="Elipse_33" class="st10" cx="921.89" cy="-422.55" r="51.74"/>
<g id="Grupo_173" transform="translate(-524.864 -221.357)">
	<path id="Trazado_187" class="st16" d="M1433.85-219.11"/>
	<path id="Trazado_188" class="st9" d="M1470.24-223.11c0-2.39-1.68-4.45-4.02-4.93c-0.21-2.61-2.39-4.63-5.01-4.63
		c-0.25,0-0.5,0.02-0.75,0.06c-4.39-1.12-8.55-3.02-12.29-5.59c-2.41,0-4.47,1.7-4.94,4.07c-2.53,2.46-6.42,2.86-9.39,0.96
		c-2.78,0-5.03,2.25-5.03,5.03v0c0,0.02,0,0.03,0,0.05c-0.23-0.03-0.45-0.05-0.68-0.05c-2.78,0-5.03,2.25-5.03,5.03v0"/>
	<g id="Grupo_172">
		<path id="Trazado_189" class="st9" d="M1465.53-164.66h-37.32l-4.06-43.44h45.34L1465.53-164.66z"/>
		<circle id="Elipse_68" class="st9" cx="1446.69" cy="-186.38" r="10.36"/>
		<line id="Línea_50" class="st9" x1="1438.11" y1="-208.1" x2="1438.6" y2="-192.85"/>
		<line id="Línea_51" class="st9" x1="1455.23" y1="-208.1" x2="1454.72" y2="-192.92"/>
		<line id="Línea_52" class="st9" x1="1439.02" y1="-179.41" x2="1439.49" y2="-164.66"/>
		<line id="Línea_53" class="st9" x1="1454.27" y1="-179.41" x2="1453.77" y2="-164.66"/>
		<rect id="Rectángulo_113" x="1421.97" y="-216.45" class="st9" width="49.65" height="8.36"/>
	</g>
	<path id="Trazado_190" class="st9" d="M1435.58-223.39c0.8-2.02,3.1-3.01,5.12-2.21"/>
	<path id="Trazado_191" class="st9" d="M1453.19-226.64c2.05-0.73,4.31,0.35,5.03,2.4"/>
</g>
<g id="Grupo_187_1_" transform="translate(-198 -430)">
	<circle id="Elipse_27_2_" class="st10" cx="111.09" cy="262.53" r="51.74"/>
	<circle id="Elipse_28_1_" class="st3" cx="89.35" cy="257.39" r="6.06"/>
	<circle id="Elipse_29_1_" class="st3" cx="131.78" cy="257.39" r="6.06"/>
	<path id="Trazado_54_1_" class="st9" d="M96.6,282.68c0,0,13.2-16.05,28.98-0.27"/>
	<line id="Línea_19_1_" class="st9" x1="83.65" y1="246.52" x2="95.04" y2="242.37"/>
	<line id="Línea_20_1_" class="st9" x1="126.09" y1="242.37" x2="137.48" y2="246.52"/>
</g>
<circle id="Elipse_27-2_3_" class="st17" cx="-86.9" cy="-166.47" r="51.74"/>
<circle id="Elipse_28-2_1_" class="st3" cx="-108.65" cy="-171.61" r="6.06"/>
<circle id="Elipse_29-2_1_" class="st3" cx="-66.22" cy="-171.61" r="6.06"/>
<path id="Trazado_54-2_1_" class="st9" d="M-101.4-146.32c0,0,13.2-16.05,28.98-0.27"/>
<line id="Línea_19-2_1_" class="st9" x1="-114.35" y1="-182.48" x2="-102.95" y2="-186.63"/>
<line id="Línea_20-2_1_" class="st9" x1="-71.91" y1="-186.63" x2="-60.52" y2="-182.48"/>
<circle id="Elipse_27-2_1_" class="st17" cx="168.1" cy="-425.47" r="51.74"/>
<circle id="Elipse_22_1_" class="st3" cx="147.15" cy="-428.87" r="6.06"/>
<path id="Trazado_50_1_" class="st9" d="M141.09-441.81c0-3.35,2.71-6.06,6.06-6.06s6.06,2.71,6.06,6.06"/>
<path id="Trazado_51_1_" class="st9" d="M183.52-441.81c0.04-3.35,2.79-6.03,6.14-5.99c3.29,0.04,5.94,2.7,5.99,5.99"/>
<circle id="Elipse_23_1_" class="st3" cx="189.58" cy="-428.87" r="6.06"/>
<path id="Trazado_52_1_" class="st9" d="M183.38-410.79c0,0-13.2,16.05-28.98,0.27"/>
<circle id="Elipse_33_1_" class="st11" cx="1165.89" cy="-422.55" r="51.74"/>
<g id="Grupo_173_1_" transform="translate(-524.864 -221.357)">
	<path id="Trazado_187_1_" class="st16" d="M1677.85-219.11"/>
	<path id="Trazado_188_1_" class="st9" d="M1714.24-223.11c0-2.39-1.68-4.45-4.02-4.93c-0.21-2.61-2.39-4.63-5.01-4.63
		c-0.25,0-0.5,0.02-0.75,0.06c-4.39-1.12-8.55-3.02-12.29-5.59c-2.41,0-4.47,1.7-4.94,4.07c-2.53,2.46-6.42,2.86-9.39,0.96
		c-2.78,0-5.03,2.25-5.03,5.03v0c0,0.02,0,0.03,0,0.05c-0.23-0.03-0.45-0.05-0.68-0.05c-2.78,0-5.03,2.25-5.03,5.03v0"/>
	<g id="Grupo_172_1_">
		<path id="Trazado_189_1_" class="st9" d="M1709.53-164.66h-37.32l-4.06-43.44h45.34L1709.53-164.66z"/>
		<circle id="Elipse_68_1_" class="st9" cx="1690.69" cy="-186.38" r="10.36"/>
		<line id="Línea_50_1_" class="st9" x1="1682.11" y1="-208.1" x2="1682.6" y2="-192.85"/>
		<line id="Línea_51_1_" class="st9" x1="1699.23" y1="-208.1" x2="1698.72" y2="-192.92"/>
		<line id="Línea_52_1_" class="st9" x1="1683.02" y1="-179.41" x2="1683.49" y2="-164.66"/>
		<line id="Línea_53_1_" class="st9" x1="1698.27" y1="-179.41" x2="1697.77" y2="-164.66"/>
		<rect id="Rectángulo_113_1_" x="1665.97" y="-216.45" class="st9" width="49.65" height="8.36"/>
	</g>
	<path id="Trazado_190_1_" class="st9" d="M1679.58-223.39c0.8-2.02,3.1-3.01,5.12-2.21"/>
	<path id="Trazado_191_1_" class="st9" d="M1697.19-226.64c2.05-0.73,4.31,0.35,5.03,2.4"/>
</g>
<g id="Grupo_188_2_" transform="translate(152 -432)">
	<circle id="Elipse_34_3_" class="st17" cx="16.06" cy="264.53" r="51.74"/>
	<g id="Grupo_174_2_" transform="translate(2.001)">
		<path id="Trazado_186_3_" class="st18" d="M35.22,261.99c0,11.56-9.38,20.93-20.94,20.93c-11.56,0-20.92-9.37-20.93-20.93"/>
		<line id="Línea_40_3_" class="st9" x1="14.29" y1="283.03" x2="14.29" y2="301.69"/>
		<line id="Línea_41_3_" class="st9" x1="1.53" y1="301.69" x2="27.52" y2="301.69"/>
		<path id="Rectángulo_112_3_" class="st18" d="M14.29,226.53L14.29,226.53c7.05,0,12.76,5.71,12.76,12.76v22.07
			c0,7.05-5.71,12.76-12.76,12.76l0,0c-7.05,0-12.76-5.71-12.76-12.76v-22.07C1.53,232.24,7.24,226.53,14.29,226.53z"/>
		<line id="Línea_42_3_" class="st9" x1="1.53" y1="241.14" x2="8.35" y2="241.14"/>
		<line id="Línea_44_3_" class="st9" x1="1.53" y1="250.11" x2="8.35" y2="250.11"/>
		<line id="Línea_45_3_" class="st9" x1="1.53" y1="259.09" x2="8.35" y2="259.09"/>
		<line id="Línea_46_3_" class="st9" x1="20.22" y1="241.14" x2="27.04" y2="241.14"/>
		<line id="Línea_48_3_" class="st9" x1="20.22" y1="250.11" x2="27.04" y2="250.11"/>
		<line id="Línea_49_3_" class="st9" x1="20.22" y1="259.09" x2="27.04" y2="259.09"/>
	</g>
</g>
<circle id="Elipse_33_2_" class="st17" cx="418.89" cy="-422.55" r="51.74"/>
<g id="Grupo_173_3_" transform="translate(-524.864 -221.357)">
	<path id="Trazado_187_3_" class="st16" d="M930.85-219.11"/>
	<path id="Trazado_188_3_" class="st9" d="M967.24-223.11c0-2.39-1.68-4.45-4.02-4.93c-0.21-2.61-2.39-4.63-5.01-4.63
		c-0.25,0-0.5,0.02-0.75,0.06c-4.39-1.12-8.55-3.02-12.29-5.59c-2.41,0-4.47,1.7-4.94,4.07c-2.53,2.46-6.42,2.86-9.39,0.96
		c-2.78,0-5.03,2.25-5.03,5.03v0c0,0.02,0,0.03,0,0.05c-0.23-0.03-0.45-0.05-0.68-0.05c-2.78,0-5.03,2.25-5.03,5.03v0"/>
	<g id="Grupo_172_3_">
		<path id="Trazado_189_3_" class="st9" d="M962.53-164.66h-37.32l-4.06-43.44h45.34L962.53-164.66z"/>
		<circle id="Elipse_68_3_" class="st9" cx="943.69" cy="-186.38" r="10.36"/>
		<line id="Línea_50_3_" class="st9" x1="935.11" y1="-208.1" x2="935.6" y2="-192.85"/>
		<line id="Línea_51_3_" class="st9" x1="952.23" y1="-208.1" x2="951.72" y2="-192.92"/>
		<line id="Línea_52_3_" class="st9" x1="936.02" y1="-179.41" x2="936.49" y2="-164.66"/>
		<line id="Línea_53_3_" class="st9" x1="951.27" y1="-179.41" x2="950.77" y2="-164.66"/>
		<rect id="Rectángulo_113_3_" x="918.97" y="-216.45" class="st9" width="49.65" height="8.36"/>
	</g>
	<path id="Trazado_190_3_" class="st9" d="M932.58-223.39c0.8-2.02,3.1-3.01,5.12-2.21"/>
	<path id="Trazado_191_3_" class="st9" d="M950.19-226.64c2.05-0.73,4.31,0.35,5.03,2.4"/>
</g>
<path id="Rectángulo_37_1_" class="st12" d="M-315.2,899.71h129.04c37.5,0,67.9,30.4,67.9,67.9l0,0c0,37.5-30.4,67.9-67.9,67.9
	H-315.2c-37.5,0-67.9-30.4-67.9-67.9l0,0C-383.1,930.11-352.7,899.71-315.2,899.71z"/>
<g id="Grupo_174_1_" transform="translate(-820.998 -467.103)">
	<path id="Trazado_186_4_" class="st9" d="M529.77,1432.17c0,11.56-9.38,20.93-20.94,20.93c-11.56,0-20.92-9.37-20.93-20.93"/>
	<line id="Línea_40_4_" class="st9" x1="508.84" y1="1453.21" x2="508.84" y2="1471.88"/>
	<line id="Línea_41_4_" class="st9" x1="496.08" y1="1471.88" x2="522.07" y2="1471.88"/>
	<path id="Rectángulo_112_4_" class="st9" d="M508.84,1396.71L508.84,1396.71c7.05,0,12.76,5.71,12.76,12.76v22.07
		c0,7.05-5.71,12.76-12.76,12.76l0,0c-7.05,0-12.76-5.71-12.76-12.76v-22.07C496.08,1402.42,501.79,1396.71,508.84,1396.71z"/>
	<line id="Línea_42_4_" class="st9" x1="496.08" y1="1411.32" x2="502.9" y2="1411.32"/>
	<line id="Línea_44_4_" class="st9" x1="496.08" y1="1420.29" x2="502.9" y2="1420.29"/>
	<line id="Línea_45_4_" class="st9" x1="496.08" y1="1429.27" x2="502.9" y2="1429.27"/>
	<line id="Línea_46_4_" class="st9" x1="514.77" y1="1411.32" x2="521.59" y2="1411.32"/>
	<line id="Línea_48_4_" class="st9" x1="514.77" y1="1420.29" x2="521.59" y2="1420.29"/>
	<line id="Línea_49_4_" class="st9" x1="514.77" y1="1429.27" x2="521.59" y2="1429.27"/>
</g>
<g id="Grupo_173_4_" transform="translate(-535.864 214.643)">
	<path id="Trazado_187_4_" class="st16" d="M333.64,735.05"/>
	<path id="Trazado_188_4_" class="st9" d="M370.04,731.05c0-2.39-1.68-4.45-4.02-4.93c-0.21-2.61-2.39-4.63-5.01-4.63
		c-0.25,0-0.5,0.02-0.75,0.06c-4.39-1.12-8.55-3.02-12.29-5.59c-2.41,0-4.47,1.7-4.94,4.07c-2.53,2.46-6.42,2.86-9.39,0.96
		c-2.78,0-5.03,2.25-5.03,5.03l0,0c0,0.02,0,0.03,0,0.05c-0.23-0.03-0.45-0.05-0.68-0.05c-2.78,0-5.03,2.25-5.03,5.03v0"/>
	<g id="Grupo_172_4_">
		<path id="Trazado_189_4_" class="st9" d="M365.33,789.5h-37.32l-4.06-43.44h45.34L365.33,789.5z"/>
		<circle id="Elipse_68_4_" class="st9" cx="346.48" cy="767.78" r="10.36"/>
		<line id="Línea_50_4_" class="st9" x1="337.91" y1="746.06" x2="338.39" y2="761.31"/>
		<line id="Línea_51_4_" class="st9" x1="355.03" y1="746.06" x2="354.52" y2="761.24"/>
		<line id="Línea_52_4_" class="st9" x1="338.82" y1="774.75" x2="339.29" y2="789.5"/>
		<line id="Línea_53_4_" class="st9" x1="354.06" y1="774.75" x2="353.57" y2="789.5"/>
		<rect id="Rectángulo_113_4_" x="321.77" y="737.7" class="st9" width="49.65" height="8.36"/>
	</g>
	<path id="Trazado_190_4_" class="st9" d="M335.38,730.77c0.8-2.02,3.1-3.01,5.12-2.21"/>
	<path id="Trazado_191_4_" class="st9" d="M352.99,727.52c2.05-0.73,4.31,0.35,5.03,2.4"/>
</g>
<circle id="Elipse_53_1_" class="st2" cx="-462.84" cy="1349.97" r="25.74"/>
<path id="Rectángulo_73_1_" class="st6" d="M-462.84,1339.25L-462.84,1339.25c0.97,0,1.76,0.79,1.76,1.76v17.92
	c0,0.97-0.79,1.76-1.76,1.76l0,0c-0.97,0-1.76-0.79-1.76-1.76v-17.92C-464.6,1340.04-463.81,1339.25-462.84,1339.25z"/>
<path id="Rectángulo_74_1_" class="st6" d="M-452.12,1349.97L-452.12,1349.97c0,0.97-0.79,1.76-1.76,1.76h-17.92
	c-0.97,0-1.76-0.79-1.76-1.76l0,0c0-0.97,0.79-1.76,1.76-1.76h17.92C-452.91,1348.21-452.12,1349-452.12,1349.97z"/>
<circle id="Elipse_60" class="st6" cx="-257.84" cy="1347.82" r="25.74"/>
<path id="Rectángulo_97" class="st2" d="M-257.84,1337.1L-257.84,1337.1c0.97,0,1.76,0.79,1.76,1.76v17.92
	c0,0.97-0.79,1.76-1.76,1.76l0,0c-0.97,0-1.76-0.79-1.76-1.76v-17.92C-259.6,1337.88-258.81,1337.1-257.84,1337.1z"/>
<path id="Rectángulo_98" class="st2" d="M-247.12,1347.82L-247.12,1347.82c0,0.97-0.79,1.76-1.76,1.76h-17.92
	c-0.97,0-1.76-0.79-1.76-1.76l0,0c0-0.97,0.79-1.76,1.76-1.76h17.92C-247.91,1346.06-247.12,1346.84-247.12,1347.82z"/>
<path id="Trazado_124_1_" class="st2" d="M-388.49,2413.89c19.59,0,35.47-15.88,35.47-35.47c0.06-56.26,45.66-101.86,101.92-101.92
	c56.26,0.06,101.86,45.66,101.92,101.92c0,19.59,15.88,35.47,35.47,35.47c19.59,0,35.47-15.88,35.47-35.47
	c0.13-45.87-18.11-89.88-50.63-122.23c-32.35-32.52-76.36-50.76-122.23-50.63c-45.87-0.13-89.88,18.11-122.23,50.63
	c-32.52,32.35-50.75,76.36-50.63,122.23C-423.96,2398.01-408.08,2413.89-388.49,2413.89
	C-388.5,2413.89-388.5,2413.89-388.49,2413.89z"/>
<g>
	<g id="Grupo_132_1_" transform="translate(47.033 54.45)">
		<path id="Trazado_125_1_" class="st6" d="M-301.73,2882.43c6.61-0.02,12.93,2.74,17.41,7.6h9.59c-5.69-9.47-15.95-15.24-27-15.19
			c-11.05-0.05-21.31,5.72-27,15.19h9.59C-314.65,2885.17-308.34,2882.41-301.73,2882.43z"/>
	</g>
	<path id="Trazado_126_1_" class="st6" d="M-328.74,2921.42l5.07-30.1h7.68l5.98,16.05l5.94-16.05h7.69l5.07,30.1h-7.72l-2.57-17.33
		l-7.05,17.33h-3.09l-6.69-17.33l-2.57,17.33H-328.74z"/>
	<path id="Trazado_127_1_" class="st6" d="M-289.63,2905.65c-0.02-2.13,0.4-4.24,1.23-6.2c0.79-1.88,1.95-3.58,3.41-5.01
		c1.49-1.45,3.27-2.59,5.21-3.35c2.13-0.82,4.39-1.24,6.67-1.21c2.28-0.02,4.53,0.39,6.66,1.21c1.95,0.75,3.74,1.89,5.25,3.35
		c1.46,1.43,2.63,3.13,3.43,5.01c0.83,1.96,1.25,4.07,1.23,6.2c0.02,2.13-0.4,4.24-1.23,6.2c-0.8,1.88-1.96,3.59-3.43,5.01
		c-1.51,1.45-3.29,2.59-5.25,3.35c-2.12,0.82-4.38,1.23-6.66,1.21c-2.28,0.03-4.55-0.38-6.67-1.21c-1.94-0.76-3.71-1.89-5.21-3.35
		c-1.46-1.43-2.61-3.13-3.41-5.01C-289.23,2909.89-289.65,2907.78-289.63,2905.65z M-281.51,2905.65c-0.01,1.13,0.22,2.25,0.68,3.29
		c0.43,0.98,1.05,1.87,1.82,2.62c0.77,0.74,1.68,1.33,2.67,1.72c1.03,0.41,2.12,0.62,3.23,0.61c1.11,0.01,2.2-0.2,3.23-0.61
		c1-0.4,1.91-0.98,2.69-1.72c0.78-0.74,1.41-1.63,1.84-2.62c0.46-1.04,0.68-2.16,0.67-3.29c0.01-1.13-0.22-2.25-0.67-3.29
		c-0.44-0.98-1.06-1.87-1.84-2.61c-0.78-0.74-1.7-1.32-2.69-1.72c-1.03-0.41-2.12-0.62-3.23-0.61c-1.11-0.01-2.2,0.2-3.23,0.61
		c-0.99,0.39-1.9,0.98-2.67,1.72c-0.77,0.75-1.39,1.63-1.82,2.61C-281.29,2903.4-281.52,2904.52-281.51,2905.65z"/>
	<path id="Trazado_128_1_" class="st6" d="M-252.64,2905.65c-0.02-2.13,0.4-4.24,1.23-6.2c0.79-1.88,1.95-3.58,3.41-5.01
		c1.49-1.45,3.27-2.59,5.21-3.35c2.13-0.83,4.39-1.24,6.68-1.21c2.27-0.02,4.53,0.39,6.65,1.21c1.96,0.75,3.74,1.89,5.25,3.35
		c1.46,1.42,2.63,3.13,3.43,5.01c0.83,1.96,1.24,4.07,1.23,6.2c0.02,2.13-0.4,4.24-1.23,6.2c-0.8,1.88-1.96,3.59-3.43,5.01
		c-1.51,1.46-3.29,2.59-5.25,3.35c-2.12,0.82-4.38,1.23-6.65,1.21c-2.28,0.03-4.55-0.38-6.68-1.21c-1.94-0.76-3.71-1.89-5.21-3.35
		c-1.46-1.43-2.61-3.13-3.41-5.01C-252.24,2909.89-252.66,2907.78-252.64,2905.65z M-244.52,2905.65c-0.01,1.13,0.22,2.25,0.67,3.29
		c0.43,0.98,1.05,1.87,1.82,2.62c0.77,0.74,1.68,1.33,2.67,1.72c1.03,0.41,2.12,0.62,3.23,0.61c1.11,0.01,2.2-0.2,3.23-0.61
		c1-0.4,1.91-0.98,2.69-1.72c0.78-0.74,1.41-1.63,1.84-2.62c0.46-1.03,0.69-2.16,0.68-3.29c0.01-1.13-0.22-2.25-0.68-3.29
		c-0.44-0.98-1.06-1.87-1.84-2.61c-0.78-0.74-1.69-1.32-2.69-1.72c-1.03-0.41-2.12-0.62-3.23-0.61c-1.11-0.01-2.2,0.2-3.23,0.61
		c-0.99,0.4-1.9,0.98-2.67,1.72c-0.77,0.75-1.39,1.63-1.82,2.61C-244.31,2903.4-244.54,2904.52-244.52,2905.65L-244.52,2905.65z"/>
	<path id="Trazado_129_1_" class="st6" d="M-215.66,2891.31h11.49c1.98-0.01,3.93,0.41,5.72,1.24c1.75,0.8,3.33,1.92,4.67,3.29
		c1.34,1.38,2.41,3.01,3.15,4.79c0.76,1.81,1.15,3.76,1.15,5.73c0,1.95-0.38,3.89-1.13,5.69c-0.73,1.79-1.79,3.42-3.13,4.81
		c-1.34,1.39-2.92,2.51-4.67,3.31c-1.81,0.83-3.77,1.25-5.76,1.24h-11.49L-215.66,2891.31z M-207.9,2914.79h1.78
		c1.23,0.02,2.45-0.2,3.6-0.64c1.01-0.39,1.92-0.99,2.68-1.76c0.73-0.76,1.3-1.66,1.66-2.65c0.39-1.08,0.59-2.22,0.57-3.37
		c0.01-1.15-0.19-2.28-0.59-3.35c-0.37-1-0.94-1.91-1.68-2.68c-0.76-0.77-1.67-1.36-2.67-1.76c-1.14-0.44-2.35-0.66-3.56-0.64h-1.78
		L-207.9,2914.79z"/>
	<rect id="Rectángulo_83_1_" x="-281.67" y="2874.84" class="st6" width="22.47" height="7.53"/>
	<rect id="Rectángulo_84_1_" x="-250.01" y="2874.84" class="st6" width="22.47" height="7.53"/>
</g>
<g>
	<g id="Grupo_98" transform="translate(47.035 54.451)">
		<path id="Trazado_90" class="st6" d="M303.08,2586.2c-6.61,0.02-12.93-2.73-17.41-7.59h-9.59c9.06,14.91,28.5,19.66,43.42,10.59
			c4.33-2.63,7.96-6.26,10.59-10.59h-9.59C316.01,2583.47,309.69,2586.22,303.08,2586.2z"/>
	</g>
	<path id="Trazado_91" class="st6" d="M276.08,2625.18l5.07-30.1h7.69l5.98,16.05l5.94-16.05h7.69l5.07,30.1h-7.73l-2.58-17.33
		l-7.05,17.33h-3.09l-6.69-17.33l-2.58,17.33L276.08,2625.18z"/>
	<path id="Trazado_92" class="st6" d="M315.18,2609.42c-0.08-6.43,3.84-12.24,9.84-14.56c4.3-1.61,9.03-1.61,13.33,0
		c1.95,0.76,3.74,1.89,5.25,3.35c1.46,1.43,2.63,3.13,3.42,5.01c1.64,3.97,1.64,8.43,0,12.4c-0.8,1.88-1.96,3.58-3.42,5.01
		c-1.51,1.45-3.29,2.59-5.25,3.35c-4.3,1.61-9.03,1.61-13.33,0C319.03,2621.65,315.11,2615.85,315.18,2609.42L315.18,2609.42z
		 M323.3,2609.42c-0.01,1.13,0.22,2.25,0.67,3.29c0.87,1.98,2.49,3.54,4.5,4.34c3.13,1.26,6.7,0.59,9.15-1.72
		c0.78-0.74,1.41-1.63,1.84-2.61c0.9-2.1,0.9-4.48,0-6.57c-0.44-0.98-1.06-1.87-1.84-2.62c-0.78-0.74-1.7-1.32-2.7-1.72
		c-2.07-0.82-4.38-0.82-6.45,0c-0.99,0.39-1.9,0.98-2.67,1.72c-0.77,0.75-1.39,1.63-1.82,2.62
		C323.52,2607.17,323.29,2608.29,323.3,2609.42z"/>
	<path id="Trazado_93" class="st6" d="M352.16,2609.42c-0.08-6.43,3.84-12.24,9.84-14.56c4.3-1.61,9.03-1.61,13.33,0
		c1.95,0.76,3.74,1.89,5.25,3.35c1.46,1.42,2.63,3.13,3.43,5.01c1.64,3.97,1.64,8.43,0,12.4c-0.8,1.88-1.96,3.59-3.43,5.01
		c-1.51,1.45-3.29,2.59-5.25,3.35c-4.3,1.61-9.03,1.61-13.33,0C356.01,2621.65,352.09,2615.85,352.16,2609.42L352.16,2609.42z
		 M360.28,2609.42c-0.01,1.13,0.22,2.25,0.67,3.29c0.87,1.98,2.49,3.54,4.5,4.34c2.07,0.82,4.38,0.82,6.45,0
		c1-0.4,1.91-0.98,2.69-1.72c0.78-0.74,1.41-1.63,1.84-2.61c0.9-2.1,0.9-4.48,0-6.57c-0.44-0.98-1.06-1.87-1.84-2.62
		c-0.78-0.74-1.69-1.32-2.69-1.72c-2.07-0.82-4.38-0.82-6.45,0c-0.99,0.39-1.9,0.98-2.67,1.72c-0.77,0.75-1.39,1.63-1.82,2.62
		C360.5,2607.17,360.27,2608.29,360.28,2609.42z"/>
	<path id="Trazado_94" class="st6" d="M389.15,2595.08h11.49c1.98-0.01,3.93,0.41,5.72,1.24c1.75,0.8,3.33,1.92,4.67,3.29
		c1.34,1.38,2.41,3.01,3.15,4.79c1.53,3.65,1.53,7.76,0.02,11.42c-0.73,1.79-1.79,3.42-3.13,4.81c-1.34,1.39-2.92,2.51-4.67,3.31
		c-1.81,0.83-3.77,1.25-5.76,1.24h-11.49V2595.08z M396.91,2618.56h1.78c1.23,0.02,2.45-0.2,3.6-0.64c1-0.39,1.91-0.99,2.67-1.76
		c0.73-0.76,1.3-1.66,1.66-2.66c0.39-1.08,0.59-2.22,0.58-3.37c0.01-1.14-0.19-2.28-0.59-3.35c-0.74-2.04-2.33-3.66-4.36-4.43
		c-1.14-0.44-2.35-0.66-3.56-0.64h-1.78L396.91,2618.56z"/>
	<rect id="Rectángulo_56" x="323.14" y="2578.6" class="st6" width="22.47" height="7.53"/>
	<rect id="Rectángulo_57" x="354.8" y="2578.6" class="st6" width="22.47" height="7.53"/>
</g>
</svg>
