<svg id="Capa_1" data-name="Capa 1" xmlns="http://www.w3.org/2000/svg" viewBox="0 0 475.14 475.14"><defs><style>.cls-1,.cls-3{fill:#e3d7ce;}.cls-1{stroke:#20345b;stroke-miterlimit:10;stroke-width:20px;}.cls-2{fill:#20345b;}</style></defs><title>Star Wars</title><g id="Elipse_27-2" data-name="Elipse 27-2"><circle class="cls-1" cx="237.57" cy="237.57" r="227.57"/></g><path class="cls-2" d="M287.12,293.15V256.59s-21.34,11.11-39,11.11-35.22-11.95-35.22-11.95v37.4s-84.43-1.6-84.43,93.49h243.1C371.55,291.55,287.12,293.15,287.12,293.15Z" transform="translate(-12.43 -12.43)"/><path class="cls-2" d="M371.55,390.09H128.45a3.44,3.44,0,0,1-3.45-3.45c0-31,8.75-55.24,26-72.18,21.22-20.81,48.73-24.15,58.42-24.67v-34a3.45,3.45,0,0,1,5.38-2.85c.17.12,16.92,11.35,33.29,11.35,16.61,0,37.23-10.61,37.43-10.72a3.45,3.45,0,0,1,5,3.06v33.2c9.69.52,37.2,3.86,58.42,24.67,17.26,16.94,26,41.22,26,72.18A3.44,3.44,0,0,1,371.55,390.09ZM131.94,383.2H368.07c-.62-27.36-8.64-48.8-23.85-63.76-23.52-23.13-56.73-22.85-57-22.84a3.35,3.35,0,0,1-2.48-1,3.44,3.44,0,0,1-1-2.46V262c-7.58,3.38-22.38,9.11-35.58,9.11-12.63,0-25-5.59-31.78-9.32v31.32a3.46,3.46,0,0,1-1,2.47,3.61,3.61,0,0,1-2.48,1c-.34,0-33.51-.29-57,22.84C140.57,334.4,132.55,355.84,131.94,383.2Z" transform="translate(-12.43 -12.43)"/><path class="cls-3" d="M249.82,113.36H230.49s-41.45,3-41.45,38.36v25.59h-4.91l-2.95,28.12s-21.69,12,5.67,39.37,32.64,38.79,50.1,21.32h26.1c17.46,17.47,22.75,6,50.1-21.32s5.67-39.37,5.67-39.37l-2.95-28.12H311V151.72c0-35.36-41.45-38.36-41.45-38.36H249.82" transform="translate(-12.43 -12.43)"/><path class="cls-2" d="M277.43,277.89c-5,0-9.76-2.51-15.79-8.32H238.36c-6.08,5.86-10.85,8.4-15.92,8.32-8.39-.08-15.61-7.55-27.56-19.94-3.08-3.19-6.57-6.81-10.47-10.72-11-11-15.92-21.2-14.64-30.32a20.57,20.57,0,0,1,8.14-13.44L181,173.86h4.57V151.72c0-38.13,44.21-41.77,44.65-41.8h39.52c.44,0,44.65,3.67,44.65,41.8v22.14H319l3.11,29.61a20.57,20.57,0,0,1,8.14,13.44c1.28,9.12-3.64,19.33-14.64,30.32-3.9,3.91-7.39,7.53-10.47,10.72-11.95,12.39-19.17,19.86-27.56,19.94Zm-41.9-15.22h28.94l1,1c5.09,5.09,8.84,7.33,12,7.31,5.5-.05,12-6.74,22.65-17.83,3.1-3.21,6.62-6.85,10.57-10.8,9.2-9.21,13.59-17.65,12.69-24.4a13.61,13.61,0,0,0-6.28-9.52l-1.53-.88-.2-1.77-2.63-25H311v-2.21h-3.45V151.72c0-13.18-6.27-23-18.64-29.27a59.27,59.27,0,0,0-19.51-5.64H230.63c-2.72.22-38.14,3.77-38.14,34.91v26.83H189v2.21h-1.81l-2.81,26.82-1.57.87a13.62,13.62,0,0,0-6.26,9.51c-.9,6.75,3.49,15.19,12.7,24.4,3.94,3.95,7.46,7.59,10.56,10.8C210.54,264.25,217,270.94,222.5,271c3.23,0,6.94-2.22,12-7.31Z" transform="translate(-12.43 -12.43)"/><path class="cls-2" d="M201,174.55v14.92s.26,7.86,7.86,7.86,17.16-9,30.9-22.78Z" transform="translate(-12.43 -12.43)"/><path class="cls-2" d="M208.89,200.3c-7.68,0-10.68-6.42-10.83-10.73v-15a3,3,0,0,1,3-3h38.76a3,3,0,0,1,2.1,5.07C227.17,191.36,217.61,200.3,208.89,200.3ZM204,177.52v11.95c.06,1.06.59,4.89,4.89,4.89,5.51,0,13.39-6.76,23.68-16.84Z" transform="translate(-12.43 -12.43)"/><path class="cls-2" d="M299,174.55v14.92s-.26,7.86-7.86,7.86-15.5-7.39-30.9-22.78Z" transform="translate(-12.43 -12.43)"/><path class="cls-2" d="M291.11,200.3c-8.93,0-17.46-8.11-33-23.65a3,3,0,0,1,2.1-5.07H299a3,3,0,0,1,3,3v14.92C301.79,193.88,298.79,200.3,291.11,200.3Zm-23.69-22.78c11.85,11.65,18.2,16.84,23.69,16.84,4.3,0,4.83-3.83,4.89-5V177.52Z" transform="translate(-12.43 -12.43)"/><polygon class="cls-2" points="176.61 152.69 298.53 152.69 297.94 139.09 177.2 139.09 176.61 152.69"/><path class="cls-2" d="M311,168.57H189a3.45,3.45,0,0,1-3.44-3.6l.59-13.6a3.45,3.45,0,0,1,3.44-3.3H310.37a3.45,3.45,0,0,1,3.44,3.3l.59,13.6a3.45,3.45,0,0,1-3.44,3.6Zm-118.32-6.9H307.36l-.3-6.7H192.94Z" transform="translate(-12.43 -12.43)"/><path class="cls-2" d="M233.68,254.63S230.21,277,250.41,277s15.72-22.38,15.72-22.38-2.55-20.14-15.72-20.14C235.44,234.49,233.68,254.63,233.68,254.63Z" transform="translate(-12.43 -12.43)"/><path class="cls-2" d="M250.41,280.46c-6.61,0-11.78-2.11-15.35-6.27-6.33-7.39-5-18.57-4.81-20,.74-8.08,5.88-23.19,20.16-23.19,15.6,0,18.85,21.08,19.12,23.05.26,1.39,2.1,12.65-4,20.09C262.12,278.35,257,280.46,250.41,280.46Zm-13.32-25.3c0,.17-1.31,9.3,3.23,14.56,2.23,2.59,5.53,3.85,10.09,3.85s7.7-1.23,9.78-3.75c4.3-5.22,2.57-14.42,2.55-14.52l0-.23c0-.17-2.34-17.13-12.3-17.13-11.68,0-13.28,16.83-13.3,17S237.1,255.08,237.09,255.16Zm-3.41-.53h0Z" transform="translate(-12.43 -12.43)"/><circle class="cls-2" cx="198.51" cy="227.54" r="9.28"/><path class="cls-2" d="M210.94,252.69A12.73,12.73,0,1,1,223.67,240,12.74,12.74,0,0,1,210.94,252.69Zm0-18.55a5.83,5.83,0,1,0,5.83,5.82A5.83,5.83,0,0,0,210.94,234.14Z" transform="translate(-12.43 -12.43)"/><circle class="cls-2" cx="276.44" cy="227.54" r="9.28"/><path class="cls-2" d="M288.87,252.69A12.73,12.73,0,1,1,301.59,240,12.74,12.74,0,0,1,288.87,252.69Zm0-18.55A5.83,5.83,0,1,0,294.7,240,5.83,5.83,0,0,0,288.87,234.14Z" transform="translate(-12.43 -12.43)"/><path class="cls-2" d="M202.59,224.06a3,3,0,0,1-.08-5.94c2.9-.08,11.22-1.1,14.89-4.77,5.17-5.16,18.52-13.35,32.36-13.35,13.44,0,27.29,7.81,32.84,13.35,3.67,3.67,12,4.69,14.89,4.77a3,3,0,0,1,2.89,3,3,3,0,0,1-3,2.89c-.53,0-12.84-.4-18.94-6.51-4.69-4.68-17-11.61-28.64-11.61-11.41,0-23.33,6.79-28.16,11.61-6.1,6.11-18.41,6.5-18.93,6.51Z" transform="translate(-12.43 -12.43)"/><path class="cls-2" d="M280.5,215.45c-30.59-6.33-61,0-61,0,5.34-5.33,18-12.48,30.26-12.48S275.16,210.12,280.5,215.45Z" transform="translate(-12.43 -12.43)"/><path class="cls-2" d="M280.5,218.42a3.23,3.23,0,0,1-.61-.06c-29.58-6.13-59.48-.06-59.78,0a3,3,0,0,1-2.71-5c5.17-5.16,18.52-13.35,32.36-13.35,13.44,0,27.29,7.81,32.84,13.35a3,3,0,0,1,.51,3.51A3,3,0,0,1,280.5,218.42Zm-30.74-12.48c-6.29,0-12.75,2.07-18.08,4.73a176.79,176.79,0,0,1,36.08-.18C262.41,207.93,256,205.94,249.76,205.94Z" transform="translate(-12.43 -12.43)"/><path class="cls-3" d="M369.81,364.36H287.12V293.15s70.64-1.34,82.69,71.21" transform="translate(-12.43 -12.43)"/><path class="cls-2" d="M369.81,367.33H287.12a3,3,0,0,1-3-3V293.15a3,3,0,0,1,2.92-3,96.83,96.83,0,0,1,38.11,8.67c18.15,8.27,41.13,26.26,47.56,65a3,3,0,0,1-2.93,3.45Zm-79.71-5.94h76.15c-5.38-27.13-19.95-46.31-43.33-57a94.31,94.31,0,0,0-32.82-8.14Z" transform="translate(-12.43 -12.43)"/><path class="cls-3" d="M130.19,364.36c12.05-72.55,82.69-71.21,82.69-71.21v71.21H130.19" transform="translate(-12.43 -12.43)"/><path class="cls-2" d="M212.88,367.33H130.19a3,3,0,0,1-2.93-3.45c6.43-38.77,29.41-56.76,47.56-65a96.77,96.77,0,0,1,38.11-8.67,3,3,0,0,1,2.92,3v71.21A3,3,0,0,1,212.88,367.33Zm-79.13-5.94h76.16V296.21a94.3,94.3,0,0,0-32.83,8.14C153.7,315.08,139.14,334.26,133.75,361.39Z" transform="translate(-12.43 -12.43)"/><path class="cls-3" d="M369.81,364.36H287.12V293.15s70.64-1.34,82.69,71.21" transform="translate(-12.43 -12.43)"/><path class="cls-2" d="M369.81,367.33H287.12a3,3,0,0,1-3-3V293.15a3,3,0,0,1,2.92-3,96.83,96.83,0,0,1,38.11,8.67c18.15,8.27,41.13,26.26,47.56,65a3,3,0,0,1-2.93,3.45Zm-79.71-5.94h76.15c-5.38-27.13-19.95-46.31-43.33-57a94.31,94.31,0,0,0-32.82-8.14Z" transform="translate(-12.43 -12.43)"/><path class="cls-3" d="M130.19,364.36c12.05-72.55,82.69-71.21,82.69-71.21v59a12.21,12.21,0,0,1-12.21,12.21H130.19" transform="translate(-12.43 -12.43)"/><path class="cls-2" d="M200.67,367.33H130.19a3,3,0,0,1-2.93-3.45c6.43-38.77,29.41-56.76,47.56-65a96.77,96.77,0,0,1,38.11-8.67,3,3,0,0,1,2.92,3v59A15.2,15.2,0,0,1,200.67,367.33Zm-66.92-5.94h66.92a9.25,9.25,0,0,0,9.24-9.24V296.21a94.3,94.3,0,0,0-32.83,8.14C153.7,315.08,139.14,334.26,133.75,361.39Z" transform="translate(-12.43 -12.43)"/><path class="cls-3" d="M369.81,364.36H299.33a12.21,12.21,0,0,1-12.21-12.21v-59s70.64-1.34,82.69,71.21" transform="translate(-12.43 -12.43)"/><path class="cls-2" d="M369.81,367.33H299.33a15.2,15.2,0,0,1-15.18-15.18v-59a3,3,0,0,1,2.92-3,96.83,96.83,0,0,1,38.11,8.67c18.15,8.27,41.13,26.26,47.56,65a3,3,0,0,1-2.93,3.45ZM290.1,296.21v55.94a9.24,9.24,0,0,0,9.23,9.24h66.92c-5.38-27.13-19.95-46.31-43.33-57A94.31,94.31,0,0,0,290.1,296.21Z" transform="translate(-12.43 -12.43)"/><polygon class="cls-3" points="197.37 306.53 277.89 306.53 277.97 292.94 197.37 292.94 197.37 306.53"/></svg>