<svg id="Capa_1" data-name="Capa 1" xmlns="http://www.w3.org/2000/svg" viewBox="0 0 278 149"><defs><style>.cls-1{fill:#e3d6cd;stroke-miterlimit:10;stroke-width:10px;}.cls-1,.cls-3{stroke:#1e335b;}.cls-2{fill:#1e335b;}.cls-3{fill:none;stroke-linecap:round;stroke-linejoin:round;stroke-width:5px;}</style></defs><title>Switch</title><path id="Rectángulo_37" data-name="Rectángulo 37" class="cls-1" d="M74.65,6.69h129a67.89,67.89,0,0,1,67.89,67.9h0a67.89,67.89,0,0,1-67.89,67.9h-129A67.89,67.89,0,0,1,6.76,74.59h0A67.89,67.89,0,0,1,74.65,6.69Z"/><g id="Grupo_187" data-name="Grupo 187"><circle id="Elipse_28" data-name="Elipse 28" class="cls-2" cx="181.07" cy="69.31" r="6.06"/><circle id="Elipse_29" data-name="Elipse 29" class="cls-2" cx="223.5" cy="69.31" r="6.06"/><path id="Trazado_54" data-name="Trazado 54" class="cls-3" d="M188.32,94.6s13.2-16,29-.27"/><line id="Línea_19" data-name="Línea 19" class="cls-3" x1="175.37" y1="58.44" x2="186.76" y2="54.29"/><line id="Línea_20" data-name="Línea 20" class="cls-3" x1="217.8" y1="54.29" x2="229.2" y2="58.44"/></g><circle id="Elipse_22" data-name="Elipse 22" class="cls-2" cx="54.56" cy="71.05" r="6.06"/><path id="Trazado_50" data-name="Trazado 50" class="cls-3" d="M48.5,58.11a6.06,6.06,0,1,1,12.12,0"/><path id="Trazado_51" data-name="Trazado 51" class="cls-3" d="M90.93,58.11a6.07,6.07,0,0,1,12.13,0"/><circle id="Elipse_23" data-name="Elipse 23" class="cls-2" cx="96.99" cy="71.05" r="6.06"/><path id="Trazado_52" data-name="Trazado 52" class="cls-3" d="M90.79,89.13s-13.2,16.05-29,.27"/></svg>