<svg id="Capa_1" data-name="Capa 1" xmlns="http://www.w3.org/2000/svg" viewBox="0 0 278 149"><defs><style>.cls-1{fill:#e3d6cd;stroke:#1e335b;stroke-miterlimit:10;stroke-width:10px;}.cls-2{fill:#e4d8ce;}.cls-2,.cls-3{stroke:#002e61;stroke-linecap:round;stroke-linejoin:round;stroke-width:5px;}.cls-3{fill:none;}</style></defs><title>QueQuieres</title><path id="Rectángulo_37" data-name="Rectángulo 37" class="cls-1" d="M74.65,6.69h129a67.89,67.89,0,0,1,67.89,67.9h0a67.89,67.89,0,0,1-67.89,67.9h-129A67.89,67.89,0,0,1,6.76,74.59h0A67.89,67.89,0,0,1,74.65,6.69Z"/><g id="Grupo_174" data-name="Grupo 174"><path id="Trazado_186" data-name="Trazado 186" class="cls-2" d="M99.16,72a20.94,20.94,0,0,1-41.87,0"/><line id="Línea_40" data-name="Línea 40" class="cls-3" x1="78.23" y1="93" x2="78.23" y2="111.66"/><line id="Línea_41" data-name="Línea 41" class="cls-3" x1="65.47" y1="111.66" x2="91.46" y2="111.66"/><path id="Rectángulo_112" data-name="Rectángulo 112" class="cls-2" d="M78.23,36.5h0A12.76,12.76,0,0,1,91,49.26V71.33A12.76,12.76,0,0,1,78.23,84.09h0A12.76,12.76,0,0,1,65.47,71.33V49.26A12.76,12.76,0,0,1,78.23,36.5Z"/><line id="Línea_42" data-name="Línea 42" class="cls-3" x1="65.47" y1="51.1" x2="72.29" y2="51.1"/><line id="Línea_44" data-name="Línea 44" class="cls-3" x1="65.47" y1="60.08" x2="72.29" y2="60.08"/><line id="Línea_45" data-name="Línea 45" class="cls-3" x1="65.47" y1="69.06" x2="72.29" y2="69.06"/><line id="Línea_46" data-name="Línea 46" class="cls-3" x1="84.16" y1="51.1" x2="90.98" y2="51.1"/><line id="Línea_48" data-name="Línea 48" class="cls-3" x1="84.16" y1="60.08" x2="90.98" y2="60.08"/><line id="Línea_49" data-name="Línea 49" class="cls-3" x1="84.16" y1="69.06" x2="90.98" y2="69.06"/></g><g id="Grupo_173" data-name="Grupo 173"><path id="Trazado_188" data-name="Trazado 188" class="cls-3" d="M224.49,52.58a5,5,0,0,0-4-4.93,5,5,0,0,0-5-4.63,4.74,4.74,0,0,0-.75.06,38.54,38.54,0,0,1-12.29-5.59,5,5,0,0,0-4.94,4.07,7.6,7.6,0,0,1-9.39,1,5,5,0,0,0-5,5h0v.05a5.19,5.19,0,0,0-.68-.05,5,5,0,0,0-5,5h0"/><g id="Grupo_172" data-name="Grupo 172"><path id="Trazado_189" data-name="Trazado 189" class="cls-3" d="M219.78,111H182.47l-4.06-43.44h45.34Z"/><circle id="Elipse_68" data-name="Elipse 68" class="cls-3" cx="200.94" cy="89.31" r="10.36"/><line id="Línea_50" data-name="Línea 50" class="cls-3" x1="192.36" y1="67.59" x2="192.85" y2="82.84"/><line id="Línea_51" data-name="Línea 51" class="cls-3" x1="209.48" y1="67.59" x2="208.97" y2="82.77"/><line id="Línea_52" data-name="Línea 52" class="cls-3" x1="193.27" y1="96.28" x2="193.74" y2="111.03"/><line id="Línea_53" data-name="Línea 53" class="cls-3" x1="208.52" y1="96.28" x2="208.02" y2="111.03"/><rect id="Rectángulo_113" data-name="Rectángulo 113" class="cls-3" x="176.22" y="59.23" width="49.65" height="8.36"/></g><path id="Trazado_190" data-name="Trazado 190" class="cls-3" d="M189.83,52.3A4,4,0,0,1,195,50.09"/><path id="Trazado_191" data-name="Trazado 191" class="cls-3" d="M207.44,49.05a3.94,3.94,0,0,1,5,2.4"/></g></svg>