<svg id="Capa_1" data-name="Capa 1" xmlns="http://www.w3.org/2000/svg" viewBox="0 0 475.14 475.14"><defs><style>.cls-1{fill:#e55552;stroke:#20345b;stroke-miterlimit:10;stroke-width:20px;}.cls-2{fill:#e3d7cf;}.cls-3{fill:#20345b;}</style></defs><title>Trainspotting</title><g id="Elipse_27-2" data-name="Elipse 27-2"><circle class="cls-1" cx="237.57" cy="237.57" r="227.57"/></g><path class="cls-2" d="M287.12,264.32v36.56s84.43-1.6,84.43,93.49H128.45c0-95.09,84.43-93.49,84.43-93.49v-37.4a71,71,0,0,0,38.51,11.95C273.63,275.43,287.12,264.32,287.12,264.32Z" transform="translate(-12.43 -12.43)"/><path class="cls-3" d="M371.55,397.82H128.45a3.44,3.44,0,0,1-3.45-3.43v0c0-31,8.75-55.24,26-72.17,21.22-20.82,48.73-24.16,58.42-24.68v-34a3.43,3.43,0,0,1,1.89-3.07,3.46,3.46,0,0,1,3.6.29c.15.11,15.69,11.28,36.47,11.28s33.42-10.22,33.55-10.33a3.45,3.45,0,0,1,5.63,2.67v33.2c9.69.52,37.2,3.86,58.42,24.68,17.26,16.93,26,41.21,26,72.17A3.45,3.45,0,0,1,371.55,397.82Zm-239.61-6.89H368.07c-.62-27.36-8.64-48.8-23.85-63.76-23.53-23.13-56.72-22.83-57-22.84a3.3,3.3,0,0,1-2.48-1,3.43,3.43,0,0,1-1-2.46V270.69a66.35,66.35,0,0,1-32.29,8.19,74.35,74.35,0,0,1-35.07-9.23v31.23a3.42,3.42,0,0,1-3.48,3.47c-.34,0-33.51-.29-57,22.84-15.33,14.94-23.35,36.38-24,63.74Z" transform="translate(-12.43 -12.43)"/><g id="Elipse_27-2-2" data-name="Elipse 27-2-2"><ellipse class="cls-2" cx="239.05" cy="185.83" rx="66" ry="77.17"/><path class="cls-3" d="M251.48,278.88c-38.29,0-69.45-36.17-69.45-80.62v-7.79c-.17-23.26-.32-43.35,13.19-57,10.76-10.83,28.64-15.87,56.29-15.87,31.63,0,50.92,7.72,60.72,24.3C321,156.67,321,176.85,321,198.22,320.92,242.71,289.77,278.88,251.48,278.88Zm0-154.34c-25.34,0-42.15,4.52-51.39,13.83-11.49,11.57-11.35,30.33-11.2,52v7.84c0,40.65,28.06,73.72,62.55,73.72s62.56-33,62.56-73.67C314,155.46,314,124.54,251.48,124.54Z" transform="translate(-12.43 -12.43)"/></g><path class="cls-3" d="M250,396.81H128.45a3.44,3.44,0,0,1-3.45-3.45h0c0-31,8.75-55.25,26-72.18,21.22-20.82,48.73-24.16,58.42-24.67v-32.6a3.45,3.45,0,1,1,6.89-.37,2.29,2.29,0,0,1,0,.37v36a3.44,3.44,0,0,1-3.45,3.45h-.06c-.33,0-33.51-.29-57,22.84-15.21,15-23.23,36.4-23.84,63.75H250a3.45,3.45,0,1,1,0,6.9Z" transform="translate(-12.43 -12.43)"/><path class="cls-3" d="M371.55,396.81H250a3.45,3.45,0,0,1,0-6.9H368.07c-.62-27.35-8.64-48.79-23.85-63.75-23.52-23.13-56.73-22.84-57-22.84a3.38,3.38,0,0,1-2.48-1,3.43,3.43,0,0,1-1-2.46V267a3.45,3.45,0,0,1,6.89,0v29.55c9.69.51,37.2,3.85,58.42,24.67,17.26,16.93,26,41.22,26,72.18a3.44,3.44,0,0,1-3.49,3.41Z" transform="translate(-12.43 -12.43)"/><path class="cls-3" d="M186.57,396.81a3.44,3.44,0,0,1-3.45-3.45h0V304.25a3.45,3.45,0,0,1,6.9,0v89.11A3.47,3.47,0,0,1,186.57,396.81Z" transform="translate(-12.43 -12.43)"/><path class="cls-3" d="M174.42,396.81a3.47,3.47,0,0,1-3.45-3.45V309a3.45,3.45,0,0,1,6.9,0v84.33a3.44,3.44,0,0,1-3.42,3.48Z" transform="translate(-12.43 -12.43)"/><path class="cls-3" d="M327.5,396.81a3.44,3.44,0,0,1-3.45-3.45h0V310a3.45,3.45,0,0,1,6.9,0v83.37A3.46,3.46,0,0,1,327.5,396.81Z" transform="translate(-12.43 -12.43)"/><path class="cls-3" d="M315.35,396.81a3.45,3.45,0,0,1-3.44-3.45V304.88a3.45,3.45,0,0,1,6.89-.37,2.29,2.29,0,0,1,0,.37v88.48A3.44,3.44,0,0,1,315.35,396.81Z" transform="translate(-12.43 -12.43)"/><path class="cls-3" d="M251.14,341.21c-47.1,0-47.71-39.22-47.71-39.62a3.44,3.44,0,0,1,3.45-3.45h0a3.45,3.45,0,0,1,3.45,3.44c0,1.33.71,32.73,40.81,32.73,40.3,0,40.81-31.39,40.81-32.73a3.45,3.45,0,0,1,3.45-3.44h0a3.44,3.44,0,0,1,3.45,3.45h0C298.85,302,298.24,341.21,251.14,341.21Z" transform="translate(-12.43 -12.43)"/><path class="cls-3" d="M250.59,352.25H250c-57.27,0-58.3-49.74-58.3-50.24a3.44,3.44,0,0,1,3.42-3.48h0A3.46,3.46,0,0,1,198.6,302v0c0,1.8,1.1,43.41,51.4,43.41h.59c50.3,0,51.39-39.46,51.41-41.14a3.45,3.45,0,0,1,3.45-3.41h0a3.44,3.44,0,0,1,3.41,3.47h0C308.89,304.76,307.86,352.25,250.59,352.25Z" transform="translate(-12.43 -12.43)"/><path class="cls-3" d="M250.92,163.29c21.54,0,38.23-15.9,46.13-19.36a7.23,7.23,0,0,1,9.51,3.79l.09.21c.64,1.61,1.25,3.46,1.84,5.49,2.58,8.93,16,5.69,14-3.39-5.1-23.08-22.89-44.38-71.17-44.38S185.25,127,180.15,150c-2,9.08,11.45,12.32,14,3.39.58-2,1.19-3.83,1.82-5.42a7.21,7.21,0,0,1,9.32-4.17l.41.17c7.74,3.46,23.89,19.25,45.22,19.25" transform="translate(-12.43 -12.43)"/><path class="cls-3" d="M250.92,166.74c-16.89,0-30.52-9.14-39.54-15.19a60,60,0,0,0-7.09-4.37,3.73,3.73,0,0,0-2.95-.05,3.78,3.78,0,0,0-2.11,2.13c-.57,1.43-1.14,3.14-1.7,5.09a10.49,10.49,0,0,1-12.81,7.48l-.19-.05a10.29,10.29,0,0,1-7.75-12.33c0-.06,0-.12,0-.18,8.61-38.92,45.29-47.09,74.54-47.09s65.94,8.17,74.54,47.09a10.28,10.28,0,0,1-7.51,12.46l-.2.05a10.48,10.48,0,0,1-12.94-7.2l-.06-.23a53.13,53.13,0,0,0-1.74-5.16,3.79,3.79,0,0,0-2.1-2.13,3.68,3.68,0,0,0-2.91,0,62.06,62.06,0,0,0-7.33,4.43C281.86,157.58,267.91,166.74,250.92,166.74ZM202.75,140a10.59,10.59,0,0,1,4.36.94,60.88,60.88,0,0,1,8.11,4.93c8.82,5.92,20.91,14,35.7,14s27.33-8.14,36.39-14.09a66,66,0,0,1,8.36-5,10.7,10.7,0,0,1,14.06,5.56l.12.3c.66,1.65,1.32,3.61,1.95,5.81a3.64,3.64,0,0,0,4.38,2.73l.3-.08a3.41,3.41,0,0,0,2.77-3.95,2.62,2.62,0,0,0-.09-.38c-6.12-27.66-28.93-41.68-67.81-41.68s-61.69,14-67.81,41.68a3.42,3.42,0,0,0,2.32,4.24,2.49,2.49,0,0,0,.37.09,3.65,3.65,0,0,0,4.59-2.36c0-.1.06-.19.08-.29a57.73,57.73,0,0,1,1.93-5.74,10.74,10.74,0,0,1,9.92-6.75Z" transform="translate(-12.43 -12.43)"/><path class="cls-3" d="M225.82,204.31H202.21a3.45,3.45,0,0,1,0-6.9h23.61a3.45,3.45,0,0,1,0,6.9Z" transform="translate(-12.43 -12.43)"/><path class="cls-3" d="M300.07,204.31H276.46a3.45,3.45,0,0,1,0-6.9h23.61a3.45,3.45,0,0,1,0,6.9Z" transform="translate(-12.43 -12.43)"/><path class="cls-3" d="M260.21,250.85H242.59a3.45,3.45,0,0,1-.37-6.89,2.29,2.29,0,0,1,.37,0h17.62a3.45,3.45,0,1,1,.37,6.89A2.29,2.29,0,0,1,260.21,250.85Z" transform="translate(-12.43 -12.43)"/><path class="cls-3" d="M218.75,234.13a18.49,18.49,0,0,1-11-4.25,3.45,3.45,0,1,1,4.39-5.33c.28.23,6.36,5.08,10,1.08a3.45,3.45,0,0,1,5.28,4.44l-.19.21A11.13,11.13,0,0,1,218.75,234.13Z" transform="translate(-12.43 -12.43)"/><path class="cls-3" d="M281.25,234.13a11.17,11.17,0,0,1-8.52-3.85,3.45,3.45,0,1,1,5.1-4.65h0c3.7,4.06,9.94-1,10-1.07a3.45,3.45,0,1,1,4.4,5.32h0A18.5,18.5,0,0,1,281.25,234.13Z" transform="translate(-12.43 -12.43)"/><path class="cls-3" d="M251.87,153.31c30.41,0,50.29-11.8,50.29-11.8,9.59,3.37,14.8,65.54,14.8,65.54s39.83-101.42-65.52-101.42-65.52,101.42-65.52,101.42,5.22-62.17,14.81-65.54c0,0,19.88,11.8,50.28,11.8" transform="translate(-12.43 -12.43)"/><path class="cls-3" d="M185.92,210.5a3.43,3.43,0,0,1-3.2-2.19A126.88,126.88,0,0,1,176,180.69c-2.68-20.84.59-38.72,9.44-51.71,12.12-17.79,34.32-26.8,66-26.8s53.87,9,66,26.8c8.86,13,12.12,30.87,9.44,51.71a128,128,0,0,1-6.7,27.62,3.42,3.42,0,0,1-3.71,2.15,3.46,3.46,0,0,1-2.94-3.12c-2.46-29.36-7.62-56.23-11.68-61.74-6,3.06-24.26,11.16-50,11.16H251c-25.74,0-44-8.13-50-11.17-4,5.4-9.19,32.32-11.66,61.75a3.44,3.44,0,0,1-2.94,3.12A2.49,2.49,0,0,1,185.92,210.5Zm65.52-101.42c-29.25,0-49.53,8-60.29,23.78-11.74,17.22-10,40.44-6.75,56,.53-4.32,1.17-9.07,1.92-13.85,4.69-29.93,9.34-35.37,13.26-36.75a3.43,3.43,0,0,1,2.91.29c.19.11,19.52,11.31,48.52,11.31a3.09,3.09,0,0,1,.43,0,3.09,3.09,0,0,1,.43,0c29,0,48.34-11.2,48.53-11.32a3.47,3.47,0,0,1,2.9-.28c3.93,1.38,8.57,6.82,13.26,36.75.75,4.76,1.39,9.5,1.92,13.81,3.2-15.58,5-38.8-6.76-56C301,117.07,280.68,109.08,251.44,109.08Z" transform="translate(-12.43 -12.43)"/><polygon class="cls-3" points="174.14 291.82 174.14 380.93 302.92 380.93 302.92 292.45 293.02 291.82 292.35 297.56 290.32 305.09 286.7 312.96 280.43 321.32 274.28 326.58 261.73 332.89 246.82 335.96 232.01 336.2 217.77 333.89 206.22 329.18 198.84 323.99 192.02 316.5 187.82 309.4 184.95 302.09 183.13 294.05 182.72 289.55 174.14 291.82"/><circle class="cls-3" cx="204.91" cy="203.15" r="5.9"/><circle class="cls-3" cx="270.23" cy="203.15" r="5.9"/></svg>